<?xml version="1.0" encoding="utf-8"?>
<!-- Generator: Adobe Illustrator 21.1.0, SVG Export Plug-In . SVG Version: 6.00 Build 0)  -->
<svg version="1.1" id="Layer_1" xmlns="http://www.w3.org/2000/svg" xmlns:xlink="http://www.w3.org/1999/xlink" x="0px" y="0px"
	 viewBox="0 0 375 1600" style="enable-background:new 0 0 375 1600;" xml:space="preserve">
<style type="text/css">
	.st0{fill:url(#SVGID_1_);}
	.st1{opacity:0.17;}
	.st2{fill:#1A1A1A;}
	.st3{fill:#333333;}
</style>
<g>
	
		<linearGradient id="SVGID_1_" gradientUnits="userSpaceOnUse" x1="-17.3" y1="-440" x2="391.3" y2="-440" gradientTransform="matrix(1 0 0 1 0 1240)">
		<stop  offset="0" style="stop-color:#F6912A"/>
		<stop  offset="0.2591" style="stop-color:#EF4E23"/>
		<stop  offset="0.6566" style="stop-color:#6E3078"/>
		<stop  offset="0.9781" style="stop-color:#00416B"/>
		<stop  offset="1" style="stop-color:#00416B"/>
	</linearGradient>
	<rect x="-17.3" y="-32" class="st0" width="408.6" height="1664"/>
</g>
<g>
	<g class="st1">
		<polygon class="st2" points="-34.7,-25.8 14.6,-1.2 -34.7,23.5 		"/>
		<polygon points="63.8,-25.8 113.1,-1.2 63.8,23.5 		"/>
		<polygon points="63.8,23.5 14.6,-1.2 63.8,-25.8 		"/>
		<polygon points="162.4,-25.8 211.6,-1.2 162.4,23.5 		"/>
		<polygon points="162.4,23.5 113.1,-1.2 162.4,-25.8 		"/>
		<polygon points="14.6,-1.2 63.8,23.5 14.6,48.1 		"/>
		<polygon points="14.6,48.1 -34.7,23.5 14.6,-1.2 		"/>
		<polygon class="st2" points="113.1,-1.2 162.4,23.5 113.1,48.1 		"/>
		<polygon points="113.1,48.1 63.8,23.5 113.1,-1.2 		"/>
		<polygon points="-34.7,23.5 14.6,48.1 -34.7,72.8 		"/>
		<polygon class="st2" points="63.8,23.5 113.1,48.1 63.8,72.8 		"/>
		<polygon class="st2" points="63.8,72.8 14.6,48.1 63.8,23.5 		"/>
		<polygon class="st3" points="162.4,23.5 211.6,48.1 162.4,72.8 		"/>
		<polygon points="162.4,72.8 113.1,48.1 162.4,23.5 		"/>
		<polygon class="st2" points="14.6,48.1 63.8,72.8 14.6,97.4 		"/>
		<polygon points="14.6,97.4 -34.7,72.8 14.6,48.1 		"/>
		<polygon class="st3" points="113.1,48.1 162.4,72.8 113.1,97.4 		"/>
		<polygon points="113.1,97.4 63.8,72.8 113.1,48.1 		"/>
		<polygon class="st3" points="-34.7,72.8 14.6,97.4 -34.7,122 		"/>
		<polygon class="st3" points="63.8,72.8 113.1,97.4 63.8,122 		"/>
		<polygon class="st2" points="63.8,122 14.6,97.4 63.8,72.8 		"/>
		<polygon class="st2" points="162.4,72.8 211.6,97.4 162.4,122 		"/>
		<polygon points="162.4,122 113.1,97.4 162.4,72.8 		"/>
		<polygon points="14.6,97.4 63.8,122 14.6,146.7 		"/>
		<polygon points="14.6,146.7 -34.7,122 14.6,97.4 		"/>
		<polygon points="113.1,97.4 162.4,122 113.1,146.7 		"/>
		<polygon class="st3" points="113.1,146.7 63.8,122 113.1,97.4 		"/>
		<polygon class="st3" points="-34.7,122 14.6,146.7 -34.7,171.3 		"/>
		<polygon points="63.8,122 113.1,146.7 63.8,171.3 		"/>
		<polygon class="st3" points="63.8,171.3 14.6,146.7 63.8,122 		"/>
		<polygon points="162.4,122 211.6,146.7 162.4,171.3 		"/>
		<polygon class="st3" points="162.4,171.3 113.1,146.7 162.4,122 		"/>
		<polygon points="14.6,146.7 63.8,171.3 14.6,195.9 		"/>
		<polygon points="14.6,195.9 -34.7,171.3 14.6,146.7 		"/>
		<polygon points="113.1,146.7 162.4,171.3 113.1,195.9 		"/>
		<polygon class="st2" points="113.1,195.9 63.8,171.3 113.1,146.7 		"/>
		<polygon class="st2" points="-34.7,171.3 14.6,195.9 -34.7,220.6 		"/>
		<polygon points="63.8,171.3 113.1,195.9 63.8,220.6 		"/>
		<polygon points="63.8,220.6 14.6,195.9 63.8,171.3 		"/>
		<polygon class="st2" points="162.4,171.3 211.6,195.9 162.4,220.6 		"/>
		<polygon points="162.4,220.6 113.1,195.9 162.4,171.3 		"/>
		<polygon class="st3" points="14.6,195.9 63.8,220.6 14.6,245.2 		"/>
		<polygon class="st2" points="14.6,245.2 -34.7,220.6 14.6,195.9 		"/>
		<polygon points="113.1,195.9 162.4,220.6 113.1,245.2 		"/>
		<polygon points="113.1,245.2 63.8,220.6 113.1,195.9 		"/>
		<polygon points="-34.7,220.6 14.6,245.2 -34.7,269.8 		"/>
		<polygon points="63.8,220.6 113.1,245.2 63.8,269.8 		"/>
		<polygon points="63.8,269.8 14.6,245.2 63.8,220.6 		"/>
		<polygon class="st2" points="162.4,220.6 211.6,245.2 162.4,269.8 		"/>
		<polygon class="st3" points="162.4,269.8 113.1,245.2 162.4,220.6 		"/>
		<polygon points="14.6,245.2 63.8,269.8 14.6,294.5 		"/>
		<polygon points="14.6,294.5 -34.7,269.8 14.6,245.2 		"/>
		<polygon class="st3" points="113.1,245.2 162.4,269.8 113.1,294.5 		"/>
		<polygon class="st3" points="113.1,294.5 63.8,269.8 113.1,245.2 		"/>
		<polygon class="st3" points="-34.7,269.8 14.6,294.5 -34.7,319.1 		"/>
		<polygon points="63.8,269.8 113.1,294.5 63.8,319.1 		"/>
		<polygon class="st3" points="63.8,319.1 14.6,294.5 63.8,269.8 		"/>
		<polygon points="162.4,269.8 211.6,294.5 162.4,319.1 		"/>
		<polygon points="162.4,319.1 113.1,294.5 162.4,269.8 		"/>
		<polygon class="st2" points="359.4,319.1 310.2,294.5 359.4,269.8 		"/>
		<polygon class="st3" points="359.4,269.8 408.7,294.5 359.4,319.1 		"/>
		<polygon class="st3" points="260.9,319.1 211.6,294.5 260.9,269.8 		"/>
		<polygon class="st2" points="260.9,269.8 310.2,294.5 260.9,319.1 		"/>
		<polygon points="408.7,294.5 359.4,269.8 408.7,245.2 		"/>
		<polygon class="st3" points="310.2,294.5 260.9,269.8 310.2,245.2 		"/>
		<polygon points="310.2,245.2 359.4,269.8 310.2,294.5 		"/>
		<polygon points="211.6,294.5 162.4,269.8 211.6,245.2 		"/>
		<polygon points="211.6,245.2 260.9,269.8 211.6,294.5 		"/>
		<polygon points="359.4,269.8 310.2,245.2 359.4,220.6 		"/>
		<polygon class="st2" points="359.4,220.6 408.7,245.2 359.4,269.8 		"/>
		<polygon points="260.9,269.8 211.6,245.2 260.9,220.6 		"/>
		<polygon class="st2" points="260.9,220.6 310.2,245.2 260.9,269.8 		"/>
		<polygon class="st3" points="408.7,245.2 359.4,220.6 408.7,195.9 		"/>
		<polygon class="st2" points="310.2,245.2 260.9,220.6 310.2,195.9 		"/>
		<polygon points="310.2,195.9 359.4,220.6 310.2,245.2 		"/>
		<polygon class="st3" points="211.6,245.2 162.4,220.6 211.6,195.9 		"/>
		<polygon class="st2" points="211.6,195.9 260.9,220.6 211.6,245.2 		"/>
		<polygon points="359.4,220.6 310.2,195.9 359.4,171.3 		"/>
		<polygon points="359.4,171.3 408.7,195.9 359.4,220.6 		"/>
		<polygon class="st2" points="260.9,220.6 211.6,195.9 260.9,171.3 		"/>
		<polygon points="260.9,171.3 310.2,195.9 260.9,220.6 		"/>
		<polygon points="408.7,195.9 359.4,171.3 408.7,146.7 		"/>
		<polygon points="310.2,195.9 260.9,171.3 310.2,146.7 		"/>
		<polygon points="310.2,146.7 359.4,171.3 310.2,195.9 		"/>
		<polygon class="st3" points="211.6,195.9 162.4,171.3 211.6,146.7 		"/>
		<polygon points="211.6,146.7 260.9,171.3 211.6,195.9 		"/>
		<polygon class="st3" points="359.4,171.3 310.2,146.7 359.4,122 		"/>
		<polygon points="359.4,122 408.7,146.7 359.4,171.3 		"/>
		<polygon points="260.9,171.3 211.6,146.7 260.9,122 		"/>
		<polygon class="st3" points="260.9,122 310.2,146.7 260.9,171.3 		"/>
		<polygon class="st2" points="408.7,146.7 359.4,122 408.7,97.4 		"/>
		<polygon points="310.2,146.7 260.9,122 310.2,97.4 		"/>
		<polygon points="310.2,97.4 359.4,122 310.2,146.7 		"/>
		<polygon points="211.6,146.7 162.4,122 211.6,97.4 		"/>
		<polygon points="211.6,97.4 260.9,122 211.6,146.7 		"/>
		<polygon points="359.4,122 310.2,97.4 359.4,72.8 		"/>
		<polygon points="359.4,72.8 408.7,97.4 359.4,122 		"/>
		<polygon class="st2" points="260.9,122 211.6,97.4 260.9,72.8 		"/>
		<polygon points="260.9,72.8 310.2,97.4 260.9,122 		"/>
		<polygon points="408.7,97.4 359.4,72.8 408.7,48.1 		"/>
		<polygon class="st2" points="310.2,97.4 260.9,72.8 310.2,48.1 		"/>
		<polygon class="st2" points="310.2,48.1 359.4,72.8 310.2,97.4 		"/>
		<polygon class="st3" points="211.6,97.4 162.4,72.8 211.6,48.1 		"/>
		<polygon points="211.6,48.1 260.9,72.8 211.6,97.4 		"/>
		<polygon class="st2" points="359.4,72.8 310.2,48.1 359.4,23.5 		"/>
		<polygon points="359.4,23.5 408.7,48.1 359.4,72.8 		"/>
		<polygon class="st3" points="260.9,72.8 211.6,48.1 260.9,23.5 		"/>
		<polygon points="260.9,23.5 310.2,48.1 260.9,72.8 		"/>
		<polygon class="st3" points="408.7,48.1 359.4,23.5 408.7,-1.2 		"/>
		<polygon class="st3" points="310.2,48.1 260.9,23.5 310.2,-1.2 		"/>
		<polygon class="st2" points="310.2,-1.2 359.4,23.5 310.2,48.1 		"/>
		<polygon class="st2" points="211.6,48.1 162.4,23.5 211.6,-1.2 		"/>
		<polygon points="211.6,-1.2 260.9,23.5 211.6,48.1 		"/>
		<polygon points="359.4,23.5 310.2,-1.2 359.4,-25.8 		"/>
		<polygon points="359.4,-25.8 408.7,-1.2 359.4,23.5 		"/>
		<polygon points="260.9,23.5 211.6,-1.2 260.9,-25.8 		"/>
		<polygon class="st3" points="260.9,-25.8 310.2,-1.2 260.9,23.5 		"/>
	</g>
	<g>
		<g class="st1">
			<polygon class="st2" points="14.6,787.1 63.8,811.8 14.6,836.4 			"/>
			<polygon class="st3" points="14.6,836.4 -34.7,811.8 14.6,787.1 			"/>
			<polygon class="st3" points="113.1,787.1 162.4,811.8 113.1,836.4 			"/>
			<polygon class="st2" points="113.1,836.4 63.8,811.8 113.1,787.1 			"/>
			<polygon points="-34.7,811.8 14.6,836.4 -34.7,861 			"/>
			<polygon class="st3" points="63.8,811.8 113.1,836.4 63.8,861 			"/>
			<polygon points="63.8,861 14.6,836.4 63.8,811.8 			"/>
			<polygon points="162.4,811.8 211.6,836.4 162.4,861 			"/>
			<polygon points="162.4,861 113.1,836.4 162.4,811.8 			"/>
			<polygon points="14.6,836.4 63.8,861 14.6,885.7 			"/>
			<polygon class="st2" points="14.6,885.7 -34.7,861 14.6,836.4 			"/>
			<polygon points="113.1,836.4 162.4,861 113.1,885.7 			"/>
			<polygon class="st2" points="113.1,885.7 63.8,861 113.1,836.4 			"/>
			<polygon class="st3" points="-34.7,861 14.6,885.7 -34.7,910.3 			"/>
			<polygon class="st2" points="63.8,861 113.1,885.7 63.8,910.3 			"/>
			<polygon points="63.8,910.3 14.6,885.7 63.8,861 			"/>
			<polygon class="st3" points="162.4,861 211.6,885.7 162.4,910.3 			"/>
			<polygon class="st2" points="162.4,910.3 113.1,885.7 162.4,861 			"/>
			<polygon points="14.6,885.7 63.8,910.3 14.6,934.9 			"/>
			<polygon points="14.6,934.9 -34.7,910.3 14.6,885.7 			"/>
			<polygon class="st2" points="113.1,885.7 162.4,910.3 113.1,934.9 			"/>
			<polygon points="113.1,934.9 63.8,910.3 113.1,885.7 			"/>
			<polygon points="-34.7,910.3 14.6,934.9 -34.7,959.6 			"/>
			<polygon points="63.8,910.3 113.1,934.9 63.8,959.6 			"/>
			<polygon points="63.8,959.6 14.6,934.9 63.8,910.3 			"/>
			<polygon class="st3" points="162.4,910.3 211.6,934.9 162.4,959.6 			"/>
			<polygon points="162.4,959.6 113.1,934.9 162.4,910.3 			"/>
			<polygon class="st3" points="14.6,934.9 63.8,959.6 14.6,984.2 			"/>
			<polygon points="14.6,984.2 -34.7,959.6 14.6,934.9 			"/>
			<polygon points="113.1,934.9 162.4,959.6 113.1,984.2 			"/>
			<polygon class="st3" points="113.1,984.2 63.8,959.6 113.1,934.9 			"/>
			<polygon class="st2" points="-34.7,959.6 14.6,984.2 -34.7,1008.9 			"/>
			<polygon points="63.8,959.6 113.1,984.2 63.8,1008.9 			"/>
			<polygon points="63.8,1008.9 14.6,984.2 63.8,959.6 			"/>
			<polygon points="162.4,959.6 211.6,984.2 162.4,1008.9 			"/>
			<polygon points="162.4,1008.9 113.1,984.2 162.4,959.6 			"/>
			<polygon points="14.6,984.2 63.8,1008.9 14.6,1033.5 			"/>
			<polygon points="14.6,1033.5 -34.7,1008.9 14.6,984.2 			"/>
			<polygon class="st2" points="113.1,984.2 162.4,1008.9 113.1,1033.5 			"/>
			<polygon points="113.1,1033.5 63.8,1008.9 113.1,984.2 			"/>
			<polygon points="-34.7,1008.9 14.6,1033.5 -34.7,1058.1 			"/>
			<polygon class="st2" points="63.8,1008.9 113.1,1033.5 63.8,1058.1 			"/>
			<polygon class="st2" points="63.8,1058.1 14.6,1033.5 63.8,1008.9 			"/>
			<polygon class="st3" points="162.4,1008.9 211.6,1033.5 162.4,1058.1 			"/>
			<polygon points="162.4,1058.1 113.1,1033.5 162.4,1008.9 			"/>
			<polygon class="st2" points="14.6,1033.5 63.8,1058.1 14.6,1082.8 			"/>
			<polygon points="14.6,1082.8 -34.7,1058.1 14.6,1033.5 			"/>
			<polygon class="st3" points="113.1,1033.5 162.4,1058.1 113.1,1082.8 			"/>
			<polygon points="113.1,1082.8 63.8,1058.1 113.1,1033.5 			"/>
			<polygon class="st3" points="-34.7,1058.1 14.6,1082.8 -34.7,1107.4 			"/>
			<polygon class="st3" points="63.8,1058.1 113.1,1082.8 63.8,1107.4 			"/>
			<polygon class="st2" points="63.8,1107.4 14.6,1082.8 63.8,1058.1 			"/>
			<polygon class="st2" points="162.4,1058.1 211.6,1082.8 162.4,1107.4 			"/>
			<polygon points="162.4,1107.4 113.1,1082.8 162.4,1058.1 			"/>
			<polygon points="14.6,1082.8 63.8,1107.4 14.6,1132 			"/>
			<polygon points="14.6,1132 -34.7,1107.4 14.6,1082.8 			"/>
			<polygon points="113.1,1082.8 162.4,1107.4 113.1,1132 			"/>
			<polygon class="st3" points="113.1,1132 63.8,1107.4 113.1,1082.8 			"/>
			<polygon class="st3" points="-34.7,1107.4 14.6,1132 -34.7,1156.7 			"/>
			<polygon points="63.8,1107.4 113.1,1132 63.8,1156.7 			"/>
			<polygon class="st3" points="63.8,1156.7 14.6,1132 63.8,1107.4 			"/>
			<polygon points="162.4,1107.4 211.6,1132 162.4,1156.7 			"/>
			<polygon class="st3" points="162.4,1156.7 113.1,1132 162.4,1107.4 			"/>
			<polygon points="14.6,1132 63.8,1156.7 14.6,1181.3 			"/>
			<polygon points="14.6,1181.3 -34.7,1156.7 14.6,1132 			"/>
			<polygon points="113.1,1132 162.4,1156.7 113.1,1181.3 			"/>
			<polygon class="st2" points="113.1,1181.3 63.8,1156.7 113.1,1132 			"/>
			<polygon class="st2" points="-34.7,1156.7 14.6,1181.3 -34.7,1205.9 			"/>
			<polygon points="63.8,1156.7 113.1,1181.3 63.8,1205.9 			"/>
			<polygon points="63.8,1205.9 14.6,1181.3 63.8,1156.7 			"/>
			<polygon class="st2" points="162.4,1156.7 211.6,1181.3 162.4,1205.9 			"/>
			<polygon points="162.4,1205.9 113.1,1181.3 162.4,1156.7 			"/>
			<polygon class="st3" points="14.6,1181.3 63.8,1205.9 14.6,1230.6 			"/>
			<polygon class="st2" points="14.6,1230.6 -34.7,1205.9 14.6,1181.3 			"/>
			<polygon points="113.1,1181.3 162.4,1205.9 113.1,1230.6 			"/>
			<polygon points="113.1,1230.6 63.8,1205.9 113.1,1181.3 			"/>
			<polygon points="-34.7,1205.9 14.6,1230.6 -34.7,1255.2 			"/>
			<polygon points="63.8,1205.9 113.1,1230.6 63.8,1255.2 			"/>
			<polygon points="63.8,1255.2 14.6,1230.6 63.8,1205.9 			"/>
			<polygon class="st2" points="162.4,1205.9 211.6,1230.6 162.4,1255.2 			"/>
			<polygon class="st3" points="162.4,1255.2 113.1,1230.6 162.4,1205.9 			"/>
			<polygon points="14.6,1230.6 63.8,1255.2 14.6,1279.8 			"/>
			<polygon points="14.6,1279.8 -34.7,1255.2 14.6,1230.6 			"/>
			<polygon class="st3" points="113.1,1230.6 162.4,1255.2 113.1,1279.8 			"/>
			<polygon class="st3" points="113.1,1279.8 63.8,1255.2 113.1,1230.6 			"/>
			<polygon class="st3" points="-34.7,1255.2 14.6,1279.8 -34.7,1304.5 			"/>
			<polygon points="63.8,1255.2 113.1,1279.8 63.8,1304.5 			"/>
			<polygon class="st3" points="63.8,1304.5 14.6,1279.8 63.8,1255.2 			"/>
			<polygon points="162.4,1255.2 211.6,1279.8 162.4,1304.5 			"/>
			<polygon points="162.4,1304.5 113.1,1279.8 162.4,1255.2 			"/>
			<polygon class="st2" points="359.4,1304.5 310.2,1279.8 359.4,1255.2 			"/>
			<polygon class="st3" points="359.4,1255.2 408.7,1279.8 359.4,1304.5 			"/>
			<polygon class="st3" points="260.9,1304.5 211.6,1279.8 260.9,1255.2 			"/>
			<polygon class="st2" points="260.9,1255.2 310.2,1279.8 260.9,1304.5 			"/>
			<polygon points="408.7,1279.8 359.4,1255.2 408.7,1230.6 			"/>
			<polygon class="st3" points="310.2,1279.8 260.9,1255.2 310.2,1230.6 			"/>
			<polygon points="310.2,1230.6 359.4,1255.2 310.2,1279.8 			"/>
			<polygon points="211.6,1279.8 162.4,1255.2 211.6,1230.6 			"/>
			<polygon points="211.6,1230.6 260.9,1255.2 211.6,1279.8 			"/>
			<polygon points="359.4,1255.2 310.2,1230.6 359.4,1205.9 			"/>
			<polygon class="st2" points="359.4,1205.9 408.7,1230.6 359.4,1255.2 			"/>
			<polygon points="260.9,1255.2 211.6,1230.6 260.9,1205.9 			"/>
			<polygon class="st2" points="260.9,1205.9 310.2,1230.6 260.9,1255.2 			"/>
			<polygon class="st3" points="408.7,1230.6 359.4,1205.9 408.7,1181.3 			"/>
			<polygon class="st2" points="310.2,1230.6 260.9,1205.9 310.2,1181.3 			"/>
			<polygon points="310.2,1181.3 359.4,1205.9 310.2,1230.6 			"/>
			<polygon class="st3" points="211.6,1230.6 162.4,1205.9 211.6,1181.3 			"/>
			<polygon class="st2" points="211.6,1181.3 260.9,1205.9 211.6,1230.6 			"/>
			<polygon points="359.4,1205.9 310.2,1181.3 359.4,1156.7 			"/>
			<polygon points="359.4,1156.7 408.7,1181.3 359.4,1205.9 			"/>
			<polygon class="st2" points="260.9,1205.9 211.6,1181.3 260.9,1156.7 			"/>
			<polygon points="260.9,1156.7 310.2,1181.3 260.9,1205.9 			"/>
			<polygon points="408.7,1181.3 359.4,1156.7 408.7,1132 			"/>
			<polygon points="310.2,1181.3 260.9,1156.7 310.2,1132 			"/>
			<polygon points="310.2,1132 359.4,1156.7 310.2,1181.3 			"/>
			<polygon class="st3" points="211.6,1181.3 162.4,1156.7 211.6,1132 			"/>
			<polygon points="211.6,1132 260.9,1156.7 211.6,1181.3 			"/>
			<polygon class="st3" points="359.4,1156.7 310.2,1132 359.4,1107.4 			"/>
			<polygon points="359.4,1107.4 408.7,1132 359.4,1156.7 			"/>
			<polygon points="260.9,1156.7 211.6,1132 260.9,1107.4 			"/>
			<polygon class="st3" points="260.9,1107.4 310.2,1132 260.9,1156.7 			"/>
			<polygon class="st2" points="408.7,1132 359.4,1107.4 408.7,1082.8 			"/>
			<polygon points="310.2,1132 260.9,1107.4 310.2,1082.8 			"/>
			<polygon points="310.2,1082.8 359.4,1107.4 310.2,1132 			"/>
			<polygon points="211.6,1132 162.4,1107.4 211.6,1082.8 			"/>
			<polygon points="211.6,1082.8 260.9,1107.4 211.6,1132 			"/>
			<polygon points="359.4,1107.4 310.2,1082.8 359.4,1058.1 			"/>
			<polygon points="359.4,1058.1 408.7,1082.8 359.4,1107.4 			"/>
			<polygon class="st2" points="260.9,1107.4 211.6,1082.8 260.9,1058.1 			"/>
			<polygon points="260.9,1058.1 310.2,1082.8 260.9,1107.4 			"/>
			<polygon points="408.7,1082.8 359.4,1058.1 408.7,1033.5 			"/>
			<polygon class="st2" points="310.2,1082.8 260.9,1058.1 310.2,1033.5 			"/>
			<polygon class="st2" points="310.2,1033.5 359.4,1058.1 310.2,1082.8 			"/>
			<polygon class="st3" points="211.6,1082.8 162.4,1058.1 211.6,1033.5 			"/>
			<polygon points="211.6,1033.5 260.9,1058.1 211.6,1082.8 			"/>
			<polygon class="st2" points="359.4,1058.1 310.2,1033.5 359.4,1008.9 			"/>
			<polygon points="359.4,1008.9 408.7,1033.5 359.4,1058.1 			"/>
			<polygon class="st3" points="260.9,1058.1 211.6,1033.5 260.9,1008.9 			"/>
			<polygon points="260.9,1008.9 310.2,1033.5 260.9,1058.1 			"/>
			<polygon class="st3" points="408.7,1033.5 359.4,1008.9 408.7,984.2 			"/>
			<polygon class="st3" points="310.2,1033.5 260.9,1008.9 310.2,984.2 			"/>
			<polygon class="st2" points="310.2,984.2 359.4,1008.9 310.2,1033.5 			"/>
			<polygon class="st2" points="211.6,1033.5 162.4,1008.9 211.6,984.2 			"/>
			<polygon points="211.6,984.2 260.9,1008.9 211.6,1033.5 			"/>
			<polygon points="359.4,1008.9 310.2,984.2 359.4,959.6 			"/>
			<polygon points="359.4,959.6 408.7,984.2 359.4,1008.9 			"/>
			<polygon points="260.9,1008.9 211.6,984.2 260.9,959.6 			"/>
			<polygon class="st3" points="260.9,959.6 310.2,984.2 260.9,1008.9 			"/>
			<polygon class="st3" points="408.7,984.2 359.4,959.6 408.7,934.9 			"/>
			<polygon points="310.2,984.2 260.9,959.6 310.2,934.9 			"/>
			<polygon class="st3" points="310.2,934.9 359.4,959.6 310.2,984.2 			"/>
			<polygon points="211.6,984.2 162.4,959.6 211.6,934.9 			"/>
			<polygon class="st3" points="211.6,934.9 260.9,959.6 211.6,984.2 			"/>
			<polygon points="359.4,959.6 310.2,934.9 359.4,910.3 			"/>
			<polygon points="359.4,910.3 408.7,934.9 359.4,959.6 			"/>
			<polygon points="260.9,959.6 211.6,934.9 260.9,910.3 			"/>
			<polygon class="st2" points="260.9,910.3 310.2,934.9 260.9,959.6 			"/>
			<polygon class="st2" points="408.7,934.9 359.4,910.3 408.7,885.7 			"/>
			<polygon points="310.2,934.9 260.9,910.3 310.2,885.7 			"/>
			<polygon points="310.2,885.7 359.4,910.3 310.2,934.9 			"/>
			<polygon class="st2" points="211.6,934.9 162.4,910.3 211.6,885.7 			"/>
			<polygon points="211.6,885.7 260.9,910.3 211.6,934.9 			"/>
			<polygon class="st3" points="359.4,910.3 310.2,885.7 359.4,861 			"/>
			<polygon class="st2" points="359.4,861 408.7,885.7 359.4,910.3 			"/>
			<polygon points="260.9,910.3 211.6,885.7 260.9,861 			"/>
			<polygon points="260.9,861 310.2,885.7 260.9,910.3 			"/>
			<polygon points="408.7,885.7 359.4,861 408.7,836.4 			"/>
			<polygon points="310.2,885.7 260.9,861 310.2,836.4 			"/>
			<polygon points="310.2,836.4 359.4,861 310.2,885.7 			"/>
			<polygon class="st2" points="211.6,885.7 162.4,861 211.6,836.4 			"/>
			<polygon class="st3" points="211.6,836.4 260.9,861 211.6,885.7 			"/>
			<polygon points="359.4,861 310.2,836.4 359.4,811.8 			"/>
			<polygon points="359.4,811.8 408.7,836.4 359.4,861 			"/>
			<polygon class="st3" points="260.9,861 211.6,836.4 260.9,811.8 			"/>
			<polygon class="st3" points="260.9,811.8 310.2,836.4 260.9,861 			"/>
			<polygon class="st3" points="408.7,836.4 359.4,811.8 408.7,787.1 			"/>
			<polygon points="310.2,836.4 260.9,811.8 310.2,787.1 			"/>
			<polygon class="st3" points="310.2,787.1 359.4,811.8 310.2,836.4 			"/>
			<polygon points="211.6,836.4 162.4,811.8 211.6,787.1 			"/>
			<polygon points="211.6,787.1 260.9,811.8 211.6,836.4 			"/>
			<polygon class="st2" points="359.4,811.8 310.2,787.1 359.4,762.5 			"/>
			<polygon class="st3" points="359.4,762.5 408.7,787.1 359.4,811.8 			"/>
			<polygon class="st3" points="260.9,811.8 211.6,787.1 260.9,762.5 			"/>
			<polygon class="st2" points="260.9,762.5 310.2,787.1 260.9,811.8 			"/>
			<polygon points="408.7,787.1 359.4,762.5 408.7,737.9 			"/>
			<polygon class="st3" points="310.2,787.1 260.9,762.5 310.2,737.9 			"/>
			<polygon points="310.2,737.9 359.4,762.5 310.2,787.1 			"/>
			<polygon points="211.6,787.1 162.4,762.5 211.6,737.9 			"/>
			<polygon points="211.6,737.9 260.9,762.5 211.6,787.1 			"/>
			<polygon points="359.4,762.5 310.2,737.9 359.4,713.2 			"/>
			<polygon class="st2" points="359.4,713.2 408.7,737.9 359.4,762.5 			"/>
			<polygon points="260.9,762.5 211.6,737.9 260.9,713.2 			"/>
			<polygon class="st2" points="260.9,713.2 310.2,737.9 260.9,762.5 			"/>
			<polygon class="st3" points="408.7,737.9 359.4,713.2 408.7,688.6 			"/>
			<polygon class="st2" points="310.2,737.9 260.9,713.2 310.2,688.6 			"/>
			<polygon points="310.2,688.6 359.4,713.2 310.2,737.9 			"/>
			<polygon class="st3" points="211.6,737.9 162.4,713.2 211.6,688.6 			"/>
			<polygon class="st2" points="211.6,688.6 260.9,713.2 211.6,737.9 			"/>
			<polygon points="359.4,713.2 310.2,688.6 359.4,664 			"/>
			<polygon points="359.4,664 408.7,688.6 359.4,713.2 			"/>
			<polygon class="st2" points="260.9,713.2 211.6,688.6 260.9,664 			"/>
			<polygon points="260.9,664 310.2,688.6 260.9,713.2 			"/>
			<polygon points="408.7,688.6 359.4,664 408.7,639.3 			"/>
			<polygon points="310.2,688.6 260.9,664 310.2,639.3 			"/>
			<polygon points="310.2,639.3 359.4,664 310.2,688.6 			"/>
			<polygon class="st3" points="211.6,688.6 162.4,664 211.6,639.3 			"/>
			<polygon points="211.6,639.3 260.9,664 211.6,688.6 			"/>
			<polygon class="st3" points="359.4,664 310.2,639.3 359.4,614.7 			"/>
			<polygon points="359.4,614.7 408.7,639.3 359.4,664 			"/>
			<polygon points="260.9,664 211.6,639.3 260.9,614.7 			"/>
			<polygon class="st3" points="260.9,614.7 310.2,639.3 260.9,664 			"/>
			<polygon class="st2" points="408.7,639.3 359.4,614.7 408.7,590.1 			"/>
			<polygon points="310.2,639.3 260.9,614.7 310.2,590.1 			"/>
			<polygon points="310.2,590.1 359.4,614.7 310.2,639.3 			"/>
			<polygon points="211.6,639.3 162.4,614.7 211.6,590.1 			"/>
			<polygon points="211.6,590.1 260.9,614.7 211.6,639.3 			"/>
			<polygon points="359.4,614.7 310.2,590.1 359.4,565.4 			"/>
			<polygon points="359.4,565.4 408.7,590.1 359.4,614.7 			"/>
			<polygon class="st2" points="260.9,614.7 211.6,590.1 260.9,565.4 			"/>
			<polygon points="260.9,565.4 310.2,590.1 260.9,614.7 			"/>
			<polygon points="408.7,590.1 359.4,565.4 408.7,540.8 			"/>
			<polygon class="st2" points="310.2,590.1 260.9,565.4 310.2,540.8 			"/>
			<polygon class="st2" points="310.2,540.8 359.4,565.4 310.2,590.1 			"/>
			<polygon class="st3" points="211.6,590.1 162.4,565.4 211.6,540.8 			"/>
			<polygon points="211.6,540.8 260.9,565.4 211.6,590.1 			"/>
			<polygon class="st2" points="359.4,565.4 310.2,540.8 359.4,516.2 			"/>
			<polygon points="359.4,516.2 408.7,540.8 359.4,565.4 			"/>
			<polygon class="st3" points="260.9,565.4 211.6,540.8 260.9,516.2 			"/>
			<polygon points="260.9,516.2 310.2,540.8 260.9,565.4 			"/>
			<polygon class="st3" points="408.7,540.8 359.4,516.2 408.7,491.5 			"/>
			<polygon class="st3" points="310.2,540.8 260.9,516.2 310.2,491.5 			"/>
			<polygon class="st2" points="310.2,491.5 359.4,516.2 310.2,540.8 			"/>
			<polygon class="st2" points="211.6,540.8 162.4,516.2 211.6,491.5 			"/>
			<polygon points="211.6,491.5 260.9,516.2 211.6,540.8 			"/>
			<polygon points="359.4,516.2 310.2,491.5 359.4,466.9 			"/>
			<polygon points="359.4,466.9 408.7,491.5 359.4,516.2 			"/>
			<polygon points="260.9,516.2 211.6,491.5 260.9,466.9 			"/>
			<polygon class="st3" points="260.9,466.9 310.2,491.5 260.9,516.2 			"/>
			<polygon class="st3" points="408.7,491.5 359.4,466.9 408.7,442.3 			"/>
			<polygon points="310.2,491.5 260.9,466.9 310.2,442.3 			"/>
			<polygon class="st3" points="310.2,442.3 359.4,466.9 310.2,491.5 			"/>
			<polygon points="211.6,491.5 162.4,466.9 211.6,442.3 			"/>
			<polygon class="st3" points="211.6,442.3 260.9,466.9 211.6,491.5 			"/>
			<polygon points="359.4,466.9 310.2,442.3 359.4,417.6 			"/>
			<polygon points="359.4,417.6 408.7,442.3 359.4,466.9 			"/>
			<polygon points="260.9,466.9 211.6,442.3 260.9,417.6 			"/>
			<polygon class="st2" points="260.9,417.6 310.2,442.3 260.9,466.9 			"/>
			<polygon class="st2" points="408.7,442.3 359.4,417.6 408.7,393 			"/>
			<polygon points="310.2,442.3 260.9,417.6 310.2,393 			"/>
			<polygon points="310.2,393 359.4,417.6 310.2,442.3 			"/>
			<polygon class="st2" points="211.6,442.3 162.4,417.6 211.6,393 			"/>
			<polygon points="211.6,393 260.9,417.6 211.6,442.3 			"/>
			<polygon class="st3" points="359.4,417.6 310.2,393 359.4,368.4 			"/>
			<polygon class="st2" points="359.4,368.4 408.7,393 359.4,417.6 			"/>
			<polygon points="260.9,417.6 211.6,393 260.9,368.4 			"/>
			<polygon points="260.9,368.4 310.2,393 260.9,417.6 			"/>
			<polygon points="408.7,393 359.4,368.4 408.7,343.7 			"/>
			<polygon points="310.2,393 260.9,368.4 310.2,343.7 			"/>
			<polygon points="310.2,343.7 359.4,368.4 310.2,393 			"/>
			<polygon class="st2" points="211.6,393 162.4,368.4 211.6,343.7 			"/>
			<polygon class="st3" points="211.6,343.7 260.9,368.4 211.6,393 			"/>
			<polygon points="359.4,368.4 310.2,343.7 359.4,319.1 			"/>
			<polygon points="359.4,319.1 408.7,343.7 359.4,368.4 			"/>
			<polygon class="st3" points="260.9,368.4 211.6,343.7 260.9,319.1 			"/>
			<polygon class="st3" points="260.9,319.1 310.2,343.7 260.9,368.4 			"/>
			<polygon class="st3" points="408.7,343.7 359.4,319.1 408.7,294.5 			"/>
			<polygon points="310.2,343.7 260.9,319.1 310.2,294.5 			"/>
			<polygon class="st3" points="310.2,294.5 359.4,319.1 310.2,343.7 			"/>
			<polygon points="211.6,343.7 162.4,319.1 211.6,294.5 			"/>
			<polygon points="211.6,294.5 260.9,319.1 211.6,343.7 			"/>
			<polygon class="st2" points="14.6,294.5 63.8,319.1 14.6,343.7 			"/>
			<polygon class="st3" points="14.6,343.7 -34.7,319.1 14.6,294.5 			"/>
			<polygon class="st3" points="113.1,294.5 162.4,319.1 113.1,343.7 			"/>
			<polygon class="st2" points="113.1,343.7 63.8,319.1 113.1,294.5 			"/>
			<polygon points="-34.7,319.1 14.6,343.7 -34.7,368.4 			"/>
			<polygon class="st3" points="63.8,319.1 113.1,343.7 63.8,368.4 			"/>
			<polygon points="63.8,368.4 14.6,343.7 63.8,319.1 			"/>
			<polygon points="162.4,319.1 211.6,343.7 162.4,368.4 			"/>
			<polygon points="162.4,368.4 113.1,343.7 162.4,319.1 			"/>
			<polygon points="14.6,343.7 63.8,368.4 14.6,393 			"/>
			<polygon class="st2" points="14.6,393 -34.7,368.4 14.6,343.7 			"/>
			<polygon points="113.1,343.7 162.4,368.4 113.1,393 			"/>
			<polygon class="st2" points="113.1,393 63.8,368.4 113.1,343.7 			"/>
			<polygon class="st3" points="-34.7,368.4 14.6,393 -34.7,417.6 			"/>
			<polygon class="st2" points="63.8,368.4 113.1,393 63.8,417.6 			"/>
			<polygon points="63.8,417.6 14.6,393 63.8,368.4 			"/>
			<polygon class="st3" points="162.4,368.4 211.6,393 162.4,417.6 			"/>
			<polygon class="st2" points="162.4,417.6 113.1,393 162.4,368.4 			"/>
			<polygon points="14.6,393 63.8,417.6 14.6,442.3 			"/>
			<polygon points="14.6,442.3 -34.7,417.6 14.6,393 			"/>
			<polygon class="st2" points="113.1,393 162.4,417.6 113.1,442.3 			"/>
			<polygon points="113.1,442.3 63.8,417.6 113.1,393 			"/>
			<polygon points="-34.7,417.6 14.6,442.3 -34.7,466.9 			"/>
			<polygon points="63.8,417.6 113.1,442.3 63.8,466.9 			"/>
			<polygon points="63.8,466.9 14.6,442.3 63.8,417.6 			"/>
			<polygon class="st3" points="162.4,417.6 211.6,442.3 162.4,466.9 			"/>
			<polygon points="162.4,466.9 113.1,442.3 162.4,417.6 			"/>
			<polygon class="st3" points="14.6,442.3 63.8,466.9 14.6,491.5 			"/>
			<polygon points="14.6,491.5 -34.7,466.9 14.6,442.3 			"/>
			<polygon points="113.1,442.3 162.4,466.9 113.1,491.5 			"/>
			<polygon class="st3" points="113.1,491.5 63.8,466.9 113.1,442.3 			"/>
			<polygon class="st2" points="-34.7,466.9 14.6,491.5 -34.7,516.2 			"/>
			<polygon points="63.8,466.9 113.1,491.5 63.8,516.2 			"/>
			<polygon points="63.8,516.2 14.6,491.5 63.8,466.9 			"/>
			<polygon points="162.4,466.9 211.6,491.5 162.4,516.2 			"/>
			<polygon points="162.4,516.2 113.1,491.5 162.4,466.9 			"/>
			<polygon points="14.6,491.5 63.8,516.2 14.6,540.8 			"/>
			<polygon points="14.6,540.8 -34.7,516.2 14.6,491.5 			"/>
			<polygon class="st2" points="113.1,491.5 162.4,516.2 113.1,540.8 			"/>
			<polygon points="113.1,540.8 63.8,516.2 113.1,491.5 			"/>
			<polygon points="-34.7,516.2 14.6,540.8 -34.7,565.4 			"/>
			<polygon class="st2" points="63.8,516.2 113.1,540.8 63.8,565.4 			"/>
			<polygon class="st2" points="63.8,565.4 14.6,540.8 63.8,516.2 			"/>
			<polygon class="st3" points="162.4,516.2 211.6,540.8 162.4,565.4 			"/>
			<polygon points="162.4,565.4 113.1,540.8 162.4,516.2 			"/>
			<polygon class="st2" points="14.6,540.8 63.8,565.4 14.6,590.1 			"/>
			<polygon points="14.6,590.1 -34.7,565.4 14.6,540.8 			"/>
			<polygon class="st3" points="113.1,540.8 162.4,565.4 113.1,590.1 			"/>
			<polygon points="113.1,590.1 63.8,565.4 113.1,540.8 			"/>
			<polygon class="st3" points="-34.7,565.4 14.6,590.1 -34.7,614.7 			"/>
			<polygon class="st3" points="63.8,565.4 113.1,590.1 63.8,614.7 			"/>
			<polygon class="st2" points="63.8,614.7 14.6,590.1 63.8,565.4 			"/>
			<polygon class="st2" points="162.4,565.4 211.6,590.1 162.4,614.7 			"/>
			<polygon points="162.4,614.7 113.1,590.1 162.4,565.4 			"/>
			<polygon points="14.6,590.1 63.8,614.7 14.6,639.3 			"/>
			<polygon points="14.6,639.3 -34.7,614.7 14.6,590.1 			"/>
			<polygon points="113.1,590.1 162.4,614.7 113.1,639.3 			"/>
			<polygon class="st3" points="113.1,639.3 63.8,614.7 113.1,590.1 			"/>
			<polygon class="st3" points="-34.7,614.7 14.6,639.3 -34.7,664 			"/>
			<polygon points="63.8,614.7 113.1,639.3 63.8,664 			"/>
			<polygon class="st3" points="63.8,664 14.6,639.3 63.8,614.7 			"/>
			<polygon points="162.4,614.7 211.6,639.3 162.4,664 			"/>
			<polygon class="st3" points="162.4,664 113.1,639.3 162.4,614.7 			"/>
			<polygon points="14.6,639.3 63.8,664 14.6,688.6 			"/>
			<polygon points="14.6,688.6 -34.7,664 14.6,639.3 			"/>
			<polygon points="113.1,639.3 162.4,664 113.1,688.6 			"/>
			<polygon class="st2" points="113.1,688.6 63.8,664 113.1,639.3 			"/>
			<polygon class="st2" points="-34.7,664 14.6,688.6 -34.7,713.2 			"/>
			<polygon points="63.8,664 113.1,688.6 63.8,713.2 			"/>
			<polygon points="63.8,713.2 14.6,688.6 63.8,664 			"/>
			<polygon class="st2" points="162.4,664 211.6,688.6 162.4,713.2 			"/>
			<polygon points="162.4,713.2 113.1,688.6 162.4,664 			"/>
			<polygon class="st3" points="14.6,688.6 63.8,713.2 14.6,737.9 			"/>
			<polygon class="st2" points="14.6,737.9 -34.7,713.2 14.6,688.6 			"/>
			<polygon points="113.1,688.6 162.4,713.2 113.1,737.9 			"/>
			<polygon points="113.1,737.9 63.8,713.2 113.1,688.6 			"/>
			<polygon points="-34.7,713.2 14.6,737.9 -34.7,762.5 			"/>
			<polygon points="63.8,713.2 113.1,737.9 63.8,762.5 			"/>
			<polygon points="63.8,762.5 14.6,737.9 63.8,713.2 			"/>
			<polygon class="st2" points="162.4,713.2 211.6,737.9 162.4,762.5 			"/>
			<polygon class="st3" points="162.4,762.5 113.1,737.9 162.4,713.2 			"/>
			<polygon points="14.6,737.9 63.8,762.5 14.6,787.1 			"/>
			<polygon points="14.6,787.1 -34.7,762.5 14.6,737.9 			"/>
			<polygon class="st3" points="113.1,737.9 162.4,762.5 113.1,787.1 			"/>
			<polygon class="st3" points="113.1,787.1 63.8,762.5 113.1,737.9 			"/>
			<polygon class="st3" points="-34.7,762.5 14.6,787.1 -34.7,811.8 			"/>
			<polygon points="63.8,762.5 113.1,787.1 63.8,811.8 			"/>
			<polygon class="st3" points="63.8,811.8 14.6,787.1 63.8,762.5 			"/>
			<polygon points="162.4,762.5 211.6,787.1 162.4,811.8 			"/>
			<polygon points="162.4,811.8 113.1,787.1 162.4,762.5 			"/>
		</g>
		<g class="st1">
			<polygon class="st2" points="408.7,1624.8 359.4,1600.2 408.7,1575.5 			"/>
			<polygon points="310.2,1624.8 260.9,1600.2 310.2,1575.5 			"/>
			<polygon points="310.2,1575.5 359.4,1600.2 310.2,1624.8 			"/>
			<polygon points="211.6,1624.8 162.4,1600.2 211.6,1575.5 			"/>
			<polygon points="211.6,1575.5 260.9,1600.2 211.6,1624.8 			"/>
			<polygon points="359.4,1600.2 310.2,1575.5 359.4,1550.9 			"/>
			<polygon points="359.4,1550.9 408.7,1575.5 359.4,1600.2 			"/>
			<polygon class="st2" points="260.9,1600.2 211.6,1575.5 260.9,1550.9 			"/>
			<polygon points="260.9,1550.9 310.2,1575.5 260.9,1600.2 			"/>
			<polygon points="408.7,1575.5 359.4,1550.9 408.7,1526.2 			"/>
			<polygon class="st2" points="310.2,1575.5 260.9,1550.9 310.2,1526.2 			"/>
			<polygon class="st2" points="310.2,1526.2 359.4,1550.9 310.2,1575.5 			"/>
			<polygon class="st3" points="211.6,1575.5 162.4,1550.9 211.6,1526.2 			"/>
			<polygon points="211.6,1526.2 260.9,1550.9 211.6,1575.5 			"/>
			<polygon class="st2" points="359.4,1550.9 310.2,1526.2 359.4,1501.6 			"/>
			<polygon points="359.4,1501.6 408.7,1526.2 359.4,1550.9 			"/>
			<polygon class="st3" points="260.9,1550.9 211.6,1526.2 260.9,1501.6 			"/>
			<polygon points="260.9,1501.6 310.2,1526.2 260.9,1550.9 			"/>
			<polygon class="st3" points="408.7,1526.2 359.4,1501.6 408.7,1477 			"/>
			<polygon class="st3" points="310.2,1526.2 260.9,1501.6 310.2,1477 			"/>
			<polygon class="st2" points="310.2,1477 359.4,1501.6 310.2,1526.2 			"/>
			<polygon class="st2" points="211.6,1526.2 162.4,1501.6 211.6,1477 			"/>
			<polygon points="211.6,1477 260.9,1501.6 211.6,1526.2 			"/>
			<polygon points="359.4,1501.6 310.2,1477 359.4,1452.3 			"/>
			<polygon points="359.4,1452.3 408.7,1477 359.4,1501.6 			"/>
			<polygon points="260.9,1501.6 211.6,1477 260.9,1452.3 			"/>
			<polygon class="st3" points="260.9,1452.3 310.2,1477 260.9,1501.6 			"/>
			<polygon class="st3" points="408.7,1477 359.4,1452.3 408.7,1427.7 			"/>
			<polygon points="310.2,1477 260.9,1452.3 310.2,1427.7 			"/>
			<polygon class="st3" points="310.2,1427.7 359.4,1452.3 310.2,1477 			"/>
			<polygon points="211.6,1477 162.4,1452.3 211.6,1427.7 			"/>
			<polygon class="st3" points="211.6,1427.7 260.9,1452.3 211.6,1477 			"/>
			<polygon points="359.4,1452.3 310.2,1427.7 359.4,1403.1 			"/>
			<polygon points="359.4,1403.1 408.7,1427.7 359.4,1452.3 			"/>
			<polygon points="260.9,1452.3 211.6,1427.7 260.9,1403.1 			"/>
			<polygon class="st2" points="260.9,1403.1 310.2,1427.7 260.9,1452.3 			"/>
			<polygon class="st2" points="408.7,1427.7 359.4,1403.1 408.7,1378.4 			"/>
			<polygon points="310.2,1427.7 260.9,1403.1 310.2,1378.4 			"/>
			<polygon points="310.2,1378.4 359.4,1403.1 310.2,1427.7 			"/>
			<polygon class="st2" points="211.6,1427.7 162.4,1403.1 211.6,1378.4 			"/>
			<polygon points="211.6,1378.4 260.9,1403.1 211.6,1427.7 			"/>
			<polygon class="st3" points="359.4,1403.1 310.2,1378.4 359.4,1353.8 			"/>
			<polygon class="st2" points="359.4,1353.8 408.7,1378.4 359.4,1403.1 			"/>
			<polygon points="260.9,1403.1 211.6,1378.4 260.9,1353.8 			"/>
			<polygon points="260.9,1353.8 310.2,1378.4 260.9,1403.1 			"/>
			<polygon points="408.7,1378.4 359.4,1353.8 408.7,1329.2 			"/>
			<polygon points="310.2,1378.4 260.9,1353.8 310.2,1329.2 			"/>
			<polygon points="310.2,1329.2 359.4,1353.8 310.2,1378.4 			"/>
			<polygon class="st2" points="211.6,1378.4 162.4,1353.8 211.6,1329.2 			"/>
			<polygon class="st3" points="211.6,1329.2 260.9,1353.8 211.6,1378.4 			"/>
			<polygon points="359.4,1353.8 310.2,1329.2 359.4,1304.5 			"/>
			<polygon points="359.4,1304.5 408.7,1329.2 359.4,1353.8 			"/>
			<polygon class="st3" points="260.9,1353.8 211.6,1329.2 260.9,1304.5 			"/>
			<polygon class="st3" points="260.9,1304.5 310.2,1329.2 260.9,1353.8 			"/>
			<polygon class="st3" points="408.7,1329.2 359.4,1304.5 408.7,1279.8 			"/>
			<polygon points="310.2,1329.2 260.9,1304.5 310.2,1279.8 			"/>
			<polygon class="st3" points="310.2,1279.8 359.4,1304.5 310.2,1329.2 			"/>
			<polygon points="211.6,1329.2 162.4,1304.5 211.6,1279.8 			"/>
			<polygon points="211.6,1279.8 260.9,1304.5 211.6,1329.2 			"/>
			<polygon class="st2" points="14.6,1279.8 63.8,1304.5 14.6,1329.2 			"/>
			<polygon class="st3" points="14.6,1329.2 -34.7,1304.5 14.6,1279.8 			"/>
			<polygon class="st3" points="113.1,1279.8 162.4,1304.5 113.1,1329.2 			"/>
			<polygon class="st2" points="113.1,1329.2 63.8,1304.5 113.1,1279.8 			"/>
			<polygon points="-34.7,1304.5 14.6,1329.2 -34.7,1353.8 			"/>
			<polygon class="st3" points="63.8,1304.5 113.1,1329.2 63.8,1353.8 			"/>
			<polygon points="63.8,1353.8 14.6,1329.2 63.8,1304.5 			"/>
			<polygon points="162.4,1304.5 211.6,1329.2 162.4,1353.8 			"/>
			<polygon points="162.4,1353.8 113.1,1329.2 162.4,1304.5 			"/>
			<polygon points="14.6,1329.2 63.8,1353.8 14.6,1378.4 			"/>
			<polygon class="st2" points="14.6,1378.4 -34.7,1353.8 14.6,1329.2 			"/>
			<polygon points="113.1,1329.2 162.4,1353.8 113.1,1378.4 			"/>
			<polygon class="st2" points="113.1,1378.4 63.8,1353.8 113.1,1329.2 			"/>
			<polygon class="st3" points="-34.7,1353.8 14.6,1378.4 -34.7,1403.1 			"/>
			<polygon class="st2" points="63.8,1353.8 113.1,1378.4 63.8,1403.1 			"/>
			<polygon points="63.8,1403.1 14.6,1378.4 63.8,1353.8 			"/>
			<polygon class="st3" points="162.4,1353.8 211.6,1378.4 162.4,1403.1 			"/>
			<polygon class="st2" points="162.4,1403.1 113.1,1378.4 162.4,1353.8 			"/>
			<polygon points="14.6,1378.4 63.8,1403.1 14.6,1427.7 			"/>
			<polygon points="14.6,1427.7 -34.7,1403.1 14.6,1378.4 			"/>
			<polygon class="st2" points="113.1,1378.4 162.4,1403.1 113.1,1427.7 			"/>
			<polygon points="113.1,1427.7 63.8,1403.1 113.1,1378.4 			"/>
			<polygon points="-34.7,1403.1 14.6,1427.7 -34.7,1452.3 			"/>
			<polygon points="63.8,1403.1 113.1,1427.7 63.8,1452.3 			"/>
			<polygon points="63.8,1452.3 14.6,1427.7 63.8,1403.1 			"/>
			<polygon class="st3" points="162.4,1403.1 211.6,1427.7 162.4,1452.3 			"/>
			<polygon points="162.4,1452.3 113.1,1427.7 162.4,1403.1 			"/>
			<polygon class="st3" points="14.6,1427.7 63.8,1452.3 14.6,1477 			"/>
			<polygon points="14.6,1477 -34.7,1452.3 14.6,1427.7 			"/>
			<polygon points="113.1,1427.7 162.4,1452.3 113.1,1477 			"/>
			<polygon class="st3" points="113.1,1477 63.8,1452.3 113.1,1427.7 			"/>
			<polygon class="st2" points="-34.7,1452.3 14.6,1477 -34.7,1501.6 			"/>
			<polygon points="63.8,1452.3 113.1,1477 63.8,1501.6 			"/>
			<polygon points="63.8,1501.6 14.6,1477 63.8,1452.3 			"/>
			<polygon points="162.4,1452.3 211.6,1477 162.4,1501.6 			"/>
			<polygon points="162.4,1501.6 113.1,1477 162.4,1452.3 			"/>
			<polygon points="14.6,1477 63.8,1501.6 14.6,1526.2 			"/>
			<polygon points="14.6,1526.2 -34.7,1501.6 14.6,1477 			"/>
			<polygon class="st2" points="113.1,1477 162.4,1501.6 113.1,1526.2 			"/>
			<polygon points="113.1,1526.2 63.8,1501.6 113.1,1477 			"/>
			<polygon points="-34.7,1501.6 14.6,1526.2 -34.7,1550.9 			"/>
			<polygon class="st2" points="63.8,1501.6 113.1,1526.2 63.8,1550.9 			"/>
			<polygon class="st2" points="63.8,1550.9 14.6,1526.2 63.8,1501.6 			"/>
			<polygon class="st3" points="162.4,1501.6 211.6,1526.2 162.4,1550.9 			"/>
			<polygon points="162.4,1550.9 113.1,1526.2 162.4,1501.6 			"/>
			<polygon class="st2" points="14.6,1526.2 63.8,1550.9 14.6,1575.5 			"/>
			<polygon points="14.6,1575.5 -34.7,1550.9 14.6,1526.2 			"/>
			<polygon class="st3" points="113.1,1526.2 162.4,1550.9 113.1,1575.5 			"/>
			<polygon points="113.1,1575.5 63.8,1550.9 113.1,1526.2 			"/>
			<polygon class="st3" points="-34.7,1550.9 14.6,1575.5 -34.7,1600.2 			"/>
			<polygon class="st3" points="63.8,1550.9 113.1,1575.5 63.8,1600.2 			"/>
			<polygon class="st2" points="63.8,1600.2 14.6,1575.5 63.8,1550.9 			"/>
			<polygon class="st2" points="162.4,1550.9 211.6,1575.5 162.4,1600.2 			"/>
			<polygon points="162.4,1600.2 113.1,1575.5 162.4,1550.9 			"/>
			<polygon points="14.6,1575.5 63.8,1600.2 14.6,1624.8 			"/>
			<polygon points="14.6,1624.8 -34.7,1600.2 14.6,1575.5 			"/>
			<polygon points="113.1,1575.5 162.4,1600.2 113.1,1624.8 			"/>
			<polygon class="st3" points="113.1,1624.8 63.8,1600.2 113.1,1575.5 			"/>
		</g>
	</g>
</g>
</svg>
