<svg xmlns="http://www.w3.org/2000/svg" viewBox="0 0 640 670">
  <path fill="#6E3078" d="M-18.3-20h676.6v710H-18.3z"/>
  <g opacity=".2">
    <path fill="#1A1A1A" d="M-44.7 318.4l66.3 33.2-66.3 33.2zM88 318.4l66.2 33.2L88 384.8z"/>
    <path fill="#333" d="M88 384.8l-66.4-33.2L88 318.4zM220.5 318.4l66.4 33.2-66.4 33.2z"/>
    <path fill="#1A1A1A" d="M220.5 384.8l-66.3-33.2 66.3-33.2z"/>
    <path d="M21.6 351.6L88 384.8l-66.4 33.1z"/>
    <path d="M21.6 417.9l-66.3-33.1 66.3-33.2z"/>
    <path fill="#333" d="M154.2 351.6l66.3 33.2-66.3 33.1z"/>
    <path d="M154.2 417.9L88 384.8l66.2-33.2zM286.9 351.6l66.2 33.2-66.2 33.1zM286.9 417.9l-66.4-33.1 66.4-33.2z"/>
    <path fill="#333" d="M-44.7 384.8l66.3 33.1-66.3 33.1z"/>
    <path d="M88 384.8l66.2 33.1L88 451z"/>
    <path fill="#1A1A1A" d="M88 451l-66.4-33.1L88 384.8z"/>
    <path d="M220.5 384.8l66.4 33.1-66.4 33.1z"/>
    <path fill="#1A1A1A" d="M220.5 451l-66.3-33.1 66.3-33.1z"/>
    <path fill="#333" d="M21.6 417.9L88 451l-66.4 33.3z"/>
    <path d="M21.6 484.3L-44.7 451l66.3-33.1z"/>
    <path fill="#1A1A1A" d="M154.2 417.9l66.3 33.1-66.3 33.3z"/>
    <path d="M154.2 484.3L88 451l66.2-33.1z"/>
    <path fill="#333" d="M286.9 417.9l66.2 33.1-66.2 33.3z"/>
    <path fill="#1A1A1A" d="M286.9 484.3L220.5 451l66.4-33.1z"/>
    <path d="M-44.7 451l66.3 33.3-66.3 33.1zM88 451l66.2 33.3L88 517.4zM88 517.4l-66.4-33.1L88 451z"/>
    <path fill="#1A1A1A" d="M220.5 451l66.4 33.3-66.4 33.1z"/>
    <path d="M220.5 517.4l-66.3-33.1 66.3-33.3zM21.6 484.3L88 517.4l-66.4 33.1z"/>
    <path d="M21.6 550.5l-66.3-33.1 66.3-33.1zM154.2 484.3l66.3 33.1-66.3 33.1zM154.2 550.5L88 517.4l66.2-33.1z"/>
    <path fill="#333" d="M286.9 484.3l66.2 33.1-66.2 33.1z"/>
    <path d="M286.9 550.5l-66.4-33.1 66.4-33.1zM-44.7 517.4l66.3 33.1-66.3 33.2z"/>
    <path fill="#333" d="M88 517.4l66.2 33.1L88 583.7z"/>
    <path d="M88 583.7l-66.4-33.2L88 517.4zM220.5 517.4l66.4 33.1-66.4 33.2z"/>
    <path fill="#333" d="M220.5 583.7l-66.3-33.2 66.3-33.1z"/>
    <path fill="#1A1A1A" d="M21.6 550.5L88 583.7l-66.4 33.1z"/>
    <path fill="#333" d="M21.6 616.8l-66.3-33.1 66.3-33.2z"/>
    <path d="M154.2 550.5l66.3 33.2-66.3 33.1zM154.2 616.8L88 583.7l66.2-33.2zM286.9 550.5l66.2 33.2-66.2 33.1z"/>
    <path d="M286.9 616.8l-66.4-33.1 66.4-33.2zM-44.7 583.7l66.3 33.1-66.3 33.1zM88 583.7l66.2 33.1L88 649.9zM88 649.9l-66.4-33.1L88 583.7z"/>
    <path fill="#1A1A1A" d="M220.5 583.7l66.4 33.1-66.4 33.1z"/>
    <path d="M220.5 649.9l-66.3-33.1 66.3-33.1zM21.6 616.8L88 649.9l-66.4 33.3z"/>
    <path fill="#333" d="M21.6 683.2l-66.3-33.3 66.3-33.1z"/>
    <path fill="#1A1A1A" d="M154.2 616.8l66.3 33.1-66.3 33.3zM154.2 683.2L88 649.9l66.2-33.1z"/>
    <path fill="#333" d="M286.9 616.8l66.2 33.1-66.2 33.3z"/>
    <path d="M286.9 683.2l-66.4-33.3 66.4-33.1zM-44.7 649.9l66.3 33.3-66.3 33.1z"/>
    <path fill="#1A1A1A" d="M88 649.9l66.2 33.3L88 716.3z"/>
    <path d="M88 716.3l-66.4-33.1L88 649.9z"/>
    <path fill="#333" d="M220.5 649.9l66.4 33.3-66.4 33.1z"/>
    <path d="M220.5 716.3l-66.3-33.1 66.3-33.3zM618.4 716.3L552 683.2l66.4-33.3z"/>
    <path fill="#333" d="M618.4 649.9l66.3 33.3-66.3 33.1z"/>
    <path fill="#1A1A1A" d="M485.8 716.3l-66.3-33.1 66.3-33.3zM485.8 649.9l66.2 33.3-66.2 33.1z"/>
    <path fill="#333" d="M353.1 716.3l-66.2-33.1 66.2-33.3z"/>
    <path d="M353.1 649.9l66.4 33.3-66.4 33.1zM684.7 683.2l-66.3-33.3 66.3-33.1z"/>
    <path fill="#1A1A1A" d="M552 683.2l-66.2-33.3 66.2-33.1z"/>
    <path d="M552 616.8l66.4 33.1-66.4 33.3z"/>
    <path fill="#333" d="M419.5 683.2l-66.4-33.3 66.4-33.1z"/>
    <path d="M419.5 616.8l66.3 33.1-66.3 33.3z"/>
    <path fill="#333" d="M618.4 649.9L552 616.8l66.4-33.1z"/>
    <path d="M618.4 583.7l66.3 33.1-66.3 33.1z"/>
    <path fill="#333" d="M485.8 649.9l-66.3-33.1 66.3-33.1z"/>
    <path fill="#1A1A1A" d="M485.8 583.7l66.2 33.1-66.2 33.1zM353.1 649.9l-66.2-33.1 66.2-33.1z"/>
    <path d="M353.1 583.7l66.4 33.1-66.4 33.1zM684.7 616.8l-66.3-33.1 66.3-33.2zM552 616.8l-66.2-33.1 66.2-33.2zM552 550.5l66.4 33.2-66.4 33.1zM419.5 616.8l-66.4-33.1 66.4-33.2z"/>
    <path fill="#333" d="M419.5 550.5l66.3 33.2-66.3 33.1zM618.4 583.7L552 550.5l66.4-33.1z"/>
    <path fill="#1A1A1A" d="M618.4 517.4l66.3 33.1-66.3 33.2z"/>
    <path d="M485.8 583.7l-66.3-33.2 66.3-33.1z"/>
    <path fill="#333" d="M485.8 517.4l66.2 33.1-66.2 33.2z"/>
    <path d="M353.1 583.7l-66.2-33.2 66.2-33.1z"/>
    <path fill="#333" d="M353.1 517.4l66.4 33.1-66.4 33.2z"/>
    <path d="M684.7 550.5l-66.3-33.1 66.3-33.1zM552 550.5l-66.2-33.1 66.2-33.1zM552 484.3l66.4 33.1-66.4 33.1zM419.5 550.5l-66.4-33.1 66.4-33.1z"/>
    <path fill="#1A1A1A" d="M419.5 484.3l66.3 33.1-66.3 33.1zM618.4 517.4L552 484.3l66.4-33.3z"/>
    <path d="M618.4 451l66.3 33.3-66.3 33.1zM485.8 517.4l-66.3-33.1 66.3-33.3zM485.8 451l66.2 33.3-66.2 33.1z"/>
    <path fill="#1A1A1A" d="M353.1 517.4l-66.2-33.1 66.2-33.3z"/>
    <path d="M353.1 451l66.4 33.3-66.4 33.1zM684.7 484.3L618.4 451l66.3-33.1z"/>
    <path fill="#333" d="M552 484.3L485.8 451l66.2-33.1z"/>
    <path fill="#1A1A1A" d="M552 417.9l66.4 33.1-66.4 33.3z"/>
    <path d="M419.5 484.3L353.1 451l66.4-33.1zM419.5 417.9l66.3 33.1-66.3 33.3zM618.4 451L552 417.9l66.4-33.1zM618.4 384.8l66.3 33.1-66.3 33.1z"/>
    <path d="M485.8 451l-66.3-33.1 66.3-33.1zM485.8 384.8l66.2 33.1-66.2 33.1z"/>
    <path fill="#1A1A1A" d="M353.1 451l-66.2-33.1 66.2-33.1z"/>
    <path fill="#333" d="M353.1 384.8l66.4 33.1-66.4 33.1z"/>
    <path d="M684.7 417.9l-66.3-33.1 66.3-33.2zM552 417.9l-66.2-33.1 66.2-33.2zM552 351.6l66.4 33.2-66.4 33.1z"/>
    <path fill="#333" d="M419.5 417.9l-66.4-33.1 66.4-33.2zM419.5 351.6l66.3 33.2-66.3 33.1zM618.4 384.8L552 351.6l66.4-33.2z"/>
    <path d="M618.4 318.4l66.3 33.2-66.3 33.2zM485.8 384.8l-66.3-33.2 66.3-33.2z"/>
    <path fill="#333" d="M485.8 318.4l66.2 33.2-66.2 33.2z"/>
    <path d="M353.1 384.8l-66.2-33.2 66.2-33.2zM353.1 318.4l66.4 33.2-66.4 33.2z"/>
    <path fill="#1A1A1A" d="M684.7 351.6l-66.3-33.2 66.3-33.1zM552 351.6l-66.2-33.2 66.2-33.1z"/>
    <path fill="#333" d="M552 285.3l66.4 33.1-66.4 33.2zM419.5 351.6l-66.4-33.2 66.4-33.1z"/>
    <path fill="#1A1A1A" d="M419.5 285.3l66.3 33.1-66.3 33.2z"/>
    <path d="M618.4 318.4L552 285.3l66.4-33.2zM618.4 252.1l66.3 33.2-66.3 33.1z"/>
    <path fill="#333" d="M485.8 318.4l-66.3-33.1 66.3-33.2z"/>
    <path d="M485.8 252.1l66.2 33.2-66.2 33.1zM353.1 318.4l-66.2-33.1 66.2-33.2zM353.1 252.1l66.4 33.2-66.4 33.1z"/>
    <path fill="#333" d="M684.7 285.3l-66.3-33.2 66.3-33.1z"/>
    <path d="M552 285.3l-66.2-33.2L552 219z"/>
    <path fill="#1A1A1A" d="M552 219l66.4 33.1-66.4 33.2z"/>
    <path d="M419.5 285.3l-66.4-33.2 66.4-33.1z"/>
    <path fill="#1A1A1A" d="M419.5 219l66.3 33.1-66.3 33.2z"/>
    <path fill="#333" d="M618.4 252.1L552 219l66.4-33.1z"/>
    <path d="M618.4 185.9l66.3 33.1-66.3 33.1z"/>
    <path fill="#1A1A1A" d="M485.8 252.1L419.5 219l66.3-33.1z"/>
    <path d="M485.8 185.9L552 219l-66.2 33.1z"/>
    <path fill="#333" d="M353.1 252.1L286.9 219l66.2-33.1z"/>
    <path fill="#1A1A1A" d="M353.1 185.9l66.4 33.1-66.4 33.1z"/>
    <path d="M684.7 219l-66.3-33.1 66.3-33.3zM552 219l-66.2-33.1 66.2-33.3zM552 152.6l66.4 33.3L552 219z"/>
    <path fill="#1A1A1A" d="M419.5 219l-66.4-33.1 66.4-33.3z"/>
    <path d="M419.5 152.6l66.3 33.3-66.3 33.1zM618.4 185.9L552 152.6l66.4-33.1zM618.4 119.5l66.3 33.1-66.3 33.3z"/>
    <path d="M485.8 185.9l-66.3-33.3 66.3-33.1zM485.8 119.5l66.2 33.1-66.2 33.3z"/>
    <path fill="#333" d="M353.1 185.9l-66.2-33.3 66.2-33.1z"/>
    <path d="M353.1 119.5l66.4 33.1-66.4 33.3zM684.7 152.6l-66.3-33.1 66.3-33.1z"/>
    <path fill="#333" d="M552 152.6l-66.2-33.1L552 86.4z"/>
    <path d="M552 86.4l66.4 33.1-66.4 33.1zM419.5 152.6l-66.4-33.1 66.4-33.1z"/>
    <path fill="#333" d="M419.5 86.4l66.3 33.1-66.3 33.1z"/>
    <path fill="#1A1A1A" d="M618.4 119.5L552 86.4l66.4-33.2z"/>
    <path fill="#333" d="M618.4 53.2l66.3 33.2-66.3 33.1z"/>
    <path d="M485.8 119.5l-66.3-33.1 66.3-33.2zM485.8 53.2L552 86.4l-66.2 33.1zM353.1 119.5l-66.2-33.1 66.2-33.2zM353.1 53.2l66.4 33.2-66.4 33.1zM684.7 86.4l-66.3-33.2 66.3-33.1z"/>
    <path d="M552 86.4l-66.2-33.2L552 20.1zM552 20.1l66.4 33.1L552 86.4z"/>
    <path fill="#1A1A1A" d="M419.5 86.4l-66.4-33.2 66.4-33.1z"/>
    <path d="M419.5 20.1l66.3 33.1-66.3 33.2zM618.4 53.2L552 20.1l66.4-33.3z"/>
    <path fill="#333" d="M618.4-13.2l66.3 33.3-66.3 33.1z"/>
    <path fill="#1A1A1A" d="M485.8 53.2l-66.3-33.1 66.3-33.3zM485.8-13.2L552 20.1l-66.2 33.1z"/>
    <path fill="#333" d="M353.1 53.2l-66.2-33.1 66.2-33.3z"/>
    <path d="M353.1-13.2l66.4 33.3-66.4 33.1zM684.7 20.1l-66.3-33.3 66.3-33.1z"/>
    <path fill="#1A1A1A" d="M552 20.1l-66.2-33.3L552-46.3z"/>
    <path d="M552-46.3l66.4 33.1L552 20.1z"/>
    <path fill="#333" d="M419.5 20.1l-66.4-33.3 66.4-33.1z"/>
    <path d="M419.5-46.3l66.3 33.1-66.3 33.3zM21.6-46.3L88-13.2 21.6 20.1z"/>
    <path fill="#333" d="M21.6 20.1l-66.3-33.3 66.3-33.1z"/>
    <path fill="#1A1A1A" d="M154.2-46.3l66.3 33.1-66.3 33.3zM154.2 20.1L88-13.2l66.2-33.1z"/>
    <path fill="#333" d="M286.9-46.3l66.2 33.1-66.2 33.3z"/>
    <path d="M286.9 20.1l-66.4-33.3 66.4-33.1zM-44.7-13.2l66.3 33.3-66.3 33.1z"/>
    <path fill="#1A1A1A" d="M88-13.2l66.2 33.3L88 53.2z"/>
    <path d="M88 53.2L21.6 20.1 88-13.2z"/>
    <path fill="#333" d="M220.5-13.2l66.4 33.3-66.4 33.1z"/>
    <path d="M220.5 53.2l-66.3-33.1 66.3-33.3z"/>
    <path fill="#333" d="M21.6 20.1L88 53.2 21.6 86.4z"/>
    <path d="M21.6 86.4l-66.3-33.2 66.3-33.1z"/>
    <path fill="#333" d="M154.2 20.1l66.3 33.1-66.3 33.2z"/>
    <path fill="#1A1A1A" d="M154.2 86.4L88 53.2l66.2-33.1zM286.9 20.1l66.2 33.1-66.2 33.2z"/>
    <path d="M286.9 86.4l-66.4-33.2 66.4-33.1zM-44.7 53.2l66.3 33.2-66.3 33.1zM88 53.2l66.2 33.2L88 119.5zM88 119.5L21.6 86.4 88 53.2z"/>
    <path d="M220.5 53.2l66.4 33.2-66.4 33.1z"/>
    <path fill="#333" d="M220.5 119.5l-66.3-33.1 66.3-33.2zM21.6 86.4L88 119.5l-66.4 33.1z"/>
    <path fill="#1A1A1A" d="M21.6 152.6l-66.3-33.1 66.3-33.1z"/>
    <path d="M154.2 86.4l66.3 33.1-66.3 33.1z"/>
    <path fill="#333" d="M154.2 152.6L88 119.5l66.2-33.1z"/>
    <path d="M286.9 86.4l66.2 33.1-66.2 33.1z"/>
    <path fill="#333" d="M286.9 152.6l-66.4-33.1 66.4-33.1z"/>
    <path d="M-44.7 119.5l66.3 33.1-66.3 33.3zM88 119.5l66.2 33.1L88 185.9zM88 185.9l-66.4-33.3L88 119.5zM220.5 119.5l66.4 33.1-66.4 33.3z"/>
    <path fill="#1A1A1A" d="M220.5 185.9l-66.3-33.3 66.3-33.1zM21.6 152.6L88 185.9 21.6 219z"/>
    <path d="M21.6 219l-66.3-33.1 66.3-33.3zM154.2 152.6l66.3 33.3-66.3 33.1zM154.2 219L88 185.9l66.2-33.3z"/>
    <path fill="#1A1A1A" d="M286.9 152.6l66.2 33.3-66.2 33.1z"/>
    <path d="M286.9 219l-66.4-33.1 66.4-33.3zM-44.7 185.9L21.6 219l-66.3 33.1z"/>
    <path fill="#333" d="M88 185.9l66.2 33.1L88 252.1z"/>
    <path fill="#1A1A1A" d="M88 252.1L21.6 219 88 185.9z"/>
    <path d="M220.5 185.9l66.4 33.1-66.4 33.1z"/>
    <path d="M220.5 252.1L154.2 219l66.3-33.1zM21.6 219L88 252.1l-66.4 33.2z"/>
    <path d="M21.6 285.3l-66.3-33.2L21.6 219zM154.2 219l66.3 33.1-66.3 33.2zM154.2 285.3L88 252.1l66.2-33.1z"/>
    <path fill="#1A1A1A" d="M286.9 219l66.2 33.1-66.2 33.2z"/>
    <path fill="#333" d="M286.9 285.3l-66.4-33.2 66.4-33.1z"/>
    <path d="M-44.7 252.1l66.3 33.2-66.3 33.1zM88 252.1l66.2 33.2L88 318.4zM88 318.4l-66.4-33.1L88 252.1z"/>
    <path fill="#333" d="M220.5 252.1l66.4 33.2-66.4 33.1z"/>
    <path fill="#333" d="M220.5 318.4l-66.3-33.1 66.3-33.2zM21.6 285.3L88 318.4l-66.4 33.2z"/>
    <path d="M21.6 351.6l-66.3-33.2 66.3-33.1zM154.2 285.3l66.3 33.1-66.3 33.2z"/>
    <path fill="#333" d="M154.2 351.6L88 318.4l66.2-33.1z"/>
    <path d="M286.9 285.3l66.2 33.1-66.2 33.2zM286.9 351.6l-66.4-33.2 66.4-33.1z"/>
  </g>
</svg>