<?xml version="1.0" encoding="utf-8"?>
<!-- Generator: Adobe Illustrator 21.1.0, SVG Export Plug-In . SVG Version: 6.00 Build 0)  -->
<svg version="1.1" id="Layer_1" xmlns="http://www.w3.org/2000/svg" xmlns:xlink="http://www.w3.org/1999/xlink" x="0px" y="0px"
	 viewBox="0 0 640 670" enable-background="new 0 0 640 670" xml:space="preserve">
<g id="Layer_2">
	<g>
		<rect x="-18.3" y="-20" fill="#F7922A" width="676.6" height="710"/>
	</g>
</g>
<g id="Layer_1_1_">
	<g>
		<g opacity="0.17">
			<polygon fill="#1A1A1A" points="-44.7,318.4 21.6,351.6 -44.7,384.8 			"/>
			<polygon fill="#1A1A1A" points="88,318.4 154.2,351.6 88,384.8 			"/>
			<polygon fill="#333333" points="88,384.8 21.6,351.6 88,318.4 			"/>
			<polygon fill="#333333" points="220.5,318.4 286.9,351.6 220.5,384.8 			"/>
			<polygon fill="#1A1A1A" points="220.5,384.8 154.2,351.6 220.5,318.4 			"/>
			<polygon points="21.6,351.6 88,384.8 21.6,417.9 			"/>
			<polygon points="21.6,417.9 -44.7,384.8 21.6,351.6 			"/>
			<polygon fill="#333333" points="154.2,351.6 220.5,384.8 154.2,417.9 			"/>
			<polygon points="154.2,417.9 88,384.8 154.2,351.6 			"/>
			<polygon points="286.9,351.6 353.1,384.8 286.9,417.9 			"/>
			<polygon points="286.9,417.9 220.5,384.8 286.9,351.6 			"/>
			<polygon fill="#333333" points="-44.7,384.8 21.6,417.9 -44.7,451 			"/>
			<polygon points="88,384.8 154.2,417.9 88,451 			"/>
			<polygon fill="#1A1A1A" points="88,451 21.6,417.9 88,384.8 			"/>
			<polygon points="220.5,384.8 286.9,417.9 220.5,451 			"/>
			<polygon fill="#1A1A1A" points="220.5,451 154.2,417.9 220.5,384.8 			"/>
			<polygon fill="#333333" points="21.6,417.9 88,451 21.6,484.3 			"/>
			<polygon points="21.6,484.3 -44.7,451 21.6,417.9 			"/>
			<polygon fill="#1A1A1A" points="154.2,417.9 220.5,451 154.2,484.3 			"/>
			<polygon points="154.2,484.3 88,451 154.2,417.9 			"/>
			<polygon fill="#333333" points="286.9,417.9 353.1,451 286.9,484.3 			"/>
			<polygon fill="#1A1A1A" points="286.9,484.3 220.5,451 286.9,417.9 			"/>
			<polygon points="-44.7,451 21.6,484.3 -44.7,517.4 			"/>
			<polygon points="88,451 154.2,484.3 88,517.4 			"/>
			<polygon points="88,517.4 21.6,484.3 88,451 			"/>
			<polygon fill="#1A1A1A" points="220.5,451 286.9,484.3 220.5,517.4 			"/>
			<polygon points="220.5,517.4 154.2,484.3 220.5,451 			"/>
			<polygon points="21.6,484.3 88,517.4 21.6,550.5 			"/>
			<polygon points="21.6,550.5 -44.7,517.4 21.6,484.3 			"/>
			<polygon points="154.2,484.3 220.5,517.4 154.2,550.5 			"/>
			<polygon points="154.2,550.5 88,517.4 154.2,484.3 			"/>
			<polygon fill="#333333" points="286.9,484.3 353.1,517.4 286.9,550.5 			"/>
			<polygon points="286.9,550.5 220.5,517.4 286.9,484.3 			"/>
			<polygon points="-44.7,517.4 21.6,550.5 -44.7,583.7 			"/>
			<polygon fill="#333333" points="88,517.4 154.2,550.5 88,583.7 			"/>
			<polygon points="88,583.7 21.6,550.5 88,517.4 			"/>
			<polygon points="220.5,517.4 286.9,550.5 220.5,583.7 			"/>
			<polygon fill="#333333" points="220.5,583.7 154.2,550.5 220.5,517.4 			"/>
			<polygon fill="#1A1A1A" points="21.6,550.5 88,583.7 21.6,616.8 			"/>
			<polygon fill="#333333" points="21.6,616.8 -44.7,583.7 21.6,550.5 			"/>
			<polygon points="154.2,550.5 220.5,583.7 154.2,616.8 			"/>
			<polygon points="154.2,616.8 88,583.7 154.2,550.5 			"/>
			<polygon points="286.9,550.5 353.1,583.7 286.9,616.8 			"/>
			<polygon points="286.9,616.8 220.5,583.7 286.9,550.5 			"/>
			<polygon points="-44.7,583.7 21.6,616.8 -44.7,649.9 			"/>
			<polygon points="88,583.7 154.2,616.8 88,649.9 			"/>
			<polygon points="88,649.9 21.6,616.8 88,583.7 			"/>
			<polygon fill="#1A1A1A" points="220.5,583.7 286.9,616.8 220.5,649.9 			"/>
			<polygon points="220.5,649.9 154.2,616.8 220.5,583.7 			"/>
			<polygon points="21.6,616.8 88,649.9 21.6,683.2 			"/>
			<polygon fill="#333333" points="21.6,683.2 -44.7,649.9 21.6,616.8 			"/>
			<polygon fill="#1A1A1A" points="154.2,616.8 220.5,649.9 154.2,683.2 			"/>
			<polygon fill="#1A1A1A" points="154.2,683.2 88,649.9 154.2,616.8 			"/>
			<polygon fill="#333333" points="286.9,616.8 353.1,649.9 286.9,683.2 			"/>
			<polygon points="286.9,683.2 220.5,649.9 286.9,616.8 			"/>
			<polygon points="-44.7,649.9 21.6,683.2 -44.7,716.3 			"/>
			<polygon fill="#1A1A1A" points="88,649.9 154.2,683.2 88,716.3 			"/>
			<polygon points="88,716.3 21.6,683.2 88,649.9 			"/>
			<polygon fill="#333333" points="220.5,649.9 286.9,683.2 220.5,716.3 			"/>
			<polygon points="220.5,716.3 154.2,683.2 220.5,649.9 			"/>
			<polygon points="618.4,716.3 552,683.2 618.4,649.9 			"/>
			<polygon fill="#333333" points="618.4,649.9 684.7,683.2 618.4,716.3 			"/>
			<polygon fill="#1A1A1A" points="485.8,716.3 419.5,683.2 485.8,649.9 			"/>
			<polygon fill="#1A1A1A" points="485.8,649.9 552,683.2 485.8,716.3 			"/>
			<polygon fill="#333333" points="353.1,716.3 286.9,683.2 353.1,649.9 			"/>
			<polygon points="353.1,649.9 419.5,683.2 353.1,716.3 			"/>
			<polygon points="684.7,683.2 618.4,649.9 684.7,616.8 			"/>
			<polygon fill="#1A1A1A" points="552,683.2 485.8,649.9 552,616.8 			"/>
			<polygon points="552,616.8 618.4,649.9 552,683.2 			"/>
			<polygon fill="#333333" points="419.5,683.2 353.1,649.9 419.5,616.8 			"/>
			<polygon points="419.5,616.8 485.8,649.9 419.5,683.2 			"/>
			<polygon fill="#333333" points="618.4,649.9 552,616.8 618.4,583.7 			"/>
			<polygon points="618.4,583.7 684.7,616.8 618.4,649.9 			"/>
			<polygon fill="#333333" points="485.8,649.9 419.5,616.8 485.8,583.7 			"/>
			<polygon fill="#1A1A1A" points="485.8,583.7 552,616.8 485.8,649.9 			"/>
			<polygon fill="#1A1A1A" points="353.1,649.9 286.9,616.8 353.1,583.7 			"/>
			<polygon points="353.1,583.7 419.5,616.8 353.1,649.9 			"/>
			<polygon points="684.7,616.8 618.4,583.7 684.7,550.5 			"/>
			<polygon points="552,616.8 485.8,583.7 552,550.5 			"/>
			<polygon points="552,550.5 618.4,583.7 552,616.8 			"/>
			<polygon points="419.5,616.8 353.1,583.7 419.5,550.5 			"/>
			<polygon fill="#333333" points="419.5,550.5 485.8,583.7 419.5,616.8 			"/>
			<polygon fill="#333333" points="618.4,583.7 552,550.5 618.4,517.4 			"/>
			<polygon fill="#1A1A1A" points="618.4,517.4 684.7,550.5 618.4,583.7 			"/>
			<polygon points="485.8,583.7 419.5,550.5 485.8,517.4 			"/>
			<polygon fill="#333333" points="485.8,517.4 552,550.5 485.8,583.7 			"/>
			<polygon points="353.1,583.7 286.9,550.5 353.1,517.4 			"/>
			<polygon fill="#333333" points="353.1,517.4 419.5,550.5 353.1,583.7 			"/>
			<polygon points="684.7,550.5 618.4,517.4 684.7,484.3 			"/>
			<polygon points="552,550.5 485.8,517.4 552,484.3 			"/>
			<polygon points="552,484.3 618.4,517.4 552,550.5 			"/>
			<polygon points="419.5,550.5 353.1,517.4 419.5,484.3 			"/>
			<polygon fill="#1A1A1A" points="419.5,484.3 485.8,517.4 419.5,550.5 			"/>
			<polygon fill="#1A1A1A" points="618.4,517.4 552,484.3 618.4,451 			"/>
			<polygon points="618.4,451 684.7,484.3 618.4,517.4 			"/>
			<polygon points="485.8,517.4 419.5,484.3 485.8,451 			"/>
			<polygon points="485.8,451 552,484.3 485.8,517.4 			"/>
			<polygon fill="#1A1A1A" points="353.1,517.4 286.9,484.3 353.1,451 			"/>
			<polygon points="353.1,451 419.5,484.3 353.1,517.4 			"/>
			<polygon points="684.7,484.3 618.4,451 684.7,417.9 			"/>
			<polygon fill="#333333" points="552,484.3 485.8,451 552,417.9 			"/>
			<polygon fill="#1A1A1A" points="552,417.9 618.4,451 552,484.3 			"/>
			<polygon points="419.5,484.3 353.1,451 419.5,417.9 			"/>
			<polygon points="419.5,417.9 485.8,451 419.5,484.3 			"/>
			<polygon points="618.4,451 552,417.9 618.4,384.8 			"/>
			<polygon points="618.4,384.8 684.7,417.9 618.4,451 			"/>
			<polygon points="485.8,451 419.5,417.9 485.8,384.8 			"/>
			<polygon points="485.8,384.8 552,417.9 485.8,451 			"/>
			<polygon fill="#1A1A1A" points="353.1,451 286.9,417.9 353.1,384.8 			"/>
			<polygon fill="#333333" points="353.1,384.8 419.5,417.9 353.1,451 			"/>
			<polygon points="684.7,417.9 618.4,384.8 684.7,351.6 			"/>
			<polygon points="552,417.9 485.8,384.8 552,351.6 			"/>
			<polygon points="552,351.6 618.4,384.8 552,417.9 			"/>
			<polygon fill="#333333" points="419.5,417.9 353.1,384.8 419.5,351.6 			"/>
			<polygon fill="#333333" points="419.5,351.6 485.8,384.8 419.5,417.9 			"/>
			<polygon fill="#333333" points="618.4,384.8 552,351.6 618.4,318.4 			"/>
			<polygon points="618.4,318.4 684.7,351.6 618.4,384.8 			"/>
			<polygon points="485.8,384.8 419.5,351.6 485.8,318.4 			"/>
			<polygon fill="#333333" points="485.8,318.4 552,351.6 485.8,384.8 			"/>
			<polygon points="353.1,384.8 286.9,351.6 353.1,318.4 			"/>
			<polygon points="353.1,318.4 419.5,351.6 353.1,384.8 			"/>
			<polygon fill="#1A1A1A" points="684.7,351.6 618.4,318.4 684.7,285.3 			"/>
			<polygon fill="#1A1A1A" points="552,351.6 485.8,318.4 552,285.3 			"/>
			<polygon fill="#333333" points="552,285.3 618.4,318.4 552,351.6 			"/>
			<polygon fill="#333333" points="419.5,351.6 353.1,318.4 419.5,285.3 			"/>
			<polygon fill="#1A1A1A" points="419.5,285.3 485.8,318.4 419.5,351.6 			"/>
			<polygon points="618.4,318.4 552,285.3 618.4,252.1 			"/>
			<polygon points="618.4,252.1 684.7,285.3 618.4,318.4 			"/>
			<polygon fill="#333333" points="485.8,318.4 419.5,285.3 485.8,252.1 			"/>
			<polygon points="485.8,252.1 552,285.3 485.8,318.4 			"/>
			<polygon points="353.1,318.4 286.9,285.3 353.1,252.1 			"/>
			<polygon points="353.1,252.1 419.5,285.3 353.1,318.4 			"/>
			<polygon fill="#333333" points="684.7,285.3 618.4,252.1 684.7,219 			"/>
			<polygon points="552,285.3 485.8,252.1 552,219 			"/>
			<polygon fill="#1A1A1A" points="552,219 618.4,252.1 552,285.3 			"/>
			<polygon points="419.5,285.3 353.1,252.1 419.5,219 			"/>
			<polygon fill="#1A1A1A" points="419.5,219 485.8,252.1 419.5,285.3 			"/>
			<polygon fill="#333333" points="618.4,252.1 552,219 618.4,185.9 			"/>
			<polygon points="618.4,185.9 684.7,219 618.4,252.1 			"/>
			<polygon fill="#1A1A1A" points="485.8,252.1 419.5,219 485.8,185.9 			"/>
			<polygon points="485.8,185.9 552,219 485.8,252.1 			"/>
			<polygon fill="#333333" points="353.1,252.1 286.9,219 353.1,185.9 			"/>
			<polygon fill="#1A1A1A" points="353.1,185.9 419.5,219 353.1,252.1 			"/>
			<polygon points="684.7,219 618.4,185.9 684.7,152.6 			"/>
			<polygon points="552,219 485.8,185.9 552,152.6 			"/>
			<polygon points="552,152.6 618.4,185.9 552,219 			"/>
			<polygon fill="#1A1A1A" points="419.5,219 353.1,185.9 419.5,152.6 			"/>
			<polygon points="419.5,152.6 485.8,185.9 419.5,219 			"/>
			<polygon points="618.4,185.9 552,152.6 618.4,119.5 			"/>
			<polygon points="618.4,119.5 684.7,152.6 618.4,185.9 			"/>
			<polygon points="485.8,185.9 419.5,152.6 485.8,119.5 			"/>
			<polygon points="485.8,119.5 552,152.6 485.8,185.9 			"/>
			<polygon fill="#333333" points="353.1,185.9 286.9,152.6 353.1,119.5 			"/>
			<polygon points="353.1,119.5 419.5,152.6 353.1,185.9 			"/>
			<polygon points="684.7,152.6 618.4,119.5 684.7,86.4 			"/>
			<polygon fill="#333333" points="552,152.6 485.8,119.5 552,86.4 			"/>
			<polygon points="552,86.4 618.4,119.5 552,152.6 			"/>
			<polygon points="419.5,152.6 353.1,119.5 419.5,86.4 			"/>
			<polygon fill="#333333" points="419.5,86.4 485.8,119.5 419.5,152.6 			"/>
			<polygon fill="#1A1A1A" points="618.4,119.5 552,86.4 618.4,53.2 			"/>
			<polygon fill="#333333" points="618.4,53.2 684.7,86.4 618.4,119.5 			"/>
			<polygon points="485.8,119.5 419.5,86.4 485.8,53.2 			"/>
			<polygon points="485.8,53.2 552,86.4 485.8,119.5 			"/>
			<polygon points="353.1,119.5 286.9,86.4 353.1,53.2 			"/>
			<polygon points="353.1,53.2 419.5,86.4 353.1,119.5 			"/>
			<polygon points="684.7,86.4 618.4,53.2 684.7,20.1 			"/>
			<polygon points="552,86.4 485.8,53.2 552,20.1 			"/>
			<polygon points="552,20.1 618.4,53.2 552,86.4 			"/>
			<polygon fill="#1A1A1A" points="419.5,86.4 353.1,53.2 419.5,20.1 			"/>
			<polygon points="419.5,20.1 485.8,53.2 419.5,86.4 			"/>
			<polygon points="618.4,53.2 552,20.1 618.4,-13.2 			"/>
			<polygon fill="#333333" points="618.4,-13.2 684.7,20.1 618.4,53.2 			"/>
			<polygon fill="#1A1A1A" points="485.8,53.2 419.5,20.1 485.8,-13.2 			"/>
			<polygon fill="#1A1A1A" points="485.8,-13.2 552,20.1 485.8,53.2 			"/>
			<polygon fill="#333333" points="353.1,53.2 286.9,20.1 353.1,-13.2 			"/>
			<polygon points="353.1,-13.2 419.5,20.1 353.1,53.2 			"/>
			<polygon points="684.7,20.1 618.4,-13.2 684.7,-46.3 			"/>
			<polygon fill="#1A1A1A" points="552,20.1 485.8,-13.2 552,-46.3 			"/>
			<polygon points="552,-46.3 618.4,-13.2 552,20.1 			"/>
			<polygon fill="#333333" points="419.5,20.1 353.1,-13.2 419.5,-46.3 			"/>
			<polygon points="419.5,-46.3 485.8,-13.2 419.5,20.1 			"/>
			<polygon points="21.6,-46.3 88,-13.2 21.6,20.1 			"/>
			<polygon fill="#333333" points="21.6,20.1 -44.7,-13.2 21.6,-46.3 			"/>
			<polygon fill="#1A1A1A" points="154.2,-46.3 220.5,-13.2 154.2,20.1 			"/>
			<polygon fill="#1A1A1A" points="154.2,20.1 88,-13.2 154.2,-46.3 			"/>
			<polygon fill="#333333" points="286.9,-46.3 353.1,-13.2 286.9,20.1 			"/>
			<polygon points="286.9,20.1 220.5,-13.2 286.9,-46.3 			"/>
			<polygon points="-44.7,-13.2 21.6,20.1 -44.7,53.2 			"/>
			<polygon fill="#1A1A1A" points="88,-13.2 154.2,20.1 88,53.2 			"/>
			<polygon points="88,53.2 21.6,20.1 88,-13.2 			"/>
			<polygon fill="#333333" points="220.5,-13.2 286.9,20.1 220.5,53.2 			"/>
			<polygon points="220.5,53.2 154.2,20.1 220.5,-13.2 			"/>
			<polygon fill="#333333" points="21.6,20.1 88,53.2 21.6,86.4 			"/>
			<polygon points="21.6,86.4 -44.7,53.2 21.6,20.1 			"/>
			<polygon fill="#333333" points="154.2,20.1 220.5,53.2 154.2,86.4 			"/>
			<polygon fill="#1A1A1A" points="154.2,86.4 88,53.2 154.2,20.1 			"/>
			<polygon fill="#1A1A1A" points="286.9,20.1 353.1,53.2 286.9,86.4 			"/>
			<polygon points="286.9,86.4 220.5,53.2 286.9,20.1 			"/>
			<polygon points="-44.7,53.2 21.6,86.4 -44.7,119.5 			"/>
			<polygon points="88,53.2 154.2,86.4 88,119.5 			"/>
			<polygon points="88,119.5 21.6,86.4 88,53.2 			"/>
			<polygon points="220.5,53.2 286.9,86.4 220.5,119.5 			"/>
			<polygon fill="#333333" points="220.5,119.5 154.2,86.4 220.5,53.2 			"/>
			<polygon fill="#333333" points="21.6,86.4 88,119.5 21.6,152.6 			"/>
			<polygon fill="#1A1A1A" points="21.6,152.6 -44.7,119.5 21.6,86.4 			"/>
			<polygon points="154.2,86.4 220.5,119.5 154.2,152.6 			"/>
			<polygon fill="#333333" points="154.2,152.6 88,119.5 154.2,86.4 			"/>
			<polygon points="286.9,86.4 353.1,119.5 286.9,152.6 			"/>
			<polygon fill="#333333" points="286.9,152.6 220.5,119.5 286.9,86.4 			"/>
			<polygon points="-44.7,119.5 21.6,152.6 -44.7,185.9 			"/>
			<polygon points="88,119.5 154.2,152.6 88,185.9 			"/>
			<polygon points="88,185.9 21.6,152.6 88,119.5 			"/>
			<polygon points="220.5,119.5 286.9,152.6 220.5,185.9 			"/>
			<polygon fill="#1A1A1A" points="220.5,185.9 154.2,152.6 220.5,119.5 			"/>
			<polygon fill="#1A1A1A" points="21.6,152.6 88,185.9 21.6,219 			"/>
			<polygon points="21.6,219 -44.7,185.9 21.6,152.6 			"/>
			<polygon points="154.2,152.6 220.5,185.9 154.2,219 			"/>
			<polygon points="154.2,219 88,185.9 154.2,152.6 			"/>
			<polygon fill="#1A1A1A" points="286.9,152.6 353.1,185.9 286.9,219 			"/>
			<polygon points="286.9,219 220.5,185.9 286.9,152.6 			"/>
			<polygon points="-44.7,185.9 21.6,219 -44.7,252.1 			"/>
			<polygon fill="#333333" points="88,185.9 154.2,219 88,252.1 			"/>
			<polygon fill="#1A1A1A" points="88,252.1 21.6,219 88,185.9 			"/>
			<polygon points="220.5,185.9 286.9,219 220.5,252.1 			"/>
			<polygon points="220.5,252.1 154.2,219 220.5,185.9 			"/>
			<polygon points="21.6,219 88,252.1 21.6,285.3 			"/>
			<polygon points="21.6,285.3 -44.7,252.1 21.6,219 			"/>
			<polygon points="154.2,219 220.5,252.1 154.2,285.3 			"/>
			<polygon points="154.2,285.3 88,252.1 154.2,219 			"/>
			<polygon fill="#1A1A1A" points="286.9,219 353.1,252.1 286.9,285.3 			"/>
			<polygon fill="#333333" points="286.9,285.3 220.5,252.1 286.9,219 			"/>
			<polygon points="-44.7,252.1 21.6,285.3 -44.7,318.4 			"/>
			<polygon points="88,252.1 154.2,285.3 88,318.4 			"/>
			<polygon points="88,318.4 21.6,285.3 88,252.1 			"/>
			<polygon fill="#333333" points="220.5,252.1 286.9,285.3 220.5,318.4 			"/>
			<polygon fill="#333333" points="220.5,318.4 154.2,285.3 220.5,252.1 			"/>
			<polygon fill="#333333" points="21.6,285.3 88,318.4 21.6,351.6 			"/>
			<polygon points="21.6,351.6 -44.7,318.4 21.6,285.3 			"/>
			<polygon points="154.2,285.3 220.5,318.4 154.2,351.6 			"/>
			<polygon fill="#333333" points="154.2,351.6 88,318.4 154.2,285.3 			"/>
			<polygon points="286.9,285.3 353.1,318.4 286.9,351.6 			"/>
			<polygon points="286.9,351.6 220.5,318.4 286.9,285.3 			"/>
		</g>
	</g>
</g>
</svg>
