<?xml version="1.0" encoding="utf-8"?>
<!-- Generator: Adobe Illustrator 21.1.0, SVG Export Plug-In . SVG Version: 6.00 Build 0)  -->
<svg version="1.1" id="Layer_1" xmlns="http://www.w3.org/2000/svg" xmlns:xlink="http://www.w3.org/1999/xlink" x="0px" y="0px"
	 viewBox="0 0 375 1600" style="enable-background:new 0 0 375 1600;" xml:space="preserve">
<style type="text/css">
	.st0{fill:url(#SVGID_1_);}
	.st1{opacity:0.17;}
	.st2{fill:#1A1A1A;}
	.st3{fill:#333333;}
</style>
<g>
	
		<linearGradient id="SVGID_1_" gradientUnits="userSpaceOnUse" x1="-17.3" y1="800.0001" x2="391.3" y2="800.0001" gradientTransform="matrix(1 0 0 -1 0 1600)">
		<stop  offset="0" style="stop-color:#F6912A"/>
		<stop  offset="0.2591" style="stop-color:#EF4E23"/>
		<stop  offset="0.6566" style="stop-color:#6E3078"/>
		<stop  offset="0.9781" style="stop-color:#00416B"/>
		<stop  offset="1" style="stop-color:#00416B"/>
	</linearGradient>
	<rect x="-17.3" y="-32" class="st0" width="408.6" height="1664"/>
</g>
<g>
	<g class="st1">
		<polygon class="st2" points="-34.7,-25.8 14.6,-1.2 -34.7,23.5 		"/>
		<polygon points="63.8,-25.8 113.1,-1.2 63.8,23.5 		"/>
		<polygon points="63.8,23.5 14.6,-1.2 63.8,-25.8 		"/>
		<polygon points="162.4,-25.8 211.6,-1.2 162.4,23.5 		"/>
		<polygon points="162.4,23.5 113.1,-1.2 162.4,-25.8 		"/>
		<polygon points="14.6,-1.2 63.8,23.5 14.6,48.1 		"/>
		<polygon points="14.6,48.1 -34.7,23.5 14.6,-1.2 		"/>
		<polygon class="st2" points="113.1,-1.2 162.4,23.5 113.1,48.1 		"/>
		<polygon points="113.1,48.1 63.8,23.5 113.1,-1.2 		"/>
		<polygon points="-34.7,23.5 14.6,48.1 -34.7,72.8 		"/>
		<polygon class="st2" points="63.8,23.5 113.1,48.1 63.8,72.8 		"/>
		<polygon class="st2" points="63.8,72.8 14.6,48.1 63.8,23.5 		"/>
		<polygon class="st3" points="162.4,23.5 211.6,48.1 162.4,72.8 		"/>
		<polygon points="162.4,72.8 113.1,48.1 162.4,23.5 		"/>
		<polygon class="st2" points="14.6,48.1 63.8,72.8 14.6,97.4 		"/>
		<polygon points="14.6,97.4 -34.7,72.8 14.6,48.1 		"/>
		<polygon class="st3" points="113.1,48.1 162.4,72.8 113.1,97.4 		"/>
		<polygon points="113.1,97.4 63.8,72.8 113.1,48.1 		"/>
		<polygon class="st3" points="-34.7,72.8 14.6,97.4 -34.7,122 		"/>
		<polygon class="st3" points="63.8,72.8 113.1,97.4 63.8,122 		"/>
		<polygon class="st2" points="63.8,122 14.6,97.4 63.8,72.8 		"/>
		<polygon class="st2" points="162.4,72.8 211.6,97.4 162.4,122 		"/>
		<polygon points="162.4,122 113.1,97.4 162.4,72.8 		"/>
		<polygon points="14.6,97.4 63.8,122 14.6,146.7 		"/>
		<polygon points="14.6,146.7 -34.7,122 14.6,97.4 		"/>
		<polygon points="113.1,97.4 162.4,122 113.1,146.7 		"/>
		<polygon class="st3" points="113.1,146.7 63.8,122 113.1,97.4 		"/>
		<polygon class="st3" points="-34.7,122 14.6,146.7 -34.7,171.3 		"/>
		<polygon points="63.8,122 113.1,146.7 63.8,171.3 		"/>
		<polygon class="st3" points="63.8,171.3 14.6,146.7 63.8,122 		"/>
		<polygon points="162.4,122 211.6,146.7 162.4,171.3 		"/>
		<polygon class="st3" points="162.4,171.3 113.1,146.7 162.4,122 		"/>
		<polygon points="14.6,146.7 63.8,171.3 14.6,195.9 		"/>
		<polygon points="14.6,195.9 -34.7,171.3 14.6,146.7 		"/>
		<polygon points="113.1,146.7 162.4,171.3 113.1,195.9 		"/>
		<polygon class="st2" points="113.1,195.9 63.8,171.3 113.1,146.7 		"/>
		<polygon class="st2" points="-34.7,171.3 14.6,195.9 -34.7,220.6 		"/>
		<polygon points="63.8,171.3 113.1,195.9 63.8,220.6 		"/>
		<polygon points="63.8,220.6 14.6,195.9 63.8,171.3 		"/>
		<polygon class="st2" points="162.4,171.3 211.6,195.9 162.4,220.6 		"/>
		<polygon points="162.4,220.6 113.1,195.9 162.4,171.3 		"/>
		<polygon class="st3" points="14.6,195.9 63.8,220.6 14.6,245.2 		"/>
		<polygon class="st2" points="14.6,245.2 -34.7,220.6 14.6,195.9 		"/>
		<polygon points="113.1,195.9 162.4,220.6 113.1,245.2 		"/>
		<polygon points="113.1,245.2 63.8,220.6 113.1,195.9 		"/>
		<polygon points="-34.7,220.6 14.6,245.2 -34.7,269.8 		"/>
		<polygon points="63.8,220.6 113.1,245.2 63.8,269.8 		"/>
		<polygon points="63.8,269.8 14.6,245.2 63.8,220.6 		"/>
		<polygon class="st2" points="162.4,220.6 211.6,245.2 162.4,269.8 		"/>
		<polygon class="st3" points="162.4,269.8 113.1,245.2 162.4,220.6 		"/>
		<polygon points="14.6,245.2 63.8,269.8 14.6,294.5 		"/>
		<polygon points="14.6,294.5 -34.7,269.8 14.6,245.2 		"/>
		<polygon class="st3" points="113.1,245.2 162.4,269.8 113.1,294.5 		"/>
		<polygon class="st3" points="113.1,294.5 63.8,269.8 113.1,245.2 		"/>
		<polygon class="st3" points="-34.7,269.8 14.6,294.5 -34.7,319.1 		"/>
		<polygon points="63.8,269.8 113.1,294.5 63.8,319.1 		"/>
		<polygon class="st3" points="63.8,319.1 14.6,294.5 63.8,269.8 		"/>
		<polygon points="162.4,269.8 211.6,294.5 162.4,319.1 		"/>
		<polygon points="162.4,319.1 113.1,294.5 162.4,269.8 		"/>
		<polygon class="st2" points="359.4,319.1 310.2,294.5 359.4,269.8 		"/>
		<polygon class="st3" points="359.4,269.8 408.7,294.5 359.4,319.1 		"/>
		<polygon class="st3" points="260.9,319.1 211.6,294.5 260.9,269.8 		"/>
		<polygon class="st2" points="260.9,269.8 310.2,294.5 260.9,319.1 		"/>
		<polygon points="408.7,294.5 359.4,269.8 408.7,245.2 		"/>
		<polygon class="st3" points="310.2,294.5 260.9,269.8 310.2,245.2 		"/>
		<polygon points="310.2,245.2 359.4,269.8 310.2,294.5 		"/>
		<polygon points="211.6,294.5 162.4,269.8 211.6,245.2 		"/>
		<polygon points="211.6,245.2 260.9,269.8 211.6,294.5 		"/>
		<polygon points="359.4,269.8 310.2,245.2 359.4,220.6 		"/>
		<polygon class="st2" points="359.4,220.6 408.7,245.2 359.4,269.8 		"/>
		<polygon points="260.9,269.8 211.6,245.2 260.9,220.6 		"/>
		<polygon class="st2" points="260.9,220.6 310.2,245.2 260.9,269.8 		"/>
		<polygon class="st3" points="408.7,245.2 359.4,220.6 408.7,195.9 		"/>
		<polygon class="st2" points="310.2,245.2 260.9,220.6 310.2,195.9 		"/>
		<polygon points="310.2,195.9 359.4,220.6 310.2,245.2 		"/>
		<polygon class="st3" points="211.6,245.2 162.4,220.6 211.6,195.9 		"/>
		<polygon class="st2" points="211.6,195.9 260.9,220.6 211.6,245.2 		"/>
		<polygon points="359.4,220.6 310.2,195.9 359.4,171.3 		"/>
		<polygon points="359.4,171.3 408.7,195.9 359.4,220.6 		"/>
		<polygon class="st2" points="260.9,220.6 211.6,195.9 260.9,171.3 		"/>
		<polygon points="260.9,171.3 310.2,195.9 260.9,220.6 		"/>
		<polygon points="408.7,195.9 359.4,171.3 408.7,146.7 		"/>
		<polygon points="310.2,195.9 260.9,171.3 310.2,146.7 		"/>
		<polygon points="310.2,146.7 359.4,171.3 310.2,195.9 		"/>
		<polygon class="st3" points="211.6,195.9 162.4,171.3 211.6,146.7 		"/>
		<polygon points="211.6,146.7 260.9,171.3 211.6,195.9 		"/>
		<polygon class="st3" points="359.4,171.3 310.2,146.7 359.4,122 		"/>
		<polygon points="359.4,122 408.7,146.7 359.4,171.3 		"/>
		<polygon points="260.9,171.3 211.6,146.7 260.9,122 		"/>
		<polygon class="st3" points="260.9,122 310.2,146.7 260.9,171.3 		"/>
		<polygon class="st2" points="408.7,146.7 359.4,122 408.7,97.4 		"/>
		<polygon points="310.2,146.7 260.9,122 310.2,97.4 		"/>
		<polygon points="310.2,97.4 359.4,122 310.2,146.7 		"/>
		<polygon points="211.6,146.7 162.4,122 211.6,97.4 		"/>
		<polygon points="211.6,97.4 260.9,122 211.6,146.7 		"/>
		<polygon points="359.4,122 310.2,97.4 359.4,72.8 		"/>
		<polygon points="359.4,72.8 408.7,97.4 359.4,122 		"/>
		<polygon class="st2" points="260.9,122 211.6,97.4 260.9,72.8 		"/>
		<polygon points="260.9,72.8 310.2,97.4 260.9,122 		"/>
		<polygon points="408.7,97.4 359.4,72.8 408.7,48.1 		"/>
		<polygon class="st2" points="310.2,97.4 260.9,72.8 310.2,48.1 		"/>
		<polygon class="st2" points="310.2,48.1 359.4,72.8 310.2,97.4 		"/>
		<polygon class="st3" points="211.6,97.4 162.4,72.8 211.6,48.1 		"/>
		<polygon points="211.6,48.1 260.9,72.8 211.6,97.4 		"/>
		<polygon class="st2" points="359.4,72.8 310.2,48.1 359.4,23.5 		"/>
		<polygon points="359.4,23.5 408.7,48.1 359.4,72.8 		"/>
		<polygon class="st3" points="260.9,72.8 211.6,48.1 260.9,23.5 		"/>
		<polygon points="260.9,23.5 310.2,48.1 260.9,72.8 		"/>
		<polygon class="st3" points="408.7,48.1 359.4,23.5 408.7,-1.2 		"/>
		<polygon class="st3" points="310.2,48.1 260.9,23.5 310.2,-1.2 		"/>
		<polygon class="st2" points="310.2,-1.2 359.4,23.5 310.2,48.1 		"/>
		<polygon class="st2" points="211.6,48.1 162.4,23.5 211.6,-1.2 		"/>
		<polygon points="211.6,-1.2 260.9,23.5 211.6,48.1 		"/>
		<polygon points="359.4,23.5 310.2,-1.2 359.4,-25.8 		"/>
		<polygon points="359.4,-25.8 408.7,-1.2 359.4,23.5 		"/>
		<polygon points="260.9,23.5 211.6,-1.2 260.9,-25.8 		"/>
		<polygon class="st3" points="260.9,-25.8 310.2,-1.2 260.9,23.5 		"/>
	</g>
	<g class="st1">
		<polygon class="st2" points="14.6,787.5 63.8,812.2 14.6,836.8 		"/>
		<polygon class="st3" points="14.6,836.8 -34.7,812.2 14.6,787.5 		"/>
		<polygon class="st3" points="113.1,787.5 162.4,812.2 113.1,836.8 		"/>
		<polygon class="st2" points="113.1,836.8 63.8,812.2 113.1,787.5 		"/>
		<polygon points="-34.7,812.2 14.6,836.8 -34.7,861.4 		"/>
		<polygon class="st3" points="63.8,812.2 113.1,836.8 63.8,861.4 		"/>
		<polygon points="63.8,861.4 14.6,836.8 63.8,812.2 		"/>
		<polygon points="162.4,812.2 211.6,836.8 162.4,861.4 		"/>
		<polygon points="162.4,861.4 113.1,836.8 162.4,812.2 		"/>
		<polygon points="14.6,836.8 63.8,861.4 14.6,886.1 		"/>
		<polygon class="st2" points="14.6,886.1 -34.7,861.4 14.6,836.8 		"/>
		<polygon points="113.1,836.8 162.4,861.4 113.1,886.1 		"/>
		<polygon class="st2" points="113.1,886.1 63.8,861.4 113.1,836.8 		"/>
		<polygon class="st3" points="-34.7,861.4 14.6,886.1 -34.7,910.7 		"/>
		<polygon class="st2" points="63.8,861.4 113.1,886.1 63.8,910.7 		"/>
		<polygon points="63.8,910.7 14.6,886.1 63.8,861.4 		"/>
		<polygon class="st3" points="162.4,861.4 211.6,886.1 162.4,910.7 		"/>
		<polygon class="st2" points="162.4,910.7 113.1,886.1 162.4,861.4 		"/>
		<polygon points="14.6,886.1 63.8,910.7 14.6,935.3 		"/>
		<polygon points="14.6,935.3 -34.7,910.7 14.6,886.1 		"/>
		<polygon class="st2" points="113.1,886.1 162.4,910.7 113.1,935.3 		"/>
		<polygon points="113.1,935.3 63.8,910.7 113.1,886.1 		"/>
		<polygon points="-34.7,910.7 14.6,935.3 -34.7,960 		"/>
		<polygon points="63.8,910.7 113.1,935.3 63.8,960 		"/>
		<polygon points="63.8,960 14.6,935.3 63.8,910.7 		"/>
		<polygon class="st3" points="162.4,910.7 211.6,935.3 162.4,960 		"/>
		<polygon points="162.4,960 113.1,935.3 162.4,910.7 		"/>
		<polygon class="st3" points="14.6,935.3 63.8,960 14.6,984.6 		"/>
		<polygon points="14.6,984.6 -34.7,960 14.6,935.3 		"/>
		<polygon points="113.1,935.3 162.4,960 113.1,984.6 		"/>
		<polygon class="st3" points="113.1,984.6 63.8,960 113.1,935.3 		"/>
		<polygon class="st2" points="-34.7,960 14.6,984.6 -34.7,1009.3 		"/>
		<polygon points="63.8,960 113.1,984.6 63.8,1009.3 		"/>
		<polygon points="63.8,1009.3 14.6,984.6 63.8,960 		"/>
		<polygon points="162.4,960 211.6,984.6 162.4,1009.3 		"/>
		<polygon points="162.4,1009.3 113.1,984.6 162.4,960 		"/>
		<polygon points="14.6,984.6 63.8,1009.3 14.6,1033.9 		"/>
		<polygon points="14.6,1033.9 -34.7,1009.3 14.6,984.6 		"/>
		<polygon class="st2" points="113.1,984.6 162.4,1009.3 113.1,1033.9 		"/>
		<polygon points="113.1,1033.9 63.8,1009.3 113.1,984.6 		"/>
		<polygon points="-34.7,1009.3 14.6,1033.9 -34.7,1058.5 		"/>
		<polygon class="st2" points="63.8,1009.3 113.1,1033.9 63.8,1058.5 		"/>
		<polygon class="st2" points="63.8,1058.5 14.6,1033.9 63.8,1009.3 		"/>
		<polygon class="st3" points="162.4,1009.3 211.6,1033.9 162.4,1058.5 		"/>
		<polygon points="162.4,1058.5 113.1,1033.9 162.4,1009.3 		"/>
		<polygon class="st2" points="14.6,1033.9 63.8,1058.5 14.6,1083.2 		"/>
		<polygon points="14.6,1083.2 -34.7,1058.5 14.6,1033.9 		"/>
		<polygon class="st3" points="113.1,1033.9 162.4,1058.5 113.1,1083.2 		"/>
		<polygon points="113.1,1083.2 63.8,1058.5 113.1,1033.9 		"/>
		<polygon class="st3" points="-34.7,1058.5 14.6,1083.2 -34.7,1107.8 		"/>
		<polygon class="st3" points="63.8,1058.5 113.1,1083.2 63.8,1107.8 		"/>
		<polygon class="st2" points="63.8,1107.8 14.6,1083.2 63.8,1058.5 		"/>
		<polygon class="st2" points="162.4,1058.5 211.6,1083.2 162.4,1107.8 		"/>
		<polygon points="162.4,1107.8 113.1,1083.2 162.4,1058.5 		"/>
		<polygon points="14.6,1083.2 63.8,1107.8 14.6,1132.4 		"/>
		<polygon points="14.6,1132.4 -34.7,1107.8 14.6,1083.2 		"/>
		<polygon points="113.1,1083.2 162.4,1107.8 113.1,1132.4 		"/>
		<polygon class="st3" points="113.1,1132.4 63.8,1107.8 113.1,1083.2 		"/>
		<polygon class="st3" points="-34.7,1107.8 14.6,1132.4 -34.7,1157.1 		"/>
		<polygon points="63.8,1107.8 113.1,1132.4 63.8,1157.1 		"/>
		<polygon class="st3" points="63.8,1157.1 14.6,1132.4 63.8,1107.8 		"/>
		<polygon points="162.4,1107.8 211.6,1132.4 162.4,1157.1 		"/>
		<polygon class="st3" points="162.4,1157.1 113.1,1132.4 162.4,1107.8 		"/>
		<polygon points="14.6,1132.4 63.8,1157.1 14.6,1181.7 		"/>
		<polygon points="14.6,1181.7 -34.7,1157.1 14.6,1132.4 		"/>
		<polygon points="113.1,1132.4 162.4,1157.1 113.1,1181.7 		"/>
		<polygon class="st2" points="113.1,1181.7 63.8,1157.1 113.1,1132.4 		"/>
		<polygon class="st2" points="-34.7,1157.1 14.6,1181.7 -34.7,1206.3 		"/>
		<polygon points="63.8,1157.1 113.1,1181.7 63.8,1206.3 		"/>
		<polygon points="63.8,1206.3 14.6,1181.7 63.8,1157.1 		"/>
		<polygon class="st2" points="162.4,1157.1 211.6,1181.7 162.4,1206.3 		"/>
		<polygon points="162.4,1206.3 113.1,1181.7 162.4,1157.1 		"/>
		<polygon class="st3" points="14.6,1181.7 63.8,1206.3 14.6,1231 		"/>
		<polygon class="st2" points="14.6,1231 -34.7,1206.3 14.6,1181.7 		"/>
		<polygon points="113.1,1181.7 162.4,1206.3 113.1,1231 		"/>
		<polygon points="113.1,1231 63.8,1206.3 113.1,1181.7 		"/>
		<polygon points="-34.7,1206.3 14.6,1231 -34.7,1255.6 		"/>
		<polygon points="63.8,1206.3 113.1,1231 63.8,1255.6 		"/>
		<polygon points="63.8,1255.6 14.6,1231 63.8,1206.3 		"/>
		<polygon class="st2" points="162.4,1206.3 211.6,1231 162.4,1255.6 		"/>
		<polygon class="st3" points="162.4,1255.6 113.1,1231 162.4,1206.3 		"/>
		<polygon points="14.6,1231 63.8,1255.6 14.6,1280.2 		"/>
		<polygon points="14.6,1280.2 -34.7,1255.6 14.6,1231 		"/>
		<polygon class="st3" points="113.1,1231 162.4,1255.6 113.1,1280.2 		"/>
		<polygon class="st3" points="113.1,1280.2 63.8,1255.6 113.1,1231 		"/>
		<polygon class="st3" points="-34.7,1255.6 14.6,1280.2 -34.7,1304.9 		"/>
		<polygon points="63.8,1255.6 113.1,1280.2 63.8,1304.9 		"/>
		<polygon class="st3" points="63.8,1304.9 14.6,1280.2 63.8,1255.6 		"/>
		<polygon points="162.4,1255.6 211.6,1280.2 162.4,1304.9 		"/>
		<polygon points="162.4,1304.9 113.1,1280.2 162.4,1255.6 		"/>
		<polygon class="st2" points="359.4,1304.9 310.2,1280.2 359.4,1255.6 		"/>
		<polygon class="st3" points="359.4,1255.6 408.7,1280.2 359.4,1304.9 		"/>
		<polygon class="st3" points="260.9,1304.9 211.6,1280.2 260.9,1255.6 		"/>
		<polygon class="st2" points="260.9,1255.6 310.2,1280.2 260.9,1304.9 		"/>
		<polygon points="408.7,1280.2 359.4,1255.6 408.7,1231 		"/>
		<polygon class="st3" points="310.2,1280.2 260.9,1255.6 310.2,1231 		"/>
		<polygon points="310.2,1231 359.4,1255.6 310.2,1280.2 		"/>
		<polygon points="211.6,1280.2 162.4,1255.6 211.6,1231 		"/>
		<polygon points="211.6,1231 260.9,1255.6 211.6,1280.2 		"/>
		<polygon points="359.4,1255.6 310.2,1231 359.4,1206.3 		"/>
		<polygon class="st2" points="359.4,1206.3 408.7,1231 359.4,1255.6 		"/>
		<polygon points="260.9,1255.6 211.6,1231 260.9,1206.3 		"/>
		<polygon class="st2" points="260.9,1206.3 310.2,1231 260.9,1255.6 		"/>
		<polygon class="st3" points="408.7,1231 359.4,1206.3 408.7,1181.7 		"/>
		<polygon class="st2" points="310.2,1231 260.9,1206.3 310.2,1181.7 		"/>
		<polygon points="310.2,1181.7 359.4,1206.3 310.2,1231 		"/>
		<polygon class="st3" points="211.6,1231 162.4,1206.3 211.6,1181.7 		"/>
		<polygon class="st2" points="211.6,1181.7 260.9,1206.3 211.6,1231 		"/>
		<polygon points="359.4,1206.3 310.2,1181.7 359.4,1157.1 		"/>
		<polygon points="359.4,1157.1 408.7,1181.7 359.4,1206.3 		"/>
		<polygon class="st2" points="260.9,1206.3 211.6,1181.7 260.9,1157.1 		"/>
		<polygon points="260.9,1157.1 310.2,1181.7 260.9,1206.3 		"/>
		<polygon points="408.7,1181.7 359.4,1157.1 408.7,1132.4 		"/>
		<polygon points="310.2,1181.7 260.9,1157.1 310.2,1132.4 		"/>
		<polygon points="310.2,1132.4 359.4,1157.1 310.2,1181.7 		"/>
		<polygon class="st3" points="211.6,1181.7 162.4,1157.1 211.6,1132.4 		"/>
		<polygon points="211.6,1132.4 260.9,1157.1 211.6,1181.7 		"/>
		<polygon class="st3" points="359.4,1157.1 310.2,1132.4 359.4,1107.8 		"/>
		<polygon points="359.4,1107.8 408.7,1132.4 359.4,1157.1 		"/>
		<polygon points="260.9,1157.1 211.6,1132.4 260.9,1107.8 		"/>
		<polygon class="st3" points="260.9,1107.8 310.2,1132.4 260.9,1157.1 		"/>
		<polygon class="st2" points="408.7,1132.4 359.4,1107.8 408.7,1083.2 		"/>
		<polygon points="310.2,1132.4 260.9,1107.8 310.2,1083.2 		"/>
		<polygon points="310.2,1083.2 359.4,1107.8 310.2,1132.4 		"/>
		<polygon points="211.6,1132.4 162.4,1107.8 211.6,1083.2 		"/>
		<polygon points="211.6,1083.2 260.9,1107.8 211.6,1132.4 		"/>
		<polygon points="359.4,1107.8 310.2,1083.2 359.4,1058.5 		"/>
		<polygon points="359.4,1058.5 408.7,1083.2 359.4,1107.8 		"/>
		<polygon class="st2" points="260.9,1107.8 211.6,1083.2 260.9,1058.5 		"/>
		<polygon points="260.9,1058.5 310.2,1083.2 260.9,1107.8 		"/>
		<polygon points="408.7,1083.2 359.4,1058.5 408.7,1033.9 		"/>
		<polygon class="st2" points="310.2,1083.2 260.9,1058.5 310.2,1033.9 		"/>
		<polygon class="st2" points="310.2,1033.9 359.4,1058.5 310.2,1083.2 		"/>
		<polygon class="st3" points="211.6,1083.2 162.4,1058.5 211.6,1033.9 		"/>
		<polygon points="211.6,1033.9 260.9,1058.5 211.6,1083.2 		"/>
		<polygon class="st2" points="359.4,1058.5 310.2,1033.9 359.4,1009.3 		"/>
		<polygon points="359.4,1009.3 408.7,1033.9 359.4,1058.5 		"/>
		<polygon class="st3" points="260.9,1058.5 211.6,1033.9 260.9,1009.3 		"/>
		<polygon points="260.9,1009.3 310.2,1033.9 260.9,1058.5 		"/>
		<polygon class="st3" points="408.7,1033.9 359.4,1009.3 408.7,984.6 		"/>
		<polygon class="st3" points="310.2,1033.9 260.9,1009.3 310.2,984.6 		"/>
		<polygon class="st2" points="310.2,984.6 359.4,1009.3 310.2,1033.9 		"/>
		<polygon class="st2" points="211.6,1033.9 162.4,1009.3 211.6,984.6 		"/>
		<polygon points="211.6,984.6 260.9,1009.3 211.6,1033.9 		"/>
		<polygon points="359.4,1009.3 310.2,984.6 359.4,960 		"/>
		<polygon points="359.4,960 408.7,984.6 359.4,1009.3 		"/>
		<polygon points="260.9,1009.3 211.6,984.6 260.9,960 		"/>
		<polygon class="st3" points="260.9,960 310.2,984.6 260.9,1009.3 		"/>
		<polygon class="st3" points="408.7,984.6 359.4,960 408.7,935.3 		"/>
		<polygon points="310.2,984.6 260.9,960 310.2,935.3 		"/>
		<polygon class="st3" points="310.2,935.3 359.4,960 310.2,984.6 		"/>
		<polygon points="211.6,984.6 162.4,960 211.6,935.3 		"/>
		<polygon class="st3" points="211.6,935.3 260.9,960 211.6,984.6 		"/>
		<polygon points="359.4,960 310.2,935.3 359.4,910.7 		"/>
		<polygon points="359.4,910.7 408.7,935.3 359.4,960 		"/>
		<polygon points="260.9,960 211.6,935.3 260.9,910.7 		"/>
		<polygon class="st2" points="260.9,910.7 310.2,935.3 260.9,960 		"/>
		<polygon class="st2" points="408.7,935.3 359.4,910.7 408.7,886.1 		"/>
		<polygon points="310.2,935.3 260.9,910.7 310.2,886.1 		"/>
		<polygon points="310.2,886.1 359.4,910.7 310.2,935.3 		"/>
		<polygon class="st2" points="211.6,935.3 162.4,910.7 211.6,886.1 		"/>
		<polygon points="211.6,886.1 260.9,910.7 211.6,935.3 		"/>
		<polygon class="st3" points="359.4,910.7 310.2,886.1 359.4,861.4 		"/>
		<polygon class="st2" points="359.4,861.4 408.7,886.1 359.4,910.7 		"/>
		<polygon points="260.9,910.7 211.6,886.1 260.9,861.4 		"/>
		<polygon points="260.9,861.4 310.2,886.1 260.9,910.7 		"/>
		<polygon points="408.7,886.1 359.4,861.4 408.7,836.8 		"/>
		<polygon points="310.2,886.1 260.9,861.4 310.2,836.8 		"/>
		<polygon points="310.2,836.8 359.4,861.4 310.2,886.1 		"/>
		<polygon class="st2" points="211.6,886.1 162.4,861.4 211.6,836.8 		"/>
		<polygon class="st3" points="211.6,836.8 260.9,861.4 211.6,886.1 		"/>
		<polygon points="359.4,861.4 310.2,836.8 359.4,812.2 		"/>
		<polygon points="359.4,812.2 408.7,836.8 359.4,861.4 		"/>
		<polygon class="st3" points="260.9,861.4 211.6,836.8 260.9,812.2 		"/>
		<polygon class="st3" points="260.9,812.2 310.2,836.8 260.9,861.4 		"/>
		<polygon class="st3" points="408.7,836.8 359.4,812.2 408.7,787.5 		"/>
		<polygon points="310.2,836.8 260.9,812.2 310.2,787.5 		"/>
		<polygon class="st3" points="310.2,787.5 359.4,812.2 310.2,836.8 		"/>
		<polygon points="211.6,836.8 162.4,812.2 211.6,787.5 		"/>
		<polygon points="211.6,787.5 260.9,812.2 211.6,836.8 		"/>
		<polygon class="st2" points="359.4,812.2 310.2,787.5 359.4,762.9 		"/>
		<polygon class="st3" points="359.4,762.9 408.7,787.5 359.4,812.2 		"/>
		<polygon class="st3" points="260.9,812.2 211.6,787.5 260.9,762.9 		"/>
		<polygon class="st2" points="260.9,762.9 310.2,787.5 260.9,812.2 		"/>
		<polygon points="408.7,787.5 359.4,762.9 408.7,738.3 		"/>
		<polygon class="st3" points="310.2,787.5 260.9,762.9 310.2,738.3 		"/>
		<polygon points="310.2,738.3 359.4,762.9 310.2,787.5 		"/>
		<polygon points="211.6,787.5 162.4,762.9 211.6,738.3 		"/>
		<polygon points="211.6,738.3 260.9,762.9 211.6,787.5 		"/>
		<polygon points="359.4,762.9 310.2,738.3 359.4,713.6 		"/>
		<polygon class="st2" points="359.4,713.6 408.7,738.3 359.4,762.9 		"/>
		<polygon points="260.9,762.9 211.6,738.3 260.9,713.6 		"/>
		<polygon class="st2" points="260.9,713.6 310.2,738.3 260.9,762.9 		"/>
		<polygon class="st3" points="408.7,738.3 359.4,713.6 408.7,689 		"/>
		<polygon class="st2" points="310.2,738.3 260.9,713.6 310.2,689 		"/>
		<polygon points="310.2,689 359.4,713.6 310.2,738.3 		"/>
		<polygon class="st3" points="211.6,738.3 162.4,713.6 211.6,689 		"/>
		<polygon class="st2" points="211.6,689 260.9,713.6 211.6,738.3 		"/>
		<polygon points="359.4,713.6 310.2,689 359.4,664.4 		"/>
		<polygon points="359.4,664.4 408.7,689 359.4,713.6 		"/>
		<polygon class="st2" points="260.9,713.6 211.6,689 260.9,664.4 		"/>
		<polygon points="260.9,664.4 310.2,689 260.9,713.6 		"/>
		<polygon points="408.7,689 359.4,664.4 408.7,639.7 		"/>
		<polygon points="310.2,689 260.9,664.4 310.2,639.7 		"/>
		<polygon points="310.2,639.7 359.4,664.4 310.2,689 		"/>
		<polygon class="st3" points="211.6,689 162.4,664.4 211.6,639.7 		"/>
		<polygon points="211.6,639.7 260.9,664.4 211.6,689 		"/>
		<polygon class="st3" points="359.4,664.4 310.2,639.7 359.4,615.1 		"/>
		<polygon points="359.4,615.1 408.7,639.7 359.4,664.4 		"/>
		<polygon points="260.9,664.4 211.6,639.7 260.9,615.1 		"/>
		<polygon class="st3" points="260.9,615.1 310.2,639.7 260.9,664.4 		"/>
		<polygon class="st2" points="408.7,639.7 359.4,615.1 408.7,590.5 		"/>
		<polygon points="310.2,639.7 260.9,615.1 310.2,590.5 		"/>
		<polygon points="310.2,590.5 359.4,615.1 310.2,639.7 		"/>
		<polygon points="211.6,639.7 162.4,615.1 211.6,590.5 		"/>
		<polygon points="211.6,590.5 260.9,615.1 211.6,639.7 		"/>
		<polygon points="359.4,615.1 310.2,590.5 359.4,565.8 		"/>
		<polygon points="359.4,565.8 408.7,590.5 359.4,615.1 		"/>
		<polygon class="st2" points="260.9,615.1 211.6,590.5 260.9,565.8 		"/>
		<polygon points="260.9,565.8 310.2,590.5 260.9,615.1 		"/>
		<polygon points="408.7,590.5 359.4,565.8 408.7,541.2 		"/>
		<polygon class="st2" points="310.2,590.5 260.9,565.8 310.2,541.2 		"/>
		<polygon class="st2" points="310.2,541.2 359.4,565.8 310.2,590.5 		"/>
		<polygon class="st3" points="211.6,590.5 162.4,565.8 211.6,541.2 		"/>
		<polygon points="211.6,541.2 260.9,565.8 211.6,590.5 		"/>
		<polygon class="st2" points="359.4,565.8 310.2,541.2 359.4,516.6 		"/>
		<polygon points="359.4,516.6 408.7,541.2 359.4,565.8 		"/>
		<polygon class="st3" points="260.9,565.8 211.6,541.2 260.9,516.6 		"/>
		<polygon points="260.9,516.6 310.2,541.2 260.9,565.8 		"/>
		<polygon class="st3" points="408.7,541.2 359.4,516.6 408.7,491.9 		"/>
		<polygon class="st3" points="310.2,541.2 260.9,516.6 310.2,491.9 		"/>
		<polygon class="st2" points="310.2,491.9 359.4,516.6 310.2,541.2 		"/>
		<polygon class="st2" points="211.6,541.2 162.4,516.6 211.6,491.9 		"/>
		<polygon points="211.6,491.9 260.9,516.6 211.6,541.2 		"/>
		<polygon points="359.4,516.6 310.2,491.9 359.4,467.3 		"/>
		<polygon points="359.4,467.3 408.7,491.9 359.4,516.6 		"/>
		<polygon points="260.9,516.6 211.6,491.9 260.9,467.3 		"/>
		<polygon class="st3" points="260.9,467.3 310.2,491.9 260.9,516.6 		"/>
		<polygon class="st3" points="408.7,491.9 359.4,467.3 408.7,442.7 		"/>
		<polygon points="310.2,491.9 260.9,467.3 310.2,442.7 		"/>
		<polygon class="st3" points="310.2,442.7 359.4,467.3 310.2,491.9 		"/>
		<polygon points="211.6,491.9 162.4,467.3 211.6,442.7 		"/>
		<polygon class="st3" points="211.6,442.7 260.9,467.3 211.6,491.9 		"/>
		<polygon points="359.4,467.3 310.2,442.7 359.4,418 		"/>
		<polygon points="359.4,418 408.7,442.7 359.4,467.3 		"/>
		<polygon points="260.9,467.3 211.6,442.7 260.9,418 		"/>
		<polygon class="st2" points="260.9,418 310.2,442.7 260.9,467.3 		"/>
		<polygon class="st2" points="408.7,442.7 359.4,418 408.7,393.4 		"/>
		<polygon points="310.2,442.7 260.9,418 310.2,393.4 		"/>
		<polygon points="310.2,393.4 359.4,418 310.2,442.7 		"/>
		<polygon class="st2" points="211.6,442.7 162.4,418 211.6,393.4 		"/>
		<polygon points="211.6,393.4 260.9,418 211.6,442.7 		"/>
		<polygon class="st3" points="359.4,418 310.2,393.4 359.4,368.8 		"/>
		<polygon class="st2" points="359.4,368.8 408.7,393.4 359.4,418 		"/>
		<polygon points="260.9,418 211.6,393.4 260.9,368.8 		"/>
		<polygon points="260.9,368.8 310.2,393.4 260.9,418 		"/>
		<polygon points="408.7,393.4 359.4,368.8 408.7,344.1 		"/>
		<polygon points="310.2,393.4 260.9,368.8 310.2,344.1 		"/>
		<polygon points="310.2,344.1 359.4,368.8 310.2,393.4 		"/>
		<polygon class="st2" points="211.6,393.4 162.4,368.8 211.6,344.1 		"/>
		<polygon class="st3" points="211.6,344.1 260.9,368.8 211.6,393.4 		"/>
		<polygon points="359.4,368.8 310.2,344.1 359.4,319.5 		"/>
		<polygon points="359.4,319.5 408.7,344.1 359.4,368.8 		"/>
		<polygon class="st3" points="260.9,368.8 211.6,344.1 260.9,319.5 		"/>
		<polygon class="st3" points="260.9,319.5 310.2,344.1 260.9,368.8 		"/>
		<polygon class="st3" points="408.7,344.1 359.4,319.5 408.7,294.9 		"/>
		<polygon points="310.2,344.1 260.9,319.5 310.2,294.9 		"/>
		<polygon class="st3" points="310.2,294.9 359.4,319.5 310.2,344.1 		"/>
		<polygon points="211.6,344.1 162.4,319.5 211.6,294.9 		"/>
		<polygon points="211.6,294.9 260.9,319.5 211.6,344.1 		"/>
		<polygon class="st2" points="14.6,294.9 63.8,319.5 14.6,344.1 		"/>
		<polygon class="st3" points="14.6,344.1 -34.7,319.5 14.6,294.9 		"/>
		<polygon class="st3" points="113.1,294.9 162.4,319.5 113.1,344.1 		"/>
		<polygon class="st2" points="113.1,344.1 63.8,319.5 113.1,294.9 		"/>
		<polygon points="-34.7,319.5 14.6,344.1 -34.7,368.8 		"/>
		<polygon class="st3" points="63.8,319.5 113.1,344.1 63.8,368.8 		"/>
		<polygon points="63.8,368.8 14.6,344.1 63.8,319.5 		"/>
		<polygon points="162.4,319.5 211.6,344.1 162.4,368.8 		"/>
		<polygon points="162.4,368.8 113.1,344.1 162.4,319.5 		"/>
		<polygon points="14.6,344.1 63.8,368.8 14.6,393.4 		"/>
		<polygon class="st2" points="14.6,393.4 -34.7,368.8 14.6,344.1 		"/>
		<polygon points="113.1,344.1 162.4,368.8 113.1,393.4 		"/>
		<polygon class="st2" points="113.1,393.4 63.8,368.8 113.1,344.1 		"/>
		<polygon class="st3" points="-34.7,368.8 14.6,393.4 -34.7,418 		"/>
		<polygon class="st2" points="63.8,368.8 113.1,393.4 63.8,418 		"/>
		<polygon points="63.8,418 14.6,393.4 63.8,368.8 		"/>
		<polygon class="st3" points="162.4,368.8 211.6,393.4 162.4,418 		"/>
		<polygon class="st2" points="162.4,418 113.1,393.4 162.4,368.8 		"/>
		<polygon points="14.6,393.4 63.8,418 14.6,442.7 		"/>
		<polygon points="14.6,442.7 -34.7,418 14.6,393.4 		"/>
		<polygon class="st2" points="113.1,393.4 162.4,418 113.1,442.7 		"/>
		<polygon points="113.1,442.7 63.8,418 113.1,393.4 		"/>
		<polygon points="-34.7,418 14.6,442.7 -34.7,467.3 		"/>
		<polygon points="63.8,418 113.1,442.7 63.8,467.3 		"/>
		<polygon points="63.8,467.3 14.6,442.7 63.8,418 		"/>
		<polygon class="st3" points="162.4,418 211.6,442.7 162.4,467.3 		"/>
		<polygon points="162.4,467.3 113.1,442.7 162.4,418 		"/>
		<polygon class="st3" points="14.6,442.7 63.8,467.3 14.6,491.9 		"/>
		<polygon points="14.6,491.9 -34.7,467.3 14.6,442.7 		"/>
		<polygon points="113.1,442.7 162.4,467.3 113.1,491.9 		"/>
		<polygon class="st3" points="113.1,491.9 63.8,467.3 113.1,442.7 		"/>
		<polygon class="st2" points="-34.7,467.3 14.6,491.9 -34.7,516.6 		"/>
		<polygon points="63.8,467.3 113.1,491.9 63.8,516.6 		"/>
		<polygon points="63.8,516.6 14.6,491.9 63.8,467.3 		"/>
		<polygon points="162.4,467.3 211.6,491.9 162.4,516.6 		"/>
		<polygon points="162.4,516.6 113.1,491.9 162.4,467.3 		"/>
		<polygon points="14.6,491.9 63.8,516.6 14.6,541.2 		"/>
		<polygon points="14.6,541.2 -34.7,516.6 14.6,491.9 		"/>
		<polygon class="st2" points="113.1,491.9 162.4,516.6 113.1,541.2 		"/>
		<polygon points="113.1,541.2 63.8,516.6 113.1,491.9 		"/>
		<polygon points="-34.7,516.6 14.6,541.2 -34.7,565.8 		"/>
		<polygon class="st2" points="63.8,516.6 113.1,541.2 63.8,565.8 		"/>
		<polygon class="st2" points="63.8,565.8 14.6,541.2 63.8,516.6 		"/>
		<polygon class="st3" points="162.4,516.6 211.6,541.2 162.4,565.8 		"/>
		<polygon points="162.4,565.8 113.1,541.2 162.4,516.6 		"/>
		<polygon class="st2" points="14.6,541.2 63.8,565.8 14.6,590.5 		"/>
		<polygon points="14.6,590.5 -34.7,565.8 14.6,541.2 		"/>
		<polygon class="st3" points="113.1,541.2 162.4,565.8 113.1,590.5 		"/>
		<polygon points="113.1,590.5 63.8,565.8 113.1,541.2 		"/>
		<polygon class="st3" points="-34.7,565.8 14.6,590.5 -34.7,615.1 		"/>
		<polygon class="st3" points="63.8,565.8 113.1,590.5 63.8,615.1 		"/>
		<polygon class="st2" points="63.8,615.1 14.6,590.5 63.8,565.8 		"/>
		<polygon class="st2" points="162.4,565.8 211.6,590.5 162.4,615.1 		"/>
		<polygon points="162.4,615.1 113.1,590.5 162.4,565.8 		"/>
		<polygon points="14.6,590.5 63.8,615.1 14.6,639.7 		"/>
		<polygon points="14.6,639.7 -34.7,615.1 14.6,590.5 		"/>
		<polygon points="113.1,590.5 162.4,615.1 113.1,639.7 		"/>
		<polygon class="st3" points="113.1,639.7 63.8,615.1 113.1,590.5 		"/>
		<polygon class="st3" points="-34.7,615.1 14.6,639.7 -34.7,664.4 		"/>
		<polygon points="63.8,615.1 113.1,639.7 63.8,664.4 		"/>
		<polygon class="st3" points="63.8,664.4 14.6,639.7 63.8,615.1 		"/>
		<polygon points="162.4,615.1 211.6,639.7 162.4,664.4 		"/>
		<polygon class="st3" points="162.4,664.4 113.1,639.7 162.4,615.1 		"/>
		<polygon points="14.6,639.7 63.8,664.4 14.6,689 		"/>
		<polygon points="14.6,689 -34.7,664.4 14.6,639.7 		"/>
		<polygon points="113.1,639.7 162.4,664.4 113.1,689 		"/>
		<polygon class="st2" points="113.1,689 63.8,664.4 113.1,639.7 		"/>
		<polygon class="st2" points="-34.7,664.4 14.6,689 -34.7,713.6 		"/>
		<polygon points="63.8,664.4 113.1,689 63.8,713.6 		"/>
		<polygon points="63.8,713.6 14.6,689 63.8,664.4 		"/>
		<polygon class="st2" points="162.4,664.4 211.6,689 162.4,713.6 		"/>
		<polygon points="162.4,713.6 113.1,689 162.4,664.4 		"/>
		<polygon class="st3" points="14.6,689 63.8,713.6 14.6,738.3 		"/>
		<polygon class="st2" points="14.6,738.3 -34.7,713.6 14.6,689 		"/>
		<polygon points="113.1,689 162.4,713.6 113.1,738.3 		"/>
		<polygon points="113.1,738.3 63.8,713.6 113.1,689 		"/>
		<polygon points="-34.7,713.6 14.6,738.3 -34.7,762.9 		"/>
		<polygon points="63.8,713.6 113.1,738.3 63.8,762.9 		"/>
		<polygon points="63.8,762.9 14.6,738.3 63.8,713.6 		"/>
		<polygon class="st2" points="162.4,713.6 211.6,738.3 162.4,762.9 		"/>
		<polygon class="st3" points="162.4,762.9 113.1,738.3 162.4,713.6 		"/>
		<polygon points="14.6,738.3 63.8,762.9 14.6,787.5 		"/>
		<polygon points="14.6,787.5 -34.7,762.9 14.6,738.3 		"/>
		<polygon class="st3" points="113.1,738.3 162.4,762.9 113.1,787.5 		"/>
		<polygon class="st3" points="113.1,787.5 63.8,762.9 113.1,738.3 		"/>
		<polygon class="st3" points="-34.7,762.9 14.6,787.5 -34.7,812.2 		"/>
		<polygon points="63.8,762.9 113.1,787.5 63.8,812.2 		"/>
		<polygon class="st3" points="63.8,812.2 14.6,787.5 63.8,762.9 		"/>
		<polygon points="162.4,762.9 211.6,787.5 162.4,812.2 		"/>
		<polygon points="162.4,812.2 113.1,787.5 162.4,762.9 		"/>
	</g>
	<g class="st1">
		<polygon class="st2" points="408.7,1625.8 359.4,1601.2 408.7,1576.5 		"/>
		<polygon points="310.2,1625.8 260.9,1601.2 310.2,1576.5 		"/>
		<polygon points="310.2,1576.5 359.4,1601.2 310.2,1625.8 		"/>
		<polygon points="211.6,1625.8 162.4,1601.2 211.6,1576.5 		"/>
		<polygon points="211.6,1576.5 260.9,1601.2 211.6,1625.8 		"/>
		<polygon points="359.4,1601.2 310.2,1576.5 359.4,1551.9 		"/>
		<polygon points="359.4,1551.9 408.7,1576.5 359.4,1601.2 		"/>
		<polygon class="st2" points="260.9,1601.2 211.6,1576.5 260.9,1551.9 		"/>
		<polygon points="260.9,1551.9 310.2,1576.5 260.9,1601.2 		"/>
		<polygon points="408.7,1576.5 359.4,1551.9 408.7,1527.2 		"/>
		<polygon class="st2" points="310.2,1576.5 260.9,1551.9 310.2,1527.2 		"/>
		<polygon class="st2" points="310.2,1527.2 359.4,1551.9 310.2,1576.5 		"/>
		<polygon class="st3" points="211.6,1576.5 162.4,1551.9 211.6,1527.2 		"/>
		<polygon points="211.6,1527.2 260.9,1551.9 211.6,1576.5 		"/>
		<polygon class="st2" points="359.4,1551.9 310.2,1527.2 359.4,1502.6 		"/>
		<polygon points="359.4,1502.6 408.7,1527.2 359.4,1551.9 		"/>
		<polygon class="st3" points="260.9,1551.9 211.6,1527.2 260.9,1502.6 		"/>
		<polygon points="260.9,1502.6 310.2,1527.2 260.9,1551.9 		"/>
		<polygon class="st3" points="408.7,1527.2 359.4,1502.6 408.7,1478 		"/>
		<polygon class="st3" points="310.2,1527.2 260.9,1502.6 310.2,1478 		"/>
		<polygon class="st2" points="310.2,1478 359.4,1502.6 310.2,1527.2 		"/>
		<polygon class="st2" points="211.6,1527.2 162.4,1502.6 211.6,1478 		"/>
		<polygon points="211.6,1478 260.9,1502.6 211.6,1527.2 		"/>
		<polygon points="359.4,1502.6 310.2,1478 359.4,1453.3 		"/>
		<polygon points="359.4,1453.3 408.7,1478 359.4,1502.6 		"/>
		<polygon points="260.9,1502.6 211.6,1478 260.9,1453.3 		"/>
		<polygon class="st3" points="260.9,1453.3 310.2,1478 260.9,1502.6 		"/>
		<polygon class="st3" points="408.7,1478 359.4,1453.3 408.7,1428.7 		"/>
		<polygon points="310.2,1478 260.9,1453.3 310.2,1428.7 		"/>
		<polygon class="st3" points="310.2,1428.7 359.4,1453.3 310.2,1478 		"/>
		<polygon points="211.6,1478 162.4,1453.3 211.6,1428.7 		"/>
		<polygon class="st3" points="211.6,1428.7 260.9,1453.3 211.6,1478 		"/>
		<polygon points="359.4,1453.3 310.2,1428.7 359.4,1404.1 		"/>
		<polygon points="359.4,1404.1 408.7,1428.7 359.4,1453.3 		"/>
		<polygon points="260.9,1453.3 211.6,1428.7 260.9,1404.1 		"/>
		<polygon class="st2" points="260.9,1404.1 310.2,1428.7 260.9,1453.3 		"/>
		<polygon class="st2" points="408.7,1428.7 359.4,1404.1 408.7,1379.4 		"/>
		<polygon points="310.2,1428.7 260.9,1404.1 310.2,1379.4 		"/>
		<polygon points="310.2,1379.4 359.4,1404.1 310.2,1428.7 		"/>
		<polygon class="st2" points="211.6,1428.7 162.4,1404.1 211.6,1379.4 		"/>
		<polygon points="211.6,1379.4 260.9,1404.1 211.6,1428.7 		"/>
		<polygon class="st3" points="359.4,1404.1 310.2,1379.4 359.4,1354.8 		"/>
		<polygon class="st2" points="359.4,1354.8 408.7,1379.4 359.4,1404.1 		"/>
		<polygon points="260.9,1404.1 211.6,1379.4 260.9,1354.8 		"/>
		<polygon points="260.9,1354.8 310.2,1379.4 260.9,1404.1 		"/>
		<polygon points="408.7,1379.4 359.4,1354.8 408.7,1330.2 		"/>
		<polygon points="310.2,1379.4 260.9,1354.8 310.2,1330.2 		"/>
		<polygon points="310.2,1330.2 359.4,1354.8 310.2,1379.4 		"/>
		<polygon class="st2" points="211.6,1379.4 162.4,1354.8 211.6,1330.2 		"/>
		<polygon class="st3" points="211.6,1330.2 260.9,1354.8 211.6,1379.4 		"/>
		<polygon points="359.4,1354.8 310.2,1330.2 359.4,1305.5 		"/>
		<polygon points="359.4,1305.5 408.7,1330.2 359.4,1354.8 		"/>
		<polygon class="st3" points="260.9,1354.8 211.6,1330.2 260.9,1305.5 		"/>
		<polygon class="st3" points="260.9,1305.5 310.2,1330.2 260.9,1354.8 		"/>
		<polygon class="st3" points="408.7,1330.2 359.4,1305.5 408.7,1280.9 		"/>
		<polygon points="310.2,1330.2 260.9,1305.5 310.2,1280.9 		"/>
		<polygon class="st3" points="310.2,1280.9 359.4,1305.5 310.2,1330.2 		"/>
		<polygon points="211.6,1330.2 162.4,1305.5 211.6,1280.9 		"/>
		<polygon points="211.6,1280.9 260.9,1305.5 211.6,1330.2 		"/>
		<polygon class="st2" points="14.6,1280.9 63.8,1305.5 14.6,1330.2 		"/>
		<polygon class="st3" points="14.6,1330.2 -34.7,1305.5 14.6,1280.9 		"/>
		<polygon class="st3" points="113.1,1280.9 162.4,1305.5 113.1,1330.2 		"/>
		<polygon class="st2" points="113.1,1330.2 63.8,1305.5 113.1,1280.9 		"/>
		<polygon points="-34.7,1305.5 14.6,1330.2 -34.7,1354.8 		"/>
		<polygon class="st3" points="63.8,1305.5 113.1,1330.2 63.8,1354.8 		"/>
		<polygon points="63.8,1354.8 14.6,1330.2 63.8,1305.5 		"/>
		<polygon points="162.4,1305.5 211.6,1330.2 162.4,1354.8 		"/>
		<polygon points="162.4,1354.8 113.1,1330.2 162.4,1305.5 		"/>
		<polygon points="14.6,1330.2 63.8,1354.8 14.6,1379.4 		"/>
		<polygon class="st2" points="14.6,1379.4 -34.7,1354.8 14.6,1330.2 		"/>
		<polygon points="113.1,1330.2 162.4,1354.8 113.1,1379.4 		"/>
		<polygon class="st2" points="113.1,1379.4 63.8,1354.8 113.1,1330.2 		"/>
		<polygon class="st3" points="-34.7,1354.8 14.6,1379.4 -34.7,1404.1 		"/>
		<polygon class="st2" points="63.8,1354.8 113.1,1379.4 63.8,1404.1 		"/>
		<polygon points="63.8,1404.1 14.6,1379.4 63.8,1354.8 		"/>
		<polygon class="st3" points="162.4,1354.8 211.6,1379.4 162.4,1404.1 		"/>
		<polygon class="st2" points="162.4,1404.1 113.1,1379.4 162.4,1354.8 		"/>
		<polygon points="14.6,1379.4 63.8,1404.1 14.6,1428.7 		"/>
		<polygon points="14.6,1428.7 -34.7,1404.1 14.6,1379.4 		"/>
		<polygon class="st2" points="113.1,1379.4 162.4,1404.1 113.1,1428.7 		"/>
		<polygon points="113.1,1428.7 63.8,1404.1 113.1,1379.4 		"/>
		<polygon points="-34.7,1404.1 14.6,1428.7 -34.7,1453.3 		"/>
		<polygon points="63.8,1404.1 113.1,1428.7 63.8,1453.3 		"/>
		<polygon points="63.8,1453.3 14.6,1428.7 63.8,1404.1 		"/>
		<polygon class="st3" points="162.4,1404.1 211.6,1428.7 162.4,1453.3 		"/>
		<polygon points="162.4,1453.3 113.1,1428.7 162.4,1404.1 		"/>
		<polygon class="st3" points="14.6,1428.7 63.8,1453.3 14.6,1478 		"/>
		<polygon points="14.6,1478 -34.7,1453.3 14.6,1428.7 		"/>
		<polygon points="113.1,1428.7 162.4,1453.3 113.1,1478 		"/>
		<polygon class="st3" points="113.1,1478 63.8,1453.3 113.1,1428.7 		"/>
		<polygon class="st2" points="-34.7,1453.3 14.6,1478 -34.7,1502.6 		"/>
		<polygon points="63.8,1453.3 113.1,1478 63.8,1502.6 		"/>
		<polygon points="63.8,1502.6 14.6,1478 63.8,1453.3 		"/>
		<polygon points="162.4,1453.3 211.6,1478 162.4,1502.6 		"/>
		<polygon points="162.4,1502.6 113.1,1478 162.4,1453.3 		"/>
		<polygon points="14.6,1478 63.8,1502.6 14.6,1527.2 		"/>
		<polygon points="14.6,1527.2 -34.7,1502.6 14.6,1478 		"/>
		<polygon class="st2" points="113.1,1478 162.4,1502.6 113.1,1527.2 		"/>
		<polygon points="113.1,1527.2 63.8,1502.6 113.1,1478 		"/>
		<polygon points="-34.7,1502.6 14.6,1527.2 -34.7,1551.9 		"/>
		<polygon class="st2" points="63.8,1502.6 113.1,1527.2 63.8,1551.9 		"/>
		<polygon class="st2" points="63.8,1551.9 14.6,1527.2 63.8,1502.6 		"/>
		<polygon class="st3" points="162.4,1502.6 211.6,1527.2 162.4,1551.9 		"/>
		<polygon points="162.4,1551.9 113.1,1527.2 162.4,1502.6 		"/>
		<polygon class="st2" points="14.6,1527.2 63.8,1551.9 14.6,1576.5 		"/>
		<polygon points="14.6,1576.5 -34.7,1551.9 14.6,1527.2 		"/>
		<polygon class="st3" points="113.1,1527.2 162.4,1551.9 113.1,1576.5 		"/>
		<polygon points="113.1,1576.5 63.8,1551.9 113.1,1527.2 		"/>
		<polygon class="st3" points="-34.7,1551.9 14.6,1576.5 -34.7,1601.2 		"/>
		<polygon class="st3" points="63.8,1551.9 113.1,1576.5 63.8,1601.2 		"/>
		<polygon class="st2" points="63.8,1601.2 14.6,1576.5 63.8,1551.9 		"/>
		<polygon class="st2" points="162.4,1551.9 211.6,1576.5 162.4,1601.2 		"/>
		<polygon points="162.4,1601.2 113.1,1576.5 162.4,1551.9 		"/>
		<polygon points="14.6,1576.5 63.8,1601.2 14.6,1625.8 		"/>
		<polygon points="14.6,1625.8 -34.7,1601.2 14.6,1576.5 		"/>
		<polygon points="113.1,1576.5 162.4,1601.2 113.1,1625.8 		"/>
		<polygon class="st3" points="113.1,1625.8 63.8,1601.2 113.1,1576.5 		"/>
	</g>
</g>
</svg>
