<?xml version="1.0" encoding="utf-8"?>
<!-- Generator: Adobe Illustrator 21.1.0, SVG Export Plug-In . SVG Version: 6.00 Build 0)  -->
<svg version="1.1" id="Layer_1" xmlns="http://www.w3.org/2000/svg" xmlns:xlink="http://www.w3.org/1999/xlink" x="0px" y="0px"
	 viewBox="0 0 1080 1080" enable-background="new 0 0 1080 1080" xml:space="preserve">
<title>WGBH_impact-report_digital_logo-farm_v1</title>
<g opacity="0.75">
	<path fill="#FFFFFF" d="M561.2,510.1L558,492h-24l-3.2,18.1h-45l5.2-19.7c-9.2,15.5-28.4,23.4-59.6,23.4
		c-33.3,0-61.7-13.1-65.6-52.5l-8.9,48.8H310l-13.3-44.6l-12.8,44.6h-47.6l-22.7-114.5l-44.3,43.1L194,564.2h41.1l21.9-21.4
		l5.6,21.4h39.5l21.3-20c0.1,0.1,14.7,23.8,59.2,23.8c42.2,0,57.6-17.8,59.8-20.3l-4.6,16.4h47.9l17.7-18h6.5l3.6,18h80.3l54-54.1
		H561.2z"/>
	<path fill="#FFFFFF" d="M517.4,689.5c-4.1,0-8.2-1.3-11.3-3.2l0.9-5.3c3.3,2.4,6.6,3.6,10.7,3.6c5.2,0,8.4-2.4,8.4-7
		c0-5-3.2-8-10.8-8h-1.8l-0.8-4.9h3c6.5,0,9.6-2.4,9.6-6.9c0-3.5-2.4-6.1-7.4-6.1c-4.1,0-7.5,1.5-10.4,3.9l-0.8-5.1
		c3-2.3,6.5-3.8,11.4-3.8c8.8,0,12.5,5.2,12.5,10.8c0,5.1-3,8-7.2,9.5c5.1,1.5,8,4.7,8,10.4C531.5,684.7,526,689.5,517.4,689.5"/>
	<path fill="#FFFFFF" d="M448.6,664.6c0-7.8-3.7-12.9-9.2-12.9c-4.9,0-8.1,3.1-8.1,8.6c0,5.2,2.5,8.3,8.1,8.3c3.5,0,6.6-1.3,9.3-3.6
		V664.6z M438.2,673.4c-7.6,0-12.2-4.9-12.2-12.9c0-8,5.7-13.6,13.5-13.6c8.3,0,14.2,6,14.2,17.4c0,14.1-9,22.4-21.8,25.3l-0.8-4.9
		c8.1-1.8,14.8-5.9,16.9-14.4C445.2,672.1,441.9,673.4,438.2,673.4"/>
	<polygon fill="#FFFFFF" points="537.6,464.5 554.9,464.5 546.5,418.2 	"/>
	<rect x="231.2" y="681.5" fill="#FFFFFF" width="5.8" height="7.2"/>
	<polygon fill="#FFFFFF" points="247.3,688.7 247.3,653.3 239.1,656.5 238.5,652.1 247.9,647.6 252.5,647.6 252.5,688.7 	"/>
	<polygon fill="#FFFFFF" points="341.4,688.7 341.4,653.3 333.2,656.5 332.7,652.1 342.1,647.6 346.6,647.6 346.6,688.7 	"/>
	<rect x="355.8" y="681.5" fill="#FFFFFF" width="5.8" height="7.2"/>
	<polygon fill="#FFFFFF" points="371.9,688.7 371.9,653.3 363.7,656.5 363.2,652.1 372.6,647.6 377.1,647.6 377.1,688.7 	"/>
	<path fill="#FFFFFF" d="M477.5,653.7l-14.1,21.2h14.1V653.7z M482.3,679.4v9.3h-4.8v-9.3h-19.6v-4l18.2-27.9h6.2v27.4h6.3v4.5
		H482.3z"/>
	<rect x="493.7" y="681.5" fill="#FFFFFF" width="5.8" height="7.2"/>
	<path fill="#FFFFFF" d="M655.9,341.7L633.7,364l-5.8-22.3l-60.2,0l-12.2,12.2c-0.3-0.3-18.8-17-55.5-17
		c-45.5,0-57.5,20.2-59.5,22.6l4.3-17.8h-41.3l-21.5,21.5l-5.2-21.6H337L315.3,363l-4.6-21.2h-41.8L215,394.3h41.2l9.6,42.9
		l10.8-42.6h42.2l9.8,41.9L339,394h39l-4.4,24c10.9-18.1,31.9-27.5,59.1-27.5c44.6,0,63.2,19.7,64.8,51.2h-51.3
		c-0.5-14.6-2.3-23.7-11.9-23.7c-9.2,0-13.7,6.1-13.7,35.8c0,27.1,4.6,32.6,13,32.6c8.9,0,11.4-6.7,12.6-21.8h51.3
		c0,0.4,18.7-70.3,18.7-70.3l59.6,0.1l28.7,110.6V394.1h44.2v115.1l51.9-51.9l0-115.8L655.9,341.7z"/>
	<path fill="#FFFFFF" d="M184.6,664.6c0-7.8-3.7-12.9-9.2-12.9c-4.9,0-8.1,3.1-8.1,8.6c0,5.2,2.5,8.3,8.1,8.3c3.5,0,6.6-1.3,9.3-3.6
		V664.6z M174.2,673.4c-7.6,0-12.2-4.9-12.2-12.9c0-8,5.7-13.6,13.5-13.6c8.3,0,14.2,6,14.2,17.4c0,14.1-9,22.4-21.8,25.3l-0.8-4.9
		c8.1-1.8,14.8-5.9,16.9-14.4C181.2,672.1,177.9,673.4,174.2,673.4"/>
	<path fill="#FFFFFF" d="M210.6,651.7c-6,0-9.7,5.8-9.7,16.5c0,10.7,3.7,16.5,9.7,16.5s9.6-5.8,9.6-16.5
		C220.2,657.5,216.6,651.7,210.6,651.7 M210.6,689.5c-9,0-15-7.7-15-21.3c0-13.6,6-21.3,15-21.3c9,0,15,7.7,15,21.3
		C225.6,681.8,219.5,689.5,210.6,689.5"/>
	<path fill="#FFFFFF" d="M195,627.3l-0.8-5.4c-3.3,2.4-7.2,4.1-11.6,4.1c-8.3,0-13.4-6.3-13.4-16.3c0-10,5-16.3,13.4-16.3
		c4.4,0,8,1.7,11,4l0.8-5.8c-3.2-2.2-6.8-3.4-11.8-3.4c-11.7,0-19.3,8.7-19.3,21.5c0,12.8,7.5,21.4,19.1,21.4
		C187.2,631.3,191.8,629.6,195,627.3 M224.3,630.5v-20c0-6.4-3.4-9.2-10.3-9.2c-4.4,0-7.7,1-11.1,2.4l0.7,4.6
		c3.1-1.4,6.4-2.5,9.9-2.5c3.3,0,5.5,1.3,5.5,4.9v1.2c-11.9,1.3-18.1,4.1-18.1,11.2c0,4.9,3.2,8,8.4,8c4.7,0,7.8-2.1,10.1-4.4
		l0.6,3.8H224.3z M219,622.7c-2.4,2.5-5.4,4-8.5,4c-2.7,0-4.3-1.5-4.3-3.8c0-2.9,2.2-5.8,12.8-6.8V622.7z M257.8,615.4
		c0-9.5-5.1-14.1-11.3-14.1c-4.2,0-7.1,2.2-9.3,4.7l-0.7-4.1h-4.3v39.8l5.3-0.8v-11.3c1.8,0.7,4.4,1.3,7.2,1.3
		C251.8,630.9,257.8,625.9,257.8,615.4 M252.4,615.7c0,7.1-3.3,10.7-7.8,10.7c-3.1,0-4.8-0.5-7-1.6v-13.7c2.3-3.1,4.8-5,8-5
		C249.6,606,252.4,609.4,252.4,615.7 M287.4,627.3l-0.8-4.8c-3.1,2.5-6.1,4.1-10.3,4.1c-5,0-8.2-3.1-8.3-9.8h19.4v-1.1
		c0-7.9-3.8-14.3-12.2-14.3c-7.2,0-12.6,5.6-12.6,14.8c0,10.5,5.8,15,13.3,15C280.7,631.1,284.3,629.7,287.4,627.3 M275.2,605.5
		c4.1,0,6.2,2.6,6.8,7.3h-13.8C269.1,607.9,271.9,605.5,275.2,605.5 M328.5,630.5v-20c0-6.4-3.4-9.2-10.3-9.2c-4.4,0-7.7,1-11.1,2.4
		l0.7,4.6c3.1-1.4,6.4-2.5,9.9-2.5c3.3,0,5.5,1.3,5.5,4.9v1.2c-11.9,1.3-18.1,4.1-18.1,11.2c0,4.9,3.2,8,8.4,8
		c4.7,0,7.8-2.1,10.1-4.4l0.6,3.8H328.5z M323.2,622.7c-2.4,2.5-5.4,4-8.5,4c-2.7,0-4.3-1.5-4.3-3.8c0-2.9,2.2-5.8,12.8-6.8V622.7z
		 M359.9,630.5v-20.8c0-5.2-2.9-8.4-8.3-8.4c-4.1,0-7.4,2.3-10.1,4.7l-0.7-4.1h-4.3v28.6h5.3v-19.8c2.6-2.8,5.5-4.6,8.3-4.6
		c3.1,0,4.4,2,4.4,4.9v19.5H359.9z M391.7,630.5v-43.3l-5.3,0.8v14.8c-1.8-0.7-4.4-1.3-7.2-1.3c-7,0-13,5-13,15.5
		c0,9.6,5.1,14.1,11.3,14.1c4.2,0,7.1-2.2,9.3-4.7l0.7,4.1H391.7z M386.4,621.4c-2.3,3.1-4.8,5-8.1,5c-3.8,0-6.7-3.3-6.7-9.6
		c0-7.1,3.2-10.8,7.7-10.8c3.1,0,4.8,0.5,7,1.6V621.4z M413.9,630.5h5.6v-41.4h-5.6V630.5z M448.8,622.6c0-5.5-3.2-7.5-10.3-9.3
		c-4.5-1.1-5.9-2.2-5.9-4.1c0-2,1.7-3.3,4.9-3.3c3,0,6.2,1,8.7,2.5l0.8-5c-2.7-1.2-5.9-1.9-9.4-1.9c-6.2,0-10.1,3.4-10.1,7.9
		c0,5.1,2.7,7.1,9.4,8.8c5.2,1.3,6.8,2.2,6.8,4.9c0,2.4-2.2,3.8-5.8,3.8c-3.9,0-7.4-1.4-10.1-3.3l-0.8,5c2.5,1.4,6.7,2.7,10.4,2.7
		C444.9,631.1,448.8,627.8,448.8,622.6 M460.8,630.5v-43.3l-5.3,0.8v42.5H460.8z M491,630.5v-20c0-6.4-3.4-9.2-10.3-9.2
		c-4.5,0-7.7,1-11.1,2.4l0.7,4.6c3.1-1.4,6.4-2.5,9.9-2.5c3.3,0,5.5,1.3,5.5,4.9v1.2c-11.9,1.3-18.1,4.1-18.1,11.2
		c0,4.9,3.2,8,8.4,8c4.7,0,7.8-2.1,10.1-4.4l0.6,3.8H491z M485.6,622.7c-2.4,2.5-5.4,4-8.5,4c-2.7,0-4.3-1.5-4.3-3.8
		c0-2.9,2.2-5.8,12.8-6.8V622.7z M522.3,630.5v-20.8c0-5.2-2.9-8.4-8.3-8.4c-4.1,0-7.4,2.3-10.1,4.7l-0.7-4.1h-4.3v28.6h5.3v-19.8
		c2.6-2.8,5.5-4.6,8.3-4.6c3.1,0,4.4,2,4.4,4.9v19.5H522.3z M554.2,630.5v-43.3l-5.3,0.8v14.8c-1.8-0.7-4.4-1.3-7.2-1.3
		c-7,0-13,5-13,15.5c0,9.6,5.1,14.1,11.3,14.1c4.2,0,7.2-2.2,9.3-4.7l0.7,4.1H554.2z M548.8,621.4c-2.3,3.1-4.8,5-8.1,5
		c-3.8,0-6.7-3.3-6.7-9.6c0-7.1,3.2-10.8,7.7-10.8c3.1,0,4.8,0.5,7,1.6V621.4z M582.3,622.6c0-5.5-3.2-7.5-10.3-9.3
		c-4.5-1.1-5.9-2.2-5.9-4.1c0-2,1.7-3.3,4.9-3.3c3,0,6.2,1,8.7,2.5l0.8-5c-2.7-1.2-5.9-1.9-9.4-1.9c-6.3,0-10.1,3.4-10.1,7.9
		c0,5.1,2.7,7.1,9.4,8.8c5.2,1.3,6.8,2.2,6.8,4.9c0,2.4-2.2,3.8-5.8,3.8c-3.9,0-7.4-1.4-10.1-3.3l-0.8,5c2.5,1.4,6.7,2.7,10.4,2.7
		C578.4,631.1,582.3,627.8,582.3,622.6 M634.4,630.5v-41.4h-5.2v31l-22-31h-5v41.4h5.2v-32.2l22.7,32.2H634.4z M669.1,601.1
		c0-7.7-5.3-11.9-14-11.9h-11v41.4h5.6v-16.8h4.4C663.1,613.7,669.1,609.5,669.1,601.1 M663.4,601.3c0,5.2-3.4,7.5-9,7.5h-4.7v-14.7
		h5C660.4,594.1,663.4,596.5,663.4,601.3 M704.2,629.7l-12.3-17.3c5.4-1.4,9.1-5.2,9.1-11.5c0-7.6-5.3-11.8-13.8-11.8H676v41.4h5.6
		v-17.5h4.3l12.7,17.9L704.2,629.7z M695.4,601.2c0,4.7-3.5,7.1-9,7.1h-4.8v-14.2h5.4C692.5,594.1,695.4,596.7,695.4,601.2
		 M729.5,593.7c0-6.8-4.5-11.3-11-11.3c-6.5,0-11,4.6-11,11.3c0,6.7,4.5,11.3,11,11.3C724.9,604.9,729.5,600.4,729.5,593.7
		 M728,593.7c0,6.3-4.2,9.9-9.5,9.9c-5.2,0-9.4-3.6-9.4-9.9c0-6.4,4.2-10,9.5-10C723.8,583.7,728,587.3,728,593.7 M724,599.2
		l-3.6-5.1c1.6-0.5,2.5-1.7,2.5-3.5c0-2.3-1.8-3.6-4.4-3.6h-3.7v12.5h2.1v-5.1h1.2l3.7,5.3L724,599.2z M720.7,590.8
		c0,1.3-0.9,1.8-2.3,1.8h-1.6V589h1.6C719.9,589,720.7,589.6,720.7,590.8 M772.7,619.4c0-6.2-2.8-9-10.8-12.7
		c-6.3-2.9-7.9-4.4-7.9-7.6c0-3.1,2.1-5.6,6.8-5.6c3.3,0,6.4,1.3,8.7,3.1l0.9-5.6c-2.4-1.4-5.4-2.3-9.4-2.3
		c-7.5,0-12.6,4.3-12.6,10.9c0,5.9,2.9,8.5,10.7,12.1c6.2,2.8,7.9,4.4,7.9,8.2c0,4-3.1,6.3-7.4,6.3c-4.1,0-8.1-1.7-10.9-3.5
		l-0.8,5.8c3.1,1.6,7.1,2.7,11.6,2.7C767.4,631,772.7,626.5,772.7,619.4 M793.3,630.7l-0.7-4.6c-0.7,0.1-1.5,0.2-2.5,0.2
		c-3,0-4-1.4-4-3.8v-16.1h6.9l-0.7-4.5h-6.2v-10.3l-5.2,0.8v9.5h-4.3v4.5h4.3v17.1c0,5.8,3.3,7.6,8.3,7.6
		C791.1,631,792.4,630.8,793.3,630.7 M821.1,630.5v-20c0-6.4-3.4-9.2-10.3-9.2c-4.4,0-7.7,1-11.1,2.4l0.7,4.6
		c3.1-1.4,6.4-2.5,9.9-2.5c3.3,0,5.5,1.3,5.5,4.9v1.2c-11.9,1.3-18.1,4.1-18.1,11.2c0,4.9,3.2,8,8.4,8c4.7,0,7.8-2.1,10.1-4.4
		l0.6,3.8H821.1z M815.8,622.7c-2.4,2.5-5.4,4-8.5,4c-2.7,0-4.3-1.5-4.3-3.8c0-2.9,2.2-5.8,12.8-6.8V622.7z M842.8,630.7l-0.7-4.6
		c-0.7,0.1-1.5,0.2-2.5,0.2c-3,0-4-1.4-4-3.8v-16.1h6.9l-0.7-4.5h-6.2v-10.3l-5.2,0.8v9.5h-4.3v4.5h4.3v17.1c0,5.8,3.3,7.6,8.3,7.6
		C840.7,631,841.9,630.8,842.8,630.7 M855.5,592.8c0-1.9-1.5-3.4-3.4-3.4c-1.9,0-3.4,1.6-3.4,3.4c0,1.9,1.6,3.4,3.4,3.4
		C854,596.1,855.5,594.6,855.5,592.8 M849.4,630.5h5.3v-28.6h-5.3V630.5z M888.2,616.3c0-9.4-5.6-14.9-13.3-14.9
		c-7.6,0-13.1,5.5-13.1,14.9c0,9.4,5.5,14.9,13.1,14.9C882.5,631.1,888.2,625.7,888.2,616.3 M882.8,616.3c0,6-2.6,10.4-7.9,10.4
		c-5,0-7.7-4.6-7.7-10.4c0-6,2.6-10.4,7.7-10.4C880,605.8,882.8,610.4,882.8,616.3 M918,630.5v-20.8c0-5.2-2.9-8.4-8.3-8.4
		c-4.1,0-7.4,2.3-10.1,4.7l-0.7-4.1h-4.3v28.6h5.4v-19.8c2.6-2.8,5.5-4.6,8.3-4.6c3.1,0,4.4,2,4.4,4.9v19.5H918z"/>
	<path fill="#FFFFFF" d="M323.4,664.6c0-7.8-3.7-12.9-9.2-12.9c-4.9,0-8.1,3.1-8.1,8.6c0,5.2,2.5,8.3,8.1,8.3c3.5,0,6.6-1.3,9.3-3.6
		V664.6z M313,673.4c-7.6,0-12.2-4.9-12.2-12.9c0-8,5.7-13.6,13.5-13.6c8.2,0,14.2,6,14.2,17.4c0,14.1-9,22.4-21.8,25.3l-0.8-4.9
		c8.1-1.8,14.8-5.9,16.9-14.4C320,672.1,316.7,673.4,313,673.4"/>
	<path fill="#FFFFFF" d="M162.5,742.5h4l3.3-8.7h11.9l3.4,9l3.8-0.8l-11.1-28.5h-3.9L162.5,742.5z M175.7,718.1l4.7,12.3h-9.3
		L175.7,718.1z M216.2,736.9c0-3.8-2.2-5.2-7.2-6.5c-3.2-0.8-4.1-1.5-4.1-2.9c0-1.4,1.2-2.3,3.4-2.3c2.1,0,4.3,0.7,6.1,1.7l0.6-3.5
		c-1.9-0.8-4.1-1.3-6.6-1.3c-4.4,0-7,2.3-7,5.5c0,3.6,1.9,5,6.6,6.2c3.6,0.9,4.7,1.5,4.7,3.4c0,1.7-1.5,2.6-4.1,2.6
		c-2.7,0-5.1-1-7-2.3L201,741c1.7,1,4.6,1.9,7.3,1.9C213.5,742.9,216.2,740.6,216.2,736.9 M236.9,740.2l-0.5-3.4
		c-2.2,1.7-4.3,2.9-7.2,2.9c-3.5,0-5.7-2.2-5.8-6.8h13.6v-0.8c0-5.5-2.7-10-8.5-10c-5,0-8.8,3.9-8.8,10.3c0,7.3,4.1,10.5,9.3,10.5
		C232.2,742.9,234.7,741.9,236.9,740.2 M228.4,725c2.9,0,4.3,1.8,4.8,5.1h-9.6C224.1,726.7,226.1,725,228.4,725 M252.8,725.7
		l-0.6-3.6c-3.3,0.2-5.6,2.2-7,4.5l-0.6-4.1h-3v20h3.7v-11.8C246.7,728.1,249.5,725.8,252.8,725.7 M272.5,722.5h-3.8l-5,15.5
		l-5.2-15.8l-3.7,0.6l7.1,19.8h3.6L272.5,722.5z M280.9,716.2c0-1.3-1-2.4-2.3-2.4c-1.3,0-2.4,1.1-2.4,2.4c0,1.3,1.1,2.3,2.4,2.3
		C279.9,718.5,280.9,717.5,280.9,716.2 M276.7,742.5h3.7v-20h-3.7V742.5z M301.7,740.8l-0.5-3.4c-2.1,1.8-3.8,2.2-5.8,2.2
		c-3.5,0-6-2.3-6-7.2c0-4.6,2.3-7.1,5.6-7.1c2.3,0,4.2,0.7,6,2.2l0.5-3.6c-1.5-1.1-3.6-1.8-6.5-1.8c-5.2,0-9.4,3.6-9.4,10.4
		c0,6.7,3.9,10.4,9.3,10.4C297.6,742.9,299.7,742.3,301.7,740.8 M322.1,740.2l-0.5-3.4c-2.2,1.7-4.3,2.9-7.2,2.9
		c-3.5,0-5.7-2.2-5.8-6.8h13.6v-0.8c0-5.5-2.7-10-8.5-10c-5,0-8.8,3.9-8.8,10.3c0,7.3,4.1,10.5,9.3,10.5
		C317.4,742.9,320,741.9,322.1,740.2 M313.6,725c2.9,0,4.3,1.8,4.8,5.1h-9.6C309.4,726.7,311.3,725,313.6,725 M353.5,732.5
		c0-6.6-3.9-10.4-9.3-10.4c-5.3,0-9.2,3.9-9.2,10.4c0,6.6,3.9,10.4,9.2,10.4C349.5,742.9,353.5,739.1,353.5,732.5 M349.7,732.5
		c0,4.2-1.8,7.3-5.5,7.3c-3.5,0-5.4-3.2-5.4-7.3c0-4.2,1.8-7.3,5.4-7.3C347.8,725.2,349.7,728.4,349.7,732.5 M367.7,716.1l-0.5-3.4
		c-0.5,0-1-0.1-1.6-0.1c-3.6,0-6.2,1.5-6.2,5.5v4.4h-3v3.1h3v16.8h3.6v-16.8h4.5l-0.5-3.1h-4v-4c0-1.8,1-2.6,2.8-2.6
		C366.5,715.9,367.3,716,367.7,716.1 M418.5,713.6h-7.1l-4.1,18.1l-4.7-18.1h-7.2l-4.7,18.1l-4.4-18.4l-7.7,1.2l7.6,28h7.2l5-18.6
		l5,18.6h7.2L418.5,713.6z M444.6,740v-14.1h-12.1l0.8,5.3h5v5.1c-1.2,0.6-2.3,0.9-3.9,0.9c-5,0-7.5-3.8-7.5-9.3
		c0-5.4,2.4-9.1,7.4-9.1c3,0,5.5,1.1,7.7,2.5l1-6.2c-2.3-1.3-5.3-2.1-8.8-2.1c-8.9,0-14.4,6.1-14.4,15c0,8.9,5.1,15,14.2,15
		C438,743.1,441.5,742,444.6,740 M470.1,734.2c0-3.9-2.1-5.9-5.2-7c2.3-1,4.2-3,4.2-6.1c0-4.7-3.3-7.5-9.9-7.5h-9.8v28.9h9.7
		C465.9,742.5,470.1,739.7,470.1,734.2 M462.7,721.9c0,2.1-1.4,3.4-4.1,3.4h-2.4v-6.5h2.6C461.5,718.8,462.7,720,462.7,721.9
		 M463.4,733.7c0,2.5-1.7,3.7-4.6,3.7h-2.6v-7.5h2.6C461.8,729.9,463.4,731.2,463.4,733.7 M498.6,742.5v-28.9h-7.2v10.8h-10v-10.8
		h-7.2v28.9h7.2v-11.8h10v11.8H498.6z"/>
</g>
</svg>
