<svg id="Layer_1" data-name="Layer 1" xmlns="http://www.w3.org/2000/svg" viewBox="0 0 1080 1080"><defs><style>.cls-1{opacity:0.75;}.cls-2{fill:#fff;}</style></defs><title>WGBH_impact-report_digital_logo-farm_v1</title><g class="cls-1"><path class="cls-2" d="M614.24,436.85c0-7.79-4.2-16.2-18.07-16.2H578.26v32.87h17.29c11.37,0,18.69-6.08,18.69-16.67m170.33-29.91H803L763.55,457.1v56.07H748.29V456.94l-39.4-50h18.37l28.51,36.61Zm-115,92.53h48v13.71H654.3V406.95h15.26Zm-34.9,173.82H620.13l-78.92-90.85v90.85H525.29v-118h13.51l80,91.37V555.25h15.92ZM630,437.48c0,16.66-11.21,29.75-35.82,29.75H578.26v45.94H563V407h33.18c23.21,0,33.8,13.7,33.8,30.53m-104.65,75.7H510v-82.7h-.31L477,471.59h-2.49l-32.71-41.12h-.31v82.7H426.25V407h14.32l35.2,43.61L511.14,407h14.17ZM391.85,673.29h-17v-91.9h-.36l-36.34,45.7h-2.77l-36.34-45.7h-.35v91.9h-17v-118h15.93l39.11,48.45,39.29-48.45h15.74Zm-4.39-160.11H372.2V407h15.26Zm-93.59-81.3c0,20.41,45.95,20.1,45.95,53.89,0,16.67-12.61,28.82-29.74,28.82-11.53,0-20.87-3.11-29.75-9.81V485.47c7.78,10,17.6,15.42,28,15.42,11.84,0,17.29-7.48,17.29-13.4,0-22-45.95-24.46-45.95-53.57,0-17.3,12.78-28.35,32.24-28.35A42.48,42.48,0,0,1,335.62,413v17.29c-9-8.56-17.76-11.05-24.93-11-9.8,0-16.82,5.14-16.82,12.61M449.72,555.26h17v118h-17ZM677.92,615c0-34.78,27.35-61.26,63.34-61.26,13.84,0,23.53,2.25,42.06,10v17.13c-13.85-7.61-28.21-11.59-42.4-11.59-25.61,0-45.51,19.56-45.51,45.17,0,26.31,19.72,44.82,47.76,44.82,9.17,0,17.48-2.08,25.61-4.67V630.36H746.11V615.12h39.64v50c-15.76,6.93-28.56,9.69-45,9.69-36.17,0-62.83-25.26-62.83-59.88M884,540c0-190-154-344-344-344S196,350,196,540,350,884,540,884,884,730,884,540"/></g></svg>