<svg id="Layer_1" data-name="Layer 1" xmlns="http://www.w3.org/2000/svg" viewBox="0 0 1080 1080"><defs><style>.cls-1{opacity:0.75;}.cls-2,.cls-3{fill:#fff;}.cls-3{fill-rule:evenodd;}</style></defs><title>WGBH_impact-report_digital_logo-farm_v1</title><g class="cls-1"><path class="cls-2" d="M350,334.78h29.39c7.24,0,12.93,2,16.55,5.61a14.5,14.5,0,0,1,4.35,10.76v.18c0,7.15-3.8,11.13-8.32,13.66,7.33,2.81,11.85,7.06,11.85,15.56v.18c0,11.58-9.41,17.37-23.69,17.37H350.05Zm26.41,25.6c6.15,0,10-2,10-6.69v-.18c0-4.16-3.25-6.51-9.14-6.51H363.62v13.39Zm3.71,25.51c6.14,0,9.85-2.17,9.85-6.88v-.18c0-4.25-3.17-6.87-10.31-6.87h-16.1v13.93Z"/><path class="cls-2" d="M412.59,366.62v-.18c0-18,14.2-32.75,33.74-32.75s33.56,14.56,33.56,32.56v.18c0,18-14.2,32.75-33.74,32.75S412.59,384.62,412.59,366.62Zm52.74,0v-.18c0-10.85-8-19.9-19.18-19.9s-19,8.87-19,19.72v.18c0,10.86,8,19.9,19.18,19.9S465.32,377.47,465.32,366.61Z"/><path class="cls-2" d="M487.53,388.87l8.23-9.86c5.7,4.71,11.67,7.69,18.91,7.69,5.69,0,9.14-2.26,9.14-6v-.18c0-3.53-2.18-5.34-12.76-8-12.76-3.25-21-6.78-21-19.36V353c0-11.49,9.23-19.08,22.17-19.09a36.65,36.65,0,0,1,23.51,8l-7.23,10.49c-5.61-3.89-11.12-6.24-16.46-6.24s-8.14,2.44-8.14,5.52v.18c0,4.16,2.71,5.52,13.65,8.32,12.85,3.35,20.08,8,20.08,19v.18c0,12.57-9.59,19.63-23.24,19.63A40.31,40.31,0,0,1,487.53,388.87Z"/><path class="cls-2" d="M563.2,347.61H543.93V334.77h52.46v12.84H577.13v50.47H563.2Z"/><path class="cls-2" d="M601.57,366.61v-.18c0-18,14.2-32.75,33.75-32.75s33.56,14.56,33.56,32.56v.18c0,18-14.2,32.75-33.74,32.75S601.58,384.61,601.57,366.61Zm52.74,0v-.18c0-10.85-8-19.9-19.17-19.9s-19,8.87-19,19.72v.18c0,10.86,8,19.9,19.18,19.9S654.31,377.46,654.31,366.6Z"/><path class="cls-2" d="M681.31,334.76h12.84l29.67,39v-39h13.74v63.32H725.73l-30.67-40.25v40.25H681.31Z"/><path class="cls-2" d="M350.05,405.32h29.84c17.42,0,28,10.33,28,25.25v.21c0,16.91-13.15,25.67-29.53,25.67H366.12v21.91H350.06Zm28.8,36.84c8,0,12.74-4.8,12.74-11.06v-.21c0-7.2-5-11.06-13.05-11.06H366.12v22.33Z"/><path class="cls-2" d="M418.65,447.06V405.32h16.07v41.33c0,11.89,6,18.05,15.76,18.05s15.76-5.95,15.76-17.53V405.31H482.3v41.22c0,22.12-12.41,33-32,33S418.65,468.55,418.65,447.06Z"/><path class="cls-2" d="M498.73,405.31h33.91c8.35,0,14.92,2.3,19.09,6.47a16.72,16.72,0,0,1,5,12.42v.21c0,8.25-4.38,12.83-9.6,15.76,8.45,3.24,13.67,8.14,13.67,17.95v.21c0,13.36-10.85,20-27.34,20H498.73Zm30.47,29.53c7.09,0,11.58-2.29,11.58-7.72v-.21c0-4.8-3.76-7.52-10.54-7.51H514.38v15.44Zm4.28,29.43c7.09,0,11.37-2.5,11.37-7.94v-.21c0-4.9-3.65-7.93-11.9-7.93H514.38v16.07Z"/><path class="cls-2" d="M574.11,405.31h16.07v58.44H626.6v14.61H574.12Z"/><path class="cls-2" d="M639.47,405.3h16.07v73H639.47Z"/><path class="cls-2" d="M670.59,442v-.21c0-20.76,15.65-37.78,38.08-37.78,13.78,0,22,4.59,28.8,11.27l-10.23,11.79c-5.62-5.11-11.37-8.25-18.67-8.25-12.31,0-21.18,10.23-21.18,22.75v.21c0,12.53,8.66,23,21.19,23,8.35,0,13.46-3.34,19.2-8.56L738,466.55c-7.51,8-15.86,13-30,13C686.56,479.6,670.59,463,670.59,442Z"/><path class="cls-2" d="M350.06,486.47H387.2c10.32,0,18.33,2.9,23.67,8.24,4.53,4.53,7,10.91,7,18.57v.23c0,13.12-7.09,21.36-17.41,25.19l19.85,29H399.38l-17.41-26h-14v26H350.06Zm36,39.46c8.7,0,13.69-4.64,13.69-11.49v-.23c0-7.66-5.34-11.61-14-11.61H367.93v23.33Z"/><path class="cls-2" d="M461.86,485.88h16.48l34.83,81.82H494.48l-7.43-18.22H452.7l-7.43,18.22H427.05Zm18.8,47.82-10.79-26.34L459.08,533.7Z"/><path class="cls-2" d="M525.75,486.46h31.69c25.53,0,43.17,17.52,43.17,40.39v.23c0,22.86-17.63,40.62-43.17,40.62H525.75Zm31.69,65.11c14.63,0,24.48-9.87,24.48-24.26v-.23c0-14.39-9.86-24.49-24.48-24.49H543.61v49Z"/><path class="cls-2" d="M617.37,486.46h17.88V567.7H617.37Z"/><path class="cls-2" d="M652,527.31v-.23c0-23.1,18.22-42,43.29-42s43.06,18.68,43.06,41.78v.23c0,23.1-18.22,42-43.29,42S652,550.4,652,527.31Zm67.67,0v-.23c0-13.92-10.22-25.54-24.61-25.54s-24.37,11.38-24.37,25.31v.23c0,13.93,10.22,25.53,24.61,25.53S719.64,541.24,719.64,527.31Z"/><path class="cls-3" d="M226.05,288.05c-8.9,3.27-17.91,6.37-26.43,10.49-18.66,9-34.83,21.3-47,38.36-12.65,17.71-17.74,37.57-14.86,58.95,3.05,22.64,15.17,40,34.29,52.44,11.17,7.24,23.35,11.43,36.87,11S233.85,449,236,436.09c1.38-8.21-2.33-13.45-10.29-15.83a130.86,130.86,0,0,1-20.31-7.45c-22.73-11.16-31.18-32.45-26.59-55.92,2.63-13.48,9.77-24.36,19.73-33.53,9.67-8.9,20.77-15.7,32.45-21.6,2-1,3.92-2.08,6.18-3.28-1.14-2.51-2.09-4.69-3.13-6.84l-2.16-5.5S227.84,287.4,226.05,288.05Z"/><path class="cls-3" d="M319.59,288c-8.9,3.27-17.91,6.37-26.43,10.49-18.66,9-34.83,21.3-47,38.36-12.65,17.71-17.74,37.57-14.86,58.95,3.05,22.64,15.17,40,34.29,52.44,11.17,7.24,23.35,11.43,36.87,11s24.94-10.32,27.11-23.19c1.38-8.21-2.33-13.45-10.29-15.83A130.92,130.92,0,0,1,299,412.8c-22.73-11.16-31.18-32.45-26.59-55.92,2.63-13.48,9.77-24.36,19.73-33.53,9.67-8.9,20.77-15.7,32.45-21.6,2-1,3.92-2.08,6.18-3.28-1.14-2.51-2.09-4.69-3.13-6.84l-2.15-5.5S321.38,287.39,319.59,288Z"/><path class="cls-3" d="M853.72,590.3c8.9-3.27,17.91-6.37,26.43-10.48,18.66-9,34.83-21.3,47-38.36,12.65-17.71,17.74-37.57,14.86-58.95-3-22.64-15.17-40-34.29-52.44-11.16-7.24-23.35-11.43-36.87-11s-24.94,10.32-27.11,23.19c-1.38,8.21,2.33,13.45,10.29,15.83a130.81,130.81,0,0,1,20.31,7.46C897.09,476.7,905.54,498,901,521.47c-2.63,13.48-9.77,24.36-19.73,33.53-9.67,8.91-20.77,15.7-32.45,21.6-2,1-3.92,2.07-6.18,3.28,1.14,2.51,2.09,4.69,3.13,6.84l2.15,5.5S851.93,591,853.72,590.3Z"/><path class="cls-3" d="M760.19,590.3c8.9-3.27,17.91-6.37,26.43-10.48,18.66-9,34.83-21.3,47-38.36,12.65-17.71,17.74-37.57,14.86-58.95-3.05-22.64-15.17-40-34.29-52.44-11.17-7.24-23.35-11.43-36.87-11s-24.94,10.32-27.11,23.19c-1.38,8.21,2.33,13.45,10.29,15.83a130.74,130.74,0,0,1,20.31,7.46C803.56,476.71,812,498,807.42,521.47c-2.63,13.48-9.77,24.36-19.73,33.53-9.67,8.91-20.77,15.7-32.45,21.6-2,1-3.92,2.07-6.18,3.28,1.14,2.51,2.09,4.69,3.13,6.84l2.15,5.5S758.4,591,760.19,590.3Z"/><path class="cls-2" d="M835.21,792.89v-48.7h-8.68v31.9l-21.88-31.9h-8.82v48.7h8.68V759.37l22.94,33.52Zm-64.36-20H757.58l6.64-18.77Zm16.58,18.77L769.57,744h-9.94l-18.27,48.9h9.24L755,780.54h18.42l4.65,12.85Zm-53.7-2.83V765.66H714.18l1.13,7.48h9.88v10.8a16.46,16.46,0,0,1-8.19,2c-9.8,0-14.75-6.92-14.75-17.36s4.8-17.29,14.32-17.3A22.69,22.69,0,0,1,730,755.84l1.34-8.68a27.81,27.81,0,0,0-14.81-3.89c-14.82,0-23.78,10.24-23.78,25.34s8.46,25.2,23.92,25.2a31.76,31.76,0,0,0,17.08-4.95m-62.17-15.94H658.29l6.64-18.77Zm16.58,18.77L670.29,744h-10l-18.27,48.9h9.24l4.45-12.35h18.42l4.66,12.85Zm-51.72,1.2V785H616.65V771.59h16l-1.27-8H616.65V752.11H635.7V744.2h-28.3v48.7Zm-53.78-48.7h-10L560.7,765.73l-12.35-22-9.74,1.54,17,29.08V792.9H565V774.27Zm-58.58,28.31c6-2.19,9.74-6.64,9.74-13.69,0-9.46-6.56-14.62-17.44-14.62h-15.1v48.7h9.32V774.27h4.24l12.7,19.13,9.53-1.77Zm.56-13.2c0,5.08-3.59,7.84-9.38,7.84h-4.73V751.69h5.15c5.86,0,9,2.75,9,7.62M492,792.9V785H472.19V771.59h16l-1.27-8H472.19V752.12h19.05v-7.91H463v48.7Zm-40.3-4V765.67H432.11l1.13,7.48h9.88v10.8a16.42,16.42,0,0,1-8.18,2c-9.81,0-14.76-6.92-14.76-17.36s4.8-17.29,14.32-17.3a22.73,22.73,0,0,1,13.42,4.59l1.34-8.68a27.88,27.88,0,0,0-14.82-3.89c-14.82,0-23.78,10.24-23.78,25.34s8.46,25.2,23.92,25.2a31.76,31.76,0,0,0,17.08-4.95m-59.28-16.36c6-2.19,9.74-6.64,9.74-13.69,0-9.46-6.56-14.62-17.42-14.62h-15.1v48.7h9.32V774.28h4.23l12.7,19.13,9.53-1.77Zm.56-13.2c0,5.08-3.59,7.84-9.38,7.84h-4.73V751.69H384c5.86,0,9,2.75,9,7.62m-48.33,13.63H331.34L338,754.17Zm16.58,18.77L343.34,744h-10l-18.27,48.9h9.24l4.45-12.35h18.42l4.66,12.85Zm-53.07,1.2-3.74-48.7H292.74L280.45,781,268.1,744.22H256.25l-3.73,48.7h8.4l2.46-35.57,12.35,35.71h8.19l12.27-35.71,2.61,35.57Z"/><path class="cls-2" d="M865.41,697.69a11.73,11.73,0,0,1-9,4.3c-4.93,0-8.18-3-8.18-7.19,0-3.39,2.19-6.36,6.14-8.62Zm19.69,9.38L875,696.2a45.36,45.36,0,0,0,4.87-15.1l-7.42-1.62a44.88,44.88,0,0,1-2.68,10.94L858.07,678c-2.69-2.83-3.89-4.73-3.89-7.14,0-2.74,1.83-4.79,5.44-4.79,3.38,0,7,1.41,10.72,3.67l1.34-8.12a26.41,26.41,0,0,0-12.56-3c-8.68,0-13.76,5.09-13.76,12,0,4.45,1.48,7.28,4.45,10.59-6.21,3.25-10.37,7.76-10.37,14.68,0,8.4,6.14,13.19,16.1,13.19A19.34,19.34,0,0,0,870,702.76l5.71,5.86Zm-68.88,1.14v-7.91H796.46V686.89h16l-1.27-8H796.46V667.41h19.05v-7.9h-28.3v48.7Zm-48.84-24.35c0,11.43-6.14,16.66-16.38,16.66h-5.93v-33.3h6.07c9.74,0,16.24,5.43,16.24,16.65m9.52-.07c0-14.33-8.75-24.28-25.68-24.28H735.76v48.7h15.46c16.58,0,25.68-10,25.68-24.42m-52.64,5.37V659.51h-9.39v29.57c0,7.48-3.45,11.85-10.37,11.85s-10.22-4.65-10.22-12.07V659.51H685v29.85c0,12.71,7.69,19.69,19.48,19.69s19.83-7,19.83-19.9m-62.45-.91H648.55l6.63-18.77ZM678.4,707l-17.86-47.7h-10l-18.27,48.92h9.25L646,695.87h18.42l4.65,12.84Zm-63.23-19.19c6-2.18,9.74-6.63,9.74-13.69,0-9.46-6.56-14.61-17.44-14.61h-15.1v48.7h9.32V689.59h4.24l12.7,19.12,9.53-1.76Zm.56-13.19c0,5.08-3.59,7.84-9.38,7.84h-4.73V667h5.15c5.86,0,9,2.75,9,7.62M574,693.74c0,4.88-3.45,7.34-9.39,7.34h-5V686.2h4.87c6.22,0,9.53,2.61,9.53,7.55m-1.7-20.81c0,4.17-2.89,6.64-8.4,6.64h-4.31V666.65h4.73c5.65,0,8,2.41,8,6.28M583,694c0-6.5-3.6-10-9-11.72,4.24-1.76,7.06-5.07,7.06-10.16,0-7.69-5.23-12.63-16.16-12.63H550.66v48.7h14c11.43,0,18.35-4.59,18.35-14.19m-59.84,14.19-3.75-48.7H507.76l-12.28,36.77-12.35-36.77H471.27l-3.73,48.7h8.4l2.46-35.57,12.35,35.71h8.19l12.27-35.71,2.61,35.57Zm-66.62-48.7h-9.38v48.7h9.38Zm-21.38,35.29V659.53h-9.32v34.08c0,5.23-2.61,7.2-6.91,7.2a19.28,19.28,0,0,1-5.58-.7l1.27,8.12a35.44,35.44,0,0,0,5.57.49c8.76,0,15-4,15-13.89m-47.07,13.41v-48.7h-9.38v19.19H358V659.53h-9.38v48.7H358V687h20.68v21.18Zm-47.85-40.58-1.34-8.12H301.06v8.12h14.47v40.58h9.39V667.65Zm-48.41-8.12h-9.38v48.7h9.38Zm-18.49,0h-9.38L255,693.91l-10.16-34.37H235.5l-10.16,34.37L216.16,659l-9.74,1.77,13.63,47.42h8.82l10.79-35.43,10.8,35.43h8.9Z"/></g></svg>