<svg id="Layer_1" data-name="Layer 1" xmlns="http://www.w3.org/2000/svg" viewBox="0 0 1080 1080"><defs><style>.cls-1{opacity:0.75;}.cls-2{fill:#fff;}</style></defs><title>WGBH_impact-report_digital_logo-farm_v1</title><g class="cls-1"><path class="cls-2" d="M378.36,466A151.88,151.88,0,1,1,530.24,617.92,151.89,151.89,0,0,1,378.36,466m242.83,3.52H638l-37.86-86.4H575.31l38,86.4H596v22.91c0,13.9-5.76,19.84-24.63,19.59V556.3H596V512.06h8.11a17.06,17.06,0,0,0,17.07-17Zm-119.14-86.4c-38,0-69.24,26.54-69.24,65.9,0,33.08,19.92,56.71,49.65,61.22v46h61.88V512.06h8.6c10-1,16.82-7.62,16.94-16.92V469.56h16.85l-38.36-86.4Zm33.37,75.73a16.75,16.75,0,1,0-16.74-16.74,16.76,16.76,0,0,0,16.74,16.74"/><path class="cls-2" d="M112.06,698.68h9.81c8.37,0,12.93-5.21,12.93-11.63,0-6.66-4.8-11.65-12.93-11.65h-9.81ZM97.32,675.43H87.14V662.82H120.8c18.28,0,28.74,9.43,28.74,24.24,0,15.09-10.95,24.27-28.24,24.27-1.45,0-9.23,0-9.23,0V730.5H124v12.67H87V730.5H97.32Z"/><path class="cls-2" d="M178.64,695h8.8c6.63,0,11.1-3.92,11.1-9.82s-4.42-9.75-11.1-9.75h-8.8Zm0,35.51H188c7.74,0,13-4.26,13-11.45,0-6.08-4.08-11.38-13-11.38h-9.38Zm-14.73-55.07h-9.25v-12.6H187c20,0,26.38,12,26.38,20.7a17.55,17.55,0,0,1-9.7,16.15,21.1,21.1,0,0,1,12.61,19c0,17.5-13.75,24.55-26.9,24.55H153.6V730.5h10.31Z"/><path class="cls-2" d="M264.27,675.4a27.25,27.25,0,0,0-9.54-1.94c-9.85,0-13,5.7-13,10.16,0,5.82,3.76,7.53,8.43,8.78l8.53,2.41c10.46,2.95,22,6.83,22,23.37,0,15.18-9.14,26.24-29.35,26.24A70.35,70.35,0,0,1,225.89,740v-21.1h14.83v10.49c3.75,1.71,7.82,2.05,12,2.05,8.74,0,12.6-4.68,12.6-10.72,0-4.11-2-7.07-11.58-9.8l-7.82-2.29c-14.62-4.22-19.59-10.61-19.59-22.93,0-12.66,7.92-23.83,28-23.83,8.62,0,17.26,1.59,23.35,4.21v19h-13.4Z"/><path class="cls-2" d="M966.63,685v2.38h3.61v9.75h2.63v-9.75h3.63V685Zm22.63,0-3.18,8.54L982.87,685h-3.74v12.13h2.63v-8.84l.14,0,3.3,8.81h1.71l3.32-8.86h.16v8.86H993V685Z"/><polygon class="cls-2" points="357.2 743.18 319.43 743.18 319.43 662.41 335.23 662.41 335.23 729.11 360.12 729.11 357.2 743.18"/><path class="cls-2" d="M392.19,697.15c-1.06-2.44-2.79-4-5.69-4-5,0-7.32,3.61-7.44,13.37h14.3c0-4-.24-7.21-1.17-9.41m-13.14,20.46v1a18.59,18.59,0,0,0,1.75,8.84,8.77,8.77,0,0,0,8.13,4.76c4.65,0,8.84-2.1,13.15-5.93l6.27,10c-6.39,5.82-12.9,8.25-20.34,8.25-16,0-25.1-11.26-25.1-31,0-10.23,2.07-18,6.38-23.59,4.08-5.23,9.88-7.78,16.86-7.79s12,2.2,15.68,6.15c5,5.47,7,13.72,7,26.15v3.14Z"/><path class="cls-2" d="M441.93,717.38a2.57,2.57,0,0,0-.81-.12c-8.25,0-10.93,3-10.93,8.14,0,4.29,2,6.85,5.7,6.85a7.12,7.12,0,0,0,6-3.6ZM452.5,745.5a13.92,13.92,0,0,1-6.63-6.5,18.22,18.22,0,0,1-13.48,5.69c-12.78,0-17.43-8.83-17.43-18.83,0-11.74,9-19.75,24.06-19.75a29.86,29.86,0,0,1,3,.11v-4.42c0-2.78-.12-4.76-1.17-5.92a4.75,4.75,0,0,0-4.07-1.63c-5.82,0-11,2.68-15.23,6.39l-5.8-10.46c6.61-4.65,14.75-8,23-8,9.29,0,15.8,3.6,17.78,10.46.81,2.79.94,5.46.94,10.11l-.23,21.74c0,5.22.7,8.71,4.07,11Z"/><path class="cls-2" d="M498.4,698a8,8,0,0,0-4.53-1.4c-3.72,0-7.21,2.8-7.21,6.27v40.34H471.21V700.52a67.61,67.61,0,0,0-1.74-15.34l14.3-2.91a23.31,23.31,0,0,1,1.27,6.86v.58c2.1-4.18,6.16-7.78,11.51-7.78a12.38,12.38,0,0,1,5.81,1.51Z"/><path class="cls-2" d="M536.53,743.17V703.31c0-3.84-.46-5.46-1.39-6.51s-2.21-1.16-3.73-1.16c-2,0-4.88,1.27-7.55,4.19v43.35H508.4V700.51a68.56,68.56,0,0,0-1.74-15.35L521,682.27a23.42,23.42,0,0,1,1.39,6.51c3.26-3.72,9.42-6.39,15.35-6.39,4.65,0,8.25,1.51,10.58,4,2.67,2.79,3.72,7.09,3.72,11.16v45.67Z"/><path class="cls-2" d="M564.19,743.17V684.36l15.57-1.74v60.55Zm7.55-66.24A9.42,9.42,0,1,1,572,658.1a9.43,9.43,0,0,1,9.4,9.41,9.58,9.58,0,0,1-9.64,9.41"/><path class="cls-2" d="M622.88,743.17V703.3c0-3.84-.46-5.46-1.39-6.51s-2.21-1.16-3.72-1.16c-2,0-4.88,1.27-7.55,4.19v43.35H594.76V700.51A68.1,68.1,0,0,0,593,685.16l14.3-2.89a24.3,24.3,0,0,1,1.4,6.51c3.25-3.72,9.41-6.39,15.34-6.39,4.65,0,8.25,1.51,10.57,4,2.67,2.79,3.73,7.09,3.73,11.16v45.67Z"/><path class="cls-2" d="M668.79,693.65c-5.12,0-7,3.95-7,8.6s1.85,8.48,7,8.48,6.86-4.07,6.86-8.6-1.62-8.48-6.86-8.48m22.66,1.74a17.88,17.88,0,0,1-2.44-.23c1.28,2.33,2.67,5.35,2.67,8,0,14.06-11.26,18.82-23.6,18.82-1.27,0-2.43,0-3.71-.11a8.39,8.39,0,0,0-1.51,3c0,2.1,3.83,2.1,5.22,2.1,3.15,0,6.4.23,9.54.23,9.75,0,17.32,6.15,17.32,16.27,0,15.92-11.86,22.08-26.39,22.08-9.76,0-23.48-3-23.48-15.23a36.21,36.21,0,0,1,.7-7.2H660a29.54,29.54,0,0,0-.34,4.53c0,5.46,5.22,6.27,9.64,6.27,5.11,0,10.11-2.09,10.11-7.9,0-6.16-5.11-6.51-10-6.51-3,0-6.15-.12-9.17-.12-7,0-12.32-2.91-12.32-10.46,0-4.76,3.36-8.26,7.55-10.11-6.85-3.25-9.18-9.06-9.18-16.27,0-13.72,10.58-20.11,23.25-20.11a24.73,24.73,0,0,1,7.66,1.28c1.74.57,3.61,1.62,5.46,1.62,2.91,0,7.32-.46,10-1.74l4.54,9.65a10.11,10.11,0,0,1-5.7,2.09"/><path class="cls-2" d="M762,743.16l-2.09-43c-.24-5.34-.47-16-.47-16.27-.12.47-2,11-2.91,15.24l-9.87,44H732.13l-8.61-42.3c-1-5.24-3-14.3-3.13-16.51,0,.8,0,12.19-.23,16.73l-2,42.07H702l6.14-80.77h21l8.36,43.23c.93,4.77,1.75,10.93,2.32,15.57.58-4.42,1.4-10.34,2.45-15.46l8.83-43.35h20.57l5.92,80.77Z"/><path class="cls-2" d="M813.36,697.13a5.8,5.8,0,0,0-5.69-4c-5,0-7.32,3.61-7.44,13.37h14.3c0-4-.23-7.21-1.17-9.41m-13.13,20.46v1a18.63,18.63,0,0,0,1.74,8.84,8.78,8.78,0,0,0,8.14,4.76c4.64,0,8.83-2.1,13.14-5.93l6.27,10c-6.39,5.82-12.9,8.25-20.34,8.25-16,0-25.09-11.26-25.1-31,0-10.23,2.09-18,6.38-23.59,4.08-5.23,9.89-7.78,16.86-7.79s12,2.2,15.69,6.15c5,5.47,7,13.72,7,26.15v3.14Z"/><path class="cls-2" d="M866.58,697.83c-.92-1.86-3.13-2.91-5.69-2.91-6.86,0-7.66,9-7.66,18.82,0,7.33.45,17.44,7.44,17.44,2.56,0,5-1.16,5.91-3.13Zm3.15,45.33a14.61,14.61,0,0,1-.93-4.3,13.25,13.25,0,0,1-11.26,5.58c-13.37,0-20.93-11.16-20.93-30.1,0-15.46,6.17-32.07,22-32.08a13.61,13.61,0,0,1,8.6,3.26,86.6,86.6,0,0,1-.59-9.19v-17.9L882,660.75v66.82c0,6.41.23,11.63,1,15.58Z"/><path class="cls-2" d="M894.26,743.16V684.34l15.57-1.74v60.55Zm7.55-66.24a9.42,9.42,0,1,1,.22-18.83,9.44,9.44,0,0,1,9.42,9.41,9.58,9.58,0,0,1-9.64,9.41"/><path class="cls-2" d="M944.22,717.35a2.53,2.53,0,0,0-.81-.12c-8.25,0-10.92,3-10.92,8.14,0,4.29,2,6.85,5.69,6.85a7.09,7.09,0,0,0,6-3.6Zm10.58,28.12a13.89,13.89,0,0,1-6.63-6.5,18.24,18.24,0,0,1-13.49,5.69c-12.78,0-17.43-8.83-17.43-18.83,0-11.74,9-19.75,24.06-19.75a29.71,29.71,0,0,1,3,.11v-4.42c0-2.78-.12-4.76-1.16-5.92a4.76,4.76,0,0,0-4.06-1.63c-5.82,0-11,2.68-15.23,6.39l-5.8-10.46c6.61-4.65,14.76-8,23-8,9.3,0,15.8,3.6,17.79,10.46.8,2.79.93,5.46.93,10.11l-.24,21.74c0,5.22.71,8.71,4.07,11Z"/></g></svg>