<?xml version="1.0" encoding="utf-8"?>
<!-- Generator: Adobe Illustrator 21.0.2, SVG Export Plug-In . SVG Version: 6.00 Build 0)  -->
<svg version="1.1" id="Layer_1" xmlns="http://www.w3.org/2000/svg" xmlns:xlink="http://www.w3.org/1999/xlink" x="0px" y="0px"
	 viewBox="0 0 1080 1080" style="enable-background:new 0 0 1080 1080;" xml:space="preserve">
<style type="text/css">
	.st0{opacity:0.75;}
	.st1{fill:#FFFFFF;}
</style>
<title>WGBH_impact-report_digital_logo-farm_v1</title>
<g class="st0">
	<path class="st1" d="M642,556.7l20,0.6l-1.2,39.5l0.4,0c2.1-3.4,4.3-6.5,6.4-9.6l21.2-29.1l24.8,0.8L682.9,596l29.6,52.2l-23.6-0.7
		l-20.7-39.2l-8,9.2l-0.9,29.2l-20-0.6L642,556.7z"/>
	<path class="st1" d="M724.5,638.4l-5.4-64.6l20.1-1.7l5.4,64.6L724.5,638.4z M738.3,554.1c0.5,5.5-3.4,10.4-10,11
		c-6.3,0.5-11-3.6-11.3-9.2c-0.6-5.8,3.2-10.5,9.7-11.1C733.2,544.2,737.7,548.3,738.3,554.1"/>
	<path class="st1" d="M799.8,622.6c0.2-1,0.3-2.5,0.3-3.6c-0.3-5.5-3.9-10.7-10.1-11.7c-9-1.4-15,5.9-16.6,16
		c-1.7,10.9,2.6,18.5,10.8,19.9c5.8,0.9,11-2.3,13-7.7c0.6-1.4,1-2.8,1.3-4.5L799.8,622.6z M828.6,569.7l-11.8,73.9
		c-1.1,7.2-2.1,14.8-2.5,19.2l-17.7-2.8l0.6-9.6l-0.3,0c-5.2,6.6-13.5,9-21.8,7.7c-15.2-2.4-25.3-17.3-22.2-37.2
		c3.3-21.6,18.8-31.9,34.1-29.5c7.9,1.3,13.6,5,15.7,9.9l0.3,0l5.5-34.7L828.6,569.7z"/>
	<path class="st1" d="M837.1,617.1c3.7,2.3,11.4,5,17.3,5.1c6.1,0.1,8.6-2,8.7-5.4c0-3.3-2-4.9-9.5-7.5c-13.4-4.6-18.5-12-18.2-19.7
		c0.1-12.1,10.5-21.1,26.6-21c7.6,0.1,14.3,1.9,18.3,3.9l-3.7,13.9c-2.9-1.6-8.5-3.8-14-3.8c-4.9,0-7.7,1.9-7.7,5.2
		c0,3,2.5,4.7,10.4,7.5c12.3,4.4,17.4,10.6,17.5,20.2c-0.1,12.1-9.7,20.9-28.3,20.7c-8.5-0.1-16-2-20.9-4.7L837.1,617.1z"/>
	<path class="st1" d="M446.6,417.5c-5.9,0.4-11.7,1.6-17.3,3.7c-6.9,2.6-12.8,6.7-18.5,11.2c-0.7,0.5-1.2,1.4-2.6,1.2
		c1-4.3,2-8.4,3-12.7c-0.7-0.1-1.2-0.2-1.6-0.2c-2.9,0-5.8,0-8.7,0c-6.6,0-13.3,0-19.9,0c-1.3,0-2.1,0.6-2.9,1.4
		c-4.6,4.6-9.1,9.2-13.7,13.7c-0.5,0.5-1.1,0.9-1.9,1.5c-1.4-5.7-2.7-11.1-4-16.6h-2.9c-8.3,0-16.6,0.1-24.9,0
		c-2.2,0-3.8,0.7-5.3,2.2c-4.3,4.4-8.7,8.6-13,12.9c-0.5,0.4-1,0.8-1.7,1.4c-1.3-5.6-2.4-10.8-3.6-16.1h-3.5c-2.4,0-4.9,0-7.3,0
		c-6.4,0-12.8,0-19.3-0.1c-2.5,0-4.3,0.7-6,2.5c-14.6,14.5-29.3,28.9-44,43.4c-9.4,9.2-18.7,18.5-28.1,27.7
		c-1.5,1.5-1.8,2.8-1.4,4.8c2.2,10.8,4.3,21.7,6.5,32.5c1.8,9,3.6,17.9,5.3,26.9c1.6,7.9,3.1,15.9,4.7,23.8
		c0.7,3.6,1.5,7.2,2.3,10.8c0.6,0.1,1,0.2,1.4,0.2c9.7,0,19.5,0,29.2,0c1.4,0,2.4-0.6,3.3-1.5c3-3,6.1-6,9.2-9
		c1.9-1.8,3.8-3.6,6-5.8c1.5,5.6,2.9,10.7,4.2,15.8c0.7,0.1,1.2,0.2,1.7,0.2c9.4,0,18.7,0,28,0c1.3,0,2.2-0.4,3-1.2
		c2.9-2.8,5.8-5.5,8.8-8.2c2.3-2.1,4.6-4.2,7-6.5c0.7,0.9,1.3,1.6,1.9,2.3c1.3,1.4,2.5,2.9,3.9,4.2c6.3,5.7,13.9,8.5,22,10.3
		c6,1.3,12.2,1.9,18.3,1.9h0.3c1.3,0,2.6,0,3.8-0.1c16.1-0.6,31.3-4.1,45.3-12.2c0.4-0.2,1-0.3,1.8-0.6v10.1c1,0.1,1.7,0.1,2.5,0.1
		c10.9,0,21.7,0,32.6,0c8.7,0,17.4,0.1,26,0c9.7-0.1,18.1-3.1,24.7-10.6c1.2-1.4,2.4-2.7,3.7-4c0.2,0.1,0.4,0.2,0.6,0.2v14.4
		c1.3,0,2.2,0,3.1,0c10.2,0,20.4-0.2,30.6,0c3.1,0.1,5.2-1,7.2-3c4-4.1,8.1-8,12.3-12c0.6-0.5,1.3-0.9,2.2-1.6
		c0.1,5.8,0.2,11.1,0.3,16.6c1.4,0,2.5,0,3.5,0c10.5,0,21-0.1,31.5,0c2.2,0,3.7-0.7,5.2-2.2c5.7-5.8,11.6-11.6,17.4-17.3
		c5.6-5.5,11.2-10.9,16.8-16.3c11.4-11.1,22.7-22.3,34-33.5c3.6-3.6,7.1-7.2,10.7-10.8v-92.2c-10.1,0-20.2,0-30.3-0.2
		c-2.5,0-4.3,0.8-6,2.6c-4.1,4.3-8.3,8.4-12.5,12.6c-0.4,0.4-1,0.7-2,1.4v-16.5c-1.3-0.1-2.2-0.2-3.2-0.2c-2.7,0-5.5,0-8.2,0
		c-6.4,0-12.8,0-19.3-0.1c-2.9-0.1-4.8,0.9-6.7,2.9c-4.5,4.6-9.1,8.9-13.7,13.4c-0.4,0.4-1,0.6-1.6,1c-0.2-1.2-0.2-2-0.4-2.9
		c-1.3-7.6-6.6-12.8-14.3-13.9c-2-0.3-4-0.4-6-0.4c-14.7,0-29.4,0-44-0.1c-3,0-5.2,0.7-7.2,3c-2.4,2.8-5.3,5.2-8,7.8
		c-0.5,0.4-1,0.8-1.6,1.3c-0.9-0.8-1.6-1.5-2.4-2.2c-6-5.7-13-9.6-21.1-11.5c-5.8-1.4-11.6-1.9-17.5-1.9
		C451.8,417.2,449.2,417.3,446.6,417.5 M360.5,478.2c3.2-3.8,6.3-7.6,10.4-10.5c6-4.3,12.9-6.5,20.1-7.6c10.5-1.5,21.1-1.6,31.6,0
		c9.4,1.4,18.4,4.1,26.2,10c1.8,1.3,3.4,2.9,5.5,4.7v-13c1.3,0,2.2,0,3.2,0c20,0,40.1-0.1,60.1,0c5.9,0,11.8,0.6,17.3,3.2
		c4.1,2,7.2,5,9.2,9c0.5,0.9,1,1.8,1.9,2.6c0.1-4.9,0.1-9.8,0.2-14.8h38.5c0.2,5.3,0.1,10.6,0.1,15.9c0,5.2,0,10.5,0,15.6
		c2.3,0.8,14.5,0.9,18.3,0.2v-31.3c2.2-0.7,34.4-0.9,37.3-0.2v89.3h-37.2v-31.4h-18.4v31c-2.2,0.7-33.4,1-38.5,0.3
		c-0.1-4.1-0.1-8.3-0.2-12.5c-0.2,0-0.3,0-0.5-0.1c-0.3,0.5-0.7,1.1-1,1.6c-3,5.5-7.8,8.6-13.7,9.9c-3.4,0.7-7,1.3-10.5,1.3
		c-21,0.1-42,0.1-63,0.1c-0.9,0-1.9-0.1-3.1-0.2v-8.1c-1,0.4-1.6,0.6-2.2,0.9c-7.7,4.2-15.8,7.1-24.3,8.9
		c-11.4,2.3-22.9,2.7-34.4,0.6c-7.8-1.4-15.1-4-21.7-8.4c-8.7-5.8-14.3-13.8-17.1-23.8c-0.4-1.5-0.8-2.9-1.4-4.4
		c-3,11.3-4.8,22.9-7.5,34.4h-36.4c-3.4-11.2-6.7-22.2-10.1-33.2c-2.6,5.4-3.8,11.1-5.6,16.6c-1.7,5.5-3.3,11.1-4.9,16.7h-36.9
		c-6.1-29.8-11.8-59.6-17.9-89.3c2.1-0.7,27.4-0.9,33.2-0.3c2.4,10.6,4.8,21.4,7.3,32.1c0.2,0,0.4,0,0.6,0.1
		c2.7-10.7,5.4-21.3,8.2-32h32.8c2.5,10.4,4.9,20.8,7.4,31.1c0.2,0,0.4,0,0.6,0.1c1.7-5.1,2.6-10.3,4.1-15.5
		c1.4-5.1,2.6-10.3,3.9-15.9c7.2-0.1,14.4-0.1,21.6-0.1c2.8,0,5.7,0,8.5,0c-1.1,5.9-2.1,11.5-3.1,17.1c0.1,0.1,0.3,0.2,0.4,0.2
		C359.8,478.8,360.2,478.5,360.5,478.2 M406.7,479.9c-5.5,0.7-8.5,4.4-8.5,10c-0.1,12-0.1,24-0.1,36c0,4.3,2.8,7.9,6.9,9.1
		c3.4,1,6.8,0.8,10.1-0.3c2.8-0.9,4.8-2.8,5-5.7c0.3-3.9,0.1-7.8,0.1-12H409c-0.1-6-0.1-11.7,0-17.6h45.4c0-3.4,0.3-6.6-0.1-10h-33
		c-0.2-1.3-0.3-2.3-0.6-3.2c-0.9-3.1-2.8-5.3-5.9-6c-1.7-0.3-3.4-0.5-5.1-0.5C408.6,479.7,407.7,479.8,406.7,479.9 M492.1,481.3
		c-0.7,0-1.4,0.2-2.3,0.3v14.8c4.9,0.3,9.5,0.6,14.1,0c2.1-0.3,4-1.3,5.2-3.2c2.8-4.6,0.1-10.8-5.3-11.7c-0.7-0.1-1.5-0.1-2.3-0.1
		c-1.4,0-2.9,0-4.3,0C495.6,481.3,493.8,481.3,492.1,481.3 M532,506.8c2.9,1.5,5.8,2.6,8.1,4.5c2.3,1.8,3.9,4.4,5.7,6.6
		c0.5-2.5,0.5-18.5-0.2-20.9C542.3,502,537.8,505.2,532,506.8 M490,517.4v15.3c4.9,0,9.5,0.2,14.2-0.1c3.9-0.2,6.6-3.5,6.5-7.3
		c-0.1-4.9-2.3-7.3-6.4-7.8c-1.8-0.2-3.7-0.3-5.6-0.3C495.9,517.3,492.9,517.4,490,517.4"/>
</g>
</svg>
