<svg id="Layer_1" data-name="Layer 1" xmlns="http://www.w3.org/2000/svg" viewBox="0 0 1080 1080"><defs><style>.cls-1{opacity:0.75;}.cls-2{fill:#929497;}.cls-3{fill:#fff;}</style></defs><title>WGBH_impact-report_digital_logo-farm_v1</title><g class="cls-1"><path class="cls-2" d="M507.54,733.69c-.4-.59-.78-.82-1-.8-1.1.06-2.07,2.57-4.27,2.7a2.21,2.21,0,0,1-.87-.07c-2.49-.47-3.09-2.41-5.18-2.3-1,.06-2.41.76-4.78,2.49-3.77,2.92-5.82,6-5.67,10.67l0,.87c.23,6,3,11,11,11.44.48,0,1,.06,1.48,0,5-.29,8.43-3.31,11-8.14a13.86,13.86,0,0,0,1.53-7.61,18,18,0,0,0-3.24-9.29"/><path class="cls-2" d="M672.71,754.37c-2.08.12-4.73-1-5.36-3.27a56,56,0,0,1-2.06-12.19c-.38-6.63.25-12.7-.13-19.44a55.51,55.51,0,0,0-1.76-11.36,190.43,190.43,0,0,0-8.07-24.66,4.94,4.94,0,0,1-.31-1.21c-.18-3.07,3.76-5,7.2-5.22,2.7-.15,5.22.68,5.48,3.13.57,5.63,4.66,19.2,6.26,31.79.62,4.51,1,8.44,1.18,12.12.54,9.2.23,16.85.38,28,.09,1.48-1.22,2.16-2.83,2.25m-19.18,6.78a2.24,2.24,0,0,1-1.63-.53c-7.85-5.94-10.54-12.07-13.54-21.39-.9-2.9-2.44-3.92-3.79-3.84a5.14,5.14,0,0,0-3.46,2c-6.67,8.14-11.4,13.46-20.56,19.4a18.5,18.5,0,0,1-8.68,3.21c-7.48.43-12.4-5.93-12.78-12.44a12,12,0,0,1,1.58-6.86c6.84-11.6,16.36-17.44,26-22.68a20.16,20.16,0,0,1,7.84-2.67,7.56,7.56,0,0,1,5.4,1.66c1.42,1.15,2.56,2,3.67,1.88s1.93-.72,3.17-2.52a3.42,3.42,0,0,1,2.5-1.5c2.2-.13,4.65,1.7,5.76,3.73,4.43,8.62.49,29.91,12.21,32.55,1,.2,1.41,1,1.48,2.14.15,2.83-2.4,7.64-5.23,7.81m-74.81-16.4c-3.39,13.86-14.31,18.68-26.91,24.69a16.78,16.78,0,0,1-6.19,1.59c-3.19.17-6-.77-6.12-3.72a4.41,4.41,0,0,1,0-1.35c.72-4.61.62-10.5,5.27-10.9l.25,0c4-.35,2.33,6.27,5.39,6.09a4.06,4.06,0,0,0,1.81-.59c7.91-4,14.29-6.37,17.14-14.78a16.61,16.61,0,0,0,1.12-6.22c-.22-3.68-2.61-6.75-9.82-8.06a12.89,12.89,0,0,0-3.09-.2c-5,.29-9.64,3.64-11,8.15-1.56,5.14-1.26,8.2-5.67,12.88a8.68,8.68,0,0,1-5.26,2.64c-2.22.13-4-1-4.18-4.2,0-.12,0-.36,0-.61.06-3.45.15-6.16,0-8.74-.29-4.91-1.27-9.16-3.66-16.41s-4.2-11.09-10.29-16.16a4.39,4.39,0,0,1-1.66-3.35c-.21-3.56,3.37-7.71,6-7.86a2,2,0,0,1,1.77.76c4.63,5.53,11.51,16,14.33,26.52.45,1.45.94,3.51,2.54,3.42a4.74,4.74,0,0,0,3-1.77c4-3.92,8.39-6.27,13.17-6.55a18.49,18.49,0,0,1,7.46,1.18c8.55,3.2,14.82,9.25,15.3,17.59a21.14,21.14,0,0,1-.65,5.94m-61.3.2c-1.92,11.55-9.06,22.19-20,22.81a25.22,25.22,0,0,1-3.09-.07c-10-1.14-18.08-10.28-18.42-18.53l0-.36c-.38-9,4.07-15,11.4-20.24,4.37-3.08,6.88-4.46,10.24-8.35a8.63,8.63,0,0,1,6.08-3.43,6.26,6.26,0,0,1,6.13,3.83c2.7,6.5,7.48,12.39,7.91,19.86a17.58,17.58,0,0,1-.24,4.46m-56.87,21.6c-2.09.13-4.73-.95-5.36-3.25a56.16,56.16,0,0,1-2.06-12.2c-.38-6.63.25-12.69-.13-19.44a55.57,55.57,0,0,0-1.77-11.36,188.43,188.43,0,0,0-8.06-24.66,5.62,5.62,0,0,1-.32-1.21c-.17-3.07,3.79-5,7.21-5.22,2.7-.15,5.21.68,5.47,3.13.58,5.64,4.68,19.2,6.26,31.79.64,4.51,1,8.44,1.19,12.12.53,9.2.23,16.85.38,28,.08,1.48-1.24,2.16-2.83,2.25m-20.44-8.91C432.5,768.9,424.5,775.39,411.6,776l-.74,0c-16.58.83-34.49-8.85-36.27-22.54,0-.61-.06-1.1-.09-1.72-1-17.67,16.09-39.34,37.43-51.4a18.26,18.26,0,0,1,8.11-2.44c4.17-.23,8.07,1.14,10,4.11a5,5,0,0,1,.74,2.18,5.27,5.27,0,0,1-4.63,5.18,2,2,0,0,1-2.2-2.08c-.08-1.36-1.45-1.77-2.93-1.69a7,7,0,0,0-2.31.5c-12.87,5.41-20.56,10.91-29,22.35-4.92,6.57-7.11,13.22-6.76,19.36.37,6.38,3.53,12.11,9.32,16.46A21.59,21.59,0,0,0,407.14,769c5.15-.3,10.46-2.21,15.85-5,5.14-2.64,13.49-9.4,13.26-13.32-.07-1.35-1-2.29-3.11-2.78a32.48,32.48,0,0,0-9.79-.91c-2.33.13-4.77.52-7.7.94l-.61,0a4.83,4.83,0,0,1-5.3-4.26c-.1-2,1.38-3.89,5.18-4.11,2.83-.16,5.39-.43,7.85-.58,5.89-.34,11,0,16.47,3.87a8.06,8.06,0,0,1,3.2,6.34,13.94,13.94,0,0,1-2.34,8.39M696.49,652.3l-13.15-3.17-48.56-.48-2.39,26L352.63,648.92v25.73H297.34v75.53l44.36,3,4.11,55.65L736.69,780l-.08-79.75-44.14-4.06Z"/><path class="cls-2" d="M620,726.86a4.81,4.81,0,0,0-1.8.72c-8.21,5-12.81,8.62-18.53,16.33a4,4,0,0,0-.72,2.63c.13,2.09,1.73,4.21,5.16,4h.13c5.76-.45,10.06-9.2,18.49-12.39.73-.29,1.21-2.53,1.07-5-.17-3.07-1.35-6.45-3.81-6.31"/><path class="cls-3" d="M848.94,579.85c-1,.06-6-.18-6.78-.14-1.73.1-11.89,2.45-11.51,8.9.52,8.71,10.24,8.56,13.41,8.38,6.87-.4,15.58-2.57,18-8.62l-1.11-11.31c-3.44,2.61-8.91,2.61-12,2.79"/><path class="cls-3" d="M692.71,559.74c-6.69.39-17.82,7.37-17,21.62.79,12.87,9.39,21,18,20.49,5.77-.35,19.23-7,18.31-22.66-.85-14.24-11.66-19.91-19.31-19.45"/><path class="cls-3" d="M166.37,535.66l-26.74,1.59,3.57,59.5,26.26-1.58c9.9-.59,12.52-21.91,12.07-29.46-.32-5.41-5.38-30.63-15.16-30.06"/><path class="cls-3" d="M915.26,550.17c-9.14.54-16.84,6.56-15.91,21.93.92,15.58,10,18.2,18.05,17.73,6.11-.36,17.54-4.32,16.64-19.47-.83-13.9-9.85-20.72-18.79-20.19"/><path class="cls-3" d="M977.58,594.64c-.3,3-2.24,11-8,10.89h-.17c-5.85-.1-7.6-5.76-7.63-7.89v-.16c-.06-3.5,2.76-9.43,8-9.38h.1c2.47,0,7.13.06,7.17,2.83,0,2.35.63,1.25.63,2.65a9,9,0,0,1-.08,1.07m-38.26,11a64,64,0,0,0-.79-7.8c-4.35,6.85-14.21,9-20.3,9.39-14.91.89-31.71-7.06-33.35-34.51-1.77-29.61,14.82-40.23,29.28-41.09,5.3-.32,16.29,1.06,20.88,9.64l-2.29-38,16.62-1,6.2,102.37Zm-75.12.51a10.23,10.23,0,0,0-.38-3c-6.07,8.37-12.69,7.65-17.59,7.94-7.73.46-28.23-.29-29.5-21.42-.79-13.31,11.84-23.36,17.62-23.7l20.18-1.21c2.83-.17,6-1.88,5.68-7.23-.69-11.66-14.88-11.14-17.06-11-5.23.31-9.92.8-11.7,12.73l-13.85.82c1.78-21.42,16.17-27.76,25.76-28.34,5.23-.3,29.34.44,30.64,22l2.6,43.7a50.71,50.71,0,0,0,2.23,7.87Zm-76.38,5.67a55.09,55.09,0,0,0-.47-10.65c-5.07,12.62-10.19,14.72-16.23,15.08-11.82.7-26.1-8-27.42-30l-2.77-46.3,13.83-.83,2.78,46.4c.55,9.26,9.43,13.65,13.45,13.41,3.66-.22,15.35-4.94,14.68-16.21L783,537.42l16.84-1,4.39,74.45ZM715,640.05l-2-34.25c-3.34,8.53-11.92,11.52-18.29,11.9-13.39.8-31.05-10.54-32.55-35.85-1.64-27.33,16-39.18,29.82-40,5.32-.31,14.15.75,18.17,9.15a48.8,48.8,0,0,0-.67-9.67l17.43-1,5.9,98.7Zm-87.52-17.81c-6,.36-28,1-29.31-20.66l-.13-2.23,15.76-.95c1.72,11.09,8.81,10.25,13,10s11.3-.27,10.77-9.2c-1.19-19.89-39.42,1.28-41.14-27.53C595.1,549.77,613,545,621.78,544.45c6.28-.37,26.28.45,27.42,21.2l.2,3.3-15.62.94c-2-8.31-7.08-11.32-11.77-11-1.7.1-12.45,4.05-12,11.71.69,11.7,43.2-5.68,45.2,27.92,1.33,22.14-20.06,23.31-27.71,23.77m-81.4-30.92L511.77,523.5l4.16,69.63-14.72.88L495,489.88l17-1,38.48,77.87-4.77-79.89L560,486l6.23,104.13Zm-73.83,1.55c.16-3.19.33-2.17-.2-5.34-6.9,11.06-15.4,13.46-23.75,14-18.62,1.12-41.53-18.32-43.43-50-1.81-30.28,11.74-56.75,34.46-58.1,10-.61,27,3.95,35.2,23.07,1.51,3.45,4.57,11.07,4.68,12.85l.15,2.6-15.07.9c-2.44-15.11-14.6-20.76-23.32-20.25-15.42.92-22.14,19.3-21.05,37.43,1.27,21.2,16.48,30.58,26.85,30,7.66-.46,13.9-3,19.33-16.76-.5-.57-1.2-.29-17.78,1.18l-.94-15.68,32.75-2,2.73,45.5Zm-93.81,9.05-6.28-105.29,17-1,6.31,105.32Zm-54.77,5.66c-6.82.39-40,1.47-41.68-26.88l-.31-5.21,21.79-1.31c1.11,12.7,14.65,13.63,19.83,13.32,2.12-.13,18-1.76,17.34-12.52-1.41-23.71-57.47,5.65-60.22-40.27-1.77-29.5,26-34.53,36.21-35.14,11.2-.67,36.12,2.93,40.38,30.55l-21.33,1.28c-3.79-14-12-14.38-17.15-14.07-3.76.23-18.16,2.93-17.39,15.55,1.18,19.91,58.74-2.13,61.41,42.52,1.73,28.91-30.38,31.66-38.86,32.17m-113.13,2.74-6.33-105.89,62.2-3.73L267.64,521l-47.13,2.81,1.37,23.1,44.29-2.65,1.17,19.43-44.29,2.65,1.37,23.1,48.31-2.89,1.19,20Zm-32,2.51-49.36,2.95-5.76-96.35,45.35-2.71c17.67-1.05,27.21,38,27.87,48.92.55,9.43-3.61,46.33-18.1,47.2M762.56,475l-48.8,37.81-52.64-.56L592.92,484l-28.2-43.09L241.33,411.17l-3.7,40.28H91.27v223.2H352.63V648.91l279.77,25.73,2.39-26,48.56.48,13.42.14-.28,3-4,43.84,44.14,4.06,187.46,17.24,6-65.84,57,.57,1.58-174.94Z"/><path class="cls-3" d="M974.42,600.14c0,.31-.08.51-.42.51a2.61,2.61,0,0,1-.95-.25,31,31,0,0,1-3.32-1.43,1.12,1.12,0,0,0-.54-.3c-.12,0-.21.1-.22.43V600c0,.61-.06,1.26-.44,1.26l-.1,0c-.74-.17-.89-.55-.95-1.6a11.84,11.84,0,0,0-1.12-4.05,4,4,0,0,1-.48-1.84c0-.53.15-1,.57-1a.85.85,0,0,1,.42.1c.47.23.65.4,1,.4a2.89,2.89,0,0,0,.92-.23,5.47,5.47,0,0,1,1.71-.3,2.06,2.06,0,0,1,1.78.68,1.41,1.41,0,0,1,.25.76c0,.5-.37.92-1.25,1.59s-1.37.94-1.37,1.22.15.3.48.51a15.64,15.64,0,0,0,3.24,1.35,1.1,1.1,0,0,1,.78,1.14Zm.07-9.15a3,3,0,0,0-1.43-.38,2.36,2.36,0,0,0-1.8.79c0,.08-.23.13-.4.13a.54.54,0,0,1-.57-.35s0-.08,0-.1c0-.4.68-.69,2-1.25.31-.14.4-.24.4-.31,0-.23-1.06-.31-2.11-.31-.3,0-.61,0-.87,0-5.07.15-6.69,6-6.73,8.52v.13c0,2.52,1.47,6.12,6.37,6.29h.23c4.79,0,6.56-5.63,6.76-8.72,0-.44,0-.84,0-1.2,0-2.07-.57-2.55-1.89-3.27"/><path class="cls-3" d="M970.19,594.74a.49.49,0,0,0-.06-.15.38.38,0,0,0-.3-.1,2.62,2.62,0,0,0-1.18.38c-.31.13-.48.33-.48.57a.43.43,0,0,0,0,.17.33.33,0,0,0,.31.16,1.88,1.88,0,0,0,.87-.33c.51-.31.8-.48.8-.69"/><polygon class="cls-2" points="656.33 274.39 612.56 289.75 574.12 324.92 559.18 373.22 564.26 440.2 592.92 483.99 661.13 512.22 713.76 512.78 777.24 463.6 801.73 395.52 784.48 314.21 729.62 279.52 697.19 271.44 656.33 274.39"/><polygon class="cls-3" points="640.86 459.61 671.97 474.06 676.95 510.42 695.31 510.19 717.25 478.35 735.8 438.98 711.38 427.59 652.42 421.32 640.86 459.61"/><polygon class="cls-3" points="574.12 324.93 563.85 358.14 575.23 367.77 583.72 393.12 603.26 418.53 633.43 416.06 646.63 431.76 653.74 426.48 643.32 409.77 627.85 403.94 612.7 396.61 622.8 382.6 643.67 386.77 644.65 368.11 655.51 356.53 662.09 334.1 684.98 324.78 638.82 301.83 627.75 321.01 614 313.5 632.68 298 610.13 291.97 574.12 324.93"/><polygon class="cls-3" points="759 342.12 749.45 360.89 746.74 377.92 751.18 382.58 757.35 395.53 777.58 393.28 790.64 407.88 794.17 416.54 801.73 395.53 790.98 344.88 786.9 343.68 779.67 346.31 772.03 339.86 759 342.12"/><polygon class="cls-3" points="655.82 274.57 645.1 278.33 668.88 285.92 684.69 299.62 693.08 299.21 697.58 287.62 715.84 276.08 709.75 274.57 655.82 274.57"/><polygon class="cls-3" points="630.37 288.67 629.69 289.64 634.02 299.6 645.74 302.33 654.73 302.33 661.11 294.43 650.51 286.17 630.37 288.67"/><polygon class="cls-3" points="724.99 281.5 710.83 283.62 712.2 287.74 724.68 286.62 728.09 283.26 724.77 279.51 724.99 281.5"/><polygon class="cls-3" points="600.94 457.05 605.09 469.76 616.12 465.88 608.52 456.56 606.48 450.05 600.94 457.05"/><polygon class="cls-3" points="749.83 296.01 756.15 299.35 759.16 305.32 756.77 311.28 753.19 320.4 747.3 323.26 748.45 330.76 745.15 339.86 760.74 336.43 760.87 323.48 770.32 320.52 771.25 336.45 778.6 334.22 777 322.92 787.52 328.53 784.48 314.22 749.28 291.94 749.83 296.01"/><polygon class="cls-3" points="738.95 298.32 745.8 307.85 746.15 315.76 755.13 310.84 755.81 304.06 747.71 303.3 745.97 296.48 738.95 298.32"/><polygon class="cls-3" points="640.49 397.72 639.92 398.32 643.53 403.28 657.29 407.74 671.55 405.66 672.76 399.3 649.41 395.53 640.49 397.72"/><polygon class="cls-3" points="761.6 412.12 763.99 420.51 769.1 420.5 774.7 414.89 774.76 407.99 767.36 401.79 766.34 401.63 761.6 412.12"/></g></svg>