<svg id="Layer_1" data-name="Layer 1" xmlns="http://www.w3.org/2000/svg" viewBox="0 0 1080 1080"><defs><style>.cls-1{opacity:0.75;}.cls-2{fill:#fff;}</style></defs><title>WGBH_impact-report_digital_logo-farm_v1</title><g class="cls-1"><path class="cls-2" d="M335.51,495.85h-.56a3.81,3.81,0,0,1-1.47-.25,17.45,17.45,0,0,0-6.78-1.29,32.09,32.09,0,0,0-7.8,1.12c-4.41,1.1-8.87,2.41-13.18,3.67l-5.42,1.58-2,.58.48,1,1.92-1,2.32,6.61-.1.41c-.06.24-.13.49-.22.74a3.37,3.37,0,0,0-.18.68,18.48,18.48,0,0,0,.62,2.42l0,.11,1.2.07-.17,3.32c-.11,2.12-.22,4.24-.32,6.37a3.18,3.18,0,0,1-.65,1.92,3.83,3.83,0,0,1,.08,2.21c-.15.69-.28,1.39-.41,2.1l1.36-.77c1.57-.89,3.19-1.81,4.85-2.63,2.34-1.16,4.71-2.28,7.08-3.4,1.82-.86,3.65-1.72,5.46-2.61q4.45-2.16,8.87-4.37l6.32-3.12c1.33-.65,2-2,2.72-3.48.22-.46.45-.91.69-1.35a15,15,0,0,0,1.1-2.41c.07-.21.15-.42.23-.64a4.91,4.91,0,0,0,.46-1.91A6.85,6.85,0,0,0,335.51,495.85Z"/><path class="cls-2" d="M404.5,372.25l1,2.69c.14.38.28.73.41,1.07a22.94,22.94,0,0,1,.78,2.19c.1.34.21.69.32,1a11.07,11.07,0,0,1,.75,3.86,27.4,27.4,0,0,0,.35,4.71,37.12,37.12,0,0,1,.39,4l-.37,7.35c1-.31,2-.61,3-1,2.55-1,5.09-1.94,7.64-2.92l4.59-1.77c.79-.3,1.59-.57,2.39-.84a29.13,29.13,0,0,0,4.38-1.74l.83-.44a132.38,132.38,0,0,0,13.22-7.68c3.25-2.24,4.73-4.41,4.81-7.06,0-1.62,0-3.25,0-4.92,0-.54,0-1.09,0-1.65l-1.26-1.06a21.53,21.53,0,0,0-3.69-2.75c-5.48-2.93-11.69-3.73-18.55-2.39-.9.18-1.81.33-2.71.49-1.2.21-2.39.42-3.58.67-.81.17-1.64.31-2.46.45a21.23,21.23,0,0,0-6,1.61,16.19,16.19,0,0,1-3.17,1.07l-.74.2L401,369.07l2.57,4.55Z"/><path class="cls-2" d="M720.16,541.65c-1.91.16-3.92.24-6.17.24q-1.36,0-2.72,0h0a8.64,8.64,0,0,0-4.21,1.26l-.33.18a5.78,5.78,0,0,1-3.47,1h-.3l-.07.83c-.07.83-.13,1.53-.17,2.23-.06,1,1.43,3.36,2.15,3.58,3.14,1,5.61.8,7.9-.54l3.64-2.11,1.89-1.09-.14-.71,5.82-3.62-.65-.3A6.25,6.25,0,0,0,720.16,541.65Z"/><path class="cls-2" d="M401,369.09l-2.06.55-.5.13,1.42,1.19Z"/><path class="cls-2" d="M336.43,418.75c0,.78,0,1.56,0,2.47h3.41C340,419.37,338.48,418.42,336.43,418.75Z"/><path class="cls-2" d="M247.16,364.78h0a1.18,1.18,0,0,1,0,.33A1.18,1.18,0,0,0,247.16,364.78Z"/><path class="cls-2" d="M221.92,716a.49.49,0,0,0-.33,0l.34.32h0c0-.1,0-.2,0-.3Z"/><path class="cls-2" d="M233.8,362.43l.48.22a.28.28,0,0,1,.24,0c.14-1-.66-.53-1.11-.61a.58.58,0,0,0,.06.28A.63.63,0,0,1,233.8,362.43Z"/><path class="cls-2" d="M270.09,362.67a.77.77,0,0,1,.13-.32l.29.09,1.11.33-.39-.78h-1.48v.35Z"/><path class="cls-2" d="M231.1,361.63h-.35l-.39,0h0l.39,0v.65Z"/><path class="cls-2" d="M799.05,716.3l0,.35.4.34h.17l.15-.06,0-.55Z"/><path class="cls-2" d="M844.25,715.23l1.83.66h0l.81-.37.17.08.19,0a.45.45,0,0,0-.06-.34l.13,0,.3-.72h-2.27l-.36,0v0l0,0-.73.4A.48.48,0,0,0,844.25,715.23Z"/><path class="cls-2" d="M801.79,716l0,.65.74,0,.4,0-.4,0Z"/><path class="cls-2" d="M164.72,305.39l0,469.42,750.32,0,0-469.42ZM742.26,365.7q6.17.18,12.34.34l17.25.39.19,0c2.61,0,5.22,0,7.82-.08,3.13-.07,6.27-.24,9.4-.27,2.56,0,5.12.13,7.68.15.74,0,1.5-.27,2.22-.19a9.44,9.44,0,0,1,2,.67,14.68,14.68,0,0,1-3,.67c-5.5.1-11,.09-16.5.14-1.37,0-2.74.16-4.11.17-2.1,0-4.2,0-6.3,0-5.15-.08-10.31-.14-15.46-.24q-6.78-.12-13.57-.28ZM724.93,487.56l.33-.11c.18-.06.37-.12.55-.17l.37,1.09.13-1.11.45.07.24,0a9.83,9.83,0,0,1,2.15-.23,12.1,12.1,0,0,1,7.25,2.62l.17.14,3.2,3.18.11.24c.24.53.49,1.06.74,1.59.6,1.26,1.22,2.57,1.74,3.92a18.88,18.88,0,0,1,.78,2.86c.08.39.17.77.26,1.16l1.71,6.86-.84-1.1c.15,1.47.27,2.93.39,4.4.09,1.1.18,2.19.28,3.29s.24,2.44.37,3.66c.23,2.2.47,4.48.63,6.74a16.49,16.49,0,0,1-.09,2.61,14.79,14.79,0,0,0-.09,2,21.4,21.4,0,0,0,.41,2.88c.09.46.17.92.25,1.38l0,.16v.16a99,99,0,0,0,.57,16.59,30.14,30.14,0,0,1-.65,8.63c-.12.68-.24,1.36-.35,2l0,.31-.36.55c-1,1.58-2.31,3.55-4.94,4l-2.37.37-1.06.17-.34.11a1.75,1.75,0,0,0-.33.12,10.25,10.25,0,0,0-.83,1l-.56.69-1.11,1.32-1.94-2.26-2.14.91-.67-.48c-1.41-1-5.25-3.77-4.75-8.64a14,14,0,0,1-4.18,1,1.19,1.19,0,0,0-.55.22,10.87,10.87,0,0,1-5.49,2.06,17.76,17.76,0,0,0-2.28.48l-.44.07h-.68l-.44-.5c-.63,0-1.27-.1-1.9-.16a19,19,0,0,0-5.74.06l-.28.06-1.4-.22c-.85-.14-1.71-.28-2.57-.37a11.48,11.48,0,0,0-1.8,0l-.44,0-.7,0a3.9,3.9,0,0,1-2.65-.92c-.81-.69-1.68-1.31-2.6-2l-1.22-.88-.46-.34-.11-.56c-.16-.82-.4-1.63-.64-2.49-.66-2.28-1.4-4.85-.62-7.65l0-3-1.07,0,3.35-7.59c.32-.67.63-1.34,1-2A4.69,4.69,0,0,1,691,536a1.72,1.72,0,0,0,.15-.22c.6-3,2.79-4.5,4.72-5.86.34-.24.69-.48,1-.73a13.69,13.69,0,0,1,9.07-2.8H706a12.11,12.11,0,0,1,5.83-1.38,32,32,0,0,1,5.75.7l.73.13a30,30,0,0,1,5.93,1.94c1.21.49,2.37,1,3.55,1.32v-2.24c0-1.67,0-3.34.05-5A17.57,17.57,0,0,1,728,520c0-.24.06-.47.09-.71l0-.24.1-.22c.06-.14.14-.28.23-.42l0-.06c0-1.83,0-3.66,0-5.5v-.17l-2.2.16-1.13-8.1c-.81-.64-1.73-.71-3.19-.27l-.42.26-10.23,5.07-1,.47a14,14,0,0,0-1.78,1c-1.68,1.14-3.34,2.31-5,3.49l-2.07,1.47-1.07.9c-1.29,1.08-2.58,2.15-3.89,3.21a3.45,3.45,0,0,1-.93.51l-.22.09-1.53.86L692,522.85l-2.22-2.39-1.73-.22-1.91-2.41-1.11-2.66.69-1.42c.37-.75.78-1.58,1.16-2.42l.1-.21a3.31,3.31,0,0,0,.29-.76c0-2.63,1.09-4.43,3.16-5.35l1.24-1.19c1.19-1.13,2.42-2.3,3.57-3.49a10,10,0,0,0,.95-1.23,14,14,0,0,1,1.07-1.4l.16-.18a6.11,6.11,0,0,1,2.58-2,27.7,27.7,0,0,0,4-1.69,23.34,23.34,0,0,1,6.14-2.29,24,24,0,0,0,5.24-1.85c.83-.36,1.66-.73,2.5-1A15,15,0,0,1,724.93,487.56ZM635.65,410.1l.12-.34.43-1.59.71-1.49-.71-1.44,2.28-.48a15.16,15.16,0,0,0,4.19-1l.14,0-1.13-1.82,5.33-1.74.57.34a.62.62,0,0,0,.34.06,6.1,6.1,0,0,0,.69-.06,5.23,5.23,0,0,1,2.71.26l.73-1.08,0-.79c0-.76-.07-1.51-.15-2.26l-.07-.07a4.64,4.64,0,0,1-.34-.41l-.12-.19-.36-.71-1.14.91.27-2.62-.52-1,.65-.19.69-6.64-.12-.13a2.74,2.74,0,0,1-.94-2.7l-1-7.7,1.53-.27a10.37,10.37,0,0,1,.66-3.22,11,11,0,0,0,.47-1.75,3.79,3.79,0,0,1,1.76-3h0l3.77-6.47c1.41-2.92,4-7,9.37-7.6a1.58,1.58,0,0,0,.6-.3c2.17-1.53,4.89-3.1,8.22-2.78l.34-.22.33-.18h1.24a16.86,16.86,0,0,0,1.84,0,3,3,0,0,0,.88-.15,4.52,4.52,0,0,1,3.33-1.41,8.13,8.13,0,0,1,2.42.44l.29,0,1.29-.08,5.77-.48-.63-1.46,3.76.33c1.48.13,3,.25,4.44.44a1.76,1.76,0,0,1,1.34,1H702a5.93,5.93,0,0,1,2.85.66c1.7,1,3.33,2.19,4.91,3.31.89.63,1.78,1.26,2.68,1.87a9.66,9.66,0,0,0,1.34.7l.77.37.24.12,2,2.17v.57a4.93,4.93,0,0,1,0,.51v0c.81,1.29,1.64,2.55,2.4,3.7l1.12,1.71-1.14,3.83,1.38,1.84-1.5.81c-1.25.67-1.45,1.73-1.71,3.56-.05.35-.1.71-.16,1.06l-.43,2.45-1.93-1.56a.83.83,0,0,0-.18-.12,2,2,0,0,0-.3.15,20.32,20.32,0,0,1-2.25,1.11,16.88,16.88,0,0,0-2,1,4,4,0,0,1-4.33.06c-2.62-1.34-5.35-5.28-5.93-8.42a26.92,26.92,0,0,0-10.44-5.81l-.23-.08a6.89,6.89,0,0,0-2.86-.63,5.88,5.88,0,0,0-5,2.58,22.49,22.49,0,0,0-4,13.33c0,1.3.12,2.6.19,3.9.09,1.68.19,3.36.22,5,.07,3.73.07,7.51.08,11.17v3.26a12.46,12.46,0,0,1-.17,2.8c-.68,3.24-.44,3.6,2.82,4.34l-.28,1.23.8-1c.31.23.62.48.93.72a11.21,11.21,0,0,0,1.76,1.24c3,1.55,6.74,3.9,8.69,8.3l.58,1.32-.89.41,2.84,2.37-2.59,1.48.16,1.29-.5.51c-2.33,2.36-5.12,3.08-7.59,3.72-.77.2-1.53.4-2.27.64l-.32.07-3,.3-2.49-.43.58,15.4V447c-.1.87-.2,1.74-.31,2.61-.23,1.91-.47,3.88-.59,5.81-.08,1.35-.08,2.68-.07,4.1,0,1.22,0,2.43,0,3.64,0,.24,0,.49,0,.74a7.49,7.49,0,0,1-1,4.34,12.47,12.47,0,0,0-1.19,2.21,15.36,15.36,0,0,1-1.39,2.57,4.26,4.26,0,0,1-3.15,2.09l-2.61,2-1.3-1.39-2.85.56v-.7a4.23,4.23,0,0,1-3.72-1.45,7.84,7.84,0,0,1-6.09-1l-1.08-.69,1.06-2.26.45-.27-.1-.77h-1.54l-1-2,0-.87-.1-.6c-.08-.51-.16-1-.28-1.51a4,4,0,0,0-.3-.69c-.09-.19-.19-.39-.29-.61l-.15-.33.06-1c0-.55.07-1.18.12-1.81l.08-1c.14-1.76.27-3.52.46-5.27a2.38,2.38,0,0,1,.36-1l0-.37c0-.71-.07-1.32-.07-1.94a3.61,3.61,0,0,1,.11-.84h0a5.64,5.64,0,0,1,.18-4.27,15.56,15.56,0,0,0,.6-4.66c0-.39,0-.78,0-1.17l-.86-.13.09-1v-1.59l-.82-.52.83-.22v-.24l-.79-3.58,1.35-.22-.14-.94a10.66,10.66,0,0,1,.2-2.31c.22-1.32.31-2-.26-2.71L650,425l1-2.47-.13-.05c-2.81-1.07-5.46-2.06-8.36-2h-.27a6.09,6.09,0,0,1-4.73-2.14l-2.16-4.73-1.75-2h1.72Zm-68.78,3-1.34-.78,1.8-1.35,1.53-1.1c1.16-.84,2.32-1.68,3.52-2.47s2.17-1.36,3.34-2.05l.76-.45-.92-3.66a2.39,2.39,0,0,1-.92-1.45h0l-.43-.79c-.17-.33-.3-.65-.43-1l-.07-.17a2.21,2.21,0,0,1-.23-.88l-.42-2,0-.41-.27-.26,0-.07-.16-.16L572.5,393l-.51-.5-.68.25.2-.71-.74-.72.9-.3a1.44,1.44,0,0,1-.5-1c-.06-.73-.07-1.48-.09-2.23,0-.43,0-.86,0-1.3s-.05-1-.09-1.45c-.06-.85-.12-1.7-.11-2.55a2.37,2.37,0,0,1,.57-1.45l-.4-2.47,0-.43a2.17,2.17,0,0,1-.38-.35,2.86,2.86,0,0,1-.52-2.22l.09-.89c.17-1.73.34-3.53.58-5.29a25.21,25.21,0,0,1,.54-2.58l.14-.56a5,5,0,0,1-.12-2.93,5.38,5.38,0,0,0,.12-.89,7.19,7.19,0,0,1,.08-.84c0-.15,0-.36.05-.47a4.69,4.69,0,0,1,.09-4.16,25.66,25.66,0,0,1,2.21-4.61,7.82,7.82,0,0,1,2.9-2.35l1.25-.68a47.12,47.12,0,0,0,8-5.08,7,7,0,0,1,3.25-1.47,23.13,23.13,0,0,0,5-1.7,31.86,31.86,0,0,1,4.36-1.6l1.52-.44a38.1,38.1,0,0,1,3.83-1,12.16,12.16,0,0,1,2.25-.11h.63a5.58,5.58,0,0,0,1-.08,23.23,23.23,0,0,1,10.35.63,28.31,28.31,0,0,1,3.1,1.06l1.28.48.27.1.21.19c.14.12.27.26.4.4a2.94,2.94,0,0,0,.29.28,16.49,16.49,0,0,1,5.32,3.57,21.24,21.24,0,0,0,3.3,2.51c.56.37,1.12.74,1.66,1.14l.35.25.84,2.13-.27,3.43-2.36.21-3.76,3-.56,0c-.87,0-1.74-.05-2.61-.05h-1.23a26.22,26.22,0,0,1-7.2-.74,26.77,26.77,0,0,1-2.79-1,13.93,13.93,0,0,0-4-1.17l-.51,0-.38-.35a2,2,0,0,0-2.16-.18c-4.6,1.9-7.6,4.38-9.43,7.8-.49.91-1.06,1.77-1.61,2.59l-.55.83L595.2,372l1.5,1.51-2.13,1a3.79,3.79,0,0,1,.14,1.43c-.14,2.05-.26,4.11-.38,6.16l-.12,2,1,2.48,0,.64.9,4.09,1,1.95-.69.49.12.23a3.87,3.87,0,0,0,.22.36,3.8,3.8,0,0,1,.74,2l.71,0h0a10.47,10.47,0,0,0,4.14-1.13l.46-.19a62.62,62.62,0,0,1,9.62-3,48.08,48.08,0,0,1,5.72-.89c.81-.09,1.63-.19,2.44-.3l.36-.05,5.49,2L626,394a5,5,0,0,1,1.17,2.76,4.83,4.83,0,0,0,.23.95,5.64,5.64,0,0,1,.49,3.66l1.36.62-.44,1.26c0,.1-.06.22-.09.34a2.87,2.87,0,0,1-.93,1.75,6.91,6.91,0,0,1-1.69.9l-.24.1.9.86-3.63,2.31-1.14.24c-.66.14-1.32.27-2,.43a9.92,9.92,0,0,0-1.15.36l-1,.39c-.64.26-1.29.51-1.94.71a16.68,16.68,0,0,1-1.87.41,5.83,5.83,0,0,0-2.39.73,25.18,25.18,0,0,1-7,4.18c0,.45.08.93.14,1.43.2,1.51.47,3.5-.95,5l1.42,5.16,2.25,9.48a71.44,71.44,0,0,1,.59,14.72l-.09.44-.12.31a8.13,8.13,0,0,0-.81,4.13c.61,4.21-1.77,7.13-6.36,7.83a3.76,3.76,0,0,1-.54,0c-2.67,0-5.71-3-6-5.86a10.35,10.35,0,0,1,0-1.41l-1.68-.68h-.86l-.44-.5a2.83,2.83,0,0,1-.86-1.69l-1.22-.13,1.36-2.15.12-.37a3,3,0,0,1-.69-3.32,2,2,0,0,1-.29-.51,2.82,2.82,0,0,1,0-2.06c.62-1.32.35-2.69,0-4.28-.13-.64-.25-1.28-.32-1.92l-.88-3.16c-.81-2.91-1.64-5.91-2.55-8.83a4.27,4.27,0,0,0-.81-1.17c-.23-.27-.47-.55-.67-.84l-.32-.44,0-.37-.06-.11a3.15,3.15,0,0,1-.41-1.33l-7.89,2.51h-1.59l-.34-.6c-2.85-.13-5.15-1.5-7.45-3a5.79,5.79,0,0,1-2.09-4.61l-.12-1.48,1.48-.11c.33,0,.46-.13.9-1.11a5.6,5.6,0,0,1,1.18-1.85A2.41,2.41,0,0,1,566.87,413.13Zm-18.76,95.22c0,.19,0,.38.05.56a3.25,3.25,0,0,1,.76.75,1.65,1.65,0,0,1,.29.88,3.43,3.43,0,0,1,.65,2.41v.18c0,.55,0,1.11,0,1.66v.83l-.26,1.78c-.19,1.32-.39,2.65-.62,4-.05.3,0,.5.56,1.15l.56.7-.86,1.93c-.08.25-.17.5-.26.75a4.66,4.66,0,0,0-.34,1.23c0,1.11-.07,2.23-.08,3.34a57.24,57.24,0,0,1-.55,8.35l.39.06.32.54.28-.13,2.56-1.28-.46,2.83a.56.56,0,0,0,0,.17l.62.26.43.19a6,6,0,0,0,1.23.33l.87.19.62.16.31.56a5.13,5.13,0,0,0,2.88,2.48,9.39,9.39,0,0,1,3.08,2.24c.34.33.69.67,1,1s.7.56,1.09.86l2.37,1.86L563,552.4l.26,1.5-1.08.45-.33.12h0a17.44,17.44,0,0,1-6.35,3.24c-.67.18-1.36.32-2,.47l-1.46.31-.51-.33a2.71,2.71,0,0,0-1.65-.28L549.44,568a3.27,3.27,0,0,1,.75,2.46,3,3,0,0,0,0,.49l.06.39v1.07l-.18.7a9,9,0,0,0-.22.92c-.13.76-.23,1.52-.34,2.27l-.14,1-.07,1.5c-.11,2.31-.22,4.61-.36,6.92a2.25,2.25,0,0,1-.36,1.06l-.06,2.9-.54.43a2.12,2.12,0,0,1-1.79.5,2.38,2.38,0,0,1-2,1.17,3,3,0,0,1-1.66-.56l-.1,0-1.06,2.6-1,.78a3.33,3.33,0,0,1-2.8,2.47,2.8,2.8,0,0,0-.73.25l-1,.75-1.65-1.53a4.89,4.89,0,0,1-4.3-.39h-.63a2.64,2.64,0,0,1-1.34.37,3,3,0,0,1-2.26-1.24l-.36-.41v-3.14a5.44,5.44,0,0,1-.64-3.71,7.33,7.33,0,0,0,0-1.13c-.05-.58-.09-1.17-.13-1.75-.07-1-.14-2.1-.27-3.15a3.92,3.92,0,0,0-.09-.41,3.28,3.28,0,0,1,.2-2.54,2,2,0,0,1,0-1.65l0-.09a5.36,5.36,0,0,1-.17-.73l0-.24a3.3,3.3,0,0,1,.79-3.11,40.33,40.33,0,0,1,.28-4.4,25,25,0,0,0-.08-5.06c-.06-.78-.13-1.57-.16-2.35l-.07-1.59,1.59.07h.09a2.35,2.35,0,0,0,0-.24c0-.35-.13-.69-.2-1l-.23-1.15.34-.5c.15-.22.17-.32-.2-1.18a6,6,0,0,1-.5-1.6l-.05-.31a2.9,2.9,0,0,1,.19-2.17,2.81,2.81,0,0,1-.19-.91l-.13-1.61-1.13-.63-1.17-.4a13.84,13.84,0,0,0-2.56-.74l-.51-.07A23.17,23.17,0,0,1,514.5,546c-2.29-.4-4.73-1.25-5.82-4.19l-.28-.75,2.31-3.09,1.44-.17.09-.41-1.11-2,3.25-.76h.07l-.28-.77,3,.07a7,7,0,0,1,4.62-.05,10.15,10.15,0,0,0,1.39.3c1.08.12,2.13.33,3.15.53a11.18,11.18,0,0,0-.15-1.52,7,7,0,0,1,.25-4,17,17,0,0,1-.17-4.21c0-.66.06-1.31,0-2v-.56l.36-.43c.87-1,.7-2.11.32-3.92l-.13-.63-.26,1.64-.33-3.17-.69-.36-.15-1a6.4,6.4,0,0,1,.18-3.55l.12-.3-.19-1.83-.25-.13.14-.93-.05-.49.13,0,1.69-11.41.36,3.6,1-.37c.1,0,.22-.28.38-.64.09-.19.18-.38.27-.56.66-1.23,1.35-2.45,2-3.66L532,493c.81-3.24,3.46-4.7,5.59-5.87,1.7-.93,3.47-1.71,5.19-2.46l1.34-.59a8.65,8.65,0,0,1,2.41-.71c1.2-.15,2.41-.26,3.62-.36l1.7-.15.23.06.57.16a3.17,3.17,0,0,0,.68.16c2.22,0,4.43,0,6.65,0h2.28l.12,0a39.59,39.59,0,0,1,11.17,3.38l1.24.59a29.85,29.85,0,0,1,5.69,3.21,6.71,6.71,0,0,1,.92.9l.28.3.56.58-.19.78c-.09.39,0,.62.6,1.37l.28.38.52-.21,1.51,1.29,2.65,10-2.78.24a1.7,1.7,0,0,1-.56.81,10.85,10.85,0,0,1-6.71,2.71h-.45l-.34,0-3.5-2,0-.82a4,4,0,0,0-.09-.95c-1.11-.25-2.21-.53-3.3-.81l-2.53-.64-.06-.38-1.17-.45a7.86,7.86,0,0,1-5.45.19,13.59,13.59,0,0,0-2.49-.3l-1.12-.08-3.77.62-.4-2.34c-.64.07-.75.25-.88.7l-.22.75-.74.24a3.33,3.33,0,0,0-2.12,2.17l-.1.27-.2.21C548,506.51,548,507.19,548.11,508.34ZM466,523.7c.13.49.25,1,.36,1.46s.27.69.39,1a21.49,21.49,0,0,0,1,2.29c.74,1.44,1.54,2.86,2.33,4.27l1,1.85.07.13,8.08-3.4,5.83-2.7.84-.16a19.4,19.4,0,0,1,2.19-.35l.26,0a17.76,17.76,0,0,1,3.77,0c1.42.19,2.82.49,4.17.78l1.69.36,2.47.69.2,2,2.23,1,.82.83.43,1.6-.41.47.17.87-1.7,1.23a4.47,4.47,0,0,1-2.9,2.59,5.55,5.55,0,0,0-.82.38,23.08,23.08,0,0,1-3.87,1.86c-.88.36-1.72.69-2.5,1.1a7.74,7.74,0,0,1-4.22.89,5,5,0,0,0-3,.64,19.13,19.13,0,0,1-3.66,1.5c-.49.16-1,.32-1.46.5l-.73.23c-.33.1-.65.19-.93.3l0,0,.1.62a3.2,3.2,0,0,1,1.8,2.64l.05.25,0,.09.47.25a8.73,8.73,0,0,1,3.42,4.52l.15.13.28.26.11.36c.2.64.4,1.29.6,1.94.43,1.42.88,2.89,1.39,4.28,1,2.71,2.06,5.45,3.09,8.1l.64,1.63a2.85,2.85,0,0,0,.26.39l.27.39.09.17c.2.43.4.87.59,1.31a19.66,19.66,0,0,0,1.29,2.61,32.5,32.5,0,0,0,2.13,2.87c.34.43.68.86,1,1.29l0,0,0,.06h0l.07.11a11.24,11.24,0,0,1,1,4.7c0,.41.06.83.1,1.24a23.94,23.94,0,0,1,.12,3.62,3.11,3.11,0,0,1-2.1,2.78c.13,1.4-.51,2.14-2,3l-2,2.66L490,598.77a1.8,1.8,0,0,1-1.18.45,1.76,1.76,0,0,1-1.07-.36l-2-1.45-2.72-3.22-.51.45-.33.09-.34.08-.21,0a7.12,7.12,0,0,1-3.14.78c-2.76,0-4.89-1.85-5.7-5-.43-1.66-.43-1.66-1.86-2.39l-.79-.41v-1.29a1.91,1.91,0,0,1-.38-.31,2.25,2.25,0,0,1-.54-1.77v-1l0,0a2.87,2.87,0,0,1-.63-1.92l-.23-.18v-1.63l.26-.54c-.12-.3-.25-.6-.38-.9a11.22,11.22,0,0,1-1.23-4.78v0a4.16,4.16,0,0,1-.29-.56,16.25,16.25,0,0,0-.86-1.71,11,11,0,0,1-1.56-4.15,2.9,2.9,0,0,0-.54-1.06,16.77,16.77,0,0,1-2.5-6.84,6.68,6.68,0,0,0-.44-1.28,7.86,7.86,0,0,1-.73-2.69,5.23,5.23,0,0,0-.11-.8l-4.93,1.89-1-.49a5.61,5.61,0,0,1-.86-.49l-.38-.28c-.89-.66-1.39-1-2.07-.87l-.37,0a2.6,2.6,0,0,1-1.3-.41l-.16-.09a4.08,4.08,0,0,1-2.67-2.41,4,4,0,0,1,1-3.4,6.28,6.28,0,0,1,.64-.71l.35-.34,1.43-1.16c1.18-1,2.37-1.93,3.58-2.86.74-.56,1.51-1.06,2.25-1.55l.17-.11a26.12,26.12,0,0,0-2.31-6.46,19.3,19.3,0,0,1-1.36-3.34c-.69-2.44-1.22-4.95-1.73-7.37l-.2-.95a2.38,2.38,0,0,1,0-1l-.23-.17v-1.44c0-.58,0-1.17,0-1.75.07-1,.16-2,.26-3.07l.09-1-.31-1.6,1.07-.25H450v-.66c0-.54,0-1.09,0-1.63s.06-1.12.09-1.68a19.58,19.58,0,0,1,1.38-7.61c.17-.36.31-.74.45-1.11l.85-2.36c.54-1.55,1.09-3.1,1.68-4.64a9.59,9.59,0,0,1,1.81-3.1,22.52,22.52,0,0,1,12.06-7.44c1.11-.25,2.2-.54,3.3-.83s2.38-.63,3.58-.9a6.84,6.84,0,0,1,2.54,0,12.58,12.58,0,0,1,5.59-1.19h.33a8.33,8.33,0,0,0,1.73-.17,11.66,11.66,0,0,1,2.53-.19c2.84.19,5.68.59,8.09,1a5.12,5.12,0,0,1,1.94.85,4.34,4.34,0,0,0,.73.41,18.85,18.85,0,0,1,4.32,2.55c1.61,1.23,3.18,2.5,4.76,3.78l2.3,1.85.63.47,3.18,2.39-2.35.32a11.06,11.06,0,0,1,.92,2.26,9.48,9.48,0,0,1,.24,2.09,4.17,4.17,0,0,0,.4,2.08,1.62,1.62,0,0,1-.34,2.05l-.87,1.15-.39-.24a3.76,3.76,0,0,1-2.77,1.93,7.72,7.72,0,0,0-1.07.26,8.18,8.18,0,0,1-2.33.43H505l-.33,0-1.75-.94c-1.09-.58-2.17-1.16-3.24-1.77a25.4,25.4,0,0,0-7.08-2.5,5.78,5.78,0,0,1-1.05-.37l-.31-.13a22.47,22.47,0,0,0-9.11-1.12,17.46,17.46,0,0,0-2.44.53l-.84.22-.1.1-.57.06-5.27.33-2-1.34-1.76,1.11a4.68,4.68,0,0,1-.47.19c-.44,1.43-.91,3.07-1.25,4.74-.18.86-.29,1.74-.41,2.61a27.54,27.54,0,0,1-.82,4.29,26.1,26.1,0,0,0-.74,7.74c0,.68,0,1.36,0,2A11.48,11.48,0,0,0,466,523.7Zm14.17-107.86.14-2.13.11-.24c.06-.14.14-.29.22-.43a1.74,1.74,0,0,0,.12-.25c.1-.93.19-1.94.27-3a57.77,57.77,0,0,1,.75-6.1c.88-4.5,1.76-9,3.76-13.28a6.41,6.41,0,0,1,6-3.78h.15a1.49,1.49,0,0,0,.68-.23,3.82,3.82,0,0,1,1.34-.44l.74-.07.89,1,1.91-1,3.9-.22.18,1.34a56.68,56.68,0,0,1,.18,10.14c0,1.09-.09,2.18-.12,3.27s0,1.94,0,2.91a39.1,39.1,0,0,1-.17,5.72,21.94,21.94,0,0,0,.35,6.09,35.29,35.29,0,0,1,.48,4.55,14.72,14.72,0,0,0,.56,3.18c.11.43.21.86.31,1.29.2.92.4,1.84.59,2.76.56,2.65,1.15,5.39,1.85,8a12.86,12.86,0,0,0,3.44,5.55,17.06,17.06,0,0,0,5.54,3.63,10.22,10.22,0,0,0,9.2.18,7.77,7.77,0,0,1,2.33-.57l.24,0,.92-.95c1.08-1.11,2.14-2.19,3.17-3.29a4.77,4.77,0,0,0,.64-1l.29-.56c.62-1.19,1.27-2.43,1.83-3.66.77-1.7,1.66-3.68,2.37-5.65a3.42,3.42,0,0,0,0-.75c0-.24-.06-.48-.07-.72s-.08-.51-.11-.77c-.08-.56-.16-1.11-.29-1.66-.19-.76-.39-1.52-.6-2.28-.29-1.05-.57-2.1-.81-3.16a25.43,25.43,0,0,1-.41-2.74c0-.35-.08-.7-.12-1,0-.14-.08-.29-.13-.43a9,9,0,0,1-.36-1.49c-.5-3.9-1-7.81-1.43-11.72l-.08-.73a38.55,38.55,0,0,1-.37-5.27,6.92,6.92,0,0,1,1.22-3.32l.28-2.64,3.71-3.79.53,2a2.45,2.45,0,0,1,2.39-.6l.39.08.69.61.56-3L542,386a9,9,0,0,1,4.47,4.75c.46.92,1,1.82,1.47,2.71l.82,1.55.79,2.69c.59,2,1.18,4,1.73,6s1.07,3.92,1.59,5.88c.87,3.24,1.77,6.6,2.72,9.86a29.84,29.84,0,0,0,1.5,3.8c.27.61.54,1.22.8,1.83.15.31.32.7.48,1.1a10.77,10.77,0,0,0,1,2,25.31,25.31,0,0,1,3.06,6.58,33.82,33.82,0,0,0,1.66,4.15c.39.77.73,1.58,1.07,2.38l.43,1,3.15,7.19-.53.69-.17.21a3.7,3.7,0,0,1-.6,2.83,3.35,3.35,0,0,0-.29.58c-.51,1.83-3.66,5.44-5.18,6.22l-.36.18-1.56-.09L558.6,459l-.75,0a10.12,10.12,0,0,1-2.44-.1,16.32,16.32,0,0,1-2.66-.87l-1-.38-.34-.12-1.3-1.4c-.8-.86-1.6-1.73-2.39-2.61-.49-.55-.95-1.12-1.4-1.68a26.08,26.08,0,0,0-9.27,8.47,22.51,22.51,0,0,1-6.65,6.31c-3.57,2.22-7.43,2.85-11.4,3.34a11.94,11.94,0,0,1-1.49.09,27.88,27.88,0,0,1-4.51-.49l-.59-.1a47,47,0,0,1-6.11-1.46c-4.46-1.34-8.72-3.86-13.41-7.91a26.79,26.79,0,0,1-6.28-8,21.94,21.94,0,0,1-1-2.28c-.12-.32-.24-.64-.37-1l-.09-.29c-.05-.28-.09-.55-.13-.83a6.85,6.85,0,0,0-.27-1.32c-1.9-5.18-2.61-10.62-3.31-15.87l-.24-1.84c-.17-1.25-.37-2.5-.57-3.75l-.25-1.55-.12-.26a3.7,3.7,0,0,1-.45-1.73C479.92,419.57,480.05,417.71,480.18,415.85Zm-107.59-46,.21-.26.3-.14a5.44,5.44,0,0,1,1.31-.36c.16,0,.39-.07.53-.11a1.82,1.82,0,0,0,0-.21,2.9,2.9,0,0,1,2.12-3.06,2.94,2.94,0,0,0,.43-.2l.19-.14a5.79,5.79,0,0,0,2.17-2.39l-1.16-.58L378,359.6l1-2.5,1.43.16,0-.44a4.62,4.62,0,0,1,0-.7l.05-.48.79-.85,1.45-1.39.53,0h.06v-1.27l1.1,1.17.53-.93,2.1.1,1-.37.78-.4.09.08.36-.14-.19-.29,2.57-.69.14-.64,3.06-.12.49-.31a2,2,0,0,1,.42-.12l0-.59,3.35.06,5-1,2.7-1,2.87.46.41-.48,1.61-.22c.83-.12,1.66-.23,2.49-.31,1.46-.13,2.92-.24,4.38-.35l.48,0,0-.93,1.28-.13c.35,0,.71-.11,1.07-.18a7.12,7.12,0,0,1,3.25-.08,5.69,5.69,0,0,0,2.24-.05,7.3,7.3,0,0,1,4.15.31l1.27.07a28,28,0,0,1,3.77.36c2.94.55,5.89,1.21,8.74,1.86l2,.44c.82.18,1.64.41,2.45.64l1.44.47c.65.41,1.29.85,1.92,1.28a25.09,25.09,0,0,0,5.28,3c2.66,1,4.2,3.33,5.14,5l.51.9a24.62,24.62,0,0,1,1.89,3.8,14.89,14.89,0,0,1,.67,3.29c.05.41.1.82.17,1.23a5.17,5.17,0,0,1,.06.73c0,.07,0,.13,0,.19,2.45,3.18,1.82,6.85,1.32,9.8l-.08.46a16.38,16.38,0,0,1-4.26,8.41,31.21,31.21,0,0,0-2.11,2.59c-.32.43-.65.85-1,1.28l-.14.16-2.36,2.21c-1.71,1.59-3.42,3.19-5.1,4.81a42.91,42.91,0,0,1-10.24,7.52L437,408.2l-2.45,1.27c-1.1.47-2.12.85-3.15,1.23a32,32,0,0,0-6.25,2.83,20.67,20.67,0,0,1-4.88,2.11,22.35,22.35,0,0,0-3.47,1.36,8.86,8.86,0,0,0,1.39.55,80.12,80.12,0,0,1,10.76,4.21c1.67.74,3.33,1.49,5,2.18l.82.32a10.38,10.38,0,0,1,3.13,1.62,9.44,9.44,0,0,0,1.81,1.1c.39.2.78.4,1.14.61a60.71,60.71,0,0,0,6.4,3.14c1.09.48,2.17,1,3.24,1.48a23.35,23.35,0,0,1,2.06,1.15c.37.22.74.45,1.12.66l1.08.6c2,1.11,4,2.21,6,3.27.59.31,1.21.58,1.83.86s1.18.52,1.76.81.9.51,1.34.79.69.44,1.06.63l.58.27a6.84,6.84,0,0,1,1.67,1l.6.37a12.08,12.08,0,0,1,1.84,1.32,10.1,10.1,0,0,0,1.34,1,7.23,7.23,0,0,1,3.17,3.28,2.62,2.62,0,0,0,2.54,1.79l-.8,1.38a5.65,5.65,0,0,0,.73.09l-1.06.56-.67,2a11.12,11.12,0,0,1-2.53.92,7,7,0,0,0-2.31.91,5,5,0,0,1-2.49.75l-.56.07-4.55,1.73-3.11-.14-.33-.08c-.42-.12-.84-.26-1.27-.41-1.19-.42-2.19-.73-3.1-.22a2.67,2.67,0,0,1-2.16.08l-1.35-.45a22.24,22.24,0,0,1-3.9-1.56c-1.41-.77-2.77-1.64-4.09-2.48s-2.8-1.78-4.24-2.55a17.64,17.64,0,0,1-1.89-1.23,6.93,6.93,0,0,0-3-1.52l-.92-.12-.29-.88c0-.09-.06-.19-.08-.28l-1.08.56-.55-1.61c-.14-.41-.31-.63-1-.81l-.14,0a3.65,3.65,0,0,1-2.75-2.21,6,6,0,0,0-.67-.39l-.39-.21q-4.78-2.69-9.6-5.31h-.26l-.36,0-4.34-1.09-.43-.4-.06.27-1.4-.3a9.81,9.81,0,0,1-4.94-3.09l-1.16-.3-.26,1.73c-.37,2.48-.71,4.81-1,7.19-.33,2.87-.59,5.8-.84,8.64-.11,1.27-.23,2.53-.35,3.79l0,.4-1.74,2.35c-1,1.4-2.12,2.85-3.24,4.23a5.81,5.81,0,0,1-1.64,1.28c-.19.11-.38.23-.56.35l-.77.53-1.78-1-5.09.21-.94-4.12-1.33-.55V458l-2.44-3.58-.42-.17,0-.49-2.24-3.29,2.07.69c0-.19,0-.39,0-.58-.15-2.06-.3-4.19-.31-6.32,0-2.76.11-5.55.21-8.25,0-1.18.09-2.36.13-3.54l0-.25.58-2.79a15.68,15.68,0,0,0-.18-1.64,13,13,0,0,1-.18-2.87,9.06,9.06,0,0,1-4.79-2.76c-.33-.35-.7-.66-1.06-1a17.27,17.27,0,0,1-1.42-1.34,14,14,0,0,1-3.61-8.19l1.68-.87,1-.15c.09.14.33.45.49.45a2.06,2.06,0,0,0,.44-.08l1.39-2.44.6-.16.41-.08a10.16,10.16,0,0,1,4.87-3l.19-1.35,1.77-.08.2-1.09c.37-2,.73-4,1.11-5.94a22.28,22.28,0,0,0,.07-7.93,23.1,23.1,0,0,1-.09-5.15,24.48,24.48,0,0,0,0-4,14.19,14.19,0,0,1,1.38-6.76,14.08,14.08,0,0,0-2.82.65l-.92.27c-.88.25-1.74.59-2.66.94s-1.87.73-2.86,1A6,6,0,0,1,376,376c-.25,0-.5-.06-.75-.07h-2.56l-.43-.71C370.78,372.67,370.82,372,372.6,369.84ZM357.21,492.12a7.77,7.77,0,0,0,.73,1.55c.18.33.37.68.56,1l.25.5-.15.54a4.4,4.4,0,0,0,.48,3.26,7.33,7.33,0,0,1,1.08,4.91,7.22,7.22,0,0,0,0,1.17,9.31,9.31,0,0,1,0,1.77,19.26,19.26,0,0,1-2.19,5.89l-.13.26a30.83,30.83,0,0,1-3.15,4.74,20.6,20.6,0,0,0-3.52,5.86,3.37,3.37,0,0,1-2.85,2.62,15.88,15.88,0,0,1-9.32,6.59l-1.35.44c-1,.33-2,.66-3,1-3,1.08-6,2.17-8.94,3.31-.82.32-1.61.72-2.45,1.14l-1.2.59-.27.13-.46,0-2.59,1.14-3.3,2.46a84.84,84.84,0,0,1,9.06,3.83c1.15.54,2.3,1.08,3.46,1.6.9.4,1.76.88,2.58,1.34a17.85,17.85,0,0,0,3.88,1.78,7.43,7.43,0,0,1,2,1c.23.15.47.29.7.42l2.89,1.51,1.29.67,9.28,4.38-.07.34a1.92,1.92,0,0,1,.4.21l.53.36a6.25,6.25,0,0,0,3.4,1.53h.46l.46.27,5.93,4.18.16.35c0,.08.08.17.11.27,2.22.89,4.51,2.25,5.6,5.12h0a5.24,5.24,0,0,1,.53.28l.28.17.18.28c1.78,2.78,0,4.43-.8,5l-.57.4-.67-.19c-1.65-.48-3.41.19-5.25,1-.65.27-1.29.54-1.93.75-3.14,1.06-5.28,1-7.58,0l-1.78-.82c-1.31-.6-2.61-1.2-3.91-1.84-2.16-1.05-4.06-2-5.81-3-1-.53-2-1.11-2.92-1.68l-1.29-.76-.91-.49a19.32,19.32,0,0,0-2-1,23.33,23.33,0,0,0-2.35-.75l-1.14-.33-.26-.11-4.74-2.55-.54-.34a6.35,6.35,0,0,0-.76-.45q-2.8-1.31-5.61-2.59L315.21,562c-1.48-1.19-2.61-1.61-3.94-1.41l-.42.06-.39-.17-1.29-.53a24.5,24.5,0,0,1-3.06-1.4c-1.52-.87-3-1.83-4.44-2.76l-1-.64a13.58,13.58,0,0,0-.14,1.68l0,2.17c0,4-.05,8.15-.49,12.25,0,.43-.08.87-.11,1.32-.19,2.66-.43,6-3.56,8l-1.75,1.12-.15-.65a7.77,7.77,0,0,0-.92.78c-.31.29-.62.58-1,.83l-1,.76L290.16,582l-1.1,1.74-3.81-4.58-.09-.26a6.19,6.19,0,0,1-.25-1.8h0l-1.2,1.86-1.68-4.2.11-2.77.11-.25c.06-.14.13-.27.21-.41l.05-.1c0-2.86.09-5.81.06-8.7a12.46,12.46,0,0,0-.23-1.91c-.06-.34-.12-.68-.17-1l0-.12.12-3.51v-6.24l-1.52-.6c-4.2-2.47-8.27-6.92-7.91-11.32l.21-2.52,2.08,1.44a1,1,0,0,0,.52.2,1.94,1.94,0,0,0,1.17-.81,3.88,3.88,0,0,1,2.77-1.37l1.26-.25c.75-.16,1.5-.32,2.25-.46a2.88,2.88,0,0,0,1.09-.31,2.55,2.55,0,0,0,.14-.95,5,5,0,0,1,1-3l-1.37-3.06,1.49.12.61-3.92c0-.5.1-1,.16-1.52a10.68,10.68,0,0,0,.11-2.77,18.24,18.24,0,0,1,0-7,3.24,3.24,0,0,1-.17-.32,7.3,7.3,0,0,1-.29-5l-1.5.51a15.92,15.92,0,0,1-6-.22c-.58-.11-1.14-.21-1.67-.27l-.33,0-4.26-2.71.14-3,1.15-2.2,2.53-1.94-.37-2,9-4.61c.25-.14.56-.3.88-.46a7.5,7.5,0,0,0,1.51-.91,14.13,14.13,0,0,1,4.88-3l1.7-.59c.72-.25,1.43-.51,2.16-.74,1.59-.51,3.18-1,4.78-1.49l2-.62a20.62,20.62,0,0,1,4.25-.75,12.91,12.91,0,0,0,4.89-1.14l.47-.25.52.11a8.38,8.38,0,0,0,3.54-.37c.48-.12,1-.24,1.45-.33a15.84,15.84,0,0,1,3.75-.09l.67,0c3.19.18,6.38.38,9.57.58l3.47.22,1.29-.11c1.08-.09,2.2-.19,3.33-.2h0a10.15,10.15,0,0,1,5.24,1.63c.58.33,1.15.69,1.71,1.05a19.12,19.12,0,0,0,3.56,1.93A11.15,11.15,0,0,1,357.21,492.12Zm-87.67-49.87c-.05.33-.25,5.12-.29,7.19L269,451.5l-3,2.18a21.89,21.89,0,0,1-6,1.31c-1.7,0-3.4-.16-5.1-.27a3.08,3.08,0,0,1-1.94-.78l-.2-.47c0-3.51-.13-11.28-.18-11.65h0c-.06-3.8-.09-7.6-.17-11.4-.13-5.63-.29-11.26-.44-16.89q-.09-3.43-.2-6.86a.94.94,0,0,0-.12-.29l-10-.33-.59-.4c-.08-1.26-.19-2.52-.22-3.77,0-1.86,0-3.72,0-5.59,0-.9.14-1.8.21-2.7.92-.81,1.86-1.61,2.77-2.45a4.85,4.85,0,0,1,3.69-1.14c1.13,0,2.26,0,3.39,0,.26.05,6.4.35,9.21.45l.92.06c.13,0,5.3.28,7.76.36,2,.07,4,.13,6,.25,1.29.08,2.57.25,3.86.4a4,4,0,0,1,.68.2,2.67,2.67,0,0,1,.91,2.23c0,2,0,4,0,6a8.83,8.83,0,0,1-.13,1,12.19,12.19,0,0,1-4.44,3.76,2.65,2.65,0,0,1-1.06.23c-1.23,0-2.47,0-3.7,0-.1.1-.28.18-.29.29a10.91,10.91,0,0,0-.08,1.26q-.14,7.8-.27,15.59c0,.46,0,.91,0,1.37-.19,3.26-.4,6.51-.59,9.77,0,.74,0,1.48,0,2.21q-.09,3.37-.18,6.74Zm-9.72,280.39c-.82,1.06-2,.61-3.08.63l-1.93,0c-1.94.14-3.87.33-5.82.39a15.16,15.16,0,0,1-2.55-.34c1-.85,2.21-.67,3.38-.73l5.37-.27c1.4-.12,2.81-.26,4.21-.34C259.54,722,259.69,722.42,259.83,722.65ZM235,724.35l-1.08-.32,1.44-.25c1.75-.23,3.49-.49,5.25-.68a3.78,3.78,0,0,1,1.19.28c-.14.21-.26.6-.41.61-2.13.15-4.26.25-6.39.36l.36-.58Zm39.37-360.29.16-.25-.14.26Zm3.09,0,.15-.28.15.28A1.05,1.05,0,0,1,277.41,364.07Zm22.91,47.56h.42l1.63-.09c2.41-.14,4.82-.49,7.23.08.35.13.7.27,1,.39a7.12,7.12,0,0,1,4.42,4.79,12.57,12.57,0,0,1,.77,3.41c0,1.3.18,2.3.17,3.61,0,3.91,0,7.82-.06,11.73,0,.26-.4,11.46-.43,13.11-.06.65-.16,1.31-.18,2a2.34,2.34,0,0,1-1.06,2,11.94,11.94,0,0,0-.94.81,4.93,4.93,0,0,1-3.77,1.62c-.89,0-1.78.1-2.67.11-1.91,0-3.82,0-5.85,0-.07-1.67-.12-3.31-.2-4.95,0-.37-.45-7.27-.57-10.11-.07-1.84-.37-6-.37-6.26l-.24-7.57-.5-.55c0,.4-.06.57-.07.74-.08,3.14-.25,6.28-.33,9.42,0,.8-.28,6.77-.36,8.8-.09,2.46-.16,4.91-.25,7.37a6.31,6.31,0,0,1-.22,2,4.23,4.23,0,0,1-1.13,1.42,12.55,12.55,0,0,1-1.63,1.23,1.56,1.56,0,0,1-.75.23c-.58,0-1.17,0-1.75,0l-8.32.22c-.51-.44-.89-.83-.78-1.49-.06-1.12-.15-2.24-.19-3.37-.1-3.59-.37-11.37-.42-11.67h0c0-2.35-.17-8-.17-8.23q0-18.72,0-37.44a3.16,3.16,0,0,1,1.59-1.91c1-.66,2-1.26,3-1.89h11.23a8.82,8.82,0,0,1,.92.09,2.63,2.63,0,0,1,1.66,2.27,13.48,13.48,0,0,1,0,1.67c0,1.64-.18,3.29-.31,4.93-.14,1.86-.46,5.66-.47,5.78a32.62,32.62,0,0,0-.4,5.11C300,411.43,300.09,411.6,300.32,411.63Zm52.74.51a25.3,25.3,0,0,1,.27,2.81c-.05,4.13-.16,8.26-.25,12.39a3.84,3.84,0,0,1-.05.42,8.33,8.33,0,0,1-3.65,4.9,9.67,9.67,0,0,1-.94.37,8,8,0,0,1-1.87.46c-3.28.11-6.56.15-9.83.24a11.73,11.73,0,0,0-1.26.17,6.73,6.73,0,0,1,.14.92,6.92,6.92,0,0,0,.66,2.45c.46.76,1.68.75,2.72.74s2.31-.16,3.47-.26c1.39-.12,2.78-.28,4.17-.39a5,5,0,0,1,2.78.51,2,2,0,0,1,1.17,1.92c0,1-.14,2-.23,3s-.21,2.22-.38,3.31c-.13.82-.36,1.61-.54,2.42-.23,1-1.14,1.33-1.76,1.95a6.55,6.55,0,0,1-1,.69,8.4,8.4,0,0,1-4.37.94c-4.53,0-9.06,0-13.59,0a10.09,10.09,0,0,1-2.11-.37,14,14,0,0,1-1.35-.45,6.87,6.87,0,0,1-3.82-5.11,4.73,4.73,0,0,0-.13-.63,69.35,69.35,0,0,1-.93-10.78c-.13-4.46-.07-8.93-.09-13.39a36.59,36.59,0,0,1,1-6.69,11.65,11.65,0,0,1,5.5-6.75c1.26-.78,2.52-1.57,3.82-2.29a20.21,20.21,0,0,1,2.13-.9,14.68,14.68,0,0,1,5.06-.42c1.06.06,2.08,0,3.14.11a18.65,18.65,0,0,1,7.26,1.84,19.8,19.8,0,0,1,2.66,2,8.61,8.61,0,0,1,2.07,3.52A2.53,2.53,0,0,0,353.06,412.15Zm60.7,324c-3.11-.07-6.23.12-9.35.15-4.58,0-9.17.15-13.75,0-5.78-.13-11.55-.4-17.32-.7-5.41-.28-10.81-.7-16.22-1-2.78-.16-5.56-.25-8.34-.35l-12.42-.43-8.44-.31-8.34-.34c-3.12-.13-6.24-.3-9.36-.38-5.32-.13-10.66,0-16-.39-2-.13-4,.12-6,.06-3.57-.1-7.15-.28-10.72-.31-2.21,0-4.43.23-6.65.23-2.65,0-5.31-.2-8-.24-2.94,0-5.89,0-8.83,0-3.61-.07-7.22-.31-10.83-.28-2.69,0-5.38.39-8.07.54-1.65.1-3.3.11-5,.12-3.28,0-6.57,0-10,0l-.67.81-1.69-.18-.31-.92a15.56,15.56,0,0,0-2.54-.26c-2.21.12-3-.2-4.07-2,.57-1.13,1.46-.43,2.17-.32l1.72-1c-.07-1.63-.11-3.27-.21-4.9q-.28-4.64-.62-9.29c-.29-3.89-.56-7.79-.92-11.67-.31-3.37-.82-6.73-1-10.1-.2-3-.09-5.92-.16-8.88-.05-2.18-.23-4.35-.25-6.53,0-1.62.18-3.24.16-4.86,0-3-.13-5.92-.22-8.88-.07-2.43-.16-4.86-.24-7.29,0-1.35-.13-2.7-.1-4,0-2,.2-4,.28-6,0-.85,0-1.71,0-2.57,0-2.82,0-5.64-.09-8.45,0-2.05-.21-4.11-.19-6.16.05-5.27.18-10.54.27-15.81.05-3,.07-6,.13-9,.11-5.43-.42-10.42-.16-15.84,0-1,0-1.79,0-2.57l1.42.28c0-.63-.05-1.26-.09-1.89s-.07-1.2-.1-1.8c-.22-4.08-.52-8.15-.75-12.23-.15-2.67-.14-5.36-.43-8a15.63,15.63,0,0,1,0-4.81,10.49,10.49,0,0,0-.31-2.74,20.29,20.29,0,0,1-.21-3.84c.44-4.2-.08-8.38-.14-12.57-.07-5,0-10,0-14.93,0-2.24.26-4.49.28-6.73,0-1.51-.26-3-.25-4.52,0-3.73.14-7.45.21-11.18,0-1.81.11-3.62,0-5.43-.06-1.44-.34-2.87-.5-4.3,0-.33,0-.66,0-1q0-1.9-.11-3.8a8,8,0,0,1-.07-1.92c.6-2.74.25-5.48.1-8.22-.09-1.6.22-3.22.21-4.84,0-4.39-.2-8.78-.22-13.18,0-2.66.23-5.33.21-8s-.27-5.11-.38-7.67c0-.73.11-1.47,0-2.2-.3-2.75,0-5.5,0-8.25,0-.87-.24-1.73-.24-2.6,0-1,.21-2.07.24-3.1,0-1.61.08-3.21,0-4.82-.09-4.67,0-9.35,0-14s0-9.48.05-14.21c0-2.62.21-5.23.35-7.84.11-2.09.22-4.17.41-6.25.14-1.55.44-3.08.62-4.62.2-1.75.31-3.5.51-5.25.08-.74.33-1.47.43-2.21.25-1.9.44-3.8.69-5.69.07-.5.32-1,.36-1.49a2.77,2.77,0,0,0-.31-1l1.18-1.54-4.89-.2c.08-1.22.08-1.22,4.9-1.28-.21-.38-.3-.83-.55-.92a8.16,8.16,0,0,0-2-.39c-.86-.07-1.79.19-2.25-.86-.09-.21-.8-.2-1.36-.32l.94-.8-.9-1.11a23.82,23.82,0,0,1,3.43-1.33,21,21,0,0,1,3.5-.21l2.31-4.31,2.2.11c.74.79.41,2.4,2.05,2.7l.73-1,1,3.53c1.8.24,3.76.66,5.74.73,3.47.12,6.85,1,10.37.78,2.06-.12,4.15.28,6.22.29q11.18.06,22.36,0c4.45,0,8.9-.21,13.34-.23,2.41,0,4.83.27,7.23.21s4.89-.42,7.34-.55c2.09-.11,4.19-.06,6.29-.13,3.16-.1,6.34-.09,9.48-.38a107.59,107.59,0,0,1,12.28-.64,12.27,12.27,0,0,0,2.6-.34,35,35,0,0,1,7.06-.42c2,0,4-.19,6-.3a1.91,1.91,0,0,1,.57,0c2.45.65,4.9-.15,7.35,0,1.22.07,2.43.17,3.65.24l-1.14,9.92c-4.39,0-8.78,0-13.17.05-2.56,0-5.11.43-7.67.67-.12,0-.25.14-.35.12-3.51-.86-7,.59-10.54,0a1.63,1.63,0,0,0-.88.18,5.86,5.86,0,0,1-3.73.27,5.92,5.92,0,0,0-3,.21,6,6,0,0,1-2.58,0c-.54-.06-1-.18-1.29.36a.92.92,0,0,1-.68.22c-2.92-.09-5.85.28-8.74,0-1.5-.15-3.17,0-4.5-1l0,.65.35.7-.23.17.23.11c.44.67-.17.41-.4.34a10.55,10.55,0,0,1-1.15-.49l-.17,0-.17,0-.44-.44c-1-.23-1.44.41-1.87,1s-1,.14-1.56,0l-.76-.31h0l-.37-.08-.36.1L285.4,363a5.13,5.13,0,0,0-4.06-.31,5.7,5.7,0,0,1-1.31,0c0-.12-.1-.25-.16-.36.06.11.11.24.16.36-.88-.21-.72.68-1.17.93-.48-.47-1.48-.4-1.55-1.29l-.4.74a.29.29,0,0,1,0,.25l-1.12.26-.08.77-.28-.27-.36-.71h-.41l-1.13,0-1.51-.31a1.29,1.29,0,0,1-.07.27v.38a1.17,1.17,0,0,1-1.51-.3l-1.09-.47h-.43c-1.4.27-2.9,0-4.24.71-.31.17-.92-.14-1.38-.23l-2-.4-3.05-.33-.44.29.06-.65-.06.65-.72.36-1.52,0-.76.06-.22.46c-1.26-.57-2.79,0-4-.83l-.67-.1-.13,1-1.11,0-.78-.13h0l-.38.27a2.56,2.56,0,0,1,0-.31,2.56,2.56,0,0,0,0,.31,1.37,1.37,0,0,1-.37.07.55.55,0,0,0,0,.33l-.36,0,0,.35h.38v-.36h0l.8.05a1.25,1.25,0,0,1,.35,0l.38-.5.36.43-.75.38a1.19,1.19,0,0,1-.38,0h0l-.8.31a.55.55,0,0,1-.33,0h0l-1.12-.34.75-.33v-.36h0l-.69-.29-.54,0-.76.26a.28.28,0,0,1-.33.05,1.35,1.35,0,0,0-.06-.32l-.34-.36a1.36,1.36,0,0,0,.37,0l.18-.35h.69l.7-.42.38.19.4.23.38.3c.39-.1.83-.28.78.38l.33,0-.11-1.34h-2.16c-1-.38-1.88-.53-2.29.69-.5,0-1.1-.18-1.49,0a3.11,3.11,0,0,1-2.65-.13,10.83,10.83,0,0,0-2.36-.28c-.26-.68-.88-.74-1.53-.73l-.4-.32.38.69.32.33-.72.33a1.14,1.14,0,0,0-.33.12.76.76,0,0,1,0,.29l.33.13-.76.54-.7.33-.39-.29h0v.68l-.78-.33-1.84-.05-.78-.23-.5-.43.5,0,0,.05.69-.36.41,0-.41,0c-.2-.58-.46-1-1.12-.36l.09.37-.39,0a.69.69,0,0,1,0-.34l-.07,0-.38-.43a.63.63,0,0,1-.31.05,1.05,1.05,0,0,1,0-.34l-.41-.36v0h.18l.18,0,.12.42-.12-.42.91-.3-1.27-.3-1.51.3.77.67a2.17,2.17,0,0,0,.36.08.43.43,0,0,0,0,.31,1.52,1.52,0,0,1-.06.33l-.71,0h-.75l-.12-.57-.76.59c-.19,0-.52,0-.54.11-.51,1.93-1.29,3.79-1.24,5.85,0,1.73-.31,3.46-.44,5.2-.16,2.21.06,4.5-.5,6.61s.34,4.38-.67,6.44c.39,3.13-.25,6.25-.23,9.36,0,2.9.07,5.79-.14,8.69a19.86,19.86,0,0,0,.3,3.64c.08.73-.9,1.43,0,2.16a46.24,46.24,0,0,0,0,8.31c.15,1.56-.27,3.16-.25,4.74,0,1.86.25,3.73.32,5.59,0,1.1-.06,2.21-.05,3.31q0,8.12.07,16.24,0,6.47.12,12.95c0,1.84.13,3.68.16,5.52,0,3.65.09,7.3.08,11,0,3,.08,6.06.21,9.1.2,4.76-.14,9.54-.16,14.31,0,2.66.19,5.32.24,8,0,1.87,0,3.74,0,5.62-.07,3.91-.17,7.82-.23,11.73,0,2.66-.06,5.32,0,8,.08,3.5.26,7,.34,10.5,0,.91-.2,1.83-.26,2.75a3.67,3.67,0,0,0,.19,1,12.9,12.9,0,0,1,.18,5.3,18.87,18.87,0,0,0,0,3.93c0,1,.11,2.09.16,3.13s.05,2,.12,3.07c0,.62.15,1.23.25,2l.24.17-.23,8.76c1.16,1.09-.48,2.8,1,3.83-.72,1.73-.08,3.37.22,5.21,0,.11,0,.23.05.34s-.37.31-.37.58a7.22,7.22,0,0,0,.27,2.63,2.47,2.47,0,0,1,.11.46l-1.49-.16c-.16,1.75-.4,3.49-.51,5.24-.13,2.06.28,4.07.09,6.1-.1,1-.21,2.07-.32,3.1a3.56,3.56,0,0,0,0,.53c.1,2,.33,4.09.27,6.13-.1,2.94-.47,5.88-.63,8.83-.07,1.33.13,2.67.13,4,0,1.62-.11,3.25-.13,4.87,0,2.35,0,4.69,0,7,0,2,.15,3.91.14,5.87,0,3.77-.18,7.55-.15,11.32,0,2.78.34,5.55.34,8.32,0,3.33-.22,6.67-.33,10,0,.7,0,1.41,0,2.11,0,4.42,0,8.84,0,13.26a18,18,0,0,0,.28,4.38,16.61,16.61,0,0,1-.08,3.81c0,1.14,0,2.29.08,3.43,0,.82.14,1.64.09,2.45-.26,4.11.8,8.17.45,12.29a21.73,21.73,0,0,0,.31,2.76c0,.19-.43.41-.67.61a1.14,1.14,0,0,0,0,.29l.86.17-.86.55v0l0,0a19.33,19.33,0,0,1-.13,8.47c1-.33,1.44.93,2.41.32l.15-.25.3.25.73.07a.42.42,0,0,1,.37,0h.79l.75.23a16.63,16.63,0,0,0,1.9.06c2.75-.21,5.49-.49,8.24-.69,2.38-.17,4.77-.27,7.15-.39q6.8-.35,13.6-.68c1,0,2,0,3,0a2.63,2.63,0,0,0,.79-.31l-1.85-.72c-.06-.51.17-.72.75-.71,1.07,0,2.14,0,3.21,0,2.49-.08,5-.19,7.47-.28a18.83,18.83,0,0,1,2.45,0c.25,0,.47.4.7.61l-.49.58-1.14-.43A11,11,0,0,1,271,723c-2,.06-4,0-6,0a5.77,5.77,0,0,0-1.44.42l2.41,0c7.94,0,15.88-.09,23.82-.06q16.19.07,32.38.28c5.9.07,11.8.23,17.7.43,4.55.15,9.11.41,13.66.6a4.29,4.29,0,0,0,1.07-.23,6.12,6.12,0,0,0,1.2.31q2.79.15,5.58.23c1.18,0,2.37,0,3.55,0,1.38.15,2.75.39,4.14.45,4.18.17,8.37.27,12.56.38,1,0,1.91,0,2.86,0,4.68.21,9.36.46,14,.67,2.15.1,4.3.19,6.45.19a33.08,33.08,0,0,0,3.32-.31c-4.33-.26-8.63-.42-12.94-.58-2.65-.1-5.31-.23-8-.32L374.15,725c-.75,0-1.51-.1-2.26-.12-2.32,0-4.63-.07-7-.1-1.12-.14-2.23-.35-3.36-.41-2.32-.13-4.65-.18-7-.26-2.56-.15-5.12-.34-7.69-.45-3.31-.14-6.63-.23-9.94-.32q-7.12-.21-14.23-.39l-17.25-.39-.19,0c-2.61,0-5.22,0-7.82.08-3.13.07-6.27.24-9.4.27-2.56,0-5.12-.13-7.68-.15-.74,0-1.5.27-2.22.19a9.44,9.44,0,0,1-2-.67,14.69,14.69,0,0,1,3-.67c5.5-.1,11-.09,16.5-.14,1.37,0,2.74-.16,4.11-.17,2.1,0,4.2,0,6.3,0,5.15.08,10.31.14,15.46.24,6.16.11,12.33.21,18.49.4,3.21.09,6.42.34,9.63.54a32.79,32.79,0,0,0,5.51.35c2.71-.3,5.33.31,8,.2,2-.08,3.92.19,5.88.3,3.78.21,7.55.51,11.33.57,3.32.06,6.65.11,10,.19,5.42.14,10.84.42,16.27.62,1.65.06,3.3,0,4.95,0s3.27.34,4.89.25a36.32,36.32,0,0,1,3.86.06c1.62.08,3.26.23,4.88.28.9,3.75,2,7.5,2.83,11.25C423.27,736.45,418.51,736.24,413.76,736.13ZM228.42,363a.93.93,0,0,1,0,.33.79.79,0,0,1-.31,0,.9.9,0,0,1,0-.32h.36Zm-.38.73h0c-.62.69-1.23.25-1.83,0a.65.65,0,0,1,0-.34l1.13.32.7.05h0Zm-2.33-.35a.66.66,0,0,1,0,.3l-.57-.17.25-.19A.53.53,0,0,0,225.71,363.41ZM444,587.68l-3.79,1.23-.62-.55a.47.47,0,0,0-.2,0h-1.56l-.3-.09-1.92-.72a2.48,2.48,0,0,1-1.11-.82l-4.77-6.43c-.05-.15-.1-.31-.14-.46a2.84,2.84,0,0,0-.14-.42c-1-1.59-2.06-3.17-3.11-4.74l-.21-.12-.3-.18-2-3.24a3.56,3.56,0,0,0-1.31,1.52,3.94,3.94,0,0,1-1.42,1.7l-.33.27a4.23,4.23,0,0,1-.67.46,1.83,1.83,0,0,0-.2.13,18.64,18.64,0,0,1-5.81,4.78c-.55.34-1.11.68-1.65,1a7.27,7.27,0,0,1-1.87.81,8.29,8.29,0,0,0-.85.3,2.39,2.39,0,0,1-.52.16l-2.54.46c-2,.35-4,.71-6,1.16-.59.14-1.2.24-1.81.34a8.54,8.54,0,0,0-4.16,1.44,1.81,1.81,0,0,1-1.16.39,2.56,2.56,0,0,1-.46,0l-1.57-.32-.37-.08a2.47,2.47,0,0,1-.47-.15l-1.64-.69-3.48-1.46-1.35-.54-.34-.19-3.56-2.7-5.6-7a8.5,8.5,0,0,1-1.68-5.19l-.18-.41h-.64l-.7-1a4.57,4.57,0,0,1-1-3.18,2.17,2.17,0,0,1-1.11-1.34,48.4,48.4,0,0,1-1.34-7.33,16.73,16.73,0,0,1,.08-3,10.39,10.39,0,0,0,0-3.27,5.88,5.88,0,0,1,.49-3.32c.12-.35.25-.69.34-1a7.16,7.16,0,0,0,.08-3.3,12.46,12.46,0,0,1-.12-3.18c.08-.64.15-1.3.22-1.95.16-1.49.32-3,.57-4.54a69.29,69.29,0,0,1,1.47-7,3.93,3.93,0,0,1,1.46-1.92l.33-.29,0,0,.24-.76c.06-.18.13-.37.2-.56a3.1,3.1,0,0,0,.14-.41c-.11-4.32,1.64-6.9,5.68-8.33a3.89,3.89,0,0,0,.66-.41c.21-.14.44-.3.7-.46l.77-.48,2.88,1.78a2.29,2.29,0,0,1,1.37-1v-.47l1.42.43.61.76,1.15-.39.67,1,.31-.06c0,.13.06.25.1.38a4.22,4.22,0,0,1,.21,1.6c-.19,1.89.37,2.59,1.39,3.17a2.64,2.64,0,0,1,.93.89l0,0,.08.2a2.4,2.4,0,0,1,.19.49l2.47,6.44-1.07,0v0l.38,1.08-.6,2.14-.4.65-2.1,8.77a11.27,11.27,0,0,0-.73,4.47c.06,1.19,0,2.38,0,3.53,0,.73,0,1.46,0,2.19l0,.07c.09.14.18.28.26.42l.22.42-.07.47c-.05.38-.12.76-.18,1.15a19.56,19.56,0,0,0-.29,2.33c-.07,1.84-.07,3.77,0,5.76s1.25,3.3,2.66,4.83a19.06,19.06,0,0,0,2.45,2.1c.43.33.85.65,1.27,1a4.6,4.6,0,0,0,2.46,1c.44,0,1.15-.14,2.23-1.31l.17-.16a2.3,2.3,0,0,1,1.06-.65A22.5,22.5,0,0,0,408.7,563l1.46-.82a14.65,14.65,0,0,0,3.56-2.85,6.62,6.62,0,0,1,1.16-3.14,4,4,0,0,0,.75-1.8,1.94,1.94,0,0,1,.66-1.54c.89-.7.82-1.43.4-3.18-.08-.34-.16-.68-.23-1l-.1-.51a55.18,55.18,0,0,1-1.2-9.25c0-2.39-.31-4.86-.57-7.24-.11-1.07-.23-2.15-.33-3.22v-.22c0-.57,0-1.13-.05-1.7a11.13,11.13,0,0,1,.84-5.92l.41-.79h2.11l2.17-2,.92.41.66.33c.83.43,1.47.77,2.15.54a3.25,3.25,0,0,1,2.27.35l.1,0,.13,0,1.38,1.11v0l.1-1.55a6,6,0,0,1,.8,2.91l1,1.56a1.81,1.81,0,0,0,.41.53c0-.15,0-.29,0-.44,0-1.34.5.8,0,.44a11.26,11.26,0,0,0,0,1.3l7.11,17.26-1.56-1.66a50.55,50.55,0,0,0,2.77,7.5,2.24,2.24,0,0,1,.13.35c.09.32.17.65.25,1a6,6,0,0,0,.54,1.62,22.66,22.66,0,0,1,1.58,3.26,15.16,15.16,0,0,0,1.91,3.63,10.06,10.06,0,0,1,1.38,2.66c.12.31.24.61.37.91a47.32,47.32,0,0,0,6.9,10.86l.45.54-.15.69a4.56,4.56,0,0,1-.13.45c.42.82.87,1.64,1.39,2.56l1.79,3.24-3.05.2.95,5.58-1.89-1-.78,3.74-1.76-1.59.14.38-2.9,1.45Zm70.22,119.06a43,43,0,0,1-1.67,9.33,57.82,57.82,0,0,1-3,7.47,11.06,11.06,0,0,1-1.26,1.92,28.42,28.42,0,0,1-5.27,5.44c-1.08.8-2.22,1.74-3.38,2.57-.56.4-1.24.64-1.81,1a30.4,30.4,0,0,1-4.39,1.51,38.64,38.64,0,0,1-6.94.78c-5.5,0-11-.15-16.49-.29a28.4,28.4,0,0,1-4.9-.42c-2-.4-3.9-1.09-5.84-1.66-3.95-1.34-7.39-3.32-9.1-7.5l-2.1-5a7.22,7.22,0,0,1-.5-3.26q0-7.49,0-15a22.86,22.86,0,0,1,.25-2.72,2.11,2.11,0,0,1,.78-1.27c1.13-.78,2.51-1.48,3.66-2.38h0c1.84-.12,3.68-.22,5.51-.36s3.48-.29,5.22-.44c1.37-.1,2.75-.17,4.12-.29,1.75-.15,3.51-.33,5.26-.53,2.7-.3,3.3,1.58,3.31,2.22,0,2.47,0,5,0,7.43,0,.74-.18,3.76,2.27,4.18,1.5.26,3,.32,4.62.48l.14-.94c.2-2.1.31-4.22.61-6.31a13,13,0,0,0-1.37-8.47,9.63,9.63,0,0,0-6.13-4.22c-1.27-.33-2.53-.7-3.79-1l-7.29-1.89a51.79,51.79,0,0,1-10.55-4.75,17.44,17.44,0,0,1-6.09-6.36c-.78-1.31-1.42-2.7-2.07-4.09-.85-1.79-.72-3.75-.84-5.67q0-4,0-8c0-1.15,0-2.3.05-3.45,0-.92.17-1.83.25-2.74,0-.27.62-7.22,1.62-10.29a39.46,39.46,0,0,1,4.89-10.63,24.36,24.36,0,0,1,4.16-4.23,42.3,42.3,0,0,1,4-2.87,16.76,16.76,0,0,1,2.84-1.34,64.78,64.78,0,0,1,22.4-2.28c2.93.28,5.85.6,8.76,1,2.65.38,5.28.92,7.91,1.39a12.1,12.1,0,0,1,5.83,4,21.27,21.27,0,0,1,5,9.66,34.74,34.74,0,0,1,.33,4.22v6.69q0,.63,0,1.27a2.7,2.7,0,0,0-.17.62c0,2-.07,4.08-.11,6.13a3.38,3.38,0,0,1-1.6,2c-.9.55-1.72,1.22-2.58,1.84-.94.1-1.87.27-2.81.29s-1.81-.17-2.72-.16c-5.28.06-10.56-.18-15.82-.6a5.51,5.51,0,0,1-.48-1.58c0-1.63.18-3.26.23-4.89.06-1.91-.52-3.47-2.44-4.19-1.48-.55-3-1.11-4.45-1.59a1.08,1.08,0,0,0-1.46.89,26.71,26.71,0,0,0-.75,9.35c.27,2.69,2,4.49,4.22,5.79a40.24,40.24,0,0,0,8.84,3.45c3.8,1.14,7.65,2.13,11.44,3.33a11.93,11.93,0,0,1,3.11,1.83,35.07,35.07,0,0,1,4.52,3.51,12.07,12.07,0,0,1,3.23,6,35.32,35.32,0,0,1,1.07,7.44C514.58,688.47,514.43,705,514.26,706.74ZM581,696c0,2.35-.11,4.69-.17,7-.1,3-.25,5.94-.3,8.92q-.18,10-.28,20c0,1.41-1,2.09-1.83,2.9a14.22,14.22,0,0,1-2.83,1.2,30,30,0,0,1-5.28.59c-4.94.07-9.87,0-14.81,0h0a4,4,0,0,1-.77-2.7c-.1-3-.26-7.92-.34-8.26a10.26,10.26,0,0,1-.17-1.63c-.08-.73,0-2-.1-2.73-.18-2.06-.18-3.16-.39-5.68,0,0,0-.09,0-.13-.09-3.14-.19-6.27-.27-9.41,0-1,.07-2,0-3.06-.08-3.05-.2-6.1-.28-9.15s-.12-6.18-.22-9.27a14.49,14.49,0,0,0-.3-2.47,1.22,1.22,0,0,0-1-1.1,18.91,18.91,0,0,1-1.89-.56,66.13,66.13,0,0,0-.43,9.6,6.56,6.56,0,0,0,0,1c0,2.26-.06,4.53-.08,6.79-.1,2.47-.18,4.94-.3,7.41-.17,3.7-.37,7.41-.55,11.11,0,.48,0,.92,0,1.4s-.12,1.34-.14,1.77c-.06,1.37-.05,2.32-.14,3.69-.24,4.07-.4,7.86-.73,12.2a13.2,13.2,0,0,1-.33,1.66c-.94.75-1.86,1.53-2.84,2.24a5.87,5.87,0,0,1-3.47.9c-1.55.08-3,.06-4.51,0-4.45,0-8.89-.16-13.34-.25-.43,0-.91-.48-.88-1.35-.15-1.41-.3-2.81-.36-4.22-.13-2.8-.18-5.6-.25-8.4-.17-6.35-.36-12.71-.49-19.06-.14-6.71-.23-13.43-.34-20.14,0-1.11,0-2.23,0-3.34-.23-5.59-.53-11.31-.59-16.91-.11-9.56-.11-19-.09-28.57,0-5.2,0-10.41.07-15.61a2.28,2.28,0,0,1,1-1.89c1.67-1.23,3.09-2.83,5-3.73l22.79.06c.56,0,1,.11,1.69.08s2,1.12,2.22,1.56c.56,1.14.41,2.54.68,3.84a6.9,6.9,0,0,1,.08,1.33,92.32,92.32,0,0,1,0,9.44c-.5,5.37-1.19,11.61-2.07,16.06a12.82,12.82,0,0,0-.41,4.88,2.28,2.28,0,0,0,.68,1.58,1.45,1.45,0,0,0,1.1.2c2.67-.17,5.35-.3,8-.57a26.91,26.91,0,0,1,7.36.21c1.33.42,2.71.74,4,1.29a9.43,9.43,0,0,1,2.41,1.62c3.34,2.92,5.06,6.81,6.08,11.08a23.51,23.51,0,0,1,.33,2.48c.06,1.77.16,3.54.17,5.31,0,4.35,0,8.7,0,13Q581,693.18,581,696Zm74.41-10.46c-.09,4.16-.22,8.32-.33,12.48,0,.21,0,.42,0,.62,0,1.87-.15,3.74-.1,5.61.1,4.24.31,8.48.4,12.72a16.19,16.19,0,0,1-1.34,7.41c-.72,1-1.43,2-2.18,2.91s-1.68,2.09-2.55,3.11a10.14,10.14,0,0,1-1.3,1.32c-1.44,1.17-2.91,2.3-4.37,3.44a3.47,3.47,0,0,0-.57.17,19.41,19.41,0,0,1-8.93,2c-8.57,0-17.14,0-25.71-.07a22.08,22.08,0,0,1-4.57-.59c-1.41-.31-2.77-.88-4.15-1.34a17.6,17.6,0,0,1-7.51-6.78,22.38,22.38,0,0,1-2.93-8.86c-.2-1.5-.59-3-.71-4.48-.17-2.1-.17-4.21-.24-6.31,0-.12,0-.25,0-.37q0-10.12-.06-20.25a4.41,4.41,0,0,0-.16-.83c0-2.09.25-4.19-.22-6.27,0-.2.11-.46.18-.69q0-4,0-8c0-1.33,0-2.67.06-4a32,32,0,0,1,.5-4.13,88.07,88.07,0,0,1,2.67-9.86,16.78,16.78,0,0,1,6.46-8.81c1.45-1,2.74-2.27,4.12-3.4a9.76,9.76,0,0,1,.9-.6l1-.38a38.37,38.37,0,0,1,3.78-1.33,56.19,56.19,0,0,1,11.46-1.2,118.17,118.17,0,0,1,19.81.69c2.74.37,5.46.76,7.84,2.36.65.74,1.32,1.46,1.94,2.22,1.34,1.65,1.8,3.75,2.68,5.64,1.21,2.58,1.7,5.39,2.47,8.11q.41,2.58.81,5.16a78.8,78.8,0,0,1,1,11.78C655.55,678.36,655.45,681.94,655.37,685.52Zm8.63-105-.92-1.2-2.59,2.49-.44-2.61-.51-.45c-.46-.41-.65-.5-.73-.51a1,1,0,0,0-.26.16l-1.33,1-1-1.79h-1.81l-1.49-1.28-.13-.24c-.11-.2-.23-.4-.36-.6a7.59,7.59,0,0,1-.91-1.87c-.1-.36-.19-.71-.29-1.07l-1.24,2.9-1.81-4.25.34-.49a2.89,2.89,0,0,1-.15-.47,4.06,4.06,0,0,1,0-1.27c0-.1,0-.2,0-.3l0-.84v-.07l0,0a3,3,0,0,1-.46-1.54c0-1.44,0-2.92,0-4.36s0-2.74,0-4.11l.39-9.18c0-.36,0-.8,0-1.23,0-.94,0-1.82,0-2.7-.16-2.59-.35-5.19-.53-7.8L645.75,539a5.32,5.32,0,0,1-.19.8l-.06.2,0,.12c0,.13,0,.25.05.37l.94,9.44-2.34-5.47a4.85,4.85,0,0,1-.91,1.87l-.37.47c-.79,1-1.1,1.48-.91,2.16l.14.52-.23.48c-.09.18-.18.36-.27.54a5.43,5.43,0,0,0-.4.88,11.66,11.66,0,0,0-.27,1.38c0,.24-.08.47-.12.71l-.1.53-.42.34a4.69,4.69,0,0,1-.4.28h0c-.44,1.14-.87,2.27-1.29,3.41s-.82,2.2-1.24,3.29c-.07.17-.12.35-.17.52a3.91,3.91,0,0,1-2.56,3l-.89.29-.5-.54h-.12a3.09,3.09,0,0,1-2.49-1.33,7.76,7.76,0,0,0-1-.3,10.5,10.5,0,0,1-1.08-.34l-.26-.13a5,5,0,0,1-2.39-.42,2,2,0,0,0-1.15-.24,3.07,3.07,0,0,1-2.87-.94c-2.63-2.92-5.16-5.81-7.51-8.58a3.52,3.52,0,0,1-.69-1.7l0-.22,0-.07a3.24,3.24,0,0,1-2.06-1.51c-1.36-2-2.84-4.07-4.27-6l-1.48-2c-.37,1.53-.77,3.09-1.27,4.61-1.17,3.61-2.43,7.25-3.65,10.77q-1,3-2,5.91c-.34,1-.64,2-.94,3l-.43,1.45-.62,1.53-.75,1.29c-.59,1-1.15,2-1.64,3a23.55,23.55,0,0,0-1,2.4l-.26.71.23.39-.58.77c-.15.2-.32.39-.49.58a3.11,3.11,0,0,0-.5.66c-.49,1.36-.93,2.78-1.36,4.16l-.53,1.76-.3,1.48-.53,1.74-.66,1.42-.57.21a1.14,1.14,0,0,0-.44.23,6.4,6.4,0,0,1-.49,3.55c-.11.31-.23.62-.31.94l-2.17,5.86-.2.85a16.32,16.32,0,0,1-.75,2.49c-.15.36-.09.66.12,1.42l.2.71-1,1.43c-.54.71-1.1,1.45-1.73,2.14a2.41,2.41,0,0,1-1.68.69l-2.22-.15-.67-.32-1.91-.21.18-1.15-.33-.53a3.88,3.88,0,0,0-.8-1.08,1.72,1.72,0,0,0-.73-.09h-.52c-.38,0-.78,0-1.16,0l-.52,0-.38-.35a1.65,1.65,0,0,1-.55-1.3l-.4,0-.19-1.47-.12-3.57h0a2.54,2.54,0,0,1-2.41-1.79l-.12-.38.56-2.36c.46-1.94.92-3.87,1.35-5.82,0,0,0-.26-.06-.4s-.06-.38-.08-.56l0-.3,1.24-3.84.6-.3h0a1.65,1.65,0,0,1,0-.43,4.65,4.65,0,0,1,.18-1.3c.93-2.9,1.81-5.81,2.7-8.72l.89-2.94-.05-.23a4.78,4.78,0,0,1-.13-2c.22-1.16.53-2.3.83-3.4.12-.43.24-.87.35-1.3l.28-1.08h.28a6.89,6.89,0,0,1,1.41-2.89c.09-.13.2-.26.3-.39l.05-.06a10.25,10.25,0,0,1,1-3.58c.17-.42.35-.84.49-1.27a8.4,8.4,0,0,0,.28-1.58c0-.3.07-.61.12-.91l0-.28.55-.92.46-1.81,3.44-7.43.24-.7c.25-.73.5-1.46.74-2.19l2.34-7c0-.15,0-.3,0-.45a4.86,4.86,0,0,1,1-2.9.61.61,0,0,0,.15-.44.69.69,0,0,0-.29-.45l-.41-.33-.11-.51a2.13,2.13,0,0,1-.08-1.33,5.45,5.45,0,0,0,.2-2.89,3.67,3.67,0,0,1,.22-2c0-.15.1-.3.13-.45l.94-3.69.29-.28a8.1,8.1,0,0,1,6-2.26,19.3,19.3,0,0,1,3,.27c.7.11,1.39.24,2.08.37l1.07.21c4.34,1.45,7.83,4.43,10.63,6.81a12,12,0,0,1,1.71,1.91,12.86,12.86,0,0,0,1,1.24c1.55,1.55,3.13,3.07,4.72,4.59l2.25,2.16c.26.26.52.52.77.78s.54.56.82.83c.92.87,1.85,1.73,2.79,2.59l.26.24a17.18,17.18,0,0,0,3.24-6.28,32,32,0,0,1,4.23-8.1c1.35-2,2.86-4,4.32-5.82l.76-1a19.5,19.5,0,0,1,1.59-1.74l.51-.52a29.78,29.78,0,0,1,5.27-7.51l3.12-3.77,2-1.63,4.57-.57,4.69-1.2,2,4.86a10.22,10.22,0,0,1,.59,2.08,4.29,4.29,0,0,0,.79,2.12l.93-1.14v2.55c0,.12,0,.22,0,.3l0,.14a2.4,2.4,0,0,1,.53.41,3.18,3.18,0,0,1,.77,2.25l.29,1.41.85,1.45.55,6.28c.07.57.13,1.14.16,1.71,0,1.09.08,2.17.12,3.26.05,1.53.1,3.05.18,4.57,0,.17,0,.35,0,.54,0,0,0,0,0,.07l.84.31-.12,1.23a41.66,41.66,0,0,0-.24,9.19l0,.53q.09,1.92.16,3.84c.15,3.65.31,7.41.59,11.1.17,2.17.51,4.38.85,6.53.16,1,.31,2,.45,3l.07.43a10.66,10.66,0,0,1,.14,1.16,7.73,7.73,0,0,0,.14,1,4.85,4.85,0,0,1-.7,4.23l-.18.23-.26.14a.49.49,0,0,0-.15.1,3.32,3.32,0,0,0,0,.76,5.19,5.19,0,0,1,0,1.64l-.09.49-1.1,1-.54,2.59-2.26-.47Zm98.59,94.61c0,3-.14,6-.17,9-.06,5.88-.08,11.76-.12,17.63h0a12.36,12.36,0,0,0-.18,1.31c-.06,1.81-.1,3.63-.15,5.44-.05.4-.12.8-.16,1.2-.39,4-.55,8.06-1.91,11.92a22.38,22.38,0,0,1-2.81,5.05c-.87,1.28-1.78,2.53-2.71,3.75a8.1,8.1,0,0,1-1.37,1.41c-1.54,1.23-3.11,2.41-4.67,3.61a20.69,20.69,0,0,1-6.9,1.77,54.87,54.87,0,0,1-8.38,0,39.34,39.34,0,0,1-7.9-1.19l-2.9-.79a13.83,13.83,0,0,1-7.68-7.65l-.64,1c-.78.89-1.55,1.77-2.32,2.67-.32.37-.61.76-.91,1.14a7.59,7.59,0,0,1-3.33,2.76,3.67,3.67,0,0,0-.81.2c-2.38,1.18-5,1.2-7.5,1.21-3.08,0-6.16-.21-9.24-.38-2.38-.13-4.76-.34-7.14-.54-.56,0-1.11-.16-1.67-.24-1.24-.44-2.47-.91-3.72-1.3-3.46-1.08-5.35-3.72-6.58-7a43.7,43.7,0,0,1-1.84-7.77,10,10,0,0,1,0-1.74c-.09-4-.17-8-.27-12-.06-2.21-.15-4.41-.25-6.61-.06-1.33-.15-2.66-.26-4-.2-2.44-.49-4.88-.63-7.32q-.31-5.3-.46-10.61c-.12-4.29-.16-8.58-.24-12.87q0-2.38-.11-4.75c-.06-2.21-.11-4.41-.18-6.62a3.84,3.84,0,0,1,1.5-3.5,7.34,7.34,0,0,0,.79-.78l1.89-1.54c.08,0,.18,0,.23,0,2.35-1.86,5-1.76,7.76-1.41,2.08.26,4.17.48,6.25.73l6,.71c.69.33,1.51.47,1.85,1.31.1,2.33.25,4.65.28,7,.05,3.92,0,7.83,0,11.75,0,3.67-.08,7.33-.12,11,0,.9-.08,1.8-.08,2.7,0,.45.13.9.15,1.35.1,2.45.15,4.89.27,7.34.08,1.73.24,3.45.37,5.17.12,2.38.23,4.76.36,7.14a10.08,10.08,0,0,0,.2,1.17,2.89,2.89,0,0,0,2.41,2c.63.08,1.27.17,1.9.23a.7.7,0,0,0,.87-.76,14,14,0,0,1,.22-1.57c.07-.4.16-.79.24-1.19.06-.1.17-.2.18-.3.17-3.32.47-6.64.48-10,0-11.74-.05-23.47-.07-35.21,0-3.12.12-6.24.13-9.35a4.83,4.83,0,0,1,1-3.21l2-1.75a17.94,17.94,0,0,1,1.77-1c1.44-.61,2.9-1.16,4.35-1.73h0c2.54.06,5.09.07,7.63.2,1.44.08,2.87.37,4.31.57h0c1.2.53,2.4,1.08,3.61,1.58a3.64,3.64,0,0,1,1.75,1.23c.17,1.79.33,3.58.51,5.36a5,5,0,0,0,.22.81q0,8,.07,16a4.45,4.45,0,0,0,.16.83q0,6.83,0,13.65a2.25,2.25,0,0,0-.16.58q0,5.67,0,11.34a3.12,3.12,0,0,0,.17.7q0,.22,0,.44c0,2.48,0,5,.05,7.43a4.9,4.9,0,0,0,.44,1.35,4.26,4.26,0,0,0,5.62,2.47c.72-.47.7-1.27.75-2,.14-1.86.25-3.73.26-5.6,0-8.44,0-16.89,0-25.33,0-1.87.12-3.73.18-5.6,0-1.45,0-2.89.06-4.34,0-1.18.18-2.37.24-3.55.1-2.17.16-4.35.26-6.52a5.86,5.86,0,0,1,.24-1,1.74,1.74,0,0,0,.18-.56,4.56,4.56,0,0,1,1.83-4l3.83-2.51c2.72,0,5.44,0,8.16,0,1.42,0,2.84.08,4.26.12a20.5,20.5,0,0,1,2.45.45,8.85,8.85,0,0,1,4.7,3.27,9.48,9.48,0,0,1,.91,2.77c.07.23.11.47.16.7,0,.58.1,1.16.1,1.74C762.62,659.52,762.62,667.31,762.59,675.11Zm8.21,53.63H768v7.36h-1.1v-7.36h-2.75v-1h6.62Zm9.07,7.36H778.8v-7l-2.43,7h-1L773,729v7.11h-1.06v-8.35h1.66l2,5.91q.27.83.4,1.24.14-.46.44-1.34l2-5.81h1.49Zm17.32-205.6c-.1-.42-.18-.85-.27-1.28a9.84,9.84,0,0,0-.64-2.36,4.89,4.89,0,0,0-.65.69c-2.48,3-4.53,5.48-6.4,8.22a13.61,13.61,0,0,0-1.09,2.11,14.84,14.84,0,0,1-1.61,3c-1.33,1.79-2.62,3.67-3.81,5.6a7.61,7.61,0,0,0-.67,1.75c-.07.23-.14.47-.21.69-.26.8-.55,1.59-.85,2.38a20.76,20.76,0,0,0-1.62,6.31,7.18,7.18,0,0,1-2.5,5.58c-.13.11-.48.55-.78,2.23a8.75,8.75,0,0,1-4.08,6.11,3.3,3.3,0,0,0-.49.59,4.62,4.62,0,0,1-1.37,1.39,8,8,0,0,1-2.41.83c-.28.06-.55.12-.82.2l-3.77,1.07-.09-1.9c-2.69-.52-3.35-1.92-3.53-5l-1.86-3.12.06-.5a5,5,0,0,0-.16-1.47,6,6,0,0,1,0-3.11l-2.43-.2,2.23-2.29.05-.53c.08-.91.17-1.81.31-2.71a3.32,3.32,0,0,1,.6-1.34,2.21,2.21,0,0,0,.17-.27c.17-.35.31-.7.46-1.06l.37-.8.91-1.29v-.05a5.42,5.42,0,0,1-.21-1.77c.24-2.62.52-5.24.8-7.86l.27-2.51c.11-.83.2-1.62.29-2.42.21-1.86.43-3.78.82-5.67a48.48,48.48,0,0,1,1.66-5.66l.41-1.24a20.24,20.24,0,0,1,.91-2.18l.36-.79.54-1.82c.89-3,1.79-6.07,2.66-9.11l-.12-.19-.31-.58.23-.62c.21-.55.42-1.1.64-1.65.53-1.37,1-2.66,1.44-4a3.23,3.23,0,0,1,1.44-2.07,6.81,6.81,0,0,1,4.82-4.92l.34-.09.35.08a5.14,5.14,0,0,1,3.43,2l.32-.53,2.52.55v2.53l1.32-.43-.08,2.1c0,.93,0,1.87,0,2.85a30.45,30.45,0,0,1-.11,4.66l3.9-1.84v0l.19-.09c.44-.39.89-.79,1.3-1.22a5.76,5.76,0,0,1,4.21-2h.27c.57,0,1.14,0,1.71,0a10.93,10.93,0,0,1,5.81,1l.13,0a2.13,2.13,0,0,1,1.4,1.08c.58,1.23,1.54,1.41,3.32,1.66l1,.15a9.16,9.16,0,0,1,6.08,5.22,1.78,1.78,0,0,1,.44.76,9.29,9.29,0,0,0,.4,1.1,9.2,9.2,0,0,1,.73,2.54,35.45,35.45,0,0,0,1.43,6.06c.23.79.46,1.57.68,2.36l.2.29.17.28.83,7.28c.14,1.08.28,2.16.41,3.24.08.69.14,1.38.19,2.07l0,.36.15.13-.08.59.32,3.6-.39-.36a3.32,3.32,0,0,0,.21,1.2,1.46,1.46,0,0,1-.14,1.45v.5c0,.85,0,1.69-.08,2.54,0,1-.09,2-.14,3s-.1,2-.14,3c-.06,1.44-.11,2.87-.17,4.3l-.06,1.7,0,.43v1c0,.62,0,1.24,0,1.86q0,5,0,9.93v.42l-.22.36,0,.05a10.64,10.64,0,0,1-.78,4.4,12.3,12.3,0,0,0-.62,2.32l-.13,1-1,.21c-.24,0-.44.28-.84.79a5.75,5.75,0,0,1-1.58,1.52,5.92,5.92,0,0,1-2.91.92h-.24l-.44,2-2.09-2.42-1.93.39-.5-1c-.11-.21-.2-.43-.3-.65a3.88,3.88,0,0,0-.46-.87,3.1,3.1,0,0,0-.69-.45c-.21-.11-.41-.23-.61-.35l-1.23-.78,1.52-2.52a1.64,1.64,0,0,1-.1-.6,9,9,0,0,0-1.3-4.15,19.73,19.73,0,0,1-1.18-2.71c-.06-.11-.13-.23-.2-.34a2.92,2.92,0,0,1-.59-2.26c.21-.83-.07-1.19-1.27-2.23l-1.12-1,.82-1.49a8.85,8.85,0,0,1-.31-1.12c-.11-.58-.18-1.16-.25-1.75l-.11-.83.11-1.22c.07-.76.14-1.53.18-2.29s0-1.47,0-2.2v-1l0-7.33-.09-.67c-.08-.55-.15-1.1-.26-1.65a5.93,5.93,0,0,0-.26-.85l-.17-.51-.47-1.71v-1.32a14.91,14.91,0,0,1,.18-1.53,4.85,4.85,0,0,0,.08-2,10.59,10.59,0,0,1-.54-3.91A10,10,0,0,0,797.18,530.51Zm20.34-164.13c.82-1.06,2-.61,3.08-.63l1.93,0c1.94-.14,3.87-.33,5.82-.39a15.17,15.17,0,0,1,2.55.34c-1,.85-2.21.67-3.38.73l-5.37.27c-1.4.12-2.81.26-4.21.34C817.8,367,817.65,366.6,817.52,366.38ZM803.65,714.57l-.16.25.14-.26Zm-3.09,0-.15.28-.15-.28A1.05,1.05,0,0,1,800.56,714.56Zm68.77,12.56a23.82,23.82,0,0,1-3.43,1.33,21.07,21.07,0,0,1-3.5.21L860.08,733l-2.2-.11c-.74-.79-.41-2.4-2.05-2.7l-.73,1-1-3.53c-1.8-.24-3.76-.66-5.74-.73-3.47-.12-6.85-1-10.37-.78-2.06.12-4.15-.28-6.22-.29q-11.18-.06-22.36,0c-4,0-8,.16-12,.21l.21-10.1.25,0a2.79,2.79,0,0,0,.36.67,2.79,2.79,0,0,1-.36-.67c.88.21.72-.68,1.17-.93.48.47,1.48.4,1.55,1.29l.4-.74a.29.29,0,0,1,0-.25l1.12-.26.08-.77.28.27.36.71h.41l1.13,0,1.51.31a1.29,1.29,0,0,1,.07-.27v-.38a1.17,1.17,0,0,1,1.51.3l1.09.47H809c1.4-.27,2.9,0,4.24-.71.31-.17.92.14,1.38.23l2,.4,3.05.33.44-.29-.06.65.06-.65.72-.36,1.52,0,.76-.06.22-.46c1.26.57,2.79,0,4,.83l.67.1.13-1,1.11,0,.78.13h0l.38-.27a2.56,2.56,0,0,1,0,.31,2.56,2.56,0,0,0,0-.31,1.37,1.37,0,0,1,.37-.07.55.55,0,0,0,0-.33l.36,0,0-.35h-.38v.36h0l-.8-.05a1.26,1.26,0,0,1-.35,0l-.38.5-.36-.43.75-.38a1.19,1.19,0,0,1,.38,0h0l.8-.31a.55.55,0,0,1,.33,0h0l1.12.34-.75.33v.36h0l.69.29.54,0,.76-.26a.28.28,0,0,1,.33-.05,1.34,1.34,0,0,0,.06.32l.34.36a1.36,1.36,0,0,0-.37,0l-.18.35H833l-.7.42-.38-.19-.4-.23-.38-.3c-.39.1-.83.28-.78-.38l-.33,0,.11,1.34h2.16c1,.38,1.88.53,2.29-.69.5,0,1.1.18,1.49,0a3.11,3.11,0,0,1,2.65.13,10.83,10.83,0,0,0,2.36.28c.26.68.88.74,1.53.73l.4.32-.38-.69-.32-.33.72-.33a1.14,1.14,0,0,0,.33-.12.76.76,0,0,1,0-.29l-.34-.13.76-.54.7-.33.39.29h0v-.68l.78.33,1.84.05.78.23.5.43-.5,0,0-.05-.69.36-.41,0,.41,0c.2.58.46,1,1.12.36l-.09-.37.39,0a.69.69,0,0,1,0,.34l.07,0,.38.43a.63.63,0,0,1,.31-.05,1.05,1.05,0,0,1,0,.34l.41.36v0h-.18l-.18,0-.12-.42.12.42-.91.3,1.27.3,1.51-.3-.77-.67a2.16,2.16,0,0,0-.36-.08.43.43,0,0,0,0-.31,1.52,1.52,0,0,1,.06-.33l.71,0h.75l.12.57.76-.59c.19,0,.52,0,.54-.11.51-1.93,1.29-3.79,1.24-5.85,0-1.73.31-3.46.44-5.2.16-2.21-.06-4.5.5-6.61s-.34-4.38.67-6.44c-.39-3.13.25-6.25.23-9.36,0-2.9-.07-5.79.14-8.69a19.86,19.86,0,0,0-.3-3.64c-.08-.73.9-1.43,0-2.16a46.24,46.24,0,0,0,0-8.31c-.15-1.56.27-3.16.25-4.74,0-1.86-.25-3.73-.32-5.59,0-1.1.06-2.21.05-3.31q0-8.12-.07-16.24,0-6.47-.12-12.95c0-1.84-.13-3.68-.16-5.52,0-3.65-.09-7.3-.08-11,0-3-.08-6.06-.21-9.1-.2-4.76.14-9.54.16-14.31,0-2.66-.19-5.32-.24-8,0-1.87,0-3.74,0-5.62.07-3.91.17-7.82.23-11.73,0-2.66.06-5.32,0-8-.08-3.5-.26-7-.34-10.5,0-.91.2-1.83.26-2.75a3.67,3.67,0,0,0-.19-1,12.9,12.9,0,0,1-.18-5.3,18.88,18.88,0,0,0,0-3.93c0-1-.11-2.09-.16-3.13s-.05-2-.12-3.07c0-.61-.15-1.23-.25-2l-.24-.17.11-4.38c-.12-.77-.26-1.53-.34-2.26a23.46,23.46,0,0,1,.06-5.1,1.4,1.4,0,0,0-.61-.85,5.08,5.08,0,0,0,.23-2.83l.77,0c0-.37.07-.73.09-1.1.13-2.06-.28-4.07-.09-6.1.1-1,.21-2.07.32-3.1a3.56,3.56,0,0,0,0-.53c-.1-2-.33-4.09-.27-6.13.1-2.94.47-5.88.63-8.83.07-1.33-.13-2.67-.13-4,0-1.62.11-3.25.13-4.87,0-2.35,0-4.69,0-7,0-2-.15-3.91-.14-5.87,0-3.77.18-7.55.15-11.32,0-2.78-.34-5.55-.34-8.32,0-3.33.22-6.67.33-10,0-.7,0-1.41,0-2.11,0-4.42,0-8.84,0-13.26a18,18,0,0,0-.28-4.38,16.61,16.61,0,0,1,.08-3.81c0-1.14,0-2.29-.08-3.43,0-.82-.14-1.64-.09-2.45.26-4.11-.8-8.17-.45-12.29a21.73,21.73,0,0,0-.31-2.76c0-.19.43-.41.67-.61a1.14,1.14,0,0,0,0-.29l-.86-.17.86-.55v0l0,0a19.33,19.33,0,0,1,.13-8.47c-1,.33-1.44-.93-2.41-.32l-.15.25-.3-.25-.73-.07a.42.42,0,0,1-.37,0h-.79l-.75-.23a16.65,16.65,0,0,0-1.9-.06c-2.75.21-5.49.49-8.24.69-2.38.17-4.77.27-7.15.39q-6.8.35-13.6.68c-1,0-2,0-3,0a2.63,2.63,0,0,0-.79.31l1.85.72c.06.51-.17.72-.75.71-1.07,0-2.14,0-3.21,0-2.49.08-5,.19-7.47.28a18.85,18.85,0,0,1-2.45,0c-.25,0-.47-.4-.7-.61l.49-.58,1.14.43a11,11,0,0,1,2.07-.52c2-.06,4,0,6,0a5.77,5.77,0,0,0,1.44-.42l-2.41,0c-7.94,0-15.88.09-23.82.06q-16.19-.07-32.38-.28c-4.3-.05-8.6-.16-12.91-.29v-9.86l7.17.26,8.34.34c3.12.13,6.24.3,9.36.38,5.32.13,10.66,0,16,.39,2,.13,4-.12,6-.06,3.57.1,7.15.28,10.72.31,2.21,0,4.43-.23,6.65-.23,2.65,0,5.31.2,8,.24,2.94,0,5.89,0,8.83,0,3.61.07,7.22.31,10.83.28,2.69,0,5.38-.39,8.07-.54,1.65-.1,3.3-.11,5-.12,3.28,0,6.57,0,10,0l.67-.81,1.69.18.31.92a15.57,15.57,0,0,0,2.54.26c2.21-.12,3,.2,4.07,2-.57,1.13-1.46.43-2.17.32l-1.72,1c.07,1.63.11,3.27.21,4.9q.28,4.64.62,9.29c.29,3.89.56,7.79.92,11.67.31,3.37.82,6.73,1,10.1.2,3,.09,5.92.16,8.88.05,2.18.23,4.35.25,6.53,0,1.62-.18,3.24-.16,4.86,0,3,.13,5.92.22,8.88.07,2.43.16,4.86.24,7.29,0,1.35.13,2.7.1,4,0,2-.2,4-.28,6,0,.85,0,1.71,0,2.57,0,2.82,0,5.64.09,8.45,0,2.05.21,4.11.19,6.16-.05,5.27-.18,10.54-.27,15.81-.05,3-.07,6-.13,9-.11,5.43.42,10.42.16,15.84-.15,3.12.17,4.94.1,7.59v.22c.15,2.67.14,5.36.43,8a15.63,15.63,0,0,1,0,4.81,10.49,10.49,0,0,0,.31,2.74,20.29,20.29,0,0,1,.21,3.84c-.44,4.2.08,8.38.14,12.57.07,5,0,10,0,14.93,0,2.24-.26,4.49-.28,6.73,0,1.51.26,3,.25,4.52,0,3.73-.14,7.45-.21,11.18,0,1.81-.11,3.62,0,5.43.06,1.44.34,2.87.5,4.3,0,.33,0,.66,0,1q0,1.9.11,3.8a8,8,0,0,1,.07,1.92c-.6,2.74-.25,5.48-.1,8.22.09,1.6-.22,3.22-.21,4.84,0,4.39.2,8.78.22,13.18,0,2.66-.23,5.33-.21,8s.27,5.11.38,7.67c0,.73-.11,1.47,0,2.2.3,2.75,0,5.5,0,8.25,0,.87.24,1.73.24,2.6,0,1-.21,2.07-.24,3.1,0,1.61-.08,3.21,0,4.82.09,4.67,0,9.35,0,14s0,9.48-.05,14.21c0,2.62-.21,5.23-.35,7.84-.11,2.09-.22,4.17-.41,6.25-.14,1.55-.44,3.08-.62,4.62-.2,1.75-.31,3.5-.51,5.25-.08.74-.33,1.47-.43,2.21-.25,1.9-.44,3.8-.69,5.69-.07.5-.32,1-.36,1.49a2.77,2.77,0,0,0,.31,1l-1.18,1.54,4.89.2c-.08,1.22-.08,1.22-4.9,1.28.21.38.3.83.55.92a8.16,8.16,0,0,0,2,.39c.86.07,1.79-.19,2.25.86.09.21.8.2,1.36.32l-.94.8ZM842.39,364.68l1.08.32-1.44.25c-1.75.23-3.49.49-5.25.68a3.78,3.78,0,0,1-1.19-.28c.14-.21.26-.6.41-.61,2.13-.15,4.26-.25,6.39-.36l-.36.58Zm7.16,350.92a.93.93,0,0,1,0-.33.79.79,0,0,1,.31,0,.9.9,0,0,1,0,.32h-.36Zm.38-.73h0c.62-.69,1.23-.25,1.83,0a.65.65,0,0,1,0,.34l-1.13-.32-.7-.05h0Zm2.33.35a.66.66,0,0,1,0-.3l.57.17-.25.19A.53.53,0,0,0,852.26,715.22Z"/><path class="cls-2" d="M844.17,716.2l-.48-.22a.28.28,0,0,1-.24,0c-.14,1,.66.53,1.11.61a.58.58,0,0,0-.06-.28A.63.63,0,0,1,844.17,716.2Z"/><path class="cls-2" d="M821.25,716.3h.35l-.36-.37Z"/><path class="cls-2" d="M807.88,716a.76.76,0,0,1-.13.32l-.29-.09-1.11-.33.39.78h1.48v-.35Z"/><path class="cls-2" d="M805.95,716.65v-.7l-.81.73Z"/><path class="cls-2" d="M846.87,717h.35l.39,0h0l-.39,0v-.65q0-.38,0-.77,0,.38,0,.77Z"/><path class="cls-2" d="M830.81,713.85h0a1.18,1.18,0,0,1,0-.33A1.18,1.18,0,0,0,830.81,713.85Z"/><path class="cls-2" d="M855.43,373a.48.48,0,0,0,.33,0l-.34-.32h0c0,.1,0,.2,0,.3Z"/><path class="cls-2" d="M272,362v.7l.81-.73Z"/><path class="cls-2" d="M256.72,362.33h-.35l.36.37Z"/><path class="cls-2" d="M288.41,361.64h-.69Q288.05,362.36,288.41,361.64Z"/><path class="cls-2" d="M276.18,362.6l0-.65-.74,0-.4,0,.4,0Z"/><path class="cls-2" d="M233.72,363.4l-1.83-.66h0l-.81.37-.17-.08-.19,0a.45.45,0,0,0,.06.34l-.13,0-.3.72h2.27l.36,0v0l0,0,.73-.4A.48.48,0,0,0,233.72,363.4Z"/><path class="cls-2" d="M278.92,362.33l0-.35-.4-.34h-.17l-.15.06,0,.55Z"/><path class="cls-2" d="M630.24,680.91c-.12-2.7-.27-5.4-.54-8.09a15.86,15.86,0,0,0-1.53-5.74,3.06,3.06,0,0,0-2.35-1.78,33.2,33.2,0,0,0-9.1,0,3.67,3.67,0,0,0-.15.53c-.34,3-.71,5.94-1,8.92-.24,2.57-.39,5.14-.56,7.72-.22,3.49-.52,7-.6,10.46-.05,2.32.21,4.65.37,7a32.8,32.8,0,0,0,1.28,7.34c.42,1.36,1,2.74,2.34,3.35a8.88,8.88,0,0,0,2.81.69,25.35,25.35,0,0,0,8-.78c1.16-.28,1.82-.78,1.81-2.05,0-.45.14-.91.14-1.36,0-2.83-.08-5.66-.19-8.49Q630.62,689.76,630.24,680.91Z"/></g></svg>