<?xml version="1.0" encoding="utf-8"?>
<!-- Generator: Adobe Illustrator 21.1.0, SVG Export Plug-In . SVG Version: 6.00 Build 0)  -->
<svg version="1.1" id="Layer_1" xmlns="http://www.w3.org/2000/svg" xmlns:xlink="http://www.w3.org/1999/xlink" x="0px" y="0px"
	 viewBox="0 0 1080 1080" enable-background="new 0 0 1080 1080" xml:space="preserve">
<title>WGBH_impact-report_digital_logo-farm_v1</title>
<g opacity="0.75">
	<g>
		<path fill-rule="evenodd" clip-rule="evenodd" fill="#FFFFFF" d="M802.9,530.8v20.7c-2.7-8.3-8.6-9.7-12.7-11.1
			C794.1,539.7,800.5,536.2,802.9,530.8L802.9,530.8z M754.6,549.2v13c0,0,6.9,0.2,10.8,0.2c3.9,0,7.1-2.4,7.1-6.4
			c0-4.1-2.7-6.7-7.1-6.7H754.6L754.6,549.2z M754.6,518.4v12.8c0,0,6.4,0.2,10.3,0.2c3.9,0,7.1-2.3,7.1-6.4c0-4.1-2.7-6.6-7.1-6.6
			H754.6L754.6,518.4z M695.6,525.3h28.7v8.5h-39v15.2h9.9v8.5c0,4.4-2.5,7.4-9.6,7.4c-7.1,0-9.6-5.3-9.6-7.8l0.2-32
			c0-3.1,2.4-8.1,9.7-8.1C693.2,516.8,695.6,520.7,695.6,525.3L695.6,525.3z M569.3,466.6H598l3,14.1l14.7-14.4h26.3l3.4,14.6
			l14.6-14.6h27.3l-3,12.2c11.4-9.6,20.5-15.2,39.6-15.2c19.1,0,27.9,5.8,35.4,13.6l10.8-10.5H813c12.4,0,16.1,8.8,16.1,15.4
			l15.8-15.4h29.5v14.7l14.7-14.6H918v79.2l-69.8,68.6h-32.5l0-14.8l-15.4,14.8h-32.3v-13.6c-9.1,12.4-17.2,13.6-27.9,13.6h-49.4
			V605c-4.2,3.3-20.7,11.6-42.9,11.6c-22.2,0-34.5-6.9-40.4-16.1l-14.8,13.9h-26.8l-3.7-13.9l-14.4,14.1h-27.6l-16.5-83.4
			L569.3,466.6L569.3,466.6z M535.1,501.5l15.4,77.2h31.8l8.6-29.6l8.9,29.6h31.3l6.3-31c5.5,32.7,38.5,34,48.1,34
			c9.6,0,25.1-2.4,38.5-10.3v7.3h55c15.7,0,20.4-5,23.8-12.2v12.2h33.1v-27.2h15.7v27.2h32.3v-77.1h-32.3v27.6h-15.5v-27.6h-33.2
			v14.3c-3.1-9.2-9.2-14.3-25.1-14.3h-53.6v11.3c-4.5-5.3-15.8-13.8-40.1-13.8c-24.3,0-32.9,6-41.8,18.5l2.9-16h-26l-7,28.1l-6.6-28
			h-28.2l-7.2,28.5l-6.4-28.7H535.1L535.1,501.5z"/>
	</g>
	<g>
		<path fill="#FFFFFF" d="M212,578.8l-36.3-53v53H162v-77h13.9l34.6,50.4v-50.4h13.7v77H212z"/>
		<path fill="#FFFFFF" d="M274,580.2c-22.4,0-36.5-15.8-36.5-39.7c0-23.9,14.6-39.9,36.4-39.9c8.9,0,15.8,2.1,21.5,5.6l-2.1,13.9
			c-5-3.8-11.3-6.8-18.7-6.8c-13.6,0-22,10.4-22,27.1c0,17,8.9,27,22.5,27c7.1,0,13.6-2.6,19.5-6.5l2,12.7
			C290.5,577.5,282.7,580.2,274,580.2z"/>
		<path fill="#FFFFFF" d="M362,579.6l-7.4-20.3h-29.1l-7,19.5h-14.6l28.9-77.3h15.7l28.2,75.4L362,579.6z M340.1,517.6l-10.5,29.7
			h21L340.1,517.6z"/>
		<path fill="#FFFFFF" d="M458.3,578.8l-4.1-56.2l-19.4,56.4h-12.9l-19.5-56.4l-3.9,56.2h-13.3l5.9-77h18.7l19.5,58.1l19.4-58.1
			h18.4l5.9,77H458.3z"/>
	</g>
</g>
</svg>
