<?xml version="1.0" encoding="utf-8"?>
<!-- Generator: Adobe Illustrator 21.1.0, SVG Export Plug-In . SVG Version: 6.00 Build 0)  -->
<svg version="1.1" id="Layer_1" xmlns="http://www.w3.org/2000/svg" xmlns:xlink="http://www.w3.org/1999/xlink" x="0px" y="0px"
	 viewBox="0 0 1080 1080" enable-background="new 0 0 1080 1080" xml:space="preserve">
<title>WGBH_impact-report_digital_logo-farm_v1</title>
<g opacity="0.75">
	<g>
		<polygon fill="#FFFFFF" points="667.3,688.5 662.9,697.7 668.6,697.7 667.4,688.5 		"/>
		<path fill="#FFFFFF" d="M381.7,686.4c-1.4,0-2.5,0.7-3.2,2.1c-0.4,0.9-1,3.4-1.8,7.6c-0.8,4.2-1.2,6.9-1.2,8.1
			c0,0.8,0.2,1.4,0.6,1.9s1.1,0.7,1.9,0.7c0.7,0,1.3-0.2,1.9-0.5c0.5-0.4,1-0.9,1.3-1.5c0.3-0.5,0.7-1.9,1.1-4.1
			c0.5-2.2,0.9-4.5,1.3-6.9s0.6-3.9,0.6-4.6c0-0.8-0.2-1.4-0.7-1.9C383.1,686.6,382.4,686.4,381.7,686.4z"/>
		<path fill="#FFFFFF" d="M613.6,687h-4.7c-0.1,0-0.2,0.1-0.3,0.3l-1.2,6.9c0,0.2,0,0.3,0.2,0.3h4.7c1.3,0,2.4-0.4,3.3-1.3
			c0.9-0.8,1.3-1.9,1.3-3.4c0-0.9-0.3-1.5-0.9-2.1C615.4,687.3,614.6,687,613.6,687z"/>
		<polygon fill="#FFFFFF" points="454,688.5 449.5,697.7 455.3,697.7 454.1,688.5 		"/>
		<path fill="#FFFFFF" d="M697.3,687h-4.7c-0.1,0-0.2,0.1-0.3,0.3l-1.2,6.9c0,0.2,0,0.3,0.2,0.3h4.7c1.3,0,2.4-0.4,3.3-1.3
			c0.9-0.8,1.3-1.9,1.3-3.4c0-0.9-0.3-1.5-0.9-2.1C699.1,687.3,698.3,687,697.3,687z"/>
		<path fill="#FFFFFF" d="M732.8,668.3H347.7c-12,0-21.8,9.8-21.8,21.8v11.3c0,12,9.8,21.8,21.8,21.8h385.1c12,0,21.8-9.8,21.8-21.8
			v-11.3C754.6,678.1,744.8,668.3,732.8,668.3z M361.5,710.7c-0.1,0.3-0.2,0.4-0.4,0.4h-15.7c-0.1,0-0.2,0-0.3-0.1
			c-0.1-0.1-0.1-0.2-0.1-0.3l0.7-3.8c0.1-0.3,0.2-0.4,0.4-0.4h4.7c0.2,0,0.3-0.1,0.3-0.3l3.1-17.7h-0.1l-5.4,3.2
			c-0.1,0.1-0.2,0.1-0.3,0.1c-0.1,0-0.2-0.1-0.2-0.4l0.9-5c0.1-0.3,0.2-0.5,0.4-0.6l5.7-3.4c0.3-0.2,0.5-0.3,0.9-0.3h4.5
			c0.3,0,0.4,0.1,0.3,0.4l-4.2,23.7c0,0.2,0,0.3,0.2,0.3h4.7c0.1,0,0.2,0,0.3,0.1c0.1,0.1,0.1,0.2,0.1,0.3L361.5,710.7z
			 M389.4,693.8c-0.4,2.5-0.8,4.9-1.3,7.3c-0.5,2.4-1,4-1.4,4.9c-1.9,3.8-5,5.7-9.3,5.7c-2.3,0-4.2-0.6-5.5-1.8
			c-1.4-1.2-2.1-3-2.1-5.2c0-1,0.2-2.7,0.5-5.2c0.4-2.5,0.8-4.9,1.3-7.3c0.5-2.4,1-4,1.4-4.9c1.9-3.8,5-5.7,9.3-5.7
			c2.3,0,4.2,0.6,5.5,1.8c1.4,1.2,2.1,3,2.1,5.2C389.9,689.5,389.8,691.3,389.4,693.8z M407.9,684.4h-2.6c-0.1,0-0.1,0-0.2-0.1
			c0,0-0.1-0.1,0-0.2l0.2-1.2c0-0.1,0-0.1-0.1-0.1h-2c-0.1,0-0.1,0-0.1,0.1l-1.9,11c0,0.1,0,0.1,0.1,0.1h1.3c0.2,0,0.2,0.1,0.2,0.2
			l-0.4,2.2c0,0.1-0.1,0.1-0.1,0.2c0,0-0.1,0.1-0.2,0.1h-6.3c-0.2,0-0.2-0.1-0.2-0.2l0.4-2.2c0-0.2,0.1-0.2,0.3-0.2h1.2
			c0.1,0,0.2,0,0.2-0.1l1.9-11c0-0.1,0-0.1-0.1-0.1h-1.9c-0.1,0-0.2,0-0.2,0.1l-0.2,1.2c0,0.2-0.1,0.2-0.3,0.2h-2.6
			c-0.2,0-0.2-0.1-0.2-0.2l0.7-4c0-0.2,0.1-0.2,0.3-0.2h13.6c0.1,0,0.1,0,0.2,0.1c0,0,0.1,0.1,0,0.2l-0.7,4
			C408.1,684.3,408,684.4,407.9,684.4z M425.8,682.4c0,0.1,0,0.1-0.1,0.2c0,0.1-0.1,0.1-0.2,0.1h-0.9c-0.1,0-0.2,0.1-0.2,0.1
			l-1.9,11.2c0,0.1,0,0.1,0.1,0.1h1c0.2,0,0.2,0.1,0.2,0.2l-0.4,2.2c0,0.2-0.1,0.2-0.3,0.2h-5.7c-0.2,0-0.2-0.1-0.2-0.2l0.4-2.2
			c0-0.2,0.1-0.2,0.3-0.2h1c0.1,0,0.2,0,0.2-0.1l0.7-4c0-0.1,0-0.1-0.1-0.1h-5.2c-0.1,0-0.1,0-0.1,0.1l-0.7,4c0,0.1,0,0.1,0.1,0.1h1
			c0.2,0,0.2,0.1,0.2,0.2l-0.4,2.2c0,0.2-0.1,0.2-0.3,0.2h-5.7c-0.2,0-0.2-0.1-0.2-0.2l0.4-2.2c0-0.2,0.1-0.2,0.3-0.2h1
			c0.1,0,0.2,0,0.2-0.1l1.9-11.2c0-0.1,0-0.1-0.1-0.1h-1c-0.2,0-0.2-0.1-0.2-0.2l0.4-2.2c0-0.2,0.1-0.2,0.3-0.2h5.7
			c0.2,0,0.2,0.1,0.2,0.2l-0.4,2.2c0,0.2-0.1,0.2-0.3,0.2h-1c-0.1,0-0.2,0.1-0.2,0.1l-0.6,3.8c0,0.1,0,0.1,0.1,0.1h5.2
			c0.1,0,0.2,0,0.2-0.1l0.7-3.8c0-0.1,0-0.1-0.1-0.1h-1c-0.2,0-0.2-0.1-0.2-0.2l0.4-2.2c0-0.1,0-0.1,0.1-0.2c0,0,0.1-0.1,0.2-0.1
			h5.7c0.2,0,0.2,0.1,0.2,0.2L425.8,682.4z M463.3,710.7c-0.1,0.3-0.2,0.4-0.5,0.4h-9.1c-0.3,0-0.4-0.1-0.3-0.4l0.7-3.8
			c0.1-0.3,0.2-0.4,0.5-0.4h1.7c0.2,0,0.3-0.1,0.3-0.3l-0.5-3.5h-8.8l-1.7,3.5c-0.1,0.2,0,0.3,0.1,0.3h1.7c0.3,0,0.4,0.1,0.3,0.4
			l-0.7,3.8c-0.1,0.3-0.2,0.4-0.5,0.4H437c-0.3,0-0.4-0.1-0.3-0.4l0.7-3.8c0-0.1,0.1-0.2,0.2-0.3s0.2-0.1,0.3-0.1h1.2
			c0.1,0,0.3-0.1,0.3-0.3l12-23.7c0.1-0.3,0.4-0.4,0.6-0.4h6.1c0.3,0,0.4,0.1,0.5,0.4l3.6,23.7c0.1,0.2,0.2,0.3,0.3,0.3h1.2
			c0.3,0,0.4,0.1,0.3,0.4L463.3,710.7z M496.8,686.6c-0.1,0.1-0.2,0.1-0.3,0.1h-1.7c-0.1,0-0.2,0.1-0.3,0.3l-4.2,23.7
			c-0.1,0.3-0.2,0.4-0.5,0.4h-4.9c-0.3,0-0.5-0.1-0.6-0.4l-6.5-18.7h-0.2l-2.5,14.2c0,0.2,0,0.3,0.2,0.3h1.7c0.3,0,0.4,0.1,0.3,0.4
			l-0.7,3.8c-0.1,0.3-0.2,0.4-0.5,0.4h-9.3c-0.3,0-0.4-0.1-0.3-0.4l0.7-3.8c0.1-0.3,0.2-0.4,0.5-0.4h1.7c0.2,0,0.3-0.1,0.3-0.3
			L473,687c0.1-0.2,0-0.3-0.2-0.3h-1.7c-0.3,0-0.4-0.1-0.3-0.4l0.7-3.8c0.1-0.3,0.2-0.4,0.5-0.4h7.2c0.3,0,0.5,0.1,0.6,0.4l6.5,18.8
			h0.2L489,687c0.1-0.2,0-0.3-0.2-0.3h-1.7c-0.3,0-0.4-0.1-0.3-0.4l0.7-3.8c0.1-0.3,0.2-0.4,0.5-0.4h9.4c0.3,0,0.4,0.1,0.3,0.4
			l-0.7,3.8C496.9,686.4,496.9,686.5,496.8,686.6z M527.3,686.6c-0.1,0.1-0.2,0.1-0.3,0.1h-1.7c-0.1,0-0.2,0.1-0.3,0.3l-4.2,23.7
			c-0.1,0.3-0.2,0.4-0.5,0.4h-4.9c-0.3,0-0.5-0.1-0.6-0.4l-6.5-18.7h-0.2l-2.5,14.2c0,0.2,0,0.3,0.2,0.3h1.7c0.3,0,0.4,0.1,0.3,0.4
			l-0.7,3.8c-0.1,0.3-0.2,0.4-0.5,0.4h-9.3c-0.3,0-0.4-0.1-0.3-0.4l0.7-3.8c0.1-0.3,0.2-0.4,0.5-0.4h1.7c0.2,0,0.3-0.1,0.3-0.3
			l3.3-19.2c0.1-0.2,0-0.3-0.2-0.3h-1.7c-0.3,0-0.4-0.1-0.3-0.4l0.7-3.8c0.1-0.3,0.2-0.4,0.5-0.4h7.2c0.3,0,0.5,0.1,0.6,0.4
			l6.5,18.8h0.2l2.5-14.2c0.1-0.2,0-0.3-0.2-0.3h-1.7c-0.3,0-0.4-0.1-0.3-0.4l0.7-3.8c0.1-0.3,0.2-0.4,0.5-0.4h9.4
			c0.3,0,0.4,0.1,0.3,0.4l-0.7,3.8C527.4,686.4,527.3,686.5,527.3,686.6z M542.4,686.3c-0.1,0.3-0.2,0.4-0.5,0.4h-1.7
			c-0.2,0-0.3,0.1-0.3,0.3l-3.3,19.2c0,0.2,0,0.3,0.2,0.3h1.7c0.3,0,0.4,0.1,0.3,0.4l-0.7,3.8c-0.1,0.3-0.2,0.4-0.5,0.4h-9.8
			c-0.3,0-0.4-0.1-0.3-0.4l0.7-3.8c0.1-0.3,0.2-0.4,0.5-0.4h1.7c0.2,0,0.3-0.1,0.3-0.3L534,687c0.1-0.2,0-0.3-0.2-0.3h-1.7
			c-0.3,0-0.4-0.1-0.3-0.4l0.7-3.8c0.1-0.3,0.2-0.4,0.5-0.4h9.8c0.3,0,0.4,0.1,0.3,0.4L542.4,686.3z M569.3,687l-11.4,23.7
			c-0.1,0.3-0.3,0.4-0.6,0.4h-6.1c-0.3,0-0.4-0.1-0.5-0.4l-3.1-23.7c0-0.2-0.1-0.3-0.3-0.3h-1.1c-0.3,0-0.4-0.1-0.3-0.4l0.7-3.8
			c0-0.1,0.1-0.2,0.2-0.3c0.1-0.1,0.2-0.1,0.3-0.1h9.2c0.3,0,0.4,0.1,0.3,0.4l-0.7,3.8c-0.1,0.3-0.2,0.4-0.5,0.4h-1.8
			c-0.2,0-0.3,0.1-0.3,0.3l2.1,16.8h0.1l7.5-16.7c0-0.1,0-0.2,0-0.2c0-0.1-0.1-0.1-0.2-0.1H561c-0.3,0-0.4-0.1-0.3-0.4l0.7-3.8
			c0.1-0.3,0.2-0.4,0.5-0.4h9.6c0.3,0,0.4,0.1,0.3,0.4l-0.7,3.8c-0.1,0.3-0.2,0.4-0.5,0.4h-1.1C569.5,686.7,569.4,686.8,569.3,687z
			 M594.6,689.5h-4.4c-0.1,0-0.2,0-0.3-0.1s-0.1-0.2-0.1-0.3l0.3-1.9c0.1-0.2,0-0.3-0.2-0.3h-6.8c-0.1,0-0.2,0.1-0.3,0.3l-1.1,6.5
			c0,0.2,0,0.3,0.2,0.3h4.3c0.2,0,0.3-0.1,0.3-0.3l0.2-1.2c0.1-0.3,0.2-0.4,0.5-0.4h4.3c0.3,0,0.4,0.1,0.3,0.4l-1.4,7.9
			c-0.1,0.3-0.2,0.4-0.4,0.4h-4.3c-0.1,0-0.2,0-0.3-0.1s-0.1-0.2-0.1-0.3l0.2-1.2c0.1-0.2,0-0.3-0.2-0.3H581c-0.1,0-0.2,0.1-0.3,0.3
			l-1.2,6.8c0,0.2,0,0.3,0.2,0.3h6.8c0.2,0,0.3-0.1,0.3-0.3l0.4-2.2c0.1-0.3,0.2-0.4,0.5-0.4h4.5c0.3,0,0.4,0.1,0.3,0.4l-1.2,6.9
			c-0.1,0.3-0.2,0.4-0.5,0.4h-20c-0.3,0-0.4-0.1-0.3-0.4l0.7-3.8c0.1-0.3,0.2-0.4,0.5-0.4h1.7c0.2,0,0.3-0.1,0.3-0.3L577,687
			c0.1-0.2,0-0.3-0.2-0.3H575c-0.3,0-0.4-0.1-0.3-0.4l0.7-3.8c0.1-0.3,0.2-0.4,0.5-0.4h20c0.1,0,0.2,0,0.3,0.1s0.1,0.2,0.1,0.3
			l-1.2,6.6C595,689.4,594.8,689.5,594.6,689.5z M621,695c-1.2,1.7-2.9,2.9-4.9,3.6l2.2,7.6c0.1,0.2,0.2,0.3,0.3,0.3h2
			c0.3,0,0.4,0.1,0.3,0.4l-0.7,3.8c-0.1,0.3-0.2,0.4-0.5,0.4h-5.6c-0.3,0-0.5-0.1-0.6-0.4l-3-11.3h-4c-0.1,0-0.2,0.1-0.3,0.3
			l-1.1,6.5c0,0.2,0,0.3,0.2,0.3h1.7c0.3,0,0.4,0.1,0.3,0.4l-0.7,3.8c-0.1,0.3-0.2,0.4-0.5,0.4h-9.8c-0.3,0-0.4-0.1-0.3-0.4l0.7-3.8
			c0.1-0.3,0.2-0.4,0.5-0.4h1.7c0.2,0,0.3-0.1,0.3-0.3l3.3-19.2c0.1-0.2,0-0.3-0.2-0.3h-1.7c-0.3,0-0.4-0.1-0.3-0.4l0.7-3.8
			c0.1-0.3,0.2-0.4,0.5-0.4h13.1c2.6,0,4.6,0.6,6,1.9c1.5,1.3,2.2,3,2.2,5.2C622.9,691.4,622.3,693.3,621,695z M648.4,689.6
			c-0.1,0.3-0.2,0.4-0.4,0.4h-4.5c-0.1,0-0.2,0-0.3-0.1s-0.1-0.2-0.1-0.3l0.3-2c0-0.2,0-0.3-0.2-0.3c-0.6-0.2-1.1-0.4-1.6-0.5
			s-1.1-0.1-1.8-0.1c-1.4,0-2.5,0.4-3.3,1.2s-1.2,1.7-1.2,2.9c0,0.8,0.3,1.4,0.8,1.9s1.5,0.8,2.9,1l1.4,0.2c2.5,0.4,4.4,1.1,5.6,2.3
			c1.3,1.2,1.9,2.8,1.9,4.7c0,2.2-0.5,4.1-1.5,5.8c-1,1.6-2.4,2.9-4.3,3.7c-1.8,0.9-4,1.3-6.4,1.3c-3.7,0-6.9-0.7-9.6-2.2
			c-0.3-0.1-0.4-0.4-0.3-0.6l1-5.8c0.1-0.3,0.2-0.4,0.5-0.4h4.8c0.3,0,0.4,0.1,0.3,0.4l-0.4,2.3v0.1c0,0.1,0.1,0.2,0.2,0.3
			c1.2,0.5,2.6,0.8,4.1,0.8c1.6,0,2.9-0.4,3.8-1.3c0.9-0.8,1.4-1.9,1.4-3.2c0-0.8-0.3-1.4-0.8-1.9s-1.5-0.8-2.8-1l-1.5-0.2
			c-2.5-0.4-4.3-1.2-5.6-2.4s-1.9-2.9-1.9-5c0-2,0.5-3.8,1.4-5.3s2.2-2.7,3.9-3.5s3.6-1.2,5.8-1.2c3.5,0,6.5,0.7,8.9,2.1
			c0.2,0.1,0.3,0.3,0.3,0.6L648.4,689.6z M676.6,710.7c-0.1,0.3-0.2,0.4-0.5,0.4H667c-0.3,0-0.4-0.1-0.3-0.4l0.7-3.8
			c0.1-0.3,0.2-0.4,0.5-0.4h1.7c0.2,0,0.3-0.1,0.3-0.3l-0.5-3.5h-8.8l-1.7,3.5c-0.1,0.2,0,0.3,0.1,0.3h1.7c0.3,0,0.4,0.1,0.3,0.4
			l-0.7,3.8c-0.1,0.3-0.2,0.4-0.5,0.4h-9.5c-0.3,0-0.4-0.1-0.3-0.4l0.7-3.8c0-0.1,0.1-0.2,0.2-0.3c0.1-0.1,0.2-0.1,0.3-0.1h1.2
			c0.1,0,0.3-0.1,0.3-0.3l12-23.7c0.1-0.3,0.4-0.4,0.6-0.4h6.1c0.3,0,0.4,0.1,0.5,0.4l3.6,23.7c0.1,0.2,0.2,0.3,0.3,0.3h1.2
			c0.3,0,0.4,0.1,0.3,0.4L676.6,710.7z M704.8,695c-1.2,1.7-2.9,2.9-4.9,3.6l2.2,7.6c0.1,0.2,0.2,0.3,0.3,0.3h2
			c0.3,0,0.4,0.1,0.3,0.4l-0.7,3.8c-0.1,0.3-0.2,0.4-0.5,0.4H698c-0.3,0-0.5-0.1-0.6-0.4l-3-11.3h-4c-0.1,0-0.2,0.1-0.3,0.3
			l-1.1,6.5c0,0.2,0,0.3,0.2,0.3h1.7c0.3,0,0.4,0.1,0.3,0.4l-0.7,3.8c-0.1,0.3-0.2,0.4-0.5,0.4h-9.8c-0.3,0-0.4-0.1-0.3-0.4l0.7-3.8
			c0.1-0.3,0.2-0.4,0.5-0.4h1.7c0.2,0,0.3-0.1,0.3-0.3l3.3-19.2c0.1-0.2,0-0.3-0.2-0.3h-1.7c-0.3,0-0.4-0.1-0.3-0.4l0.7-3.8
			c0.1-0.3,0.2-0.4,0.5-0.4h13.1c2.6,0,4.6,0.6,6,1.9c1.5,1.3,2.2,3,2.2,5.2C706.6,691.4,706,693.3,704.8,695z M734.9,686.3
			c0,0.1-0.1,0.2-0.2,0.3c-0.1,0.1-0.2,0.1-0.3,0.1h-1.3c-0.1,0-0.2,0.1-0.4,0.3l-8.9,12.5l-1.2,6.6c0,0.2,0,0.3,0.2,0.3h2.1
			c0.3,0,0.4,0.1,0.3,0.4l-0.7,3.8c0,0.1-0.1,0.2-0.2,0.3c-0.1,0.1-0.2,0.1-0.3,0.1h-10.7c-0.3,0-0.4-0.1-0.3-0.4l0.7-3.8
			c0-0.1,0.1-0.2,0.2-0.3c0.1-0.1,0.2-0.1,0.3-0.1h2.1c0.2,0,0.3-0.1,0.3-0.3l1.2-6.6l-4.4-12.5c0-0.2-0.1-0.3-0.3-0.3h-1.5
			c-0.3,0-0.4-0.1-0.3-0.4l0.7-3.8c0.1-0.3,0.2-0.4,0.5-0.4h9.2c0.3,0,0.4,0.1,0.3,0.4l-0.7,3.8c-0.1,0.3-0.2,0.4-0.5,0.4h-1.4
			c-0.2,0-0.3,0.1-0.2,0.3l2.4,7.1h0.1l5-7.1c0-0.1,0-0.2,0-0.2c0-0.1-0.1-0.1-0.1-0.1h-1.5c-0.3,0-0.4-0.1-0.3-0.4l0.7-3.8
			c0.1-0.3,0.2-0.4,0.5-0.4h9.4c0.3,0,0.4,0.1,0.3,0.4L734.9,686.3z"/>
	</g>
	<g>
		<path fill="#FFFFFF" d="M598.7,400.5l47-62h198l-65.8,72.1c1,1.1,1.8,2.2,2.5,3.4c1.5,2.5,2.5,5.2,3.2,7.8l86.8-95.1H639.9
			l-55.7,73.5L598.7,400.5z"/>
		<g>
			<polygon fill="#FFFFFF" points="761.9,625.8 747.1,626.8 849.6,741.5 638.3,741.5 625.1,723.2 610.5,723.2 632.3,753.3 
				876,753.3 			"/>
			<polygon fill="#FFFFFF" points="585.3,668.3 564.7,640 550.9,641 570.7,668.3 			"/>
		</g>
		<g>
			<path fill="#FFFFFF" d="M438.8,723.2L425,741.5H230.8l82.3-93.4c-0.3-0.4-0.7-0.8-1-1.2c-2.3-3-3.8-6.4-4.7-9.7
				c0-0.1-0.1-0.2-0.1-0.4L204.7,753.3h226.2l22.7-30L438.8,723.2L438.8,723.2z"/>
			<polygon fill="#FFFFFF" points="495,668.3 513.6,643.7 497.9,644.8 480.2,668.3 			"/>
		</g>
		<path fill="#FFFFFF" d="M307.5,424.1c0-2.2,0.2-4.3,0.5-6.2l-71.3-79.4H448l43.6,59.5l14.9,0.3L454,326.6H210.2l97.1,108.2
			L307.5,424.1z"/>
		<g>
			<g>
				<g id="High_School_Show_5_">
					<g enable-background="new    ">
						<g>
							<path fill="#FFFFFF" d="M571.2,429.3v2.9l-0.1,12.3h0.8l13.8,0.1v-2.8l-11.1-0.1l0.1-12.4H571.2 M549.3,432v-0.1l11.6,0.1
								v0.9v8.7h-2.8l-8.9-0.1v-6.6L549.3,432 M549.4,429.1c-0.6,0-1.1,0-1.6,0.1c-0.4,0.1-0.8,0.2-1.1,0.5
								c-0.3,0.2-0.5,0.5-0.6,0.9c-0.2,0.4-0.2,0.9-0.3,1.4c0,0,0,0.1,0,0.2s0,0.1,0,0.2s0,0.1,0,0.2s0,0.1,0,0.2l-0.1,8.1
								c0,0.4,0,0.7,0,1s0.1,0.6,0.1,0.8c0.1,0.2,0.1,0.4,0.2,0.6c0.1,0.2,0.2,0.3,0.3,0.5c0.1,0.1,0.3,0.3,0.5,0.4s0.4,0.2,0.7,0.2
								c0.2,0.1,0.5,0.1,0.8,0.1s0.6,0,1,0l8.6,0.1h2.5l0,0l0,0l0,0l0,0c0.1,0,0.1,0,0.2,0c0.1,0,0.1,0,0.2,0c0.1,0,0.1,0,0.2,0
								c0.1,0,0.1,0,0.2,0c0.5,0,0.9-0.1,1.3-0.3c0.4-0.1,0.6-0.3,0.9-0.6c0.2-0.3,0.4-0.6,0.5-1.1c0.1-0.4,0.1-1,0.1-1.6v-8.1
								c0-0.7,0-1.3-0.2-1.8c-0.1-0.5-0.3-0.8-0.6-1.1c-0.3-0.3-0.7-0.5-1.1-0.6c-0.5-0.1-1.1-0.2-1.8-0.2l-11.1-0.1l0,0
								C549.5,429.1,549.5,429.1,549.4,429.1L549.4,429.1L549.4,429.1 M523.7,431.7v-0.1l11.8,0.1v0.9l-0.1,8.8h-2.8l-9-0.1v-6.7
								L523.7,431.7 M523.8,428.8c-0.6,0-1.2,0-1.6,0.1c-0.4,0.1-0.8,0.2-1.1,0.5c-0.3,0.2-0.5,0.5-0.7,0.9s-0.2,0.9-0.3,1.5
								c0,0.1,0,0.1,0,0.2s0,0.1,0,0.2s0,0.1,0,0.2s0,0.1,0,0.2l-0.1,8.2c0,0.4,0,0.7,0,1s0.1,0.6,0.1,0.8c0.1,0.2,0.1,0.5,0.2,0.6
								c0.1,0.2,0.2,0.3,0.4,0.5c0.1,0.1,0.3,0.3,0.5,0.4s0.4,0.2,0.6,0.2c0.2,0.1,0.5,0.1,0.8,0.1s0.6,0.1,1,0.1c0,0,0,0,0.1,0l0,0
								l0,0c0,0,0,0,0.1,0l11.3,0.1l0,0l0,0l0,0l0,0c0.1,0,0.2,0,0.2,0c0.1,0,0.1,0,0.2,0c0.1,0,0.1,0,0.2,0c0.1,0,0.1,0,0.2,0
								c0.5,0,1-0.1,1.3-0.3c0.4-0.1,0.7-0.4,0.9-0.6c0.2-0.3,0.4-0.6,0.5-1.1c0.1-0.4,0.2-1,0.2-1.6v-8.1c0-0.7,0-1.3-0.2-1.8
								c-0.1-0.5-0.3-0.9-0.6-1.1c-0.3-0.3-0.7-0.5-1.2-0.6s-1.1-0.2-1.8-0.2l-11.3-0.1l0,0C523.9,428.8,523.9,428.8,523.8,428.8
								C523.9,428.8,523.9,428.8,523.8,428.8L523.8,428.8 M494.3,428.4v3l-0.1,12.7h0.8h2.9v-3.6v-3l11.4,0.1v6.6h0.8h2.9l0.1-15.6
								h-3.6v3v2.9h-2.9l-8.5-0.1v-6H494.3 M473.6,428.2c-0.7,0-1.2,0-1.7,0.1s-0.9,0.3-1.2,0.5c-0.3,0.2-0.5,0.5-0.7,0.9
								s-0.3,0.9-0.3,1.5c0,0.1,0,0.1,0,0.2s0,0.1,0,0.2s0,0.1,0,0.2s0,0.1,0,0.2l-0.1,8.4c0,0.4,0,0.7,0,1s0.1,0.6,0.1,0.8
								c0.1,0.2,0.1,0.5,0.2,0.6c0.1,0.2,0.2,0.4,0.4,0.5c0.2,0.2,0.3,0.3,0.5,0.4s0.4,0.2,0.7,0.3c0.3,0.1,0.6,0.1,0.9,0.1
								s0.7,0,1.1,0h6.9h2.7l0,0l0,0l0,0l0,0c0.1,0,0.2,0,0.2,0c0.1,0,0.2,0,0.2,0c0.1,0,0.1,0,0.2,0s0.1,0,0.2,0
								c0.5,0,1-0.1,1.4-0.3c0.4-0.2,0.7-0.4,0.9-0.6c0.2-0.3,0.4-0.6,0.5-1.1s0.2-1,0.2-1.6v-1.9l-3.7-0.8v3.4h-1.3h-1.6h-7.1
								l0.1-6.8v-2.9v-0.1l10,0.1v0.9v2l0.8-0.1l3-0.4v-1.5c0-0.7-0.1-1.3-0.2-1.8s-0.3-0.9-0.7-1.1c-0.3-0.3-0.7-0.5-1.2-0.6
								s-1.1-0.2-1.9-0.2l-9.5-0.1l0,0C473.8,428.2,473.7,428.2,473.6,428.2C473.7,428.2,473.7,428.2,473.6,428.2
								C473.7,428.2,473.7,428.2,473.6,428.2 M449.2,427.9c-0.7,0-1.3,0-1.8,0.1s-0.9,0.3-1.2,0.5c-0.3,0.2-0.6,0.5-0.7,0.9
								c-0.2,0.4-0.3,0.9-0.3,1.5c0,0.1,0,0.1,0,0.2s0,0.1,0,0.2s0,0.1,0,0.2s0,0.1,0,0.2v1.8c0,0.3,0,0.5,0,0.8
								c0,0.2,0,0.5,0.1,0.7c0,0.2,0.1,0.4,0.1,0.6c0.1,0.2,0.1,0.3,0.2,0.5s0.3,0.4,0.4,0.6c0.2,0.2,0.4,0.3,0.6,0.4
								s0.5,0.2,0.8,0.3c0.3,0.1,0.6,0.1,1,0.1c0.1,0,0.1,0,0.2,0s0.2,0,0.2,0c0.1,0,0.2,0,0.2,0c0.1,0,0.2,0,0.2,0l7.5,0.1h2.6v1.3
								v2.4h-3l-8.5-0.1v-0.6v-1.3l-3.4,0.6v0.5l0,0l0,0l0,0l0,0c0,0.2,0,0.4,0,0.6s0,0.3,0,0.5s0,0.3,0.1,0.5
								c0,0.1,0.1,0.3,0.1,0.4v0.1v0.1v0.1v0.1c0.1,0.3,0.3,0.5,0.5,0.7s0.5,0.3,0.8,0.4s0.7,0.2,1.1,0.2c0.4,0.1,0.9,0.1,1.4,0.1
								h7.8h2.4l0,0l0,0l0,0l0,0c0.1,0,0.2,0,0.2,0c0.1,0,0.1,0,0.2,0s0.1,0,0.2,0s0.1,0,0.2,0c0.6,0,1-0.1,1.4-0.3
								c0.4-0.2,0.7-0.4,0.9-0.7c0.2-0.3,0.4-0.7,0.5-1.1c0.1-0.5,0.2-1,0.2-1.7v-2.2c0-0.7,0-1.2-0.1-1.7s-0.3-0.8-0.5-1.1
								c-0.2-0.3-0.6-0.5-1-0.7s-0.9-0.2-1.5-0.3c-0.1,0-0.1,0-0.2,0s-0.1,0-0.2,0s-0.1,0-0.2,0s-0.2,0-0.2,0h-2.4l-7.7-0.1V434
								v-2.9v-0.2l10.7,0.1v1.7l3.3-0.7v-0.4c0-0.7-0.1-1.3-0.2-1.7c-0.2-0.5-0.4-0.8-0.7-1.1c-0.3-0.3-0.7-0.4-1.3-0.6
								c-0.5-0.1-1.1-0.2-1.8-0.2L449.2,427.9C449.3,427.9,449.3,427.9,449.2,427.9C449.3,427.9,449.3,427.9,449.2,427.9
								L449.2,427.9L449.2,427.9 M406.2,427.3v3.1l-0.1,13.1h0.9h3.1v-3.7v-3.1l12.2,0.1l-0.1,6.8h0.8h3l0.1-16.1l-3.9-0.1v3.1v3.1
								h-3.1l-9.1-0.1l0.1-6.2L406.2,427.3 M382.3,427.1c-0.7,0-1.3,0-1.8,0.1s-0.9,0.3-1.2,0.5c-0.3,0.2-0.6,0.6-0.7,1
								c-0.2,0.4-0.3,0.9-0.3,1.5c0,0.1,0,0.1,0,0.2s0,0.1,0,0.2s0,0.1,0,0.2s0,0.1,0,0.2l-0.1,8.6c0,0.4,0,0.7,0,1s0.1,0.6,0.1,0.8
								c0.1,0.2,0.2,0.5,0.3,0.7c0.1,0.2,0.2,0.4,0.4,0.5c0.2,0.2,0.4,0.3,0.6,0.4s0.5,0.2,0.7,0.3c0.3,0.1,0.6,0.1,0.9,0.1
								s0.7,0,1.1,0.1l9.1,0.1h2.8l0,0l0,0l0,0l0,0c0.1,0,0.2,0,0.2,0c0.1,0,0.2,0,0.2,0c0.1,0,0.2,0,0.2,0c0.1,0,0.1,0,0.2,0
								c0.6,0,1.1-0.1,1.5-0.3c0.4-0.2,0.7-0.4,1-0.7c0.2-0.3,0.4-0.7,0.5-1.1c0.1-0.5,0.2-1,0.2-1.7l0.1-5.6h-3.1h-3.9H388v2.9h6.5
								v0.2v3.2h-3.1l-9.3-0.1l0.1-7.1v-3v-0.1l12.4,0.1v1v0.7l0.4-0.1l3.5-0.5v-0.1v-0.1v-0.1V431c0-0.7-0.1-1.3-0.2-1.8
								s-0.4-0.8-0.7-1.1c-0.3-0.3-0.8-0.5-1.3-0.6s-1.2-0.2-2-0.2l-11.8-0.1l0,0C382.5,427.1,382.4,427.1,382.3,427.1
								C382.4,427.1,382.4,427.1,382.3,427.1C382.4,427.1,382.4,427.1,382.3,427.1 M366.3,426.9v3.2l-0.1,13.3h0.9h3.2l0.1-16.5
								H366.3 M336.8,426.5v3.2l-0.1,13.5h0.9h3.2v-3.8v-3.2l12.8,0.1l-0.1,7h0.9h3.2l0.2-16.5l-4.1-0.1v3.2v3.1h-3.2l-9.6-0.1
								l0.1-6.3L336.8,426.5"/>
							<path fill="#FFFFFF" d="M727.5,581.8l1,2.7l7.5,21l2.1-0.1l1.4-0.1l4.5-12.6l1.7-4.8l5.9,16.6l2-0.1l1.4-0.1l8.3-24.3
								l-4.5,0.2l-0.9,2.8l-4.5,14.2l-0.8-2.2l-5-14.2l-3.5,0.2l-1,2.8l-4.9,14.3l-0.7-2.1l-4.8-14.4L727.5,581.8 M691.9,591v-2.8
								l17.4-0.9l-0.1,15.2l-2.4,0.1l-14.9,0.9V591 M692,583.6c-0.8,0-1.5,0.1-2.1,0.3c-0.6,0.1-1.1,0.3-1.5,0.6s-0.8,0.6-1,1
								c-0.3,0.4-0.5,0.9-0.6,1.5c0,0.2-0.1,0.4-0.1,0.6c0,0.2-0.1,0.4-0.1,0.6c0,0.2,0,0.5,0,0.7s0,0.5,0,0.8v13
								c0,1.2,0.1,2.1,0.3,2.9c0.2,0.7,0.5,1.3,0.9,1.7s1,0.7,1.7,0.8s1.6,0.2,2.7,0.1l16.7-1c0,0,0,0,0.1,0c0,0,0,0,0.1,0
								c0,0,0,0,0.1,0c0,0,0,0,0.1,0c0.3,0,0.5,0,0.8-0.1c0.2,0,0.5-0.1,0.7-0.1s0.4-0.1,0.6-0.1c0.2-0.1,0.4-0.1,0.6-0.2
								c0.5-0.2,0.9-0.4,1.2-0.7s0.6-0.7,0.8-1.1c0.2-0.4,0.4-1,0.5-1.6s0.1-1.3,0.1-2.2v-12.8c0-1.2-0.1-2.1-0.3-2.8
								s-0.5-1.3-0.9-1.7s-1-0.7-1.7-0.8s-1.6-0.2-2.6-0.1l-16.7,0.9c0,0,0,0-0.1,0c0,0,0,0-0.1,0
								C692.1,583.6,692.1,583.6,692,583.6C692.1,583.6,692,583.6,692,583.6 M639.9,586.3v2.8l-0.1,22.2l3-0.2l2.6-0.2v-7.7v-2.8
								l17.1-1v10.5l2.9-0.2l2.5-0.2l0.1-24.8l-5.4,0.3v2.8v6.6l-2.5,0.1l-14.5,0.8v-9.5L639.9,586.3 M600.3,588.4
								c-0.8,0.1-1.6,0.1-2.2,0.3c-0.6,0.1-1.2,0.3-1.7,0.6s-0.8,0.6-1.1,1.1c-0.3,0.4-0.5,1-0.7,1.6c0,0.2-0.1,0.4-0.1,0.6
								c0,0.2-0.1,0.4-0.1,0.7c0,0.2,0,0.5-0.1,0.7c0,0.3,0,0.5,0,0.8v2.8c0,1.2,0.1,2.2,0.3,3s0.5,1.4,1,1.8
								c0.5,0.4,1.1,0.7,1.9,0.8c0.8,0.1,1.7,0.2,2.9,0.1l15.1-0.9v5.8l-2.6,0.2l-14.5,0.9v-2.9v-0.1l-0.4,0.1l-4.8,1.2v0.7
								c0,0.2,0,0.3,0,0.4c0,0.1,0,0.3,0,0.4c0,0.1,0,0.3,0,0.4c0,0.1,0,0.3,0,0.4c0.1,0.9,0.2,1.5,0.5,2.1s0.6,1,1.1,1.3
								s1.1,0.5,1.8,0.6s1.6,0.1,2.6,0l15.1-0.9l0,0l0,0l0,0l0,0c0.3,0,0.6,0,0.8-0.1c0.3,0,0.5-0.1,0.8-0.1c0.2,0,0.5-0.1,0.7-0.1
								c0.2-0.1,0.4-0.1,0.6-0.2c0.5-0.2,1-0.4,1.4-0.7s0.7-0.7,0.9-1.2s0.4-1,0.5-1.7c0.1-0.6,0.2-1.4,0.2-2.2v-3.5
								c0-1.2-0.1-2.2-0.3-2.9c-0.2-0.8-0.5-1.4-1-1.8c-0.5-0.4-1.1-0.7-1.8-0.8c-0.8-0.1-1.7-0.2-2.9-0.1h-0.7l-1.1,0.1l-13.4,0.7
								v-2.5V593l16-0.9v2.7l2.1-0.6l2.7-0.8v-0.6c0-1.1-0.1-2-0.3-2.7s-0.6-1.2-1.1-1.6c-0.5-0.4-1.1-0.6-1.9-0.8
								c-0.8-0.1-1.7-0.2-2.7-0.1l-13.8,0.7c0,0,0,0-0.1,0l0,0C600.4,588.4,600.3,588.4,600.3,588.4L600.3,588.4"/>
							<polyline fill="#FFFFFF" points="766.5,580 766.5,580.5 767.7,580.4 767.7,584.6 768.2,584.5 768.2,580.4 769.4,580.3 
								769.4,579.8 766.5,580 							"/>
							<path fill="#FFFFFF" d="M770,579.8l-0.3,4.7h0.5l0.1-2c0-0.2,0-0.4,0-0.5c0-0.2,0-0.4,0-0.5c0-0.2,0-0.4,0-0.5
								c0-0.2,0-0.3,0-0.5l0,0c0,0.1,0.1,0.3,0.1,0.4c0,0.1,0.1,0.3,0.1,0.4c0,0.1,0.1,0.3,0.1,0.5s0.1,0.3,0.1,0.5l0.6,2.2h0.4
								l0.7-2.3c0.1-0.2,0.1-0.3,0.1-0.5s0.1-0.3,0.1-0.5s0.1-0.3,0.1-0.4c0-0.1,0.1-0.3,0.1-0.4l0,0c0,0.1,0,0.3,0,0.5s0,0.3,0,0.5
								s0,0.3,0,0.5s0,0.3,0,0.5l0.1,2h0.5l-0.2-4.6h-0.7l-0.7,2.3c0,0.2-0.1,0.3-0.1,0.4c0,0.1-0.1,0.3-0.1,0.4
								c0,0.1-0.1,0.3-0.1,0.4c0,0.1-0.1,0.2-0.1,0.4l0,0c0-0.1,0-0.2-0.1-0.4c0-0.1-0.1-0.2-0.1-0.4c0-0.1-0.1-0.3-0.1-0.4
								c0-0.1-0.1-0.3-0.1-0.4l-0.7-2.2L770,579.8"/>
						</g>
					</g>
				</g>
			</g>
			<path fill="#FFFFFF" d="M763.5,464.6l-86.8-0.2l-0.2,46.4l24.8-0.4l-29.5,31.9l-0.1,25.7l91.1-3.7l0.1-45.7l-25.5,0.5l-0.1,19.5
				c0,0.3,0,0.5,0,0.7s0,0.3-0.1,0.4c0,0.1,0,0.2-0.1,0.2v0.1l0,0H737c0,0-0.1,0-0.2,0c-0.1,0-0.1,0-0.2,0l0,0l0,0l0,0l0,0
				l-20.8,0.6l47.7-51.9L763.5,464.6z M758.8,486.6l-55.2,60l33-1h0.2l0,0c0.4,0,0.8-0.1,1.3-0.3c0.7-0.2,1.3-0.6,1.8-1
				c0.6-0.6,1.1-1.3,1.5-2.1c0.4-1,0.6-2.2,0.6-3.5v-14.2l16.1-0.4l-0.1,35.1l-81.5,3.2l0.1-17.8l55.6-60.3l-27,0.2v0.8l-0.1-0.8
				H705c-1,0-1.9,0.1-2.6,0.3c-1,0.2-1.9,0.7-2.6,1.2c-0.9,0.7-1.5,1.6-2,2.7c-0.5,1.2-0.8,2.7-0.8,4.4v12l-15.7,0.2l0.1-35.4h77.2
				L758.8,486.6z M702,509.7V493c0-0.6,0-1.1,0.1-1.5s0.2-0.7,0.4-1c0.2-0.2,0.5-0.4,1-0.5c0.4-0.1,1-0.2,1.7-0.2l0,0l0,0l0,0l0,0
				l15.1-0.1L702,509.7z"/>
			<path fill="#FFFFFF" d="M646.4,456.2c0-0.2,0.1-0.4,0.2-0.6c0.1-0.2,0.4-0.3,0.7-0.4s0.7-0.2,1.3-0.2l0,0l0,0l0,0l0,0l15,0.1
				l0.1-25.9l-69.4-1.2l-0.1,26.6l16.1,0.1c0.5,0,0.9,0,1.1,0.1c0.3,0.1,0.5,0.1,0.6,0.3c0.1,0.1,0.2,0.4,0.2,0.6c0,0.3,0,0.6,0,1.1
				l-0.2,47.7c0,0.8,0,1.5-0.1,2s-0.2,0.9-0.3,1.1c-0.2,0.2-0.4,0.4-0.7,0.5s-0.6,0.1-1.1,0.1c0,0,0,0-0.1,0c0,0,0,0-0.1,0
				c0,0,0,0-0.1,0c0,0,0,0-0.1,0l-15.7,0.2l-0.1,26.9l69.5-1.8l0.1-26.1l-15.4,0.2c-0.2,0-0.5,0-0.7-0.1s-0.4-0.2-0.6-0.5
				c-0.2-0.3-0.3-0.7-0.5-1.3c-0.1-0.6-0.2-1.4-0.2-2.5l0.2-46.6C646.4,456.6,646.4,456.4,646.4,456.2z M641.7,508.3
				c0.4,1.2,0.9,2.3,1.6,3.1c0.6,0.7,1.4,1.2,2.3,1.6c0.7,0.3,1.6,0.4,2.4,0.4l10.4-0.2l-0.1,15.1l-59.2,1.4l0.1-15.5l10.5-0.2
				c0,0,0,0,0.1,0l0,0c1.7,0,3.2-0.4,4.3-1.2c1-0.6,1.8-1.6,2.3-2.7c0.4-0.9,0.7-1.9,0.8-3c0.1-0.9,0.1-1.7,0.1-2.4l0.2-47.8
				c0-1.3-0.1-2.3-0.4-3.3c-0.3-1-0.7-1.8-1.4-2.5c-0.6-0.7-1.4-1.2-2.3-1.5c-0.9-0.3-1.9-0.5-3.1-0.5l-10.9-0.1l0.1-15.3l59.1,0.9
				l-0.1,14.9l-10-0.1h-0.1c-1.1,0-2.1,0.2-3,0.5s-1.7,0.8-2.3,1.5c-0.7,0.6-1.2,1.4-1.5,2.3s-0.5,1.9-0.5,3l-0.2,46.7
				C641.1,505.3,641.3,506.9,641.7,508.3z"/>
			<path fill="#FFFFFF" d="M458.1,464.4l-0.2,28.3l16.6-0.1c0.6,0,1,0,1.3,0.1c0.3,0,0.5,0.1,0.7,0.3c0.1,0.2,0.2,0.4,0.3,0.7
				c0,0.3,0,0.7,0,1.2l-0.3,49.5c0,5.9,0.9,11,2.9,15.5c2,4.4,4.9,8.1,8.7,11.1c3.8,2.9,8.6,5.1,14.2,6.4c5.6,1.3,12,1.9,19.1,1.6
				c0.1,0,0.1,0,0.2,0c0.1,0,0.1,0,0.2,0c0.1,0,0.1,0,0.2,0c0.1,0,0.1,0,0.2,0c5.6-0.3,11.2-1.2,16.5-2.7s10.2-3.8,14.5-6.8
				s7.8-6.8,10.3-11.4c2.5-4.6,4-10.1,4-16.6l0.3-47.4c0-0.4,0-0.8,0-1.1c0-0.3,0.1-0.5,0.3-0.7c0.1-0.2,0.3-0.3,0.6-0.3
				c0.3-0.1,0.7-0.1,1.2-0.1l0,0l0,0l0,0l0,0l14.5-0.1l0.1-26.9L458.1,464.4z M579.2,486l-9.2,0.1h-0.1c-1.2,0-2.3,0.2-3.2,0.5
				s-1.8,0.9-2.4,1.6c-0.6,0.7-1.1,1.5-1.5,2.5c-0.3,1-0.5,2.1-0.5,3.3l-0.3,47.4c0,5.2-1.2,9.9-3.5,14c-2.1,3.7-5.1,6.9-9,9.6
				c-3.6,2.4-7.9,4.4-12.8,5.7c-4.5,1.3-9.5,2.1-14.6,2.3h-0.7c-5,0.2-9.6,0-13.8-0.7c-4.9-0.8-9.2-2.1-12.7-4.1
				c-4-2.2-7.1-5.2-9.3-8.9c-2.4-4.1-3.6-9.3-3.5-15.3l0.3-49.4c0-1.3-0.1-2.4-0.5-3.4c-0.3-1-0.8-1.9-1.5-2.6s-1.5-1.2-2.5-1.5
				c-0.9-0.3-2.1-0.5-3.3-0.5h-0.1l-10.8,0.1l0.1-16.5h58l-0.1,16.1h-5.1c-1.2,0-2.3,0.2-3.4,0.6c-1,0.4-1.9,0.9-2.6,1.6
				s-1.3,1.5-1.7,2.5c-0.4,1-0.6,2-0.6,3.2l-0.3,42.5c0,2.5,0.4,4.8,1.2,6.9c0.8,2.1,2,3.9,3.6,5.3c1.6,1.5,3.4,2.6,5.5,3.3
				c2.2,0.7,4.5,1.1,7,1h0.1l0,0h0.1l0,0c2.6-0.1,4.9-0.6,7.1-1.5c2.1-0.9,4-2.1,5.5-3.6s2.8-3.3,3.6-5.4c0.8-2.1,1.3-4.4,1.3-6.8
				l0.2-42.1c0-1.2-0.2-2.2-0.5-3.2c-0.4-1-0.9-1.8-1.6-2.4c-0.7-0.7-1.6-1.2-2.6-1.5s-2.1-0.5-3.3-0.5h-5.7l0.1-16H579L579.2,486z
				 M535.5,492c0.7,0,1.1,0.1,1.5,0.2s0.6,0.3,0.8,0.5s0.2,0.4,0.3,0.6c0,0.2,0,0.4,0,0.6l-0.3,42.2c0,2-0.4,3.7-1.1,5.2
				c-0.7,1.4-1.7,2.6-2.9,3.5s-2.5,1.6-3.9,2c-1.4,0.5-2.9,0.7-4.3,0.7l0,0l0,0l0,0l0,0c-0.7,0-1.8,0-3-0.2s-2.6-0.6-4-1.3
				c-1.3-0.7-2.5-1.8-3.4-3.3s-1.5-3.5-1.4-6.2l0.3-42.5c0-0.2,0-0.4,0-0.7c0-0.2,0.1-0.4,0.3-0.6s0.4-0.3,0.8-0.5
				c0.4-0.1,0.9-0.2,1.6-0.2l0,0l0,0l0,0l0,0L535.5,492z"/>
			<g>
				<path fill="#FFFFFF" d="M404.5,513.6c-1.9-5.7-4.7-10.2-8.2-13.3c-4.3-3.7-9.8-5.5-16.4-5.5h-0.1h-0.2
					c-6.7,0.1-12.2,2.1-16.6,5.8c-3.7,3.2-6.7,7.7-8.7,13.5c-1.6,4.6-2.7,10.1-3.3,16.6c-0.5,5.6-0.5,10.9-0.6,15.2
					c0,5.2,0.1,10.1,0.3,14.6c0.2,4.4,0.6,8.4,1.1,11.9s1.1,6.5,1.9,8.9c0.8,2.5,1.6,4.4,2.6,5.8l1.5,2.1l-0.1-2.6
					c-0.1-3.1,0.5-6.1,1.6-8.6c1.1-2.4,2.6-4.5,4.6-6.3c1.9-1.7,4.2-3,6.8-4c2.5-0.9,5.2-1.5,8-1.6c2.5-0.1,4.7,0.1,6.6,0.5
					s3.6,1.1,5.1,2.1s2.8,2.2,3.9,3.8s2.1,3.4,3,5.7l3.6,9.4l2.8-9.9c0.8-2.7,1.5-5.8,2-8.9c0.5-2.8,0.9-5.8,1.2-8.9
					c0.2-2.6,0.4-5.4,0.6-8.4c0.1-2.2,0.1-4.6,0.2-7.3v-0.1c0-4,0.1-8.9-0.3-14.2C407,523.4,406,518.1,404.5,513.6z M401.8,544.1
					c0,0.8,0,1.7,0,2.6c0,0.9,0,1.9-0.1,2.9c0,1-0.1,2-0.1,3s-0.1,2.1-0.2,3.2l-0.1-0.1c-0.1,1.1-0.2,2.2-0.3,3.3
					c-0.1,1.1-0.2,2.2-0.4,3.4c-0.1,1.1-0.3,2.3-0.5,3.4c-0.2,1.1-0.4,2.3-0.6,3.4c-0.5-0.7-1-1.4-1.6-2c-0.5-0.6-1.1-1.2-1.7-1.8
					c-0.6-0.5-1.2-1.1-1.9-1.5c-0.7-0.5-1.3-0.9-2.1-1.3c-0.9-0.5-1.9-0.9-2.9-1.3c-1-0.4-2.1-0.6-3.2-0.9c-1.1-0.2-2.3-0.4-3.6-0.5
					c-1.2-0.1-2.5-0.1-3.9-0.1h-0.1h-0.1h-0.1h-0.1c-2.4,0.1-4.6,0.4-6.7,0.9s-4.1,1.2-5.9,2.1c-1.8,0.9-3.4,2-4.8,3.3
					s-2.7,2.9-3.7,4.6c-0.2-1.6-0.4-3.3-0.5-5c-0.1-1.8-0.2-3.6-0.2-5.7c-0.1-2-0.1-4.2-0.1-6.6c0-2.4,0-5,0-7.8
					c0-5.6,0.2-11.2,0.8-16.5c0.5-5.2,1.5-10.1,3-14.3c1.6-4.2,3.8-7.7,6.9-10.1c3.1-2.5,7.1-3.9,12.3-4c0,0,0,0,0.1,0
					c0,0,0,0,0.1,0c0,0,0,0,0.1,0c0,0,0,0,0.1,0c4.7-0.1,8.4,1,11.3,3s5.1,5,6.7,8.8c1.6,3.8,2.6,8.4,3.2,13.7
					C401.7,531.6,401.9,537.6,401.8,544.1z"/>
				<path fill="#FFFFFF" d="M384.1,575.3c-1-1.1-2.1-2-3.5-2.6s-2.9-0.8-4.5-0.8c-0.2,0-0.3,0-0.5,0s-0.3,0-0.5,0s-0.3,0-0.5,0.1
					c-0.2,0-0.3,0.1-0.5,0.1c-0.7,0.1-1.6,0.4-2.5,0.9c-1,0.5-2,1.1-2.9,1.8c-1,0.8-1.9,1.8-2.6,2.7c-0.8,1.2-1.4,2.4-1.7,3.7
					c-0.2,0.9-0.4,1.8-0.4,2.7c-0.1,0.9,0,1.7,0.1,2.5s0.3,1.6,0.5,2.3c0.3,0.7,0.6,1.4,1.1,1.9c0.6,0.8,1.5,1.5,2.5,2
					c0.8,0.4,1.8,0.7,2.8,0.9c0.8,0.2,1.6,0.3,2.4,0.3c0.3,0,0.6,0,0.8,0c0.3,0,0.5,0,0.5,0h0.2c0.8,0,1.5-0.1,2.2-0.2
					c0.8-0.1,1.5-0.2,2.2-0.3c0.8-0.1,1.5-0.3,2.4-0.5c0.8-0.2,1.7-0.4,2.5-0.7l2.6-0.7l0.1-6.9c0-1.9-0.2-3.7-0.7-5.2
					S385,576.5,384.1,575.3z M380.9,587c-0.5,0.1-1.1,0.2-1.6,0.3s-1,0.2-1.5,0.3s-1,0.1-1.4,0.2c-0.5,0-0.9,0.1-1.4,0.1
					c0,0,0,0-0.1,0c0,0,0,0-0.1,0c0,0,0,0-0.1,0c0,0,0,0-0.1,0c-0.5,0-1,0-1.4-0.1c-0.5,0-0.9-0.1-1.3-0.2c-0.4-0.1-0.7-0.2-1-0.3
					s-0.5-0.3-0.6-0.4c-0.1-0.1-0.2-0.3-0.2-0.5s-0.1-0.5-0.2-0.9c0-0.4,0-0.8,0-1.3s0.1-1.1,0.3-1.7c0.1-0.6,0.4-1.1,0.8-1.6
					s0.8-0.9,1.3-1.3c0.5-0.4,1-0.7,1.4-0.9s0.8-0.4,1.1-0.4c0.1,0,0.2,0,0.3,0c0.1,0,0.2,0,0.3,0c0.1,0,0.2,0,0.3,0
					c0.1,0,0.2,0,0.3,0c1.1,0,2,0.2,2.6,0.7c0.7,0.5,1.1,1.1,1.5,1.8c0.3,0.7,0.5,1.5,0.6,2.3c0.1,0.7,0.1,1.4,0.1,2L380.9,587z"/>
				<path fill="#FFFFFF" d="M435.2,600.3c0.2-0.2,0.4-0.4,0.7-0.6c0.2-0.2,0.4-0.4,0.7-0.6c0.2-0.2,0.4-0.4,0.6-0.6
					c3.8-3.7,7-7.6,9.8-11.7c2.8-4.1,5-8.5,6.8-13.1s3.2-9.5,4.1-14.7s1.4-10.7,1.4-16.6c0-5.4-0.4-10.6-1.4-15.7
					c-1-5.1-2.4-10-4.3-14.6c-1.9-4.7-4.3-9.1-7.1-13.3c-2.8-4.2-6.1-8.1-9.8-11.6c-3.6-3.5-7.6-6.6-11.8-9.3
					c-4.3-2.7-8.8-5-13.6-6.9c-4.8-1.9-9.8-3.3-15-4.3s-10.6-1.5-16.1-1.5c-0.1,0-0.1,0-0.2,0s-0.1,0-0.2,0s-0.1,0-0.2,0
					s-0.1,0-0.2,0c-11.2,0.1-21.9,2.3-31.5,6.2c-9.7,4-18.5,9.8-25.8,17.1c-7.4,7.3-13.4,16.1-17.5,25.9c-4.2,9.9-6.5,20.8-6.6,32.4
					c-0.1,5.8,0.4,11.4,1.3,16.8c0.9,5.4,2.2,10.6,4,15.5s4,9.5,6.6,13.8s5.6,8.2,9,11.7c3.6,3.7,7.5,6.9,11.7,9.6
					c4.2,2.7,8.7,4.9,13.5,6.6c4.8,1.7,9.8,2.9,15.1,3.6c5.3,0.7,10.7,0.9,16.4,0.6c0.1,0,0.1,0,0.2,0s0.1,0,0.2,0s0.1,0,0.2,0
					s0.1,0,0.2,0c0.5,0,1.1-0.1,1.6-0.1s1.1-0.1,1.6-0.2c0.5-0.1,1.1-0.1,1.6-0.2c0.5-0.1,1.1-0.1,1.6-0.2c0,0.2,0.1,0.4,0.1,0.6
					c0,0.2,0.1,0.4,0.1,0.7c0,0.2,0.1,0.4,0.1,0.7c0,0.2,0.1,0.4,0.1,0.7c0.9,4.5,2.4,8.5,4.6,11.9c2.1,3.4,4.9,6.3,8.1,8.5
					s7,3.8,11.3,4.8c4.2,1,8.9,1.3,14,1h0.1h0.1h0.1h0.1c6.1-0.5,11.4-1.8,16-4s8.4-5.2,11.5-9s5.4-8.4,7-13.8
					c1.6-5.4,2.4-11.5,2.5-18.5l0.1-8.3l-24.1,1.2C434.7,600.7,434.9,600.5,435.2,600.3z M421.4,648L421.4,648L421.4,648L421.4,648z
					 M435.6,615.8c0.7-1.4,1.2-3,1.5-4.9c0.2-1.3,0.3-2.6,0.4-4.3l15.4-0.8v2.3c0,6.2-0.7,11.7-2,16.4c-1.3,4.6-3.2,8.6-5.8,11.8
					c-2.5,3.2-5.8,5.7-9.6,7.5c-3.9,1.8-8.5,2.9-13.8,3.3h-0.5c-3.1,0.2-6,0.1-8.8-0.2c-3.5-0.5-6.8-1.4-9.6-2.7
					c-3.4-1.6-6.2-3.8-8.4-6.6c-2.6-3.3-4.3-7.4-5.3-12.2v-0.2c-0.1-0.3-0.1-0.5-0.2-0.8s-0.1-0.6-0.1-0.8c0-0.3-0.1-0.6-0.1-0.8
					l-0.2-1.2c0-0.1,0-0.2,0-0.3l-0.6-3.7l-3.2,0.4c-0.7,0.1-1.4,0.2-2.1,0.3s-1.5,0.2-2.2,0.2c-0.7,0.1-1.5,0.2-2.2,0.2
					c-0.7,0.1-1.5,0.1-2.2,0.2h-0.1h-0.3c-10.4,0.6-20.1-0.7-28.9-3.8c-8.7-3.1-16.3-7.8-22.6-14.2c-6.4-6.4-11.3-14.2-14.7-23.3
					c-3.4-9.3-5.1-19.7-5-30.9c0.1-10.5,2.2-20.6,6.1-30c3.8-9,9.2-17.1,16.1-23.9c6.8-6.8,14.9-12.1,23.8-15.8
					c9.1-3.8,18.9-5.7,29.1-5.8h0.6c0.1,0,0.1,0,0.2,0c10.6,0,20.6,1.9,29.8,5.5c8.8,3.5,16.7,8.6,23.2,15s11.6,14,15.1,22.5
					c3.6,8.8,5.4,18.2,5.3,28.2c0,5.4-0.5,10.6-1.3,15.4c-0.8,4.8-2.1,9.3-3.7,13.6c-1.7,4.2-3.8,8.3-6.3,12
					c-2.5,3.8-5.5,7.4-9,10.8c-1.2,1.2-2.5,2.4-3.9,3.6c-1.2,1.1-2.5,2.2-4,3.3c-1.2,1-2.6,2-4,3.2c-1.3,1-2.7,2-4,3l-1.5,1.1v1.8
					c0,1.7,0.2,3.3,0.7,4.8c0.5,1.4,1.2,2.7,2.2,3.7s2.1,1.8,3.4,2.3s2.8,0.7,4.3,0.6h0.2c2.2-0.1,4.1-0.8,5.7-1.8
					C433.6,618.8,434.7,617.5,435.6,615.8z M431.7,603.4v0.2c0,2.3-0.1,4.2-0.3,5.7c-0.2,1.5-0.4,2.7-0.8,3.6
					c-0.4,0.9-0.9,1.5-1.6,1.9s-1.5,0.6-2.5,0.7l0,0l0,0l0,0l0,0c-0.8,0-1.6-0.1-2.1-0.3c-0.6-0.2-1-0.6-1.4-1s-0.6-0.9-0.8-1.4
					c-0.2-0.5-0.3-1.1-0.4-1.6c0.8-0.6,1.6-1.2,2.5-1.9c0.8-0.6,1.7-1.3,2.5-1.9c0.8-0.7,1.7-1.3,2.5-2
					C430,604.8,430.9,604.1,431.7,603.4z"/>
			</g>
			<path fill="#FFFFFF" d="M784.7,429.9c0-2.2-0.3-4.8-1-7.6c-0.7-2.8-1.7-5.7-3.3-8.3c-1.6-2.6-3.7-5-6.4-6.7
				c-2.8-1.7-6.2-2.9-10.3-3l-426.1-9.8c-2.6-0.1-5.7,0.3-9,1.1c-3.3,0.9-6.7,2.3-9.8,4.6c-3.1,2.2-5.9,5.2-8,9.1
				c-2,3.9-3.3,8.8-3.4,14.8l-0.7,103.2c0.9-3.6,2.1-7.1,3.5-10.5c1.3-3,2.7-5.8,4.3-8.6l0.6-84.1c0-5.5,1.3-9.6,3.3-12.8
				c1.9-3.1,4.5-5.2,7.2-6.6s5.4-2.1,7.6-2.5s3.8-0.4,4.4-0.4l426.1,8.7c1.6,0,3.1,0.3,4.5,0.7c1.4,0.4,2.6,1,3.8,1.8
				c1.1,0.8,2.1,1.8,3,2.9c0.9,1.2,1.7,2.5,2.3,4c0.4,1,0.8,2,1,3c0.3,1,0.5,1.9,0.6,2.7c0.2,0.8,0.3,1.6,0.3,2.2
				c0.1,0.6,0.1,1.1,0.1,1.5c0,0.1,0,0.1,0,0.2s0,0.1,0,0.1v0.1l0,0l0.4,169.2c0,4.6-0.9,8.2-2.2,10.9s-3.2,4.7-5,6
				c-1.9,1.4-3.8,2.2-5.3,2.6c-1.6,0.5-2.8,0.6-3.2,0.6l0,0l-325,22.8c-1.1,0.8-2.3,1.4-3.6,2c-3.9,1.8-8.5,2.9-13.8,3.3h-0.5
				c-3.1,0.2-6,0.1-8.8-0.2c-3.5-0.4-6.7-1.3-9.4-2.6L336,649c-2.3,0.2-4.4,0.1-6.4-0.3c-2-0.3-3.7-0.9-5.4-1.7
				c-1.6-0.8-3.1-1.9-4.3-3.1c-1.3-1.3-2.4-2.8-3.3-4.6c-0.6-1.2-1.1-2.4-1.5-3.6c-0.4-1.2-0.7-2.3-0.9-3.3c-0.2-1-0.3-1.9-0.4-2.7
				s-0.1-1.4-0.1-1.7c0-0.1,0-0.1,0-0.2c0-0.1,0-0.1,0-0.1v-0.1l0,0l0.3-39.5c-1.9-3.2-3.5-6.7-4.8-10.3c-1.1-3-2-6.1-2.8-9.3
				l-0.4,59.6c0,2.6,0.4,5.8,1.3,9.1s2.5,6.7,4.7,9.7c2.3,3,5.3,5.6,9.2,7.4c3.9,1.7,8.8,2.6,14.7,2.2l428.2-30.9
				c1.8-0.1,4.1-0.6,6.4-1.6c2.3-1,4.7-2.4,6.9-4.5s4.1-4.7,5.5-8.1c1.4-3.4,2.2-7.5,2.2-12.5L784.7,429.9z"/>
		</g>
	</g>
</g>
</svg>
