<svg id="Layer_1" data-name="Layer 1" xmlns="http://www.w3.org/2000/svg" viewBox="0 0 1080 1080"><defs><style>.cls-1{opacity:0.75;}.cls-2{fill:#fff;}</style></defs><title>WGBH_impact-report_digital_logo-farm_v1</title><g class="cls-1"><path class="cls-2" d="M349.47,499.12h-9.79V529.7h9.79s10.13,0,10.13-9.68V508.8C359.61,499.12,349.47,499.12,349.47,499.12Z"/><path class="cls-2" d="M420.17,497.24a9.64,9.64,0,0,0-9.72,9.56v64.94a9.72,9.72,0,0,0,19.44,0V506.8A9.64,9.64,0,0,0,420.17,497.24Z"/><path class="cls-2" d="M841,592a1.61,1.61,0,0,0,.21-.9,1.39,1.39,0,0,0-.19-.77,1.26,1.26,0,0,0-.48-.44,2.18,2.18,0,0,0-.69-.21,5.58,5.58,0,0,0-.76-.05h-2v3.07h1.57c.34,0,.66,0,1,0a2.56,2.56,0,0,0,.81-.19A1.25,1.25,0,0,0,841,592Z"/><path class="cls-2" d="M203.3,433.77V646.32l673.29,0V433.74ZM311.46,499.1H277.88v26.28h30.67v19H277.88v57.08H256V478.66h55.49Zm49.74,102.33c-1.81-2.5-4.56-6.6-4.56-14.92v-26c-.17-6.83-1-11.12-8-11.15h-8.93v52.1H317.77V478.65H347c17.49,0,33.48,3.48,33.48,26v13c0,8.72-3.16,18.07-13.29,22.06,9.75,1.86,12.14,7.46,12.14,18.64V581c-.22,12.13,4.18,16.38,8,20.36ZM452.45,540v32.09q0,13.2-8.8,21.28t-23.48,8.07q-14.65,0-23.48-8.07t-8.81-21.27V508q0-13.2,8.8-21.28t23.47-8.07q14.65,0,23.48,8.07t8.8,21.28ZM524,601.42H501l-19.89-72.94v72.94h-20.9V478.65H486l16.18,59v-59H524Zm73.7-103.8H574.31V601.42H552.41V497.63H529v-19h68.63Zm64.26,103.79H603.52V478.64h21.9V582.32h36.51Zm27.74,0H666.32V478.64h23.36Zm71.93,0h-23L718.7,528.47v72.94H697.8V478.64h25.85l16.18,59v-59H761.6Zm62.56,0H768.68V478.63h54v19H790.57v29.2h30.67v19H790.57v35h33.59Zm22.31-4.94a8.38,8.38,0,0,1-1.79,2.63,8,8,0,0,1-2.63,1.73,8.35,8.35,0,0,1-3.2.62,8.43,8.43,0,0,1-3.21-.62A8.15,8.15,0,0,1,833,599.1a8.3,8.3,0,0,1-1.8-2.63,8.13,8.13,0,0,1-.66-3.3,8,8,0,0,1,.66-3.25,8.21,8.21,0,0,1,1.8-2.61,8.47,8.47,0,0,1,2.65-1.73,8.32,8.32,0,0,1,3.21-.63,8.24,8.24,0,0,1,3.2.63,8.21,8.21,0,0,1,4.42,4.34,8,8,0,0,1,.66,3.25A8.13,8.13,0,0,1,846.48,596.47Z"/><path class="cls-2" d="M843.68,588.19a6.77,6.77,0,0,0-2.15-1.48,6.56,6.56,0,0,0-2.67-.54,6.75,6.75,0,0,0-4.87,2,6.86,6.86,0,0,0-1.43,2.22,7.27,7.27,0,0,0-.52,2.76,7.5,7.5,0,0,0,.52,2.82,7,7,0,0,0,1.43,2.24,6.63,6.63,0,0,0,2.16,1.49,6.71,6.71,0,0,0,2.71.54,6.56,6.56,0,0,0,2.67-.54,6.66,6.66,0,0,0,2.15-1.49,7,7,0,0,0,1.43-2.24,7.5,7.5,0,0,0,.52-2.82,7.27,7.27,0,0,0-.52-2.76A6.86,6.86,0,0,0,843.68,588.19ZM841.35,598l-2.63-4.15h-1.59V598h-1.5v-9.65h3.73a4,4,0,0,1,2.55.68,2.54,2.54,0,0,1,.83,2.08A2.34,2.34,0,0,1,842,593a3.27,3.27,0,0,1-1.81.72L843,598Z"/></g></svg>