<svg id="Layer_1" data-name="Layer 1" xmlns="http://www.w3.org/2000/svg" viewBox="0 0 1080 1080"><defs><style>.cls-1{opacity:0.75;}.cls-2{fill:#fff;}</style></defs><title>WGBH_impact-report_digital_logo-farm_v1</title><g class="cls-1"><g id="_Group_" data-name="&lt;Group&gt;"><path id="_Compound_Path_" data-name="&lt;Compound Path&gt;" class="cls-2" d="M126.05,527.67l18.82-22.49c12,9.58,25.45,14.64,39.56,14.64,9.06,0,13.94-3.14,13.94-8.37v-.35c0-5.06-4-7.84-20.57-11.68-26-5.92-46-13.24-46-38.34v-.35c0-22.66,17.95-39,47.23-39,20.74,0,36.95,5.58,50.19,16.2l-16.9,23.88c-11.15-7.84-23.35-12-34.16-12-8.19,0-12.2,3.49-12.2,7.84v.35c0,5.58,4.18,8,21.09,11.85,28.06,6.1,45.49,15.16,45.49,38v.35c0,24.92-19.69,39.74-49.32,39.74C161.61,547.88,141,541.08,126.05,527.67Z"/><path id="_Compound_Path_2" data-name="&lt;Compound Path&gt;" class="cls-2" d="M280.47,453.41h-36.6V423.78h107v29.63h-36.6v92.37H280.47Z"/><path id="_Compound_Path_3" data-name="&lt;Compound Path&gt;" class="cls-2" d="M361.51,485.13v-.35c0-35,28.23-63.44,65.88-63.44s65.53,28.06,65.53,63.09v.35c0,35-28.23,63.44-65.88,63.44S361.51,520.16,361.51,485.13Zm96.91,0v-.35c0-17.6-12.72-32.94-31.37-32.94-18.48,0-30.85,15-30.85,32.59v.35c0,17.6,12.72,32.94,31.2,32.94C446,517.72,458.41,502.73,458.41,485.12Z"/><path id="_Compound_Path_4" data-name="&lt;Compound Path&gt;" class="cls-2" d="M515.75,423.77h57.69c18.65,0,31.55,4.88,39.74,13.24,7.15,7,10.81,16.38,10.81,28.41v.35c0,18.65-9.93,31-25.1,37.47L628,545.77H589l-24.58-36.95H549.57v36.95H515.76Zm56.12,58.56c11.5,0,18.12-5.58,18.12-14.47v-.35c0-9.59-7-14.47-18.3-14.47H549.57v29.28Z"/></g><path id="_Compound_Path_5" data-name="&lt;Compound Path&gt;" class="cls-2" d="M157.88,571.29h34.8v7.48H166.1v12.76h23.58V599H166.1v19h-8.22Z"/><path id="_Compound_Path_6" data-name="&lt;Compound Path&gt;" class="cls-2" d="M200.35,570.87h20.84c5.88,0,10.49,1.74,13.49,4.68a14.13,14.13,0,0,1,3.87,10.08v.13c0,7.68-4.61,12.29-11.15,14.16L240,617.63h-9.68l-11.49-16.3H208.57v16.3h-8.22ZM220.59,594c5.88,0,9.62-3.07,9.62-7.82v-.13c0-5-3.61-7.75-9.69-7.75h-12V594Z"/><path id="_Compound_Path_7" data-name="&lt;Compound Path&gt;" class="cls-2" d="M245.22,594.8v-.13c0-13.16,10.15-24.18,24.51-24.18s24.38,10.89,24.38,24v.13c0,13.16-10.15,24.18-24.51,24.18S245.22,608,245.22,594.8Zm40.28,0v-.13c0-9.09-6.62-16.63-15.9-16.63s-15.76,7.41-15.76,16.5v.13c0,9.08,6.61,16.63,15.9,16.63S285.5,603.88,285.5,594.79Z"/><path id="_Compound_Path_8" data-name="&lt;Compound Path&gt;" class="cls-2" d="M302.72,571.28h8.75l14.23,22.11,14.23-22.11h8.75V618h-8.22V584.5l-14.76,22h-.27L310.8,584.64V618h-8.08Z"/><path id="_Compound_Path_9" data-name="&lt;Compound Path&gt;" class="cls-2" d="M236.09,648.62H221.26V641h37.94v7.62H244.37v39.14H236.1Z"/><path id="_Compound_Path_10" data-name="&lt;Compound Path&gt;" class="cls-2" d="M266.54,641h8.22v19.44h22.31V641h8.22v46.76h-8.22v-19.7H274.76v19.7h-8.22Z"/><path id="_Compound_Path_11" data-name="&lt;Compound Path&gt;" class="cls-2" d="M316,641h34.67v7.35H324.17V660.5h23.45v7.35H324.17v12.56H351v7.35H316Z"/><path class="cls-2" d="M617,411.11a21.26,21.26,0,0,0,9.25,14.64c6.44-1.65,13.5-6.9,18.8-14.67,4.37-6.41,6.7-13.31,6.92-19.24a21.31,21.31,0,0,0-35,19.26Z"/><path class="cls-2" d="M630.27,427.86a21.32,21.32,0,0,0,24.79-32.72,38.44,38.44,0,0,1-6.87,18.3C643.13,420.86,636.47,426,630.27,427.86Z"/><path class="cls-2" d="M646,431.75l50,29.76s4.08,2.63,6.77-1l4.31-5.79s1.43-4.67-1-6.89L662.87,408.4A26.07,26.07,0,0,1,646,431.75Z"/><path id="_Compound_Path_12" data-name="&lt;Compound Path&gt;" class="cls-2" d="M735.32,423.76h98.12v28.76H768.78V471h58.56v26.66H768.78V517h65.53v28.76h-99Z"/><path id="_Compound_Path_13" data-name="&lt;Compound Path&gt;" class="cls-2" d="M847.57,527.63l18.82-22.49c12,9.58,25.45,14.64,39.56,14.64,9.06,0,13.94-3.14,13.94-8.37v-.35c0-5.06-4-7.84-20.56-11.68-26-5.92-46-13.24-46-38.34v-.35c0-22.66,17.95-39,47.23-39,20.74,0,36.95,5.58,50.2,16.2l-16.91,23.88c-11.15-7.84-23.35-12-34.16-12-8.19,0-12.2,3.49-12.2,7.84v.35c0,5.58,4.18,8,21.09,11.85,28.06,6.1,45.49,15.16,45.49,38v.35c0,24.92-19.69,39.74-49.32,39.74C883.12,547.84,862.55,541,847.57,527.63Z"/><path id="_Compound_Path_14" data-name="&lt;Compound Path&gt;" class="cls-2" d="M366.25,672.9l18.82-22.49c12,9.58,25.45,14.64,39.56,14.64,9.06,0,13.94-3.14,13.94-8.37v-.35c0-5.06-4-7.84-20.56-11.68-26-5.92-46-13.24-46-38.34V606c0-22.66,17.95-39,47.23-39,20.74,0,36.95,5.58,50.2,16.2L452.52,607c-11.15-7.84-23.35-12-34.16-12-8.19,0-12.2,3.49-12.2,7.84v.35c0,5.58,4.18,8,21.09,11.85,28.06,6.1,45.49,15.16,45.49,38v.35c0,24.92-19.69,39.74-49.32,39.74C401.81,693.11,381.24,686.32,366.25,672.9Z"/><path id="_Compound_Path_15" data-name="&lt;Compound Path&gt;" class="cls-2" d="M515.43,598.64h-36.6V569h107v29.63h-36.6V691H515.44Z"/><path id="_Compound_Path_16" data-name="&lt;Compound Path&gt;" class="cls-2" d="M627.14,568.14h32.59L711.67,691H675.42l-8.89-21.78H619.47L610.76,691H575.21Zm29.63,74.77-13.6-34.68-13.77,34.68Z"/><path id="_Compound_Path_17" data-name="&lt;Compound Path&gt;" class="cls-2" d="M711.51,630.35V630c0-35.55,27.88-63.44,65.7-63.44,21.44,0,36.6,6.62,49.5,17.77l-19.87,23.88c-8.72-7.32-17.43-11.5-29.46-11.5-17.6,0-31.2,14.82-31.19,33.46v.35c0,19.7,13.77,33.81,33.12,33.81,8.19,0,14.46-1.74,19.52-5.05V644.47H774.78V619.72H830.9v54.9a82.49,82.49,0,0,1-53,18.82C739.92,693.44,711.51,667.3,711.51,630.35Z"/><path id="_Compound_Path_18" data-name="&lt;Compound Path&gt;" class="cls-2" d="M849.72,569h98.12v28.76H883.19v18.48h58.56v26.66H883.19v19.35h65.53V691h-99Z"/><polygon class="cls-2" points="670.88 455.48 670.88 545.76 683.46 545.76 683.46 462.97 670.88 455.48"/><path class="cls-2" d="M707.52,457.94l-2.72,3.54c.13.1,13.3,10.41,12.09,21.65-.72,6.66-6.41,12.57-16.92,17.55-42.65,20.24-46.85,38-46.52,45.08h4.5c-.28-5.07,2.5-21.39,43.94-41,12-5.71,18.56-12.81,19.45-21.13C722.79,469.86,708.14,458.42,707.52,457.94Z"/></g></svg>