<svg id="Layer_1" data-name="Layer 1" xmlns="http://www.w3.org/2000/svg" viewBox="0 0 1080 1080"><defs><style>.cls-1{opacity:0.75;}.cls-2{fill:#fff;}</style></defs><title>WGBH_impact-report_digital_logo-farm_v1</title><g class="cls-1"><path class="cls-2" d="M468.64,710.57H453V682.88L428.7,640.44h17l15.15,26.09L476,640.43h17l-24.28,42.44Z"/><path class="cls-2" d="M552.39,710.57l-6.52-15.15h-29.4L510,710.57H493.3l30.3-70.14h15.15l30.3,70.13ZM531.22,661.3l-8.83,20.37H540Z"/><path class="cls-2" d="M635.38,640.43H651v70.13H635.38L602,666.62v43.95H586.32V640.43H601l34.42,45.15Z"/><path class="cls-2" d="M677,640.42h15.65v28.8l26.49-28.8h19.37l-27.89,31,27.9,39.13H720.25l-20.57-27.69-7,7.83v19.87H677Z"/><path class="cls-2" d="M807.09,640.42v13.95H772.17v14.45h31.4v13.34h-31.4v14.55h36v13.85H756.52V640.42Z"/><path class="cls-2" d="M882,640.41v13.95H847.07v14.45h31.4v13.34h-31.4V696.7h36v13.85H831.42V640.42Z"/><path class="cls-2" d="M288.89,416.16l-32,182.56q-.55,3.81-4.35,3.8h-23.9a4,4,0,0,1-4.35-3.8l-9.51-67.64h-.27L205,598.72q-.55,3.81-4.35,3.8H176.7a4,4,0,0,1-4.35-3.8L140.29,416.17q-.55-3.8,3.26-3.8h29.34q3.53,0,4.07,3.8L189.19,527h1.09l9.23-110.84q.54-3.8,4.07-3.8h22q3.53,0,4.08,3.8L238.91,527H240l12.22-110.84q.54-3.8,4.08-3.8h29.34Q289.43,412.36,288.89,416.16Z"/><path class="cls-2" d="M366,574.53v24.18q0,3.81-3.8,3.8h-59q-3.81,0-3.8-3.8V416.16q0-3.8,3.8-3.8h59q3.8,0,3.8,3.8v24.18q0,3.81-3.8,3.8h-31v39.12h26.89q3.8,0,3.8,3.8v24.18q0,3.81-3.8,3.8H331.27v55.69h31Q366,570.73,366,574.53Z"/><path class="cls-2" d="M448.84,574.53v24.18q0,3.81-3.8,3.8h-59q-3.81,0-3.8-3.8V416.16q0-3.8,3.8-3.8h59q3.8,0,3.8,3.8v24.18q0,3.81-3.8,3.8h-31v39.12H441q3.8,0,3.8,3.8v24.18q0,3.81-3.8,3.8H414.07v55.69h31Q448.84,570.73,448.84,574.53Z"/><path class="cls-2" d="M556.35,413.57a3.22,3.22,0,0,1,0,2.58L520,496.29,555.82,598.7a2.64,2.64,0,0,1-.27,2.58,2.74,2.74,0,0,1-2.44,1.22h-26.9a5.41,5.41,0,0,1-4.89-3.26l-19.83-61.39-4.62,11.41v49.44q0,3.81-3.8,3.8H468.89q-3.81,0-3.8-3.8V416.15q0-3.8,3.8-3.8h24.18q3.8,0,3.8,3.8v58.41l25-59a5.09,5.09,0,0,1,5.16-3.26h27.17A2.14,2.14,0,0,1,556.35,413.57Z"/><path class="cls-2" d="M751.67,416.14V598.69q0,3.81-3.8,3.8H730.49a5.22,5.22,0,0,1-3.12-1.09,5.64,5.64,0,0,1-2-2.45L696.53,509V598.7q0,3.81-3.8,3.8H668.55q-3.81,0-3.8-3.8V416.14q0-3.8,3.8-3.8h17.93a5.26,5.26,0,0,1,3.12,1.09,5.75,5.75,0,0,1,2,2.44l28.26,87.2V416.14q0-3.8,3.8-3.8h24.18Q751.67,412.34,751.67,416.14Z"/><path class="cls-2" d="M813.31,412.33A33.1,33.1,0,0,1,826.62,415a34.42,34.42,0,0,1,18.2,18.2,33.09,33.09,0,0,1,2.72,13.31v121.7a33.05,33.05,0,0,1-2.72,13.31,34.41,34.41,0,0,1-18.2,18.2,33,33,0,0,1-13.31,2.72H772.57q-3.81,0-3.8-3.8V416.14q0-3.8,3.8-3.8Zm2.45,35.59a6.49,6.49,0,0,0-6.52-6.52h-8.69v132h8.69a6.49,6.49,0,0,0,6.52-6.52Z"/><path class="cls-2" d="M919.06,413.14a34.41,34.41,0,0,1,18.2,18.2A33.09,33.09,0,0,1,940,444.65V455a4.64,4.64,0,0,1-3.53,4.89l-24.72,6.52q-3.53,1.09-3.53-2.72V446a6.49,6.49,0,0,0-6.52-6.52H899.5A6.49,6.49,0,0,0,893,446v24.72a19.73,19.73,0,0,0,1.09,5.16,12.45,12.45,0,0,0,3,4.35l35.59,26.62a17.63,17.63,0,0,1,5.57,7.74,47.82,47.82,0,0,1,1.77,8.83v46.73a33.06,33.06,0,0,1-2.72,13.31,34.42,34.42,0,0,1-18.2,18.2,33.08,33.08,0,0,1-13.31,2.72H895.44a33.06,33.06,0,0,1-13.31-2.72,34.42,34.42,0,0,1-18.2-18.2,33,33,0,0,1-2.72-13.31V544.08a4.64,4.64,0,0,1,3.53-4.89l24.72-6.52q3.53-1.08,3.53,2.72V568.8a6.49,6.49,0,0,0,6.52,6.52h2.17a6.49,6.49,0,0,0,6.52-6.52V532.94a30,30,0,0,0-1.09-6.25,10.64,10.64,0,0,0-3.26-4.89l-35-26.89a25.14,25.14,0,0,1-5.84-7.61,24,24,0,0,1-1.77-10.05v-32.6a33,33,0,0,1,2.72-13.31,34.41,34.41,0,0,1,18.2-18.2,33,33,0,0,1,13.31-2.72h10.32A33.07,33.07,0,0,1,919.06,413.14Z"/><path class="cls-2" d="M577.39,515h62.28a2.5,2.5,0,0,0,2.5-2.68l-1.92-26.74a2.5,2.5,0,0,0-2.5-2.32H579.31a2.5,2.5,0,0,0-2.5,2.32l-1.92,26.74A2.5,2.5,0,0,0,577.39,515Z"/><path class="cls-2" d="M646.51,572.9a2.5,2.5,0,0,0-2.5-2.32h-71a2.5,2.5,0,0,0-2.5,2.32l-1.93,26.92a2.5,2.5,0,0,0,2.5,2.68h74.82a2.5,2.5,0,0,0,2.5-2.68Z"/><path class="cls-2" d="M582.47,444.15h52.12a2.5,2.5,0,0,0,2.5-2.68l-1.93-26.84a2.5,2.5,0,0,0-2.5-2.32h-5.51l-1.55-22h3.23a1.74,1.74,0,1,0,0-3.48h-3.37l-15-16.91a2.5,2.5,0,0,0-3.56,0l-15,16.91h-3.6a1.74,1.74,0,0,0,0,3.48h3.19l-1.55,22h-5.5a2.5,2.5,0,0,0-2.5,2.32L580,441.47A2.5,2.5,0,0,0,582.47,444.15Zm41-53.86,1.55,22H609.64v-22Zm-29.81,0h13.85v22h-15.4Z"/><path class="cls-2" d="M232.28,692.9,239.66,669h9.7l7.32,23.93L265,669H275l-14.52,41.6h-6.9l-9.11-28.93-9,28.93h-6.9L214,669h10.06Z"/><path class="cls-2" d="M285.74,669H295v41.6h-9.29Z"/><path class="cls-2" d="M327.71,677v33.57h-9.28V677H306.64v-8h32.85v8Z"/><path class="cls-2" d="M376.94,669h9.28v41.6h-9.28V694.21H360.4v16.37h-9.29V669h9.29v17.38h16.55Z"/></g></svg>