<svg id="Layer_1" data-name="Layer 1" xmlns="http://www.w3.org/2000/svg" viewBox="0 0 1080 1080"><defs><style>.cls-1{opacity:0.75;}.cls-2,.cls-3{fill:#fff;}.cls-2{opacity:0.58;}</style></defs><title>WGBH_impact-report_digital_logo-farm_v1</title><g class="cls-1"><path class="cls-2" d="M549.43,597.11c88.95,25.41,134.64-160.58,17.45-180.35C456.75,404.05,435.37,517.1,456.34,582.41c28.48,105.77,161.72,145.68,238,61,90-102.72,57.54-341-163.94-334.3-122.16,7.63-198.22,117.22-194,221C335.32,603.14,348.68,707.89,504.84,797c-67.42-15.52-221.41-121.86-224.59-259.52-6.35-129.19,111.19-246.73,249.37-254.36C719.72,278,792.77,429.43,787.47,529,781.12,659.21,653.2,731.59,546.25,710.42,470,695.59,387.82,615.92,403.1,521.25c13.74-80.94,78.53-128.05,140-128.52,84-1.7,131.31,58.24,131.31,117.55-2.11,94.24-72,110.12-125,86.83"/><path class="cls-3" d="M229.27,505.34c-.37-6.74-8.05-10.86-15.17-10.86-18.71,0-22.64,16.47-22.64,31.82,0,14.79,3.56,33.13,21.71,33.13,8.23,0,16.1-6.17,16.1-14.23h19.28c0,19.85-19.28,30.34-36.69,30.34-27.71,0-39.68-23.78-39.68-49,0-25.08,14-48.11,41.37-48.11,17.41,0,32.2,8.6,35,27Z"/><path class="cls-3" d="M338,490.36h.37a29.81,29.81,0,0,1,24.34-12c16.47,0,28.45,11.8,28.45,28.45v3.74H371.87v-2.8c0-7.3-3.56-15-11.8-15-18.34,0-22.08,18.35-22.08,32.58v48.48H318.71V480.07H338Z"/><path class="cls-3" d="M503,514.7c-.19-12.54-9.54-20.22-21.9-20.22-11.8,0-22.85,7.68-23.59,20.22Zm-45.49,16.1c-.93,17,10.11,28.64,27.34,28.64,5.61,0,12.73-.56,14.79-6.56h19.1c-.94,17.78-20.21,22.65-34.82,22.65-29.77,0-45.68-18.71-45.68-47.92,0-27.9,13.67-49.24,43.25-49.24,29.39,0,40.81,19.28,40.81,46.62v5.8Z"/><path class="cls-3" d="M612,529.49c-10.47,0-21.53,3.93-21.53,16.28,0,9.74,6.93,15.17,16.28,15.17,17,0,25.28-12.92,25.28-28.27v-3.18Zm20,35.38a39.68,39.68,0,0,1-27.15,10.67c-18.16,0-33.7-9.93-33.7-29,0-24.34,22.84-31.64,43.44-31.64H632v-3.37c0-10.67-1.5-18.54-17.41-18.54-9.93,0-20,1.5-20,10.67H575.28c1.3-20.77,21.14-25.27,38.37-25.27,27.15,0,37.64,9.54,37.64,37.07v58.41H632Z"/><path class="cls-3" d="M742.58,478.38h29.13v16.1H742.58v47c0,8.8,1.5,18,12.54,18,6.56,0,15.73-3.37,21-7.31v17.79a44.28,44.28,0,0,1-21.34,5.61c-22.65,0-31.45-15-31.45-35.94V494.48H704v-16.1H723.3V457L742.58,452Z"/><path class="cls-3" d="M888.55,514.7c-.2-12.54-9.55-20.22-21.91-20.22-11.8,0-22.84,7.68-23.58,20.22Zm-45.49,16.1c-.94,17,10.1,28.64,27.33,28.64,5.61,0,12.73-.56,14.8-6.56h19.09c-.93,17.78-20.21,22.65-34.82,22.65-29.76,0-45.67-18.71-45.67-47.92,0-27.9,13.66-49.24,43.24-49.24,29.39,0,40.81,19.28,40.81,46.62v5.8Z"/></g></svg>