<svg id="Layer_1" data-name="Layer 1" xmlns="http://www.w3.org/2000/svg" viewBox="0 0 1080 1080"><defs><style>.cls-1{opacity:0.75;}.cls-2{fill:#fff;}</style></defs><title>WGBH_impact-report_digital_logo-farm_v1</title><g class="cls-1"><path class="cls-2" d="M413.13,540.07c0-31.41,22.89-56.91,53.52-62.33C438.38,443.2,387.9,420.49,330,420.49c-88.9,0-161,53.48-161,119.43s72,120.89,161,119.42c57.7-1,108.3-22.54,136.72-56.38C436.25,597.45,413.13,571.39,413.13,540.07Zm-64.28,64.46-21.1-54.44-21.09,54.44H273.43L233,480.21h38.51l21,68.57,19.36-68.93h32.64l23.92,69,16.41-68.59h37.61L382.08,604.53Z"/><path class="cls-2" d="M790.06,604.4h45c47.41,0,75.72-23.38,75.72-62.55v-.38c0-38.56-27.07-60.67-74.23-60.67H790.05ZM837.5,573H827v-60.9H837.5c23.22,0,36,10.74,36,30.25v.37C873.52,562.3,860.73,573,837.5,573Z"/><path class="cls-2" d="M677.41,604.47h98V573.86h-61.1v-93H677.4Z"/><path class="cls-2" d="M466.5,477.92S509,487.53,514,537.24c0,0,3.66,49.25-47.88,65.52,0,0,49.94,13.74,77-32.76,0,0,25-44.9-19.25-81.09C523.85,488.91,502.16,469.89,466.5,477.92Z"/><path class="cls-2" d="M626.16,604.32l-19.91-40.87H598.1v40.87H559.31V480.84h59.23c32.9,0,46.41,18.7,46.41,39.31,0,15.25-6.93,29.62-22.16,36.9l26,47.28Zm-12.64-94.39H598.1v27h15.24c9,0,13.86-6.41,13.86-13.51C627.2,516.69,622.86,509.93,613.51,509.93Z"/></g></svg>