<svg viewBox="0 0 1080 1080" xmlns="http://www.w3.org/2000/svg"><g fill="#fff" opacity=".75"><path d="m691.93 660.48.01-61.44 62.9 63.64.35.01-.01-108.01-20.22.05.03 60.7-62.81-63.56h-.46l-.01 108.62z"/><path d="m198.9 660.39 6.44-19.45h-44.58v-25.74h31.86v-19.45h-31.86v-20.99h39.67l-3.37-19.45h-56.52v105.08z"/><path d="m842.19 633.49c-5.51 4.45-12.1 8.73-20.52 8.73-17.61 0-32.32-14.7-32.32-34.31 0-17.77 12.87-34.31 31.4-34.31a33.17 33.17 0 0 1 21.29 7.5l-3.36-24.36c-4.29-2.6-12-3.83-17-3.83-31.4 0-53.46 24.66-53.46 55 0 30.63 21.6 55 54.08 55 4.75 0 12.71-1.38 17.16-4l2.75-25.43z"/><path d="m331.7 622.36a71.71 71.71 0 0 0 8.12.46c21 0 35.69-13.33 35.69-34.62 0-13.63-10-33.09-34-33.09h-30v106.32l20.22-1.23v-37.84zm-.2-47.79h4.9c12.1 0 18.69 4.44 18.69 14.39s-6.59 14.4-18.69 14.41h-4.9z" fill-rule="evenodd"/><path d="m443.41 660.47 6.44-19.45h-44.58v-25.74h31.86v-19.45h-31.86l-.01-20.99h39.68l-3.38-19.45h-56.52l.01 105.08z"/><path d="m462.5 661.69 20.22-1.22v-52.54h.28l35.69 55 22.06-5.37-28.65-42.28c12.41-4 20.22-14.55 20.22-27.57 0-22.52-15.94-32.32-36.15-32.32h-33.67zm20.21-86.85h7.81c10 0 19.15 1.38 19.15 13.48 0 11.79-9.65 14.71-19.61 14.71h-7.35z" fill-rule="evenodd"/><path d="m573.45 660.46v-107.53l-20.22 2.45v106.31z"/><path d="m653.59 660.46 6.43-19.45h-44.57v-25.74h31.86v-19.45h-31.86l-.01-20.99h39.68l-3.37-19.45h-56.52v105.08z"/><path d="m915.53 660.45 6.43-19.45h-44.57v-25.74h31.86v-19.46h-31.86v-20.98h39.66l-3.36-19.45h-56.52v105.08z"/><path d="m207.05 660.55h24.62l24.09-34.55 25.73 34.55h23.22l-36.94-52.39 36.59-52.91-24.74-.01-23.86 37.03-24.34-37.03-24.05-.01 36.54 52.93z"/><path d="m709 501c-5.52 4.45-12.1 8.73-20.53 8.73-17.62 0-32.32-14.7-32.32-34.31 0-17.77 12.86-34.31 31.4-34.31a33.25 33.25 0 0 1 21.3 7.5l-3.38-24.35c-4.29-2.6-11.94-3.83-17-3.83-31.4 0-53.46 24.66-53.46 55 0 30.64 21.6 55 54.07 55 4.75 0 12.72-1.38 17.16-4z"/><path d="m851.24 527.95.01-61.43 62.89 63.63.36.01-.01-108-20.23.04.03 60.71-62.8-63.57h-.47v108.62z"/><path d="m769.85 456.22-13.24 30.24h27.25l-14-30.24zm-31.74 71.85h-24.42l56-110 57.74 110h-24.24l-11.53-23.56h-42.83l-10.72 23.55z" fill-rule="evenodd"/><path d="m509.8 528 20.2-1.22v-52.54h.3l35.69 55 22.06-5.36-28.64-42.28c12.4-4 20.22-14.55 20.22-27.57 0-22.52-15.93-32.32-36.15-32.32h-33.68zm20.2-86.84h7.81c10 0 19.15 1.38 19.15 13.47 0 11.8-9.65 14.71-19.6 14.71h-7.36z" fill-rule="evenodd"/><path d="m619.14 526.78-.01-107.53-20.21 2.45v106.31z"/><path d="m193.17 455.18-13.23 30.24h27.25l-14-30.23zm-31.75 71.82h-24.42l56-110 57.74 110h-24.24l-11.5-23.52h-42.86z" fill-rule="evenodd"/><path d="m254.3 417.44h2.85l50 53.48 49.98-53.49h2.86v109.6l-20.4.03v-59.94h-.34l-31.3 34.5h-1.55l-31.63-34.4h-.35v59.81l-20.11.01z"/><path d="m377.49 426c49.4-13.17 62.82 9.21 89.37 6.1 8.69-1 18-6.81 25.79-10.55l.09 21.62c-8.26 4-18 9.14-27.34 9.66-10.74.6-20.21-3.08-30.14-6.35-19.78-6.51-34.8-7.21-57.82.46z"/><path d="m377.47 466.08c13.18-4.4 27.2-6.62 40.85-4.45 34.19 5.44 36.1 20.89 74.35 2.45v21.4c-18 9-32 10.66-51.26 3.77-5.77-2.06-11.15-4.45-17.18-5.83-15.44-3.53-31.69-1.44-46.77 3.58v-20.94z"/><path d="m377.45 506.12c14.87-5.82 31.49-8.07 46.91-4.84 5.91 1.24 11 3.63 16.59 5.63 18.62 6.64 34.33 5.48 51.71-3.52v19.32c-16.22 8.55-35.1 8.85-52.32 2.7-5.42-1.94-10.13-4.3-15.89-5.42-15.2-3-34.22 1.43-47 7z"/><path d="m922.33 432.32v-.06a10.33 10.33 0 0 1 20.67-.06v.06a10.33 10.33 0 0 1 -20.67.06zm19.58-.06v-.06a9.25 9.25 0 1 0 -18.5.06v.06a9.25 9.25 0 1 0 18.5-.06zm-13.41-5.71h4.82a4.5 4.5 0 0 1 3.28 1.17 3 3 0 0 1 .88 2.25v.03a3.22 3.22 0 0 1 -2.51 3.26l2.91 4.08h-2.45l-2.62-3.74h-2.26v3.74h-2.05zm4.74 5.28c1.34 0 2.14-.66 2.14-1.68v-.06c0-1.08-.8-1.68-2.14-1.68h-2.68v3.43z"/></g></svg>