<?xml version="1.0" encoding="utf-8"?>
<!-- Generator: Adobe Illustrator 21.1.0, SVG Export Plug-In . SVG Version: 6.00 Build 0)  -->
<svg version="1.1" id="Layer_1" xmlns="http://www.w3.org/2000/svg" xmlns:xlink="http://www.w3.org/1999/xlink" x="0px" y="0px"
	 viewBox="0 0 1080 1080" enable-background="new 0 0 1080 1080" xml:space="preserve">
<title>WGBH_impact-report_digital_logo-farm_v1</title>
<g opacity="0.75">
	<g>
		<path fill-rule="evenodd" clip-rule="evenodd" fill="#FFFFFF" d="M711.4,494.9v20c-2.6-8-8.3-9.4-12.2-10.7
			C702.9,503.5,709.1,500.2,711.4,494.9L711.4,494.9z M664.8,512.7v12.6c0,0,6.7,0.2,10.4,0.2c3.8,0,6.8-2.3,6.8-6.2
			c0-3.9-2.6-6.5-6.8-6.5H664.8L664.8,512.7z M664.8,482.9v12.4c0,0,6.2,0.2,10,0.2c3.8,0,6.8-2.3,6.8-6.2c0-3.9-2.6-6.4-6.8-6.4
			H664.8L664.8,482.9z M607.8,489.6h27.7v8.2h-37.7v14.7h9.5v8.2c0,4.2-2.4,7.1-9.2,7.1c-6.8,0-9.2-5.1-9.2-7.6l0.1-30.8
			c0-3,2.3-7.9,9.4-7.9C605.5,481.4,607.8,485.2,607.8,489.6L607.8,489.6z M485.9,433h27.7l2.9,13.7l14.2-13.9h25.4l3.3,14.1
			l14.1-14.1h26.3l-2.9,11.8c11-9.2,19.8-14.7,38.3-14.7c18.4,0,26.9,5.6,34.2,13.2l10.4-10.1h41.3c11.9,0,15.6,8.5,15.6,14.8
			l15.3-14.8h28.4v14.2l14.2-14.1h27.8v76.4l-67.4,66.2h-31.3l0-14.3l-14.8,14.3h-31.2v-13.1c-8.8,11.9-16.6,13.1-26.9,13.1h-47.6
			v-9c-4.1,3.2-20,11.2-41.4,11.2c-21.5,0-33.3-6.7-39-15.6l-14.3,13.4h-25.8l-3.5-13.4l-13.9,13.6h-26.6l-15.9-80.4L485.9,433
			L485.9,433z M452.9,466.6l14.8,74.5h30.7l8.3-28.6l8.6,28.6h30.2l6.1-29.9c5.3,31.6,37.2,32.8,46.4,32.8c9.2,0,24.2-2.3,37.2-10
			v7.1h53.1c15.1,0,19.7-4.8,23-11.8v11.8h31.9v-26.3h15.1v26.3h31.1v-74.4h-31.1v26.7h-15v-26.7h-32.1v13.8
			c-3-8.9-8.9-13.8-24.2-13.8h-51.7v10.9c-4.4-5.1-15.3-13.3-38.7-13.3c-23.4,0-31.8,5.7-40.4,17.8l2.8-15.5h-25.1l-6.8,27.1
			l-6.4-27.1h-27.2l-7,27.5l-6.2-27.7H452.9L452.9,466.6z"/>
	</g>
	<g>
		<path fill="#FFFFFF" d="M234.1,541.9l-4.1-55.4l-19.1,55.6h-12.8l-19.2-55.6l-3.8,55.4H162l5.8-75.9h18.5l19.2,57.3l19.1-57.3
			h18.1l5.8,75.9H234.1z"/>
		<path fill="#FFFFFF" d="M311.2,542.6l-7.3-20h-28.7l-6.9,19.2H254l28.5-76.2h15.5l27.8,74.3L311.2,542.6z M289.6,481.5l-10.3,29.2
			h20.7L289.6,481.5z"/>
		<path fill="#FFFFFF" d="M363.4,543.3c-24.1,0-37.3-15.8-37.3-39.3c0-23.5,14-39.5,37.1-39.5c9.7,0,17,2.4,23.1,6l-2.1,13.5
			c-5.7-4.1-12.5-7.1-20.9-7.1c-14.8,0-22.3,10.8-22.3,26.9c0,16.3,7.7,27,23,27c5.3,0,9-1.1,12.8-3.1v-16.8h-15.4l-1.8-11.7h30.5
			v36.2C382.9,540.2,373.6,543.3,363.4,543.3z"/>
	</g>
	<g>
		<path fill="#FFFFFF" d="M503.6,640.2l-2-27l-9.3,27.1h-6.2l-9.4-27.1l-1.9,27h-6.4l2.8-36.9h9l9.4,27.9l9.3-27.9h8.8l2.8,36.9
			H503.6z"/>
		<path fill="#FFFFFF" d="M537.5,628.5h-16.6c0.3,5,3,7.2,7,7.2c3.3,0,6-1.2,8.9-3.2l0.7,5c-2.8,1.9-6.2,3.2-10.3,3.2
			c-7.2,0-12.6-4.1-12.6-13.4c0-8.4,5-13.5,11.8-13.5c7.8,0,11.2,5.8,11.2,13.2C537.6,627.5,537.5,628.2,537.5,628.5z M526.2,618.3
			c-2.6,0-4.7,2-5.1,6.3h10.3C530.9,620.5,529.3,618.3,526.2,618.3z"/>
		<path fill="#FFFFFF" d="M558.8,640.2l-0.5-3.6c-1.8,2.2-4.3,4.1-7.9,4.1c-5.4,0-9.7-4-9.7-12.7c0-9.6,5.3-13.9,11.3-13.9
			c2.5,0,4.4,0.4,6,1v-12.5l6.4-1v38.6H558.8z M557.9,620.3c-1.6-0.7-2.8-1.1-5-1.1c-3.4,0-5.8,2.7-5.8,8.4c0,5,2.1,7.4,5,7.4
			c2.4,0,4.2-1.4,5.9-3.5V620.3z"/>
		<path fill="#FFFFFF" d="M573.6,610c-2.1,0-3.9-1.5-3.9-3.6c0-2.2,1.7-3.7,3.9-3.7c2.1,0,3.8,1.6,3.8,3.7
			C577.4,608.5,575.6,610,573.6,610z M570.3,640.2v-25.8h6.4v25.8H570.3z"/>
		<path fill="#FFFFFF" d="M597.7,640.2l-0.5-3.4c-2.1,2.2-4.8,3.9-8.6,3.9c-4.4,0-7.3-2.7-7.3-7.2c0-6.3,5.1-9,15.6-10v-0.7
			c0-2.8-1.6-3.9-4.4-3.9c-3,0-5.8,0.9-8.6,2.1l-0.8-5.1c3-1.2,6.2-2.1,10.3-2.1c6.7,0,10,2.5,10,8.7v17.7H597.7z M596.8,627.3
			c-7.4,0.9-9.2,3.1-9.2,5.6c0,1.9,1.2,3,3.2,3c2.2,0,4.3-1,6-2.8V627.3z"/>
		<path fill="#FFFFFF" d="M645.1,640.6l-3.5-9.7h-14l-3.4,9.4h-7l13.9-37.1h7.5l13.5,36.2L645.1,640.6z M634.5,610.8l-5,14.2h10.1
			L634.5,610.8z"/>
		<path fill="#FFFFFF" d="M666.3,640.7c-7.2,0-12.3-4.8-12.3-13.3c0-9,5.6-13.6,12.5-13.6c3.5,0,6,0.9,8.1,2.2l-0.9,5.8
			c-2.2-1.7-4.3-2.4-6.8-2.4c-3.7,0-6.4,2.7-6.4,7.9c0,5.4,2.9,7.9,6.8,7.9c2.2,0,4.3-0.6,6.7-2.5l0.9,5.5
			C672.3,640,669.6,640.7,666.3,640.7z"/>
		<path fill="#FFFFFF" d="M689.6,640.7c-7.2,0-12.3-4.8-12.3-13.3c0-9,5.6-13.6,12.5-13.6c3.5,0,6,0.9,8.1,2.2l-0.9,5.8
			c-2.2-1.7-4.3-2.4-6.8-2.4c-3.7,0-6.4,2.7-6.4,7.9c0,5.4,2.9,7.9,6.8,7.9c2.2,0,4.3-0.6,6.7-2.5l0.9,5.5
			C695.6,640,692.9,640.7,689.6,640.7z"/>
		<path fill="#FFFFFF" d="M723.6,628.5H707c0.3,5,3,7.2,7,7.2c3.3,0,6-1.2,8.9-3.2l0.7,5c-2.8,1.9-6.2,3.2-10.3,3.2
			c-7.2,0-12.6-4.1-12.6-13.4c0-8.4,5-13.5,11.8-13.5c7.8,0,11.2,5.8,11.2,13.2C723.7,627.5,723.6,628.2,723.6,628.5z M712.3,618.3
			c-2.6,0-4.7,2-5.1,6.3h10.3C717,620.5,715.4,618.3,712.3,618.3z"/>
		<path fill="#FFFFFF" d="M736.7,640.7c-3.7,0-7.6-1.2-10.1-2.5l0.9-5.4c2.8,1.8,6.2,3,9.4,3c2.8,0,4.3-1,4.3-2.7
			c0-1.8-1.1-2.6-5.2-3.6c-6.3-1.6-8.9-3.4-8.9-8.1c0-4.4,3.5-7.6,9.5-7.6c3.4,0,6.5,0.6,9,1.8l-0.9,5.4c-2.6-1.4-5.6-2.4-8.2-2.4
			c-2.4,0-3.6,0.9-3.6,2.4c0,1.4,1,2.1,4.8,3.2c6.7,1.7,9.3,3.5,9.3,8.4C747.2,637.7,743.5,640.7,736.7,640.7z"/>
		<path fill="#FFFFFF" d="M759.9,640.7c-3.7,0-7.6-1.2-10.1-2.5l0.9-5.4c2.8,1.8,6.2,3,9.4,3c2.8,0,4.3-1,4.3-2.7
			c0-1.8-1.1-2.6-5.2-3.6c-6.3-1.6-8.9-3.4-8.9-8.1c0-4.4,3.5-7.6,9.5-7.6c3.4,0,6.5,0.6,9,1.8L768,621c-2.6-1.4-5.6-2.4-8.2-2.4
			c-2.4,0-3.6,0.9-3.6,2.4c0,1.4,1,2.1,4.8,3.2c6.7,1.7,9.3,3.5,9.3,8.4C770.4,637.7,766.7,640.7,759.9,640.7z"/>
		<path fill="#FFFFFF" d="M802.5,640.9c-11.7,0-18.1-7.7-18.1-19.1c0-11.4,6.8-19.2,18-19.2c4.7,0,8.3,1.2,11.2,2.9l-1,6.6
			c-2.8-2-6.1-3.5-10.2-3.5c-7.2,0-10.9,5.2-10.9,13.1c0,7.9,3.7,13.2,11.2,13.2c2.6,0,4.4-0.5,6.2-1.5v-8.2h-7.5l-0.9-5.7h14.8
			v17.6C812,639.4,807.4,640.9,802.5,640.9z"/>
		<path fill="#FFFFFF" d="M827.6,625.4v14.8h-6.4v-25.8h5.5l0.8,5.2c1.7-3,4.3-5.5,8.3-5.7l1,6.4
			C832.8,620.5,829.5,622.6,827.6,625.4z"/>
		<path fill="#FFFFFF" d="M850.1,640.7c-7,0-12.1-5-12.1-13.4s5.1-13.5,12.1-13.5c7.1,0,12.2,5.1,12.2,13.5S857.1,640.7,850.1,640.7
			z M850.1,619.1c-3.8,0-5.8,3.4-5.8,8.2c0,4.7,2.1,8.2,5.8,8.2c4,0,6-3.4,6-8.2C856.1,622.5,853.9,619.1,850.1,619.1z"/>
		<path fill="#FFFFFF" d="M883.2,640.2l-0.6-3.6c-2.4,2.3-5.2,4.2-8.6,4.2c-4.9,0-7.4-2.9-7.4-7.8v-18.6h6.4v16.9
			c0,2.2,1,3.7,3.3,3.7c2,0,4.1-1.3,5.9-3.2v-17.4h6.4v25.8H883.2z"/>
		<path fill="#FFFFFF" d="M906.7,640.5c-2.5,0-4.4-0.4-6-1v9.7l-6.4,1v-35.8h5.5l0.6,3.5c1.8-2.1,4.3-4.1,7.9-4.1
			c5.4,0,9.7,4.1,9.7,12.7C918,636.2,912.6,640.5,906.7,640.5z M906.6,619.5c-2.3,0-4.1,1.4-5.8,3.6v11.1c1.6,0.7,2.8,1.1,5,1.1
			c3.3,0,5.8-2.7,5.8-8.4C911.5,622,909.4,619.5,906.6,619.5z"/>
	</g>
</g>
</svg>
