<svg id="Layer_1" data-name="Layer 1" xmlns="http://www.w3.org/2000/svg" viewBox="0 0 1080 1080"><defs><style>.cls-1{opacity:0.75;}.cls-2{fill:#fff;}</style></defs><title>WGBH_impact-report_digital_logo-farm_v1</title><g class="cls-1"><path class="cls-2" d="M913.5,659.85H884.12l29.38-47.53Zm-101.79,0H782.31l29.39-47.53Zm140.15,0V574.37H907.37l-54.52,85.48h-2.8V574.37H805.58l-55.7,87.32v24.68H811.7v25.92h38.35V686.37H913.5v25.92h38.35V686.37H970V659.85Z"/><path class="cls-2" d="M587.34,477.28c0-7.27-4.75-11.76-12.6-11.76H556.27v22.95s11.47.28,18.47.28,12.6-4.2,12.6-11.47"/><path class="cls-2" d="M433.37,462.72c-13.16,0-17.37,9-17.37,14.55l-.26,57.11c0,4.47,4.47,14,17.08,14s17.07-5.31,17.07-13.15V520.11H432.25V493h69.7V477.83H450.73c0-8.12-4.21-15.11-17.36-15.11"/><path class="cls-2" d="M575.58,520.67H556.27V543.9s12.31.28,19.31.28,12.6-4.2,12.6-11.47-4.75-12-12.6-12"/><path class="cls-2" d="M640.77,456.68c.62,1.39,1.2,2.84,1.71,4.36,0,0,5.14,16,0,26.59A32.27,32.27,0,0,1,619.8,504.7c7.29,2.53,19.32,6.62,22.68,19.88,2.56,10.06,2.4,17,.64,24a23.52,23.52,0,0,1-1.64,4.84L675.18,505l-34.69-48.89c.1.21.2.4.28.61"/><path class="cls-2" d="M856.92,373.94H785l-16.31,23.47-16.38-23.47H695.67l.1-.24-.26.24h-3l-7.89,7.89c-4.48-5-11.49-8.53-22-8.53H586.18l-19.32,18.77c-.53-.55-1.08-1.09-1.61-1.63a86.1,86.1,0,0,0-9.77-8.53c-.84-.62-1.71-1.23-2.6-1.82-11.26-7.53-26-12.39-49.29-12.39a133.7,133.7,0,0,0-16,.91c-1.1.13-2.21.26-3.27.41s-2.27.37-3.39.58c-19.87,3.64-32.86,12.46-48.16,25.24L438.09,373H381.76l-26,26-3.1-26H306.8l-24.48,25.73-4.37-26H226.61L110,488.92l29.39,148.93h49.27l25.77-25.19L221,637.49c47.82,0,47.82,0,47.82,0l26.54-24.84a47.74,47.74,0,0,0,3.57,4.81,56.1,56.1,0,0,0,18.7,14.41,83.9,83.9,0,0,0,11.75,5,117.59,117.59,0,0,0,33.21,5.83c2.34.09,4.38.12,6,.12,3.31,0,7.06-.18,11.07-.54a150.27,150.27,0,0,0,28.44-5.41A137.49,137.49,0,0,0,424.5,631a117.25,117.25,0,0,0,12.93-5.93v12.89l106,.07c17.66-.65,24.72-8.2,31-13.73l-9.32,13.42h64l17.34-17.34,12.3,17.34h63.62L787,573H723.44l-15.22-21.44L693.8,573H627.88l5.59-8c-5.38,4.41-17.65,8.28-33.52,8.28H501.68V560.14c-24.08,14.27-51.79,18.48-68.87,18.48s-76.14-2.25-85.94-60.75L335.6,573.25h-56l-15.88-52.86-15.31,52.86H191.54l-27.47-138h51.22l11.49,51.24,12.89-50.94H290l11.76,50.1,12.51-50.23h46.48l-5.23,28.67c16-22.41,31.35-33,74.74-33S493.84,446.2,502,455.71V435.45H597.7c17.36,0,28.15,3.45,35.2,9.91l-7.14-10.07h65.15l16.39,23.47,16.3-23.47h62.9L739.58,505,787,573l61.34-61.34-42.85-61.39Z"/></g></svg>