<svg id="Layer_1" data-name="Layer 1" xmlns="http://www.w3.org/2000/svg" viewBox="0 0 1080 1080"><defs><style>.cls-1{opacity:0.75;}.cls-2{fill:#fff;}.cls-3{fill:#bfbfbf;}</style></defs><title>WGBH_impact-report_digital_logo-farm_v1</title><g class="cls-1"><path class="cls-2" d="M755.09,426.26a61.45,61.45,0,0,1,122.91,0H847.27s0-30.73-30.73-30.73-30.73,30.73-30.73,30.73v61.45H755.09Z"/><path class="cls-2" d="M324.91,426.26a61.45,61.45,0,1,1-122.91,0V364.8h30.73v61.45s0,30.73,30.73,30.73,30.73-30.73,30.73-30.73V364.8h30.73Z"/><path class="cls-3" d="M340.27,426.26a61.45,61.45,0,0,1,122.91,0v61.45H432.45V426.26s0-30.73-30.73-30.73S371,426.26,371,426.26v61.45H340.27Z"/><path class="cls-3" d="M340.27,733.53a61.45,61.45,0,1,1,122.91,0V795H432.45V733.53s0-30.73-30.73-30.73S371,733.53,371,733.53V795H340.27Z"/><path class="cls-3" d="M616.82,733.53a61.45,61.45,0,1,1,122.91,0V795H709V733.53s0-30.73-30.73-30.73-30.73,30.73-30.73,30.73V795H616.82Z"/><path class="cls-3" d="M540,364.8a61.45,61.45,0,1,1,0,122.91H478.55V457H540s30.73,0,30.73-30.73S540,395.53,540,395.53H478.55V364.8Z"/><rect class="cls-2" x="478.55" y="364.8" width="30.73" height="122.91"/><path class="cls-3" d="M540,672.07A61.45,61.45,0,0,1,540,795H478.55V764.26H540s30.73,0,30.73-30.73S540,702.8,540,702.8H478.55V672.07Z"/><rect class="cls-2" x="478.55" y="672.07" width="30.73" height="122.91"/><rect class="cls-3" x="616.82" y="364.8" width="30.73" height="122.91"/><path class="cls-2" d="M202,733.53a61.45,61.45,0,1,1,122.91,0H294.18s0-30.73-30.73-30.73-30.73,30.73-30.73,30.73V795H202Z"/><path class="cls-2" d="M755.09,733.53a61.45,61.45,0,1,1,122.91,0H847.27s0-30.73-30.73-30.73-30.73,30.73-30.73,30.73V795H755.09Z"/><rect class="cls-3" x="248.09" y="518.44" width="30.73" height="122.91"/><rect class="cls-3" x="340.27" y="518.44" width="30.73" height="122.91"/><rect class="cls-3" x="432.45" y="518.44" width="30.73" height="122.91"/><rect class="cls-2" x="248.09" y="472.35" width="30.73" height="122.91" transform="translate(797.26 270.35) rotate(90)"/><rect class="cls-2" x="386.36" y="518.44" width="30.73" height="122.91" transform="translate(981.62 178.17) rotate(90)"/><rect class="cls-3" x="662.91" y="318.71" width="30.73" height="122.91" transform="translate(1058.44 -298.11) rotate(90)"/><rect class="cls-3" x="662.91" y="410.89" width="30.73" height="122.91" transform="translate(1150.62 -205.93) rotate(90)"/><rect class="cls-2" x="639.86" y="387.85" width="30.73" height="76.82" transform="translate(1081.48 -228.97) rotate(90)"/><rect class="cls-3" x="478.55" y="518.44" width="30.73" height="122.91"/><rect class="cls-3" x="524.64" y="472.35" width="30.73" height="122.91" transform="translate(1073.8 -6.2) rotate(90)"/><rect class="cls-3" x="524.64" y="564.53" width="30.73" height="122.91" transform="translate(1165.98 85.98) rotate(90)"/><rect class="cls-2" x="501.59" y="541.48" width="30.73" height="76.82" transform="translate(1096.85 62.94) rotate(90)"/><rect class="cls-2" x="202" y="211.17" width="676" height="122.91"/><rect class="cls-2" x="340.27" y="748.89" width="122.91" height="30.73"/><rect class="cls-2" x="616.82" y="748.89" width="122.91" height="30.73"/><path class="cls-2" d="M202,834.8h7.89l6.93,22.66,7.5-22.75h6.31l7.5,22.75,6.93-22.66h7.7l-11.42,33.7h-6.4l-7.55-21.89-7.55,21.89h-6.41Z"/><path class="cls-2" d="M261.75,834.8h7.36v33.46h-7.36Z"/><path class="cls-2" d="M288.47,841.59H278.29V834.8H306v6.79H295.83v26.67h-7.36Z"/><path class="cls-2" d="M314.85,834.8h7.36V848h13.57V834.8h7.36v33.46h-7.36V854.83H322.21v13.43h-7.36Z"/><path class="cls-2" d="M370.44,851.63v-.1a17,17,0,0,1,17.45-17.3c6.31,0,10.08,2.1,13.19,5.16l-4.68,5.4c-2.58-2.34-5.21-3.78-8.56-3.78-5.64,0-9.7,4.68-9.7,10.42v.1c0,5.74,4,10.51,9.7,10.51,3.82,0,6.17-1.53,8.8-3.92l4.68,4.73a17.1,17.1,0,0,1-13.72,6A16.89,16.89,0,0,1,370.44,851.63Z"/><path class="cls-2" d="M421.87,834.56h6.79L443,868.26h-7.7l-3.06-7.5H418.09l-3.06,7.5h-7.5Zm7.74,19.69-4.45-10.85-4.45,10.85Z"/><path class="cls-2" d="M451.36,834.8h7.36v26.77H475.4v6.69h-24Z"/><path class="cls-2" d="M484.15,834.8h7.36v26.77h16.68v6.69h-24Z"/><path class="cls-2" d="M517.27,834.8h7.36v33.46h-7.36Z"/><path class="cls-2" d="M536.2,834.8h25.24v6.55H543.51v6.79h15.77v6.55H543.51v7h18.16v6.55H536.2Z"/><path class="cls-2" d="M587.49,851.63v-.1a17,17,0,0,1,17.45-17.3c6.31,0,10.08,2.1,13.19,5.16l-4.68,5.4c-2.58-2.34-5.21-3.78-8.56-3.78-5.64,0-9.7,4.68-9.7,10.42v.1c0,5.74,4,10.51,9.7,10.51,3.82,0,6.17-1.53,8.8-3.92l4.68,4.73a17.1,17.1,0,0,1-13.72,6A16.89,16.89,0,0,1,587.49,851.63Z"/><path class="cls-2" d="M627.44,834.8h15.3c4.25,0,7.55,1.2,9.75,3.39a10.5,10.5,0,0,1,2.87,7.65v.1a10.39,10.39,0,0,1-7.17,10.37l8.17,11.95h-8.6l-7.17-10.71h-5.78v10.71h-7.36Zm14.82,16.25c3.59,0,5.64-1.91,5.64-4.73v-.1c0-3.15-2.2-4.78-5.78-4.78h-7.31v9.61Z"/><path class="cls-2" d="M663.72,851.63v-.1c0-9.51,7.5-17.3,17.83-17.3s17.73,7.7,17.73,17.21v.1c0,9.51-7.5,17.3-17.83,17.3S663.72,861.14,663.72,851.63Zm27.87,0v-.1c0-5.74-4.21-10.52-10.13-10.52s-10,4.68-10,10.42v.1c0,5.74,4.21,10.51,10.13,10.51S691.59,857.36,691.59,851.63Z"/><path class="cls-2" d="M706.51,863.39l4.35-5.21c3,2.49,6.17,4.06,10,4.06,3,0,4.83-1.2,4.83-3.15V859c0-1.86-1.15-2.82-6.74-4.25-6.74-1.72-11.09-3.59-11.09-10.23v-.1c0-6.07,4.88-10.08,11.71-10.08A19.37,19.37,0,0,1,732,838.58l-3.82,5.54c-3-2.05-5.88-3.3-8.7-3.3s-4.3,1.29-4.3,2.92v.1c0,2.2,1.43,2.92,7.22,4.4,6.79,1.77,10.61,4.21,10.61,10v.1c0,6.64-5.07,10.37-12.28,10.37A21.29,21.29,0,0,1,706.51,863.39Z"/><path class="cls-2" d="M739.82,863.39l4.35-5.21c3,2.49,6.17,4.06,10,4.06,3,0,4.83-1.2,4.83-3.15V859c0-1.86-1.15-2.82-6.74-4.25-6.74-1.72-11.09-3.59-11.09-10.23v-.1c0-6.07,4.88-10.08,11.71-10.08a19.37,19.37,0,0,1,12.43,4.25l-3.82,5.54c-3-2.05-5.88-3.3-8.7-3.3s-4.3,1.29-4.3,2.92v.1c0,2.2,1.43,2.92,7.22,4.4,6.79,1.77,10.61,4.21,10.61,10v.1c0,6.64-5.07,10.37-12.28,10.37A21.29,21.29,0,0,1,739.82,863.39Z"/><path class="cls-2" d="M775.91,834.8h7.36v26.77H800v6.69h-24Z"/><path class="cls-2" d="M808.7,834.8h25.24v6.55H816v6.79h15.77v6.55H816v7h18.16v6.55H808.7Z"/><path class="cls-2" d="M853.34,855.07,840.48,834.8h8.6l8,13.43,8.13-13.43h8.36L860.7,854.93v13.34h-7.36Z"/></g></svg>