<?xml version="1.0" encoding="utf-8"?>
<!-- Generator: Adobe Illustrator 21.1.0, SVG Export Plug-In . SVG Version: 6.00 Build 0)  -->
<svg version="1.1" id="Layer_1" xmlns="http://www.w3.org/2000/svg" xmlns:xlink="http://www.w3.org/1999/xlink" x="0px" y="0px"
	 viewBox="0 0 1080 1080" enable-background="new 0 0 1080 1080" xml:space="preserve">
<title>WGBH_impact-report_digital_logo-farm_v1</title>
<g opacity="0.75">
	<g>
		<g>
			<path fill="#FFFFFF" d="M281.6,286.8H334l5.5,25.8l26.9-26.3h48l6.3,26.6l26.6-26.6h49.8l-5.4,22.3
				c20.9-17.4,37.5-27.7,72.3-27.7c34.9,0,50.9,10.6,64.6,24.9l19.7-19.2h78.1c22.6,0,29.4,16,29.4,28l28.9-28h53.8v26.9l26.9-26.7
				H918v144.5L790.6,556.4h-59.3l-0.1-27.1l-28,27.1h-58.9v-24.8c-16.6,22.6-31.5,24.8-50.9,24.8h-90.1v-17.1
				c-7.7,6-37.7,21.2-78.3,21.2c-40.6,0-62.9-12.6-73.8-29.5l-27.1,25.4h-48.8l-6.7-25.4l-26.3,25.7H192l-30-152.1L281.6,286.8z
				 M219.3,350.4l28.1,140.9h58.1l15.6-54l16.2,54h57.2l11.5-56.6c10,59.8,70.3,62,87.8,62c17.4,0,45.7-4.3,70.3-18.9v13.4h100.4
				c28.6,0,37.2-9.1,43.5-22.3v22.3h60.3v-49.7h28.6v49.7h58.9V350.5h-58.9V401h-28.3v-50.4h-60.6v26.1
				c-5.7-16.9-16.9-26.1-45.8-26.1h-97.8v20.7c-8.3-9.7-28.9-25.2-73.2-25.2c-44.3,0-60,10.9-76.3,33.7l5.3-29.3h-47.5L360,401.8
				l-12-51.2h-51.5l-13.2,52l-11.7-52.3H219.3z"/>
			<path fill="#FFFFFF" d="M512.1,393.8h52.3v15.4h-71.2V437h18v15.4c0,8-4.6,13.4-17.4,13.4c-12.9,0-17.4-9.7-17.4-14.3
				c0-4.6,0.3-52.6,0.3-58.3c0-5.7,4.3-14.9,17.7-14.9C507.8,378.4,512.1,385.5,512.1,393.8"/>
			<path fill="#FFFFFF" d="M619.9,381.2v23.4c0,0,11.7,0.3,18.9,0.3s12.9-4.3,12.9-11.7c0-7.4-4.9-12-12.9-12H619.9z"/>
			<path fill="#FFFFFF" d="M619.9,437.6v23.7c0,0,12.6,0.3,19.7,0.3c7.1,0,12.9-4.3,12.9-11.7c0-7.4-4.9-12.3-12.9-12.3H619.9z"/>
			<path fill="#FFFFFF" d="M707.9,403.8v37.7c-4.9-15.2-15.7-17.7-23.2-20.3C691.9,420.1,703.6,413.8,707.9,403.8"/>
		</g>
	</g>
	<g>
		<path fill="#FFFFFF" d="M309.3,769.6h-17.4l-14.8-52l-14.6,52h-17.4l-23.4-77l19.5-2.6l14,52.3l14.3-51.2h17.2l14.1,51.2
			l13.6-51.2h18.4L309.3,769.6z"/>
		<path fill="#FFFFFF" d="M414.4,690l2.6,15.6l-14.3,1c1.5,3.1,2.1,6.7,2.1,10.2c0,16.9-14.5,26.9-31.3,26.9c-2.3,0-4.4-0.2-6.3-0.5
			c-2,1.5-3.2,2.9-3.2,4.2c0,2.6,2.4,3.2,14.6,5l10.1,1c16.1,2.3,26.1,7.3,26.1,19.3c0,16.9-18.5,26.3-41.2,26.3
			c-21.3,0-37.3-6.5-37.3-19.5c0-7.3,5-13,14.8-18.5c-3.1-2.4-4.5-5.4-4.5-8.4c0-4.4,3.4-8.6,9.9-12.5c-9.3-4.4-14.8-12.5-14.8-22.9
			c0-17,14-27.8,31.5-27.8c8.9,0,16.6,2.6,22.2,7.3L414.4,690z M353,777.5c0,5.8,7,10.1,21.8,10.1c14,0,21.9-4.7,21.9-10.6
			c0-4.2-3.4-6.7-13.1-8.1l-10.6-1.3c-5.4-0.7-7.8-1.1-11.7-2C355.6,769.7,353,773.5,353,777.5z M373.2,702
			c-8.6,0-13.6,6.7-13.6,15.3c0,8.1,5.2,14.3,13.6,14.3c8.6,0,13.8-6.3,13.8-14.8C387,708.4,381.4,702,373.2,702z"/>
		<path fill="#FFFFFF" d="M460.9,770.5c-12.2,0-22.4-2-32.2-5.2V655.4l19.5-3.1v47.6c5-5.2,12.3-10.4,22.2-10.4
			c16.6,0,29.6,12.3,29.6,38.6C500,757.1,484.3,770.5,460.9,770.5z M465.4,706.7c-6.5,0-12.3,4.4-17.2,10.2v35.6
			c4.1,1.5,6.8,2.1,12.3,2.1c12.3,0,19.8-7.5,19.8-25.3C480.4,714.2,474.2,706.7,465.4,706.7z"/>
		<path fill="#FFFFFF" d="M563.4,769.6v-51.3c0-6.8-2.9-11.5-10.1-11.5c-6.2,0-12.2,3.9-17.9,9.9v52.9H516V655.4l19.5-3.1V701
			c6.5-6,14.6-11.5,25-11.5c14.6,0,22.4,8.9,22.4,23.5v56.5H563.4z"/>
		<path fill="#FFFFFF" d="M601.6,769.6v-23.7h21.3v23.7H601.6z"/>
		<path fill="#FFFFFF" d="M673.1,771.2c-21.3,0-36.7-15.3-36.7-40.8c0-25.5,15.6-40.9,36.9-40.9c21.4,0,37,15.4,37,40.9
			C710.2,755.9,694.5,771.2,673.1,771.2z M673.1,705.6c-11.5,0-17.7,10.2-17.7,24.8c0,14.3,6.3,24.8,17.7,24.8
			c12,0,18.2-10.2,18.2-24.8C691.2,716,684.7,705.6,673.1,705.6z"/>
		<path fill="#FFFFFF" d="M745.5,724.6v45H726v-78.4h16.6l2.4,15.7c5.2-9.1,13-16.7,25.2-17.4l3.1,19.3
			C761.1,709.7,751,716.1,745.5,724.6z"/>
		<path fill="#FFFFFF" d="M855.6,690l2.6,15.6l-14.3,1c1.5,3.1,2.1,6.7,2.1,10.2c0,16.9-14.5,26.9-31.3,26.9c-2.3,0-4.4-0.2-6.3-0.5
			c-2,1.5-3.2,2.9-3.2,4.2c0,2.6,2.4,3.2,14.6,5l10.1,1c16.1,2.3,26.1,7.3,26.1,19.3c0,16.9-18.5,26.3-41.2,26.3
			c-21.3,0-37.3-6.5-37.3-19.5c0-7.3,5-13,14.8-18.5c-3.1-2.4-4.5-5.4-4.5-8.4c0-4.4,3.4-8.6,9.9-12.5c-9.3-4.4-14.8-12.5-14.8-22.9
			c0-17,14-27.8,31.5-27.8c8.9,0,16.6,2.6,22.2,7.3L855.6,690z M794.3,777.5c0,5.8,7,10.1,21.8,10.1c14,0,21.9-4.7,21.9-10.6
			c0-4.2-3.4-6.7-13.1-8.1l-10.6-1.3c-5.4-0.7-7.8-1.1-11.7-2C796.9,769.7,794.3,773.5,794.3,777.5z M814.4,702
			c-8.6,0-13.6,6.7-13.6,15.3c0,8.1,5.2,14.3,13.6,14.3c8.6,0,13.8-6.3,13.8-14.8C828.2,708.4,822.7,702,814.4,702z"/>
	</g>
</g>
</svg>
