<svg id="Layer_1" data-name="Layer 1" xmlns="http://www.w3.org/2000/svg" viewBox="0 0 1080 1080"><defs><style>.cls-1{opacity:0.75;}.cls-2{fill:#fff;}</style></defs><title>WGBH_impact-report_digital_logo-farm_v1</title><g class="cls-1"><path class="cls-2" d="M632.94,378.63l72.33-72.33-4.71-6.39c-10.15-14.8-27.6-22.43-48.13-22.43H388c-24.32,0-44,26.9-44,60.07V516.74c0,4.18,1.87,7.86,5,9.32,15.71,7.3,63.23,29.41,66.37,30.86,5.3,2.42,8.39,3.3,13.25,3.3h286.9v0h.26a8.5,8.5,0,0,0,8.5-8.5V378.63Zm-95.17-97.81c20.95,0,27.24,6.21,35.95,14.6l.53,1.13c.88,1.87-1.57,3.38-5.46,3.38h-17.2c-3.89,0-7.76-1.51-8.64-3.38l-.63-1.13A38.4,38.4,0,0,0,532.43,283C530.61,281.39,533.12,280.82,537.77,280.82ZM412.13,286a48.93,48.93,0,0,1,11.23,14.83c-5.33.85-10.56-1.59-13.88-6.66-4.57-7-7.69-9.76-14.44-13.1A22.21,22.21,0,0,1,412.13,286Zm15,266.25v0h-.28a8.49,8.49,0,0,1-8.5-8.5V384.46h.27a8.52,8.52,0,0,1,8.51,8.51ZM344.41,378.65l67.26-67.27a18.75,18.75,0,0,1,12.83-5.5H686.8c4.71,0,7.22,3.38,4,7-4,4.43-65.77,65.78-65.77,65.78ZM544.17,520.46l-4.52-14.62h-38l-4.35,14.63H466.21l36.26-108.93H540l36.26,108.93Zm104.17,0-13.7-33.15H617.53v33.15H586.72V411.53h58c24.73,0,37.19,15.25,37.19,37.34,0,15.57-6.22,26.62-17,32.53l17.74,39.06Z"/><polygon class="cls-2" points="508.53 482.49 532.81 482.49 520.67 442.35 508.53 482.49"/><path class="cls-2" d="M638.38,437.05H617.53v25.68h20.39c7.94,0,12.76-4.67,12.76-13.07C650.67,442.8,647.25,437,638.38,437.05Z"/><path class="cls-2" d="M243.25,679.43H218l-2.56,9.27H185.11L213,603.38h36.32l27.79,85.32H245.81ZM224,657.86h13.29l-6.58-24Zm91.91-5.61.74,36.45H287.87V603.38h21.45l34.74,42.18-.61-42.18h28.76v85.32H347.34ZM463,603.37v25.84H439v59.48H408.3V629.21h-24V603.37Zm13.3,0H507v85.32H476.33Zm131.88,95.54H583.7l-4.87-9a85.06,85.06,0,0,1-11.58.85c-31.93,0-44.85-16.08-44.85-44.85s14.25-44.6,45.22-44.6c31.92,0,44.84,16.08,44.85,44.85,0,16-4.38,27.91-13.52,35.35Zm-41.69-32.29-6-11.21h19.74a40.1,40.1,0,0,0,.85-9.14c0-14.62-4.51-20.6-13.77-20.6-9.51,0-13.9,6-13.9,21C553.47,660.41,557.75,666.38,566.51,666.62Zm110.32-63.26h30.71v49.11c0,28.65-15.11,38.27-41.19,38.27-27.3,0-41.68-10.35-41.68-38.27V603.36h30.72v50.82c0,6.71,3.53,11.09,10.72,11.09,7.43,0,10.73-4.39,10.73-11.09Zm47.79,0h70v23.16H754.11v7.19h34.37v23.53H754.12v8H795.8v23.41H724.63Zm133.7,28.39c-3.89-4.87-7.07-7.68-15.1-7.68-6.22,0-7.68,2.08-7.68,4.51s2.19,4,9.62,5.73l7.19,1.83c20.11,5,26.94,14.63,26.94,26.82,0,17.06-13.16,27.78-38.27,27.78-15.1,0-30.21-4.38-35.83-16.57l18.29-14.5c3.41,6.82,9.26,9.74,17.54,9.74,5.49,0,8.91-1.34,8.91-4.38,0-2.07-1.22-3.66-6.09-4.76l-7.8-1.95c-23-5.73-27.91-16.95-27.91-28.16,0-17.05,11.58-28.87,35.22-28.88,14.38,0,27.55,4.26,34.25,16.93ZM189.91,715.82H223.8c19.26,0,28.64,9.26,28.65,25.59,0,13.41-6.09,21.94-16.82,25.6l18.28,34.12H242l-17.31-32.3H200.77v32.3H189.91Zm10.86,9.26v34.37h22.91c11.21,0,17.91-5.73,17.91-17.67,0-10.6-5.72-16.7-17.79-16.7Zm104.58-10.73c26.69,0,38.39,12.8,38.39,44s-12.8,44.24-38.39,44.24c-26.08,0-38.27-13-38.27-44.24S279.76,714.35,305.35,714.35Zm0,79.47c17.92,0,27.55-8,27.55-35.58,0-26.81-9.63-35.11-27.55-35.11s-27.42,7.81-27.42,35.35C277.94,785.41,287.44,793.82,305.35,793.82Zm100.08-10.12H366.3l-5.84,17.43H349.37l29.85-85.31h13.66l29.86,85.31H411.28Zm-36.07-9.13h32.9l-16.58-48.88Zm68,26.56V715.81h32.17c24.86,0,36.95,12.67,36.95,42.16s-12.55,43.15-37.05,43.15Zm31.69-9.27c16.2,0,26.56-8,26.56-33.52,0-24.85-9.38-33.27-25.71-33.27h-21.7v66.79Zm103-57c-4.51-8.29-10.6-12.07-21.32-12.07-14.27,0-19.26,5.86-19.26,13.53,0,7.07,3.91,12.68,16.34,15.6l7.92,1.83c18.52,4.26,26.93,11.34,26.93,24.5,0,16.09-11.58,24.37-31.32,24.37-14.13,0-26-4.13-33.39-16.56l8.53-5.36c6.34,9.38,13,13.52,24.63,13.52,14.86,0,21.21-5.48,21.2-15.11,0-8.53-4.15-11.82-18.17-15.36l-7.92-1.94c-16.45-4-24.86-12.19-24.86-25,0-13.29,9.75-22.42,29.37-22.43,16.2,0,24.12,5.23,29.86,15.11ZM657.75,763H609.37v38.15H598.51V715.8h10.86v37.66h48.38V715.8h10.84v85.31H657.75Zm65.83-48.63c26.68,0,38.39,12.8,38.39,44s-12.79,44.24-38.38,44.24c-26.09,0-38.27-13-38.27-44.24S698,714.33,723.58,714.33Zm0,79.47c17.91,0,27.54-8,27.54-35.58,0-26.81-9.64-35.11-27.54-35.11s-27.43,7.81-27.43,35.35C696.16,785.39,705.66,793.8,723.58,793.8ZM832.19,716l19.26,69.35,19.51-69.59h10.47l-25,85.31H846.08L826.7,731.39,807.45,801.1H797l-24.87-85.31h11.09l19.14,70.07L821.58,716Z"/><path class="cls-2" d="M883.8,778.71c7.13,0,11.32,4.49,11.32,11.2s-4.19,11.19-11.32,11.19-11.32-4.49-11.32-11.19S876.62,778.71,883.8,778.71Zm0,20.89c5.57,0,9.46-3.35,9.46-9.7s-3.89-9.64-9.46-9.64-9.52,3.35-9.52,9.64S878.17,799.6,883.8,799.6Zm-4.31-15.45h4.67c2.69,0,4.13,1.38,4.13,3.53a3.39,3.39,0,0,1-2.22,3.53l2.16,4H886l-2-3.65h-2.45v3.65h-2Zm2,1.74v3.89h2.33c1.5,0,2.34-.48,2.34-2a1.77,1.77,0,0,0-2-1.92Z"/><polygon class="cls-2" points="832.19 716.04 851.44 785.38 870.95 715.79 881.42 715.79 856.44 801.1 846.08 801.1 826.7 731.39 807.45 801.1 796.96 801.1 772.1 715.79 783.19 715.79 802.32 785.87 821.58 716.04 832.19 716.04"/></g></svg>