<?xml version="1.0" encoding="utf-8"?>
<!-- Generator: Adobe Illustrator 21.1.0, SVG Export Plug-In . SVG Version: 6.00 Build 0)  -->
<svg version="1.1" id="Layer_1" xmlns="http://www.w3.org/2000/svg" xmlns:xlink="http://www.w3.org/1999/xlink" x="0px" y="0px"
	 viewBox="0 0 1080 1080" style="enable-background:new 0 0 1080 1080;" xml:space="preserve">
<style type="text/css">
	.st0{opacity:0.75;}
	.st1{fill:#FFFFFF;}
	.st2{opacity:0.5;fill:#FFFFFF;}
</style>
<title>WGBH_impact-report_digital_logo-farm_v1</title>
<g class="st0">
	<path class="st1" d="M755.1,426.2c0-33.9,27.5-61.5,61.5-61.5c33.9,0,61.5,27.5,61.5,61.5h-30.7c0,0,0-30.7-30.7-30.7
		s-30.7,30.7-30.7,30.7v61.5h-30.7V426.2z"/>
	<path class="st1" d="M324.9,426.2c0,33.9-27.5,61.5-61.5,61.5S202,460.2,202,426.2v-61.5h30.7v61.5c0,0,0,30.7,30.7,30.7
		s30.7-30.7,30.7-30.7v-61.5h30.7L324.9,426.2z"/>
	<path class="st2" d="M340.3,426.2c0-33.9,27.5-61.5,61.5-61.5s61.5,27.5,61.5,61.5v61.5h-30.7v-61.5c0,0,0-30.7-30.7-30.7
		S371,426.2,371,426.2v61.5h-30.7V426.2z"/>
	<path class="st2" d="M340.3,733.5c0-33.9,27.5-61.5,61.5-61.5s61.5,27.5,61.5,61.5V795h-30.7v-61.5c0,0,0-30.7-30.7-30.7
		S371,733.5,371,733.5V795h-30.7V733.5z"/>
	<path class="st2" d="M616.8,733.5c0-33.9,27.5-61.5,61.5-61.5c33.9,0,61.5,27.5,61.5,61.5V795H709v-61.5c0,0,0-30.7-30.7-30.7
		s-30.7,30.7-30.7,30.7V795h-30.7V733.5z"/>
	<path class="st2" d="M540,364.8c33.9,0,61.5,27.5,61.5,61.5s-27.5,61.5-61.5,61.5h-61.5V457H540c0,0,30.7,0,30.7-30.7
		S540,395.5,540,395.5h-61.5v-30.7H540z"/>
	<rect x="478.5" y="364.8" class="st1" width="30.7" height="122.9"/>
	<path class="st2" d="M540,672.1c33.9,0,61.5,27.5,61.5,61.5c0,33.9-27.5,61.5-61.5,61.5h-61.5v-30.7H540c0,0,30.7,0,30.7-30.7
		S540,702.8,540,702.8h-61.5v-30.7H540z"/>
	<rect x="478.5" y="672.1" class="st1" width="30.7" height="122.9"/>
	<rect x="616.8" y="364.8" class="st2" width="30.7" height="122.9"/>
	<path class="st1" d="M202,733.5c0-33.9,27.5-61.5,61.5-61.5s61.5,27.5,61.5,61.5h-30.7c0,0,0-30.7-30.7-30.7s-30.7,30.7-30.7,30.7
		V795H202V733.5z"/>
	<path class="st1" d="M755.1,733.5c0-33.9,27.5-61.5,61.5-61.5c33.9,0,61.5,27.5,61.5,61.5h-30.7c0,0,0-30.7-30.7-30.7
		s-30.7,30.7-30.7,30.7V795h-30.7V733.5z"/>
	<rect x="248.1" y="518.4" class="st2" width="30.7" height="122.9"/>
	<rect x="340.3" y="518.4" class="st2" width="30.7" height="122.9"/>
	<rect x="432.5" y="518.4" class="st2" width="30.7" height="122.9"/>
	<rect x="202" y="518.4" class="st1" width="122.9" height="30.7"/>
	<rect x="340.3" y="564.5" class="st1" width="122.9" height="30.7"/>
	<rect x="616.8" y="364.8" class="st2" width="122.9" height="30.7"/>
	<rect x="616.8" y="457" class="st2" width="122.9" height="30.7"/>
	<rect x="616.8" y="410.9" class="st1" width="76.8" height="30.7"/>
	<rect x="478.5" y="518.4" class="st2" width="30.7" height="122.9"/>
	<rect x="478.5" y="518.4" class="st2" width="122.9" height="30.7"/>
	<rect x="478.5" y="610.6" class="st2" width="122.9" height="30.7"/>
	<rect x="478.5" y="564.5" class="st1" width="76.8" height="30.7"/>
	<rect x="202" y="211.2" class="st1" width="676" height="122.9"/>
	<rect x="340.3" y="748.9" class="st1" width="122.9" height="30.7"/>
	<rect x="616.8" y="748.9" class="st1" width="122.9" height="30.7"/>
	<path class="st1" d="M202,834.8h7.9l6.9,22.7l7.5-22.8h6.3l7.5,22.8l6.9-22.7h7.7l-11.4,33.7h-6.4l-7.6-21.9l-7.6,21.9h-6.4
		L202,834.8z"/>
	<path class="st1" d="M261.8,834.8h7.4v33.5h-7.4V834.8z"/>
	<path class="st1" d="M288.5,841.6h-10.2v-6.8H306v6.8h-10.2v26.7h-7.4V841.6z"/>
	<path class="st1" d="M314.9,834.8h7.4V848h13.6v-13.2h7.4v33.5h-7.4v-13.4h-13.6v13.4h-7.4V834.8z"/>
	<path class="st1" d="M370.4,851.6L370.4,851.6c-0.2-9.5,7.3-17.2,16.7-17.4c0.3,0,0.5,0,0.8,0c6.3,0,10.1,2.1,13.2,5.2l-4.7,5.4
		c-2.6-2.3-5.2-3.8-8.6-3.8c-5.6,0-9.7,4.7-9.7,10.4v0.1c0,5.7,4,10.5,9.7,10.5c3.8,0,6.2-1.5,8.8-3.9l4.7,4.7
		c-3.4,4-8.5,6.2-13.7,6c-9.3,0.2-17-7.3-17.2-16.6C370.4,852,370.4,851.8,370.4,851.6z"/>
	<path class="st1" d="M421.9,834.5h6.8l14.3,33.7h-7.7l-3.1-7.5h-14.1l-3.1,7.5h-7.5L421.9,834.5z M429.6,854.2l-4.5-10.8l-4.5,10.8
		H429.6z"/>
	<path class="st1" d="M451.4,834.8h7.4v26.8h16.7v6.7h-24L451.4,834.8z"/>
	<path class="st1" d="M484.1,834.8h7.4v26.8h16.7v6.7h-24L484.1,834.8z"/>
	<path class="st1" d="M517.3,834.8h7.4v33.5h-7.4V834.8z"/>
	<path class="st1" d="M536.2,834.8h25.2v6.5h-17.9v6.8h15.8v6.5h-15.8v7h18.2v6.5h-25.5V834.8z"/>
	<path class="st1" d="M587.5,851.6L587.5,851.6c-0.2-9.5,7.3-17.2,16.7-17.4c0.3,0,0.5,0,0.8,0c6.3,0,10.1,2.1,13.2,5.2l-4.7,5.4
		c-2.6-2.3-5.2-3.8-8.6-3.8c-5.6,0-9.7,4.7-9.7,10.4v0.1c0,5.7,4,10.5,9.7,10.5c3.8,0,6.2-1.5,8.8-3.9l4.7,4.7
		c-3.4,4-8.5,6.2-13.7,6c-9.3,0.2-17-7.3-17.2-16.6C587.5,852,587.5,851.8,587.5,851.6z"/>
	<path class="st1" d="M627.4,834.8h15.3c4.2,0,7.5,1.2,9.8,3.4c2,2.1,3,4.8,2.9,7.7v0.1c0.2,4.7-2.7,8.9-7.2,10.4l8.2,12h-8.6
		l-7.2-10.7h-5.8v10.7h-7.4L627.4,834.8z M642.3,851c3.6,0,5.6-1.9,5.6-4.7v-0.1c0-3.2-2.2-4.8-5.8-4.8h-7.3v9.6H642.3z"/>
	<path class="st1" d="M663.7,851.6L663.7,851.6c0-9.6,7.5-17.4,17.8-17.4s17.7,7.7,17.7,17.2v0.1c0,9.5-7.5,17.3-17.8,17.3
		S663.7,861.1,663.7,851.6z M691.6,851.6L691.6,851.6c0-5.8-4.2-10.6-10.1-10.6s-10,4.7-10,10.4v0.1c0,5.7,4.2,10.5,10.1,10.5
		S691.6,857.3,691.6,851.6L691.6,851.6z"/>
	<path class="st1" d="M706.5,863.4l4.3-5.2c3,2.5,6.2,4.1,10,4.1c3,0,4.8-1.2,4.8-3.2V859c0-1.9-1.2-2.8-6.7-4.2
		c-6.7-1.7-11.1-3.6-11.1-10.2v-0.1c0-6.1,4.9-10.1,11.7-10.1c4.5-0.1,8.9,1.4,12.4,4.2l-3.8,5.5c-3-2-5.9-3.3-8.7-3.3
		s-4.3,1.3-4.3,2.9v0.1c0,2.2,1.4,2.9,7.2,4.4c6.8,1.8,10.6,4.2,10.6,10v0.1c0,6.6-5.1,10.4-12.3,10.4
		C715.5,868.7,710.4,866.8,706.5,863.4z"/>
	<path class="st1" d="M739.8,863.4l4.3-5.2c3,2.5,6.2,4.1,10,4.1c3,0,4.8-1.2,4.8-3.2V859c0-1.9-1.2-2.8-6.7-4.2
		c-6.7-1.7-11.1-3.6-11.1-10.2v-0.1c0-6.1,4.9-10.1,11.7-10.1c4.5-0.1,8.9,1.4,12.4,4.2l-3.8,5.5c-3-2-5.9-3.3-8.7-3.3
		s-4.3,1.3-4.3,2.9v0.1c0,2.2,1.4,2.9,7.2,4.4c6.8,1.8,10.6,4.2,10.6,10v0.1c0,6.6-5.1,10.4-12.3,10.4
		C748.8,868.7,743.7,866.8,739.8,863.4z"/>
	<path class="st1" d="M775.9,834.8h7.4v26.8H800v6.7h-24L775.9,834.8z"/>
	<path class="st1" d="M808.7,834.8h25.2v6.5H816v6.8h15.8v6.5H816v7h18.2v6.5h-25.5V834.8z"/>
	<path class="st1" d="M853.3,855.1l-12.9-20.3h8.6l8,13.4l8.1-13.4h8.4l-12.9,20.1v13.3h-7.4V855.1z"/>
</g>
</svg>
