<?xml version="1.0" encoding="utf-8"?>
<!-- Generator: Adobe Illustrator 21.1.0, SVG Export Plug-In . SVG Version: 6.00 Build 0)  -->
<svg version="1.1" id="Layer_1" xmlns="http://www.w3.org/2000/svg" xmlns:xlink="http://www.w3.org/1999/xlink" x="0px" y="0px"
	 viewBox="0 0 1080 1080" enable-background="new 0 0 1080 1080" xml:space="preserve">
<title>WGBH_impact-report_digital_logo-farm_v1</title>
<g opacity="0.75">
	<path fill="#FFFFFF" d="M287.7,398.5h34.4l3.6,16.9l17.6-17.3h31.5l4.1,17.4l17.4-17.4h32.6l-3.6,14.6
		c13.7-11.4,24.6-18.2,47.5-18.2c22.9,0,33.4,6.9,42.4,16.3l12.9-12.6h51.2c14.8,0,19.3,10.5,19.3,18.4l18.9-18.4H653V416l17.6-17.5
		h34.5v94.8l-83.6,82.1h-38.9l0-17.8l-18.4,17.8h-38.6v-16.3c-10.9,14.8-20.6,16.3-33.4,16.3h-59.1v-11.2
		c-5.1,3.9-24.8,13.9-51.4,13.9c-26.6,0-41.3-8.3-48.4-19.3l-17.8,16.6h-32l-4.4-16.6l-17.3,16.9h-33l-19.7-99.8L287.7,398.5z
		 M246.8,440.2l18.4,92.4h38.1l10.3-35.4l10.6,35.4h37.5l7.5-37.1c6.6,39.2,46.1,40.7,57.6,40.7c11.4,0,30-2.8,46.1-12.4v8.8h65.8
		c18.8,0,24.4-6,28.5-14.6v14.6H607V500h18.8v32.6h38.6v-92.3h-38.6v33.1h-18.6v-33.1h-39.8v17.1c-3.8-11.1-11.1-17.1-30-17.1h-64.1
		v13.6c-5.4-6.4-18.9-16.5-48-16.5c-29.1,0-39.4,7.1-50.1,22.1l3.5-19.2h-31.1l-8.4,33.6l-7.9-33.6h-33.8l-8.6,34.1l-7.7-34.3H246.8
		z"/>
	<path fill="#FFFFFF" d="M438.9,468.7h34.3v10.1h-46.7V497h11.8v10.1c0,5.2-3,8.8-11.4,8.8c-8.4,0-11.4-6.4-11.4-9.4
		s0.2-34.5,0.2-38.3c0-3.8,2.8-9.8,11.6-9.8C436.1,458.6,438.9,463.3,438.9,468.7"/>
	<path fill="#FFFFFF" d="M509.6,460.5v15.4c0,0,7.7,0.2,12.4,0.2c4.7,0,8.4-2.8,8.4-7.7c0-4.9-3.2-7.9-8.4-7.9H509.6z"/>
	<path fill="#FFFFFF" d="M509.6,497.4V513c0,0,8.3,0.2,12.9,0.2c4.7,0,8.4-2.8,8.4-7.7c0-4.9-3.2-8.1-8.4-8.1H509.6z"/>
	<path fill="#FFFFFF" d="M567.4,475.3V500c-3.2-9.9-10.3-11.6-15.2-13.3C556.9,486,564.6,481.9,567.4,475.3"/>
	<g>
		<path fill="#FFFFFF" d="M454.6,685.2c-9.6,0-17.7-2.1-25-5.4l2.6-15.1c7.4,3.9,15.5,6.6,22.7,6.6c5.1,0,8.6-2.2,8.6-6.4
			c0-4-2.1-5.9-12.1-9.7c-14.3-5.5-20.5-10.2-20.5-22c0-13.8,10.8-21.1,24.5-21.1c9.3,0,15.3,1.8,21.6,4.8l-2.7,14.9
			c-6.4-3.7-13.2-5.8-18.7-5.8c-5.4,0-8,2.3-8,5.6c0,3.6,2,5.4,10.9,8.8c15.5,5.7,21.8,11.1,21.8,22.5
			C480.2,678.3,468.8,685.2,454.6,685.2z"/>
		<path fill="#FFFFFF" d="M509.9,685.1c-10.9,0-18.5-3.9-18.5-16.9v-21.9h-6.7v-12.7h6.7v-15.1L507,616v17.5h9.6l2,12.7H507v19.4
			c0,4.1,2,6,6.2,6c1.3,0,2.6-0.2,3.7-0.5l2,12.9C516.5,684.7,514.1,685.1,509.9,685.1z"/>
		<path fill="#FFFFFF" d="M557.4,684.3l-1.1-6.9c-4.7,4.6-9.5,8-15.9,8c-9.4,0-14.4-5.8-14.4-15.7v-36.2h15.7v31.8
			c0,3.6,1.6,6.2,5.3,6.2c3,0,5.8-1.8,8.6-4.6v-33.5h15.7v50.8H557.4z"/>
		<path fill="#FFFFFF" d="M613.7,684.3l-1-6.6c-3.4,3.8-8.1,7.7-14.6,7.7c-10.4,0-18.3-7.9-18.3-25c0-19.4,10.3-27.2,21.5-27.2
			c4.7,0,7.9,0.6,10.8,1.7V612l15.7-2.5v74.8H613.7z M611.9,646.9c-2.3-1-4-1.5-7.4-1.5c-5.2,0-9.1,4-9.1,13.8
			c0,8.7,3.3,12.2,7.8,12.2c3.3,0,6-2.2,8.7-5.2V646.9z"/>
		<path fill="#FFFFFF" d="M646.6,626.9c-5,0-8.9-3.3-8.9-8.4c0-5.2,3.9-8.5,8.9-8.5c5.1,0,8.9,3.3,8.9,8.5
			C655.5,623.6,651.6,626.9,646.6,626.9z M638.7,684.3v-50.8h15.8v50.8H638.7z"/>
		<path fill="#FFFFFF" d="M687.3,685.4c-14,0-24.3-10.1-24.3-26.3s10.4-26.5,24.4-26.5c14.1,0,24.5,10.2,24.5,26.4
			C711.9,675.2,701.4,685.4,687.3,685.4z M687.4,645.4c-6,0-9.2,5.3-9.2,13.6c0,8.2,3.3,13.8,9.2,13.8c6,0,9.3-5.5,9.3-13.7
			S693.4,645.4,687.4,645.4z"/>
		<path fill="#FFFFFF" d="M765,685.2c-9.6,0-17.7-2.1-25-5.4l2.6-15.1c7.4,3.9,15.5,6.6,22.7,6.6c5.1,0,8.6-2.2,8.6-6.4
			c0-4-2.1-5.9-12.1-9.7c-14.3-5.5-20.5-10.2-20.5-22c0-13.8,10.8-21.1,24.5-21.1c9.3,0,15.3,1.8,21.6,4.8l-2.7,14.9
			c-6.4-3.7-13.2-5.8-18.7-5.8c-5.4,0-8,2.3-8,5.6c0,3.6,2,5.4,10.9,8.8c15.5,5.7,21.8,11.1,21.8,22.5
			C790.6,678.3,779.2,685.2,765,685.2z"/>
		<path fill="#FFFFFF" d="M807.3,626.9c-5,0-8.9-3.3-8.9-8.4c0-5.2,3.9-8.5,8.9-8.5c5.1,0,8.9,3.3,8.9,8.5
			C816.2,623.6,812.4,626.9,807.3,626.9z M799.4,684.3v-50.8h15.8v50.8H799.4z"/>
		<path fill="#FFFFFF" d="M854.5,685.1l-8.7-15.7l-8.4,14.9h-14.9l15.4-25.1l-14.7-24.5l16.3-2l7.9,14.4l7.8-13.7h14.8l-14.7,23.8
			l15.5,25.7L854.5,685.1z"/>
	</g>
</g>
</svg>
