<?xml version="1.0" encoding="utf-8"?>
<!-- Generator: Adobe Illustrator 21.1.0, SVG Export Plug-In . SVG Version: 6.00 Build 0)  -->
<svg version="1.1" id="Layer_1" xmlns="http://www.w3.org/2000/svg" xmlns:xlink="http://www.w3.org/1999/xlink" x="0px" y="0px"
	 viewBox="0 0 1080 1080" enable-background="new 0 0 1080 1080" xml:space="preserve">
<title>WGBH_impact-report_digital_logo-farm_v1</title>
<g opacity="0.75">
	<path fill="#FFFFFF" d="M306.6,501.4c0.3,0.2,0.7-0.3,0.5-0.5C306.8,500.6,306.3,501.1,306.6,501.4 M295.1,522.3
		c-0.3,0-0.2,0.5,0,0.5C295.3,522.8,295.3,522.3,295.1,522.3 M290.9,531.1c-0.3,0-0.2,0.5,0,0.5
		C291.2,531.6,291.1,531.1,290.9,531.1 M288.9,532.4c0.3,0.2,1.3,0.2,1.5-0.1C290.7,532.1,288.7,532.2,288.9,532.4 M282,536
		c-0.3,0-0.2,0.5,0,0.5C282.2,536.5,282.2,536,282,536 M283.4,534.2l-2.5,1.6l0.3,0l0.3,0c0.5-0.3,2-1.1,2-1.1L283.4,534.2z
		 M276.4,536c0,0.3,0.5,0.2,0.5,0C276.9,535.7,276.4,535.8,276.4,536 M273.9,537.1c0,0.3,0.5,0.2,0.5,0
		C274.4,536.9,273.9,536.9,273.9,537.1 M271.8,536.5c-0.3,0-0.2,0.5,0,0.5C272.1,537,272.1,536.5,271.8,536.5 M268.4,535.6
		c-0.3,0-0.2,0.5,0,0.5C268.7,536.1,268.6,535.6,268.4,535.6 M267.4,535.6c-0.3,0-0.2,0.5,0,0.5
		C267.6,536.1,267.6,535.6,267.4,535.6 M263.8,534.8c-0.3,0-0.2,0.5,0,0.5C264.1,535.3,264,534.8,263.8,534.8 M262.8,535.1
		c-0.3,0-0.2,0.5,0,0.5C263.1,535.6,263,535.1,262.8,535.1 M251.7,524.7c-0.3,0-0.2,0.5,0,0.5C252,525.2,251.9,524.6,251.7,524.7
		 M250.1,523.2c-0.3,0-0.2,0.5,0,0.5C250.4,523.7,250.3,523.2,250.1,523.2 M246.9,509.1c-0.3,0-0.2,0.5,0,0.5
		C247.2,509.6,247.2,509.1,246.9,509.1 M246.8,505.1c-0.3,0-0.2,0.5,0,0.5C247,505.6,247,505.1,246.8,505.1 M246.1,535.8
		c0,0.3,0.5,0.2,0.5,0C246.6,535.5,246.1,535.6,246.1,535.8 M245.8,506.9c-0.3,0-0.2,0.5,0,0.5C246.1,507.4,246.1,506.9,245.8,506.9
		 M244.7,505.2c-0.3,0-0.2,0.5,0,0.5C245,505.7,245,505.2,244.7,505.2 M203.9,534.6c-0.3,0-0.2,0.5,0,0.5
		C204.2,535.1,204.2,534.6,203.9,534.6 M232.7,507.7l-1.5,0.1l0-0.5l0.3,0C231.9,507.3,232.2,507.5,232.7,507.7 M228.8,459.3
		c-0.8,0-2.5,0.1-2.2,1.4l-3,0.1c0.5-0.8,3.4-2.7,4.2-2.7C228.2,458.1,228.8,458.8,228.8,459.3 M224.4,504.5l0.5,0
		c0.5,0,0.8,0,1,0.5l-0.3,0C225.2,505,224.9,504.8,224.4,504.5 M210.5,475.1c-0.5,0.5-1.2,0.6-2,0.6l0-0.5L210.5,475.1z
		 M190.9,469.3l-2.5,1.6l0-0.5c0-1,1-1.1,1.7-1.1L190.9,469.3z M187.2,447.4c-1,0-1.8-0.2-2.3-1.2l0.5,0
		C186.1,446.2,187.2,446.4,187.2,447.4 M183,462.1l-1,0l1-0.6L183,462.1z M181.3,458.1c-0.2,0.3-1.3,0.3-1.5,0.1
		C179.5,457.9,181.6,457.8,181.3,458.1 M174.8,470.3c-0.3,0-0.3-0.5,0-0.5C175,469.8,175,470.3,174.8,470.3 M171.9,532.9
		c-0.3,0-0.3-0.5,0-0.5C172.1,532.4,172.1,532.9,171.9,532.9 M182.5,532.5c0.3,0,0.3,0.5,0,0.5C182.3,533,182.3,532.5,182.5,532.5
		 M235.8,534l0.5-0.5c0-0.3-0.1-2.3-0.1-3.3c-0.1-3-0.3-5.8-0.9-8.8c-0.5-0.2-0.5-0.5-0.5-0.7c0-0.3,0-0.5,0.5-0.8l-1.1-26.5
		c-0.5-0.7-0.6-1.2-0.6-2c0-1,0.2-1.5,0.4-2.6l-1.2-26.8c0,0-0.3-0.5-0.5-0.5c-0.5-0.2-2.6-1.2-3.1-1.4l3-1.1l-0.7-16.7
		c-5.6,0.2-11.1,0.5-16.7,1.7c-1.2,1.8-3.2,3.2-5.4,3.3c-1.5,0.1-2.1-0.7-2.1-2.2c0-0.5,0.2-0.8,1-0.8c-0.8-0.7-2.3-0.4-3.1-0.4
		c-0.3,0-1.8,0.1-2,0.1c-1.4,1.8-1,12.7-0.9,14.2c0.1,1.3,0.6,2.3,0.7,3.3l0,0.3c0,0.3-0.7,1.3-0.9,1.6c-0.2,2-0.8,11.2-0.9,13.2
		c0,0.3,0.1,1.3,0.1,1.5c1.3-0.1,2.3-0.6,3.5-0.7c0.8,0,3.5-0.2,3.6,0.9c0,1-0.4,2-1.4,2.1c-1.5,0.1-2.6-0.4-4.1-0.3
		c-0.5,0-1.5,0.1-1.5,0.1l-0.9,2.6l-0.5,12.2l-0.3,0c-0.5,0-1.1-2-1.4-2.5c0.4-9.1-2.8-18.1-3.2-27.3c-1.3-1.7-6.1-0.7-6.2-2.5
		c-0.1-3.3,4.5-2.2,4.3-5.5c-0.2-4-1.6-8-2-12.1c0-0.8-1.3-0.5-1.8-0.4c-2.3,0.1-4.5,1.2-6.8,1.3c-4.8,0.2-9.7-0.6-14.5-0.4
		c-1.8,0.1-5.9-0.5-5.7,2.3c0,1,0.6,1.5,0.6,2.3c0.1,2.5-0.8,4.9-0.7,7.1c0,0.8,0.1,1.3,1.1,1.2c1,0,2.3-0.6,3.3-0.7
		c0.8,0,1.3,0.7,1.3,1.5c0.1,3-5.4,3.3-5.3,6.8l0.3,7.6l3-0.1l0,0.5c-0.2,0.8-1.1,3.9-1.3,4.6c-1,0.6-2,1.4-1.9,2.6l0,0.5
		c0,1,0.7,5.5,0.8,6.6l3.1,48.7l0.6,1c0,0,1.8-0.1,2.5-0.1c5.1-0.2,9.8-1.2,15.2-1.4l-0.4-8.9c-0.5-0.5-0.6-1-0.6-1.5
		c0-0.5,0-0.8,0.5-1l-1.7-39.1l-0.6-1c0.1-3.6,0.2-7.6-1-11.1l-0.6-1c0-0.3,1-1.1,1-1.1c0-0.3,0.5-0.8,0.5-1c0.3,0.7,1,0.5,1.5,0.4
		c1,0,2-0.6,3-0.6l0,1c-0.5,0-2.5,0.9-3,1.1c-0.5,0.3-0.5,0.5-0.5,0.8c0,0.5,0.5,0.7,1,0.7c-0.7,0.8-0.4,2.3-0.4,3.1
		c0.2,5.1,2.3,12.3,3.3,16.6c0,0.5,1.2,5,1.3,5.5c1.7,9.2,3.3,18.5,5.2,27.3c0.3,0.7,0.8,1.5,1.6,1.5c-1,0-1,0.3-1,1.1
		c0.1,2.3,0.1,7.1,3.3,7c2.5-0.1,4.7-1.7,7-1.8c1,0,2,0.4,3.1,0.4c0.3,0,1,0,1-0.5l-0.4-8.1l0.5-0.8l-1.5,0.1c3-1.9,3-7,3.1-10
		c0.2-1.5,0.2-7.1,0.2-8.1c-0.1-1.5-0.4-9.2-0.5-10.8c1.9-3.1,1.5-7.2,1.6-10.7c1.6-3.1,1.7-7.4,1.6-10.7c-0.1-2-1.9-2.2-3.7-2.4
		c0.7-1.8,1.7-1.8,3.7-2.2l-0.2-4.1c0-0.3,0.7-0.5,1-0.6c0.8,0,1.4,2.2,1.4,2.7l0,0.3c-0.2,0.5-0.6,2.6-0.9,3.1l1.4,26.3l0.1,1.5
		c0.2,3.9,1.2,20.9,1.3,24.4c0.1,1.5,0.9,9.1,1,10.6L235.8,534z M205.5,478.3c0-0.3-0.5-0.2-0.5,0
		C205,478.6,205.5,478.6,205.5,478.3 M163.7,462.1c-0.3,0-0.2,0.5,0,0.5C164,462.6,164,462.1,163.7,462.1 M241.9,462.6
		c-0.3,0-0.2,0.5,0,0.5C242.2,463.1,242.1,462.5,241.9,462.6 M242.1,456.5c0.3,0,0.2-0.5,0-0.5C241.9,456,241.9,456.5,242.1,456.5
		 M243.5,465.5c0.3,0,0.2-0.5,0-0.5C243.3,465,243.3,465.5,243.5,465.5 M244.4,461.9c0.3,0,0.2-0.5,0-0.5
		C244.1,461.4,244.1,462,244.4,461.9 M245.1,490.2l-0.5,0l0,0.5l0.5,0L245.1,490.2z M244.8,471.6c0.3,0,0.2-0.5,0-0.5
		C244.5,471.1,244.6,471.6,244.8,471.6 M244.9,473.3c0.3,0,0.2-0.5,0-0.5C244.6,472.8,244.6,473.3,244.9,473.3 M244.9,484.2
		c-0.3,0-0.2,0.5,0,0.5C245.1,484.7,245.1,484.2,244.9,484.2 M244.9,485.8c0.3,0,0.2-0.5,0-0.5C244.6,485.3,244.7,485.8,244.9,485.8
		 M245,488.7c0.3,0,0.2-0.5,0-0.5C244.8,488.2,244.8,488.7,245,488.7 M245.3,495.3c-0.3,0-0.2,0.5,0,0.5
		C245.6,495.7,245.6,495.2,245.3,495.3 M245.7,456.3c0.3,0,0.2-0.5,0-0.5C245.4,455.8,245.4,456.3,245.7,456.3 M247,452.7
		c0.3,0,0.2-0.5,0-0.5C246.8,452.2,246.8,452.7,247,452.7 M249.4,447.8c0-0.3-0.5-0.2-0.5,0C248.9,448.1,249.4,448,249.4,447.8
		 M249.8,434.6c0-0.3-0.5-0.2-0.5,0C249.3,434.8,249.8,434.8,249.8,434.6 M250.8,434.8c0.3,0,0.2-0.5,0-0.5
		C250.6,434.3,250.6,434.8,250.8,434.8 M250.9,447c0.3,0,0.2-0.5,0-0.5C250.6,446.5,250.6,447,250.9,447 M252.3,445.9
		c0.3,0,0.2-0.5,0-0.5C252,445.4,252.1,445.9,252.3,445.9 M253.8,444.3c0.3,0,0.2-0.5,0-0.5C253.5,443.8,253.5,444.3,253.8,444.3
		 M258.3,442.6c0.3,0,0.2-0.5,0-0.5C258,442.1,258,442.6,258.3,442.6 M263,435.8c0.3,0,0.2-0.5,0-0.5
		C262.8,435.3,262.8,435.8,263,435.8 M266.5,435.4c0.2-0.3-1.7-0.2-1.4,0.1C265.3,435.7,266.2,435.6,266.5,435.4 M268.2,440.4
		c0-0.3-0.5-0.2-0.5,0C267.7,440.6,268.2,440.6,268.2,440.4 M268.5,435.5c0.3,0,0.2-0.5,0-0.5C268.2,435,268.2,435.5,268.5,435.5
		 M269.7,440.6c0.3,0,0.2-0.5,0-0.5C269.4,440.1,269.5,440.6,269.7,440.6 M274.5,434c0.5-0.3-3.6-0.1-3,0.1
		C272,434.4,274,434.3,274.5,434 M277.9,441.7c0.3,0,0.2-0.5,0-0.5C277.6,441.2,277.6,441.7,277.9,441.7 M284.5,441.7l-1,0l0.1,1.8
		C284.3,443.5,284.5,441.9,284.5,441.7 M284.1,444c-0.3,0-0.2,0.5,0,0.5C284.3,444.5,284.3,444,284.1,444 M285.1,445
		c0.3,0,0.2-0.5,0-0.5C284.9,444.5,284.9,445,285.1,445 M294.1,464.4c0.3,0,0.2-0.5,0-0.5C293.8,463.9,293.8,464.4,294.1,464.4
		 M294.7,467.1c0.3,0,0.2-0.5,0-0.5C294.4,466.6,294.5,467.1,294.7,467.1 M295,474.2c0,0.5,0.3,1,0.6,1.5l-0.1-1.5L295,474.2z
		 M295.1,476.5c-0.3,0-0.2,0.5,0,0.5C295.4,477,295.4,476.5,295.1,476.5 M269.2,463.9c-0.3,0-0.2,0.5,0,0.5
		C269.5,464.4,269.5,463.9,269.2,463.9 M267.8,466.8c0,0.3,0.5,0.2,0.5,0C268.3,466.5,267.8,466.5,267.8,466.8 M267.7,475.4
		c-0.1,0-0.1,0.5,0,0.5C268,475.9,267.9,475.4,267.7,475.4 M267.2,465.3c-0.1,0-0.1,0.5,0,0.5C267.5,465.8,267.5,465.3,267.2,465.3
		 M268.5,460.1c-1,1.3,0.1,2-1.4,3.6c0,0.3,0.8,0.5,1,0.5c0,0,0.5-0.3,0.5-0.5c0.2-0.5,0.4-2.3,0.4-2.6
		C269.1,460.9,268.8,460.1,268.5,460.1 M269,459.1l0.5,0l-0.1-2.3c-0.8,0-1.5,0.3-1.5,1.3l1,0L269,459.1z M270.7,510.9
		c0-0.3-0.5-0.2-0.5,0C270.2,511.2,270.7,511.1,270.7,510.9 M271,458.5c0.3,0,0.2-0.5,0-0.5C270.7,458,270.8,458.5,271,458.5
		 M271.1,518.7c0.3,0,0.2-0.5,0-0.5C270.8,518.2,270.8,518.8,271.1,518.7 M271.9,466.6c0.3,0,0.2-0.5,0-0.5
		C271.6,466.1,271.6,466.6,271.9,466.6 M273.5,492.3c-0.3,0-0.2,0.5,0,0.5C273.8,492.8,273.7,492.2,273.5,492.3 M273.6,484.3
		c0.2-0.3,0.2-1.3-0.1-1.5C273.3,482.5,273.4,484.5,273.6,484.3 M289.1,478.5l0.5-1l0,1L289.1,478.5z M289.8,507
		c0.3,0,0.3,0.5,0,0.5C289.6,507.5,289.6,507,289.8,507 M290.2,479.5c-0.3,0-0.3-0.5,0-0.5C290.4,479,290.4,479.5,290.2,479.5
		 M290.4,508.5c0-0.3,0.5-0.3,0.5,0C290.9,508.8,290.4,508.8,290.4,508.5 M291.2,480.5c0.3,0.2,0.3,0.7,0,1
		C291,481.7,291,480.2,291.2,480.5 M291.5,510.5c0.5,0.2,0.5,0.5,0.6,1l-0.5,0L291.5,510.5z M292.3,493.7c0.3,0,0.3,0.5,0,0.5
		C292.1,494.2,292.1,493.7,292.3,493.7 M293.4,494.7c0-0.3,0.5-0.3,0.5,0C293.9,494.9,293.4,495,293.4,494.7 M293.6,512.2
		c0.3,0,0.3,0.5,0,0.5C293.4,512.7,293.4,512.2,293.6,512.2 M292,468.3c0,0.5-0.5,1-1.2,1.1l0-0.3
		C290.7,468.3,291.5,468.3,292,468.3 M291.1,466.5c-0.3,0-0.3-0.5,0-0.5C291.4,466,291.4,466.5,291.1,466.5 M294.5,497.9
		c0.3,0,0.3,0.5,0,0.5C294.3,498.5,294.3,498,294.5,497.9 M287.5,522.1c-0.3,0-0.3-0.5,0-0.5C287.7,521.6,287.7,522.1,287.5,522.1
		 M287.2,491.9c-0.2,0.3-0.3-1.8-0.1-1.5C287.4,490.6,287.4,491.7,287.2,491.9 M286.7,458.3c-0.3,0-0.3-0.5,0-0.5
		C287,457.8,287,458.3,286.7,458.3 M286.1,502.9c-0.3,0-0.3-0.5,0-0.5C286.3,502.4,286.4,502.9,286.1,502.9 M285.9,451.8
		c-0.5,0-1-0.2-1.5-0.4l0.9-1.6C285.6,450.3,285.9,451.3,285.9,451.8 M284.2,481c-0.3,0-0.3-0.5,0-0.5
		C284.4,480.5,284.4,481,284.2,481 M283.6,480.5c-0.3,0-0.3-0.5,0-0.5C283.9,480,283.9,480.5,283.6,480.5 M282.4,463.9
		c-0.3,0-0.3-0.5,0-0.5C282.6,463.3,282.7,463.8,282.4,463.9 M282.3,455.5l-1.8,0.1l-0.1-1.5C280.7,454,282.3,454.7,282.3,455.5
		 M280.6,445.4c0,0.3-0.5,0.3-0.5,0C280.1,445.2,280.6,445.2,280.6,445.4 M279.7,460.4c-0.3,0-0.3-0.5,0-0.5
		C279.9,459.9,280,460.4,279.7,460.4 M278.5,444.2c-0.3,0-0.3-0.5,0-0.5C278.7,443.7,278.8,444.2,278.5,444.2 M278.4,453.1
		c-0.2,0.3-0.7,0.3-1,0C277.1,452.9,278.6,452.9,278.4,453.1 M278.1,445.5l-0.5,0l0.5-0.5L278.1,445.5z M277.4,453.9
		c0.3,0,0.3,0.5,0,0.5C277.2,454.4,277.1,453.9,277.4,453.9 M276.3,452.7c-0.3-0.2,0.2-0.8,0.5-0.5
		C277.1,452.4,276.6,452.9,276.3,452.7 M276,445.9c-0.3,0-0.3-0.5,0-0.5C276.3,445.3,276.3,445.9,276,445.9 M275.5,504.6
		c0.1,1.8,0.3,7.1,0.3,7.6c0.1,2.8,0.8,7.6-3,7.7c-0.3,0-1.3,0.1-1.3,0.1c-0.5-0.2-2.1-1.7-2.1-1.9l-2.8-43.1c0-1-0.7-5-0.8-6.1
		l0-0.3c0-0.5,0-0.5,0.5-0.8c-0.2-4.6-0.9-8.1,1.4-11.7c0.5-0.8,0.5-0.5,1.2-0.6c3-0.1,3.2,4.2,3,6l0.5,0.5l0.5,12.7l0.5,0.5
		c0,0,1,10.7,1.2,15.3c0,0.5,0.2,3.8,0.2,4.8c0,1,0.1,3.3,0.1,3.3l-0.5,0.5l0.5,0.5C275.3,499.8,275.5,503.3,275.5,504.6
		 M275.1,447.2c-0.3,0-0.3-0.5,0-0.5C275.3,446.7,275.3,447.2,275.1,447.2 M274.5,444.7c-0.2,0.3-0.3-1.3,0-1
		C274.7,443.9,274.7,444.4,274.5,444.7 M269,446.7c-0.3,0-0.3-0.5,0-0.5C269.2,446.2,269.2,446.7,269,446.7 M266.3,442.7
		c-0.1,0-0.1-0.5,0-0.5C266.5,442.2,266.5,442.7,266.3,442.7 M265.9,514.4c0.3,0,0.3,0.5,0,0.5C265.7,514.9,265.7,514.4,265.9,514.4
		 M264.2,521.1c-0.3,0-0.3-0.5,0-0.5C264.4,520.6,264.5,521.1,264.2,521.1 M263.5,446.4c-0.3,0-0.3-0.5,0-0.5
		C263.7,445.9,263.8,446.4,263.5,446.4 M263.1,519.6c0.3,0,0.3,0.5,0,0.5C262.9,520.1,262.9,519.6,263.1,519.6 M262.6,508.5
		c-0.3,0-0.3-0.5,0-0.5C262.9,507.9,262.9,508.4,262.6,508.5 M262.5,493.8c-0.3,0-0.3-0.5,0-0.5
		C262.7,493.2,262.8,493.7,262.5,493.8 M261.7,521.7c-0.3,0-0.3-0.5,0-0.5C261.9,521.2,261.9,521.7,261.7,521.7 M261.5,447.8
		c0,0.3-0.5,0.3-0.5,0C261,447.5,261.5,447.5,261.5,447.8 M261,506.2l0,0.5l-0.5-0.5L261,506.2z M260.6,531.1c0,0.3-0.5,0.3-0.5,0
		C260.1,530.9,260.6,530.9,260.6,531.1 M259.1,449.1c-0.3,0-0.3-0.5,0-0.5C259.3,448.6,259.3,449.1,259.1,449.1 M266.2,520.5
		c0.3,0,0.3,0.5,0,0.5C266,521,266,520.5,266.2,520.5 M266.8,510.6c0.3,0,0.3,0.5,0,0.5C266.6,511.1,266.5,510.6,266.8,510.6
		 M268.6,516.3c0.3,0,0.3,0.5,0,0.5C268.3,516.8,268.3,516.3,268.6,516.3 M280.4,464.4c0.3,0,0.3,0.5,0,0.5
		C280.2,465,280.1,464.5,280.4,464.4 M280.7,518.3c0.3,0,0.3,0.5,0,0.5C280.5,518.8,280.4,518.3,280.7,518.3 M281.5,466.9
		c0.3,0,0.3,0.5,0,0.5C281.3,467.4,281.3,466.9,281.5,466.9 M253.2,523.6c-0.3,0-0.3-0.5,0-0.5C253.4,523.1,253.4,523.6,253.2,523.6
		 M250.5,509.5c-0.3,0-0.3-0.5,0-0.5C250.7,509,250.8,509.5,250.5,509.5 M295.8,515.4c-0.1-3-0.8-17.7-0.9-20.8
		c0-1,0.1-9.1,0.1-10.3c0-0.5-0.7-5.5-0.8-6.1c-0.9-8.6,0.2-19-4.7-26.7c-0.3,0-1.3-0.2-1.5-0.4l0-0.3c0-0.5,0.5-0.5,0.5-1.3
		c-0.1-2.5-4.2-3.6-6.3-4.3l0.5-0.5c-1.9-2.5-4.4-1.1-6.2-2.8l-0.5,0c-0.3,0-1.8-0.4-2.1-0.4c-1.3-0.2-5.6-0.3-6.1-0.2
		c-5.2,0.2-10,1.4-13.9,4.9l1.5-0.1c0.9,2.2-2.2,2.4-2.9,2.4c-3,0.4-3,1.6-4.9,4.8l1,0.5l-2,1.1l-1.3,5.6c0,0.3,0.5,11.6,0.7,15.9
		c0.6,12.8,0,28.8,2.8,41.9c0.3,0.7,1.4,2.7,1.2,4c0.2-0.3,1.8,0.2,2,0.4c0.3,0.2,0.6,2.3,0.6,2.5c1.7,4.2,11.1,9.7,15.1,9.5
		l12.5-0.5C288,534,295.8,522.5,295.8,515.4 M296,496.9c0.3,0,0.2-0.5,0-0.5C295.7,496.4,295.7,496.9,296,496.9 M296.3,516.1
		c0.3,0,0.2-0.5,0-0.5C296.1,515.6,296.1,516.1,296.3,516.1 M296.4,517.4c0.3,0,0.2-0.5,0-0.5C296.1,516.9,296.1,517.4,296.4,517.4
		 M296.8,503.9c0.3,0,0.2-0.5,0-0.5C296.5,503.4,296.6,503.9,296.8,503.9 M296.9,506.2c0.5-0.5,0.5-1,0.4-1.5l0-0.5
		c-0.5,0.3-0.5,0.8-0.5,1.3L296.9,506.2z M353.2,444.4c-0.3,0-0.3-0.5,0-0.5C353.4,443.9,353.5,444.4,353.2,444.4 M350.1,479.1
		c-0.3,0-0.3-0.5,0-0.5C350.4,478.5,350.4,479,350.1,479.1 M348.2,480.4c0,0.3-0.2,1-0.5,1c-0.3,0-1.3-0.2-1.5-0.4c0-1,0.5-1,1-1.1
		C347.4,479.9,348.2,479.9,348.2,480.4 M344.1,468.9c-0.2,0.3-1.2,0.6-1.5,0.6c-0.3,0-0.5-0.7-0.6-1l0.8,0
		C343.3,468.4,343.9,468.4,344.1,468.9 M342.9,463.9c-0.7,0.3-0.7,1.6-0.7,2.1l-0.3,0c-0.2,0-0.6,0.4-0.8,0.5
		c-0.4-0.1-1-0.2-1.2-0.4l0-0.3c-0.1-1.3,0.9-1.8,1.9-1.9C342.1,463.9,342.6,463.9,342.9,463.9 M341.8,462.4
		c-0.2,0.3-0.3-1.8-0.1-1.5C342,461.1,342.1,462.2,341.8,462.4 M339.3,473.7c0,0.8-2.5,1.6-3.2,1.7l-0.8,0c0.5-0.3,2.2-1.4,2.5-1.6
		l0.5-0.5l-1,0c0.2-1.3,1.2-2.6,1.9-3.6L339.3,473.7z M339,521c0.1,2.5-0.6,3.3-3.4,3.4l-0.3,0c-0.3-0.2-1.8-0.7-2.1-0.9
		C337.6,523.1,336,521.1,339,521 M337.5,526.9c0.5,0.2,0.5,0.5,0.6,1l-0.5,0L337.5,526.9z M327.2,520.2c-0.3,0-0.3-0.5,0-0.5
		C327.4,519.7,327.5,520.2,327.2,520.2 M326.1,519c-0.3,0-0.3-0.5,0-0.5C326.4,518.5,326.4,519,326.1,519 M325.4,514.7
		c-0.2,0.5-0.5,0.5-1,0.5c-0.8,0-1.5-0.2-2.1-0.9c0.3,0,1,0,1.3-0.1C323.9,514.3,325.2,514,325.4,514.7 M322.2,475.4l0.5,0
		c0.5,0,1,0.2,1,0.7l0,0.3C323.3,476.2,322.5,475.9,322.2,475.4 M323.5,470.1c-0.3,0-0.3-0.5,0-0.5
		C323.7,469.5,323.8,470,323.5,470.1 M321.9,514.1c-0.3,0-0.3-0.5,0-0.5C322.1,513.6,322.1,514.1,321.9,514.1 M321.6,507
		c-0.3,0-0.3-0.5,0-0.5C321.8,506.5,321.8,507,321.6,507 M318.4,515l-1.5,0.1c0-1,0.7-1.3,1.5-1.3L318.4,515z M318,507.7
		c-0.3,0-0.3-0.5,0-0.5C318.3,507.2,318.3,507.7,318,507.7 M318.1,474.1l-0.5,0l0-0.5L318.1,474.1z M318,472.3c-0.3,0-0.3-0.5,0-0.5
		C318.3,471.8,318.3,472.3,318,472.3 M315,507.8c-0.3,0-0.3-0.5,0-0.5C315.2,507.3,315.2,507.8,315,507.8 M313.1,488
		c-0.2,0.3-0.7,0.3-1,0C311.8,487.8,313.4,487.7,313.1,488 M312.6,441.9l-1,0l0-0.5l1,0L312.6,441.9z M311.3,480.5
		c-0.3,0-0.3-0.5,0-0.5C311.5,480,311.5,480.5,311.3,480.5 M309.6,442.5c-0.2,0.3-0.3-1.3,0-1C309.9,441.7,309.9,442.2,309.6,442.5
		 M309.2,480.3c-0.3,0-0.3-0.5,0-0.5C309.5,479.8,309.5,480.3,309.2,480.3 M353.4,448.2c0.4-2.6,1.3-5.1,1.2-7.7
		c-0.1-1.5-0.8-1-1.6-2l0.5-0.5l-2-0.4l-15.2,0.7c0,0-0.5,1-0.4,1.5c-0.8,4.1-0.9,8.7-1.5,12.7c-0.2,1-0.8,5.9-0.7,6.6
		c0,1-0.2,8.1-0.1,9.1c0,0.8-0.8,5.9-0.7,6.6l0,0.3c0,1,1,0.7,1.1,2.2l-0.5,1l0,0.3c0.1,1.3,2,0.4,2.1,1.4c0.1,2.3-0.7,1-1.9,2.4
		c-1,1.1-3,9.3-3,10.5c0,0.5,0.3,0.7,1,0.7l0.2,4.4l0.9,0.5c-2.5,3.9-1,9.7-2.6,13.8l-0.5-11.6c-1.5,0.6-1.8-1.4-1.9-2.2l-2,0.1
		c0,0-0.8-1-0.6-1.1c0.7-0.8,2.5-0.6,2.4-2.1l-0.3-6.6c-0.5-0.2-0.5-0.5-0.5-0.7c0-0.8,0.9-1.8,0.9-3.1c-0.1-1.3-0.6-2.5-2.1-2.2
		l0.5-1c-1-0.5-2.8-1.1-3.6-1.4l-0.1-1.5c1.5,0.2,4.3-0.4,3.9-2.7c-0.1-1.5-0.4-9.1-0.5-10.6c-0.4-8.9-0.4-14.2-2-23.2
		c-0.6-2.3-1.9-3.5-4.2-3.4l-17.2,0.7c0,0-0.4,1.5-0.4,2c0,0.3,0.1,2.5,0.2,3.5c0,0.5,0.1,3,0.2,3.5l1-0.6c0,0.3,0.1,1.3,0.1,1.5
		l0.6,1c1.2,9.1,1.3,18.2,2.7,27.3c0.3,0.7,1.6,2,1.6,2.7l0,0.2c0,0.5-0.9,3.6-0.8,4.1c0,0.8-0.1,2.8-0.1,2.8l1.8-0.1
		c0,0,0.7,3.3,0.7,4.8c0.1,1.3,0.3,7.2,0.4,8.5c1.4,2.2,4.1,0.3,4.2,3.9c0,0.5,0.1,1.5,0.1,1.5c-0.2,0.3-1.5,1.1-2,1.1
		c0,0.8,0.2,3.8,0.2,4.6c0.2,4,1.1,7.6,1.5,11.6l1.1,1l0.3,7.1l17.2-0.7c0.3,0.5,0.8,0.5,1.2,0.5c1,0,1.2-0.8,2.2-1.1l0,0.8
		c0.5,0,2.3-0.4,2.5-0.4l1-0.5c1.5-0.1,2.6,0.9,4.1,0.8c2.3-0.1,2.1-3.4,2.3-5.2c0.2-1.8,1.5-17.1,1.7-18.8c0-0.8,0.9-7.4,1.2-8.2
		c0,0,0-0.5,0-0.8c-0.1-1.3-0.6-1.9-1.6-2.6l-0.2-4.1c5.8-1.8,3.5-17.9,4.1-21.5c0-0.3,0.9-3.3,0.9-3.6
		C352.9,460.7,352.6,454.1,353.4,448.2 M380.1,453.8c0.3,0,0.3,0.5,0,0.5C379.9,454.3,379.9,453.8,380.1,453.8 M384.4,493.3
		c0.3,0,0.3,0.5,0,0.5C384.1,493.8,384.1,493.3,384.4,493.3 M385,488.4c0-0.3,0.5-0.3,0.5,0C385.6,488.7,385.1,488.7,385,488.4
		 M385.1,489.5l0.5,0.5l-0.5,0L385.1,489.5z M398.3,523.9l0.3,0c0.3,0,0.5,0,0.8,0.5l-1,0L398.3,523.9z M398.9,480.6
		c0-0.3,0.5-0.3,0.5,0C399.4,480.8,398.9,480.9,398.9,480.6 M390.6,441.2c0-0.3,0.2-0.5,0.5-0.8c0.5,0,3.6,0.4,4.5-0.7l0,0.5
		c0.1,1.8-1.2,2.1-2.7,2.1c-0.3,0-1,0-1.3,0.1l0.5-0.5c-0.3,0-1.3-0.2-1.5-0.4L390.6,441.2z M395.8,442.7c0.3,0,0.3,0.5,0,0.5
		C395.5,443.2,395.5,442.7,395.8,442.7 M375.4,520.6c-0.3,0-0.3-0.5,0-0.5C375.6,520,375.7,520.6,375.4,520.6 M374.6,524.4l-0.5,0
		c0-0.5,0-0.8,0.5-1L374.6,524.4z M372.5,441.2c0,1-1.4,1.8-1.9,2.1c0.2-0.5,0.2-1.8-0.7-2L372.5,441.2z M369.1,445.4l1-1.1l0,1
		L369.1,445.4z M367.1,492c-0.3,0-0.3-0.5,0-0.5C367.3,491.5,367.3,492,367.1,492 M379.3,528.8l27.7-1.2l-0.8-17.7l-18-0.2
		l-0.7-16.7c-0.3-0.2-1.1-1.7-1.4-2l0-0.3c0-0.5,4.1-4,4.9-4c0.5,0,0.5,0.5,0.5,0.7c0,0.5-0.5,1-1,1.3l12.2-0.5
		c-0.1-1.8-1.2-3.5-2.7-4.4l0.5-0.5c0.3,0.5,0.8,0.5,1.3,0.5l0.8,0c0.1-2.7,0.7-7.5,0.5-11.1c0-0.3,0.2-2-0.6-2l-13.7,0.6l-1-0.7
		c0,0-0.7-3.3-0.7-4.5c0,0,0-0.5,0-0.8c-0.1-3.3,0.4-7.4,0.6-10.4c4.5-1.7,10.8-1.7,15.1-1.7c0.8-0.3,0.5-0.8,0.5-1.3
		c-0.1-1.8-1.7-3.2-1.7-4.5l0-0.3c0-0.3,0.4-1.3,0.4-1.5c0-0.3-0.3-0.5-0.5-0.5c0,0,1.5-0.6,1.5-1.1l-0.4-8.1l-31.8,1.4
		c-0.5,0.3-2.5,0.9-3,1.1c-0.3,0-4.5,1.2-4.5,1.7l0.5,12.2l1,0c0.9-2.1,2.1-4.4,4.1-4.5l0.3,0.2c0,0-0.7,0.5-1,0.6
		c0.3,0,1,0.7,1.1,1c0,0.3-0.2,1-0.5,1c1.8,0.4,3.8,0.6,5.6,0.8c-0.8,0-4.8,1-5.5,1.3c-2.5,0.9-3.4,4-4.8,5.8
		c-0.1,4.1,0.3,23.6,0.2,28l0,0.8c0.1,1.8,1.2,3.5,1.2,5.3c0,0.3-0.2,0.5-0.5,0.5c-0.1,2.5-0.2,6.1-0.1,9.1c0,0.3,0,0.8,0,1
		c0.2-0.5,2.5-1.6,3-1.7c0.5,0,3.1,0.6,3.6,0.9l0,0.3c0,0.3,0,0.8-0.5,0.8l-5,1.2c-0.2,1.5-0.4,3.6-0.8,5.1l0.6,14.2
		c0.8,1.2,0.9,4,1,5l9.9-0.4l0.5-0.5C377.5,528.3,378.8,528.8,379.3,528.8 M453,517.5c0.6,1,1.1,1.7,1.1,2.7c-1,0-1.1-1.5-1.1-2.2
		L453,517.5z M454.4,467.4c0.3,0,0.3,0.5,0,0.5C454.2,468,454.1,467.4,454.4,467.4 M454.7,521.9l0.5-1c0.5,0.2,0.5,0.5,0.5,1
		L454.7,521.9z M455.4,502.1c-0.3-0.2,2.3-0.4,2-0.1C457.2,502.3,455.7,502.4,455.4,502.1 M458.4,501.5l-1.1-2
		c2.3-0.3,4.3-0.7,6.6-0.8c0.1,1.5-0.7,1.8-1.9,2.1C460.9,501.1,458.4,501.5,458.4,501.5 M458.5,502.5c0-0.3,0.5-0.3,0.5,0
		C459,502.7,458.5,502.8,458.5,502.5 M460.5,514.1c0.2-0.5,0.7-0.5,1.2-0.6c0.5,0,1,0,1.3,0.5L460.5,514.1z M459.1,518.2l0.5-0.5
		c0-0.3,0.4-2,0.4-2.6l0.5,0.5c0.3,0.5,0.6,2.3,0.6,2.5c0,0.5-0.2,1-0.7,1C459.9,519.2,459.4,518.7,459.1,518.2 M460.2,496.1
		c0.3,0,0.3,0.5,0,0.5C460,496.6,460,496.1,460.2,496.1 M460.5,492.3c-0.2,0.5-0.5,0.5-1,0.5l0-0.5L460.5,492.3z M465.9,510.1
		c0.3,0,0.3,0.5,0,0.5C465.6,510.6,465.6,510.1,465.9,510.1 M449.5,495.3c0,0.3-0.5,0.3-0.5,0C449,495.1,449.5,495,449.5,495.3
		 M448.4,504.5c-0.2,0.3-0.7,0.3-1,0C447.1,504.3,448.6,504.2,448.4,504.5 M447.4,494.1c-0.3,0-0.3-0.5,0-0.5
		C447.7,493.6,447.7,494.1,447.4,494.1 M446.1,446.2l-0.3,0l-1.1-2.5l0.8,0c0.8,0,1.3-0.1,1.3,1
		C446.8,445.2,446.9,446.2,446.1,446.2 M444.7,488.9c0.3,1.5,1.1,2.5,1.2,4c0,0.5,0.3,1.3-0.4,1.5c-0.5,0-2.3,0.1-2.8,0.1
		c-2.2,0.1-3.4,0.1-5.7-0.3c-0.8-1.7-1.1-3-2.2-4.5l0-0.3c-0.1-1.3,2.2-2.4,2.4-3.9c0.4-3.3,0.3-5.6,0.1-8.9c0-0.5-0.1-2.8-0.1-3.3
		c-1.1-1.2-1.8-1.7-2.7-2.9l-0.5-0.5c0.5,0,2.3-0.6,2.5-0.6c0.3,0,1-0.6,1-0.6l-0.3-6.1l-2,0.1c0.5-0.3,2.9-2.9,2.9-3.2l0.7-8.1
		c0.3,1.8,2.1,10.3,2.4,12.1c0,0.5,0.7,4,0.7,4.5c0,0.3,1.1,2.2,1.1,2.5c0,0.3-0.5,1.3-0.4,1.5c0,0,0,0.8,0,1c0,0.3,0,1,0,1
		C442.9,476.8,444.3,487.1,444.7,488.9 M443.7,442.5c-0.8,0-1.5-0.2-1.6-1.2l1.5-0.1L443.7,442.5z M441.3,446.2
		c-0.3,0-0.3-0.5,0-0.5C441.5,445.7,441.6,446.2,441.3,446.2 M433.9,471.9c0.3,0,0.3,0.5,0,0.5C433.7,472.4,433.7,471.9,433.9,471.9
		 M433.6,465l-1,0c0.2-0.5,0.5-0.5,1-0.6L433.6,465z M433.3,492.9c0-0.3,0.5-0.3,0.5,0C433.8,493.2,433.3,493.2,433.3,492.9
		 M433.9,506.1l1,0l-1,0.6L433.9,506.1z M434.9,507.3c0-0.5,0.5-0.8,1-0.8c0.8,0,1.8,0.7,1.8,1.4c-1,0-2-0.2-2.8-0.4L434.9,507.3z
		 M437.8,509.7c-0.1-1.8,3.5-1.9,4.4-2c0.3,0,1,0,1.3-0.1C441.6,508.3,439.9,509.7,437.8,509.7 M431.3,470.2l-1.5,0.1
		c0-0.3,0.7-0.5,1-0.6C431,469.7,431.3,470,431.3,470.2 M429.4,520c-0.2,0.3-0.7,0.3-1,0C428.1,519.8,429.7,519.7,429.4,520
		 M428.2,502.8c-0.2,0.3-0.7,0.3-1,0C426.9,502.6,428.4,502.5,428.2,502.8 M428,499.3l-0.5,0l0.5-0.5L428,499.3z M427.6,478.7
		c-0.3,0-0.3-0.5,0-0.5C427.9,478.2,427.9,478.7,427.6,478.7 M426.2,470.2c-0.3,0-0.3-0.5,0-0.5
		C426.5,469.7,426.5,470.2,426.2,470.2 M425.2,493.6c-0.3,0-0.3-0.5,0-0.5C425.5,493,425.5,493.5,425.2,493.6 M424.7,445.6l-1,0
		c0.2-0.5,0.5-0.5,1-0.6L424.7,445.6z M420.4,487.9c-0.5,0.8-0.7,1-1.5,1.1c-0.5,0-1-0.2-1.1-1L420.4,487.9z M419.5,466.9
		c-0.3,0-0.3-0.5,0-0.5C419.7,466.4,419.8,466.9,419.5,466.9 M420,489.2c0.3,0,0.3,0.5,0,0.5C419.7,489.7,419.7,489.2,420,489.2
		 M415.9,525.2c0,0.3-0.5,0.3-0.5,0C415.4,524.9,415.9,524.9,415.9,525.2 M448,525.8c7.6-0.3,15.7-0.9,23-1.5l-0.3-7.1
		c0,0-0.3-0.5-0.5-0.5c-0.5-0.2-3.1-0.4-3.6-0.4c0-0.8-0.8-1.5-1.6-1.5c0.2-2,2.7-2.4,4-2.2l0-0.5c-0.1-2.5-0.3-6.6-1.4-9.1
		c-0.3-0.7-2.6-1.4-2.6-1.7c0-0.5,0.5-0.5,0.5-1l0-0.2c0,0-1-0.7-1.1-1c-0.3-1,1.5-1.6,2-1.6c0-0.3-0.1-1.3-0.1-1.5
		c-0.4-8.4-2.3-18.4-8.7-24.5l0.5,0c1,0,1.8,0.4,2.8,0.4c0-0.5-0.4-3.8-0.5-4.5c0-0.3-0.6-2.8-0.6-3c-0.7-3.8,0-12.7-6.1-12.4
		c0,0,0.4-2.3-0.6-2.5c2,0.4,2.9-3.2,2.8-4.7c-0.1-1.5-2.2-10-3.5-10.5c-1.8,0.1-9.4-0.1-11.2,0c-0.3,0-2.3-0.4-2.6-0.4
		c-1.1,0-1.3,1.8-1.3,2.6l-0.3,0l-0.3,0c-0.3-0.2-1.3-1.2-1.6-1.5c-4.5,0.4-8.4-0.1-12.7,0c-0.3,0-1.5-0.2-1.5,0.6l0.3,7.1l-0.5,0.5
		c-0.2,0.3-1.1,4.9-1.2,6.6c-0.2,0.8-0.1,2.8-0.1,2.8l1.8-0.1c0,0.3-0.5,1-0.5,1.3c-0.2,0.3-1.4,1.8-1.4,2.1
		c-1.1,3.9-1.2,24.7-2.4,26c0,5.1-0.9,9.2-0.9,14.2c0.1,1.5,0,4.8,0,4.8l3.8-0.2l0.6,1.2l-3.5,0.2c0,0.3-0.2,0.8-0.5,1l-1,0.6
		c-0.9,2.1-0.7,7.1-0.7,8.4c0.1,2.3,5.6,1,5.7,2.5l0,0.8c-0.8,0-6.1-1.3-6,1.8c0,0.8,6.2,3.5,7.3,3.5l-0.5,0.8l-7.1,0.3
		c-1,0-0.8,4.1-0.8,4.9l15.7-0.7c1.6,0.7,3.1,0.4,4.6,0.3c0.5,0,2.3-0.1,2.5-0.1c0.7-0.3,0.5-1.3,0.4-1.5c-0.1-1.5-1-0.7-1.1-1.7
		c0-0.5,0.5-1,1-1.3c-0.4-3.3-0.1-7.1,1.1-10.2c2-0.3,4.4-0.7,6.7-0.8c1,0,1.5-0.1,2.3,1.4c0,1,0.7,5.5,0.8,6.6
		c0,0.8,0.6,2.5,0.6,2.5l4.6-0.2C450.8,523.9,447.9,521.7,448,525.8 M465.4,499.2c0.3,0.2,0.8,0.2,1,0
		C466.7,498.9,465.1,498.9,465.4,499.2 M508.2,456.1l0.5,0l0-0.5L508.2,456.1z M510,498.8l-1,0l0.5,0.5L510,498.8z M510.9,482.9
		c0-0.3-0.5-0.2-0.5,0C510.4,483.1,510.9,483.1,510.9,482.9 M510.8,481.9c0.2-0.3,0.2-0.8,0-1C510.5,480.6,510.6,482.1,510.8,481.9
		 M527.8,498.5c0-0.3,0.5-0.3,0.5,0C528.3,498.7,527.8,498.8,527.8,498.5 M526.1,507.7c-0.3,0-0.3-0.5,0-0.5
		C526.4,507.2,526.4,507.7,526.1,507.7 M523.6,507c-0.3,0-0.3-0.5,0-0.5C523.8,506.5,523.8,507,523.6,507 M523,506.3l-0.5,0l0.5-0.5
		L523,506.3z M520.4,520.6c-0.8,0-1.8-0.7-2.3-1.4l3-0.1C521.1,519.6,521.1,520.6,520.4,520.6 M520.5,517.3c0.3,0,0.3,0.5,0,0.5
		C520.2,517.8,520.2,517.3,520.5,517.3 M520.6,509.5c-0.3,0-0.3-0.5,0-0.5C520.9,508.9,520.9,509.4,520.6,509.5 M519.9,503.4
		c0,0.3-0.5,0.3-0.5,0C519.4,503.2,519.9,503.2,519.9,503.4 M518.2,476.7c-0.3,0-0.3-0.5,0-0.5C518.4,476.2,518.5,476.7,518.2,476.7
		 M517.8,502.5c0,0.3-0.5,0.3-0.5,0C517.3,502.2,517.8,502.2,517.8,502.5 M516.2,476.6c-0.7,2.1-2,1.6-1.8,4.9
		c0,0.8,0.5,0.7,0.6,1.5c0,1-1.4,2.6-1.4,3.9c0-0.3-0.8-1-1.1-1c-2.3,0.1-3.4,2.9-3.3,4.8c0.1,1.3,0.1,2.8,1.7,3
		c-0.3,0-1.5,1.3-1.5,1.6c-0.7,2.1,2.6,1.7,2.7,3.2c0,1-0.9,2.1-1.9,1.9c0.1,1.8-2.4,8.7-4.2,8.8l-5.3,0.2l-0.3-6.3l-1.8,0.1
		c0.9-1.8,0.6-3.6,1.3-5.4l-0.5-12.3c-0.3-0.2-0.6-1.2-0.6-1.5c-0.1-1.5,1.9-2.1,3-2.2c2-0.1,4.1,0.3,6.1,0.2c0.8,0,1.5-0.1,1.5-0.8
		l0-0.3l-3.6-1.6l5.6-0.2l2.9-3.4c0,0,0.5,0,0.8,0C515.1,475.6,516.6,475.5,516.2,476.6 M514.6,462.7c-0.3,0-0.3-0.5,0-0.5
		C514.8,462.2,514.8,462.7,514.6,462.7 M514.5,472.6l-0.5,0c-0.5,0-1-0.2-1-0.7l0-0.3C513.4,471.9,514.2,472.1,514.5,472.6
		 M512.9,470.1c-0.3,0-0.3-0.5,0-0.5C513.1,469.6,513.1,470.1,512.9,470.1 M512.5,461.2c-0.3,0-0.3-0.5,0-0.5
		C512.7,460.7,512.7,461.2,512.5,461.2 M512.4,471.4c-0.3,0-0.3-0.5,0-0.5C512.6,470.9,512.7,471.4,512.4,471.4 M511.8,469.6l0,1
		l-0.5-0.5L511.8,469.6z M511.1,459c0-0.8,0.2-1.5,1.2-1.6c1,0,1.3,0.7,1.3,1.5L511.1,459z M510.2,468.2l0,0.5l-1,0
		C509.5,468.2,509.7,468.2,510.2,468.2 M506.3,470.4c0.3,0,0.3,0.5,0,0.5C506,470.9,506,470.4,506.3,470.4 M505.9,472.9
		c0.3,0.2,0.3,0.7,0,1C505.7,474.2,505.6,472.7,505.9,472.9 M499,478.3c0.3,0,0.3,0.5,0,0.5C498.8,478.8,498.8,478.3,499,478.3
		 M514.7,454c0,0.8-6.8,2.1-7.3,6.2c-0.6,4.3-0.2,7.6-6,7.9c-1.3,0.1-2.4-1.9-2.4-2.9c0-1-0.7-5.5-0.8-6.6c-0.3,0-0.5-0.7-0.6-1
		c0-0.3,0.2-0.5,0.5-0.5c0-0.3-0.1-2-0.1-2.5c0-0.8-0.1-2.5-0.1-2.5l-0.6-1c-0.1-2,0.5-5.6,3.6-5.7l0.3,0l4.7,2.3
		c0.6,1,3.3,4.9,3.8,5.9l0.5,0.5l0.5-1c0,0.3,0.3,0.5,0.5,0.5c0.3,0,1.7-0.6,2-0.6l0.5,0C514.4,452.8,514.7,453.3,514.7,454
		 M514.5,449.2c-0.3,0-0.3-0.5,0-0.5C514.7,448.7,514.7,449.2,514.5,449.2 M513,449c-0.3,0-0.3-0.5,0-0.5
		C513.2,448.5,513.2,449,513,449 M510,438.5c-0.3,0-0.3-0.5,0-0.5C510.2,438,510.2,438.5,510,438.5 M508.4,438.3
		c0,0.3-0.5,0.3-0.5,0C507.9,438.1,508.4,438.1,508.4,438.3 M507.4,437.9l-0.5-0.5l0.5,0L507.4,437.9z M505.7,445
		c0,0.3-0.5,0.3-0.5,0C505.2,444.8,505.7,444.8,505.7,445 M497.6,444.9c0.3,0,0.3,0.5,0,0.5C497.3,445.4,497.3,444.9,497.6,444.9
		 M498,442.3c-1-0.2-1.2,0.6-2.3,0.6c-0.8,0-1.3,0.1-1.8-0.4c-0.3-1,0.5-1,1.2-1.1C495.9,441.4,497.4,441.3,498,442.3 M493.5,469.4
		l1,0l-1,1.1L493.5,469.4z M493.9,502c0.3,0,0.3,0.5,0,0.5C493.7,502.5,493.7,502,493.9,502 M496.2,459.7c0-0.3,0.5-0.3,0.5,0
		C496.7,459.9,496.2,459.9,496.2,459.7 M495.2,484.1c0.3,0,1.2-0.6,1.5-0.6l0.3,0c0.5,0,0.8,0.2,0.8,0.7c0,0.5-0.2,0.8-0.7,0.8
		C496.3,485,495.5,484.6,495.2,484.1 M496.1,503.9c0.3,0,0.3,0.5,0,0.5C495.8,504.4,495.8,503.9,496.1,503.9 M506.1,513.9
		c0.3,0,0.3,0.5,0,0.5C505.9,514.4,505.9,513.9,506.1,513.9 M511.9,494.9c-0.3,0-0.3-0.5,0-0.5C512.1,494.4,512.1,494.9,511.9,494.9
		 M511.7,491.1c0-0.3,0.5-0.3,0.5,0C512.2,491.3,511.7,491.3,511.7,491.1 M513.7,488.8c-0.3,0-0.3-0.5,0-0.5
		C513.9,488.3,513.9,488.8,513.7,488.8 M515.3,480.9c-0.3,0-0.3-0.5,0-0.5C515.6,480.4,515.6,480.9,515.3,480.9 M512.6,500.2
		c1,0,2.6,0.4,3.1,1.4l-0.5,0c-0.8,0-2.5-0.1-2.6-0.4L512.6,500.2z M517.6,449.9c0.3,0,0.3,0.5,0,0.5
		C517.3,450.4,517.3,449.9,517.6,449.9 M519.4,445.2c0-1,0.4-2.3,1.4-2.3C520.8,443.9,520.7,445.2,519.4,445.2 M521.6,462.4
		c0.3,0,0.3,0.5,0,0.5C521.4,462.9,521.4,462.4,521.6,462.4 M522.4,468.9c0.3,0,0.3,0.5,0,0.5C522.2,469.4,522.2,468.9,522.4,468.9
		 M525,446.5c0.3,0,0.3,0.5,0,0.5C524.8,447,524.8,446.5,525,446.5 M525.6,448.2c0.3,0,0.3,0.5,0,0.5
		C525.4,448.8,525.3,448.3,525.6,448.2 M491.7,485.7c-0.3,0-0.3-0.5,0-0.5C491.9,485.2,492,485.7,491.7,485.7 M491.3,500.1
		c0.3,0,0.3,0.5,0,0.5C491.1,500.6,491.1,500.1,491.3,500.1 M491.2,497.5c0,0.3-0.5,0.3-0.5,0C490.7,497.3,491.2,497.3,491.2,497.5
		 M490.8,464.5c-0.2,0.3-1.3,0.3-1.5,0.1C489,464.3,491,464.2,490.8,464.5 M489.2,498.6l-0.5,0l0-0.5l0.5,0L489.2,498.6z
		 M488.5,446.3c-0.3,0-0.3-0.5,0-0.5C488.7,445.8,488.7,446.3,488.5,446.3 M487.8,464.8c-0.3,0-0.3-0.5,0-0.5
		C488,464.3,488,464.8,487.8,464.8 M487.8,442.8c0,0.3-0.5,0.3-0.5,0C487.3,442.5,487.8,442.5,487.8,442.8 M486.8,453.2
		c-0.3,0-0.3-0.5,0-0.5C487,452.7,487,453.2,486.8,453.2 M486.6,507.9c0.3,0,0.3,0.5,0,0.5C486.4,508.4,486.3,507.9,486.6,507.9
		 M485.7,488.3c-0.3,0-0.3-0.5,0-0.5C486,487.8,486,488.3,485.7,488.3 M485.2,475.6c-0.3,0-0.3-0.5,0-0.5
		C485.4,475.1,485.4,475.6,485.2,475.6 M485,506.4c0,0.3-0.5,0.3-0.5,0C484.5,506.2,485,506.2,485,506.4 M484.1,462.2
		c0,0.3-0.5,0.3-0.5,0C483.6,462,484.1,462,484.1,462.2 M483.1,461.5c-0.3,0-0.3-0.5,0-0.5C483.3,461,483.3,461.5,483.1,461.5
		 M482.8,502.5l-0.5,0l0.5-0.5L482.8,502.5z M481.9,470.4c-0.3,0-0.3-0.5,0-0.5C482.2,469.9,482.2,470.4,481.9,470.4 M482.4,504
		c0-0.3,0.5-0.3,0.5,0C482.9,504.2,482.4,504.3,482.4,504 M483,518.2c0.3,0,0.3,0.5,0,0.5C482.7,518.7,482.7,518.2,483,518.2
		 M483,470.9l0-1l1,0L483,470.9z M483.7,487.3c0.3,0,0.3,0.5,0,0.5C483.4,487.9,483.4,487.4,483.7,487.3 M480.2,454.3
		c-0.3,0-0.3-0.5,0-0.5C480.4,453.8,480.5,454.3,480.2,454.3 M479.2,454.8c-0.3,0-0.3-0.5,0-0.5
		C479.4,454.3,479.5,454.8,479.2,454.8 M531.2,496.1c-0.1-1.3-0.3-6.6-0.3-8c-1.2-5.3-2.7-8.8-7.1-12.4c-2.4-1.9-6.8,0-8.3-3.2
		c5.5-1.5,9.6-1.7,11.3-7.6c-0.3,0-0.5-0.7-0.6-1c0-0.3,1.2-1.3,1.5-1.6c1.2-1.6,0.9-3.6,0.8-5.4c-0.1-3-1.3-6.3-1.9-9.3
		c-0.4-2.5-2.7-3.9-2.7-4.4c0-1,1-0.5,0.9-1.8c-0.1-2.8-6.7-8.6-10-8.4l-14.7,0.6l-1,0.5l-6.6,0.3l-1.6-0.9c0,0-6.9-0.2-9.6-0.1
		c-0.8,0-4.8,0.2-5.6,0.2l2.7,61.4c0.3,2,0.6,3.3,0.7,5c0.1,1.5-0.9,2.8-0.8,4.3c0,0.8,1,0.2,1.1,1.2c0,1-0.4,2-0.9,3.1
		c-0.2,1.8,0,10.7,0,12.7c0,0.5,0.4,3,0.7,3.5c0,0.3,0.5,0.5,0.5,0.5l31.9-1.4c3.8-0.2,7.5-1.6,11-3
		C532.9,516.8,531.6,505.4,531.2,496.1 M572.7,518.7c-0.3,0-0.3-0.5,0-0.5C572.9,518.2,572.9,518.7,572.7,518.7 M571.6,517.8
		c-0.3,0-0.3-0.5,0-0.5C571.8,517.3,571.9,517.8,571.6,517.8 M570.5,516.3c-0.3,0-0.3-0.5,0-0.5
		C570.8,515.8,570.8,516.3,570.5,516.3 M569.9,514.6l-0.5,0c-0.5,0-1,0-1.5-0.4l0.8,0C569.2,514.1,569.7,514.1,569.9,514.6
		 M568.6,506.8c-0.3,0-0.3-0.5,0-0.5C568.8,506.2,568.8,506.7,568.6,506.8 M568.3,512.3c0.3,0,0.3,0.5,0,0.5
		C568.1,512.9,568.1,512.4,568.3,512.3 M568.1,511.8c-1.3,0.1-3.3,0.4-3.3-1.1c0-0.5,0-1,0.4-1.5C566.4,509.4,568,510.6,568.1,511.8
		 M567,506.1c0,0.3-0.5,0.3-0.5,0C566.5,505.8,567,505.8,567,506.1 M566.6,508.1c-0.2,0.3-1.3,0.3-1.5,0.1
		C564.8,507.9,566.9,507.8,566.6,508.1 M563.2,511.3c-0.3,0-0.3-0.5,0-0.5C563.4,510.8,563.5,511.3,563.2,511.3 M563,506
		c-0.3,0-0.3-0.5,0-0.5C563.2,505.5,563.2,506,563,506 M562,519.2c-0.3,0-0.3-0.5,0-0.5C562.3,518.7,562.3,519.2,562,519.2
		 M562.1,509.3l-2.4,2.6l-0.1-2.5L562.1,509.3z M561.9,504.2c-0.3,0-0.3-0.5,0-0.5C562.1,503.7,562.1,504.2,561.9,504.2
		 M559.1,521.4c-0.3,0-0.3-0.5,0-0.5C559.3,520.8,559.3,521.4,559.1,521.4 M559.2,501.3c-0.2,0.3-0.8,0.3-1,0
		C557.9,501.1,559.5,501.1,559.2,501.3 M557.6,509.8c-0.3,0-0.3-0.5,0-0.5C557.8,509.2,557.8,509.8,557.6,509.8 M557.2,512.3
		c0.3,0,0.3,0.5,0,0.5C556.9,512.8,556.9,512.3,557.2,512.3 M558.4,506.2c0.3,0,0.3,0.5,0,0.5C558.2,506.7,558.2,506.2,558.4,506.2
		 M555.8,491.8c-0.5,0-0.5-0.7-0.6-1l2-0.1C557,491.3,556.3,491.8,555.8,491.8 M555.5,480.8l-0.3,0l-1.1-2c0.7-0.8,1.5-0.6,2.3-0.6
		c0.3,0,1.5-0.3,1.8,0.4C557,479,556.6,480.8,555.5,480.8 M558.4,482c0.3,0,0.3,0.5,0,0.5C558.2,482.5,558.1,482,558.4,482
		 M558.8,474.6c-0.5,0-0.8-0.2-1.3-0.5l2-0.1C559.3,474.6,559.1,474.6,558.8,474.6 M559.2,478.1l0.5,0l0,0.5L559.2,478.1z
		 M559.6,475.8c-0.3,0-0.3-0.5,0-0.5C559.9,475.3,559.9,475.8,559.6,475.8 M558,450c-0.3,0-0.3-0.5,0-0.5
		C558.2,449.5,558.3,450,558,450 M557.4,448.3c0,0.3-0.5,0.3-0.5,0C556.9,448,557.4,448,557.4,448.3 M556.4,447.5
		c-0.3,0-0.3-0.5,0-0.5C556.6,447,556.6,447.5,556.4,447.5 M553.9,496.5c-0.3,0-0.3-0.5,0-0.5C554.2,496,554.2,496.5,553.9,496.5
		 M553.6,487.9c0,0.5-0.7,0.5-1,0.5l-0.1-1.5l0.3,0C553.3,486.9,553.6,487.4,553.6,487.9 M553.2,433.5c-0.3,0-0.3-0.5,0-0.5
		C553.5,433,553.5,433.5,553.2,433.5 M552.4,508.7l-1.5,0.1l1.5-1.1L552.4,508.7z M552.2,479.2c-0.3,0-0.3-0.5,0-0.5
		C552.4,478.7,552.4,479.2,552.2,479.2 M551.2,504.2c0,0-0.2,0.5-0.5,0.5c-0.3,0-1.8,0.3-2,0.3l0-0.8L551.2,504.2z M551.2,479.5
		l-1,1.1l0-1L551.2,479.5z M550,441.2c-0.3,0-0.3-0.5,0-0.5C550.3,440.7,550.3,441.2,550,441.2 M549.8,470.2c0.2,0,0.3,0.5,0,0.5
		C549.5,470.7,549.5,470.2,549.8,470.2 M549.5,482.1c0.5,0,0.8,0.2,0.8,0.7l0,0.3l-1.1-1L549.5,482.1z M548.2,480.6l-2.1-0.9
		l2.5-0.1C548.7,479.8,548.7,480.9,548.2,480.6 M548.1,478.1c-0.2,0.3-0.7,0.3-1,0C546.8,477.9,548.3,477.8,548.1,478.1
		 M547.8,460.6c-0.3,0-0.3-0.5,0-0.5C548.1,460.1,548.1,460.6,547.8,460.6 M545.4,475.9c0.1,1.3-0.4,2.8-1.4,3.4l0-0.3
		c0-1,0.8-4.3,0.8-4.9C545.4,474.7,545.4,475.2,545.4,475.9 M543.9,487.8c0.5,0.2,0.5,0.5,0.5,0.7l0,0.3c-0.5-0.2-0.5-0.5-0.5-0.7
		L543.9,487.8z M544.7,516.7c0-0.3,0.2-1.3,0.4-1.5l0.1,2C544.9,517.2,544.7,516.9,544.7,516.7 M550.2,514.9c0-0.3,0.5-0.3,0.5,0
		C550.7,515.1,550.2,515.2,550.2,514.9 M551.8,517.6c0.2,0,0.3,0.5,0,0.5C551.6,518.1,551.6,517.6,551.8,517.6 M553.9,507.6
		c0.5,0.2,0.5,0.5,0.5,0.7l0,0.3c-0.5-0.2-0.5-0.5-0.5-0.7L553.9,507.6z M554.1,512.4c0.3,0,0.3,0.5,0,0.5
		C553.9,513,553.9,512.5,554.1,512.4 M554.6,489.3c-0.3,0-0.3-0.5,0-0.5C554.9,488.8,554.9,489.3,554.6,489.3 M554.9,483.6
		c0.3,0,0.3,0.5,0,0.5C554.7,484.1,554.7,483.6,554.9,483.6 M554.6,500.5l0.5,0c0.5,0,0.8,0,1,0.5l-0.3,0
		C555.4,501,555.1,500.7,554.6,500.5 M556,508.1c0-0.3,0.5-0.3,0.5,0C556.5,508.3,556,508.3,556,508.1 M560.6,485.8
		c0.3,0,0.3,0.5,0,0.5C560.3,486.3,560.3,485.8,560.6,485.8 M560.7,487.8c0.3,0,0.3,0.5,0,0.5C560.4,488.3,560.4,487.8,560.7,487.8
		 M543.7,517c-0.3,0-0.3-0.5,0-0.5C543.9,516.4,543.9,516.9,543.7,517 M539.5,466.5c-0.3,0-0.3-0.5,0-0.5
		C539.7,466,539.7,466.5,539.5,466.5 M575.5,520.4c0.5,0,1,0,1.2-0.6c0-0.3-0.1-2-0.1-2.3c-0.2-3.8-1-6.3-1-10.4
		c-0.5-0.2-1-0.7-1.1-1.2c-0.1-1.3,1.2-1.3,1.1-2.8l-6.3,0.3l-0.9,1.6c-1.1-1.7-3.1-0.4-4.6-0.8c-0.8-0.2-1.9-2.2-2.1-2.4
		c-0.8-1-3.2-2.9-3.2-2.9l-2,0.1c0.7-0.8,1.8-4.6,3.1-4.7l0.3,0c-0.2,0.3-1,1.3-0.9,1.6l0,0.3c0,0.3,0,0.5,0.5,0.7l-0.5,0.5l2.6,2.4
		l-0.3-6.6c0-0.8-1.5-0.4-1.6-1.2l0-0.3c0.2-0.3,1.2-1.3,1.4-1.6c0-0.5-0.1-2.3-0.1-2.5c0-0.5-0.1-2.2-0.1-2.4
		c-0.9-14.7-2.6-49.1-2.6-49.1l-0.6-2.5l-0.3,0c0-0.5-1.1-2.2,0.7-2.1l-1.5-0.4l-20.3,0.9l1.1,25.3c0.6,2.5,0,5.3,2.3,7
		c-0.8,0-1.5,0.8-1.4,1.6c0,0.5,0.1,3.3,0.2,3.8c0.1,2.3-0.1,4.6,0.8,6.8c0.9,2.2,3.7,2.9,3.8,4.9l0,0.5c-1-0.5-2.9-1.4-3.7-2.4
		c0.1,2,0.5,11.3,0.6,13.3c0.2,3.5,0.6,12.9,0.6,13.4c0,1,0.9,10.1,1,11.1c0.1,1.3-0.1,4.6,2.2,4.5c2.8-0.1,4.7-1.7,7.3-1.8
		c3.3-0.1,5.9,1.8,9.2,1.6c4.6-0.2,9.3-1.4,13.6-1.6C574.7,519.9,574.8,520.4,575.5,520.4 M598.7,444.3c0.3,0,0.3,0.5,0,0.5
		C598.5,444.8,598.5,444.3,598.7,444.3 M603,483.8c0.3,0,0.3,0.5,0,0.5C602.8,484.3,602.7,483.8,603,483.8 M603.7,479
		c0-0.3,0.5-0.3,0.5,0C604.2,479.2,603.7,479.2,603.7,479 M603.7,480l0.5,0.5l-0.5,0L603.7,480z M616.9,514.4l0.3,0
		c0.3,0,0.5,0,0.8,0.5l-1,0L616.9,514.4z M617.5,471.1c0-0.3,0.5-0.3,0.5,0C618,471.4,617.5,471.4,617.5,471.1 M609.2,431.7
		c0-0.3,0.2-0.5,0.5-0.8c0.5,0,3.6,0.4,4.5-0.7l0,0.5c0.1,1.8-1.2,2.1-2.7,2.1c-0.3,0-1,0-1.3,0.1l0.5-0.5c-0.3,0-1.3-0.2-1.5-0.4
		L609.2,431.7z M614.4,433.2c0.3,0,0.3,0.5,0,0.5C614.1,433.8,614.1,433.3,614.4,433.2 M594,511.1c-0.3,0-0.3-0.5,0-0.5
		C594.2,510.6,594.3,511.1,594,511.1 M593.2,514.9l-0.5,0c0-0.5,0-0.8,0.5-1L593.2,514.9z M591.1,431.7c0,1-1.4,1.8-1.9,2.1
		c0.2-0.4,0.2-1.8-0.7-2L591.1,431.7z M587.7,435.9l1-1.1l0,1L587.7,435.9z M585.7,482.5c-0.3,0-0.3-0.5,0-0.5
		C585.9,482,585.9,482.5,585.7,482.5 M597.9,519.3l27.7-1.2l-0.8-17.7l-18-0.2l-0.7-16.7c-0.3-0.2-1.1-1.7-1.4-2l0-0.3
		c0-0.5,4.1-4,4.9-4c0.5,0,0.5,0.5,0.5,0.7c0,0.5-0.5,1-1,1.3l12.2-0.5c-0.1-1.8-1.2-3.5-2.7-4.4l0.5-0.5c0.3,0.5,0.8,0.5,1.3,0.5
		l0.8,0c0.1-2.7,0.7-7.5,0.5-11.1c0-0.3,0.2-2-0.6-2l-13.7,0.6l-1-0.7c0,0-0.6-3.3-0.7-4.5c0,0,0-0.5,0-0.8
		c-0.1-3.3,0.4-7.4,0.6-10.4c4.5-1.7,10.8-1.7,15.1-1.7c0.7-0.3,0.5-0.8,0.5-1.3c-0.1-1.8-1.7-3.2-1.7-4.5l0-0.3
		c0-0.3,0.5-1.3,0.4-1.5c0-0.3-0.3-0.5-0.5-0.5c0,0,1.5-0.6,1.5-1.1l-0.4-8.1l-31.8,1.4c-0.5,0.3-2.5,0.9-3,1.1
		c-0.3,0-4.5,1.2-4.5,1.7l0.5,12.2l1,0c0.9-2.1,2.1-4.4,4.1-4.5l0.3,0.2c0,0-0.7,0.5-1,0.6c0.3,0,1,0.7,1.1,1c0,0.3-0.2,1-0.5,1
		c1.8,0.4,3.8,0.6,5.6,0.8c-0.8,0-4.8,1-5.5,1.3c-2.5,0.9-3.4,4-4.8,5.8c-0.1,4.1,0.3,23.6,0.2,28l0,0.8c0.1,1.8,1.2,3.5,1.2,5.3
		c0,0.3-0.2,0.5-0.5,0.5c-0.1,2.5-0.2,6.1-0.1,9.1c0,0.3,0,0.8,0,1c0.2-0.5,2.5-1.6,3-1.6c0.5,0,3.1,0.6,3.6,0.9l0,0.3
		c0,0.2,0,0.8-0.5,0.8l-5,1.2c-0.2,1.5-0.4,3.6-0.8,5.1l0.6,14.2c0.8,1.2,0.9,4,1,5l9.9-0.4l0.5-0.5
		C596.1,518.9,597.4,519.3,597.9,519.3 M685.5,434.1c-0.3-0.2,0.2-0.8,0.5-0.5C686.3,433.8,685.8,434.3,685.5,434.1 M675.6,463.2
		c0,0.5-0.5,0.8-1,0.8l-0.5,0c0.2-0.5,1-0.8,1.5-1.1L675.6,463.2z M674,507.1c0-0.3,0.5-0.3,0.5,0C674.5,507.4,674,507.4,674,507.1
		 M668.5,486.6l-0.5,0l0-0.5l0.5,0L668.5,486.6z M676.6,462.4c0.5,0.2,0.5,0.5,0.5,0.7l0,0.2c-0.5-0.2-0.5-0.5-0.5-0.7L676.6,462.4z
		 M680.7,462.7c0-0.3,0.5-0.3,0.5,0C681.2,462.9,680.7,463,680.7,462.7 M691.4,440.4c0-5.3,0.8-10.4,0.6-15.5
		c-0.3,0-1.5-0.2-1.8-0.2l-1-0.5c-0.3,0-1.2,0.6-1.5,0.6l-0.8,0c-0.8,0-1.5,0.1-1.3-1c-1.5,1.3-4.3,1.2-6,1.3
		c-1.8,0.1-3,0.1-4.6-0.8l-19.2,0.8l0.2,3.5c0.5,0.2,0.5,0.2,0.5,0.7c0.3,7.9,0.2,15.7,0.5,23.8c0.1,2.3,0.6,13.2,0.7,15.4
		c0.3,0.2,0.6,1.2,0.6,1.5c0,0.5-0.2,2.3-0.4,2.6c0.1,2.8,0.2,16.5,0.3,19.3c0,0.5,0.3,6.3,0.4,8.4c0.1,1.3,0.3,7.1,0.4,8.4
		c0.8,1.2,2.7,2.7,2.7,3.9c0,1-0.9,1.6-0.9,2.8c2.8-0.1,4.2-3.5,6.7-3.6c1.3-0.1,2.7,2.7,2.9,3.4l9.6-0.4l-0.7-15.2
		c-0.3-0.2-1.6-1.5-1.6-2c-0.3-1,1.2-2.3,1.4-3.1c-0.2-4.6-0.3-12.4,0.2-17.8c3.8-0.7,7.8-1.1,11.6-1.3l-0.6-14.4
		c0-0.5-0.6-1.7-1.1-2c-4,0.4-8.9-0.1-12.7-0.5l0-0.3c-0.1-1.3,0.6-3.1,1.3-4.4c-0.1-1.3-0.3-6.6-0.3-7.6c0-1,0.3-4.1,0.3-4.1
		l0.5-0.5L691.4,440.4z M717,439.2c0.3,0,0.3,0.5,0,0.5C716.7,439.7,716.7,439.2,717,439.2 M721.2,478.7c0.3,0,0.3,0.5,0,0.5
		C721,479.2,721,478.7,721.2,478.7 M721.9,473.9c0-0.3,0.5-0.3,0.5,0C722.4,474.1,721.9,474.1,721.9,473.9 M721.9,474.9l0.5,0.5
		l-0.5,0L721.9,474.9z M735.1,509.3l0.3,0c0.3,0,0.5,0,0.8,0.5l-1,0L735.1,509.3z M735.8,466c0-0.3,0.5-0.3,0.5,0
		C736.3,466.3,735.8,466.3,735.8,466 M727.5,426.6c0-0.3,0.2-0.5,0.5-0.8c0.5,0,3.6,0.4,4.5-0.7l0,0.5c0.1,1.8-1.2,2.1-2.7,2.1
		c-0.3,0-1,0-1.3,0.1l0.5-0.5c-0.3,0-1.3-0.2-1.5-0.4L727.5,426.6z M732.6,428.1c0.3,0,0.3,0.5,0,0.5
		C732.4,428.6,732.3,428.1,732.6,428.1 M712.2,506c-0.3,0-0.3-0.5,0-0.5C712.5,505.5,712.5,506,712.2,506 M711.4,509.8l-0.5,0
		c0-0.5,0-0.8,0.5-1L711.4,509.8z M709.3,426.6c0,1-1.4,1.8-1.9,2.1c0.2-0.5,0.2-1.8-0.7-2L709.3,426.6z M705.9,430.8l1-1.1l0,1
		L705.9,430.8z M703.9,477.4c-0.3,0-0.3-0.5,0-0.5C704.1,476.9,704.2,477.4,703.9,477.4 M716.2,514.2l27.7-1.2l-0.8-17.7l-18-0.2
		l-0.7-16.7c-0.3-0.2-1.1-1.7-1.4-2l0-0.3c0-0.5,4.1-4,4.9-4c0.5,0,0.5,0.5,0.5,0.7c0,0.5-0.5,1-1,1.3l12.2-0.5
		c-0.1-1.8-1.2-3.5-2.7-4.4l0.5-0.5c0.3,0.5,0.8,0.5,1.3,0.5l0.8,0c0.1-2.7,0.7-7.5,0.5-11.1c0-0.3,0.2-2-0.6-2l-13.7,0.6l-1-0.7
		c0,0-0.7-3.3-0.7-4.5c0,0,0-0.5,0-0.8c-0.1-3.3,0.4-7.4,0.6-10.4c4.5-1.7,10.8-1.7,15.1-1.7c0.7-0.3,0.5-0.8,0.5-1.3
		c-0.1-1.8-1.7-3.2-1.7-4.5l0-0.3c0-0.3,0.5-1.3,0.4-1.5c0-0.3-0.3-0.5-0.5-0.5c0,0,1.5-0.6,1.5-1.1l-0.3-8.1l-31.8,1.4
		c-0.5,0.3-2.5,0.9-3,1.1c-0.3,0-4.5,1.2-4.5,1.7l0.5,12.2l1,0c0.9-2.1,2.1-4.4,4.1-4.5l0.3,0.2c0,0-0.7,0.5-1,0.6
		c0.2,0,1,0.7,1.1,1c0,0.3-0.2,1-0.5,1c1.8,0.4,3.8,0.6,5.6,0.8c-0.8,0-4.8,1-5.5,1.3c-2.5,0.9-3.4,4-4.8,5.8
		c-0.1,4.1,0.3,23.6,0.2,28l0,0.8c0.1,1.8,1.2,3.5,1.2,5.3c0,0.3-0.2,0.5-0.5,0.5c-0.1,2.5-0.2,6.1-0.1,9.1c0,0.3,0,0.8,0,1
		c0.2-0.5,2.5-1.6,3-1.7c0.5,0,3.1,0.6,3.6,0.9l0,0.3c0,0.3,0,0.8-0.5,0.8l-5,1.2c-0.2,1.5-0.4,3.6-0.8,5.1l0.6,14.2
		c0.8,1.2,0.9,4,1,5l9.9-0.4l0.5-0.5C714.4,513.8,715.6,514.2,716.2,514.2 M802.7,496c-0.3,0-0.3-0.5,0-0.5
		C803,495.5,803,496,802.7,496 M800.7,484.1c0.1,1.5-0.7,1.8-1.9,2.1c-1,0.3-3.5,0.7-3.5,0.7l-1.1-2
		C796.4,484.6,798.4,484.2,800.7,484.1 M797,481.5c0.2,0,0.3,0.5,0,0.5C796.8,482,796.8,481.5,797,481.5 M797.4,477.7
		c-0.2,0.5-0.5,0.5-1,0.5l0-0.5L797.4,477.7z M794.3,487.5c-0.2,0.3-1.8,0.3-2,0.1C792,487.3,794.5,487.2,794.3,487.5 M792,506.3
		c0.5,0.2,0.5,0.5,0.6,1l-1,0L792,506.3z M791.3,453.4c-0.3,0-0.3-0.5,0-0.5C791.5,452.8,791.5,453.3,791.3,453.4 M791,505.6
		c-1,0-1.1-1.5-1.1-2.2l0-0.5C790.4,503.9,790.9,504.6,791,505.6 M795.3,487.9c0-0.3,0.5-0.3,0.5,0
		C795.8,488.2,795.3,488.2,795.3,487.9 M797.3,499.5c0.2-0.5,0.7-0.5,1.2-0.6c0.5,0,1,0,1.3,0.5L797.3,499.5z M796,503.6l0.5-0.5
		c0-0.3,0.4-2,0.4-2.6l0.5,0.5c0.3,0.5,0.6,2.3,0.6,2.5c0,0.5-0.2,1-0.7,1C796.8,504.6,796.2,504.1,796,503.6 M786.4,480.7
		c0,0.3-0.5,0.3-0.5,0C785.8,480.5,786.3,480.5,786.4,480.7 M785.2,489.9c-0.2,0.3-0.7,0.3-1,0C784,489.7,785.5,489.6,785.2,489.9
		 M784.3,479.5c-0.3,0-0.3-0.5,0-0.5C784.5,479,784.5,479.5,784.3,479.5 M783,431.6l-0.3,0l-1.1-2.5l0.8,0c0.8,0,1.3-0.1,1.3,1
		C783.7,430.6,783.7,431.6,783,431.6 M781.5,474.3c0.3,1.5,1.1,2.5,1.2,4c0,0.5,0.3,1.3-0.4,1.5c-0.5,0-2.3,0.1-2.8,0.1
		c-2.2,0.1-3.4,0.1-5.7-0.3c-0.8-1.7-1.1-3-2.2-4.5l0-0.3c-0.1-1.3,2.2-2.4,2.4-3.9c0.4-3.3,0.3-5.6,0.1-8.9c0-0.5-0.1-2.8-0.1-3.3
		c-1.1-1.2-1.9-1.7-2.7-2.9l-0.5-0.5c0.5,0,2.3-0.6,2.5-0.6c0.3,0,1-0.6,1-0.6l-0.3-6.1l-2,0.1c0.5-0.3,2.9-2.9,2.9-3.2l0.7-8.1
		c0.3,1.8,2.1,10.3,2.4,12.1c0,0.5,0.7,4,0.7,4.5c0,0.3,1.1,2.2,1.1,2.5c0,0.3-0.4,1.3-0.4,1.5c0,0,0,0.8,0,1c0,0.3,0,1,0,1
		C779.7,462.2,781.2,472.6,781.5,474.3 M780.5,427.9c-0.8,0-1.5-0.2-1.6-1.2l1.5-0.1L780.5,427.9z M778.1,431.6
		c-0.3,0-0.3-0.5,0-0.5C778.4,431.1,778.4,431.6,778.1,431.6 M770.8,457.3c0.3,0,0.3,0.5,0,0.5C770.5,457.8,770.5,457.3,770.8,457.3
		 M770.5,450.4l-1,0c0.2-0.5,0.5-0.5,1-0.6L770.5,450.4z M770.2,478.4c0-0.3,0.5-0.3,0.5,0C770.7,478.6,770.2,478.6,770.2,478.4
		 M770.7,491.5l1,0l-1,0.5L770.7,491.5z M771.8,492.8c0-0.5,0.5-0.8,1-0.8c0.8,0,1.8,0.7,1.8,1.4c-1,0-2-0.2-2.8-0.4L771.8,492.8z
		 M774.7,495.2c-0.1-1.8,3.5-1.9,4.4-2c0.3,0,1,0,1.3-0.1C778.4,493.7,776.7,495.1,774.7,495.2 M768.1,455.6l-1.5,0.1
		c0-0.3,0.7-0.5,1-0.6C767.9,455.1,768.1,455.4,768.1,455.6 M766.2,505.4c-0.2,0.3-0.7,0.3-1,0C765,505.2,766.5,505.2,766.2,505.4
		 M765,488.2c-0.2,0.3-0.7,0.3-1,0C763.7,488,765.2,488,765,488.2 M764.8,484.7l-0.5,0l0.5-0.5L764.8,484.7z M764.5,464.2
		c-0.3,0-0.3-0.5,0-0.5C764.7,463.6,764.7,464.1,764.5,464.2 M763.1,455.6c-0.3,0-0.3-0.5,0-0.5
		C763.3,455.1,763.3,455.6,763.1,455.6 M762.1,479c-0.3,0-0.3-0.5,0-0.5C762.3,478.5,762.3,479,762.1,479 M761.5,431.1l-1,0
		c0.2-0.5,0.5-0.5,1-0.5L761.5,431.1z M757.2,473.3c-0.5,0.8-0.7,1-1.5,1.1c-0.5,0-1-0.2-1.1-1L757.2,473.3z M756.3,452.3
		c-0.3,0-0.3-0.5,0-0.5C756.6,451.8,756.6,452.3,756.3,452.3 M756.8,474.6c0.3,0,0.3,0.5,0,0.5C756.6,475.1,756.5,474.6,756.8,474.6
		 M752.8,510.6c0,0.3-0.5,0.3-0.5,0C752.3,510.3,752.8,510.3,752.8,510.6 M805.9,498.1l0-0.5c-0.1-2.5-0.3-6.6-1.4-9.1
		c-0.3-0.7-2.6-1.4-2.6-1.7c0-0.5,0.5-0.5,0.5-1l0-0.3c0,0-1-0.7-1.1-1c-0.3-1,1.5-1.6,2-1.6c0-0.3-0.1-1.3-0.1-1.5
		c-0.4-8.4-2.3-18.4-8.7-24.5l0.5,0c1,0,1.8,0.4,2.8,0.4c0-0.5-0.4-3.8-0.4-4.5c0-0.3-0.6-2.8-0.6-3c-0.7-3.8,0-12.7-6.1-12.4
		c0,0,0.4-2.3-0.6-2.5c2,0.4,2.9-3.2,2.8-4.7c-0.1-1.5-2.2-10-3.5-10.5c-1.8,0.1-9.4-0.1-11.2,0c-0.3,0-2.3-0.4-2.6-0.4
		c-1.1,0-1.3,1.8-1.3,2.6l-0.3,0l-0.3,0c-0.3-0.2-1.3-1.2-1.6-1.5c-4.5,0.5-8.4-0.1-12.7,0c-0.3,0-1.5-0.2-1.5,0.6l0.3,7.1l-0.5,0.5
		c-0.2,0.3-1.1,4.9-1.2,6.6c-0.2,0.8-0.1,2.8-0.1,2.8l1.8-0.1c0,0.3-0.5,1-0.5,1.3c-0.2,0.3-1.4,1.8-1.4,2.1
		c-1.1,3.9-1.2,24.7-2.4,26c0,5.1-0.9,9.2-0.9,14.2c0.1,1.5,0,4.8,0,4.8l3.8-0.2l0.6,1.2l-3.5,0.2c0,0.3-0.2,0.8-0.5,1l-1,0.6
		c-0.9,2.1-0.7,7.1-0.6,8.4c0.1,2.3,5.6,1,5.7,2.5l0,0.8c-0.8,0-6.1-1.3-6,1.8c0,0.8,6.2,3.5,7.2,3.5l-0.5,0.8l-7.1,0.3
		c-1,0-0.8,4.1-0.8,4.9l15.7-0.7c1.5,0.7,3.1,0.4,4.6,0.3c0.5,0,2.3-0.1,2.5-0.1c0.7-0.3,0.5-1.3,0.4-1.5c-0.1-1.5-1-0.7-1.1-1.7
		c0-0.5,0.5-1,1-1.3c-0.4-3.3-0.1-7.1,1.1-10.2c2-0.3,4.4-0.7,6.7-0.8c1,0,1.5-0.1,2.3,1.4c0,1,0.7,5.5,0.8,6.6
		c0,0.8,0.6,2.5,0.6,2.5l4.6-0.2c-1.9,2.9-4.8,0.7-4.6,4.8c7.6-0.3,15.7-0.9,23-1.5l-0.3-7.1c0,0-0.3-0.5-0.5-0.5
		c-0.5-0.2-3.1-0.4-3.6-0.4c0-0.8-0.8-1.5-1.6-1.5C802.1,498.3,804.6,497.9,805.9,498.1 M802.2,484.6c0.3,0.2,0.8,0.2,1,0
		C803.5,484.3,802,484.3,802.2,484.6 M864.6,495.3C864.6,495.3,864.6,495.3,864.6,495.3L864.6,495.3
		C864.6,495.3,864.6,495.3,864.6,495.3 M864.4,479.4c0,0.5-0.2,0.8-0.7,0.8l-0.3,0l1-1.1L864.4,479.4z M862.3,476.4
		c-0.3,0-0.3-0.5,0-0.5C862.5,475.9,862.5,476.4,862.3,476.4 M862.1,484.5c0.3,0,0.3,0.5,0,0.5C861.9,485,861.9,484.5,862.1,484.5
		 M862.2,498c0,0.3-0.5,0.3-0.5,0C861.7,497.7,862.2,497.7,862.2,498 M861.5,482.8l-0.5,0l0-0.5L861.5,482.8z M861,481.5
		c-0.3,0-0.3-0.5,0-0.5C861.2,481,861.2,481.5,861,481.5 M860.8,478.2c0.3,0,0.3,0.5,0,0.5C860.6,478.8,860.6,478.3,860.8,478.2
		 M861.1,472.7c0,0.3-0.5,0.3-0.5,0C860.6,472.4,861.1,472.4,861.1,472.7 M860.2,498.3c-0.3,0-0.3-0.5,0-0.5
		C860.4,497.8,860.4,498.3,860.2,498.3 M860.1,496.8c-0.3,0-0.3-0.5,0-0.5C860.3,496.3,860.4,496.8,860.1,496.8 M859.7,486.7
		c-0.3,0-0.3-0.5,0-0.5C859.9,486.1,859.9,486.7,859.7,486.7 M859.6,485.7c-0.3,0-0.3-0.5,0-0.5
		C859.9,485.1,859.9,485.6,859.6,485.7 M859.6,484.6c-0.3,0-0.3-0.5,0-0.5C859.8,484.1,859.8,484.6,859.6,484.6 M858.6,485.2
		c-0.3,0-0.3-0.5,0-0.5C858.8,484.7,858.8,485.2,858.6,485.2 M857.6,473.6c-0.3,0-0.3-0.5,0-0.5C857.8,473,857.8,473.6,857.6,473.6
		 M857.3,478.4c0.3,0,0.3,0.5,0,0.5C857,478.9,857,478.4,857.3,478.4 M856.8,502.8l-0.5,0c0-0.5,0-0.8,0.5-1L856.8,502.8z
		 M856,483.3c-0.3,0-0.3-0.5,0-0.5C856.2,482.8,856.2,483.3,856,483.3 M855.9,482.3c-0.3,0-0.3-0.5,0-0.5
		C856.2,481.7,856.2,482.2,855.9,482.3 M855.7,477.2c-0.3,0-0.3-0.5,0-0.5C855.9,476.7,856,477.2,855.7,477.2 M855.6,473.9
		c-0.3,0-0.3-0.5,0-0.5C855.8,473.4,855.8,473.9,855.6,473.9 M854.8,502.1c-0.3,0-0.3-0.5,0-0.5C855,501.6,855,502.1,854.8,502.1
		 M854.3,481.1c0,0.3-0.5,0.3-0.5,0C853.8,480.8,854.3,480.8,854.3,481.1 M852.1,476.8c-0.3,0-0.3-0.5,0-0.5
		C852.4,476.3,852.4,476.8,852.1,476.8 M851.5,485.2c0.3,0.2,2.1,0.7,2.6,1.4l-0.5,0c-0.8,0-2-0.2-2.1-1.2L851.5,485.2z
		 M851.6,500.7c0.3,0,0.3,0.5,0,0.5C851.4,501.2,851.4,500.7,851.6,500.7 M850.2,502.8c-0.3,0-0.3-0.5,0-0.5
		C850.4,502.3,850.5,502.8,850.2,502.8 M849.1,501.3c-0.3,0-0.3-0.5,0-0.5C849.4,500.8,849.4,501.3,849.1,501.3 M848.7,503.9
		c-0.3,0-0.3-0.5,0-0.5C849,503.4,849,503.9,848.7,503.9 M846.8,470c-0.3,0-0.3-0.5,0-0.5C847,469.5,847,470,846.8,470 M845.7,505
		c-0.3,0-0.3-0.5,0-0.5C846,504.5,846,505,845.7,505 M845.2,504.5c-0.2,0-0.3-0.5,0-0.5C845.4,504,845.5,504.5,845.2,504.5
		 M855.9,505.1c0.3,0,0.3,0.5,0,0.5C855.7,505.6,855.6,505.1,855.9,505.1 M845.8,459.6c0,0.3-0.5,0.3-0.5,0
		C845.3,459.4,845.8,459.4,845.8,459.6 M845.2,458.4c-0.3,0-0.3-0.5,0-0.5C845.5,457.9,845.5,458.4,845.2,458.4 M844.6,479.2
		c-0.3,0-0.3-0.5,0-0.5C844.9,478.7,844.9,479.2,844.6,479.2 M837,456.2c-0.3,0-0.3-0.5,0-0.5C837.3,455.7,837.3,456.2,837,456.2
		 M837,454.7c-0.3,0-0.3-0.5,0-0.5C837.2,454.2,837.2,454.7,837,454.7 M832.5,468.1c-0.3,0-0.3-0.5,0-0.5
		C832.7,467.5,832.7,468,832.5,468.1 M832,432.6c-0.3,0-0.3-0.5,0-0.5C832.2,432.1,832.2,432.6,832,432.6 M832.3,427.7
		c-0.6-1-0.6-2-0.6-3l2-0.1C833.7,425.6,833.2,427.2,832.3,427.7 M832.1,423.4c-0.3,0-0.3-0.5,0-0.5
		C832.3,422.9,832.3,423.4,832.1,423.4 M831.9,419.9c-0.2,0-0.3-0.5,0-0.5C832.1,419.4,832.2,419.9,831.9,419.9 M831.5,421.9
		c-0.3,0-0.3-0.5,0-0.5C831.7,421.4,831.7,421.9,831.5,421.9 M831.3,428.5c0.3,0,0.3,0.5,0,0.5C831,429.1,831,428.6,831.3,428.5
		 M830.9,431.9c-0.2,0.3-0.3-1.3,0-1C831.1,431.1,831.2,431.6,830.9,431.9 M829.5,434.7c-0.3,0-0.3-0.5,0-0.5
		C829.7,434.2,829.8,434.7,829.5,434.7 M829.1,436c-0.3,0-0.3-0.5,0-0.5C829.3,435.5,829.3,436,829.1,436 M827.9,431.7
		c-0.3,0-0.3-0.5,0-0.5C828.1,431.2,828.1,431.7,827.9,431.7 M827.8,419.6c-0.3,0-0.3-0.5,0-0.5C828.1,419,828.1,419.6,827.8,419.6
		 M829.2,438c0.2,0,0.3,0.5,0,0.5C828.9,438.5,828.9,438,829.2,438 M829.5,457.5c0.3,0,0.3,0.5,0,0.5
		C829.3,458.1,829.2,457.5,829.5,457.5 M830.9,467.1c0.3,0,0.3,0.5,0,0.5C830.7,467.6,830.7,467.1,830.9,467.1 M831.2,438.7
		c-0.3,0-0.3-0.5,0-0.5C831.4,438.2,831.5,438.7,831.2,438.7 M831.2,463c-0.3,0-0.3-0.5,0-0.5C831.5,462.5,831.5,463,831.2,463
		 M831.8,451.9c-0.3,0-0.3-0.5,0-0.5C832,451.3,832,451.8,831.8,451.9 M831.6,460c0.3,0,0.3,0.5,0,0.5
		C831.4,460.5,831.4,460,831.6,460 M834.8,428.9c0.3,0,0.3,0.5,0,0.5C834.6,429.4,834.6,428.9,834.8,428.9 M835.5,420.7
		c0.3,0,0.3,0.5,0,0.5C835.3,421.3,835.3,420.8,835.5,420.7 M836.5,421.2c0.3,0,0.3,0.5,0,0.5C836.3,421.7,836.3,421.2,836.5,421.2
		 M838.2,424.7c0.3,0,0.3,0.5,0,0.5C838,425.2,838,424.7,838.2,424.7 M838.4,428.5c0-0.3,0.5-0.3,0.5,0
		C838.9,428.7,838.4,428.7,838.4,428.5 M839,419.6c-0.3,0-0.3-0.5,0-0.5C839.2,419.1,839.3,419.6,839,419.6 M840,419
		c0.3,0,0.3,0.5,0,0.5C839.8,419.6,839.7,419,840,419 M839.9,427.9l1.5-1.6l0,0.3c0,0.8-0.5,1.3-1.2,1.3L839.9,427.9z M842,430.1
		c0.3,0,0.3,0.5,0,0.5C841.8,430.6,841.7,430.1,842,430.1 M842,431.1c0.3,0,0.3,0.5,0,0.5C841.8,431.6,841.8,431.1,842,431.1
		 M841.2,423.8c0,0.3-0.5,0.3-0.5,0C840.7,423.6,841.2,423.5,841.2,423.8 M840.7,422.6c0,0.3,0,0.5-0.5,0.8l0.5-1L840.7,422.6z
		 M843.6,432.1c0.3,0,0.3,0.5,0,0.5C843.4,432.6,843.3,432.1,843.6,432.1 M844,441.2c0.3,0,0.3,0.5,0,0.5
		C843.8,441.7,843.7,441.2,844,441.2 M845.2,422.1c0.3,0,0.3,0.5,0,0.5C845,422.6,844.9,422.1,845.2,422.1 M845.8,436.3l0.8,0
		c0,0.3-0.2,2-0.1,2.5c0,0.3-0.2,0.5-0.5,0.5L845.8,436.3z M846.7,433.5c-0.3,0-0.3-0.5,0-0.5C846.9,432.9,847,433.4,846.7,433.5
		 M847.5,440.5c0.3,0,0.3,0.5,0,0.5C847.3,441,847.3,440.5,847.5,440.5 M847.9,436.7c-0.3,0-0.3-0.5,0-0.5
		C848.1,436.2,848.1,436.7,847.9,436.7 M848.1,430.4c-0.3,0-0.3-0.5,0-0.5C848.3,429.8,848.3,430.3,848.1,430.4 M848.2,419.9
		c0-0.3,0.5-0.3,0.5,0C848.7,420.2,848.2,420.2,848.2,419.9 M849.4,436.4c0.3,0,0.3,0.5,0,0.5C849.1,436.9,849.1,436.4,849.4,436.4
		 M850,427.7c0.3,0,0.3,0.5,0,0.5C849.8,428.2,849.8,427.7,850,427.7 M850.2,420.1c-0.3,0-0.3-0.5,0-0.5
		C850.4,419.6,850.4,420.1,850.2,420.1 M850.7,433c0-0.3,0.5-0.3,0.5,0C851.3,433.3,850.8,433.3,850.7,433 M851.1,429.7
		c-0.3,0-0.3-0.5,0-0.5C851.3,429.2,851.4,429.7,851.1,429.7 M852.1,428.7c0.3,0,0.3,0.5,0,0.5C851.8,429.2,851.8,428.7,852.1,428.7
		 M852.4,435.7c0.3,0,0.3,0.5,0,0.5C852.2,436.3,852.1,435.8,852.4,435.7 M852.6,429.4l0.4-2l0.3,0c0.5,0,1,0.2,1.3,0.5
		c0,0.8-0.9,1.6-1.7,1.6L852.6,429.4z M853.2,432.2c-0.3,0-0.3-0.5,0-0.5C853.5,431.6,853.5,432.1,853.2,432.2 M853.1,439.8
		c0.3,0,0.3,0.5,0,0.5C852.8,440.3,852.8,439.8,853.1,439.8 M854.9,434.4l1,0c-0.2,0.5-0.5,0.5-1,0.5L854.9,434.4z M855.4,436.1
		c0.3,0,0.3,0.5,0,0.5C855.2,436.6,855.2,436.1,855.4,436.1 M856.6,427.4c0.3,0,0.3,0.5,0,0.5C856.4,428,856.3,427.5,856.6,427.4
		 M857.6,427.9c0.3,0,0.3,0.5,0,0.5C857.4,428.4,857.4,427.9,857.6,427.9 M858,437c0.3,0,0.3,0.5,0,0.5
		C857.8,437.5,857.8,437,858,437 M858.2,440.1c0.3,0,0.3,0.5,0,0.5C857.9,440.6,857.9,440.1,858.2,440.1 M859,436.5
		c0.3,0,0.3,0.5,0,0.5C858.8,437,858.8,436.5,859,436.5 M855.3,433.1c-0.3,0-0.3-0.5,0-0.5C855.5,432.6,855.6,433.1,855.3,433.1
		 M853.3,421.5c-0.3,0-0.3-0.5,0-0.5C853.5,421,853.5,421.5,853.3,421.5 M847.5,429.4c-0.3,0-0.3-0.5,0-0.5
		C847.8,428.8,847.8,429.3,847.5,429.4 M859.7,439.5c0.3,0,0.3,0.5,0,0.5C859.4,440,859.4,439.5,859.7,439.5 M860.4,434.1
		c0.2,0,0.3,0.5,0,0.5C860.2,434.6,860.2,434.1,860.4,434.1 M861.3,431.8c0.2,0,0.3,0.5,0,0.5C861.1,432.3,861.1,431.8,861.3,431.8
		 M827,423.1c-0.3,0-0.3-0.5,0-0.5C827.2,422.6,827.2,423.1,827,423.1 M826.5,459.2c-0.3,0-0.3-0.5,0-0.5
		C826.7,458.7,826.8,459.2,826.5,459.2 M826.4,456.4c-0.3,0-0.3-0.5,0-0.5C826.6,455.9,826.6,456.4,826.4,456.4 M825.6,426.8
		c-0.3,0-0.3-0.5,0-0.5C825.8,426.2,825.9,426.7,825.6,426.8 M825.3,420.2c-0.3,0-0.3-0.5,0-0.5
		C825.6,419.7,825.6,420.2,825.3,420.2 M825.1,461.8c0.3,0,0.3,0.5,0,0.5C824.9,462.3,824.9,461.8,825.1,461.8 M824.7,451.9
		c-0.3,0-0.3-0.5,0-0.5C824.9,451.4,824.9,451.9,824.7,451.9 M824.2,429.4c-0.3,0-0.3-0.5,0-0.5
		C824.4,428.8,824.5,429.3,824.2,429.4 M824.1,438.2c0.3,0,0.3,0.5,0,0.5C823.9,438.8,823.8,438.2,824.1,438.2 M823.5,437.5
		c-0.3,0-0.3-0.5,0-0.5C823.8,437,823.8,437.5,823.5,437.5 M823.5,425.1c-0.3,0-0.3-0.5,0-0.5C823.7,424.6,823.8,425.1,823.5,425.1
		 M823.1,426.9c-0.3,0-0.3-0.5,0-0.5C823.3,426.4,823.3,426.9,823.1,426.9 M822.9,422.8c-0.3,0-0.3-0.5,0-0.5
		C823.1,422.3,823.2,422.8,822.9,422.8 M821,425.9c-0.3,0-0.3-0.5,0-0.5C821.2,425.4,821.3,425.9,821,425.9 M820.5,425.2
		c-0.3,0-0.3-0.5,0-0.5C820.7,424.7,820.7,425.2,820.5,425.2 M820.4,422.9c-0.3,0-0.3-0.5,0-0.5
		C820.6,422.4,820.6,422.9,820.4,422.9 M818.3,457.3c-0.3,0-0.3-0.5,0-0.5C818.5,456.7,818.6,457.2,818.3,457.3 M818.2,431.4
		c-0.3,0-0.3-0.5,0-0.5C818.4,430.9,818.5,431.4,818.2,431.4 M817.9,447.4c0.3,0,0.3,0.5,0,0.5C817.7,447.9,817.6,447.4,817.9,447.4
		 M818.1,452.4c0.3,0,0.3,0.5,0,0.5C817.9,453,817.9,452.5,818.1,452.4 M817.8,458c0.3,0,0.3,0.5,0,0.5
		C817.6,458.6,817.6,458,817.8,458 M817.3,434c-0.3,0-0.3-0.5,0-0.5C817.5,433.4,817.6,434,817.3,434 M815.6,453.6
		c-0.3,0-0.3-0.5,0-0.5C815.9,453,815.9,453.6,815.6,453.6 M815.5,439.9c-0.3,0-0.3-0.5,0-0.5C815.8,439.4,815.8,439.9,815.5,439.9
		 M815.1,429c-0.3-0.2,0.2-0.8,0.5-0.5C815.8,428.7,815.3,429.2,815.1,429 M815.1,430.8c0.3,0,0.3,0.5,0,0.5
		C814.9,431.3,814.9,430.8,815.1,430.8 M843.9,508.4c-0.3,0-0.3-0.5,0-0.5C844.1,507.9,844.1,508.4,843.9,508.4 M842.1,502.6
		c-0.3,0-0.3-0.5,0-0.5C842.3,502.1,842.3,502.6,842.1,502.6 M840.3,508.8c-0.3,0-0.3-0.5,0-0.5
		C840.6,508.3,840.6,508.8,840.3,508.8 M840.2,505.8c-0.3,0-0.3-0.5,0-0.5C840.4,505.2,840.5,505.8,840.2,505.8 M836.6,503.6
		c-0.3,0-0.3-0.5,0-0.5C836.8,503.1,836.8,503.6,836.6,503.6 M829.2,486.5c-0.3,0-0.3-0.5,0-0.5
		C829.4,485.9,829.5,486.4,829.2,486.5 M829.1,496.1c0.3,0,0.3,0.5,0,0.5C828.9,496.6,828.9,496.1,829.1,496.1 M827.8,488
		c-0.3,0-0.3-0.5,0-0.5C828,487.5,828,488,827.8,488 M827.1,485c-0.3,0-0.3-0.5,0-0.5C827.4,484.5,827.4,485,827.1,485 M827,481.5
		c-0.3,0-0.3-0.5,0-0.5C827.2,481,827.2,481.5,827,481.5 M826.6,485.6c0.3,0,0.3,0.5,0,0.5C826.4,486.1,826.4,485.6,826.6,485.6
		 M827.2,498.5l-0.3,0c-0.8,0-1.5-0.2-1.6-1.2C826.1,497.2,826.7,497.7,827.2,498.5 M825,505.4c-0.3,0-0.3-0.5,0-0.5
		C825.2,504.9,825.2,505.4,825,505.4 M822.1,498.4c-0.3,0-0.3-0.5,0-0.5C822.4,497.9,822.4,498.4,822.1,498.4 M822.2,499.7
		c0,0.3-0.5,0.3-0.5,0C821.7,499.5,822.2,499.4,822.2,499.7 M821.3,480c0,0.3-0.5,0.3-0.5,0C820.8,479.7,821.3,479.7,821.3,480
		 M820.4,482l0.5,0l0,1L820.4,482z M820.5,484.3c0.3,0,0.3,0.5,0,0.5C820.3,484.8,820.2,484.3,820.5,484.3 M820.3,502.1
		c0.3,0,0.3,0.5,0,0.5C820,502.6,820,502.1,820.3,502.1 M820.6,485.8c-0.3,0-0.3-0.5,0-0.5C820.8,485.3,820.8,485.8,820.6,485.8
		 M826.5,505.6c0-0.3,0.5-0.3,0.5,0C827,505.8,826.5,505.9,826.5,505.6 M817.8,480.6c-0.3,0-0.3-0.5,0-0.5
		C818,480.1,818.1,480.6,817.8,480.6 M817.5,484.9c0.3,0,0.3,0.5,0,0.5C817.3,485.5,817.2,485,817.5,484.9 M817.1,487.5
		c-0.3,0-0.3-0.5,0-0.5C817.3,487,817.3,487.5,817.1,487.5 M817.7,489.2c-0.3,0-0.3-0.5,0-0.5C817.9,488.7,817.9,489.2,817.7,489.2
		 M817.6,500.4c0.3,0,0.3,0.5,0,0.5C817.4,500.9,817.4,500.4,817.6,500.4 M815.3,480.5c-0.3,0-0.3-0.5,0-0.5
		C815.5,480,815.5,480.5,815.3,480.5 M864.6,495.3c0.5-1.4,0.9-2.8,0.9-3.6l-0.8-18.2c0,0-0.8-1.5-1.1-2L863,471
		c-5.4-14.2-18.1-14.4-27.9-24.2c-2.7-2.7-2.9-8.5-3-11.5c-0.1-2.5,3.6-5.2,5.6-5.3c2.3-0.1,5,3.3,5.6,5.3c0,0.3-0.2,1-0.5,1
		l0.3,6.6l16.2-0.7c1.7-1.6,2-0.6,2.4-2.6c0-0.3,0.9-2.8,0.9-3.1c0,0-0.1-1.3-0.1-1.8c-0.1-2.5,0.1-4.1-2.5-4c0-0.5,0.1-3.8,0.1-4.3
		c-1.9-9-18.9-9.8-25.5-9.5c-2,0.1-7.1,0.3-7.8,2.4l-2.6-0.4c-0.2,2-2.7,1.4-4,2.2c-0.2,0.3-2.2,2.4-2.4,2.6c-0.2,0.3-2,1.4-2,1.6
		c0,0.3,0.1,1.8,0.1,2c0,0.3-1.2,0.6-1.5,0.6l-0.5,0.5c-2.4,3.9-1.6,9.5-1.4,13.8c0.5,12.4,3.5,15.8,12.7,23.3
		c0.3,0.2,1.8,1.2,2.1,1.4c2.6,1.7,9.4,5.2,9.4,5.2l1,0c0.1,2.3,2.9,2.7,4.3,4.4c0.3,0.2,3.9,7.9,3.9,8.5l0,0.5
		c-0.3-0.2-0.5-0.5-0.8-0.5c-1.3,0.1-0.3,11.2-3.3,11.3l-4,0.2c-2,0.1-3.4-7.5-3.4-8.5c-0.1-1.5-0.6-9.1-0.7-10.6l-16.5,0.7
		c-1.8,0.1-3,0.1-3,2.2c0,0.3,0.3,1.8,0.6,2l0.3,0c0.3,0,0.5,0,0.7-0.5l0.5,0.5l-1.9,2.1c0,0,0.1,1.8,0.1,2.5
		c0.2,5.3,0.5,10.9,2.7,15.6c0,0.3,0.8,1,1.1,1c1.8,0.9,1.6,1.2,2.6,1.9c2.6,1.4,7.6,4.7,10.3,4.6c1.3-0.1,6.8-0.3,8.1-0.3
		c5.1-0.2,7.6-0.1,12.1-1c1.8-0.3,6.4-4.3,7.4-3.9l3.4-3.7C862.3,500.8,863.7,498,864.6,495.3c0,0.3-0.5,0.3-0.5,0
		C864.1,495.1,864.6,495.1,864.6,495.3 M862.3,441.4c-0.3,0-0.2,0.5,0,0.5C862.5,441.9,862.5,441.4,862.3,441.4 M862.2,440.9
		c0.3,0,0.2-0.5,0-0.5C862,440.4,862,440.9,862.2,440.9 M861.3,442.5c0.3,0,0.2-0.5,0-0.5C861,442,861,442.5,861.3,442.5
		 M850.8,457.1c0.3,0,0.2-0.5,0-0.5C850.5,456.6,850.5,457.1,850.8,457.1 M842.3,436.2c0.3,0,0.2-0.5,0-0.5
		C842,435.7,842,436.2,842.3,436.2 M909.9,430.3c-0.3,0-0.3-0.5,0-0.5C910.1,429.8,910.1,430.3,909.9,430.3 M909.3,429.9
		c-0.3,0-0.3-0.5,0-0.5C909.6,429.3,909.6,429.8,909.3,429.9 M903.8,488.8c-0.3-0.2,0.2-0.8,0.5-0.5
		C904.5,488.5,904,489.1,903.8,488.8 M903.7,487c-0.3,0-0.3-0.5,0-0.5C903.9,486.5,903.9,487,903.7,487 M903.5,470.1
		c-0.2,0.5-0.7,1-1.2,1.1c-0.3,0-0.5,0-0.8-0.5c0.2-0.5,0.7-0.5,1.2-0.6L903.5,470.1z M900.2,493.8c1.3-0.1,1.8,0.7,1.9,1.9
		C901,495.8,900.2,494.5,900.2,493.8 M899.4,504.7c-0.3,0-0.3-0.5,0-0.5C899.6,504.2,899.6,504.7,899.4,504.7 M897.9,505.6
		c-0.3,0-0.3-0.5,0-0.5C898.1,505,898.1,505.5,897.9,505.6 M897.9,492.9c-0.3,0-0.3-0.5,0-0.5C898.1,492.4,898.1,492.9,897.9,492.9
		 M897.7,418.2c-0.3,0-0.3-0.5,0-0.5C897.9,417.7,897.9,418.2,897.7,418.2 M896.7,477.2c-0.3,0-0.3-0.5,0-0.5
		C896.9,476.7,896.9,477.2,896.7,477.2 M896.1,476.5c0,0.3-0.4,0.3-0.4,0C895.7,476.2,896.1,476.2,896.1,476.5 M895.8,477.7
		c0.3,0,0.3,0.5,0,0.5C895.6,478.3,895.5,477.8,895.8,477.7 M901.8,503.1c0-0.3,0.5-0.3,0.5,0C902.4,503.3,901.9,503.4,901.8,503.1
		 M904.2,500c0.2-0.5,1-0.8,1.5-0.8l0,0.8L904.2,500z M906,493.3l0.5,0l0,0.5L906,493.3z M891.2,501.3c-0.3,0-0.3-0.5,0-0.5
		C891.5,500.8,891.5,501.3,891.2,501.3 M890.8,467.2c-0.3,0-0.3-0.5,0-0.5C891,466.7,891,467.2,890.8,467.2 M890.7,465.9
		c-0.3,0-0.3-0.5,0-0.5C891,465.4,891,465.9,890.7,465.9 M888.9,493.3c-0.3,0-0.3-0.5,0-0.5C889.1,492.7,889.1,493.3,888.9,493.3
		 M888.9,471.7l-0.3,0c-0.3,0-0.5,0-0.8-0.5l0.3,0C888.4,471.2,888.7,471.2,888.9,471.7 M918,431l-0.7-15.4l-0.6-2
		c0,0-7.3,0.3-10.1,0.4c-3.8,0.2-14.8,0.6-16.1,0.7c-1.8,0.1-12.9,0.8-15.7,1.2c-2,0.1-6.6,0.8-6.6,0.8l-0.5,1c0,0.3,0.1,2.3,0.1,3
		c0.2,3.8,0.3,6.8,1,10.6c0,0.5,0.9,2.5,1.6,2.5l12.2-0.5l1.1,1c0.5,0.2,2.4,25,2.8,35.5l0.1,2l1.4,25.8c0.1,1.5,0.4,4,1.7,5
		c-0.7,1-2,0.8-1.9,2.4l0,0.3c0,0.5,0.6,2.5,0.6,3c1.3,0.4,2.3,0.4,3.6,0.4c1.8-0.1,2.5-0.1,4-1.2l12-0.5l0.5-0.5
		c0-0.5-0.5-10.9-0.6-14.7c-0.8-17.5-2-34.8-2.8-52c-0.1-1.8-0.3-6.6-0.3-6.8l1-1.3L918,431z"/>
	<path fill="#FFFFFF" d="M343.8,629h3v-16.8h-3V629z M350.1,612.2v2.7h5.3V629h3v-14.1h5.3v-2.7H350.1z M377.8,612.2v7h-8v-7h-3V629
		h3v-7.1h8v7.1h3v-16.8H377.8z M326.9,612.1l-4.1,12.5l-4-12.5h-3.2l5.9,16.9h2.5l4.1-12.1l4.1,12.1h2.5l5.9-16.9h-3.1l-4,12.5
		l-4.1-12.5H326.9z"/>
	<path fill="#FFFFFF" d="M427.7,652c12.2,0,19.9-4.7,26.9-11.8l-5-4.9c-6.4,6.2-12.5,9.7-21.7,9.7c-14.8,0-26-12.2-26-27.8V617
		c0-15.5,11.1-27.6,26-27.6c9.1,0,15.5,3.8,21.1,9.2l5.2-5.6c-6.7-6.3-14-10.7-26.2-10.7c-19.8,0-34,15.8-34,34.8v0.2
		C394,636.7,408.3,652,427.7,652 M480.7,652c15,0,26-11.9,26-26v-0.2c0-14-11-25.8-25.9-25.8c-15,0-26,11.9-26,26v0.2
		C454.9,640.3,465.8,652,480.7,652 M480.8,645.4c-10.5,0-18.4-8.7-18.4-19.3v-0.2c0-10.5,7.4-19.2,18.2-19.2
		c10.5,0,18.5,8.7,18.5,19.4v0.2C499.1,636.7,491.6,645.4,480.8,645.4 M535,652c15,0,26-11.9,26-26v-0.2c0-14-11-25.8-25.9-25.8
		c-15,0-25.9,11.9-25.9,26v0.2C509.3,640.3,520.2,652,535,652 M535.2,645.4c-10.5,0-18.4-8.7-18.4-19.3v-0.2
		c0-10.5,7.4-19.2,18.2-19.2c10.5,0,18.5,8.7,18.5,19.4v0.2C553.5,636.7,546,645.4,535.2,645.4 M564.8,650.9h7.4v-13l10.1-10.2
		l17.8,23.2h8.8l-21.5-28.4l20.9-21.3h-9.2l-26.8,28v-48.4h-7.4V650.9z M610.6,650.9h7.4v-49.7h-7.4V650.9z M625.6,650.9h7.4v-28.4
		c0-9.3,6.3-15.6,14.9-15.6c8.7,0,13.7,5.8,13.7,15v29h7.4V620c0-11.8-7-19.9-19-19.9c-8.6,0-13.7,4.3-17,9.7v-8.7h-7.4V650.9z
		 M697.2,666.4c7.9,0,14.5-2.2,18.9-6.6c4-4,6.3-9.9,6.3-17.6v-41h-7.4v8.9c-4-5.4-10.1-10-19.4-10c-11.8,0-23.4,8.9-23.4,23.5v0.2
		c0,14.3,11.4,23.3,23.4,23.3c9.1,0,15.2-4.7,19.5-10.5v5.9c0,11.6-7.1,17.7-18.1,17.7c-7.1,0-13.5-2.2-19.1-6.3l-3.4,5.8
		C681.2,664.1,688.9,666.4,697.2,666.4 M697.1,640.5c-9.2,0-17.2-6.9-17.2-16.9v-0.2c0-10.2,7.8-16.7,17.2-16.7
		c9.4,0,18.3,6.6,18.3,16.8v0.2C715.3,633.7,706.5,640.5,697.1,640.5"/>
	<path fill="#FFFFFF" d="M469.1,594.6h4.4v-25.7h9.3v-3.8h-9.4v-2.4c0-4.2,1.7-6.3,5.1-6.3c1.5,0,2.7,0.3,4.3,0.7v-3.8
		c-1.4-0.5-2.8-0.7-4.9-0.7c-2.7,0-4.9,0.8-6.3,2.3c-1.7,1.7-2.6,4.2-2.6,7.6v2.6H465v3.8h4.1V594.6z M484.3,594.6h4.4V565h-4.4
		V594.6z M493.2,594.6h4.4v-16.9c0-5.5,3.8-9.3,8.9-9.3c5.2,0,8.2,3.4,8.2,8.9v17.3h4.4v-18.4c0-7-4.2-11.8-11.3-11.8
		c-5.1,0-8.2,2.6-10.1,5.8V565h-4.4V594.6z M536.8,595.3c5.6,0,9.2-2.2,12.2-5.5l-2.7-2.5c-2.4,2.5-5.3,4.2-9.3,4.2
		c-5.3,0-9.8-3.6-10.4-10h23.5c0.1-0.5,0.1-0.9,0.1-1.4c0-8.6-5-15.6-13.8-15.6c-8.2,0-14.2,6.9-14.2,15.4v0.1
		C522,589.1,528.7,595.3,536.8,595.3 M526.5,578.2c0.6-5.8,4.5-10.1,9.6-10.1c5.9,0,9,4.7,9.4,10.1H526.5z"/>
</g>
</svg>
