<svg id="Layer_1" data-name="Layer 1" xmlns="http://www.w3.org/2000/svg" viewBox="0 0 1080 1080"><defs><style>.cls-1{opacity:0.75;}.cls-2,.cls-3{fill:#fff;}.cls-3{stroke:#fff;stroke-width:1.88px;}</style></defs><title>WGBH_impact-report_digital_logo-farm_v1</title><g class="cls-1"><path class="cls-2" d="M169.12,441.71l123.44,119-.08-114.14h34.92V639.33L204.13,520.5l-.24,111.23H169.22Z"/><path class="cls-2" d="M557.16,539.21c0,56.28-43.86,99.41-99.77,99.41s-99.8-43.12-99.8-99.4,43.91-99.4,99.79-99.4S557.15,482.92,557.16,539.21Zm-162.28,0c0,35.14,28.32,65.06,63.85,65.06s63.87-29.92,63.87-65.07c0-35.53-28.34-65.07-63.87-65.06S394.87,503.69,394.87,539.21Z"/><path class="cls-2" d="M650.19,564.16l54.63-117.81H745L650.2,640l-93.9-193.66h40.14Z"/><path class="cls-3" d="M799.61,516.72,746.26,632.12H706.34l93.27-191.29L892.5,632.11H852.57Z"/><path class="cls-2" d="M910.66,626.33a7.06,7.06,0,1,1-7-7A7,7,0,0,1,910.66,626.33Zm-13.07,0a6,6,0,1,0,6-6A6,6,0,0,0,897.6,626.35Zm4.69,4.07H901V622.3h3.23a2,2,0,0,1,2.27,2,2,2,0,0,1-1.77,1.88v0c1,.11,1.37.43,1.43,2.06a10.72,10.72,0,0,0,.32,2.12h-1.29a8.45,8.45,0,0,1-.34-2.7,1.06,1.06,0,0,0-1.22-.92h-1.31Zm0-4.67H904a1.17,1.17,0,0,0,1.18-1.31A1.13,1.13,0,0,0,904,623.2h-1.69Z"/></g></svg>