<?xml version="1.0" encoding="utf-8"?>
<!-- Generator: Adobe Illustrator 21.0.2, SVG Export Plug-In . SVG Version: 6.00 Build 0)  -->
<svg version="1.1" id="Layer_1" xmlns="http://www.w3.org/2000/svg" xmlns:xlink="http://www.w3.org/1999/xlink" x="0px" y="0px"
	 viewBox="0 0 1080 1080" style="enable-background:new 0 0 1080 1080;" xml:space="preserve">
<style type="text/css">
	.st0{opacity:0.75;}
	.st1{fill:#FFFFFF;}
</style>
<title>WGBH_impact-report_digital_logo-farm_v1</title>
<g>
	<g id="Layer_1_1_">
		<g class="st0">
			<path class="st1" d="M539.9,247.3c238.5,0,431.9,131.1,431.9,292.8S778.5,833,539.9,833S108,701.9,108,540.2
				S301.3,247.3,539.9,247.3 M539.9,229.9L539.9,229.9c-60,0-118.1,8-172.9,23.7c-53.2,15.3-101,37.2-142.2,65.1
				C183.1,347,150.2,380,127.2,417c-24.3,38.9-36.6,80.3-36.6,123.2s12.3,84.3,36.6,123.2c23,36.9,55.9,70,97.5,98.3
				c41.2,27.9,89,49.8,142.2,65.1c54.8,15.7,113,23.7,172.9,23.7s118.1-8,172.9-23.7c53.2-15.3,101.1-37.2,142.2-65.1
				c41.7-28.3,74.5-61.3,97.5-98.3c24.3-38.9,36.6-80.3,36.6-123.2s-12.3-84.3-36.6-123.2c-23-36.9-55.9-70-97.5-98.3
				c-41.2-27.9-89-49.8-142.2-65.1C658,237.9,599.8,229.9,539.9,229.9L539.9,229.9z"/>
			<path class="st1" d="M248.2,512c-1.5,3.3-5.4,4.8-8.7,3.3c-0.2-0.1-0.4-0.2-0.6-0.3c-0.9-0.6-2.1-0.7-3-0.1
				c-9.1,5-14.8,14.7-14.7,25.1c0,11.8,7.9,21.7,20.9,21.7s26.7-11.9,26.7-32.6c0-26.1-18.2-61-20.5-107.8
				c-1-20.5,2.1-36.5,4.9-44.1c2.5-6.8,5.1-9.8,8.1-11s5.6-0.9,7.5,0.9c2.9,2.6,3.3,10.1-3.7,12.8c-0.6,0.2-1,1-1.5,2.1
				c-2,4.6-4.4,15.6-4.4,34.9c0,44.5,20.3,75.7,20.3,112.6c0,27-17,43.1-37,43.1c-18.2,0-32.8-11.2-32.8-31.1
				c0-18.2,8.9-31.5,21.6-37.9c0.3-0.2,1.2-0.7,1.5-0.8c4.4-1.6,8.1-1.7,11.2-0.2C248.6,504.7,249.6,508.6,248.2,512z"/>
			<path class="st1" d="M527,489.4c-1.2-5.1-1.8-10.3-1.9-15.5c0-4.4,0.2-8.8,0.6-13.2c-0.9,0-1.8-0.1-2.6-0.4
				c-7.5-2.7-21.5,1.8-21.5,24.1c0,22,5.9,23,8.7,23C513.1,507.4,521.6,503.4,527,489.4z M586.7,368.4c-0.8-0.2-1.7,1.5-2.4,2.8
				c-9.9,17.1-12.9,54.1-12.9,69.2c0,15.5,1.5,26.7,3.6,34.8c1.6-4,3.2-8.4,4.8-13.4c7-20.9,10.6-42.8,10.7-64.8
				c0-6.5-0.3-18.2-2.5-26C587.6,369.8,587.2,368.5,586.7,368.4L586.7,368.4z M786.4,479.4c1-9.7-1.3-18.4-7.7-18.9
				c-8-0.7-12.1,18.8,3.4,19.1C783.5,479.6,785,479.6,786.4,479.4L786.4,479.4z M797.9,477.6c7.3-2,14.2-5.2,20.4-9.6
				c6.8-4.8,11.6-1.5,9.4,6.1c-1.8,5.8-17.3,45-4.9,47.6c9.9,2.1,17.6-12.3,22.7-25.9c2.7-8.7,5.2-16.6,6.7-20.8
				c1.1-3.2,4.5-4.9,7.6-3.8c3.2,1.1,4.9,4.5,3.8,7.6l0,0c-2.1,6.6-5.5,15.1-9.2,26.4c-4.8,16.3-6.5,26.6-1.7,28.6
				c4.3,1.8,9.3,0.2,13.3-2.5c1.6-7.7,5.8-14.2,9.5-15.5c9.1-3.1,10.7,8.6,6,15.8c-1.5,2.3-3.4,4.3-5.6,6c0,6.2,3.3,12.2,14.9,12.2
				c22.9,0,25.5-22.2,3.4-37.8c-13.3-9.4-17.3-14.9-15.8-24.7c1.4-9.1,14.5-27.4,37.8-27.4c18.4,0,23.7,12,23.7,22.6
				c0,11.5-7.3,26.4-20.2,26.4c-2.8,0-5.6-1.2-7.5-3.3c-2.3-2.3-3.3-6.6-2-9.6c1.2-2.7,2.5-3.7,5.1-4c2.7-0.1,5.1,1.6,6,4.1
				c0.6,1.8,2.6,0.2,3.2-0.4c2.7-3.2,4.3-7.3,4.4-11.6c0-7.4-2.6-12.7-12.9-12.7c-16.8,0-25.1,14-25.6,17.7
				c-1.8,13.9,36.2,22.4,28.8,50.9c-3,11.4-12.7,20.2-27.3,20.2c-17,0-24.3-7.8-26.2-16.8c-6,2.2-12.4,2.8-17.4,1.2
				c-5.8-1.9-9.9-6.7-10.1-16.2c-5.2,4.2-12,5.8-18.5,4.4c-22.1-4.6-12.1-34.8-5.9-50.6c-5.7,2.5-11.6,4.4-17.6,5.7
				c-4.1,17.1-16.1,33.2-34.2,33.2c-12.7,0-19.7-7-22.3-16.4c-5,7.1-11.8,12.3-21,11.2c-7.7-0.9-12.3-7.5-14.6-16.4
				c-8,8.7-18.2,14.6-30.5,14.6c-10.4,0-18.7-5.4-23.3-14.5c-15.3,14.2-30.3,11.9-38.3-3c-6,6.6-13.4,10.9-21.7,10.9
				c-6.1,0-11.8-2.4-16.7-7.7c-7.3,9.9-15.4,15.6-23.9,15.6c-8.1,0-13.9-5-17.8-11.9c-5.2,9.4-12.4,16.5-21.9,16.5
				c-5.1-0.1-9.8-2.4-12.9-6.4c-4.8,8.7-12.3,13.9-18.8,13.9c-22,0-15.5-44.6-33.9-43.7c-1.9,27-10,50.8-32.5,50.8
				c-13.4,0-19.1-10.9-19.1-26.1c0-13.8,5.4-25.2,5.5-31.8c0.1-3.3-0.8-5.1-1.3-5.6c-0.6-0.6-1.6-0.9-2.5-0.8
				c-11.1,1.9-24.5,27.3-20.8,59.7c0.9,8.3-8.9,10-10.6,0.6c-0.8-5.7-1.1-11.5-0.8-17.2c-3.9,16.2-10,31-22.3,30.8
				c-6.3-0.1-11.4-4.5-14-12.1c-4.5,7.3-10.6,13.2-20.6,17.7c-0.2,0.1-0.5,0.2-0.7,0.2c-3.3,1.1-7.6,1.3-10.4-0.5
				c-3.6-2.3-3.2-8.5,0.8-10.2c3.9-1.6,5.8,1.9,8.8,0.1c9.8-6,15.4-12.9,18.6-21.6c-0.8-6.6-1.2-13.3-1.1-19.9
				c0-7.3,1-14.6,2.9-21.6c2.3-8.2,10.8-7.6,12,0.1c1.6,10.3,0.4,22.6-4.1,38.9c1.2,8.5,3.6,16.8,7.8,16.8
				c10.5,0,18.7-55.6,19.3-61.4c0.9-8.3,11-8.7,11.3-0.4c0.1,2.1,0.4,7.4,0.4,11.9c5.5-13.4,16.6-23.6,25.9-23.8
				c11.2-0.2,13.1,8,13.1,15.9c0,9.8-6.2,20.9-6.2,33.8c0,12.2,5.1,14.9,8.8,14.9c31.9,0,18.6-91.8,16.2-108.3
				c-8.8-58.9-55.2-45.7-55.2-13.2c0,12.2,6.6,16,10.3,16c5.6,0,9.8-3.1,11.3-7.1c0.8-2.1,1.1-5.5,0-7.1s-1.4-1.8-3.8-2.2
				c-4.1-0.6-6.4-3.4-5.8-7.6c0.7-5,6-8,12.7-4.9c3.4,1.6,6.9,5.7,8.4,11.4c1.6,5.6,0.9,11.6-1.7,16.8c-3.6,6.9-10.9,12-20.8,12
				c-13.5,0-21.7-12.1-21.7-27.3c0-45.5,66.8-62.6,77.9,11.7c2.6,16.7,4.2,33.6,4.6,50.5c12-23.5,19.3-35.2,27.9-42
				c3.4-2.8,5.9-4.2,8.1-4.9c6.5-2.2,10.4-0.1,11.7,4.6c1.1,4.1-2.2,8.3-7.9,8.2c-1.7-0.2-3.5,0.3-4.8,1.4
				c-5.9,4.7-14.3,15.4-29.7,43.3c19.8,2,19.8,40,28,42.2c4,1,10.9-3.9,13.3-13.7c-1.6-5.9-2.4-12-2.3-18.1
				c0-27.2,20.2-41.8,37.7-35.5c0.3,0.1,0.7,0.3,1,0.5c0.7-2,1.6-4,2.5-5.9c3.3-6.8,11.5-7,12.5,2c0.4,4.7,0.6,9.3,0.5,14
				c0,6.3-1.5,17.3-4.9,28.2c2.7,10.6,8.2,15.6,11.2,15.6c6.2,0,12-3.8,17.7-13.1c-5.2-10.8-9.1-28.6-9.2-51.3
				c0-23,5.1-74.5,24.3-83.7c1.3-0.6,2.7-1,4.1-1c16,0,15.7,34.5,15.7,42.8c0,21-4.9,45.2-10.7,64.2c-2.8,9.5-6.6,18.7-11.1,27.5
				c3.8,5.4,7.7,6.6,9.8,6.6c7,0,13.6-4.3,18.8-11c-0.1-1.6-0.2-3.4-0.2-5.2c0-16.4,6.6-34.7,11.5-41.5c4-5.5,9.1-4.1,10.1,2.7
				c1.5,10.8-3.1,31.4-9.9,44c2.6,19.9,16.5,16.4,26.4,3.5c-0.4-3.3-0.6-6.5-0.6-9.8c0-20.7,15.7-36.6,27.7-36.6
				c6.1,0,10.4,2.7,13.7,8.3c0.9,1.6,1.6,3.3,2.2,5c1.3,4.3,0.5,9.3-3.4,10.5c-4.4,1.4-8-1.1-7.8-5c0.1-1.1,0.1-2.1-0.1-3.2
				c-0.8-2.2-2.9-3.6-5.2-3.4c-4.3,0-15.2,8-15.4,24.1c-0.2,18.6,8,25.1,15,25.1c12.9,0,22.9-8.2,29.4-19.1c0.1-5,0.5-9.9,1.4-14.9
				c1.9-10.8,4.6-20.4,8.3-25.3c4.1-5.4,10-3.8,10.8,3c0.6,5.3-0.5,15.7-3.8,26.1c-1.4,4.5-3.3,9-5.5,13.2c0.1,2.5,0.3,4.9,0.7,7.3
				c3.6,24,20.7,4.5,25.3-9.4c3.4-15.5,13.5-30,25.9-30h0.4c3.9-4.3,9.7-6.2,15.4-5C793.6,451,798.4,463.6,797.9,477.6L797.9,477.6z
				 M760.2,468.5c-9.4,10.6-16.5,41.1,2.9,41.1c10.3,0,17.6-9.5,21.1-20.2c-0.8,0-1.6,0-2.4,0C766.2,489.5,759.8,479,760.2,468.5
				L760.2,468.5z"/>
			
				<ellipse transform="matrix(0.1736 -0.9848 0.9848 0.1736 118.4985 963.6602)" class="st1" cx="633.5" cy="411.2" rx="11.9" ry="9"/>
			
				<ellipse transform="matrix(8.715574e-02 -0.9962 0.9962 8.715574e-02 -141.0708 742.1282)" class="st1" cx="334.4" cy="448" rx="11.1" ry="9.5"/>
			
				<ellipse transform="matrix(0.1736 -0.9848 0.9848 0.1736 190.531 1053.9174)" class="st1" cx="723.3" cy="413.4" rx="11.2" ry="9"/>
			<path class="st1" d="M228.7,436.3c-0.8-0.8-1.9-1.2-3-1.2c-9.2,1-10.6-5.4-8.9-9.6c2.1-5.1,8.9-7,17.5-0.7c2.4,1.9,4.4,4.3,5.8,7
				c2.1,4,3.1,8.5,3.1,13c0,17.7-15.6,38.9-37.4,38.9c-23.2,0-39.7-14.7-39.7-41.2c0-58,69.4-100.1,111.1-100.1
				c39.8,0,56.3,22.6,57.1,52.4c0.9,33.8-20.4,58.9-50.2,74.4c-8.5,4.2-17.2,7.9-26.1,11.2c-9.3,3.1-12.2-8.4-4.9-11.6l23.5-10
				c26.8-11.6,46.9-35.8,46.9-64.1c0-18.7-12.1-41-46.8-41c-35.2,0-99.9,37.8-99.9,88.5c0,19.7,11.1,29.5,27.7,29.5
				c14.9,0.3,27.2-11.5,27.5-26.5c0-0.1,0-0.1,0-0.2C231.9,441.1,230.6,438.1,228.7,436.3z"/>
			<path class="st1" d="M182.5,577.4c-1.3,8.2,4.3,15.2,14.8,18.9c5.8,2,13,2.7,21.4,2.7c27.1,0,100.6-28.5,127.9-36.7
				c71.3-21.5,145.4-32.4,219.8-32.2c36,0,70.1,1.2,100.8,3.6c60.6,4.8,110.5,14,152.1,25.5c56.3,15.6,85.9,28.3,98.4,39.1
				c5,4.3,6.2,10,3.8,14.2c-2.2,3.8-7.6,4.7-11.2,2.1c-4.2-3-2.5-7.2-7.4-9.8c-4-2.2-5.4-2.8-9.2-4.8
				c-24.3-12.5-50.4-20.9-81.5-30.1c-39.8-11.8-88.7-20.8-146.9-25.1c-28.6-2.1-60.8-3.5-95.2-3.3c-83.8,0.6-147.5,10.5-216.1,31.1
				c-25.4,7.6-52.8,17-82,27.1c-20,6.9-39.7,11.7-56.4,12c-16,0.3-37.8-3.6-44.9-21.3c-1.9-4.6-2.4-10.2-1.1-16.8
				c1.5-7.5,7.4-13.4,14.9-15c8-1.3,13.9,2.1,14.2,8.4c0.1,4.6-3.5,8.4-8.1,8.6C187.2,576,183.2,573.3,182.5,577.4z"/>
			<path class="st1" d="M388.9,721.9c-0.6,0-1.2-0.1-1.7-0.2c-1.7-0.3-3.2-1.3-4.1-2.8c-0.9-1.5-1.1-3.2-0.6-4.9
				c0.2-0.7,0.5-1.4,0.9-2c1.1-1.8,1.7-3.8,1.7-5.9c-0.4-9.1-1.1-15.6-3.5-33.2c0,0,0-0.5-0.1-1.2c-2.8,0.6-5.6,1-8.5,1.1
				c-1.8,0-7.5-0.4-7.6-5.6c-0.1-1.9,0.5-3.7,1.7-5.1c1.3-1.2,3-1.8,4.8-1.7c1,0,2.1,0.1,3.1,0.3c0.8,0.1,1.5,0.2,2.3,0.3
				c0.8,0.1,1.6,0,2.4-0.1c0-0.4-0.1-0.7-0.2-1.1c-2.6-16.1-4.3-24.4-7.1-31.5c-0.6-1.3-1.6-2.5-2.7-3.5c-0.8-0.7-1.5-1.5-2.1-2.3
				c-1.2-1.6-1.6-3.6-1.2-5.5c0.5-1.6,1.7-3,3.2-3.6c0.9-0.4,1.9-0.6,2.9-0.7c2.9,0.1,5.6,1.8,6.9,4.5c6,11.4,8.1,24.6,10.2,37.4
				l0.6,3.5l1.2-0.5c8.4-3.1,15.9-8.4,21.7-15.2c6.4-7.5,9.3-17.4,8-27.1c-1.3-9.8-11.9-20.2-28.9-20.2c-0.9,0-1.9,0-2.8,0.1
				c-11,0.7-30.7,4.9-39.6,24.1c-1.8,4.1-0.8,9,0.2,10.5c1.1,1.6,1.4,3.5,0.9,5.4c-0.4,1.7-1.6,3.2-3.2,4c-1,0.5-2.2,0.8-3.3,0.8
				c-2.2,0.1-4.3-0.9-5.6-2.7c-3.6-5.3-3.5-12.3,0.4-20.9l0-0.1c3.8-8.8,16.1-29.6,49.4-31.8c1.1-0.1,2.2-0.1,3.4-0.1
				c8.6-0.1,17.1,2.3,24.5,6.8c8.7,5.4,14.1,13.5,15.4,22.8c1.7,12.8-1.9,25.1-10.4,35.4c-7,8.6-17,15.3-28.8,19.4l-0.8,0.3l0.1,0.9
				c0.1,0.7,1.1,8.7,1.8,14.6c0.4,3.7,0.9,6.9,0.9,7.8c0.8,7.5,2.1,18.5,0.1,25.3C394.1,720.3,392,721.9,388.9,721.9z"/>
			<path class="st1" d="M274.1,717c-6.9,0-12.9-2.6-16.8-7.4c-4.2-5.1-6.1-12.4-5.1-19.9c1.1-8.7,5.2-17.3,13.3-27.9l0.3-0.4
				l-0.3-0.4c-3.4-4.9-6-9.2-6-16.6c0-10.6,6.1-18.7,14.1-18.7c3.8-0.1,7.4,1.5,9.9,4.3c2,2.2,4.1,6.3,3.2,13
				c-0.6,4.9-3.3,10.8-8.2,18l-0.3,0.4l1.9,2.8c4.3,6.3,8.8,12.9,14,18.6c0.3,0.3,0.6,0.7,0.9,1c0.2-1,0.4-1.9,0.5-2.7
				c0.3-1.7,0.4-3.5,0.4-5.2c0.1-1.5-0.3-3.1-1.1-4.4c-0.6-0.7-1.4-1.1-2.3-1.3c-0.4-0.1-0.8-0.3-1.2-0.5c-1-0.7-1.8-1.7-2.1-2.8
				c-0.6-1.8-0.3-3.8,0.8-5.3c1.3-1.7,3.3-2.7,5.4-2.8c2.6,0,5,1.8,7.1,5.2c2.3,3.8,3.4,8.8,3.2,15.2c-0.1,4.2-0.7,8.4-2,12.4
				l-0.2,0.5l0.5,0.3c2.4,1.7,5.3,2.5,8.2,2.5c3.1,0,6.1-0.7,8.9-2c2.3-1.1,4.3-2.9,5.5-5.2c0.6-1.3,1.3-3.9,0.4-5.5
				c-0.4-0.7-1.1-1.2-1.9-1.3c-0.8-0.1-1.6-0.1-2.5,0c-3.4,0-6.1-2.8-6.1-6.2l0,0c0-3.5,2.7-6.4,6.2-6.6c5.5,0,10.6,3.4,13.2,8.9
				c1,2.2,1.6,4.6,1.6,7.1c0,6.2-3,11.7-8.4,15.6c-4.9,3.4-10.8,5.2-16.8,5.2c-4.3,0-8.5-1.1-12.2-3.3l-0.6-0.3l-0.4,0.6
				c-2.8,4.7-6.8,8.6-11.5,11.3C283.7,715.7,278.9,717,274.1,717z M271.4,670.9c-5.5,7.7-8.3,14-9.1,20c-0.6,4.8,0.5,9.2,2.9,12.2
				c1.8,2.2,4.5,3.6,7.4,3.7c0.5,0,0.9,0,1.4,0c4.7,0,9.1-1.8,12.5-5c2-1.8,3.7-4,5-6.4l0.3-0.5l-0.4-0.4
				c-5.1-5.1-10.7-12.2-18.8-23.7L272,670L271.4,670.9z M274,635.8c-0.2,0-0.3,0-0.5,0c-1.9,0.2-3.9,3.3-3.9,8.5
				c-0.1,2.5,0.6,4.9,1.8,7l0.6,1.1l0.6-1.1c2.9-5,3.8-8,4-9.7c0.3-2.3,0-4.1-0.8-5C275.4,636.1,274.7,635.7,274,635.8z"/>
			<path class="st1" d="M856.4,635.9h-3.6v9.7h-2.3v-9.7h-3.6v-1.7h9.6V635.9z M865.3,642.4l3-8.2h3.2v11.4h-2.1v-9.4l-3.5,9.4h-1.2
				l-3.7-9.4v9.4h-2v-11.4h3.2L865.3,642.4z"/>
			<path class="st1" d="M760.7,700.6c-3.7,0-5.6-2.1-6-6.5c-0.1-1.6,0-3.2,0.1-4.9c1.4-14.4,2.5-24.9,5.2-39.4c0.4-2.4,1-4.6,2-6.8
				c0.8-2.1,2.9-3.4,5.1-3.4c0.7,0,1.4,0.1,2.1,0.3c1.5,0.3,2.8,1.4,3.6,2.8c0.7,1.5,0.8,3.2,0.4,4.8c-0.3,1-0.7,1.9-1.2,2.8
				c-0.8,1.5-1.4,3.2-1.8,4.8l-0.2,1.3c-1.8,9.4-3.3,17.5-3.9,28.2l-0.1,1.2c-0.3,2-0.2,3.9,0.2,5.9c0.5,1.9,0.9,4.5-0.1,6.3
				c-0.9,1.4-2.3,2.4-4,2.6C761.6,700.6,761.2,700.6,760.7,700.6L760.7,700.6z"/>
			<path class="st1" d="M814.5,705.3c-1.4,0-2.7-0.1-4.1-0.2c-7.7-0.9-13.1-3.2-17.5-7.5c-5.8-5.7-8.5-13.3-8.5-24
				c0-11.2,4.2-21.2,11.7-28c5-4.5,11.2-7.3,16.5-7.3c0.5,0,1,0,1.5,0.1c4,0.3,7.8,2,10.7,4.8c3,2.9,4.8,6.9,5,11.1
				c0.2,3.8-0.6,8.9-4.5,10.7c-2.9,1.2-6.2,0.3-8-2.2c-1.1-1.5-1.3-3.5-0.6-5.2c0.2-0.4,0.4-0.8,0.7-1.1c0.7-1,1.9-2.5,0.8-4.3
				c-1.1-1.8-3.1-2.9-5.3-2.8h-0.2c-2.9,0-6,1.5-9.3,4.5c-3,2.7-8.1,9-8.1,19.9v0.1c0,4.5,0,18,13.8,20.4c1.9,0.4,3.9,0.6,5.8,0.7
				c2.5,0,4.9-0.7,7-1.9c0.9-0.5,1.6-1.2,2.1-2c0.4-1,1.1-1.9,1.8-2.7c2.5-2.1,6.2-1.9,8.5,0.5c1.1,1.1,1.7,2.6,1.6,4.2
				c0,2-0.9,4-2.3,5.4C828.4,702.9,821.6,705.5,814.5,705.3z"/>
			<path class="st1" d="M491.7,696.3c-0.6,0-1.2-0.1-1.8-0.3c-3.2-0.9-5.2-4.1-4.6-7.4c0.1-0.6,0.3-1.3,0.6-2.2
				c0.9-2.9,1.5-5.9,1.6-9c0.2-6,0.1-13.7,0.1-22.7c0-4.2,0-8.7,0-13.5c0-3.3,0-6.6,0-9.8v-1.2l-1.2,0.1c-3.1,0.3-14.9,0.9-15.9,0.9
				c-0.7,0-1.4,0-2.2,0.1s-1.7,0.1-2.5,0.1c-1,0-2-0.1-3-0.2c-3.2-0.5-5.6-3.2-5.6-6.4c0-4.2,3.5-6.4,6.8-6.4c0.8,0,1.6,0.1,2.4,0.4
				c0.5,0.2,1,0.4,1.5,0.6c1.1,0.6,2.3,1,3.5,1.1h0.1c5.1-0.1,10.2-0.4,15.3-1l0.9-0.1v-1.8c0-2.6,0.1-5,0.1-7.5
				c0.1-7.2,0.5-14.5,0.8-21.2l0.1-1.4c0.1-2.2,0.2-4.1,0.4-6.1c0.4-3,0.6-4.8,2-6.2c1.2-1.3,2.9-2.1,4.6-2.1h0.2
				c3.6,0.1,6.4,3.1,6.3,6.7c0,0,0,0,0,0c-0.1,1.4-0.6,2.8-1.2,4.1c-0.4,0.9-0.8,1.9-1.1,2.9c-0.5,2.1-0.7,4.2-0.7,6.4
				c0,0.5,0,1-0.1,1.6c-0.3,6.2-0.5,12.8-0.6,21.4v1.5l1.4-0.4c3.7-1,7.4-2.4,10.9-4c1.8-1,3.5-2.4,4.8-4.1c0.6-0.7,1.3-1.5,2-2.1
				c1-1,2.4-1.5,3.8-1.5c2,0.1,3.8,1,4.9,2.6c2.1,3,1.4,7.1-1.5,9.2c-6.8,5.2-15.4,9-25.5,11.4l-0.8,0.2v0.7c0,4,0,8.1,0,12.1
				c0,4.8,0,9.2,0,13.3v0.2c0,9,0.1,16.7-0.1,22.8v0.1c-0.1,2.4,0,4.5,0,6.4c0.1,2.4,0.1,4.7-0.3,7.1
				C497.5,694,494.8,696.2,491.7,696.3L491.7,696.3z"/>
			<path class="st1" d="M627.9,692.5c-1.7,0-3.3-0.7-4.4-2c-1.3-1.5-2-3.6-1.7-5.6c0.2-1.1,0.5-2.2,1-3.2c0.8-1.8,1.3-3.8,1.6-5.8
				c0.3-4.1,0.5-7.9,0.7-11.6c0.3-6.8,0.5-12.9,0.5-18.8c0-3.2-0.1-6.4-0.2-9.4c0-0.4,0-0.9,0-1.3c0.1-2.5-0.3-5-1.1-7.4
				c-0.3-0.7-0.6-1.4-1-2c-0.4-0.7-0.7-1.4-1-2.1c-0.5-1.6-0.4-3.4,0.4-4.9c0.9-1.5,2.5-2.6,4.3-3c0.6-0.2,1.3-0.2,1.9-0.2
				c2.1,0,4,1.1,5.1,2.9c0.9,1.5,1.4,3.2,1.4,5l0.2,2.3l1.7-1.6c3.7-3.8,8.7-5.8,14-5.8c4.3,0.1,8.4,2.1,11,5.5
				c3.1,4,4.3,9.1,3.3,14c-0.6,3.3-2.1,9.5-6,13.2c-1.1,1.1-2.6,1.6-4.2,1.6c-1.1,0-2.3-0.3-3.2-0.9c-3-1.8-3.7-5.4-1.8-8.7
				c0.4-0.7,1-1.3,1.7-1.7c1-0.6,1.7-1.5,2.2-2.5c0.3-0.7,0.6-1.4,0.7-2.2v-0.2c0.6-2,0.3-4.1-0.8-5.8c-0.7-1.1-1.9-1.7-3.2-1.7
				c-3.9,0-13.3,3.1-14.9,32c-0.1,2.2-0.2,4.3-0.3,6.5c-0.3,6.4-0.6,13-1.4,19.4v0.1c-0.3,2.2-1.6,4.2-3.7,5.2
				C629.7,692.3,628.8,692.5,627.9,692.5z"/>
			<path class="st1" d="M721.2,697.9c-2.4,0-4.6-1.3-5.6-3.5c-0.6-1.7-1-3.6-1-5.5c0-0.3,0-0.6-0.1-1c-0.2-2.4-0.4-4.9-0.5-7.3
				c-0.4-5.4-0.6-10.2-0.7-14.5c-0.1-4.5-0.1-6.4,0-10.7V655c0-3.6,0.1-6.3,0.2-8l0.4-6.6l-1-0.2c-6.3-1.4-12.2-4.1-17.3-8
				c-3-2.3-3.7-5.7-1.9-8.8c1-1.7,2.8-2.8,4.8-2.9c1.5,0,3,0.6,4.2,1.7c0.5,0.5,1,1.1,1.5,1.7c0.7,1.1,1.6,2,2.7,2.7
				c1.1,0.6,2.2,1.1,3.3,1.5c0.3,0.1,2.3,0.8,3.2,1.1l1.3,0.4l0.1-1.3c0.4-4.4,1-8.8,1.5-13.1c2.4-17.6,8.1-41.3,29.5-43.4
				c0.7-0.1,1.4-0.1,2.1-0.1c6.3,0,12.2,2.9,16,7.9c3.1,4.3,4.6,9.5,4.3,14.7c-0.2,3.7-1.2,10-6.2,11.5c-0.6,0.2-1.3,0.3-2,0.3
				c-1.9,0-3.6-0.7-5-2c-1.7-1.9-2.1-4.7-0.9-7c0.4-0.7,0.8-1.3,1.3-1.8c0.9-1,1.8-2,1.7-3.3c0-2.1-0.7-4.2-1.9-5.9
				c-1.7-2.3-4.5-3.6-7.3-3.6c-0.3,0-0.7,0-1,0c-4.2,0.4-15.3,1.5-19.8,34.1c-0.6,4.2-1.1,8.5-1.5,12.7l-0.1,1.3l1.3-0.1
				c6-0.4,11.9-1.8,17.4-4.1c1.1-0.6,2.1-1.5,2.8-2.5c0.5-0.8,1.3-1.4,2.1-1.9c2.9-1.4,6.3-0.4,8.1,2.2c0.2,0.2,0.3,0.5,0.4,0.7
				c1.1,2.3,0.8,5-0.8,7c-1.2,1.3-2.6,2.2-4.3,2.8c-5,2.2-10.2,4-15.5,5.2c-1.9,0.4-3.9,0.8-5.8,1c-0.4,0-3.9,0.3-5.1,0.4h-1.5
				l-0.1,1c-0.8,15.5-0.7,27.9,0.4,39.3c0.2,1.6,0.7,3.1,1.3,4.6c0.6,1.3,1,2.7,1.2,4.2c0.4,3.1-1.4,6.1-4.3,7.2
				C722.6,697.8,721.9,697.9,721.2,697.9z"/>
			<path class="st1" d="M448.4,703.3c-6.7,0-12.6-3.3-16.5-9.2c-0.5-0.8-1-1.5-1.4-2.3l-0.3-0.7l-0.7,0.1c-0.6,0.1-1.3,0.1-1.9,0.1
				c-3,0-5.4-2.4-5.5-5.4c0-2.5,1.6-4.6,4-5.3l0.9-0.2l-0.1-0.9c-0.2-1.7-0.3-3.4-0.3-5.1c0-25.6,13.9-39.2,23.9-39.2
				c6.3,0,9.9,2.6,11.8,4.7c3.1,3.5,4.3,8.7,3.5,15.2c-1.2,9.5-12.6,24.3-24.5,31.6l-1,0.6l0.6,0.9c1.6,2.6,4.4,4.2,7.4,4.2h1
				c1.6,0,3.5-0.2,7-2c2.3-1.2,4.3-2.8,6-4.7c0.9-1.1,1.5-2.4,1.7-3.8c0.1-0.3,0.2-0.7,0.3-1c1.2-3.2,3.1-4.6,5.8-4.6
				c0.6,0,1.1,0.1,1.7,0.2c3.3,0.6,5.2,3.7,4.5,7.4c-0.3,1.4-0.8,2.8-1.6,4.1c-2.4,4.1-7.9,8.4-11.8,10.9
				C458.6,701.7,453.5,703.3,448.4,703.3z M451.1,645.9c-0.3,0-0.7,0-1,0.1c-2.8,0.6-12.7,8.9-12.8,28.1v2.3l1.8-1.4
				c7.6-6,15-15.9,15.8-21.2c0.5-3.1,0.3-5.1-0.7-6.4C453.5,646.4,452.3,645.9,451.1,645.9L451.1,645.9z"/>
			<path class="st1" d="M542,689.6c-8.2,0-15.1-3.3-19.5-9.4l-0.4-0.5l-0.6,0.1c-0.9,0.1-1.8,0.2-2.6,0.2c-3,0-5.4-2.4-5.5-5.4
				c0-2.4,1.5-4.5,3.8-5.2l0.9-0.3l-0.1-0.9c-0.2-1.3-0.2-2.5-0.2-3.8c0-37.1,15.1-41.1,21.6-41.1c4.1,0.1,7.9,1.9,10.5,5
				c3.1,3.6,4.5,8.4,3.8,13.1c-1.5,11.6-10.1,25.8-20,33.1l-1.2,0.9l1.2,0.9c2.5,1.8,5.4,2.7,8.5,2.6c4.8,0,8.4-3,11.3-5.3l0,0l0,0
				c1.3-1.2,2.1-2.8,2.5-4.5c0.1-0.3,0.2-0.6,0.3-1c1-2.9,3.5-5,6.2-5c0.6,0,1.2,0.1,1.7,0.3c3.2,1.1,4.8,4.9,3.6,8.4
				c-1,2.6-2.5,5-4.5,7C556.5,686,549.6,689.6,542,689.6z M539.3,634c-7.5,0.3-10.4,15.3-10.7,28.1v2.6l1.9-1.8
				c6.4-6.2,11.4-15.5,12.4-23c0.2-1.3,0.3-3.2-0.9-4.6c-0.6-0.7-1.5-1.2-2.5-1.2L539.3,634L539.3,634z"/>
			<path class="st1" d="M580.2,689.5c-1.2,0-2.4-0.3-3.4-0.9c-2.2-1.3-3.5-3.8-3.2-6.4c0.2-1.6,0.7-3.1,1.3-4.6
				c1-2.3,1.6-4.7,1.8-7.1c0.6-8.6,0.6-17.2,0.2-25.7c-0.2-4.5-0.7-8.8-1.2-13v-0.2c0-0.4-0.1-0.7-0.1-1.1c-0.2-1.8-0.3-3.6-1.8-5.2
				c-0.2-0.3-0.5-0.5-0.8-0.8c-0.6-0.5-1-1.1-1.3-1.7c-0.5-1.7-0.3-3.5,0.5-5.1c0.8-1.5,2.2-2.6,3.8-3c0.8-0.2,1.6-0.3,2.3-0.3
				c1.4-0.1,2.8,0.5,3.8,1.5c2,2,2.6,5.2,3.1,7.7l0.4,2.1l1.4-1.6c1.6-1.8,3.5-3.4,5.5-4.8c2.7-1.7,5.9-2.7,9.2-2.7
				c2.6,0,5.2,0.6,7.5,1.8c1.8,0.9,3.3,2.3,4.5,3.9c3.3,4.6,4.2,10.5,2.4,15.8c-1.2,3.9-3.9,8-7.8,8l0,0c-0.5,0-1-0.1-1.5-0.2
				c-1.9-0.4-3.5-1.7-4.3-3.4c-0.8-1.6-0.8-3.5,0.2-5c0.3-0.5,0.7-0.9,1.1-1.3c1-0.6,1.6-1.6,1.9-2.7c0.5-2.3-0.1-4.4-1.5-5.5
				c-0.7-0.6-1.6-0.9-2.5-0.8c-1.5,0.1-2.9,0.7-4.1,1.7c-2.8,2.4-4.9,5.4-6.3,8.7c-2.3,5.2-3.5,11.2-3.5,18.4
				c-0.1,8.2-0.3,15-0.7,21.1l-0.1,1.1c-0.1,2.3-0.2,4.1-0.5,6C586,687.4,583.3,689.6,580.2,689.5z"/>
			<path class="st1" d="M675.6,694c-1.2,0-2.4-0.4-3.4-1c-2.3-1.4-3.6-4-3.3-6.7c0.2-1.1,0.7-2.1,1.3-3c0.3-0.5,0.6-1.1,0.9-1.6
				c0.5-1.1,0.9-2.3,1.1-3.5c0.5-3.1,0.9-6.3,1-9.5c0.1-1.2,0.1-2.3,0.2-3.5c0.3-3.6,0.4-6.4,0.4-9.6c0-1.9,0.1-3.9,0.2-6.3
				c0.2-5.5-0.5-7.5-1.2-9.2c-0.5-1.2-0.8-2.5-0.7-3.8c0.1-2.1,0.8-3.3,2.8-4.5c1.1-0.7,2.4-1.2,3.7-1.2c3.3,0,6.1,2.8,6.5,6.5
				c0.1,2.1,0.1,4.3,0,6.4c-0.2,3.6-0.2,6.2-0.3,8.7c-0.1,3.5-0.2,6.7-0.5,11.7c-0.3,4.3-0.7,8.5-1.1,12.8c-0.1,1-0.1,2-0.2,3
				c-0.1,2.9-0.4,5.7-1.1,8.5c-0.5,2-1.7,3.7-3.4,4.9C677.7,693.8,676.6,694,675.6,694z"/>
			<path class="st1" d="M680.4,624.5c-4,0-7.2-4.1-7.2-9.2s3.2-9.2,7.2-9.2s7.2,4.1,7.2,9.2S684.3,624.5,680.4,624.5z"/>
			<path class="st1" d="M771.9,632c-0.4,0-0.9-0.1-1.3-0.2c-1.9-0.5-3.4-1.8-4.2-3.6c-1-2.1-1.2-4.5-0.6-6.7c1-4.2,4.2-7.2,7.6-7.2
				c0.4,0,0.9,0.1,1.3,0.2c1.9,0.5,3.4,1.8,4.2,3.6c1,2.1,1.2,4.5,0.6,6.7C778.5,628.9,775.3,632,771.9,632z"/>
		</g>
	</g>
</g>
</svg>
