<svg id="Layer_1" data-name="Layer 1" xmlns="http://www.w3.org/2000/svg" viewBox="0 0 1080 1080"><defs><style>.cls-1{opacity:0.75;}.cls-2{fill:#fff;}</style></defs><title>WGBH_impact-report_digital_logo-farm_v1</title><g class="cls-1"><path class="cls-2" d="M547.82,553.77a1.14,1.14,0,0,1,1.21-1.19H580.8c17.75,0,26,8.71,26,21.61,0,8.83-4.08,14.32-9.48,17.3v.24c5.41,2,10.91,8.73,10.91,18.38,0,16-10.66,23.64-28.29,23.64H549a1.13,1.13,0,0,1-1.21-1.19Zm30.84,32c6.69,0,10.65-3.61,10.65-9.56s-4-9.44-10.66-9.44H566.16a.64.64,0,0,0-.71.73V585c0,.5.25.74.71.74Zm-12.49,33.79h13.44c7.2,0,11-3.83,11-10.15s-3.84-10.16-11-10.16H566.16a.63.63,0,0,0-.71.7v18.87A.65.65,0,0,0,566.16,619.58Z"/><path class="cls-2" d="M618.13,615.38c-1.8-5.62-2.28-10.15-2.28-22.21s.48-16.6,2.28-22.19c4.19-13.16,15.49-19.7,29.76-19.71s25.54,6.54,29.74,19.7c1.78,5.59,2.27,10.15,2.27,22.19s-.49,16.59-2.27,22.21c-4.2,13.14-15.49,19.7-29.74,19.7S622.32,628.52,618.13,615.38Zm42.57-4.78c1-2.86,1.31-6.8,1.31-17.43s-.34-14.55-1.32-17.43c-1.79-5.61-6.11-9-12.81-9s-11,3.34-12.85,9c-.95,2.89-1.31,6.81-1.31,17.43s.37,14.57,1.32,17.43c1.81,5.63,6.12,9,12.85,9S658.91,616.23,660.7,610.6Z"/><path class="cls-2" d="M686.42,624a1.44,1.44,0,0,1-.11-2l9.1-10.38a1.19,1.19,0,0,1,1.8-.13c5.39,4.3,12.71,8.37,21.33,8.37s13.33-4,13.33-9.68c0-4.78-2.87-7.75-12.6-9.08l-4.32-.58c-16.55-2.28-25.79-10-25.79-24.38,0-14.92,11.27-24.82,28.9-24.82,10.81,0,20.88,3.21,27.7,8.48.74.47.84,1,.25,1.8l-7.31,10.85a1.19,1.19,0,0,1-1.67.36c-6.26-4-12.25-6.21-19-6.21-7.19,0-10.91,3.72-10.91,8.84,0,4.65,3.36,7.64,12.71,9l4.32.6c16.79,2.26,25.66,9.89,25.66,24.59s-10.91,25.54-32,25.55C705.12,635.07,692.75,630.06,686.42,624Z"/><path class="cls-2" d="M775.3,633.75a1.13,1.13,0,0,1-1.19-1.19V568.92a.62.62,0,0,0-.71-.71H752.76a1.14,1.14,0,0,1-1.2-1.2V553.76a1.13,1.13,0,0,1,1.2-1.19h60.32a1.14,1.14,0,0,1,1.21,1.19V567a1.15,1.15,0,0,1-1.21,1.2H792.45a.63.63,0,0,0-.72.71v63.64a1.12,1.12,0,0,1-1.21,1.19Z"/><path class="cls-2" d="M819.13,615.37c-1.81-5.62-2.29-10.15-2.29-22.21s.48-16.6,2.29-22.19c4.17-13.16,15.46-19.7,29.73-19.71S874.4,557.8,878.6,571c1.79,5.59,2.27,10.15,2.27,22.19s-.48,16.59-2.27,22.21c-4.2,13.14-15.47,19.7-29.74,19.7S823.3,628.51,819.13,615.37Zm42.57-4.78c1-2.86,1.31-6.8,1.31-17.43s-.35-14.55-1.31-17.43c-1.8-5.61-6.11-9-12.84-9s-11.05,3.34-12.83,9c-.95,2.89-1.31,6.81-1.31,17.43s.37,14.57,1.32,17.43c1.78,5.63,6.11,9,12.83,9S859.89,616.22,861.69,610.59Z"/><path class="cls-2" d="M891.35,553.76a1.13,1.13,0,0,1,1.19-1.19h14.41a2.31,2.31,0,0,1,2,1.19l28.76,51.09h.62V553.75a1.12,1.12,0,0,1,1.18-1.19h13.54a1.15,1.15,0,0,1,1.23,1.19v78.8a1.14,1.14,0,0,1-1.23,1.19H938.85a2.07,2.07,0,0,1-2-1.19l-28.92-51h-.6v51a1.13,1.13,0,0,1-1.19,1.19H892.55a1.12,1.12,0,0,1-1.19-1.19Z"/><path class="cls-2" d="M478.08,545.29a1.2,1.2,0,0,1,.12-1.87l7.9-7.9a1.26,1.26,0,0,1,2,0,19.81,19.81,0,0,0,14,6c9.9,0,14.46-5.37,14.46-15.4v-6h-.16c-2.93,4.56-8.41,7.49-16.71,7.49-10.84,0-18.6-5.48-21.94-15.65-1.61-5-2.13-9.36-2.13-16.45s.53-11.37,2.13-16.31c3.35-10.31,11.1-15.8,21.94-15.8,8.3,0,13.78,2.95,16.71,7.62h.16v-4.81a1.27,1.27,0,0,1,1.33-1.34h12.3a1.28,1.28,0,0,1,1.34,1.34v59.15c0,18.44-10.29,29.55-30.09,29.56C492.53,554.92,483,551.18,478.08,545.29Zm37.05-39.2a30.07,30.07,0,0,0,1.48-10.57,31,31,0,0,0-1.48-10.57c-1.74-5.22-5.35-8.16-11.51-8.16s-9.63,2.95-11.36,8.17a30.69,30.69,0,0,0-1.48,10.57,29.77,29.77,0,0,0,1.48,10.57c1.73,5.34,5.34,8.29,11.36,8.29S513.39,511.43,515.13,506.09Z"/><path class="cls-2" d="M549.14,529.36a1.26,1.26,0,0,1-1.33-1.34V466.21a1.27,1.27,0,0,1,1.33-1.34h12.31a1.28,1.28,0,0,1,1.34,1.34v5.49h.13c3.08-5,8.56-8.31,16.72-8.31a19.54,19.54,0,0,1,13.52,5.35c.67.67.81,1.2.27,1.88l-7.08,9a1.21,1.21,0,0,1-1.87.28,17.47,17.47,0,0,0-9.51-3.09c-8.43,0-12.18,6-12.17,16.33V528a1.27,1.27,0,0,1-1.34,1.34Z"/><path class="cls-2" d="M598.55,512.9a50,50,0,0,1-2.27-15.78,51.18,51.18,0,0,1,2.14-15.92c3.6-11.25,13.5-17.81,26.35-17.81,13.25,0,22.88,6.83,26.49,17.81,1.47,4.54,2.13,9,2.14,19.4a1.3,1.3,0,0,1-1.47,1.33H612.21a.72.72,0,0,0-.82.81,14.31,14.31,0,0,0,.94,4.94c2.13,6.31,7.23,9.78,14.45,9.78s11.91-2.69,15.12-6.16c.68-.67,1.34-.8,2-.27l7.9,7a1.21,1.21,0,0,1,.12,1.88c-5.48,6.42-14.57,11-26.48,11C611.8,530.84,602.17,524.14,598.55,512.9Zm38.93-28.49c-1.74-5.22-6.55-8.3-12.58-8.3s-11,3.09-12.7,8.3a16.08,16.08,0,0,0-.82,5.48.72.72,0,0,0,.82.8h25.28a.72.72,0,0,0,.81-.8A16.27,16.27,0,0,0,637.48,484.41Z"/><path class="cls-2" d="M704.53,529.35A1.27,1.27,0,0,1,703.2,528v-4.68h-.13c-3.08,4.43-9.09,7.5-18.2,7.5-11.77,0-21.68-6.15-21.68-19.68,0-14,9.91-20.46,25.83-20.46h13.1a.72.72,0,0,0,.81-.8v-3.07c0-7.36-3.48-10.71-14.32-10.71-7.22,0-11.65,2-14.72,4.41a1.19,1.19,0,0,1-1.87-.26l-4.95-8.84a1.23,1.23,0,0,1,.26-1.73c5.21-3.75,12.31-6.3,22.88-6.3,19.67,0,26.9,6.68,26.9,22.49V528a1.26,1.26,0,0,1-1.34,1.34Zm-1.6-21.68v-4.94a.72.72,0,0,0-.81-.81H691.43c-9.65,0-13.92,2.68-13.92,8.7,0,5.34,3.89,8,11.11,8C697.85,518.65,702.94,515,702.94,507.67Z"/><path class="cls-2" d="M751.67,530.16c-13,0-17.92-6.31-17.92-18.87v-34a.71.71,0,0,0-.8-.8h-4.28a1.26,1.26,0,0,1-1.34-1.34v-9a1.27,1.27,0,0,1,1.34-1.34h4.28a.7.7,0,0,0,.8-.79V446.41a1.26,1.26,0,0,1,1.33-1.34h12.32a1.26,1.26,0,0,1,1.34,1.34v17.66a.7.7,0,0,0,.8.79h8.57a1.28,1.28,0,0,1,1.34,1.34v9a1.28,1.28,0,0,1-1.34,1.34h-8.57a.71.71,0,0,0-.8.8v33.44c0,4.56,1.86,6,6,6h3.35a1.27,1.27,0,0,1,1.34,1.33v10.71a1.28,1.28,0,0,1-1.34,1.35Z"/><path class="cls-2" d="M771.24,512.89A49.72,49.72,0,0,1,769,497.11a51.19,51.19,0,0,1,2.14-15.92c3.61-11.25,13.52-17.81,26.36-17.81,13.24,0,22.87,6.83,26.5,17.81,1.47,4.54,2.13,9,2.13,19.4a1.3,1.3,0,0,1-1.46,1.33H784.88a.71.71,0,0,0-.8.81,14.1,14.1,0,0,0,.94,4.94c2.13,6.31,7.22,9.78,14.45,9.78s11.9-2.69,15.11-6.16c.68-.67,1.34-.8,2-.27l7.9,7a1.22,1.22,0,0,1,.14,1.88c-5.48,6.42-14.59,11-26.49,11C784.48,530.83,774.85,524.13,771.24,512.89Zm38.93-28.49c-1.74-5.22-6.56-8.3-12.59-8.3s-11,3.09-12.7,8.3a16.45,16.45,0,0,0-.8,5.48.72.72,0,0,0,.8.8h25.29a.71.71,0,0,0,.8-.8A16.46,16.46,0,0,0,810.17,484.4Z"/><path class="cls-2" d="M840.16,529.34a1.26,1.26,0,0,1-1.33-1.34V466.19a1.28,1.28,0,0,1,1.33-1.34h12.32a1.28,1.28,0,0,1,1.34,1.34v5.49h.12c3.08-5,8.57-8.31,16.73-8.31a19.57,19.57,0,0,1,13.52,5.35c.66.67.8,1.2.26,1.88l-7.08,9a1.23,1.23,0,0,1-1.88.28,17.39,17.39,0,0,0-9.49-3.09c-8.43,0-12.17,6-12.17,16.33V528a1.27,1.27,0,0,1-1.34,1.34Z"/><path class="cls-2" d="M249.67,567H182v26.32h17.11v14.64c0,7.58-4.38,12.81-16.55,12.81s-16.53-9.24-16.53-13.61.24-50,.24-55.35,4.11-14.09,16.83-14.09,16.78,6.78,16.78,14.66h49.74Zm71.25,49.64H302.25V593.88h18.67c7.64,0,12.22,4.63,12.22,11.61S327.74,616.6,320.92,616.6Zm-18.67-53.71V540.42h17.89c7.61,0,12.26,4.3,12.26,11.34s-5.44,11.13-12.26,11.13Zm127.78-43c6.1,2.38,12.76,6.41,16.25,17.22a41.87,41.87,0,0,1,0,26.08c-2.37,5-5.12,9.31-9.2,12.71l-57.54,57.52a33.41,33.41,0,0,0,6.29-35.81c-4.65-14.42-14.93-16.79-22-19.25,6.8-1.12,17.93-7.11,22-16.61,0,0,5.06-10.41,0-25.71-5.42-16-16-24.81-43.39-24.81H249.67v19.65c-7.9-9.27-27.45-24-69.48-24-26.84,0-42.61,4.31-54.52,13L174.76,470c13.66-16,29.74-23.6,65.9-23.6,29.2,0,47.57,7.08,58.7,14.52l10.73-10.25h92.79c27.36,0,38,8.81,43.38,24.83,5.1,15.35,0,25.73,0,25.73a24.56,24.56,0,0,1-5.49,7.79Z"/></g></svg>