<svg id="Layer_1" data-name="Layer 1" xmlns="http://www.w3.org/2000/svg" viewBox="0 0 1080 1080"><defs><style>.cls-1{opacity:0.75;}.cls-2{fill:#fff;}</style></defs><title>WGBH_impact-report_digital_logo-farm_v1</title><g class="cls-1"><path class="cls-2" d="M582.73,598.07l-432.54,0s-2.42.21-2.42,2.45,2.42,2.33,2.42,2.33l432.54,0s.48,0,.48-2.14S582.73,598.07,582.73,598.07Z"/><path class="cls-2" d="M660.93,598.07s-.48.53-.48,2.52.48,2.27.48,2.27H900a2.35,2.35,0,0,0,2.24-2.33,2.51,2.51,0,0,0-2.24-2.45Z"/><path class="cls-2" d="M264.4,570.82a21.49,21.49,0,0,1-7.12-1.23c-3.44-1.1-4.59-4.67-5.63-12.41l-10.45-76c-.34-2.58-1-3.81-2.07-3.81s-1.72,1-2.53,2.95l-31.23,70.18L174,481.23c-1.49-3.19-2.18-3.81-3.1-3.81s-1.61,1.11-2,3.19L157.6,560.75c-.57,4.17-1.49,9-4.7,9.7a13.83,13.83,0,0,1-3.45.37c-1.15,0-1.84.25-1.84.87,0,1.1.92,1.35,2.07,1.35,3.68,0,9.19-.37,11.37-.37s7.24.37,12.06.37c1.72,0,2.76-.25,2.76-1.35,0-.62-.81-.87-1.72-.87a20.68,20.68,0,0,1-4.82-.61c-2-.5-3.44-1.6-3.44-3.93a52.69,52.69,0,0,1,.34-5.77l6-48.92h.46c4,9.22,10.91,24.7,11.94,27.29,1.38,3.44,10.45,22.24,13.21,27.89,1.84,3.69,3,6.15,4,6.15s1.61-1.1,4.25-6.88l25-55.8h.46l6.89,54.07a19.1,19.1,0,0,1,.17,3.3c-.61,2.11-1.24,2.48-3.2,2.93a14,14,0,0,1-3.44.36c-1.15,0-1.84.25-1.84.87,0,1.1.92,1.35,2.07,1.35,2.2,0,5.05-.13,7.46-.24l.27,0c4.6.37,20.44.12,23.32.12,1.61,0,3-.37,3-1.35C266.23,570.95,265.43,570.82,264.4,570.82Z"/><path class="cls-2" d="M261.82,573c-.82,0-2.33,0-2.34-1.45,0-.84.56-1.26,1.65-1.26a29.72,29.72,0,0,0,3-.19c4-.52,5.82-3.27,7.91-8.49l24.49-61.3c1.21-2.93,1.87-4.21,3.17-4.21s1.88,1.1,2.88,3.41,4.62,11.36,8.77,21.78c5.31,13.32,11.92,29.89,15.44,38.25s6.12,9.85,8.26,10.36a21.53,21.53,0,0,0,4,.37c.52,0,1.75,0,1.75,1.26s-1.44,1.45-5,1.45h-.53c-4.72,0-11,0-17.94-.2l-.43,0c-1.72-.09-3-.15-3-1.24s1.17-1.29,1.8-1.36a1.05,1.05,0,0,0,.51-.51,1.28,1.28,0,0,0,0-1.07l-7.81-20.71c-.13-.32-.26-.38-.53-.38H286.12c-.22,0-.27,0-.43.46l-5.27,14a18.44,18.44,0,0,0-1.44,5.79c0,1.26.41,2.54,3.42,2.55h1.47c.73,0,1.94,0,1.94,1.26,0,1.45-1.5,1.46-2.14,1.46-1.58,0-3.46-.08-5.28-.15s-3.58-.14-5.07-.14c-.34,0-1.1,0-2.14.07-2.35.09-5.9.22-9.38.22ZM306,541.71l-8.77-24.08-.07-.29a2.36,2.36,0,0,0-.08.26l-9,24.07v0Z"/><path class="cls-2" d="M358.45,574.39c-6,0-10.35-.77-14.44-2.58-1.76-.78-2.14-1.45-2.14-3.76,0-5,.34-10.41.46-12.44l0-.37c.06-.9.21-3,1.65-3s1.45,1.61,1.45,2.14a20,20,0,0,0,.86,4.84c2.46,8.28,9.51,9.52,13.5,9.52,4.92,0,7.88-1.9,9.5-3.49a10.17,10.17,0,0,0,3.1-7.16c0-4.81-1.6-9.24-9.38-15.24l-4.49-3.51c-10.26-8-14.63-15-14.63-23.51a17.39,17.39,0,0,1,6.36-13.62c4.19-3.47,9.95-5.31,16.67-5.31a48,48,0,0,1,13.1,1.68c.5.11,1.72.38,1.72,1.63,0,.37,0,.88-.08,1.6-.12,1.76-.31,4.71-.31,10.11,0,1.72-.12,3.4-1.55,3.4a1.26,1.26,0,0,1-1.17-.69,3.27,3.27,0,0,1-.29-1.54,11.44,11.44,0,0,0-2.43-6.14c-1.56-2-4.32-4.6-10.26-4.6a12.09,12.09,0,0,0-8.2,2.71,8.9,8.9,0,0,0-2.94,6.87c0,4.52,2.47,7.84,10.16,13.67l2.73,2.05c12,9.26,16.2,15.88,16.2,25.27a20.22,20.22,0,0,1-9.39,17.38c-4.29,2.75-9.45,4.08-15.78,4.08Z"/><path class="cls-2" d="M412.92,573c-1.61,0-2.43-.49-2.43-1.45s.69-1.26,2-1.26a15.72,15.72,0,0,0,3.41-.38c1.43-.29,2.12-1.68,2.46-5,.49-4.08.49-11.8.49-20.74V504.71l-14.06.38c-5.86.2-7.81.77-9.08,2.63a11,11,0,0,0-1.59,3.26c-.1.42-.38,1.53-1.54,1.53-1.36,0-1.36-1.43-1.36-2,0-1.69,1.91-10.73,2.07-11.34.25-1.12.59-2.21,1.63-2.21a3.2,3.2,0,0,1,1.25.37,8.45,8.45,0,0,0,3,.8c2.9.3,6.61.49,9.71.49h38.66a35.88,35.88,0,0,0,8.29-.8,5.81,5.81,0,0,1,1.07-.18c1.26,0,1.26,1.34,1.26,2.53,0,1-.07,3-.14,5.15-.08,2.39-.16,4.85-.16,6.18-.06.64-.19,2-1.35,2-1.39,0-1.48-1.33-1.55-2.4l-.1-1.06c-.23-3-4.26-4.88-11.05-5L432,504.71v39.53c0,8.94,0,16.67.49,20.83.31,2.9.94,4.52,3.4,4.85a41.55,41.55,0,0,0,4.91.38c1.78,0,2,.79,2,1.26s-.23,1.45-2.33,1.45c-3.92,0-7.69-.11-10.71-.19-1.94-.05-3.54-.1-4.61-.1s-2.64.05-4.59.12c-2.57.08-5.49.18-7.71.18Z"/><path class="cls-2" d="M508.55,573.31c-9.07,0-14.92-.22-19.62-.39-2.9-.11-5.19-.19-7.39-.19-1,0-2.63.05-4.56.12-2.58.08-5.5.18-7.73.18-1.61,0-2.43-.49-2.43-1.45,0-1.26,1.53-1.26,2-1.26a15.64,15.64,0,0,0,3.41-.38c1.54-.31,2-1.92,2.46-5,.49-4.06.49-11.78.48-20.72V527.05c0-14.88,0-17.56-.2-20.66-.19-3.39-1-4.54-3.82-5.13a19.39,19.39,0,0,0-3.69-.28c-.6,0-2.15,0-2.15-1.36s1.71-1.36,2.63-1.36c3,0,6.4.1,9.13.18,2,.06,3.78.11,4.93.11,5.28,0,22.65,0,24.37-.1a38.5,38.5,0,0,0,4.11-.57,5.16,5.16,0,0,0,.55-.16,3.7,3.7,0,0,1,1.13-.24c.4,0,1.06.18,1.06,1.36a5.73,5.73,0,0,1-.14,1,39.6,39.6,0,0,0-.64,5.37c0,.37-.08,1.14-.14,2-.1,1.63-.23,3.67-.35,4.44-.08.38-.31,1.48-1.45,1.48-1.36,0-1.36-1.39-1.36-1.85a10,10,0,0,0-.55-3.33c-.59-1.53-1.38-2.65-6.16-3.23-1.64-.19-12-.38-13.8-.38-.12,0-.2,0-.2.5v24.7c0,.46.05.55.07.57h0a.38.38,0,0,0,.13,0c8.65,0,14.16-.07,15.58-.19,2.18-.18,3.6-.45,4.37-1.31l.14-.16c.67-.76,1.1-1.26,1.78-1.26a1.13,1.13,0,0,1,1.16,1.26,6.31,6.31,0,0,1-.12.92,53,53,0,0,0-.66,6.23c-.19,1.92-.39,5.84-.39,6.52s0,2.33-1.36,2.33a1.32,1.32,0,0,1-1.06-.43,1.41,1.41,0,0,1-.3-.93c0-.25-.05-.57-.07-.91a16.18,16.18,0,0,0-.31-2.49c-.34-1.38-1.23-3-5-3.43-1.85-.2-11.62-.29-13.81-.29-.06,0-.11.1-.11.5v7.71c0,1,0,2.39,0,4,0,4.05,0,9.1,0,11.1.18,6.27,1.24,7.73,11.23,7.73,2.45,0,6.54,0,9-1.12s3.45-2.94,4.12-6.87c.15-.83.34-1.86,1.55-1.86s1.25,1.24,1.25,2.23a75.66,75.66,0,0,1-1.28,11c-.78,2.9-2,2.9-5.74,2.9Z"/><path class="cls-2" d="M609.05,573c-1.61,0-2.43-.49-2.43-1.45,0-1.26,1.53-1.26,2-1.26a15.53,15.53,0,0,0,3.41-.38c1.55-.31,2-1.92,2.46-5,.48-4.06.48-11.77.48-20.7V527c0-14.88,0-17.56-.2-20.66-.2-3.39-1.05-4.54-3.82-5.13a19.55,19.55,0,0,0-3.7-.28c-.59,0-2.15,0-2.15-1.36s1.71-1.36,2.63-1.36c3,0,6.4.1,9.12.18,2,.06,3.78.11,4.92.11,1.94,0,4.24-.07,6.68-.14s5.16-.15,7.48-.15c12.4,0,16.82,4.13,18.49,5.69a17.55,17.55,0,0,1,5,12,23.93,23.93,0,0,1-7,17.35A24.81,24.81,0,0,1,635,540a14,14,0,0,1-2.14-.1c-.56-.11-1.56-.31-1.56-1.35,0-1.44,1.59-1.56,3.21-1.56,5.26,0,12.6-5.95,12.6-15.63,0-4-.58-9.8-5.6-14.29a14,14,0,0,0-9.44-3.68,13,13,0,0,0-3.65.37c-.39.16-.45.95-.45,1.4v39c0,8.94,0,16.67.48,20.83.31,2.9.94,4.52,3.39,4.85a41.7,41.7,0,0,0,4.92.38c1.78,0,2,.79,2,1.26s-.23,1.45-2.33,1.45c-4,0-7.76-.11-10.79-.19-1.85-.05-3.36-.1-4.34-.1s-2.63.05-4.56.12C614.21,572.92,611.28,573,609.05,573Z"/><path class="cls-2" d="M673,573c-1.61,0-2.43-.49-2.43-1.45,0-1.26,1.53-1.26,2-1.26a15.76,15.76,0,0,0,3.42-.38c1.5-.3,2.14-1.47,2.46-4.46.48-4.08.48-11.65.48-21.23V527c0-14.88,0-17.56-.19-20.66s-1-4.59-3-5a13.21,13.21,0,0,0-3.4-.38c-.56,0-2,0-2-1.46,0-1.26,1.84-1.26,2.83-1.26,2,0,4.63.08,7.17.16,2.17.07,4.21.13,5.53.13,1.08,0,2.87-.06,4.76-.12,2.38-.08,5.08-.17,7.14-.17.69,0,2.53,0,2.53,1.26,0,1.46-1.54,1.46-2,1.46a16.09,16.09,0,0,0-2.85.28c-2.24.41-3,1.66-3.21,5.12-.2,3.11-.2,5.79-.2,20.67v17.18c0,9.58,0,17.16.39,21.33.3,2.61.92,4,3.49,4.35a41.69,41.69,0,0,0,4.92.38c1.77,0,2,.79,2,1.26s-.23,1.45-2.33,1.45c-4,0-7.72-.11-10.75-.19-1.9-.05-3.45-.1-4.47-.1s-2.64.05-4.59.12c-2.57.08-5.49.18-7.72.18Z"/><path class="cls-2" d="M756.43,573.29c-9.06,0-14.92-.22-19.62-.39-2.9-.11-5.19-.19-7.39-.19-1,0-2.64.05-4.58.12-2.58.08-5.5.18-7.72.18-1.61,0-2.43-.49-2.43-1.45s.69-1.26,2-1.26a15.64,15.64,0,0,0,3.41-.38c1.54-.31,2-1.92,2.46-5,.48-4.06.48-11.78.48-20.72V527c0-14.88,0-17.56-.19-20.66s-.78-4.48-3.82-5.13a19.57,19.57,0,0,0-3.71-.28c-.59,0-2.14,0-2.14-1.36s1.71-1.36,2.63-1.36c3,0,6.39.1,9.12.18,2,.06,3.78.11,4.93.11,5.29,0,22.65,0,24.39-.1a39.12,39.12,0,0,0,4.11-.57,5.13,5.13,0,0,0,.55-.16,3.7,3.7,0,0,1,1.13-.24c.48,0,1.06.24,1.06,1.36a5.85,5.85,0,0,1-.14,1,41.21,41.21,0,0,0-.64,5.36c0,.34-.08,1.05-.13,1.89-.1,1.7-.23,3.81-.37,4.6-.19,1-.67,1.47-1.44,1.47-1.36,0-1.36-1.39-1.36-1.85a10.24,10.24,0,0,0-.54-3.33c-.6-1.53-1.39-2.65-6.16-3.23-1.57-.18-11.63-.38-13.8-.38a.28.28,0,0,0-.12,0s-.08.08-.08.48v24.7c0,.46.05.56.07.58h.12c8.49,0,14.17-.07,15.58-.19,2.18-.18,3.59-.45,4.36-1.31l.13-.15c.67-.77,1.11-1.28,1.79-1.28a1.13,1.13,0,0,1,1.16,1.26,6.26,6.26,0,0,1-.12.92,52.66,52.66,0,0,0-.67,6.23c-.19,2-.39,5.89-.39,6.52s0,2.33-1.35,2.33a1.25,1.25,0,0,1-1.36-1.36c0-.22,0-.51-.06-.81a15.79,15.79,0,0,0-.31-2.6c-.35-1.38-1.24-3-5.06-3.44-1.74-.19-11-.29-13.79-.29-.07,0-.12.1-.12.5v7.71c0,1,0,2.39,0,4,0,4.05-.06,9.1,0,11.1.18,6.27,1.23,7.73,11.23,7.73,2.45,0,6.54,0,9-1.12s3.44-2.94,4.12-6.87c.16-.83.35-1.86,1.55-1.86s1.26,1.24,1.26,2.23a76,76,0,0,1-1.29,11c-.78,2.9-2,2.9-5.73,2.9Z"/><path class="cls-2" d="M820.18,574.37c-14.59,0-25.33-3.42-33.79-10.76-8.14-7.15-12.27-17-12.27-29.16,0-3.87.83-17.25,11.57-27.1,7.79-7.14,17.7-10.47,31.17-10.47a97.35,97.35,0,0,1,14.22,1c1.8.24,3.43.56,5,.87s3.24.64,4.74.79c1.7.15,1.89,1.2,1.89,1.65a11,11,0,0,1-.12,1.29c-.1.82-.26,2.06-.37,4.11-.09,1.57-.12,3.62-.14,5.6s0,3.95-.15,5-.18,2.68-1.65,2.68-1.45-1.78-1.45-2.63a13.5,13.5,0,0,0-3.67-8.64c-3.34-3.54-11.16-5.91-19.47-5.91-8,0-13.52,1.83-18,5.93-6,5.52-8.82,13.44-8.82,24.92,0,13.82,9.62,34.27,30.26,34.27,8.36,0,13.63-.85,17.51-5.31a15.82,15.82,0,0,0,3.21-6.23c.27-1.44.5-2.33,1.74-2.33.41,0,1.36.19,1.36,1.94a92.52,92.52,0,0,1-2.17,13.12,3.91,3.91,0,0,1-2.81,3.14c-4.21,1.68-11.93,2.28-17.75,2.28Z"/><path class="cls-2" d="M896.2,573.29c-9.07,0-14.92-.22-19.62-.39-2.9-.11-5.18-.19-7.39-.19-1,0-2.65.05-4.59.12-2.57.08-5.49.18-7.72.18-1.61,0-2.43-.49-2.43-1.45s.69-1.26,2-1.26a15.57,15.57,0,0,0,3.41-.38c1.54-.31,2-1.92,2.46-5,.48-4.06.48-11.78.48-20.72V527c0-14.88,0-17.56-.2-20.66-.2-3.39-1.05-4.54-3.82-5.13a19.56,19.56,0,0,0-3.71-.28c-.59,0-2.14,0-2.14-1.36s1.71-1.36,2.63-1.36c3,0,6.4.1,9.12.18,2,.06,3.78.11,4.93.11,5.29,0,22.66,0,24.38-.1a38.39,38.39,0,0,0,4.11-.57,5.22,5.22,0,0,0,.55-.16,3.73,3.73,0,0,1,1.13-.25c.4,0,1.06.18,1.06,1.36a5.78,5.78,0,0,1-.14,1,40.31,40.31,0,0,0-.64,5.37c0,.38-.09,1.18-.15,2.11-.1,1.61-.22,3.62-.35,4.38-.19,1-.67,1.47-1.45,1.47-1.36,0-1.36-1.39-1.36-1.85a10.1,10.1,0,0,0-.54-3.33c-.6-1.53-1.38-2.65-6.16-3.23-1.57-.18-11.63-.38-13.8-.38-.13,0-.22,0-.22.5v24.7c0,.46.05.55.07.57h0a.38.38,0,0,0,.14,0c8.48,0,14.16-.07,15.58-.19,2.18-.18,3.6-.45,4.38-1.31l.13-.15c.67-.77,1.11-1.28,1.78-1.28a1.13,1.13,0,0,1,1.17,1.26,6.39,6.39,0,0,1-.12.93,54,54,0,0,0-.66,6.22c-.2,1.94-.4,5.81-.4,6.52a4.92,4.92,0,0,1-.13,1.36,1.22,1.22,0,0,1-1.22,1,1.24,1.24,0,0,1-1.36-1.36c0-.26-.06-.59-.08-1a16.37,16.37,0,0,0-.3-2.46c-.35-1.38-1.24-3-5-3.43-1.75-.19-11-.29-13.79-.29-.08,0-.13.1-.13.5v7.71c0,1,0,2.39,0,4,0,4.05,0,9.1,0,11.1.19,6.27,1.25,7.73,11.23,7.73,2.45,0,6.54,0,9-1.12s3.45-2.94,4.12-6.87c.16-.83.35-1.86,1.55-1.86s1.26,1.24,1.26,2.23a76.64,76.64,0,0,1-1.28,11c-.78,2.9-2,2.9-5.74,2.9Z"/><path class="cls-2" d="M631.27,602.82a42.84,42.84,0,0,1-22.08-6.46c-13.93-8.58-21.86-19.25-32.83-34l-.19-.25c-2.31-3.12-8.57-12.74-10.21-15.39-1.82-3-3.41-4.55-6.58-4.56l-2.42,0a13.36,13.36,0,0,0-2.62.13,5.13,5.13,0,0,0-.08,1.42v2.2c0,4.82.06,16.11.48,19.65.31,3,.9,4.55,3.29,4.86,1.36.19,3.92.39,4.77.39a1.3,1.3,0,0,1,1.47,1.27c0,.44-.22,1.46-2.26,1.46-4.22,0-9.3-.17-11.74-.26l-1.26,0-.72,0c-2.41.07-9.75.28-12.25.28-.62,0-2.26,0-2.26-1.46a1.3,1.3,0,0,1,1.46-1.27,25.4,25.4,0,0,0,3.77-.38c1.46-.29,1.94-1.87,2.36-4.89.49-4.11.49-12.13.49-21.41V526.62c0-15.43,0-18.21-.2-21.37-.2-3.38-1-4.46-3.73-5a26.44,26.44,0,0,0-3.9-.28,1.33,1.33,0,0,1-1.47-1.26c0-1.47,1.7-1.47,2.26-1.47,3.37,0,9.51.3,12.46.44l1.77.08c1.73,0,3.52,0,5.35-.07s3.84-.08,5.78-.08c4.63,0,10.56.2,15.44,1.8,7,2.29,11.37,8.2,11.68,15.79a23.11,23.11,0,0,1-6,16.43,42.48,42.48,0,0,1-4,3.74,14.85,14.85,0,0,0-2.75,2.72,61.73,61.73,0,0,0,4.32,7c1.86,2.71,3.57,5.31,5.23,7.83,4.88,7.39,9.49,14.37,16.1,21.74,7.59,8.48,14.35,14.13,21.93,18.33a36.09,36.09,0,0,0,16.78,4.7h.2a40.79,40.79,0,0,0,8.78-1.29,6.7,6.7,0,0,1,1.21-.24h.41l.22.38a.77.77,0,0,1-.06.77c-.58,1-5.35,5-16.6,5.53Q632.18,602.82,631.27,602.82Zm-76.87-66.66a28.72,28.72,0,0,0,3.87.54c1.76.18,3.29.33,4.7.33h0a14.54,14.54,0,0,0,4.25-.59c3.4-1,8.92-9.11,7.73-19.43-.9-7.74-5.68-11.2-7.7-12.33a16.94,16.94,0,0,0-8.21-1.87c-.75,0-1.35,0-1.72.06h-.25a8.71,8.71,0,0,0-2.7.78c-.24,1.75-.15,13.42-.1,19.79,0,2.19,0,4,0,5V533C554.29,534.22,554.33,535.61,554.39,536.16Z"/><path class="cls-2" d="M932.29,564.83a8.4,8.4,0,1,1-8.4-8.39A8.41,8.41,0,0,1,932.29,564.83Zm-1.37,0a7,7,0,1,0-7,7.28A7,7,0,0,0,930.92,564.83Z"/><path class="cls-2" d="M925.46,565.38a2.55,2.55,0,0,0,2.2-2.64c0-1.7-.95-2.63-3.08-2.63H921v9.49h1.28v-4.22h1.84l2.58,4.22h1.46Zm-1.73-1.08h-1.5v-3.11h2.09c1,0,2.06.19,2.06,1.52C926.38,564.37,925,564.3,923.72,564.3Z"/></g></svg>