<?xml version="1.0" encoding="utf-8"?>
<!-- Generator: Adobe Illustrator 21.1.0, SVG Export Plug-In . SVG Version: 6.00 Build 0)  -->
<svg version="1.1" id="Layer_1" xmlns="http://www.w3.org/2000/svg" xmlns:xlink="http://www.w3.org/1999/xlink" x="0px" y="0px"
	 viewBox="0 0 1080 1080" style="enable-background:new 0 0 1080 1080;" xml:space="preserve">
<style type="text/css">
	.st0{opacity:0.75;}
	.st1{opacity:0.5;fill:#FFFFFF;}
	.st2{fill:#FFFFFF;}
</style>
<title>WGBH_impact-report_digital_logo-farm_v1</title>
<g class="st0">
	<path class="st1" d="M507.6,733.6c-0.4-0.6-0.8-0.8-1-0.8c-1.1,0.1-2.1,2.6-4.3,2.7c-0.3,0-0.6,0-0.9-0.1c-2.5-0.5-3.1-2.4-5.2-2.3
		c-1,0.1-2.4,0.8-4.8,2.5c-3.8,2.9-5.8,6-5.7,10.7v0.9c0.2,6,3,11,11,11.4c0.5,0,1,0.1,1.5,0c5-0.3,8.4-3.3,11-8.1
		c1.2-2.3,1.8-5,1.5-7.6C510.6,739.5,509.5,736.3,507.6,733.6"/>
	<path class="st1" d="M672.7,754.2c-2.1,0.1-4.7-1-5.4-3.3c-1.1-4-1.8-8.1-2.1-12.2c-0.4-6.6,0.2-12.7-0.1-19.4
		c-0.2-3.8-0.8-7.6-1.8-11.4c-2.1-8.4-4.8-16.6-8.1-24.7c-0.2-0.4-0.3-0.8-0.3-1.2c-0.2-3.1,3.8-5,7.2-5.2c2.7-0.2,5.2,0.7,5.5,3.1
		c0.6,5.6,4.7,19.2,6.3,31.8c0.6,4.5,1,8.4,1.2,12.1c0.5,9.2,0.2,16.8,0.4,28C675.6,753.4,674.3,754.1,672.7,754.2 M653.5,761
		c-0.6,0-1.2-0.1-1.6-0.5c-7.8-5.9-10.5-12.1-13.5-21.4c-0.9-2.9-2.4-3.9-3.8-3.8c-1.4,0.2-2.6,0.9-3.5,2
		c-6.7,8.1-11.4,13.5-20.6,19.4c-2.6,1.8-5.6,2.9-8.7,3.2c-7.5,0.4-12.4-5.9-12.8-12.4c-0.2-2.4,0.4-4.8,1.6-6.9
		c6.8-11.6,16.4-17.4,26-22.7c2.4-1.4,5.1-2.3,7.8-2.7c1.9-0.2,3.9,0.4,5.4,1.7c1.4,1.2,2.6,2,3.7,1.9s1.9-0.7,3.2-2.5
		c0.6-0.8,1.5-1.4,2.5-1.5c2.2-0.1,4.7,1.7,5.8,3.7c4.4,8.6,0.5,29.9,12.2,32.5c1,0.2,1.4,1,1.5,2.1
		C658.9,755.9,656.3,760.7,653.5,761 M578.7,744.5c-3.4,13.9-14.3,18.7-26.9,24.7c-1.9,0.9-4,1.5-6.2,1.6c-3.2,0.2-6-0.8-6.1-3.7
		c-0.1-0.4-0.1-0.9,0-1.3c0.7-4.6,0.6-10.5,5.3-10.9h0.2c4-0.3,2.3,6.3,5.4,6.1c0.6-0.1,1.3-0.3,1.8-0.6c7.9-4,14.3-6.4,17.1-14.8
		c0.8-2,1.1-4.1,1.1-6.2c-0.2-3.7-2.6-6.8-9.8-8.1c-1-0.2-2.1-0.3-3.1-0.2c-5,0.3-9.6,3.6-11,8.2c-1.6,5.1-1.3,8.2-5.7,12.9
		c-1.4,1.5-3.3,2.4-5.3,2.6c-2.2,0.1-4-1-4.2-4.2c0-0.1,0-0.4,0-0.6c0.1-3.4,0.2-6.2,0-8.7c-0.3-4.9-1.3-9.2-3.7-16.4
		s-4.2-11.1-10.3-16.2c-1-0.8-1.6-2-1.7-3.3c-0.2-3.6,3.4-7.7,6-7.9c0.7-0.1,1.3,0.2,1.8,0.8c4.6,5.5,11.5,16,14.3,26.5
		c0.5,1.5,0.9,3.5,2.5,3.4c1.2-0.2,2.3-0.8,3-1.8c4-3.9,8.4-6.3,13.2-6.6c2.5-0.1,5.1,0.3,7.5,1.2c8.5,3.2,14.8,9.2,15.3,17.6
		C579.4,740.5,579.2,742.5,578.7,744.5 M517.4,744.7c-1.9,11.6-9.1,22.2-20,22.8c-1,0-2.1,0-3.1-0.1c-10-1.1-18.1-10.3-18.4-18.5
		v-0.4c-0.4-9,4.1-15,11.4-20.2c4.4-3.1,6.9-4.5,10.2-8.3c1.5-1.9,3.7-3.2,6.1-3.4c2.6-0.2,5.1,1.4,6.1,3.8
		c2.7,6.5,7.5,12.4,7.9,19.9C517.8,741.7,517.7,743.2,517.4,744.7 M460.6,766.3c-2.1,0.1-4.7-1-5.4-3.2c-1.1-4-1.8-8.1-2.1-12.2
		c-0.4-6.6,0.2-12.7-0.1-19.4c-0.2-3.8-0.8-7.6-1.8-11.4c-2.1-8.4-4.8-16.6-8.1-24.7c-0.2-0.4-0.3-0.8-0.3-1.2
		c-0.2-3.1,3.8-5,7.2-5.2c2.7-0.2,5.2,0.7,5.5,3.1c0.6,5.6,4.7,19.2,6.3,31.8c0.6,4.5,1,8.4,1.2,12.1c0.5,9.2,0.2,16.8,0.4,28
		C463.5,765.4,462.1,766.1,460.6,766.3 M440.1,757.3c-7.6,11.5-15.6,17.9-28.5,18.6h-0.7c-16.6,0.8-34.5-8.8-36.3-22.5
		c0-0.6-0.1-1.1-0.1-1.7c-1-17.7,16.1-39.3,37.4-51.4c2.5-1.4,5.3-2.3,8.1-2.4c4.2-0.2,8.1,1.1,10,4.1c0.4,0.7,0.7,1.4,0.7,2.2
		c0,2.6-2,4.9-4.6,5.2c-1.1,0.1-2.1-0.7-2.2-1.8c0-0.1,0-0.2,0-0.3c-0.1-1.4-1.5-1.8-2.9-1.7c-0.8,0-1.6,0.2-2.3,0.5
		c-12.9,5.4-20.6,10.9-29,22.3c-4.9,6.6-7.1,13.2-6.8,19.4c0.4,6.4,3.5,12.1,9.3,16.5c4.2,3.4,9.5,5.1,14.9,4.7
		c5.1-0.3,10.5-2.2,15.9-5c5.1-2.6,13.5-9.4,13.3-13.3c-0.1-1.3-1-2.3-3.1-2.8c-3.2-0.8-6.5-1.1-9.8-0.9c-2.3,0.1-4.8,0.5-7.7,0.9
		h-0.6c-2.6,0.3-5-1.6-5.3-4.3c-0.1-2,1.4-3.9,5.2-4.1c2.8-0.2,5.4-0.4,7.9-0.6c5.9-0.3,11,0,16.5,3.9c2,1.5,3.2,3.8,3.2,6.3
		c0.1,3-0.7,5.9-2.3,8.4 M696.5,652.2l-13.2-3.2l-48.6-0.5l-2.4,26l-279.8-25.7v25.7h-55.3V750l44.4,3l4.1,55.7l390.9-28.8
		l-0.1-79.8l-44.1-4.1L696.5,652.2z"/>
	<path class="st1" d="M620,726.7c-0.6,0.1-1.3,0.4-1.8,0.7c-8.2,5-12.8,8.6-18.5,16.3c-0.5,0.8-0.8,1.7-0.7,2.6
		c0.1,2.1,1.7,4.2,5.2,4h0.1c5.8-0.5,10.1-9.2,18.5-12.4c0.7-0.3,1.2-2.5,1.1-5C623.7,729.9,622.5,726.6,620,726.7"/>
	<path class="st2" d="M849,579.7c-1,0.1-6-0.2-6.8-0.1c-1.7,0.1-11.9,2.5-11.5,8.9c0.5,8.7,10.2,8.6,13.4,8.4
		c6.9-0.4,15.6-2.6,18-8.6l-1.1-11.3C857.5,579.5,852.1,579.5,849,579.7"/>
	<path class="st2" d="M692.7,559.6c-6.7,0.4-17.8,7.4-17,21.6c0.8,12.9,9.4,21,18,20.5c5.8-0.3,19.2-7,18.3-22.7
		C711.2,564.8,700.4,559.1,692.7,559.6"/>
	<path class="st2" d="M166.4,535.5l-26.7,1.6l3.6,59.5l26.3-1.6c9.9-0.6,12.5-21.9,12.1-29.5C181.2,560.2,176.2,534.9,166.4,535.5"
		/>
	<path class="st2" d="M915.3,550c-9.1,0.5-16.8,6.6-15.9,21.9c0.9,15.6,10,18.2,18,17.7c6.1-0.4,17.5-4.3,16.6-19.5
		C933.2,556.3,924.2,549.5,915.3,550"/>
	<path class="st2" d="M977.6,594.5c-0.3,3-2.2,11-8,10.9h-0.2c-5.8-0.1-7.6-5.8-7.6-7.9v-0.2c-0.1-3.5,2.8-9.4,8-9.4h0.1
		c2.5,0,7.1,0.1,7.2,2.8c0,2.3,0.6,1.2,0.6,2.7C977.7,593.8,977.7,594.2,977.6,594.5 M939.4,605.5c-0.1-2.6-0.4-5.2-0.8-7.8
		c-4.3,6.8-14.2,9-20.3,9.4c-14.9,0.9-31.7-7.1-33.3-34.5c-1.8-29.6,14.8-40.2,29.3-41.1c5.3-0.3,16.3,1.1,20.9,9.6l-2.3-38l16.6-1
		l6.2,102.4L939.4,605.5z M864.2,606c0-1-0.1-2-0.4-3c-6.1,8.4-12.7,7.7-17.6,7.9c-7.7,0.5-28.2-0.3-29.5-21.4
		c-0.8-13.3,11.8-23.4,17.6-23.7l20.2-1.2c2.8-0.2,6-1.9,5.7-7.2c-0.7-11.7-14.9-11.1-17.1-11c-5.2,0.3-9.9,0.8-11.7,12.7l-13.8,0.8
		c1.8-21.4,16.2-27.8,25.8-28.3c5.2-0.3,29.3,0.4,30.6,22l2.6,43.7c0.5,2.7,1.3,5.3,2.2,7.9L864.2,606z M787.9,611.7
		c0.2-3.6,0-7.1-0.5-10.7c-5.1,12.6-10.2,14.7-16.2,15.1c-11.8,0.7-26.1-8-27.4-30l-2.8-46.3l13.8-0.8l2.8,46.4
		c0.5,9.3,9.4,13.7,13.5,13.4c3.7-0.2,15.3-4.9,14.7-16.2l-2.7-45.3l16.8-1l4.4,74.4L787.9,611.7z M715,639.9l-2-34.2
		c-3.3,8.5-11.9,11.5-18.3,11.9c-13.4,0.8-31-10.5-32.5-35.8c-1.6-27.3,16-39.2,29.8-40c5.3-0.3,14.2,0.8,18.2,9.2
		c0.1-3.2-0.1-6.5-0.7-9.7l17.4-1l5.9,98.7L715,639.9z M627.5,622.1c-6,0.4-28,1-29.3-20.7l-0.1-2.2l15.8-1c1.7,11.1,8.8,10.2,13,10
		s11.3-0.3,10.8-9.2c-1.2-19.9-39.4,1.3-41.1-27.5c-1.3-21.9,16.6-26.7,25.4-27.2c6.3-0.4,26.3,0.4,27.4,21.2l0.2,3.3l-15.6,0.9
		c-2-8.3-7.1-11.3-11.8-11c-1.7,0.1-12.5,4.1-12,11.7c0.7,11.7,43.2-5.7,45.2,27.9C656.6,620.5,635.2,621.7,627.5,622.1
		 M546.1,591.2l-34.3-67.9L516,593l-14.7,0.9L495,489.7l17-1l38.5,77.9l-4.8-79.9l14.3-0.9l6.2,104.1L546.1,591.2z M472.3,592.8
		c0.2-3.2,0.3-2.2-0.2-5.3c-6.9,11.1-15.4,13.5-23.8,14c-18.6,1.1-41.5-18.3-43.4-50c-1.8-30.3,11.7-56.8,34.5-58.1
		c10-0.6,27,4,35.2,23.1c1.5,3.4,4.6,11.1,4.7,12.8l0.1,2.6l-15.1,0.9c-2.4-15.1-14.6-20.8-23.3-20.2c-15.4,0.9-22.1,19.3-21,37.4
		c1.3,21.2,16.5,30.6,26.9,30c7.7-0.5,13.9-3,19.3-16.8c-0.5-0.6-1.2-0.3-17.8,1.2l-0.9-15.7l32.8-2l2.7,45.5L472.3,592.8z
		 M378.5,601.8l-6.3-105.3l17-1l6.3,105.3L378.5,601.8z M323.7,607.5c-6.8,0.4-40,1.5-41.7-26.9l-0.3-5.2l21.8-1.3
		c1.1,12.7,14.6,13.6,19.8,13.3c2.1-0.1,18-1.8,17.3-12.5c-1.4-23.7-57.5,5.7-60.2-40.3c-1.8-29.5,26-34.5,36.2-35.1
		c11.2-0.7,36.1,2.9,40.4,30.5l-21.3,1.3c-3.8-14-12-14.4-17.1-14.1c-3.8,0.2-18.2,2.9-17.4,15.5c1.2,19.9,58.7-2.1,61.4,42.5
		C364.3,604.2,332.2,607,323.7,607.5 M210.6,610.2l-6.3-105.9l62.2-3.7l1.2,20.3l-47.1,2.8l1.4,23.1l44.3-2.7l1.2,19.4l-44.3,2.7
		l1.4,23.1l48.3-2.9l1.2,20L210.6,610.2z M178.6,612.7l-49.4,2.9l-5.8-96.3l45.4-2.7c17.7-1.1,27.2,38,27.9,48.9
		C197.3,575,193.1,611.9,178.6,612.7 M762.6,474.9l-48.8,37.8l-52.6-0.6l-68.2-28.2l-28.2-43.1L241.4,411l-3.7,40.3H91.3v223.2
		h261.4v-25.7l279.8,25.7l2.4-26l48.6,0.5l13.4,0.1l-0.3,3l-4,43.8l44.1,4.1l187.5,17.2l6-65.8l57,0.6l1.6-174.9L762.6,474.9z"/>
	<path class="st2" d="M974.4,600c0,0.3-0.1,0.5-0.4,0.5c-0.3,0-0.7-0.1-1-0.2c-1.1-0.4-2.2-0.9-3.3-1.4c-0.1-0.1-0.3-0.3-0.5-0.3
		c-0.1,0-0.2,0.1-0.2,0.4v0.9c0,0.6-0.1,1.3-0.4,1.3h-0.1c-0.7-0.2-0.9-0.5-1-1.6c-0.1-1.4-0.5-2.8-1.1-4c-0.3-0.6-0.5-1.2-0.5-1.8
		c0-0.5,0.2-1,0.6-1c0.1,0,0.3,0,0.4,0.1c0.5,0.2,0.7,0.4,1,0.4c0.3,0,0.6-0.1,0.9-0.2c0.6-0.2,1.1-0.3,1.7-0.3
		c0.7-0.1,1.3,0.2,1.8,0.7c0.2,0.2,0.2,0.5,0.2,0.8c0,0.5-0.4,0.9-1.2,1.6s-1.4,0.9-1.4,1.2c0,0.3,0.2,0.3,0.5,0.5
		c1,0.6,2.1,1,3.2,1.3c0.5,0.1,0.8,0.6,0.8,1.1L974.4,600z M974.5,590.9c-0.4-0.2-0.9-0.4-1.4-0.4c-0.7,0-1.3,0.3-1.8,0.8
		c0,0.1-0.2,0.1-0.4,0.1c-0.2,0-0.5-0.1-0.6-0.3c0,0,0-0.1,0-0.1c0-0.4,0.7-0.7,2-1.2c0.3-0.1,0.4-0.2,0.4-0.3
		c0-0.2-1.1-0.3-2.1-0.3c-0.3,0-0.6,0-0.9,0c-5.1,0.2-6.7,6-6.7,8.5v0.1c0,2.5,1.5,6.1,6.4,6.3h0.2c4.8,0,6.6-5.6,6.8-8.7
		c0-0.4,0-0.8,0-1.2C976.4,592,975.8,591.5,974.5,590.9"/>
	<path class="st2" d="M970.2,594.6c0-0.1,0-0.1-0.1-0.2c-0.1-0.1-0.2-0.1-0.3-0.1c-0.4,0-0.8,0.2-1.2,0.4c-0.3,0.1-0.5,0.3-0.5,0.6
		c0,0.1,0,0.1,0,0.2c0.1,0.1,0.2,0.2,0.3,0.2c0.3,0,0.6-0.1,0.9-0.3C969.9,595,970.2,594.8,970.2,594.6"/>
	<polygon class="st1" points="656.4,274.3 612.6,289.6 574.1,324.8 559.2,373.1 564.3,440.1 592.9,483.9 661.2,512.1 713.8,512.6 
		777.3,463.5 801.8,395.4 784.5,314.1 729.6,279.4 697.2,271.3 	"/>
	<polygon class="st2" points="640.9,459.5 672,473.9 677,510.3 695.3,510.1 717.3,478.2 735.8,438.8 711.4,427.5 652.4,421.2 	"/>
	<polygon class="st2" points="574.1,324.8 563.9,358 575.3,367.6 583.7,393 603.3,418.4 633.5,415.9 646.7,431.6 653.8,426.3 
		643.3,409.6 627.9,403.8 612.7,396.5 622.8,382.5 643.7,386.6 644.7,368 655.5,356.4 662.1,334 685,324.6 638.8,301.7 627.8,320.9 
		614,313.4 632.7,297.9 610.2,291.8 	"/>
	<polygon class="st2" points="759,342 749.5,360.8 746.8,377.8 751.2,382.4 757.4,395.4 777.6,393.1 790.7,407.7 794.2,416.4 
		801.8,395.4 791,344.7 786.9,343.5 779.7,346.2 772.1,339.7 	"/>
	<polygon class="st2" points="655.8,274.4 645.1,278.2 668.9,285.8 684.7,299.5 693.1,299.1 697.6,287.5 715.9,275.9 709.8,274.4 	
		"/>
	<polygon class="st2" points="630.4,288.5 629.7,289.5 634,299.5 645.8,302.2 654.8,302.2 661.1,294.3 650.5,286 	"/>
	<polygon class="st2" points="725,281.4 710.9,283.5 712.2,287.6 724.7,286.5 728.1,283.1 724.8,279.4 	"/>
	<polygon class="st2" points="601,456.9 605.1,469.6 616.1,465.7 608.5,456.4 606.5,449.9 	"/>
	<polygon class="st2" points="749.9,295.9 756.2,299.2 759.2,305.2 756.8,311.1 753.2,320.3 747.3,323.1 748.5,330.6 745.2,339.7 
		760.8,336.3 760.9,323.3 770.3,320.4 771.3,336.3 778.6,334.1 777,322.8 787.5,328.4 784.5,314.1 749.3,291.8 	"/>
	<polygon class="st2" points="739,298.2 745.8,307.7 746.2,315.6 755.2,310.7 755.8,303.9 747.7,303.2 746,296.3 	"/>
	<polygon class="st2" points="640.5,397.6 639.9,398.2 643.6,403.1 657.3,407.6 671.6,405.5 672.8,399.2 649.4,395.4 	"/>
	<polygon class="st2" points="761.6,412 764,420.4 769.1,420.4 774.7,414.8 774.8,407.9 767.4,401.7 766.4,401.5 	"/>
</g>
</svg>
