<?xml version="1.0" encoding="utf-8"?>
<!-- Generator: Adobe Illustrator 21.1.0, SVG Export Plug-In . SVG Version: 6.00 Build 0)  -->
<svg version="1.1" id="Layer_1" xmlns="http://www.w3.org/2000/svg" xmlns:xlink="http://www.w3.org/1999/xlink" x="0px" y="0px"
	 viewBox="0 0 1080 1080" style="enable-background:new 0 0 1080 1080;" xml:space="preserve">
<style type="text/css">
	.st0{opacity:0.75;}
	.st1{fill:#FFFFFF;}
</style>
<title>WGBH_impact-report_digital_logo-farm_v1</title>
<g class="st0">
	<path class="st1" d="M722.5,542.4v59.3h50.7l-0.2-57.8l41.1-67.9h-52.5l-1.5,3.7l-12.6,31.2L734.6,479l-1.2-3h-54l6.5,10.2
		c-6.4-6.9-16.7-10.6-33.9-10.6h-88.3v18.7c-7.5-8.8-26.1-22.7-66.1-22.7s-54.2,9.8-68.9,30.4l4.8-26.4h-42.8l-11.5,46.3l-10.8-46.2
		h-46.5l-11.9,47l-10.6-47.2h-47.2l25.3,127.2h52.4L344,554l14.6,48.7h51.8l10.4-51c9,53.9,63.5,56,79.2,56c15.7,0,41.3-3.9,63.5-17
		v12.1h90.6c15.8,0,27.8-4.2,32-8.6c0,0,6.3-6.9,7.8-14.1c1.6-6.5,1.8-12.9-0.6-22.1c-3.1-12.2-14.2-16-20.9-18.3
		c6.5-1,16.2-6,20.9-15.7s0-24.5,0-24.5c-0.5-1.4-1-2.7-1.6-4L722.5,542.4z M833.8,542.6C833.8,542.9,833.8,542.9,833.8,542.6
		C834.1,542.4,834,542.4,833.8,542.6 M773.3,601.8l-60.4,60.1c0,0-50.6-0.1-50.3,0c-0.2-2.5,0-44.1,0-44.1l-31.7,31.7
		c-5.9,5.1-12.4,12.4-29,13h-97.7v-11.9c-3.1,1.7-7.2,3.6-11.9,5.5c-5,2.2-10.1,4-15.1,5.5c-9.4,2.8-18.4,4.3-26.2,5
		c-3.7,0.3-7.2,0.5-10.2,0.5c-1.5,0-3.4,0-5.6-0.1c-7.7-0.3-19.1-1.4-30.6-5.4c-3.6-1.2-7.3-2.8-10.8-4.6c-7.3-3.6-13-8.2-17.2-13.3
		c-1.2-1.4-2.3-2.9-3.3-4.4l-24.5,22.9c0,0,0,0-44.1,0l-6-22.9L275,662.5h-45.4l-27.2-137.6l107.5-107.1h47.3l4,24l22.6-23.7H426
		l2.9,24l24-24h51.9l-4.9,20.1c14.1-11.8,26.1-19.9,44.4-23.3c1-0.2,2.1-0.4,3.1-0.5s2-0.3,3-0.4c4.5-0.5,9.4-0.8,14.8-0.8
		c21.5,0,35.1,4.5,45.4,11.4c0.8,0.5,1.6,1.1,2.4,1.7c3.2,2.4,6.2,5,9,7.9c0.5,0.5,1,1,1.5,1.5l17.8-17.3h70.4
		c10.4,0,17.1,3.8,21.2,8.9l9.4-8.6h54l4.8,18.8l20.9-19h55.6c0,0-36.4,59-43.8,71.2c0.2,15.6,0,49.6,0,52.9c0.2-0.2,0.2-0.2,0,0
		c0,0.3,0,0.3,0,0C830.4,545.8,773.3,601.8,773.3,601.8"/>
	<path class="st1" d="M500.5,500.8c-12.1,0-16,8.3-16,13.4l-0.2,52.6c0,4.1,4.1,12.9,15.7,12.9s15.7-4.9,15.7-12.1v-13.9h-16.3v-25
		h64.3v-13.9h-47.2C516.5,507.2,512.6,500.8,500.5,500.8"/>
	<path class="st1" d="M642.4,514.2c0-6.7-4.4-10.8-11.6-10.8h-17v21.2c0,0,10.6,0.3,17,0.3C637.3,524.8,642.4,520.9,642.4,514.2"/>
	<path class="st1" d="M631.6,554.2h-17.8v21.4c0,0,11.4,0.3,17.8,0.3c6.5,0,11.6-3.9,11.6-10.6C643.2,558.6,638.8,554.2,631.6,554.2
		"/>
</g>
</svg>
