<svg id="Layer_1" data-name="Layer 1" xmlns="http://www.w3.org/2000/svg" viewBox="0 0 1080 1080"><defs><style>.cls-1{opacity:0.75;}.cls-2{fill:#fff;}.cls-3{fill:none;stroke:#fff;stroke-width:1.95px;}</style></defs><title>WGBH_impact-report_digital_logo-farm_v1</title><g class="cls-1"><path class="cls-2" d="M843.51,639.32c-49.67,0-76.62-32-76.63-71.4,0-39.1,29.85-71.15,74.5-71.15,44.46,0,75.81,32.38,75.81,71.14a54.1,54.1,0,0,1-1.4,12.41H814.14c2.9,13,12.83,22.59,29.11,22.59,13.5,0,19.51-7.23,24.93-14.55h46.33C906.74,611.5,886.9,639.31,843.51,639.32Zm-.27-105.16a27.57,27.57,0,0,0-27.43,21.17h55.27C869.18,545.55,858.69,534.16,843.24,534.16Z"/><path class="cls-2" d="M712,639.32c-17.44,0-32.76-5-42.28-15.13l-5.81,10.09H643.26v-53.9h26.42c8.46,36.59,50,37.07,50,21.1,0-9.59-9.8-10.62-32.26-17.43-22.72-7.06-44.33-15.87-44.33-44.14,0-27.28,25.7-44.63,54.37-44.63,19.81,0,35.14,8.3,40.16,14.35l4.5-7.83h19.55v49.55H735.21c-8.81-35.49-46.8-30.54-45.94-16.75.62,9.83,10.72,12.27,28,16.15,24.88,5.59,48.62,14.63,48.62,45.41C765.86,624.18,742.35,639.32,712,639.32Z"/><path class="cls-2" d="M472.72,489.16c-4.18,0-7.85-1.21-10.13-3.63l-1.39,2.42h-4.94V475h6.33c2,8.76,12,8.88,12,5.05,0-2.3-2.35-2.54-7.72-4.18s-10.62-3.8-10.62-10.57c0-6.53,6.15-10.69,13-10.69,4.75,0,8.42,2,9.62,3.44l1.08-1.87h4.68v11.87h-6.33c-2.11-8.5-11.21-7.31-11-4,.15,2.35,2.57,2.93,6.7,3.86,6,1.34,11.64,3.51,11.64,10.88C485.62,485.53,480,489.15,472.72,489.16Z"/><path class="cls-2" d="M553.82,487.94v-8.07h3.7v-30h-3.7v-8.07h15.85v38.1h3.7v8.07Z"/><path class="cls-2" d="M434.71,451.11v-9.34h13.47v9.34Zm-2.91,36.83v-8.07h3.7V464.23h-3.7v-8.07h15.85v23.72h3.7v8.07Z"/><path class="cls-2" d="M410.3,487.95V470.29c0-2.27-.53-5-4.23-5-4,0-4.49,2.77-4.49,5v9.59h3.7v8.07H385.73v-8.07h3.7v-30H386v-8.07h15.59v18.16a10.07,10.07,0,0,1,8.72-4.28c7.13,0,12.15,4.28,12.15,12.87v11.35h3.7v8.07Z"/><path class="cls-2" d="M371.48,460.2V449.85h-6.08v30h3.7V488H349v-8.07h3.7v-30h-6.08V460.2h-9.78V441.78h44.39V460.2Z"/><path class="cls-2" d="M599.36,487.94v-3a10.68,10.68,0,0,1-8.71,4.29c-9.78,0-13.48-8.33-13.48-16.9s3.7-16.65,13.48-16.65a10.06,10.06,0,0,1,8.72,4.28V449.84h-5v-8.07h17.18v38.1h3.7v8.07Zm0-15.64v-1.39c0-2.27-.52-5.68-4.49-5.67-3.7,0-4.5,4.79-4.5,7.06s.79,7.06,4.5,7.06c4,0,4.48-3.15,4.48-5.42Z"/><path class="cls-2" d="M526.19,489.21c-14,0-25.63-11.1-25.63-24.48s11.63-24.22,25.63-24.22,25.36,10.85,25.36,24.22S540.19,489.21,526.19,489.21Zm0-36.59a12.06,12.06,0,0,0-11.89,12.11,11.9,11.9,0,0,0,11.89,12.11,12.07,12.07,0,0,0,11.89-12.11A12.24,12.24,0,0,0,526.19,452.62Z"/><path class="cls-2" d="M243.79,634.3V600.74h15.06V556.08H198.07v44.66H213.4V634.3h-84V600.75h15.33V475.35H129.37V441.79h84v33.56H198.07v47.18h60.77V475.34H243.78V441.78h83.76v33.56H312.47v125.4h15.06V634.3Z"/><path class="cls-2" d="M398.46,639.34c-41,0-74.51-32-74.51-71.4,0-39.1,33.55-71.15,74.51-71.15,41.21,0,74.51,32,74.51,71.14C473,607.29,439.67,639.34,398.46,639.34Zm0-99.66c-16.38,0-29.59,12.62-29.59,28.26,0,15.9,13.21,28.51,29.59,28.51,16.65,0,29.85-12.62,29.85-28.52C428.31,552.29,415.1,539.67,398.45,539.68Z"/><path class="cls-2" d="M571.08,634.29V619.15c-5,6.56-15.05,17.66-35.67,17.66-29.86,0-50.73-17.66-50.73-53.74V535.13H469.35V501.82h66.06v73.68c0,9.84,1.85,20.94,18,20.94,15.85,0,17.7-11.1,17.7-20.94V535.13H556V501.82h66v98.91h15.06v33.56Z"/><path class="cls-2" d="M932.38,619.57c0-1.35-.77-1.42-1.38-1.42h-.35v-.55c.62,0,1.83.08,3,.08s2.11-.08,3.14-.08c2.45,0,4.62.63,4.62,3.26,0,1.67-1.16,2.69-2.7,3.26l3.32,4.74a2.18,2.18,0,0,0,1.89,1.12v.55c-.65,0-1.27-.07-1.91-.07s-1.23.07-1.83.07a52.14,52.14,0,0,1-4.05-6h-1.28v4c0,1.43.7,1.48,1.6,1.48h.34v.55c-1.11,0-2.24-.07-3.34-.07-.93,0-1.85.07-2.82.07V630H931c.72,0,1.38-.32,1.38-1Zm2.49,4.3h1c2,0,3-.71,3-2.9a2.6,2.6,0,0,0-2.84-2.71,9.82,9.82,0,0,0-1.11.08Z"/><ellipse class="cls-3" cx="935.89" cy="624.5" rx="14.95" ry="14.25"/></g></svg>