<svg id="Layer_1" data-name="Layer 1" xmlns="http://www.w3.org/2000/svg" viewBox="0 0 1080 1080"><defs><style>.cls-1{opacity:0.75;}.cls-2{fill:#fff;}</style></defs><title>WGBH_impact-report_digital_logo-farm_v1</title><g class="cls-1"><polygon class="cls-2" points="554.59 549.26 553.8 549.26 540.32 594.3 554.42 594.29 554.59 549.26"/><path class="cls-2" d="M855,247.48l-543.73,0c-14.75,0-28.47,12-30.64,26.7L202.41,806.09c-2.16,14.75,8,26.71,22.78,26.71l543.73,0c14.75,0,28.46-12,30.64-26.71L877.8,274.18C880,259.43,869.77,247.47,855,247.48ZM602.12,292.61l15.64,89.58h1l11.63-89.58h48.29l-27,183.83H593.25l-16.58-86.72h-.77L565.2,476.44H515.1l27-183.83Zm-183,300.72-7.81,53.06H369l20.4-138.63h42.29l-7,47.39h18.8l7-47.39h42.29l-20.4,138.63H430.07l7.81-53.06Zm115.78-85.57h52.67L600,646.37H555.57l-.89-19.19H530.79l-6.54,19.19h-42.5ZM515.14,292.61l-27,183.83H431l27-183.83Zm-187,125.68a45,45,0,0,0,11.93,8,32,32,0,0,0,13.69,3.11,13.64,13.64,0,0,0,7.72-2.2,9.34,9.34,0,0,0,.86-14.67q-3.79-3.37-12.22-7.79a99.72,99.72,0,0,1-13.6-8.18,44.86,44.86,0,0,1-10.85-11,43.05,43.05,0,0,1-6.47-15.19q-2-8.69-.24-20.38,2.49-16.88,10.19-28.69a70.33,70.33,0,0,1,40.11-30,82.63,82.63,0,0,1,22.7-3.38q16.61,0,29,5.19a55.94,55.94,0,0,1,20,13.5l-34,42.32a32.19,32.19,0,0,0-9.3-7.39,23,23,0,0,0-11-3,15.7,15.7,0,0,0-7.84,2.08q-3.67,2.08-4.44,7.27a6.91,6.91,0,0,0,2.51,6.75q3.13,2.6,12.53,7.53,5.29,2.87,11.66,7.14a51.59,51.59,0,0,1,11.64,10.91,48.6,48.6,0,0,1,8.17,16q2.91,9.35,1,22.07-2.45,16.62-9.66,28.56a66.56,66.56,0,0,1-17.41,19.47,72.26,72.26,0,0,1-22.28,11.17,83.17,83.17,0,0,1-24,3.64A87,87,0,0,1,331,479.44,78.79,78.79,0,0,1,316,474.89a72.81,72.81,0,0,1-12.16-6.49,59.16,59.16,0,0,1-9.06-7.27Zm-39.8,89.47h90.85l-5.3,36H349.41L334.32,646.39H292.42l15.09-102.61H283ZM303.11,790H267.65l12.78-86.82H259.71l4.49-30.49h76.88l-4.48,30.49H315.88Zm81,0,6.61-44.91H374.83L368.22,790H332.43l17.26-117.31h35.79l-5.9,40.09h15.91l5.9-40.09h35.79L419.92,790Zm53,0,17.26-117.31h36.45L473.6,790ZM578,790H540.7l-10.58-55.34h-.49L522.8,790h-32l17.26-117.31h38.27l10,57.16H557l7.42-57.16h30.82Zm56.54-39.69a14.11,14.11,0,0,0,3.88,6.3,9.87,9.87,0,0,0,6.94,2.41,11.8,11.8,0,0,0,5.31-1.16l1.49-10.11H641.86l4.61-31.32h40.43L677,783.4a56.71,56.71,0,0,1-15.76,6.88,77.05,77.05,0,0,1-20.76,2.57q-11.77,0-20.47-4.47a36,36,0,0,1-14-12.59A49.86,49.86,0,0,1,599,756.39a82.06,82.06,0,0,1,.2-25,93.46,93.46,0,0,1,7.32-25.52,72,72,0,0,1,12.9-19.55,55.19,55.19,0,0,1,17.25-12.51,47.92,47.92,0,0,1,20.19-4.4,56.42,56.42,0,0,1,12.41,1.24,46.5,46.5,0,0,1,9.63,3.23,29.35,29.35,0,0,1,7,4.56,33.93,33.93,0,0,1,4.78,5.22l-22.7,27a15.17,15.17,0,0,0-5.1-4.72,16.11,16.11,0,0,0-8-1.74,14.34,14.34,0,0,0-8,2.24,23,23,0,0,0-6.18,6,33.28,33.28,0,0,0-4.41,8.61,55.7,55.7,0,0,0-2.52,10.36,61.21,61.21,0,0,0-.67,10.1A30.79,30.79,0,0,0,634.52,750.35Zm42.66-206.58L662.09,646.37h-41.9l15.09-102.61H610.8l5.3-36H707l-5.3,36ZM750.43,767a27,27,0,0,1-26.38,23c-13.06,0-21.54-9.95-19.62-23a27,27,0,0,1,26.38-23C743.88,744,752.36,754,750.43,767ZM796,546.87c-1.65,11.23-5.45,23.95-8.58,35.23l-44,149.26H718.05l3.89-149.26c.69-11.29,0-24,1.69-35.23,3.24-22,16.59-39.14,40-39.14C791,507.74,799.25,524.9,796,546.87ZM740.27,414.24a22.16,22.16,0,0,0,6.08,9.87c2.75,2.51,6.36,3.76,10.87,3.76a18.36,18.36,0,0,0,8.31-1.82l2.33-15.84H751.76L759,361.14h63.36L806.91,466a88.82,88.82,0,0,1-24.7,10.77,120.63,120.63,0,0,1-32.52,4q-18.45,0-32.08-7a56.27,56.27,0,0,1-21.9-19.73q-8.25-12.72-11.1-30.38t.31-39.2a146.63,146.63,0,0,1,11.47-40,112.74,112.74,0,0,1,20.22-30.64,86.47,86.47,0,0,1,27-19.61,75.25,75.25,0,0,1,31.65-6.88,88.08,88.08,0,0,1,19.45,1.94,73,73,0,0,1,15.1,5.07,45.66,45.66,0,0,1,11,7.14,54.44,54.44,0,0,1,7.49,8.17l-35.57,42.33a24,24,0,0,0-8-7.4q-4.8-2.73-12.58-2.73a22.52,22.52,0,0,0-12.46,3.51,36.24,36.24,0,0,0-9.69,9.35,52.13,52.13,0,0,0-6.91,13.5,87.1,87.1,0,0,0-4,16.23,96,96,0,0,0-1,15.83A48.15,48.15,0,0,0,740.27,414.24Z"/></g></svg>