<svg id="Layer_1" data-name="Layer 1" xmlns="http://www.w3.org/2000/svg" viewBox="0 0 1080 1080"><defs><style>.cls-1{opacity:0.75;}.cls-2{fill:none;stroke:#fff;stroke-miterlimit:10;stroke-width:8.22px;}.cls-3{fill:#fff;}</style></defs><title>WGBH_impact-report_digital_logo-farm_v1</title><g class="cls-1"><rect class="cls-2" x="158.75" y="417.64" width="762.62" height="244.66"/><path class="cls-3" d="M347,458.37h51.46c15.72,0,22.6,1.63,27.06,6.1,2.84,2.83,3.61,5.92,3.61,9.62,0,7.39-4.55,11.94-14.61,13.83,10.4,1.72,15.55,6,15.55,14.09a13.53,13.53,0,0,1-3.78,10c-4.38,4.47-12.46,6.53-28.18,6.53H347Zm50.78,7.56H356.16V484.4h41.58c13.15,0,17.18-1.29,19.76-4a6.94,6.94,0,0,0,2-5.33,7.22,7.22,0,0,0-2-5.41C414.67,466.87,409.77,465.92,397.75,465.92Zm0,25.86H356.16v19.33h42.36c11.69,0,16.84-.86,19.76-3.78a7.65,7.65,0,0,0,2.23-5.84,7.39,7.39,0,0,0-2.06-5.67C415.45,492.82,409.26,491.78,397.75,491.78Z"/><path class="cls-3" d="M500.06,458h22l43.22,60.48H545.51l-8.16-11.69H483.91l-8.16,11.69h-18.9Zm-7.47,36.34h36l-18-25.68Z"/><path class="cls-3" d="M662.69,507.58a7.76,7.76,0,0,0,2.23-5.76,7.25,7.25,0,0,0-1.89-5.41c-2.15-2.15-6.44-3.43-29.64-4.55-24-1.2-31.7-3.26-35.57-7.13-2.41-2.32-3.35-5.67-3.35-9.45,0-4.12.94-8,4-11,4.12-4.12,12.8-7,33.42-7,16.5,0,29.55,2.57,37.54,5.5v8.07c-9.36-3.61-23.89-6.35-37.54-6.35-17.61,0-23.54,2-26.12,4.55a7.4,7.4,0,0,0-2,5.41,6.66,6.66,0,0,0,1.72,4.9c2.32,2.32,7.73,3.61,29,4.63,25.86,1.29,32.3,3.26,36.17,7.13,2.49,2.41,3.52,6,3.52,9.88,0,4.12-1,8.08-4,11.08-3.87,4-11.77,7.65-35.14,7.65-17.18,0-33-2.83-42.53-6.78v-8.08c9.28,4.12,27.24,7.56,42.53,7.56C654.44,512.39,660.19,510.07,662.69,507.58Z"/><path class="cls-3" d="M713.19,518.49V458.35h9.28v60.14Z"/><path class="cls-3" d="M769,509.21c-5.24-5.24-7.82-12.54-7.82-20.79s2.58-15.55,7.82-20.79C774.7,462,786,457,807.35,457c16.93,0,30.16,3.78,37.46,7.48v8.85c-8.59-4.81-22.51-8.68-37.37-8.68-13.83,0-25.6,2.41-31.27,8.08-3.69,3.7-5.58,8.93-5.58,15.72s1.89,11.86,5.58,15.64c5.67,5.67,17.44,8.16,31.19,8.16,15,0,28.87-3.7,37.46-8.25v8.42c-7.3,3.7-20.53,7.47-37.46,7.48C786,519.86,774.7,514.88,769,509.21Z"/><path class="cls-3" d="M235.3,561.46h51.46c15.72,0,22.6,1.63,27.06,6.1,2.84,2.83,3.61,5.93,3.61,9.62,0,7.39-4.55,11.94-14.61,13.83,10.4,1.72,15.55,6,15.55,14.09a13.52,13.52,0,0,1-3.78,10c-4.38,4.47-12.46,6.53-28.18,6.53H235.3ZM286.07,569H244.49v18.47h41.58c13.15,0,17.18-1.29,19.76-4a6.93,6.93,0,0,0,2-5.33,7.21,7.21,0,0,0-2-5.41C303,570,298.1,569,286.07,569Zm0,25.86H244.49v19.33h42.36c11.69,0,16.84-.86,19.76-3.78a7.66,7.66,0,0,0,2.23-5.84,7.38,7.38,0,0,0-2.06-5.67C303.77,595.91,297.59,594.88,286.07,594.88Z"/><path class="cls-3" d="M429.8,613.78v7.82H356.43V561.46h9.28v52.32Z"/><path class="cls-3" d="M496.63,561.11h22l43.22,60.48H542.08l-8.16-11.68H480.48l-8.16,11.68h-18.9Zm-7.47,36.34h36l-18-25.69Z"/><path class="cls-3" d="M596,612.31c-5.24-5.24-7.82-12.54-7.82-20.79S590.78,576,596,570.72c5.67-5.67,16.93-10.66,38.32-10.66,16.93,0,30.16,3.78,37.46,7.48v8.85c-8.59-4.81-22.51-8.67-37.37-8.67-13.83,0-25.6,2.41-31.27,8.08-3.69,3.7-5.58,8.93-5.58,15.72s1.89,11.86,5.58,15.64c5.67,5.67,17.44,8.16,31.19,8.16,15,0,28.87-3.69,37.46-8.25v8.42c-7.3,3.69-20.53,7.47-37.46,7.48C613,623,601.69,618,596,612.31Z"/><path class="cls-3" d="M720.24,561.44V587.3h16l41.58-25.86h14v.17l-47.94,29.56,48.72,30.24v.17H777.81L735.62,595H720.24v26.55H711V561.44Z"/></g></svg>