<svg id="Layer_1" data-name="Layer 1" xmlns="http://www.w3.org/2000/svg" viewBox="0 0 1080 1080"><defs><style>.cls-1{opacity:0.75;}.cls-2{fill:#fff;}</style></defs><title>WGBH_impact-report_digital_logo-farm_v1</title><g class="cls-1"><path class="cls-2" d="M257.87,668.28l-72.87,6,102.6-214,66.67-11.63,22.56,198.69-60.9,10.1,2.38-46.24-37.25,6.34-23.2,50.77Zm59.55-94.45-4.12-31.18c-.51-7.49-.35-15.24-.23-22.74l-2.1,0-18.45,51.42,24.89,2.46Z"/><path class="cls-2" d="M461,561.47c-5.53-2.67-9.47-4.93-15.6-4-12.45,1.87-22.76,12.17-20.65,26.3l7.34,49-43.43,1.11-17-113.67,34.71-5.2,1.16,15.36,1.12-.17c6.3-16.26,27.76-22.77,44-24.76L461,561.47Z"/><polygon class="cls-2" points="528.22 456.82 548.7 457.59 542.51 510.18 523.69 505.95 507.98 643.77 461.48 619.84 475.13 498.16 447.98 496.08 455.31 446.7 479.66 449.03 483.9 415.66 533.31 413.02 528.22 456.82 528.22 456.82"/><path class="cls-2" d="M556.32,412.39,605,405.72l-2.24,80.53-.39,29.15.75,0c9.36-12.08,15.94-13.84,29.83-13.45,24.78.69,33,22.57,32.3,47.89L670,644.47l-47-12-5.44-70c.17-6.06-.37-13.65-7.32-13.85-7.51-.21-9.38,6.23-9.58,13.37l-1.95,70-48.59,4,6.23-223.57Z"/><path class="cls-2" d="M713.76,492.11l12.42,58.77c1.24,6.59,3.78,24.2,11.53,22.74s5.31-8.21,4.07-14.8l-11-58.28,43-2.66,11,58.56c6.74,35.73-12,55.78-40.37,61.13s-58.38-5.52-65.11-41.25l-12-63.81,46.46-20.4Z"/><path class="cls-2" d="M868.52,602.64c-3.85-4.78-9.91-11.07-15.85-12.86-12-3.63-22.33,3.84-26.45,17.52l-12.74,42.28L774.76,637.9l33.17-110,41,4-7.83,22.07,1.08.33c12.65-12,37.26-7.57,52.78-2.44l-26.48,50.84Z"/><path class="cls-2" d="M883.24,529.21c0,.26-.32.37-.37.74-.21,2.42-1.16,3.15-2.26,5.15-.89.16-4.36,2.52-4.73,2.52h-2.42c-1.79,0-4.42-2.21-5.21-3.68a11.52,11.52,0,0,1-.95-3.73,29.72,29.72,0,0,1,1.63-4.73c.37-.79,1.47-1.05,2.1-1.58.16-.11.21-.37.37-.58,1.21-1.16,3.73-1.74,5.42-1.74.37,0,.53.52.95.52.26,0,.58-.11.84.05a13,13,0,0,1,4,3.52,17.57,17.57,0,0,1,.58,3.52Zm2.37-.53a20,20,0,0,0-1.1-3.73,7.76,7.76,0,0,0-3.31-4.1,20.55,20.55,0,0,0-2.52-1.37c-2.73,0-5.89.05-8.26,1.47-1,.63-3.89,3.31-4.26,4.36-.31.79-.26,1.68-.58,2.47-.16.32-.63.84-.63,1.1a43.57,43.57,0,0,0,.68,5.26c1.89,1.95,2,3.68,4.78,5,.42.21.68.68,1.05.84s3.63.42,4.15.42c3.68,0,9.47-5.63,9.47-9.36,0-.26-.05-.47-.05-.74-.1-.63.58-.47.58-1.63Zm-8,3.84a8,8,0,0,1-1.21-2.84,4.23,4.23,0,0,0,1.58-2.37,3.13,3.13,0,0,0-.63-1.63,1.1,1.1,0,0,0-.84-.42l-.21-.05c-1.05-.11-.63-.53-1.89-.53-.53,0-1.05.16-1.58.16-.21,0-.47-.1-.68-.1s-.68.1-.68.58.42.68.84.84h.05c.05.32.05.58.1.84v.05c0,.11-.05.26,0,.37l.05.05a10.11,10.11,0,0,0-.1,1.26c0,.16-.05.32-.05.42v2c0,.42.1.89.1,1.37,0,.1-.05.42,0,.42-.21,0-.89.26-.89.74,0,.16.32.95.74.95s.63-.11.95-.11a1.12,1.12,0,0,0,.37-.16v-.05a1.56,1.56,0,0,0,.53.16c.42,0,.79-.1.79-.73,0-.89-.63-.79-1.05-.95a11.91,11.91,0,0,1-.21-2.37c0-.37.32-.26.63-.26h.21l.16.05H875c.53,1,1.53,4.1,2.68,4.1a1.2,1.2,0,0,0,.89-.42,3.35,3.35,0,0,0,.63-1.11c0-.05-.05-.16-.05-.21-.11-.32-.11-.16-.05-.63l-.42-.05h-.1a.66.66,0,0,0-.32-.05c-.47,0-.63.26-.68.68Zm-1.16-5.63a2.31,2.31,0,0,1,.05.26c0,.63-1.21,1.58-1.89,1.58-.26,0-.52-.05-.73-.05a3.94,3.94,0,0,1-.05-.79c0-.58-.11-1.11-.11-1.68,0-.16.26-.11.42-.11a5.51,5.51,0,0,1,2.21.58l.05.1a.19.19,0,0,1,.05.1Z"/></g></svg>