<svg id="Layer_1" data-name="Layer 1" xmlns="http://www.w3.org/2000/svg" viewBox="0 0 1080 1080"><defs><style>.cls-1{opacity:0.75;}.cls-2{fill:#fff;}</style></defs><title>WGBH_impact-report_digital_logo-farm_v1</title><g class="cls-1"><path class="cls-2" d="M681.55,583.66c-1.25.15-2.54.29-3.91.38a75.61,75.61,0,0,1,2.46,18.52,52,52,0,0,1-6.74,26v7.55a55.41,55.41,0,0,0,10.85-33.51,77.59,77.59,0,0,0-2.66-18.91"/><path class="cls-2" d="M413.62,420.38c34.28,0,68.72,6.6,95.22,21.64a69.46,69.46,0,0,1,27.52,27.86h9.27c-6.76-14.63-17.79-26.52-32.74-35-42.11-23.89-118.1-29.23-175.6-12.11A119.82,119.82,0,0,1,358,401.21C371,390.76,391.41,380,420.74,380c36.24,0,86,16.39,151.9,69.91,7,5.65,14,11.69,20.89,18,2.49.12,4.81.37,7,.68-7.72-7.07-16.12-14.34-25.34-21.84C453.8,348.09,385.38,373.86,355.4,398a124.9,124.9,0,0,0-24.66,26.83c-18.69,6.3-35.12,15.09-47.28,26.58a82.15,82.15,0,0,0-14.42,18,54.73,54.73,0,0,1,8.21,2.38,73.84,73.84,0,0,1,11.85-14.36c8.57-8.1,20.48-15.1,34.49-20.78a140.9,140.9,0,0,0-13.27,35.33c1.4-.36,2.91-.72,4.48-1.07a135.83,135.83,0,0,1,14.8-36.57c24.32-8.86,54.09-13.93,84-13.93"/><path class="cls-2" d="M237.89,468.67a153.06,153.06,0,0,1,13.66-36.61c20.64-38.9,59.26-68.29,108.74-82.76,61.7-18,132-11.22,183.36,17.8,44.62,25.19,61.46,62.66,63.34,102.69a49.23,49.23,0,0,1,12.43,4.74v-4.65h.21c-2.19-49.7-25.52-88.44-69.92-113.51-54.2-30.6-128.1-37.84-192.88-18.9-52.7,15.41-94,47-116.17,88.82a164.35,164.35,0,0,0-15.76,44.57,129.65,129.65,0,0,1,13-2.19"/><path class="cls-2" d="M621.19,662.71c-20.7,5.48-45.55,7.63-72,6.73A438.78,438.78,0,0,0,575.4,626q11.47-21.63,19.94-42c-2.26.13-4.58.22-7,.22-2,0-4.2-.07-6.46-.22-5.61,13.12-11.6,25.37-17.36,36.23a414.11,414.11,0,0,1-29.79,48.39c-42.26-3.13-87.15-13.57-124.62-30.17h.1c37.77,0,74-12.94,100.71-38.17A137.79,137.79,0,0,0,527,582.12H516.55a129.18,129.18,0,0,1-11.28,12.18c-29.71,28.06-72,39.87-114.47,34.66A195.22,195.22,0,0,1,361,609.33a140.08,140.08,0,0,1-25.68-27.2h-5a143.58,143.58,0,0,0,28.08,30.39,185.81,185.81,0,0,0,21,14.64,168.6,168.6,0,0,1-51-18.82,127.25,127.25,0,0,1-32.17-26.2H285.57a135.93,135.93,0,0,0,38.8,33.35,175.21,175.21,0,0,0,75.38,22.63c32.58,15.75,72.89,27.42,115.22,32.82,5.69.73,11.28,1.27,16.82,1.74-25.59,34.26-52.78,55.77-81.25,64.1-29.35,8.58-61.14,3.39-94.47-15.43-48.37-27.31-90-80.55-110-139.19H233.44C254,645.3,298.28,702.86,350,732.07c24.84,14,49,21.06,72.31,21.05A112.35,112.35,0,0,0,454,748.59c32.81-9.59,63.73-34.77,92.32-75,5,.22,10,.37,14.84.37,22.37,0,42.71-2.36,60-6.9Z"/><polygon class="cls-2" points="727.05 608.04 727.06 721.78 698.71 721.78 698.7 676.13 661.54 676.13 661.54 721.79 633.02 721.79 633.02 608.04 661.54 608.04 661.54 652.42 698.7 652.42 698.7 608.04 727.05 608.04"/><path class="cls-2" d="M764.06,689.43c0,10.73,6.41,12.49,13.62,12.49a43.41,43.41,0,0,0,11.7-1.6V633.19h27.55v83a110.62,110.62,0,0,1-41,7.7c-25.15,0-39.57-8.49-39.57-37.49V633.2h27.72Z"/><path class="cls-2" d="M864.82,653.05c-5.29,0-9,.8-10.25,1.44v46.14a33,33,0,0,0,10.25,1.28c13.94,0,16-11.06,16-24.51s-2.56-24.35-16-24.35m-.16,70.81a96.67,96.67,0,0,1-37.81-7.69V600h27.71v32.36a64.81,64.81,0,0,1,12.33-1.28c29.8,0,41.66,18.1,41.66,46.3s-10.89,46.46-43.89,46.46"/><rect class="cls-2" x="171.34" y="456.09" width="28.36" height="113.74"/><path class="cls-2" d="M264.09,513.6c0-10.73-6.41-12.49-13.45-12.49a43.56,43.56,0,0,0-11.7,1.6v67.12H211.23v-83a111.77,111.77,0,0,1,41-7.69c25.15,0,39.57,8.49,39.57,37.49v53.18H264.09Z"/><path class="cls-2" d="M354.12,513.59c0-10.73-6.41-12.49-13.45-12.49a43.56,43.56,0,0,0-11.7,1.6v67.12H301.26v-83a111.78,111.78,0,0,1,41-7.69c25.15,0,39.57,8.49,39.57,37.49v53.18H354.12Z"/><polygon class="cls-2" points="493.64 481.23 509.82 544.98 525.84 481.23 553.88 481.23 527.29 569.81 492.2 569.82 465.61 481.23 493.64 481.23"/><path class="cls-2" d="M600.18,553.63V537.29c-3-.32-6.57-.8-9.29-.8-7.37,0-12.34,1.92-12.34,9.45s5,9.13,11.38,9.13a37,37,0,0,0,10.25-1.45m0-33.16v-8.33c0-7.85-6.25-10.89-16.5-10.89a65.69,65.69,0,0,0-23.71,4.8l-5-20.18c1.6-.8,14.41-6.73,33.8-6.73,22.43,0,39.09,7.84,39.09,33.8V564s-14.74,7.85-39.57,7.86c-25.31,0-37.81-8.17-37.81-26.11,0-16,10.25-26.11,37.17-26.12a104.33,104.33,0,0,1,12.5.8"/><path class="cls-2" d="M669.06,503v33c0,8.81,3.69,13.94,11.38,13.94a31,31,0,0,0,11.06-2.24l3,19.7s-7.69,4.49-21.63,4.49c-17.14,0-31.4-7.85-31.4-35.72V503H631.25V481.22H641.5V459.43l27.55-3.68v25.47h20.83V503Z"/><path class="cls-2" d="M727.69,569.8H700V481.22h27.71ZM729,458.15c0,9-6.25,13.62-15.22,13.62s-15.06-4.64-15.06-13.61,6.09-13.62,15.06-13.62S729,449.18,729,458.15"/><path class="cls-2" d="M776.87,501.08c-13.14,0-14.1,13.13-14.1,24.51s1,24.35,14.1,24.35,13.94-13,13.93-24.35-.8-24.51-13.94-24.51m0,70.81c-31.24,0-41.81-19.86-41.82-46.3s10.57-46.46,41.81-46.46c31.08,0,41.65,20,41.66,46.46s-10.57,46.3-41.65,46.3"/><path class="cls-2" d="M878.91,513.57c0-10.73-6.41-12.49-13.45-12.49a43.56,43.56,0,0,0-11.7,1.6V569.8H826v-83a111.79,111.79,0,0,1,41-7.69c25.15,0,39.57,8.49,39.57,37.49v53.18H878.91Z"/><path class="cls-2" d="M429.06,501.39c-13.14,0-14.1,13.14-14.1,24.51s1,24.35,14.1,24.35S443,537.28,443,525.9s-.8-24.51-13.94-24.51m0,70.81c-31.24,0-41.81-19.86-41.82-46.3s10.57-46.46,41.81-46.46c31.08,0,41.65,20,41.66,46.46s-10.57,46.3-41.65,46.3"/></g></svg>