<svg id="Layer_1" data-name="Layer 1" xmlns="http://www.w3.org/2000/svg" viewBox="0 0 1080 1080"><defs><style>.cls-1{opacity:0.75;}.cls-2{fill:#fff;}</style></defs><title>WGBH_impact-report_digital_logo-farm_v1</title><g class="cls-1"><path class="cls-2" d="M146.46,516.46c-11.84,0-21.41-6.76-21.41-23.32,0-17.69,12.73-28.17,29.17-28.17,17.92,0,30.08,11.15,30.08,32.22,0,27.94-19.6,42.59-46.18,47.09l-2.48-17.46c14.42-2.7,24.1-7.54,27.93-15.77C157.95,514.65,152.65,516.46,146.46,516.46Zm7.88-35.83c-5.07,0-8.67,4.06-8.67,10.93s3,9.8,8.78,9.8c3,0,6.2-1,9.92-3.27C164.37,485,160,480.63,154.34,480.63Z"/><path class="cls-2" d="M212,516.46c-11.83,0-21.4-6.76-21.4-23.32,0-17.69,12.72-28.17,29.17-28.17,17.91,0,30.08,11.15,30.09,32.22,0,27.94-19.6,42.59-46.19,47.09l-2.48-17.46c14.42-2.7,24.11-7.54,27.94-15.77C223.55,514.65,218.25,516.45,212,516.46Zm7.89-35.83c-5.07,0-8.67,4.06-8.67,10.93s3,9.8,8.79,9.8c3,0,6.19-1,9.92-3.27C230,485,225.57,480.63,219.94,480.63Z"/><path class="cls-2" d="M254.56,542.59v-22h21.29v22Z"/><path class="cls-2" d="M308.53,544a62.55,62.55,0,0,1-24.67-5L286.79,521c6.42,2.71,13.85,5,21.4,5,6.76,0,11.6-3.15,11.6-8.45,0-5.07-3.6-7.77-9.69-7.77a25.05,25.05,0,0,0-10,2l-13.41-2.93,2.59-42.36h47l2.82,17.91H305.94l-.56,9.69a45.23,45.23,0,0,1,10.14-1c14.42,0,25,7.66,25,23.44C340.53,534.47,327.46,544,308.53,544Z"/><path class="cls-2" d="M393.12,650.34c-12.33,0-20.28-9.15-20.28-22.69s8.07-22.82,20.4-22.82a21.11,21.11,0,0,1,12.46,3.62l-.89,6.1a18.81,18.81,0,0,0-11.63-4.26c-8.9,0-14.17,6.74-14.17,17.29s5.34,17.23,14.17,17.22a20.91,20.91,0,0,0,12.33-4.39l.89,5.66A23.14,23.14,0,0,1,393.12,650.34Z"/><path class="cls-2" d="M414.28,649.51v-45l5.66-.89v45.89Z"/><path class="cls-2" d="M447.2,649.51l-.63-4.07a14.31,14.31,0,0,1-10.68,4.7c-5.47,0-8.9-3.31-8.9-8.45,0-7.56,6.48-10.55,19.13-11.89v-1.27c0-3.81-2.29-5.15-5.78-5.15A26,26,0,0,0,429.84,626l-.76-4.89a29.37,29.37,0,0,1,11.76-2.54c7.37,0,10.93,3,10.93,9.72v21.23Zm-1.08-15.38c-11.19,1.08-13.54,4.13-13.54,7.25,0,2.48,1.65,4.07,4.51,4.07a12.87,12.87,0,0,0,9-4.26Z"/><path class="cls-2" d="M469.31,650.15a24.87,24.87,0,0,1-11.06-2.86l.82-5.34a19,19,0,0,0,10.68,3.49c3.88,0,6.17-1.46,6.17-4,0-2.8-1.72-3.81-7.18-5.15-7.12-1.78-10-3.94-10-9.34,0-4.83,4.07-8.39,10.68-8.39a24.49,24.49,0,0,1,10,2l-.89,5.34a19.32,19.32,0,0,0-9.22-2.61c-3.43,0-5.21,1.34-5.21,3.5s1.53,3.18,6.29,4.39c7.5,1.91,10.87,4.07,10.87,9.85C481.26,646.58,477.13,650.15,469.31,650.15Z"/><path class="cls-2" d="M496.71,650.14a24.87,24.87,0,0,1-11.06-2.86l.82-5.34a19,19,0,0,0,10.68,3.49c3.88,0,6.17-1.46,6.17-4,0-2.8-1.72-3.81-7.18-5.15-7.12-1.78-10-3.94-10-9.34,0-4.83,4.07-8.39,10.68-8.39a24.49,24.49,0,0,1,10,2l-.89,5.34a19.33,19.33,0,0,0-9.22-2.61c-3.43,0-5.21,1.34-5.21,3.5s1.53,3.18,6.29,4.39c7.5,1.91,10.87,4.07,10.87,9.85C508.66,646.58,504.53,650.14,496.71,650.14Z"/><path class="cls-2" d="M518.44,613.09a3.61,3.61,0,0,1-3.62-3.56,3.66,3.66,0,0,1,3.62-3.62,3.61,3.61,0,0,1,3.56,3.62A3.55,3.55,0,0,1,518.44,613.09Zm-2.86,36.42V619.19h5.66v30.32Z"/><path class="cls-2" d="M542.53,650.14c-8.14,0-14.11-5.66-14.11-15.76,0-10.36,6.36-15.83,14.24-15.83a16.44,16.44,0,0,1,9.91,2.8l-.82,5.53a13.72,13.72,0,0,0-9.15-3.37c-5,0-8.45,3.75-8.45,10.81,0,7.37,3.75,10.87,9.09,10.87a12.45,12.45,0,0,0,8.84-3.37l.83,5.08A16,16,0,0,1,542.53,650.14Z"/><path class="cls-2" d="M577.87,649.5l-.63-4.07a14.31,14.31,0,0,1-10.68,4.7c-5.47,0-8.9-3.31-8.9-8.45,0-7.56,6.48-10.55,19.13-11.89v-1.27c0-3.81-2.29-5.15-5.78-5.15A26,26,0,0,0,560.51,626l-.76-4.89a29.37,29.37,0,0,1,11.76-2.54c7.37,0,10.93,3,10.93,9.72V649.5Zm-1.08-15.38c-11.19,1.08-13.54,4.13-13.54,7.25,0,2.48,1.65,4.07,4.51,4.07a12.87,12.87,0,0,0,9-4.26Z"/><path class="cls-2" d="M591.21,649.5v-45l5.66-.89V649.5Z"/><path class="cls-2" d="M650.07,648.61l-6,1.33L630.61,631H626.1v18.5h-6V605.64h12c9,0,14.56,4.45,14.56,12.46,0,6.61-3.88,10.55-9.6,12.14Zm-18.24-37.69H626.1V626h5.09c5.78,0,9.47-2.61,9.47-7.57C640.66,613.65,637.67,610.92,631.82,610.92Z"/><path class="cls-2" d="M673.45,649.5l-.63-4.07a14.31,14.31,0,0,1-10.68,4.7c-5.47,0-8.9-3.31-8.9-8.45,0-7.56,6.48-10.55,19.13-11.89v-1.27c0-3.81-2.29-5.15-5.78-5.15A26,26,0,0,0,656.1,626l-.76-4.89a29.37,29.37,0,0,1,11.76-2.54c7.37,0,10.93,3,10.93,9.72V649.5Zm-1.08-15.38c-11.19,1.08-13.54,4.13-13.54,7.25,0,2.48,1.65,4.07,4.51,4.07a12.87,12.87,0,0,0,9-4.26Z"/><path class="cls-2" d="M707.13,649.5l-.7-4.39c-2.29,2.73-5.4,5-9.85,5-6.55,0-11.95-4.77-11.95-14.94,0-11.06,6.36-16.4,13.73-16.4a21.32,21.32,0,0,1,7.63,1.33V604.5l5.66-.89V649.5ZM706,625.28a14.32,14.32,0,0,0-7.44-1.72c-4.77,0-8.2,3.88-8.2,11.38,0,6.67,3,10.17,7.06,10.17,3.5,0,6.17-2.1,8.58-5.34Z"/><path class="cls-2" d="M723.4,613.08a3.61,3.61,0,0,1-3.62-3.56,3.66,3.66,0,0,1,3.62-3.62,3.61,3.61,0,0,1,3.56,3.62A3.55,3.55,0,0,1,723.4,613.08Zm-2.86,36.42V619.18h5.66V649.5Z"/><path class="cls-2" d="M747.3,650.13c-8.07,0-13.92-5.78-13.92-15.76s5.85-15.83,13.92-15.83,14.11,5.85,14.11,15.83S755.43,650.13,747.3,650.13Zm0-26.82c-5.47,0-8.2,4.7-8.2,11.06s2.86,11.06,8.2,11.06c5.59,0,8.39-4.7,8.39-11.06S752.76,623.31,747.3,623.31Z"/><path class="cls-2" d="M793,649.49H782.5V605.64h10.62c9.66,0,14.17,4.64,14.18,11.38,0,4.45-2.35,7.44-6.29,9.09,4.89,1.46,8.2,4.77,8.2,10.55C809.2,645.43,803.1,649.49,793,649.49Zm0-38.77h-4.64v13.35h4.19c5.78,0,8.9-2.54,8.9-6.87C801.44,613.2,799,610.72,793,610.72Zm.26,18.24h-4.89v15.45h5.09c6.29,0,9.92-2.54,9.92-7.63S799.79,629,793.25,629Z"/><path class="cls-2" d="M828.07,650.13c-8.07,0-13.92-5.78-13.92-15.76s5.85-15.83,13.92-15.83,14.11,5.85,14.11,15.83S836.21,650.13,828.07,650.13Zm0-26.82c-5.47,0-8.2,4.7-8.2,11.06s2.86,11.06,8.2,11.06c5.59,0,8.39-4.7,8.39-11.06S833.54,623.3,828.07,623.3Z"/><path class="cls-2" d="M858.13,650.13a24.87,24.87,0,0,1-11.06-2.86l.82-5.34a19,19,0,0,0,10.68,3.49c3.88,0,6.17-1.46,6.17-4,0-2.8-1.72-3.81-7.18-5.15-7.12-1.78-10-3.94-10-9.34,0-4.83,4.07-8.39,10.68-8.39a24.49,24.49,0,0,1,10,2l-.89,5.34a19.33,19.33,0,0,0-9.22-2.61c-3.43,0-5.21,1.34-5.21,3.5s1.53,3.18,6.29,4.39c7.5,1.91,10.87,4.07,10.87,9.85C870.08,646.57,866,650.13,858.13,650.13Z"/><path class="cls-2" d="M886.86,650c-5.34,0-8.83-1.91-8.83-8V623.94h-4.58v-4.77H878V609.06l5.53-.83v10.93h6.55l.76,4.77h-7.31v17c0,2.48,1,4,4.2,4a15,15,0,0,0,2.61-.19l.76,4.83A21.15,21.15,0,0,1,886.86,650Z"/><path class="cls-2" d="M909.49,650.12c-8.07,0-13.92-5.78-13.92-15.76s5.85-15.83,13.92-15.83,14.11,5.85,14.11,15.83S917.62,650.12,909.49,650.12Zm0-26.82c-5.47,0-8.2,4.7-8.2,11.06s2.86,11.06,8.2,11.06c5.59,0,8.39-4.7,8.39-11.06S915,623.3,909.49,623.3Z"/><path class="cls-2" d="M949.4,649.49V628.83c0-3.11-1.33-5.21-4.64-5.21-3,0-6,2-8.77,4.89v21h-5.66V619.17h4.51l.7,4.39c2.86-2.61,6.42-5,10.74-5,5.72,0,8.77,3.43,8.77,8.9v22.06Z"/><path class="cls-2" d="M641.72,508.05a11.6,11.6,0,0,1,6.11,8.2c1.11,4.6,1.35,9.13,2.5,15.35l.07-35.78A21.85,21.85,0,0,1,641.72,508.05Z"/><path class="cls-2" d="M697,488.68c0-4-2.6-6.41-6.88-6.41H680.07v12.51s6.26.15,10.08.15S697,492.66,697,488.68Z"/><path class="cls-2" d="M536.89,481.65c-5.92,0-8.88,4-8.87,23.13,0,17.52,3,21,8.43,21,5.77,0,7.39-4.35,8.13-14.08h30V497h-30C544.28,487.56,543.1,481.65,536.89,481.65Z"/><path class="cls-2" d="M621.89,488.69c0-4-3.19-6.41-8.45-6.41H601v12.51s7.7.15,12.39.15S621.89,492.66,621.89,488.69Z"/><path class="cls-2" d="M761.26,489.08c-.77-15-11.85-16.84-14.37-18a17.44,17.44,0,0,0,6.31-2.46c7.1-4.58,7.78-10.24,8-14.4A22,22,0,0,0,753.69,437c-7.42-6.12-19.88-5.07-28.85-5.07-17.24,0-28.69.44-28.69.44l-7.65,7.72a18.2,18.2,0,0,0-2.57-2.64c-7.42-6.13-19.88-5.07-28.85-5.07h-43.7l-6.05,6.11s-11.58-9.08-30.11-9.08-27.35,5.47-38.45,14.74l2.89-11.85H515.21l-14.13,14.13-3.34-14.13H472.2l-14.28,14L455,432.55H427.12L363.56,495.2l16,80.84h26.74l14-13.68,3.56,13.49h26l14.4-13.49c5.77,9,17.62,15.65,39.21,15.65S540.9,570,545,566.76v9.08h29.62l12-12.22,0,12.22,25.26-.44h7.42l34.3-.07s22.57.54,28.05-2.17c2.82-1.39,7.47-4.57,15.68-12.85l25.29-24.47,26.69-25.59C754.92,504.17,761.81,499.69,761.26,489.08ZM727.1,529.14c-3.36,7-7.94,11.88-23.21,11.88H624.45c-1.7-5.77-2.61-16.62-3.61-23.26-.6-3.85-2.41-5.35-7-5.35H601.15V541H574.57V526.34a21.66,21.66,0,0,1-1.08,2.1c-5.94,10-18.33,15.11-38.53,15.11-21.51,0-39.84-8.49-42.42-33.92l-5.75,31.55H456.54L448,512.34l-8.28,28.84H409l-14.86-74.84h27.69L428,494l7-27.54h27.24l6.35,27.07,6.76-27.42h25.19l-2.82,15.48c7.06-11.71,20.61-17.74,38.19-17.74,21.37,0,33.46,7,38.72,18.91V465.74h41.76c7.94,0,15.54.37,20.64,2,7.83,2.62,11.78,8.89,13.45,14.59l0-16.5h52.21c15.42,0,21.38,4.94,24.43,13.95a22.8,22.8,0,0,1,0,14.5c-2.29,5.34-8.55,8.7-12.37,9.31,4,1.38,9.77,2.75,12.37,10.84C727.1,514.49,730.46,522.12,727.1,529.14Z"/><path class="cls-2" d="M690.61,512.35H680.08V525s6.72.15,10.54.15,6.87-2.29,6.87-6.25S694.89,512.35,690.61,512.35Z"/></g></svg>