<?xml version="1.0" encoding="utf-8"?>
<!-- Generator: Adobe Illustrator 21.1.0, SVG Export Plug-In . SVG Version: 6.00 Build 0)  -->
<svg version="1.1" id="Layer_1" xmlns="http://www.w3.org/2000/svg" xmlns:xlink="http://www.w3.org/1999/xlink" x="0px" y="0px"
	 viewBox="0 0 1080 1080" enable-background="new 0 0 1080 1080" xml:space="preserve">
<title>WGBH_impact-report_digital_logo-farm_v1</title>
<g opacity="0.75">
	<g>
		<path fill="#FFFFFF" d="M690.6,767.6v-5.4l27.3-29.1c7.9-8.4,10.6-13.6,10.6-20.5c0-8.9-5.5-14-14.7-14c-7.7,0-14.4,3.8-20.2,8.9
			l-1.1-7.2c5.5-4.6,12.6-8.2,21.7-8.2c13.7,0,21.8,8,21.8,20.2c0,9.1-3.8,15.5-12.9,25l-22.9,23.9h36.1l1,6.5h-46.7V767.6z"/>
		<path fill="#FFFFFF" d="M789.2,750v17.6h-6.8V750h-38v-5.2l35.9-51.8h8.9v51h12.2v6H789.2z M782.4,701.1l-30,42.9h30V701.1z"/>
		<path fill="#FFFFFF" d="M807.6,781.2l-6.5-1.3l51.8-88.8l6.5,1.4L807.6,781.2z"/>
		<path fill="#FFFFFF" d="M883.4,768.3l-7-1.6l29.5-66.7h-38.2l-1-6.6h47.4v5.5L883.4,768.3z"/>
	</g>
	<g>
		<path fill="#FFFFFF" stroke="#FFFFFF" stroke-width="5.4842" stroke-miterlimit="10" d="M376.8,807.1l-19.5-50.5h-66.2l-18.6,48.9
			h-15.4l59.7-152.2h15.6l59.2,150.5L376.8,807.1z M324.2,671.1l-27.6,72.2h55.7L324.2,671.1z"/>
		<path fill="#FFFFFF" stroke="#FFFFFF" stroke-width="5.4842" stroke-miterlimit="10" d="M412.6,805.6v-10.7l89.5-127.7H419
			l-2-12.9h103.3V665L431,792.7h88.8l2,12.9L412.6,805.6L412.6,805.6z"/>
		<path fill="#FFFFFF" stroke="#FFFFFF" stroke-width="5.4842" stroke-miterlimit="10" d="M546,805.6v-10.7l89.5-127.6h-83.1
			l-2-12.9h103.3V665l-89.3,127.7h88.8l2,12.9L546,805.6L546,805.6z"/>
	</g>
	<path fill="#FFFFFF" d="M256.4,278.4H314l6.1,28.3l29.5-28.9h52.7l6.9,29.2l29.2-29.2H493l-6,24.5c22.9-19.1,41.1-30.5,79.4-30.5
		c38.3,0,55.9,11.6,71,27.3l21.7-21h85.7c24.8,0,32.3,17.6,32.3,30.8l31.7-30.8h59v29.5l29.5-29.3h57.8V437L815.3,574.5h-65.1
		l-0.1-29.7l-30.8,29.7h-64.7v-27.2c-18.2,24.8-34.5,27.2-55.9,27.2h-98.9v-18.8c-8.5,6.6-41.4,23.2-86,23.2s-69.1-13.8-81-32.3
		l-29.7,27.9h-53.6l-7.4-27.9l-28.9,28.3h-55.3l-33-167L256.4,278.4z M188,348.2l30.8,154.7h63.8l17.2-59.3l17.8,59.3h62.8
		l12.6-62.1c11,65.6,77.2,68.1,96.4,68.1s50.2-4.7,77.2-20.7v14.7h110.2c31.4,0,40.8-10,47.7-24.4v24.4h66.2v-54.6h31.4v54.6h64.7
		V348.4h-64.7v55.4H791v-55.4h-66.6v28.7c-6.3-18.5-18.5-28.7-50.2-28.7H566.9v22.7c-9.1-10.7-31.7-27.6-80.4-27.6
		s-65.9,11.9-83.8,37l5.9-32.1h-52.1l-14,56.3l-13.2-56.2h-56.5l-14.4,57.1l-12.9-57.5H188V348.2z"/>
	<path fill="#FFFFFF" d="M509.4,395.9h57.5v17h-78.2v30.5h19.8v17c0,8.8-5,14.8-19.2,14.8c-14.1,0-19.2-10.7-19.2-15.7
		s0.3-57.8,0.3-64c0-6.3,4.7-16.3,19.5-16.3C504.7,379,509.4,386.8,509.4,395.9"/>
	<path fill="#FFFFFF" d="M627.8,382.1v25.7c0,0,12.9,0.3,20.7,0.3s14.1-4.7,14.1-12.9c0-8.2-5.3-13.2-14.1-13.2h-20.7V382.1z"/>
	<path fill="#FFFFFF" d="M627.8,444v26c0,0,13.8,0.3,21.7,0.3c7.8,0,14.1-4.7,14.1-12.9c0-8.2-5.3-13.5-14.1-13.5h-21.7V444z"/>
	<path fill="#FFFFFF" d="M724.5,406.9v41.4c-5.3-16.6-17.3-19.5-25.4-22.3C706.9,424.8,719.8,417.9,724.5,406.9"/>
	<g>
		<path fill="#FFFFFF" stroke="#FFFFFF" stroke-width="5.4842" stroke-miterlimit="10" d="M198.9,808.1
			c-17.1-0.4-26.6-7.4-36.5-18.2l7-11.9c10.5,10.6,16.5,16.3,29.8,16.6c15.8,0.3,24.4-8.4,24.4-26V650.8h15.5v117.9
			C239.1,795.6,222.6,808.7,198.9,808.1z"/>
	</g>
</g>
</svg>
