<svg id="Layer_1" data-name="Layer 1" xmlns="http://www.w3.org/2000/svg" viewBox="0 0 1080 1080"><defs><style>.cls-1{opacity:0.75;}.cls-2{fill:#fff;}</style></defs><title>WGBH_impact-report_digital_logo-farm_v1</title><g class="cls-1"><path class="cls-2" d="M458.93,519.14c6.15,2.4,12.87,6.47,16.38,17.36a42.23,42.23,0,0,1,0,26.3c-2.39,5-5.16,9.39-9.28,12.82l-58,58a33.68,33.68,0,0,0,6.35-36.11c-4.69-14.54-15.06-16.93-22.19-19.41,6.86-1.13,18.08-7.17,22.19-16.75,0,0,5.1-10.49,0-25.93-5.47-16.18-16.18-25-43.75-25H277.08v19.81c-8-9.35-27.69-24.16-70.06-24.16-27.06,0-43,4.35-55,13.09l49.5-50.28c13.77-16.11,30-23.79,66.45-23.79,29.44,0,48,7.14,59.18,14.63L338,449.38h93.57c27.58,0,38.3,8.88,43.74,25,5.14,15.47,0,25.94,0,25.94a24.73,24.73,0,0,1-5.53,7.86ZM330.09,562.48V539.83h18c7.67,0,12.36,4.33,12.36,11.44s-5.49,11.22-12.36,11.22Zm18.83,54.16H330.09V593.73h18.82c7.71,0,12.32,4.67,12.32,11.7s-5.44,11.21-12.32,11.21m-71.84-50.06H208.89v26.53h17.25v14.76c0,7.65-4.41,12.91-16.69,12.91s-16.66-9.32-16.66-13.72.25-50.38.25-55.8,4.14-14.21,17-14.21,16.92,6.83,16.92,14.78h50.15Z"/><path class="cls-2" d="M544.08,510.11c.79-2.47,1.14-5.17,1.14-10.13s-.34-7.65-1.14-10.13c-1.46-4.5-4.94-7-10-7s-8.66,2.47-10.13,7c-.78,2.47-1.12,5.18-1.12,10.13s.34,7.66,1.12,10.13c1.47,4.5,5,7,10.13,7s8.56-2.47,10-7m-21.15,11.82h-.11v4a1.07,1.07,0,0,1-1.13,1.13H511.33a1.06,1.06,0,0,1-1.12-1.13V451.7a1.06,1.06,0,0,1,1.12-1.13h10.35a1.06,1.06,0,0,1,1.13,1.13V478h.11c2.59-3.71,7.08-6.41,14.4-6.41,9.22,0,16,4.39,18.8,13.06,1.35,4.17,1.91,8,1.91,15.3s-.55,11.14-1.91,15.31c-2.81,8.67-9.57,13.06-18.8,13.06-7.32,0-11.81-2.7-14.4-6.41"/><path class="cls-2" d="M600.51,489.29c-1.46-4.39-5.52-7-10.59-7s-9.23,2.59-10.68,7a13.89,13.89,0,0,0-.67,4.61.6.6,0,0,0,.67.67h21.27a.6.6,0,0,0,.68-.67,13.88,13.88,0,0,0-.68-4.61m-32.75,24A41.93,41.93,0,0,1,565.84,500a43,43,0,0,1,1.8-13.39c3-9.46,11.36-15,22.17-15,11.14,0,19.25,5.73,22.29,15,1.24,3.82,1.79,7.54,1.79,16.31a1.1,1.1,0,0,1-1.23,1.13H579.24a.59.59,0,0,0-.67.67,11.84,11.84,0,0,0,.78,4.16c1.8,5.3,6.07,8.22,12.15,8.22s10-2.24,12.72-5.18a1.16,1.16,0,0,1,1.69-.23l6.65,5.86a1,1,0,0,1,.11,1.58c-4.61,5.4-12.27,9.23-22.28,9.23-11.49,0-19.58-5.63-22.63-15.08"/><path class="cls-2" d="M655.58,508.86V504.7a.6.6,0,0,0-.68-.67h-9c-8.12,0-11.72,2.25-11.72,7.31,0,4.5,3.27,6.75,9.35,6.75,7.76,0,12-3,12-9.23m1.34,18.24A1.07,1.07,0,0,1,655.8,526V522h-.11c-2.58,3.71-7.65,6.31-15.3,6.31-9.91,0-18.24-5.18-18.25-16.55,0-11.82,8.34-17.22,21.73-17.22h11a.6.6,0,0,0,.68-.67v-2.59c0-6.19-2.93-9-12-9-6.08,0-9.8,1.69-12.39,3.72a1,1,0,0,1-1.58-.23l-4.17-7.43a1.06,1.06,0,0,1,.22-1.46c4.4-3.15,10.36-5.29,19.25-5.29,16.55,0,22.63,5.62,22.63,18.9V526a1.07,1.07,0,0,1-1.13,1.13Z"/><path class="cls-2" d="M696.57,527.77c-10.91,0-15.07-5.28-15.07-15.87V483.31a.6.6,0,0,0-.68-.67h-3.6a1.05,1.05,0,0,1-1.12-1.12V474a1.06,1.06,0,0,1,1.12-1.12h3.6a.6.6,0,0,0,.68-.67V457.32a1.06,1.06,0,0,1,1.12-1.12H693a1.06,1.06,0,0,1,1.13,1.12v14.86a.6.6,0,0,0,.68.67H702A1.07,1.07,0,0,1,703.1,474v7.54a1.07,1.07,0,0,1-1.13,1.12h-7.2a.6.6,0,0,0-.68.67v28.14c0,3.82,1.57,5.06,5.06,5.06H702a1.07,1.07,0,0,1,1.13,1.13v9a1.06,1.06,0,0,1-1.13,1.12Z"/><path class="cls-2" d="M753.67,527.77c-10.92,0-15.08-5.28-15.08-15.87V483.31a.6.6,0,0,0-.68-.67h-3.6a1.06,1.06,0,0,1-1.13-1.12V474a1.06,1.06,0,0,1,1.13-1.12h3.6a.6.6,0,0,0,.68-.67V457.32a1.05,1.05,0,0,1,1.12-1.12h10.36a1.05,1.05,0,0,1,1.12,1.12v14.86a.6.6,0,0,0,.68.67h7.21A1.07,1.07,0,0,1,760.2,474v7.54a1.07,1.07,0,0,1-1.13,1.12h-7.21a.6.6,0,0,0-.68.67v28.14c0,3.82,1.58,5.06,5.08,5.06h2.81a1.07,1.07,0,0,1,1.13,1.13v9a1.06,1.06,0,0,1-1.13,1.12Z"/><path class="cls-2" d="M805.45,527.1a1.06,1.06,0,0,1-1.11-1.13V494.68c0-7-3.5-11.81-10.25-11.81-6.52,0-10.36,4.84-10.36,11.81V526a1.07,1.07,0,0,1-1.12,1.13H772.25a1.07,1.07,0,0,1-1.12-1.13V451.69a1.06,1.06,0,0,1,1.12-1.13H782.6a1.07,1.07,0,0,1,1.12,1.13v26.22h.11c2.36-3.38,7.09-6.31,14.3-6.31,11.59,0,18.8,8.55,18.8,20.14V526a1.06,1.06,0,0,1-1.13,1.13Z"/><path class="cls-2" d="M861.77,489.28c-1.46-4.39-5.52-7-10.59-7s-9.23,2.59-10.68,7a13.72,13.72,0,0,0-.68,4.61.6.6,0,0,0,.68.67h21.27a.6.6,0,0,0,.68-.67,13.8,13.8,0,0,0-.68-4.61m-32.75,24A42,42,0,0,1,827.1,500a43,43,0,0,1,1.81-13.39c3-9.46,11.36-15,22.17-15,11.14,0,19.24,5.73,22.28,15,1.24,3.82,1.8,7.54,1.8,16.31a1.1,1.1,0,0,1-1.24,1.13H840.5a.6.6,0,0,0-.68.67,11.87,11.87,0,0,0,.79,4.16c1.79,5.3,6.08,8.22,12.15,8.22s10-2.24,12.72-5.18c.57-.56,1.13-.67,1.69-.23l6.64,5.86a1,1,0,0,1,.11,1.58c-4.61,5.4-12.26,9.23-22.28,9.23-11.48,0-19.58-5.63-22.62-15.08"/><path class="cls-2" d="M616.57,575.75c0-6.9-4.64-11.55-12.42-11.55H590.09a.67.67,0,0,0-.75.76v21.45a.66.66,0,0,0,.75.76h14.06c7.78,0,12.42-4.51,12.42-11.41M572.15,633.6a1.18,1.18,0,0,1-1.26-1.26V549.53a1.19,1.19,0,0,1,1.26-1.26h33.12c18.58,0,29.75,11.16,29.75,27.48,0,16.07-11.29,27.35-29.74,27.35H590.09a.67.67,0,0,0-.75.76v28.48a1.19,1.19,0,0,1-1.26,1.26Z"/><path class="cls-2" d="M691.41,574.74c0-6.39-4.52-10.54-11.55-10.54H664.8a.66.66,0,0,0-.74.76v19.7a.66.66,0,0,0,.74.75h15.06c7,0,11.55-4.15,11.55-10.67m1.37,58.85a1.7,1.7,0,0,1-1.87-1.26l-14.69-31.24H664.8a.66.66,0,0,0-.74.76v30.49a1.19,1.19,0,0,1-1.26,1.26H646.86a1.18,1.18,0,0,1-1.25-1.26V549.53a1.19,1.19,0,0,1,1.25-1.26h34c17.44,0,29,10.91,29,26.48,0,10.92-5.77,19.57-15.18,23.71l16.81,33.63a1,1,0,0,1-.88,1.5Z"/><path class="cls-2" d="M722.68,549.52a1.19,1.19,0,0,1,1.26-1.26h54.71a1.19,1.19,0,0,1,1.26,1.26v13.42a1.19,1.19,0,0,1-1.26,1.25H741.88a.66.66,0,0,0-.75.76V581.9a.66.66,0,0,0,.75.76H772.5a1.18,1.18,0,0,1,1.26,1.25v13.3a1.18,1.18,0,0,1-1.26,1.25H741.88a.67.67,0,0,0-.75.76V616.9a.67.67,0,0,0,.75.76h36.77a1.19,1.19,0,0,1,1.26,1.25v13.42a1.19,1.19,0,0,1-1.26,1.26H723.94a1.19,1.19,0,0,1-1.26-1.26Z"/><path class="cls-2" d="M788.23,623.3a1.55,1.55,0,0,1-.12-2.13l9.54-10.93a1.26,1.26,0,0,1,1.88-.12c5.66,4.52,13.3,8.78,22.34,8.78s13.94-4.14,13.94-10.15c0-5-3-8.17-13.18-9.54l-4.52-.63c-17.32-2.39-27-10.54-27-25.61,0-15.68,11.8-26.1,30.25-26.1,11.31,0,21.84,3.39,29,8.91.75.5.87,1,.25,1.88l-7.65,11.42a1.27,1.27,0,0,1-1.76.38c-6.53-4.27-12.8-6.53-19.83-6.53-7.53,0-11.41,3.9-11.41,9.29,0,4.9,3.52,8,13.29,9.41l4.53.63c17.56,2.39,26.85,10.41,26.85,25.84S843.19,635,821.11,635c-13.3,0-26.24-5.27-32.89-11.67"/><path class="cls-2" d="M861.68,623.3a1.53,1.53,0,0,1-.13-2.13l9.53-10.93a1.26,1.26,0,0,1,1.88-.12c5.65,4.52,13.3,8.78,22.34,8.78s13.94-4.14,13.94-10.15c0-5-3-8.17-13.19-9.54l-4.52-.63c-17.32-2.39-27-10.54-27-25.61,0-15.68,11.8-26.1,30.25-26.1,11.29,0,21.83,3.39,29,8.91.76.5.88,1,.26,1.88l-7.65,11.42a1.26,1.26,0,0,1-1.76.38c-6.53-4.27-12.8-6.53-19.83-6.53-7.53,0-11.41,3.9-11.41,9.29,0,4.9,3.51,8,13.29,9.41l4.53.63c17.56,2.39,26.85,10.41,26.85,25.84S916.63,635,894.56,635c-13.31,0-26.23-5.27-32.88-11.67"/></g></svg>