<svg id="Layer_1" data-name="Layer 1" xmlns="http://www.w3.org/2000/svg" viewBox="0 0 1080 1080"><defs><style>.cls-1{opacity:0.75;}.cls-2{fill:#fff;}</style></defs><title>WGBH_impact-report_digital_logo-farm_v1</title><g class="cls-1"><path class="cls-2" d="M955,677V648.32h-24l1.38,7.42h14.58V673a25.54,25.54,0,0,1-13.33,3.52c-14.46,0-22.38-10.31-22.38-25.9,0-15.34,8.42-25.9,21.62-25.9a29.3,29.3,0,0,1,18,6.16l1.26-8c-4.9-3.27-11.44-5.15-19-5.15-18.35,0-30.42,13.45-30.42,33.06s11.32,32.81,30.55,32.81A39.67,39.67,0,0,0,955,677m-67.37,5.41V618.78h-7.67v49.4l-33.44-49.4h-8.55v63.61h7.67V631.1l34.7,51.29Zm-69-63.61h-8.42v63.61h8.42ZM790.79,682.4V618.79h-7.67v49.4l-33.44-49.4h-8.55V682.4h7.67V631.11l34.7,51.29Zm-64.49,0V675H695.75V653H721l-1.26-7.42h-24V626.21h29.67v-7.42H687.32V682.4Zm-51-63.61h-8.55l-20.24,54.06-20.62-54.93-8.42,1.76,24.89,63.73h7.54ZM609.51,682.4V675H579V653h25.27L603,645.57H579V626.21h29.67V618.8H570.54v63.61Zm-81,0V675H498V653h25.27L522,645.58H498V626.22h29.67V618.8H489.58v63.61Zm-58,0V618.8h-8.3v26.65H429.5V618.8h-8.42v63.61h8.42V653h32.81v29.42Zm-61-56.19-1.13-7.42H358.85v7.42h21v56.19h8.42V626.22Zm-89.5,56.2V618.81h-7.67v49.4L279,618.81h-8.55v63.61h7.67V631.13l34.7,51.29Zm-69-63.61H242.7v63.61h8.42Z"/><path class="cls-2" d="M553.54,552.11l-3.37-21.38c-13.21,9.6-28.83,16.58-46.6,16.58-33.4,0-53.58-25.22-53.58-65.11s19.94-65.34,53.57-65.35c17.78,0,32,7,44,16.09l3.36-23.06c-12.73-8.64-27.39-13.68-47.08-13.68-46.61,0-77.12,34.83-77.11,86.25,0,51.17,30,85.77,76.64,85.76,19,0,37.48-6.73,50.22-16.1M396.9,399.32H374.31V565.09h22.59Zm-92.25,93c21.62-6,36.27-20.9,36.27-45.89,0-30.27-21.14-47.09-55-47.09H240.74V565.09h22.58V495.18h17.06l50.69,71.59,22.82-5Zm13.69-44.69c0,18.74-13.94,28.59-35.79,28.59H263.32V419.26h21.62c22.11,0,33.4,10.33,33.4,28.35M216.72,565.1V544.44H147.53V488.7h55.25L199.42,468H147.53V420h66.79V399.33H124.94V565.1Z"/></g></svg>