<?xml version="1.0" encoding="utf-8"?>
<!-- Generator: Adobe Illustrator 21.1.0, SVG Export Plug-In . SVG Version: 6.00 Build 0)  -->
<svg version="1.1" id="Layer_1" xmlns="http://www.w3.org/2000/svg" xmlns:xlink="http://www.w3.org/1999/xlink" x="0px" y="0px"
	 viewBox="0 0 1080 1080" enable-background="new 0 0 1080 1080" xml:space="preserve">
<title>WGBH_impact-report_digital_logo-farm_v1</title>
<g>
	<g>
		<defs>
			<rect id="SVGID_1_" x="162" y="360.4" width="305.6" height="179.5"/>
		</defs>
		<clipPath id="SVGID_2_">
			<use xlink:href="#SVGID_1_"  overflow="visible"/>
		</clipPath>
		<path opacity="0.75" clip-path="url(#SVGID_2_)" fill="#FFFFFF" d="M321.3,385.2c-22,0-43.2,5-63,14.9
			c-69.5,34.8-97.7,119.7-62.9,189.3c16.9,33.7,45.9,58.7,81.6,70.6c14.5,4.8,29.5,7.3,44.6,7.3c21.9,0,43.1-5.1,63-15
			c33.7-16.9,58.7-45.9,70.6-81.6c11.9-35.7,9.1-74-7.7-107.7C423.5,415,375.1,385.2,321.3,385.2z M372.7,406.2l1.1,0.5
			c18.2,8,34.7,20.3,47.6,35.7l0.5,0.6l-0.4,0.7c-4.7,8.5-10.6,16.8-17.3,24.9l-1,1.2l-0.9-1.3c-9.3-13.6-23.4-27.1-40.6-39l-1-0.7
			l0.7-1c4.5-6.7,8.2-13.6,10.8-20.5L372.7,406.2z M270.4,442.1c2.5-1,4.8-2,7.1-3.2c2.4-1.2,4.8-2.6,7.1-4l0.7-0.5l0.7,0.5
			c1,0.8,2.1,1.8,3.2,2.7c7.7,7,15,14.5,21.9,22.2l0.9,1l-1.2,0.8c-6.2,4-11.5,7.1-16.8,9.7c-5.5,2.8-11.2,5.3-17.6,7.6l-1.3,0.5
			l-0.3-1.3c-1.9-8.9-3.4-17.7-4.5-26.1c-0.3-3.2-0.5-6.2-0.7-8.8l0-0.8L270.4,442.1z M268.6,431.5l-0.1-1.8
			c-0.1-2.6-0.2-4.9-0.2-7.1l0-2.4l1.9,1.5c1.9,1.5,3.7,2.9,5.6,4.4l1.4,1.1l-1.5,0.8c-0.9,0.5-1.9,1-2.8,1.5
			c-0.8,0.4-1.6,0.8-2.4,1.1L268.6,431.5z M278.6,489.5c6.7-2.4,13.5-5.3,20.2-8.7c6-3,12.1-6.6,19.2-11.3l0.9-0.6l0.7,0.8
			c4.1,4.9,8,10,11.6,15c6.7,9.4,12.9,19.3,18.5,29.5l0.5,1l-0.9,0.6c-9,5.8-17.4,10.6-25.6,14.7c-8.5,4.2-17.5,8.2-27,11.8l-1,0.4
			l-0.5-1c-2-4.3-3.8-8.8-5.6-13.2c-4.6-12.6-8.6-25.2-11.8-37.7l-0.3-1L278.6,489.5z M327.7,462.8l1-0.7c9.5-7.3,18-15.3,25.2-24
			l0.7-0.8l0.9,0.6c4.5,3.1,8.8,6.4,13,9.8c10.3,8.7,19.4,18.7,27.1,29.6l0.6,0.8l-0.7,0.7c-10,10.4-21.8,20.5-35.3,30.1l-1.1,0.8
			l-0.6-1.2c-2.4-4.3-5-8.7-7.6-12.9c-6.4-10.8-13.9-21.4-22.4-31.7L327.7,462.8z M290.3,555.8l0.5,0.9c8,16.2,17.6,32.2,28.3,47.3
			l0.9,1.3l-1.5,0.5c-13.8,4.4-27.5,7.5-40.7,9.1l-0.6,0.1l-0.4-0.4c-19.2-18.6-29.3-36.9-33.6-46.2l-0.7-1.5l1.6-0.2
			c14.7-2,29.9-5.6,45.2-10.7L290.3,555.8z M300.8,553.5l-0.6-1.2l1.2-0.5c9.4-3.6,18.5-7.6,27-11.8c8.2-4.1,16.6-8.9,25.6-14.7
			l1.1-0.7l0.6,1.2c8.2,16.4,15.2,33.8,20.7,51.6l0.3,0.9l-0.8,0.5c-8.2,5.1-15.1,9.1-21.9,12.5c-7.5,3.7-15.2,7.2-23,10.1l-0.8,0.3
			l-0.5-0.7C318.7,585.8,309,569.8,300.8,553.5z M364.5,519.8l-0.5-0.9l0.8-0.6c13-9.1,24.9-19.1,35.5-29.9l1.1-1.1l0.8,1.4
			c4.8,9,13.5,28.1,16.9,54.4l0.1,0.6l-0.4,0.4c-9.6,10-20.2,19.2-31.6,27.3l-1.3,0.9l-0.5-1.5C379.7,553.2,372.7,536,364.5,519.8z
			 M311.9,403.7c0.5-2.3,0.5-4.4,0.2-6.4l-0.2-1.3l1.3-0.1c16.3-1,32.7,1.1,48.5,6.2l1.2,0.4l-0.5,1.2c-2.4,6.2-5.8,12.5-9.8,18.5
			l-0.6,0.9l-1-0.6c-7-4.3-14.2-8.1-21.6-11.2c-5.9-2.6-11.5-4.7-16.7-6.3l-1-0.3L311.9,403.7z M306.8,415.1l0.5-0.7l0.8,0.2
			c11.2,3.1,23.7,8.7,36.3,16.1l1.2,0.7l-0.9,1.1c-6.6,7.7-14.3,14.9-22.9,21.5l-0.9,0.7l-0.7-0.8c-8.1-9.2-16.4-17.5-24.8-24.8
			l-1.1-0.9l1.1-0.9C300.1,423.3,304,419.2,306.8,415.1z M293.3,398.8c2.6-0.6,4.8-1,6.9-1.3l1.1-0.2l0.3,1.1c0.2,0.9,0.2,1.9,0.1,3
			l-0.2,1.2l-1.2-0.2c-2.2-0.4-4.5-0.8-6.8-1.2l-6.4-0.9L293.3,398.8z M270.9,405.9l0.3,0c3.2,0.3,12,1.5,23.9,4.5l1.8,0.5l-1.2,1.4
			c-2.4,2.8-5.4,5.6-8.8,8.3l-0.7,0.6l-0.7-0.6c-8-6.6-13.8-10.7-15.9-12.2l-1.8-1.2L270.9,405.9z M267,493.3l0.3,1.2
			c5.5,22.4,11.6,35.4,11.8,35.9c2,5.1,4.1,10,6.2,14.7l0.5,1.2l-1.3,0.4c-15.3,5-30.6,8.4-45.4,10.2l-0.9,0.1l-0.3-0.9
			c-3.6-9.4-6-20.5-7-33.1l-0.1-0.7c-0.1-1.6-0.2-3.3-0.3-5l0-0.9c0-0.7-0.1-1.4-0.1-2l0-1.7c-0.1-4,0-8.1,0.1-12.1l0-1.1l1.1-0.1
			c11-0.6,22.4-2.5,34.2-5.9L267,493.3z M259.4,447.3c0.5,7.4,1.8,19.4,5,34.6l0.2,1.1l-1.1,0.3c-10.4,3-20.8,4.8-30.8,5.5l-1.4,0.1
			l0.2-1.4c1.5-12.9,4.3-25.8,8.4-38.4l0.3-0.9l1-0.1c5.1,0.2,10.8-0.4,16.8-1.9l1.4-0.3L259.4,447.3z M244.8,436
			c4.6-11.4,8.9-19.2,10.6-22.1l0.2-0.3l2.6-1.5l0,2.1c0,6.7,0.1,13.5,0.5,20.1l0,0.9l-0.9,0.3c-4.2,1.2-8.1,1.9-11.8,2.1l-1.9,0.1
			L244.8,436z M230.8,432.4c2-1.9,4.1-3.8,6.4-5.8l5.7-4.8l-3.9,6.3c-1.4,2.3-2.8,4.8-4.1,7.3l-0.5,1l-1.1-0.5
			c-1.1-0.6-2-1.2-2.6-1.9l-0.7-0.8L230.8,432.4z M198,484.4c5.3-15.6,13.3-29.9,23.9-42.4l0.8-1l0.9,0.9c1.5,1.4,3.3,2.6,5.4,3.6
			l1,0.5l-0.4,1c-2.4,6.7-4.4,14.2-6.1,22.5l-0.2,1c-0.2,1.1-0.4,2.2-0.6,3.2l-0.3,1.9c-0.2,1.4-0.4,2.8-0.6,4.2
			c-0.4,3-0.7,5.7-1,8.2l-0.1,1.1l-1.1,0c-7.4-0.3-14.4-1.4-20.8-3.1l-1.2-0.3L198,484.4z M194.8,557l-0.2-0.8
			c-4.6-19.4-4.7-39.9-0.2-59.3l0.3-1.2l1.2,0.3c7,2,14.7,3.1,23,3.6l1.2,0.1l0,1.2c-0.4,10.9,0.1,21.6,1.5,31.8
			c0.3,2.6,0.6,4.5,0.7,5.5l0.3,0.8c1.2,6.5,2.7,12.4,4.5,17.7l0.5,1.5l-1.6,0.1c-3.4,0.2-6.7,0.3-9.9,0.3c-7.1,0-13.9-0.4-20.4-1.3
			L194.8,557z M224.5,613.4l-0.3-0.3c-7.9-8.8-14.4-18.4-19.4-28.4c-2.2-4.4-4.2-9.2-6.2-15L198,568l1.8,0.2
			c9.5,0.9,19.9,0.9,30.9,0.1l0.9-0.1l0.3,0.8c2.8,7,11.4,25.5,29.6,45.4l1.7,1.9l-2.6,0.1c-1.8,0.1-3.5,0.1-5.3,0.1
			c-10.6,0-20.9-1-30.6-3L224.5,613.4z M313.7,656.4c-11.6-0.7-22.8-2.8-33.3-6.3c-14.4-4.8-27.8-12.1-39.9-21.7l-3.1-2.4l3.9,0.3
			c10.1,0.8,20.7,0.7,31.4-0.3l0.5-0.1l0.4,0.4c11.9,10.8,25.6,20.2,40.7,27.9l5.1,2.6L313.7,656.4z M357.1,651.8
			c-5,1.4-9.6,2.5-14.1,3.2l-0.3,0.1l-0.3-0.1c-19.5-7-37.3-16.8-52.9-29.1l-2.1-1.6l2.6-0.5c11.6-2,23.7-5.1,35.8-9.3l0.8-0.3
			l0.5,0.7c9.1,11.9,19.4,23.6,30.5,35l1.4,1.4L357.1,651.8z M389.1,637.8c-2.7,1.6-5.8,3.5-9.1,5.1c-3.3,1.7-6.6,3-9.4,4.2
			l-0.7,0.3l-0.6-0.5c-11.5-11.4-22.1-23.2-31.4-35.2l-1-1.2l1.5-0.6c6.8-2.7,13.7-5.8,20.5-9.1c5.9-3,12.1-6.4,19.6-11l1.3-0.8
			l0.4,1.5c4,14.9,7.2,30.5,9.4,46.3l0.1,0.8L389.1,637.8z M412.2,620l-0.1,0.3l-0.2,0.2c-3.3,3.2-6.9,6.2-10.8,9.2l-1.6,1.2l-0.3-2
			c-2.5-15.6-5.8-30.8-9.8-45.3l-0.2-0.8l0.7-0.5c10.3-7.1,20-14.9,28.7-23.1l1.9-1.8l0.1,2.6C421.1,580,418.3,600.2,412.2,620z
			 M451.8,518.3l0.1,3.9c0.5,15.5-1.7,30.7-6.5,45.1c-3.5,10.5-8.5,20.7-14.9,30.5l-3.1,4.8l1-5.6c2.9-16.6,3.5-33.2,2-49.3l0-0.5
			l0.3-0.4c7.2-8,13.6-16.5,19-25.1L451.8,518.3z M449.4,500.5l-0.2,0.4c-4.7,10-11.1,20.2-19.1,30.3l-1.6,2l-0.5-2.5
			c-5.1-26.6-14.8-44.4-18.7-50.8l-0.5-0.7l0.6-0.7c7-8.1,13.2-16.4,18.4-24.9l1-1.6l1,1.5c3.3,4.9,6.1,9.5,8.4,14.1
			c5,10.1,8.8,21,11.1,32.5L449.4,500.5z"/>
	</g>
	<path opacity="0.75" fill="#FFFFFF" d="M488.5,409.5h62c24.3,0,47.1,11.1,47.1,42c0,32.3-18.5,45-47.1,45h-28V540h-34V409.5z
		 M522.5,470.2h22.8c10.6,0,18.3-4.4,18.3-16.3c0-12.2-7.9-17.2-18.3-17.2h-22.8V470.2z"/>
	<path opacity="0.75" fill="#FFFFFF" d="M609.2,409.5h66.5c23,0,45.7,10.4,45.7,36.7c0,14.1-6.8,27.4-20.5,32.7v0.4
		c13.9,3.3,17.9,18.8,19,31.3c0.4,5.5,0.9,24.7,5.5,29.4h-33.6c-2.9-4.4-3.5-17.2-3.8-20.8c-0.9-13.2-3.1-26.7-19-26.7h-25.8V540
		h-34V409.5z M643.1,466.2h28.5c10.2,0,15.7-5.5,15.7-15.4c0-9.7-7.7-14.1-17.2-14.1h-27V466.2z"/>
	<path opacity="0.75" fill="#FFFFFF" d="M736.5,409.5h34V540h-34V409.5z"/>
	<path opacity="0.75" fill="#FFFFFF" d="M785.4,409.5h29.1v30.3c-0.2,18.3-9.1,32.2-29.1,35.5v-14.6c8-1.5,13.7-8.8,13.2-17.2h-13.2
		V409.5z"/>
	<path opacity="0.75" fill="#FFFFFF" d="M844.8,508.8c0,4.8,2,8.2,5.1,10.6c2.9,2.2,7.1,3.3,11.5,3.3c6,0,14.6-2.6,14.6-10
		c0-7.3-9.7-8.8-15.2-10.1c-19.6-4.9-44-5.5-44-31.1c0-22.8,24.7-29.1,43.3-29.1c20.8,0,42.6,6,43.7,30.7h-28.7c0-4-1.5-6.6-4-8.2
		c-2.6-1.6-6-2.4-9.9-2.4c-5.1,0-13.3,0.6-13.3,7.1c0,9,20.8,10.6,35.1,13.7c19.2,3.8,24.1,17.7,24.1,25.6
		c0,25.4-24.1,33.8-45.5,33.8c-22.5,0-45.5-7.5-46.4-34H844.8z"/>
	<path opacity="0.75" fill="#FFFFFF" d="M172.9,648.4v-44.6h105.4v44.6h-8.9c0-24.9-4.3-35.7-29.2-35.7h-6.3v86.8
		c0,5.5,2.4,8.7,7.7,8.7h14.5v8.9h-61.3v-8.9h14.9c5.3,0,7.7-3.2,7.7-8.7v-86.8h-7.5c-23.7,0-28,12.3-28,35.7H172.9z"/>
	<path opacity="0.75" fill="#FFFFFF" d="M318.2,650.8h0.3c6.7-9.9,16.9-16.2,30.1-16.2c17.9,0,27.5,11.8,27.5,29.6v37.1
		c0,5.3,1.2,7.9,6.8,7.9h10.3v8h-47.8v-8h9.4c5.6,0,6.8-2.6,6.8-7.9v-38.3c0-11.8-4.4-18.8-17.6-18.8c-16.2,0-25.8,13-25.8,26.7
		v30.4c0,5.3,1.2,7.9,6.8,7.9h10.4v8h-49.7v-8h11.1c5.6,0,6.8-2.6,6.8-7.9v-81.5c0-5.3-1.2-7.9-6.8-7.9h-11.1v-8h32.5V650.8z"/>
	<path opacity="0.75" fill="#FFFFFF" d="M407.7,678.1c0,17.4,3.8,33.5,23.9,33.5c13.7,0,22-7.2,25.6-20.5h9.9
		c-3.8,18.5-15.5,28.5-35.7,28.5c-25.3,0-40-14.5-40-42.5c0-28,14.7-42.5,40-42.5c27.5,0,36.4,19.3,37.9,43.6H407.7z M453.2,670.1
		c0-14.9-6.7-27.5-22.2-27.5c-15.9,0-23.2,12.6-23.2,27.5H453.2z"/>
	<path opacity="0.75" fill="#FFFFFF" d="M522.6,717.9l-27.9-95.2c-2.4-7.9-3.8-10.1-12.3-10.1h-3.8v-8.9h47.8v8.9H518
		c-3.9,0-6.7,1.2-6.7,4.8c0,2.1,0.3,3.8,1.2,7l19.8,72.8h0.3l23.6-71.6c0.5-1.7-4.1-13-10.3-13h-8.4v-8.9H587v8.9h-8.4
		c-3.6,0-7.7,0.5-7.7,5.3c0,2.7,2.2,9.1,3.1,12.1l19.6,66.8h0.3l20.3-68.2c0.9-2.7,2.2-7.5,2.2-10.6c0-5.1-3.6-5.5-7.9-5.5h-8.9
		v-8.9h43.4v8.9h-5c-6.5,0-9.4,3.8-10.4,7.2l-29.9,98.1h-13.7l-22.9-75.3H561l-24.8,75.3H522.6z"/>
	<path opacity="0.75" fill="#FFFFFF" d="M708.3,677.1c0,24.6-16.6,42.5-44.1,42.5c-27.5,0-44.1-17.9-44.1-42.5
		c0-24.6,16.6-42.5,44.1-42.5C691.8,634.6,708.3,652.5,708.3,677.1z M636.4,677.1c0,18.4,6.7,34.5,27.8,34.5
		c21.2,0,27.8-16.1,27.8-34.5c0-18.5-6.7-34.5-27.8-34.5C643.1,642.6,636.4,658.6,636.4,677.1z"/>
	<path opacity="0.75" fill="#FFFFFF" d="M738.8,654.4h0.3c4.3-11.8,14.4-19.8,24.3-19.8c11.6,0,19.3,6.3,19.3,18.1
		c0,6.5-2.7,11.4-9.6,11.4c-4.6,0-9.6-2.9-9.6-7.9c0-6.1,4.1-8.9,10.3-8.9c-0.9-3.9-6.1-4.8-9.9-4.8c-16.1,0-24.4,18.6-24.4,35.5
		v23.1c0,5.3,3.1,7.9,8.5,7.9h9.2v8H707v-8h11.1c5.6,0,6.8-2.6,6.8-7.9V653c0-5.3-1.2-7.9-6.8-7.9h-11.8v-8h32.5V654.4z"/>
	<path opacity="0.75" fill="#FFFFFF" d="M807.4,701.2c0,5.3,1.2,7.9,6.8,7.9h10.9v8h-50.2v-8h11.1c5.6,0,6.8-2.6,6.8-7.9v-81.5
		c0-5.3-4.1-7.9-6.8-7.9h-11.1v-8h32.5V701.2z"/>
	<path opacity="0.75" fill="#FFFFFF" d="M887.2,701.7h-0.3c-6.2,11.4-13.3,17.9-28.4,17.9c-25.6,0-36.9-21.7-36.9-42.5
		c0-20.8,11.3-42.5,36.9-42.5c10.9,0,22.6,6.1,28.4,16.9h0.3v-29.9c0-5.6-2.2-9.7-7.9-9.7h-8.9v-8h31.3v99.1c0,4.1,2.4,6.2,6.3,6.2
		h9.9v8h-30.8V701.7z M837.9,677.1c0,19.5,6.8,33,22.6,33c19.3,0,26.3-15.9,26.3-33c0-17.1-7-33-24.4-33
		C844.9,644.1,837.9,660,837.9,677.1z"/>
</g>
</svg>
