<?xml version="1.0" encoding="utf-8"?>
<!-- Generator: Adobe Illustrator 21.1.0, SVG Export Plug-In . SVG Version: 6.00 Build 0)  -->
<svg version="1.1" id="Layer_1" xmlns="http://www.w3.org/2000/svg" xmlns:xlink="http://www.w3.org/1999/xlink" x="0px" y="0px"
	 viewBox="0 0 1080 1080" enable-background="new 0 0 1080 1080" xml:space="preserve">
<title>WGBH_impact-report_digital_logo-farm_v1</title>
<g opacity="0.75">
	<path fill="#FFFFFF" d="M918,869.6c0,5.5,0,11,0,16.4c-89,0-178,0-267.1,0c-16.4-26.8-33.1-53.5-49-80.7
		c-2.6-4.4-2.3-10.7-2.4-16.2c-0.2-7,0.6-14.1,1-21.1c14.7,1.2,28.9,9.8,44,4.8c0.2-1.6,0.5-3.2,0.7-4.8c-14-2.3-27.9-4.7-41.9-7
		c1.6-7.3,3.3-14.6,4.9-21.9c1.9-8.5-2.4-12.1-10.8-11c-6,0.8-12.8,0.8-18.3-1.3c-8.4-3.1-16.1-8.4-22.7-12
		c-11.2,9.9-22,19.5-34.1,30.2c3.6,6.5,11.9,2.1,17.9,0.9c13.3-2.6,22.6-12.5,23.8-21.1c1,4.9,2,9.8,3.2,15.8
		c6.2-0.6,13.5-1.2,20.9-1.9c0.2,0.7,0.4,1.3,0.6,2c-8.4,3.7-16.9,7.3-26.1,11.3c12.6,8,21,0.4,30.4-3.2c-2.4,2.8-4.9,5.6-7.7,8.7
		c7,1.2,12.7,2.1,18.4,3.1c-1,2.5-2.1,5-3.1,7.5c-2.3-0.2-4.6-0.3-6.9-0.7c-16-3.3-16.4-3.2-21.9,12c-8.7-2.5-13.3,0.6-12.9,8.5
		c-5-4.3-10.9-8.1-14.8-13.4c-3.8-5.1-5.4-11.9-8-17.8c-14,5.4-14,5.4-9.6,16.7c2.3-0.7,4.5-1.3,7.6-2.2
		c-12.2,22.8,1.3,35.3,36.7,37c1.4,2.8,2.5,5.2,3.7,7.5c6,10.6,12.9,20.9,17.8,32c5.4,12.3,8.9,25.5,13.3,38.3
		c-48.6,0-97.2,0-145.9,0c5.9-10.9,12-21.8,17.7-32.9c1.3-2.4,2.9-5.7,2.2-7.8c-4-11.4-8.6-22.6-13.3-33.8c-0.6-1.4-3.2-2-3.2-2
		c-6-13.9-11.9-27.2-17.5-40.7c-0.6-1.5-0.7-3.9,0-5.3c7-14.5,4.1-28.3-2.4-42c1.9,0.8,3.9,1.6,8.8,3.7c-5.8-19.9-11-37.5-16.1-55.1
		c-1.6,0-3.3,0.1-4.9,0.1c-7.5,33.7-15,67.4-23.1,103.3c26.1-12.4,27.7-16.1,20.1-39.9c-0.4-1.4,1-3.3,1.5-5
		c5.8,11.5,6.4,22.2,3.3,35.6c-3.1,13.1-6.2,28,2.6,42.8c8.4,14.1,16.5,24.5,34.9,23.1c-0.3,0.9-0.7,1.9-1,2.8c-7.7,0-15.4,0-22.9,0
		c-7.9,17.7-15.8,35.3-23.6,52.9c-68.5,0-137,0-205.4,0c0.7-1.5,1.5-3,2.1-4.6c14.4-44.8,28.6-89.7,43.1-134.5
		c0.7-2.2,2.2-5.6,3.8-5.8c17.4-2.4,21.4-15.8,25.1-29.7c1.4-5.5,3.4-10.8,5.1-16.2c1.7-5.1,3.4-10.1,5.1-14.9
		c0.1,0.1,1.8,2,3.4,3.9c13.5-7.2,13.5-7.2,5.1-20.7c-8.8,6-17.6,12-28.4,19.4c4.5-6.3,7.6-10.6,10.8-15c-3.7-2.7-6.6-4.9-9.9-7.3
		c11.7-19.3,26.5-37.2,19.6-63.5c-2,2.3-4.2,3.7-4.4,5.4c-2.5,16.7-12.9,29.3-23.2,41.2c-8.9,10.3-14.6,20.3-18.1,34.2
		c-8.7,34.4-20.3,68.2-32.7,101.5c-13.3,35.9-28.8,71-43.4,106.5c-6.2,0-12.3,0-18.5,0c0-230.7,0-461.3,0-692.1
		c251.8,0,503.5,0,756,0c0,211.4,0,423,0,634.6c-16.4-17.2-32.5-34.6-49.2-51.5c-7.1-7.2-15.2-13.5-22.9-20.3
		c-11.2-10.2-22.1-20.6-33.6-30.4c-1.8-1.5-6.2-1.2-8.9-0.2c-11.5,4.4-22.7,9.3-34.6,14.3c3.1,2.5,6.8,7.7,9.8,7.4
		c9-1,17.8-4.2,27.2-6.6c0.7,1.5,1.6,4,2.9,6.3c12,22.5,17.6,23.8,37.5,9.1c-2.1,11.9-11,15.7-21.1,18.3c-4.9-4.7-9.9-9.3-14.7-14.1
		c-4.2-4.2-5.7-11.8-14.2-13.3c6.1,12,11.2,21.7,15.9,31.5c0.7,1.4,0.2,4.9-0.7,5.3c-6.3,3-3,7-0.7,9.8c8.9,10.8,18,21.5,27.5,31.7
		c5.4,5.8,13.1,3.7,19.8-4.6c5.1-6.2,3-9.9-2.9-15.1c-9.9-8.7-18.3-19.1-27.4-28.8c1.3,0.3,2.9,0.3,3.8,1.1
		c17.9,16.6,36.4,32.7,53.4,50.3C897,841.3,907,855.9,918,869.6z M800.9,766c-11.6,4.6-23.1,9.3-35.3,14.1c2.5,3.9,4.8,7.5,7.3,11.4
		c12.2-3.2,23.8-6.3,35.6-9.4C805.8,776.7,803.3,771.3,800.9,766c-3.1-9.1-7.4-16-18.9-13.2c-2.2,0.5-4.7-0.5-7-0.8
		c-14.3-18.8-33.4-16.8-53.3-12.9c5.9,17.9,6.5,18.8,23.5,17.5c10.1-0.7,20-3.2,30-4.9c-9.5,4.1-18.9,8.1-28.7,12.3
		c2.1,3.2,5,7.7,7.5,11.4C770,772.3,785.5,769.1,800.9,766z M828.6,436.7c0,38.4,0,75.1,0,111.9c13.7,0,26.5,0,39.6,0
		c0-60.4,0-120.1,0-180.9c-13.4,0-26.4-0.3-39.3,0.3c-2.6,0.1-5.6,3.3-7.3,5.9c-8.2,11.6-16,23.5-24.4,35.9
		c-8.4-12.2-16.3-24-24.6-35.6c-1.8-2.6-4.7-6.1-7.2-6.2c-13.2-0.6-26.4-0.3-39.9-0.3c0,61.1,0,120.8,0,180.7c13.7,0,26.8,0,41,0
		c0-36.7,0-72.6,0-109.7c10.7,14.6,20.3,27.9,30.6,42.1C808,465.5,817.8,451.8,828.6,436.7z M458.5,368.6c0,59.8,0,119.4,0,179.1
		c14.3,0,27.9,0,42.7,0c0-18.9,0-37.2,0-55c7.5-1.8,11.1-0.3,13,6.9c3.7,14.1,8.5,27.9,13.2,41.6c0.9,2.7,3.7,6.7,5.8,6.8
		c13.2,0.6,26.4,0.3,40.7,0.3c-1.3-3.8-2-6-2.8-8.1c-6.9-17-14.1-33.8-20.6-50.9c-1.2-3.2-1.6-9,0.3-10.8
		c17.7-17.2,20.2-38.5,18.1-61.4c-2.1-21.9-21.5-46-42.6-47.9C503.9,366.9,481.3,368.6,458.5,368.6z M700.3,368.5
		c-13.1,0-26.9,0-41.2,0c0,38.2,0,75.5,0,112.8c0,4.4,0.3,8.9-0.1,13.3c-0.7,8.4-4.8,14.6-13.6,15.3c-8.6,0.7-14.2-3.7-15.3-12.8
		c-0.5-4.4-1.4-8.8-1.4-13.2c-0.1-34.9-0.1-69.8-0.1-104.7c0-3.6,0-7.3,0-10.6c-15,0-28.4,0-41.4,0c0,46.1-1.2,91.2,0.5,136.3
		c1,26,26.6,46.1,53.7,46.4c32.8,0.4,57-15.9,58.3-44.7C701.9,460.9,700.3,415.1,700.3,368.5z M320.4,402.8
		c-7.4-24.1-25.2-38-51.1-39.3c-20.6-1-38.6,5.7-49.9,24c-11.6,18.6-12.6,38.8,0.6,56.4c8.1,10.8,20.4,18.6,31.2,27.3
		c8.7,7,18.5,12.6,26.6,20.2c2.6,2.5,2.9,9.8,1.4,13.7c-1.1,2.8-6.9,4.9-10.8,5.3c-12.8,1.3-19.2-8-25.6-17.5
		c-12,7.3-23.4,14.3-35.3,21.6c14.3,25.9,34.5,39,63.7,37.1c22.6-1.5,39.8-10.7,49.1-32.1c8.9-20.5,4.6-45.3-11.5-60.3
		c-8.3-7.8-18.4-13.9-27.9-20.4c-6.7-4.6-14.2-8.2-20.8-12.9c-6.6-4.8-8-14.5-3.7-20c4.7-5.9,13.1-6.3,19.8,0.1
		c4.5,4.3,7.8,9.9,12.3,15.8C298.7,415.6,309.7,409.1,320.4,402.8z M441.3,670.9c9,18.2,15.7,37.7,14.4,59.2
		c-0.4,7-0.4,14.4,1.2,21.2c5.4,22.8,11.1,45.5,17.6,67.9c3.1,10.5,8.3,20.3,12.9,31.2c24.9-17.3,49.8-28.4,79.6-28.4
		c-5-4.6-10.2-8.2-16-10c-12.3-4-22.4-10.4-27.2-22.7c-1.7-4.3-1.1-9.6-1.2-14.4c-0.2-6.4,0-12.9,0-19.9c-8.1-2-18.3-4.4-28.5-6.9
		c0.1-0.9,0.3-1.9,0.4-2.8c8,1,16,2,24.4,3c-0.9-3.3-1.7-6.2-2.6-9.2c1-0.6,2.1-1.8,3.4-2c9-1.6,11.5-5.8,8.5-15
		c-2.2-6.6-3.7-14.6-2-21.1c4.7-19.1-1.9-35.4-8.6-50.9c-7.5,1.4-14.3,3.1-21.2,3.9c-6.7,0.8-13.4,0.4-19.5,4.3
		c-2.1,1.3-5.8,1.6-8.1,0.6c-1.4-0.6-2.4-4.6-2-6.7c3-15.2,0.5-18.2-13.9-17.6c3.4,6,7.6,12.4,10.7,19.3c0.8,1.9-1.5,5.6-3.1,7.8
		c-0.7,0.9-4.4,0.7-5.4-0.3c-1.5-1.6-2.3-4.2-2.7-6.6c-0.8-4.3,0.5-10.9-1.9-12.5c-4.5-3.1-11-3.5-15.5-4.7
		c5.2,9.3,10.2,17.4,14.2,26C449.6,664.4,444.7,667.8,441.3,670.9z M445.6,405.3c-11-29.6-27.9-42.4-54.7-42.1
		c-27.9,0.3-46,13.6-54.1,43.5c-10,36.8-10.7,74.1,2.1,110.5c8.1,22.9,25.1,36.8,60.3,34.1c18.9-1.4,36.7-16.9,43.6-39.4
		c-11-6-22.2-12.1-33.5-18.3c-1.2,2.7-2,4.6-2.9,6.4c-3.3,7.2-7.8,12.9-16.9,12c-9.6-0.9-13-8.8-13.2-15.7
		c-0.9-25.4-0.9-50.9,0.1-76.4c0.3-7.6,3.8-16.2,14.6-16.8c10.5-0.6,14,6.6,17.2,14.4c0.5,1.2,0.9,2.5,1.5,4.5
		C421.7,416.4,433.3,411,445.6,405.3z M277.4,235.6c0,41.1,0,80.6,0,121.1c5.1,0.2,9.8,0.6,14.4,0.6c13.3,0.1,13.3,0,13.3-13.4
		c0.1-17.1-0.4-34.2,0.6-51.3c0.2-3.6,5.2-9.1,8.7-9.8c3-0.6,7.9,3.9,10.4,7.3c1.7,2.3,1.2,6.5,1.3,9.9c0.1,18.7,0,37.4,0,56.7
		c9.5,0,17.8,0,26.7,0c0-24.5,0.9-48.5-0.3-72.3c-0.8-15.6-12.2-26-26.4-26.3c-6.8-0.1-13.7,2.5-21.1,3.9c0-6.3,0.5-12.8-0.2-19.2
		c-0.3-2.6-2.9-6.7-4.9-6.9C292.7,235.1,285.3,235.6,277.4,235.6z M390.9,315c15.1,0,30.4,0,46.4,0c0-4.7,0.3-8.4-0.1-12
		c-0.4-4.7-1.2-9.4-2-14.1c-2.8-17.9-13.3-29.4-28.6-31.3c-16.8-2.1-32.4,6.9-39.2,23.2c-7.2,17.3-7.4,35.2-1.9,52.9
		c5,16.3,17.1,25.5,33.9,26.3c14.9,0.7,27.5-5.4,36.4-18.9c-5.9-5.2-11.3-10.1-16.8-15c0,1.2,0,2.5,0,3.7c-6.6,1.8-14,6.2-19.7,4.6
		C392.1,332.3,388.5,324.5,390.9,315z M708.7,620.9c-1.7-31.8-20.8-39-44.3-34.5c-5.4,1-12.3,2-15.3,5.7c-4.6,5.5-7.7,13.1-9.3,20.2
		c-3.6,15.5,3.7,28,13.2,39.5c9.8,11.9,39.6,11,46.6-2.6C704.4,639.8,706.2,628.8,708.7,620.9z M225.2,268.3c0,29.6,0,58.7,0,87.6
		c9.8,0,18.2,0,27.5,0c0-29.7,0-58.6,0-87.7c5.9-0.4,10.8-0.7,15.3-0.9c0-9.4,0-17.7,0-25.7c-20.5,0-40.2,0-60.1,0
		c0,9,0,17.3,0,25.8C213.7,267.7,218.8,267.9,225.2,268.3z M734.9,614.1c-11.5,14-22.4,27.2-33.4,40.6c10.9,12.7,21,24.5,31.2,36.4
		c11.5-14.2,22.7-28.1,34.3-42.3C756.2,637.2,746,626.1,734.9,614.1z M730.2,694.5c-11.3-12.9-21.7-24.6-32.1-36.4
		c-15.6,6.6-30.9,13-46.8,19.7c10,10,19.8,20,30,29.5c1.7,1.6,5.8,2.1,8.3,1.3C702.8,704.4,715.7,699.6,730.2,694.5z M329.6,584.9
		c-13.7,25.1-27.2,50.1-40.9,75.1c11.5,8.9,24.8,3.7,30.7-10.3c-4.8-2.9-11.6-4.7-12.8-8.4c-1.1-3.2,3-10.8,6.7-12.4
		c7.8-3.5,10.6,3.3,11.6,10.2c9.8-11.2,18.9-21.8,28.2-32.5C344.9,599,337.4,592.1,329.6,584.9z M729,701.3
		c6.8,7.5,14.5,15.7,21.9,24.1c9.4,10.7,20.1,11.9,32.9,3.2c-12.8-15-25.5-29.9-38.3-44.9C739.7,689.9,734.8,695.1,729,701.3z
		 M541.9,760.2c4.4,7,8.4,13.3,13,20.6c7.3-5.9,12.7-10.4,18.2-14.9c-0.4-0.9-0.7-1.7-1.1-2.6C563.1,762.4,554.1,761.5,541.9,760.2z
		 M803.9,788.9c-9.9,2.7-18.7,5.1-28.3,7.7c1.4,4.2,2.6,7.8,4.1,12.2c9.4-4.1,18-7.9,27-11.8C805.7,794.3,804.9,791.9,803.9,788.9z
		 M515,849.8c0.3,1,0.5,1.9,0.8,2.9c37.5-4.9,52-8.9,55.1-17.4C551.3,840.3,533.2,845,515,849.8z M427.2,664.3c1,0,2,0,2.9-0.1
		c0.6-2.2,1.2-4.5,1.9-7.1c2.1,2,3.7,3.5,5.4,5.1c5.1-11.8,0.3-17.4-15.6-16.5C423.8,652.2,425.5,658.3,427.2,664.3z M470.6,630.6
		c2.6,8.5,4.6,14.8,7.4,23.8C485.6,638.7,484.6,635.7,470.6,630.6z M492.1,647.6c1.2,0.1,2.4,0.2,3.6,0.2c1-4.4,3.7-9.2,2.5-12.9
		c-0.9-3-6.5-4.5-9.9-6.7c-0.5,0.8-1,1.5-1.4,2.3C488.6,636.2,490.4,641.9,492.1,647.6z M308.8,636.4c-0.9,1.7-1.8,3.4-2.8,5
		c2.5,0.7,5.4,2.5,7.4,1.8c2.6-0.9,5.2-3.5,6.3-6c0.5-1.1-3.1-5.7-3.8-5.5C313.4,632.6,311.2,634.8,308.8,636.4z"/>
	<path fill="#FFFFFF" d="M501.4,452.7c0-15.6,0-30.9,0-46.7c8.7-0.8,16.9-0.7,21.7,7.6c6.1,10.5,6.2,21.5,0.1,32
		C518.3,453.9,510.3,454.2,501.4,452.7z"/>
	<path fill="#FFFFFF" d="M390.5,297.9c-0.1-11.9,4.9-21.1,10.7-19.6c9.7,2.6,9.3,11,9.2,19.6C403.8,297.9,397.5,297.9,390.5,297.9z"
		/>
	<path fill="#FFFFFF" d="M339,604.1c-2.4-2.2-4.8-4.4-8-7.3c-4.1,8.8-7.9,17-11.7,25.2c-5.1-2.5-0.3-15.6,13.1-29.5
		c3.7,3.9,7.4,7.7,11,11.6c-4.2,6.5-7.9,12.4-11.7,18.2c-0.6-0.3-1.1-0.6-1.7-0.9C332.8,616,335.6,610.5,339,604.1z"/>
</g>
</svg>
