<?xml version="1.0" encoding="utf-8"?>
<!-- Generator: Adobe Illustrator 21.1.0, SVG Export Plug-In . SVG Version: 6.00 Build 0)  -->
<svg version="1.1" id="Layer_1" xmlns="http://www.w3.org/2000/svg" xmlns:xlink="http://www.w3.org/1999/xlink" x="0px" y="0px"
	 viewBox="0 0 1080 1080" enable-background="new 0 0 1080 1080" xml:space="preserve">
<title>WGBH_impact-report_digital_logo-farm_v1</title>
<g opacity="0.75">
	<path fill="#FFFFFF" d="M168.3,430h68.1v23.2h-40.9v10.3h38v21.1h-38v26.6h-27.2V430z"/>
	<path fill="#FFFFFF" d="M242.8,430h39.7c14.4,0,23.6,3.6,29.3,9.3c4.9,4.9,7.4,10.9,7.4,19.3v0.2c0,11.8-6.2,20.1-16,24.8
		l18.9,27.7h-31L275.8,488h-0.2H270v23.2h-27.2V430z M281.7,468.7c6.5,0,10.5-2.9,10.5-7.9v-0.2c0-5.2-4.1-7.8-10.3-7.8H270v15.9
		H281.7z"/>
	<path fill="#FFFFFF" d="M324,470.9v-0.2c0-23.6,19.4-42.4,44.5-42.4s44.2,18.6,44.2,42.2v0.2c0,23.6-19.4,42.4-44.5,42.4
		C343.2,513,324,494.4,324,470.9z M385.4,470.9v-0.2c0-9.6-6.6-18.3-17.1-18.3c-10.3,0-16.9,8.6-16.9,18.1v0.2
		c0,9.6,6.6,18.4,17.1,18.4C378.8,489,385.4,480.4,385.4,470.9z"/>
	<path fill="#FFFFFF" d="M420.3,430h25.4l28.9,35.9V430h26.9v81.3h-24.2l-30.2-37.5v37.5h-27V430H420.3z"/>
	<path fill="#FFFFFF" d="M531.7,453h-23.9v-23h75v23h-23.9v58.3h-27.2V453z"/>
	<path fill="#FFFFFF" d="M599.6,430h41.5c15.1,0,24.6,3.8,30.6,9.7c5.1,5.1,7.8,11.4,7.8,20.1v0.2c0,12.4-6.4,21-16.8,26l19.8,28.9
		h-32.4l-16-24.3h-0.2H628v24.3h-28.4V430z M640.2,470.4c6.8,0,10.9-3,10.9-8.2V462c0-5.5-4.2-8.1-10.8-8.1H628v16.6L640.2,470.4
		L640.2,470.4z"/>
	<path fill="#FFFFFF" d="M684.4,472.7v-0.2c0-24.6,20.2-44.3,46.5-44.3c26.2,0,46.2,19.4,46.2,44v0.2c0,24.6-20.2,44.3-46.4,44.3
		C704.4,516.8,684.4,497.4,684.4,472.7z M748.5,472.7v-0.2c0-10.1-6.9-19.2-17.8-19.2c-10.8,0-17.6,9-17.6,18.9v0.2
		c0,10.1,6.9,19.2,17.8,19.2C741.7,491.6,748.5,482.7,748.5,472.7z"/>
	<path fill="#FFFFFF" d="M775.2,430h29.7l12,40.8l13.7-41h24.5l13.7,41l12-40.8H910l-27.8,85.5h-24.7l-14.9-42.2l-14.9,42.2H803
		L775.2,430z"/>
	<path fill="#FFFFFF" d="M168.3,527.3h67.5c16.7,0,27.2,3.8,34.3,10.8c4.3,4.3,7.4,10.5,7.4,18.8v0.3c0,14.3-8.6,23.1-21.5,27.5
		c15.5,4.5,25.5,12.8,25.5,29.3v0.3c0,19.3-15.8,33.4-46.3,33.4h-66.8L168.3,527.3L168.3,527.3z M225.1,574.7
		c8.6,0,12.7-2.9,12.7-8.3v-0.3c0-5.3-4.3-8.2-12.9-8.2h-17.4v16.8H225.1z M227.7,617.4c8.8,0,13.3-3.6,13.3-8.8v-0.3
		c0-5.2-4.3-8.8-13.1-8.8h-20.3v17.9L227.7,617.4L227.7,617.4z"/>
	<path fill="#FFFFFF" d="M287.5,587.9v-0.3c0-35,28.7-62.8,65.9-62.8s65.6,27.5,65.6,62.5v0.4c0,34.9-28.7,62.8-65.9,62.8
		C315.9,650.4,287.5,622.9,287.5,587.9z M378.3,587.9v-0.3c0-14.3-9.8-27.2-25.3-27.2c-15.3,0-25,12.7-25,26.9v0.4
		c0,14.3,9.8,27.2,25.3,27.2C368.7,614.8,378.3,602,378.3,587.9z"/>
	<path fill="#FFFFFF" d="M419.2,629.7l21.5-25.6c13.1,10,28.1,14.1,42.2,14.1c7.2,0,10.3-1.9,10.3-5.2v-0.3c0-3.5-3.8-5.3-16.7-7.9
		c-27-5.5-50.8-13.2-50.8-38.7v-0.3c0-22.9,17.9-40.6,51.1-40.6c23.2,0,40.5,5.5,54.4,16.5l-19.6,27.2c-11.4-8.3-25-11.9-36.1-11.9
		c-6,0-8.8,2-8.8,5v0.3c0,3.3,3.3,5.3,16,7.8c30.8,5.7,51.5,14.6,51.5,38.9v0.3c0,25.3-20.8,40.8-53.2,40.8
		C456.6,650.1,434.5,643.2,419.2,629.7z"/>
	<path fill="#FFFFFF" d="M570,561.4h-35.4v-34.1h111.2v34.1h-35.4v86.4H570V561.4z"/>
	<path fill="#FFFFFF" d="M647,587.9v-0.3c0-35,28.7-62.8,65.9-62.8s65.6,27.5,65.6,62.5v0.4c0,34.9-28.7,62.8-65.9,62.8
		S647,622.9,647,587.9z M737.9,587.9v-0.3c0-14.3-9.8-27.2-25.3-27.2c-15.3,0-25,12.7-25,26.9v0.4c0,14.3,9.8,27.2,25.3,27.2
		C728.3,614.8,737.9,602,737.9,587.9z"/>
	<path fill="#FFFFFF" d="M789.6,527.3h37.7l42.8,53.2v-53.2H910v120.5h-35.8l-44.7-55.6v55.6h-39.9V527.3z"/>
</g>
</svg>
