<svg id="Layer_1" data-name="Layer 1" xmlns="http://www.w3.org/2000/svg" viewBox="0 0 1080 1080"><defs><style>.cls-1{opacity:0.75;}.cls-2{fill:#fff;}</style></defs><title>WGBH_impact-report_digital_logo-farm_v1</title><g class="cls-1"><path class="cls-2" d="M386.16,452.94l17,85.33h35.17l9.47-32.7,9.83,32.7h34.63l7-34.25c6.06,36.18,42.59,37.57,53.15,37.57s27.7-2.6,42.59-11.43v8.11h60.77c17.31,0,22.51-5.52,26.32-13.48v13.48h36.53v-30.1H735.9v30.1h35.66V453H735.9v30.54H718.76V453h-36.7v15.82C678.59,458.64,671.84,453,654.35,453H595.14v12.53c-5-5.89-17.49-15.24-44.33-15.24s-36.36,6.58-46.23,20.43L507.82,453H479.08l-7.74,31.06-7.27-31H432.9l-8,31.51-7.1-31.68Zm37.74-38.49h31.74L459,430.08l16.28-15.93h29.09l3.81,16.1,16.1-16.1h30.13l-3.29,13.5c12.64-10.56,22.68-16.8,43.8-16.8s30.82,6.4,39.13,15.06L646,414.31h47.27c13.67,0,17.83,9.69,17.83,17l17.49-17h32.55v16.28l16.28-16.16h31.86v87.49l-77.13,75.8H696.23l0-16.4-17,16.41H643.56v-15c-10,13.68-19,15-30.82,15H558.2V567.37c-4.68,3.64-22.85,12.81-47.44,12.81s-38.09-7.62-44.67-17.83l-16.4,15.37H420.11l-4.06-15.37-15.93,15.58H369.66l-18.18-92.11Z"/><path class="cls-2" d="M563.45,479.24h31.69v9.35H552v16.79h10.91v9.35c0,4.85-2.77,8.14-10.56,8.14s-10.56-5.88-10.56-8.65.17-31.86.17-35.32,2.6-9,10.73-9,10.74,4.33,10.74,9.35"/><path class="cls-2" d="M628.73,471.63v14.19s7.1.17,11.43.17,7.79-2.59,7.79-7.1-2.94-7.27-7.79-7.27Z"/><path class="cls-2" d="M628.73,505.73V520.1s7.62.17,11.95.17,7.79-2.6,7.79-7.1-2.95-7.45-7.79-7.45Z"/><path class="cls-2" d="M682.05,485.3v22.85c-2.95-9.18-9.53-10.73-14-12.29,4.33-.69,11.43-4.5,14-10.56"/><path class="cls-2" d="M325.43,472.46v-20H262.24l3.12,21.28h33.86l-29.58,63.32,24.52,4Zm-65.26,42.43H235.64v25.3h24.52Zm-60.33-22.18c-6.62,0-10.12-3.37-10.12-11.29s4.15-12.59,10-12.59c6.36,0,11.42,5.06,11.55,20.11-4.28,2.6-7.91,3.76-11.42,3.76M178.16,522,181,542.14c30.62-5.19,53.2-22.06,53.2-54.24,0-24.27-14-37.11-34.64-37.11-18.94,0-33.61,12.07-33.6,32.44,0,19.07,11,26.86,24.65,26.86a34.52,34.52,0,0,0,19.59-6.1c-4.41,9.34-15.57,15.05-32,18m-59.82-47.36c0-4.67,3.76-8.17,9.08-8.18,5.58,0,9.73,3.37,9.73,8.69,0,4.67-2.21,8-6,11.16-9.73-3.89-12.85-7.13-12.85-11.68m-2.07,39.83c0-4.93,2.59-9.08,6.62-12.33,11.94,4.8,15.44,7.79,15.44,13.5S133.66,525,128.08,525c-6.62,0-11.81-4.15-11.81-10.51m-23.49,2.6c0,13.37,11.94,24.78,34.91,24.78,21.54,0,34.64-11,34.64-26.6,0-10-4.67-16.48-14.79-21.67,7.91-5.32,12.33-11.94,12.33-20,0-13.37-12.07-22.84-31.53-22.84-18.55,0-32.83,8.57-32.83,24.4,0,8.3,4.41,14.66,11.94,19.46C98.24,500.11,92.79,508,92.79,517.1"/><path class="cls-2" d="M381.12,668.44H368.5V615.65h12.78c11.63,0,17.06,5.58,17.06,13.69,0,5.36-2.83,9-7.57,10.94,5.89,1.76,9.87,5.74,9.87,12.7C400.63,663.54,393.29,668.44,381.12,668.44Zm0-46.67h-5.59v16.06h5.05c7,0,10.71-3.06,10.71-8.26C391.3,624.75,388.31,621.77,381.12,621.77Zm.31,22h-5.89v18.59h6.12c7.57,0,11.94-3.06,11.93-9.18S389.31,643.73,381.43,643.73Z"/><path class="cls-2" d="M423.36,669.2c-9.72,0-16.76-7-16.76-19s7-19.05,16.75-19.05,17,7,17,19S433.16,669.2,423.36,669.2Zm0-32.29c-6.58,0-9.87,5.66-9.87,13.31,0,7.5,3.44,13.31,9.87,13.31,6.73,0,10.1-5.66,10.1-13.31C433.46,642.73,429.94,636.92,423.36,636.92Z"/><path class="cls-2" d="M459.56,669.2a29.93,29.93,0,0,1-13.31-3.44l1-6.43a22.81,22.81,0,0,0,12.85,4.21c4.67,0,7.42-1.76,7.42-4.82,0-3.37-2.07-4.59-8.65-6.2-8.57-2.14-12-4.74-12-11.24,0-5.81,4.9-10.1,12.85-10.1a29.49,29.49,0,0,1,12,2.45l-1.07,6.43a23.28,23.28,0,0,0-11.09-3.14c-4.13,0-6.27,1.61-6.27,4.21,0,2.45,1.84,3.82,7.58,5.28,9,2.29,13.08,4.9,13.08,11.86C473.94,664.92,469,669.2,459.56,669.2Z"/><path class="cls-2" d="M494.14,669c-6.43,0-10.63-2.29-10.63-9.64V637.68H478v-5.74h5.51V619.78l6.66-1v13.16H498l.92,5.74h-8.8v20.5c0,3,1.22,4.82,5,4.82a18.19,18.19,0,0,0,3.14-.23l.92,5.81A25.42,25.42,0,0,1,494.14,669Z"/><path class="cls-2" d="M521.39,669.2c-9.72,0-16.76-7-16.76-19s7-19.05,16.75-19.05,17,7,17,19S531.19,669.2,521.39,669.2Zm0-32.29c-6.58,0-9.87,5.66-9.87,13.31,0,7.5,3.44,13.31,9.87,13.31,6.73,0,10.1-5.66,10.1-13.31C531.49,642.73,528,636.91,521.39,636.91Z"/><path class="cls-2" d="M569.45,668.43V643.57c0-3.75-1.61-6.27-5.59-6.27-3.6,0-7.27,2.37-10.56,5.89v25.25h-6.81V631.94h5.43l.84,5.28c3.44-3.14,7.73-6,12.93-6,6.89,0,10.56,4.13,10.56,10.71v26.55Z"/><path class="cls-2" d="M588,633.47l-3.83-.92,2.22-16.91h7.88Z"/><path class="cls-2" d="M610.38,669.19a29.93,29.93,0,0,1-13.31-3.44l1-6.43a22.81,22.81,0,0,0,12.85,4.21c4.67,0,7.42-1.76,7.42-4.82,0-3.37-2.07-4.59-8.65-6.2-8.57-2.14-12-4.74-12-11.24,0-5.81,4.9-10.1,12.85-10.1a29.49,29.49,0,0,1,12,2.45L621.47,640a23.28,23.28,0,0,0-11.09-3.14c-4.13,0-6.27,1.61-6.27,4.21,0,2.45,1.84,3.82,7.58,5.28,9,2.29,13.08,4.9,13.08,11.86C624.76,664.91,619.79,669.19,610.38,669.19Z"/><path class="cls-2" d="M649.1,668.43V615.64h7.19v46.21h19l1,6.58Z"/><path class="cls-2" d="M696.69,669.19c-9.72,0-16.76-7-16.76-19s7-19.05,16.75-19.05,17,7,17,19S706.48,669.19,696.69,669.19Zm0-32.29c-6.58,0-9.87,5.66-9.87,13.31,0,7.5,3.44,13.31,9.87,13.31,6.73,0,10.1-5.66,10.1-13.31C706.79,642.72,703.27,636.9,696.69,636.9Z"/><path class="cls-2" d="M736.71,669.19c-9.79,0-17-6.81-17-19,0-12.47,7.65-19.05,17.14-19.05,5.36,0,9.18,1.38,11.94,3.37l-1,6.66a16.51,16.51,0,0,0-11-4.05c-6,0-10.18,4.51-10.18,13,0,8.87,4.52,13.08,10.94,13.08a15,15,0,0,0,10.63-4.06l1,6.12A19.25,19.25,0,0,1,736.71,669.19Z"/><path class="cls-2" d="M779.25,668.42l-.77-4.9a17.22,17.22,0,0,1-12.85,5.66c-6.58,0-10.71-4-10.71-10.18,0-9.1,7.8-12.7,23-14.31v-1.53c0-4.59-2.75-6.2-7-6.2a31.36,31.36,0,0,0-12.62,3.14l-.92-5.89a35.34,35.34,0,0,1,14.15-3.06c8.87,0,13.16,3.6,13.16,11.71v25.55ZM778,649.91c-13.46,1.3-16.3,5-16.3,8.72,0,3,2,4.9,5.43,4.9,4,0,7.8-2,10.86-5.13Z"/><path class="cls-2" d="M795.33,668.42V614.26l6.81-1.07v55.24Z"/><path class="cls-2" d="M865.79,668.42l-29-41.08v41.08h-6.66V615.63h6.43l28,39.55V615.63h6.66v52.79Z"/><path class="cls-2" d="M896.17,647h-5.58v21.42H883.4V615.63h14c11.17,0,17.9,5.43,17.9,15.22C915.3,641.64,907.65,647,896.17,647Zm.84-25h-6.42v18.67h6c7.19,0,11.48-3,11.48-9.56C908,625,904.21,622,897,622Z"/><path class="cls-2" d="M959.91,667.34l-7.27,1.61-16.14-22.8h-5.43v22.26h-7.19V615.63h14.38c10.79,0,17.52,5.36,17.52,15,0,8-4.67,12.7-11.55,14.61ZM938,622h-6.88v18.13h6.12c7,0,11.4-3.14,11.4-9.1C948.59,625.26,945,622,938,622Z"/><path class="cls-2" d="M975.45,637.59c-6.82,0-11.55-4.73-11.55-11.81s4.83-11.86,11.55-11.86S987,618.71,987,625.79,982.17,637.59,975.45,637.59Zm0-22.29c-5.5,0-9.87,3.77-9.87,10.48s4.38,10.43,9.87,10.43,9.92-3.77,9.92-10.43S980.95,615.31,975.45,615.31Zm3.41,16.79-3.92-5.6h-1.27v5.39h-2.24V618.82h4c2.75,0,4.58,1.37,4.58,3.82a3.54,3.54,0,0,1-2.65,3.61l3.77,5.34Zm-3.46-11.25h-1.73v3.87h1.63c1.48,0,2.39-.61,2.39-1.93S976.88,620.85,975.4,620.85Z"/></g></svg>