<svg id="Layer_1" data-name="Layer 1" xmlns="http://www.w3.org/2000/svg" viewBox="0 0 1080 1080"><defs><style>.cls-1{opacity:0.75;}.cls-2,.cls-3{fill:#fff;}.cls-3{fill-rule:evenodd;}</style></defs><title>WGBH_impact-report_digital_logo-farm_v1</title><g class="cls-1"><path class="cls-2" d="M289.6,595.39l29.31,80.71a22,22,0,0,0,3,6.18,8.05,8.05,0,0,0,3.86,2.4l6.2,1.85.13,2.84q-8.65-.19-16-.2t-17.75.2l-.27-2.84,6.28-1.85a5.08,5.08,0,0,0,1.88-1,2.39,2.39,0,0,0,.56-1.75,12,12,0,0,0-.69-3.47q-.7-2.14-2-5.7l-6.2-17.69H266.11l-6.94,17.62q-1.38,3.69-2.17,5.87a10.71,10.71,0,0,0-.79,3.43,2.16,2.16,0,0,0,.63,1.69,5.2,5.2,0,0,0,1.88,1l6.14,1.78.13,3q-9.36-.19-15.3-.2t-13.27.2l-.33-2.84,6.67-2a7,7,0,0,0,3.69-2.44,27,27,0,0,0,2.64-5.15l33.73-80.51Zm-21,53.65h27.19l-12.87-36.37Z"/><path class="cls-2" d="M449.78,619.81l-2.64.4-4.82-17.36a61.71,61.71,0,0,0-14.85-2.05q-16.17,0-25.4,11.28t-9.24,29.3q0,19.27,10.56,30.76t29.23,11.48a67.37,67.37,0,0,0,22.11-4l.73,3a50.61,50.61,0,0,1-29.44,9q-21.31,0-34.48-13t-13.17-34.25q0-22.62,14.48-35.83t37.72-13.2a100.73,100.73,0,0,1,22.83,2.7l.46.52Z"/><path class="cls-2" d="M487.17,597h16q14.77,0,31.21-.27l.39.54L531,617.68l-2.64.46-4.09-15.25H493.77v36.3h6q6.86,0,15.3-.14a2.26,2.26,0,0,0,2.25-1.71l2.31-8.91,3.57-.13Q523,637.56,523,642t.2,13.47l-3.57.26-2.38-9a2.17,2.17,0,0,0-2-1.78q-8.58-.13-15.51-.13h-5.94v24q0,7.33.14,14.45h31.67l8.05-16.76,3-.53-1.45,23-.46.46q-17.09-.19-31.54-.2H487.43q-8,0-16.37.2l-.26-2.84,8.12-2.45a2.18,2.18,0,0,0,1.78-2q.06-2.65.09-5.92c0-2.17,0-4.57,0-7.22V615.37c0-2.23,0-4.25,0-6.06s-.05-3.43-.09-4.88a2.27,2.27,0,0,0-1.59-2.25l-8.18-2.57-.13-2.84Q479.32,597,487.17,597Z"/><path class="cls-2" d="M576.69,615.11v53.65q0,7.33.13,14.45H609l8.45-17.48,3-.46-1.45,23.63-.4.46q-17.08-.19-31.61-.2H570.36q-8,0-16.37.2l-.26-2.84,8.11-2.45a2.17,2.17,0,0,0,1.78-2q.06-2.65.1-5.92t0-7.22V615.37q0-3.35,0-6.06c0-1.81-.06-3.43-.1-4.88a2.26,2.26,0,0,0-1.58-2.25l-8.19-2.57-.13-2.84q8.5.28,16.36.27t16.37-.27l.26,2.84L578.54,602a2.1,2.1,0,0,0-1.72,2.05q-.07,2.31-.1,6.73T576.69,615.11Z"/><path class="cls-2" d="M659.16,689.15q-8.11,0-18,.2l-.26-2.84,9.77-2.9a2.08,2.08,0,0,0,1.72-2.05q.13-5,.13-12.8V602.89H629.26l-5.87,17.56-2.65.47L619,597.29l.46-.54q16.23.28,31.08.27H668.2q14.78,0,31.21-.27l.4.54-4.16,23.16-2.64.47-4.22-18h-23.3v65.87q0,7.8.13,12.8a2.08,2.08,0,0,0,1.72,2.05l9.77,2.9.13,2.84Q667,689.16,659.16,689.15Z"/><path class="cls-2" d="M734.37,668.88c0,2.65,0,5,0,7.2s0,4.12.09,5.87c0,1.1.81,1.85,2.31,2.25l7.45,2.3.13,2.84q-8.52-.19-16.37-.2t-16.37.2l-.26-2.84,8.11-2.45a2.17,2.17,0,0,0,1.78-2q.06-2.65.11-5.92c0-2.17,0-4.57,0-7.22V615.36c0-2.23,0-4.25,0-6.06s-.07-3.43-.11-4.88a2.26,2.26,0,0,0-1.58-2.25l-8.19-2.57-.13-2.84q8.51.28,16.37.27t16.37-.27l.26,2.84L736.21,602a2.12,2.12,0,0,0-1.72,2.05c0,1.54-.08,3.23-.09,5s0,3.82,0,6Z"/><path class="cls-2" d="M833.26,619.79l-2.64.4-4.82-17.36A61.8,61.8,0,0,0,811,600.78q-16.17,0-25.41,11.28t-9.24,29.3q0,19.27,10.56,30.76T816.1,683.6a67.4,67.4,0,0,0,22.11-4l.73,3a50.61,50.61,0,0,1-29.44,9q-21.31,0-34.48-13t-13.17-34.25q0-22.62,14.49-35.83T814,595.24a100.66,100.66,0,0,1,22.84,2.7l.46.52Z"/><path class="cls-2" d="M277.29,725.37a40.7,40.7,0,0,0-12.74-2.31q-8.71,0-13.9,4.23T245.48,739a15.07,15.07,0,0,0,1.81,7.52,19.36,19.36,0,0,0,4.88,5.68,39.5,39.5,0,0,0,7,4.36c2.6,1.26,5.28,2.52,8.05,3.75q4.56,2,8.85,4.2a39.94,39.94,0,0,1,7.76,5.17,22.63,22.63,0,0,1,5.54,7.12,21.38,21.38,0,0,1,2.08,9.71q0,13.13-10.26,20.06t-26.56,6.94A86.63,86.63,0,0,1,231.36,810l-.4-.52L234.19,787l3-.46,4.62,18.74a38.52,38.52,0,0,0,14.32,2.78q9.84,0,15.34-4.36t5.51-12.4a15,15,0,0,0-1.78-7.43,17.87,17.87,0,0,0-4.79-5.52,40.32,40.32,0,0,0-6.83-4.18c-2.55-1.26-5.19-2.5-7.92-3.73-3.08-1.33-6.08-2.74-9-4.28a42.19,42.19,0,0,1-7.88-5.38,22.78,22.78,0,0,1-5.64-7.53A24,24,0,0,1,231,742.87a20.83,20.83,0,0,1,10-18.47q10-6.53,24.78-6.53a104.07,104.07,0,0,1,21.85,2.44l.46.46-3.89,20.59-2.65.46Z"/><path class="cls-2" d="M398,763.59q0,22.83-13,36.73T348.85,814.2q-22.1,0-34.2-12.83t-12.1-34.75q0-22.84,13-36.13t36.11-13.3q22.15,0,34.26,12.44T398,763.59Zm-81,.86q0,21.51,8.71,33t25.54,11.44q16.56,0,24.45-10.39t7.88-32.63q0-20.85-8.38-32.07t-25.87-11.22q-17,0-24.66,10.39T317,764.44Z"/><path class="cls-2" d="M412.14,719.37q8.51.27,16.39.26t16.33-.26l.34,2.84L437,724.64a2.14,2.14,0,0,0-1.78,2.05c0,1.54-.08,3.23-.09,5s0,3.83,0,6V797.5q0,6.48-.49,11.79a48.5,48.5,0,0,1-1.76,9.47,26.16,26.16,0,0,1-3.55,7.43,24.45,24.45,0,0,1-5.8,5.8,37.65,37.65,0,0,1-8.46,4.46,90.08,90.08,0,0,1-11.75,3.51l-1-3.3a39,39,0,0,0,10.79-6.41,23.59,23.59,0,0,0,5.94-8,32.82,32.82,0,0,0,2.58-10.1c.37-3.73.56-8,.56-12.66V738c0-2.24,0-4.26,0-6.07s-.06-3.43-.1-4.88a2.25,2.25,0,0,0-1.58-2.25l-8.19-2.57Z"/><path class="cls-2" d="M553,763.58q0,22.83-12.95,36.73T503.83,814.2q-22.1,0-34.2-12.83t-12.1-34.75q0-22.84,13-36.13t36.11-13.3q22.15,0,34.26,12.44T553,763.58Zm-81,.86q0,21.51,8.71,33t25.54,11.44q16.56,0,24.45-10.39t7.88-32.63q0-20.85-8.38-32.07t-25.87-11.22q-17,0-24.66,10.39T472,764.44Z"/><path class="cls-2" d="M565.81,719.36q8.51.27,16.37.26t16.37-.26l.26,2.84-8.18,2.44a2.12,2.12,0,0,0-1.72,2.05c0,1.54-.08,3.23-.09,5s0,3.83,0,6v36.11q0,18.87,6,26.17t19.33,7.28q13.52,0,19.6-7.52t6.07-25.15V737.7c0-2.15,0-4.15,0-6s-.08-3.5-.16-5a2.18,2.18,0,0,0-1.72-2.05l-7.73-2.23-.13-3q8.38.27,14.38.26,5.74,0,14-.26l.27,2.84-8.31,2.57a2.24,2.24,0,0,0-1.59,2.25q-.07,2.18-.09,4.88c0,1.81,0,3.83,0,6.07v33.85q0,21.66-8.82,32t-27.75,10.37q-18.54,0-27.39-9.33t-8.84-29V738c0-2.24,0-4.26,0-6.07s-.07-3.43-.11-4.88a2.25,2.25,0,0,0-1.58-2.25l-8.19-2.57Z"/><path class="cls-2" d="M693.62,791.48c0,2.64,0,5,0,7.13s.05,4,.11,5.74a2.47,2.47,0,0,0,1.71,2.57l7.33,2.17.19,2.85q-7.84-.2-15.7-.2t-16.37.2l-.26-2.85,8.11-2.44a2.19,2.19,0,0,0,1.79-2c0-1.77.07-3.73.09-5.91s0-4.58,0-7.23V738c0-2.24,0-4.26,0-6.07s-.05-3.43-.09-4.88a2.27,2.27,0,0,0-1.59-2.25l-8.18-2.57-.13-2.84q8.51.27,16.63.26c1.07,0,2.42,0,4.06-.09s3.66-.15,6-.24,4.4-.16,6-.2,2.87-.07,3.8-.07q15.2,0,22.81,5.68t7.6,16.56q0,9.85-5.21,15.94t-15.92,9.41q4.22,6.34,7.76,12.24t6.59,10.82q3.06,4.92,5.58,8.68a40,40,0,0,0,4.72,5.95,21.4,21.4,0,0,0,2.24,1.94,12.25,12.25,0,0,0,2.34,1.35,23.84,23.84,0,0,0,2.58.93c.9.26,1.9.52,3,.79l.2,2.91a66.4,66.4,0,0,1-8,.6c-1.8,0-3.39-.05-4.76-.13a21.26,21.26,0,0,1-3.67-.54,13.64,13.64,0,0,1-5.48-2.63,24.93,24.93,0,0,1-5.39-5.91q-2.63-3.85-5.49-8.74t-5.91-10.39q-3.09-5.51-6.49-10.8c-.68-1-1.24-1.89-1.71-2.5a6.14,6.14,0,0,0-1.55-1.45,5.14,5.14,0,0,0-1.94-.73,21.26,21.26,0,0,0-2.84-.26l-4.61-.13Zm0-27.85c2.68.14,5.17.2,7.45.2q11.42,0,16.74-4.86t5.3-15.2q0-10-5.07-14.65t-15.92-4.62c-1.22,0-2.54,0-4,.13s-2.92.23-4.55.4Z"/><path class="cls-2" d="M774,738.16v53.32q0,7.79.13,12.94a2.11,2.11,0,0,0,1.66,2.24l7.86,2.31.13,3q-8.24-.2-13.53-.2t-13.66.2l-.27-2.85,8.12-2.44a2.16,2.16,0,0,0,1.78-2q.13-5.34.13-13.14V738c0-4.39,0-8-.13-11a2.24,2.24,0,0,0-1.58-2.25l-8.19-2.57-.13-2.84q8.52.27,13.47.26c2,0,4-.08,6-.26l55.44,69.24V737.69q0-6.41-.13-11a2.16,2.16,0,0,0-1.71-2.05l-7.79-2.23-.13-3q8.45.27,13.66.26t13.53-.26l.27,2.84-8.31,2.57a2.24,2.24,0,0,0-1.59,2.25c-.09,2.91-.13,6.57-.13,11v73.79l-5.54.52Z"/><path class="cls-3" d="M697,384.89c-.18-2-.44-3.89-.69-5.82s-.28-3.92-.6-5.84-1.24-3.75-1.63-5.66-.09-4-.55-5.88-1.78-3.58-2.31-5.45-.36-4-1-5.83-1.44-3.65-2.11-5.48-1.26-3.71-2-5.52-1.68-3.54-2.48-5.32-1.83-3.45-2.7-5.21-1.8-3.46-2.72-5.18-1.62-3.57-2.6-5.26-2-3.35-3.07-5-2.08-3.31-3.19-4.92-2.17-3.26-3.33-4.83-2.7-2.85-3.92-4.38-2.61-2.9-3.88-4.38-2.22-3.25-3.55-4.68-2.82-2.7-4.21-4.08-2.74-2.79-4.17-4.12-2.66-2.9-4.14-4.17-3.19-2.29-4.71-3.51-3.33-2.07-4.9-3.23-3-2.45-4.65-3.56-3.41-1.9-5.07-2.94-3-2.58-4.69-3.56-3.67-1.42-5.4-2.33-3.14-2.44-4.9-3.29-3.53-1.69-5.33-2.47-3.69-1.31-5.51-2-3.67-1.32-5.52-2-3.56-1.68-5.43-2.26-3.79-1-5.69-1.48-3.74-1.2-5.65-1.64-3.93-.31-5.85-.68-3.88-.4-5.82-.7-3.81-.87-5.76-1.1-3.9,0-5.86-.2-3.85-.83-5.81-.92-3.9,0-5.86,0-3.9-.15-5.87-.1-3.89.29-5.85.41-3.89.19-5.85.38-3.82.84-5.77,1.09-3.79.65-5.7.95-3.81.52-5.7.88-3.82.54-5.7,1-3.87.41-5.74.88-3.72,1.06-5.57,1.6-3.68,1.2-5.51,1.8-3.53,1.6-5.34,2.26-3.62,1.31-5.41,2-3.63,1.3-5.4,2.08-3.47,1.68-5.21,2.51-3.48,1.66-5.19,2.55-3.41,1.79-5.09,2.74-3.18,2.19-4.82,3.2-3.53,1.63-5.13,2.7-3.22,2.14-4.78,3.27-3.21,2.17-4.73,3.35-2.57,3-4,4.19-3.47,1.88-4.9,3.18-2.83,2.64-4.21,4-2.5,3-3.83,4.36-2.88,2.6-4.15,4.05-2.26,3.15-3.47,4.65-2,3.28-3.2,4.83-2.88,2.68-4,4.27-1.72,3.48-2.75,5.12-2.2,3.17-3.16,4.85-1.77,3.42-2.67,5.13-2.14,3.24-3,5-1.21,3.68-2,5.46-1.92,3.38-2.62,5.18-1.37,3.61-2,5.44-.43,3.9-1,5.76-2,3.44-2.45,5.32-.11,3.93-.54,5.82-1.69,3.58-2.05,5.48,0,3.91-.25,5.83-.8,3.77-1,5.69-.32,3.83-.48,5.76-.77,3.8-.87,5.74.61,3.87.57,5.81-1,3.84-1,5.78,1,3.84,1.09,5.77-.4,3.89-.25,5.81.11,3.88.33,5.8.49,3.85.78,5.75,1.47,3.67,1.83,5.56.14,3.91.56,5.79,1.34,3.65,1.83,5.51.67,3.82,1.22,5.67,1.47,3.58,2.09,5.4.79,3.82,1.47,5.62,1.3,3.65,2.05,5.43,1.33,3.65,2.14,5.4,2,3.35,2.85,5.07,2.25,3.17,3.19,4.86,1.55,3.55,2.55,5.21,1.58,3.58,2.63,5.19,2.56,2.94,3.67,4.52,2.21,3.17,3.37,4.71,2.71,2.77,3.93,4.27,1.74,3.59,3,5,2.58,2.9,3.9,4.31,2.83,2.66,4.2,4,3.12,2.33,4.54,3.63,2.69,2.78,4.16,4,2.77,2.72,4.28,3.92,3,2.47,4.54,3.62,3.66,1.52,5.25,2.61,2.81,2.74,4.45,3.77,3.67,1.39,5.34,2.36,3,2.47,4.74,3.39,3.57,1.49,5.31,2.33,3.32,2,5.09,2.79,3.47,1.74,5.26,2.46,3.61,1.4,5.43,2.06,3.67,1.22,5.52,1.81,3.86.55,5.73,1.07,3.75.87,5.63,1.32,3.61,1.54,5.5,1.92,3.88.22,5.79.54,3.75,1,5.67,1.26,3.81.65,5.75.83,3.85.35,5.79.46,3.86.2,5.8.26,3.86-.5,5.8-.52,3.89-.27,5.85-.37,3.89-.18,5.85-.36,3.87-.39,5.82-.64,3.88-.39,5.82-.71,3.91-.35,5.83-.73,3.7-1.36,5.61-1.82,4-.13,5.9-.65,3.52-1.88,5.39-2.47,3.91-.62,5.76-1.27,3.53-1.73,5.35-2.44,3.8-1,5.6-1.81,3.3-2.18,5.08-3,3.54-1.62,5.29-2.52,3.5-1.72,5.22-2.67S618.28,540,620,539s3.48-1.84,5.12-2.91,3-2.59,4.59-3.71,2.92-2.63,4.49-3.8,3.7-1.61,5.23-2.84,2.64-3,4.12-4.24,2.78-2.75,4.21-4.09,3-2.49,4.41-3.88,2.73-2.79,4.07-4.23,2.68-2.85,4-4.33,2.92-2.67,4.14-4.2,2.4-3.11,3.56-4.69,1.68-3.6,2.79-5.22,2.11-3.27,3.16-4.94,2.75-2.91,3.73-4.61,1.26-3.77,2.18-5.51,2.1-3.31,2.94-5.09,1.75-3.5,2.53-5.3,1.88-3.46,2.59-5.3.63-3.93,1.27-5.79,1.66-3.57,2.22-5.45.43-3.93.92-5.83,1.9-3.56,2.32-5.48.37-3.92.72-5.85.92-3.81,1.2-5.76,0-3.93.19-5.9.22-3.89.36-5.85.89-3.86,1-5.83-.39-3.91-.38-5.88.71-3.91.65-5.89-.39-3.9-.51-5.87S697.2,386.85,697,384.89ZM655.08,386a30.52,30.52,0,0,1-5.66-2.18,21.34,21.34,0,0,1-4.76-3.72,41,41,0,0,1-4.51-4.28c.28-1.52,1.37-3.68,1.72-6.18.26-1.86-.32-4-.11-6.26.19-2,1.1-4,1.18-6.13s-.12-4.13-.18-6.22-.11-4.18-.37-6.21a45.07,45.07,0,0,0-1.37-6.07,29,29,0,0,0-2.4-5.69,18,18,0,0,0-3.51-4.85,49.94,49.94,0,0,0-5.15,2.49,55,55,0,0,0-4.81,3.35,56.42,56.42,0,0,0-4.49,3.78,57.3,57.3,0,0,0-4.11,4.2,58.43,58.43,0,0,0-3.23,4.9,57,57,0,0,0-2.9,5.05,56.54,56.54,0,0,0-3,5.05,103.21,103.21,0,0,0-3.31,11.23,58.25,58.25,0,0,0-1.19,5.76c-.18,1.91,0,3.9,0,5.88s.52,3.83.71,5.81.25,3.84.62,5.8,1,4.1,1.54,6c-2.14.29-4.6.11-6.75.24s-4.1.71-6.39.55c-1.93-.13-3.79-1-6.1-1.44-.21-2-.27-3.73-.4-5.64s-.46-3.91-.5-5.82-.12-3.94-.07-5.84.6-3.9.76-5.8.22-3.92.49-5.81.83-3.82,1.22-5.7.34-3.95.87-5.79.87-3.87,1.53-5.66,1.74-3.55,2.56-5.28,1.42-3.7,2.39-5.37,2.52-3,3.64-4.62,2.24-3.2,3.51-4.66,2.72-2.78,4.13-4.12,2.76-2.74,4.29-4,3.13-2.29,4.77-3.37,3.06-2.47,4.78-3.41,3.4-1.94,5.19-2.75,3.63-1.45,5.47-2.13,3.74-1.09,5.63-1.65,3.7-.6,5.62-1.05a56.16,56.16,0,0,1,3.52,4.49c1.11,1.58,2.23,3.17,3.22,4.89s2.23,3.24,3.07,5,1.56,3.59,2.26,5.44,1.15,3.74,1.7,5.63,1.14,3.74,1.56,5.67.73,3.84,1,5.8.48,3.88.63,5.85.54,3.9.57,5.87-.52,3.9-.63,5.87-.32,3.88-.56,5.84-.68,3.83-1.05,5.76-.09,4-.59,5.89S655.7,384.12,655.08,386Zm-108.31-3.75c-1.1.69-2.51,1.71-4.08,2.8-1.32.92-2.86,1.72-4.19,2.68-1.48,1.08-2.78,2.64-3.9,3.47-1.64-1.06-2.92-2.84-4.4-4s-3.51-1.86-4.86-3.21-2.1-3.29-3.32-4.78-2.52-2.87-3.61-4.47-2-3.26-2.92-5-2-3.27-2.79-5-1.77-3.39-2.48-5.21-1.33-3.81-2-5.66c2.27.4,4.41.9,6.23,1.07,2.26.21,4.25.27,6.13.32,2.08.06,4,.15,6,.33.83,1.85,1.52,3.52,2.34,5a51.53,51.53,0,0,0,3.28,4.57c1.06,1.56,2.3,2.88,3.51,4.34s2,3.07,3.32,4.54c1.17,1.29,2.56,2.51,3.93,4C544.23,379.32,545.42,380.74,546.77,382.24Zm-7.93-17.13a34.74,34.74,0,0,0,3.28-4.48,37.51,37.51,0,0,0,2.82-4.82c.75-1.72.82-3.65,1.31-5.43s1.62-3.47,1.88-5.29-.41-3.79-.36-5.62.77-3.77.62-5.58a47.83,47.83,0,0,0-1-5.51,42.9,42.9,0,0,0-1.34-5.43,29.31,29.31,0,0,0-2.44-5,14.83,14.83,0,0,0-3.7-4.24,19.56,19.56,0,0,1,3.45-5.44,34.65,34.65,0,0,1,4.84-4.07,28.56,28.56,0,0,1,5.27-3.34,28.38,28.38,0,0,1,3.6,4.56,35.87,35.87,0,0,1,2.69,5.18,44.45,44.45,0,0,1,2.42,5.36,55.58,55.58,0,0,1,1.55,5.7c.35,1.9.14,3.92.33,5.89s.48,3.87.51,5.85-.09,3.91-.2,5.87-.64,3.86-.88,5.8-.25,3.92-.62,5.83-.41,4-.92,5.83-1.3,3.75-2,5.57-1.12,3.85-1.93,5.59-2.32,3.29-3.31,4.91a47.15,47.15,0,0,1-3.24,5.31c-1.67-1.3-3-3.22-4.37-4.51s-2.81-2.76-4.17-4.22S540.21,366.7,538.84,365.11Zm-20.66,20.26a32,32,0,0,0-4.61,2.52c-1.47.91-3.14,1.72-4.55,2.71-1.7,1.19-3.22,2.83-4.24,3.63-1.14-1.56-2-3.55-3.43-4.71s-3.47-1.5-5.13-2.31-3.15-2.14-5-2.59a33.72,33.72,0,0,0-5.58-.65,41.57,41.57,0,0,0-5.6-.12,50.58,50.58,0,0,0-5.53.86c-1.84.33-3.61,1-5.38,1.46s-3.57,1.13-5.27,1.78-3.63,1.15-5.23,1.94a48,48,0,0,0-4.86,2.76,29.37,29.37,0,0,0-4.4,3.36,9.66,9.66,0,0,1-3.94-2.74,29.4,29.4,0,0,1-3.52-3.56,47.74,47.74,0,0,1-2.84-4.44,34,34,0,0,1,4.51-4.09,39.06,39.06,0,0,1,4.63-3.67,48.66,48.66,0,0,1,5.22-2.79,57.75,57.75,0,0,1,5.58-1.92c1.84-.65,3.62-1.51,5.55-2s3.76-1.29,5.72-1.61,3.95-.34,5.92-.49,4-.53,5.93-.5,3.93.77,5.88,1,4,0,5.95.36,3.68,1.63,5.52,2.25a42.72,42.72,0,0,1,5.42,2.26,36.77,36.77,0,0,1,5.17,2.82,31.88,31.88,0,0,1,4.52,3.8A29.13,29.13,0,0,1,518.18,385.37ZM488.5,408.06a32.68,32.68,0,0,0,6.13-1.11,39.06,39.06,0,0,0,6-1.89c1.95-.89,3.5-2.4,5.21-3.47s4-1.79,5.53-3c1.81-1.43,2.83-3.48,4.15-4.74a53.74,53.74,0,0,1,4.65-3.79c1.36.79,3.65,1.67,6,3a30,30,0,0,1,5.45,3.92,37.5,37.5,0,0,1-2.55,4.81,42.65,42.65,0,0,1-3.21,4.61,47.54,47.54,0,0,1-3.91,4.05,54.36,54.36,0,0,1-4.54,3.31q-2.24,1.65-4.66,3.11c-1.59,1-3.26,1.8-4.94,2.63s-3.4,1.5-5.14,2.22-3.33,1.77-5.1,2.37-3.52,1.33-5.32,1.83-3.63.53-5.44.94a54.52,54.52,0,0,0,1.06-6.17,61.63,61.63,0,0,0,.6-6.32C488.54,412.47,488.55,410.39,488.5,408.06Zm33.75,11.43a60,60,0,0,1,3.6,4.92c1,1.59,1.75,3.42,2.76,5.44.81,1.62,2.19,3.38,3.09,5.5a14.3,14.3,0,0,0-4.39,4.45c-.86,1.59-.87,3.78-1.55,5.86-.59,1.8-1.85,3.54-2.26,5.6a58.61,58.61,0,0,0-.65,6,57.06,57.06,0,0,0-.35,6,53,53,0,0,0,.61,6,45.68,45.68,0,0,0,1.37,5.84,38.35,38.35,0,0,0,2,5.62,32.24,32.24,0,0,0,2.61,5.32c-2.19,1.55-3.6,2.85-5.35,4.13a28.88,28.88,0,0,1-5.92,3.27,64.13,64.13,0,0,1-6.3,2.2,38.1,38.1,0,0,1-2.81-5,53.14,53.14,0,0,1-2.07-5.59c-.52-1.87-.49-3.92-.85-5.9s-.81-3.85-1-5.84-.25-3.93-.32-5.92.29-3.94.36-5.91-.11-4,.09-5.92,0-4,.37-5.94.95-3.9,1.42-5.78.75-4,1.38-5.8,2-3.55,2.82-5.27,1.36-3.89,2.41-5.46,3-2.81,4.32-4.12A19.24,19.24,0,0,1,522.25,419.49Zm4.36-7.25c1.55-1.1,2.82-2.15,3.93-3.08a44.08,44.08,0,0,0,3.8-3.28c1.94-2.15,2.49-3.94,3-4.42,1.56,1.4,2.57,3.44,3.9,4.94s3.32,2.66,4.48,4.3,1.65,3.87,2.64,5.62,2.13,3.56,2.94,5.38,1.5,3.89,2.14,5.75c.71,2,1.47,4,2,5.82.57,2.17,1.23,4.15,1.57,6,.47,2.48.74,4.75.94,6.26-1.71.05-3.57-.23-5.68-.25-1.55,0-3.33,0-5.51.08-1.6.06-3.32.12-5.41.27-.22-2.2-.38-4.17-.75-6.06a47.23,47.23,0,0,0-2-5.86,45.14,45.14,0,0,0-2.47-5.61,60.6,60.6,0,0,0-2.56-5.62c-1.06-1.71-2.35-3.3-3.54-5.06S527.82,414,526.62,412.24Zm24.52-6.13c-2.15-2.41-3.66-4-4.82-5.32-2-2.2-2.71-3.4-4.38-5.53,1.5-1.43,2.5-3.06,3.94-4.36s3.53-2.12,5.05-3.35,2.7-3.15,4.36-4.23,3.79-1.43,5.61-2.31a42.27,42.27,0,0,1,5.47-2.43,47.21,47.21,0,0,1,5.84-1.36,54.56,54.56,0,0,1,5.9-1c.31,2.08.68,3.61.74,4.93.09,1.88.06,3.29,0,5a48.37,48.37,0,0,0-.3,4.93,26.71,26.71,0,0,0-5.33.39,28.14,28.14,0,0,0-5.23,1.4,32,32,0,0,0-4.92,2.29,40.46,40.46,0,0,0-4.19,3.44,48.73,48.73,0,0,0-3.86,3.74C553.79,403.61,552.32,404.67,551.13,406.11Zm20.49-5.93a38.74,38.74,0,0,0,5,2.45,41.64,41.64,0,0,0,5.25,2c1.84.48,3.78.26,5.6.49s3.7,1.11,5.54,1.14,3.75-.89,5.57-1.05,3.89.34,5.65,0c1.95-.35,3.75-1,5.44-1.45,2-.55,3.86-1,5.38-1.63a21,21,0,0,0,5-2.6,23.54,23.54,0,0,1,5.79,3.07,43.26,43.26,0,0,1,4.9,4.63,17,17,0,0,1-4.06,4.38,26.18,26.18,0,0,1-4.89,3.2,40.52,40.52,0,0,1-5.42,2.21,55.77,55.77,0,0,1-5.66,1.48c-1.87.42-3.72,1.19-5.7,1.46s-3.87.64-5.84.77-3.94-.31-5.89-.32-3.94.09-5.87-.07-3.93-.47-5.82-.78a57,57,0,0,1-5.65-1.57,44.94,44.94,0,0,1-5.63-1.58,30,30,0,0,1-5.39-2.42,16.37,16.37,0,0,1-4.1-4.29c-.18-.27,2-3.15,4.82-5.56A42.46,42.46,0,0,1,571.63,400.18Zm58.56-114.25c-1,1.56-2,3.17-3.1,4.79s-2.36,2.95-3.5,4.51-1.8,3.39-3,4.91-2.93,2.52-4.15,4-1.79,3.47-3,4.91-3.1,2.35-4.39,3.74-2.47,2.93-3.8,4.27-2.81,2.61-4.18,3.89-2.72,2.73-4.14,3.94-2.85,2.64-4.33,3.75-3.14,2.32-4.69,3.3a47.26,47.26,0,0,1-5.15,2.52,30.32,30.32,0,0,1-5.32,2,16.37,16.37,0,0,1-5.54.58c-.09-1.92,0-3.49-.14-5-.12-1.85-.66-3.42-.8-5s-.46-3.35-.63-5.15c1.09-1.12,3.17-2.07,5.21-3.34,1.54-1,3.19-2.12,5.06-3.2,1.65-1,3.43-1.9,5.19-3s3.56-1.82,5.22-3,3.06-2.61,4.58-3.9a40.51,40.51,0,0,0,4-4.47,28,28,0,0,0,3.6-4.7,19.14,19.14,0,0,0,1.89-5.26c-1.78-.79-3.09-1.82-4.89-2.42s-3.84-.57-5.69-1-3.65-1.47-5.54-1.72-3.87-.42-5.77-.47-3.87.22-5.78.34-3.83.42-5.72.73-3.9.27-5.75.75-3.7,1.21-5.49,1.86-3.72,1.21-5.44,2-3.21,2.22-4.84,3.21a55.08,55.08,0,0,0-4.59,3.46,52.78,52.78,0,0,0-4.6,3.45,47.93,47.93,0,0,0-3.67,4.43c-1.25,1.49-2.82,2.69-3.85,4.3a41,41,0,0,0-2.65,5.13,36.71,36.71,0,0,0-2.07,5.28c-2.2,0-4.31.13-6.51.13s-4.4-.07-6.6-.07-4.67.33-6.87.33a56,56,0,0,1,1.16-6.16,50.36,50.36,0,0,1,2.17-5.56,51.75,51.75,0,0,1,2.9-5.2,54.49,54.49,0,0,1,3.66-4.66,57.2,57.2,0,0,1,3.69-4.59c1.32-1.45,2.65-2.89,4.12-4.22s2.73-2.88,4.31-4.08,3.22-2.29,4.9-3.35,3.46-1.9,5.21-2.83,3.47-1.88,5.28-2.69,3.65-1.49,5.52-2.17,3.74-1.26,5.64-1.81,3.74-1.33,5.67-1.76,4-.3,5.92-.6,3.91-.5,5.87-.68,3.93-.14,5.9-.19,4-.75,5.93-.67,3.88,1.06,5.84,1.27,3.89.49,5.83.84,3.93.46,5.83,1,3.68,1.4,5.54,2.05,3.81,1.06,5.6,1.86,3.78,1.3,5.5,2.27,3,2.63,4.63,3.75S628.67,284.65,630.18,285.93ZM531.41,277c-1.48.77-2.92,1.62-4.41,2.57a43.43,43.43,0,0,0-4.3,2.81c-1.23,1-2.1,2.55-3.42,3.84-1.13,1.11-2.67,1.72-3.89,3.1-1.9-.34-3.8.1-5.8-.26s-3.73-1.42-5.76-1.7-3.91-.26-6-.4-3.9-.3-6-.27-3.89.33-5.94.55-3.82.7-5.85,1.09c-1.87.36-3.78.85-5.77,1.4-1.84.51-3.82.81-5.76,1.5s-3.68,1.4-5.58,2.22a34.39,34.39,0,0,0,1.59,5.61,33.06,33.06,0,0,0,2.51,5.23,34.6,34.6,0,0,0,3.78,4.38,38,38,0,0,0,4.23,3.87,44,44,0,0,0,4.36,3.79,53.32,53.32,0,0,0,5.13,2.67c1.7.84,3.43,1.68,5.26,2.38s3.5,1.63,5.37,2.18,3.78.72,5.69,1.14,3.83.34,5.75.64,3.76.73,5.69.92,3.84,0,5.77.08,3.83.75,5.75.73,3.83-.65,5.75-.76,3.91.46,5.81.25,3.62-.51,5.5-.8c-.12,1.77-.06,3.3-.15,5s-.1,3.56-.23,5.25a51.29,51.29,0,0,1-1.07,5.14,23.6,23.6,0,0,1-1.13,4.91c-2,.06-3.84-.15-5.77-.14s-4,.55-5.89.53-4,.21-5.91.13-4-.52-5.87-.66-4,0-5.91-.17-3.88-1-5.78-1.33-3.94-.53-5.82-.92-3.85-1-5.7-1.49-3.87-.92-5.69-1.53-3.72-1.39-5.49-2.13-3.83-1.19-5.55-2.07-3.58-1.78-5.22-2.81-3.27-2.29-4.81-3.48-2.95-2.65-4.38-4-2.47-3.07-3.78-4.54-2.59-2.91-3.77-4.5-2.34-3.11-3.4-4.8-2.36-3.15-3.3-4.91-1.75-3.5-2.58-5.32-1.41-3.64-2.13-5.51-1.49-3.71-2.13-5.61a32.82,32.82,0,0,1,4-4.37A41.67,41.67,0,0,1,448,282.9a52.34,52.34,0,0,1,4.8-3.28c1.65-.89,3.63-1.29,5.44-2.07s3.54-1.4,5.4-2,3.67-1,5.56-1.56,3.55-1.66,5.45-2.06,3.92.07,5.84-.22,3.79-.55,5.71-.74,3.81-.66,5.73-.75,3.85.21,5.78.22,3.87-.26,5.78-.14,3.91-.14,5.81.1,3.73,1.27,5.6,1.63,3.91.3,5.75.8,3.67,1.3,5.45,2A54.29,54.29,0,0,1,531.41,277Zm-111.5,31.23c1.9.5,3.75,1,5.54,1.57s3.58,1.5,5.33,2.2,3.81,1,5.51,1.82,3.08,2.43,4.71,3.4,3.74,1.34,5.29,2.45,2.61,2.92,4.06,4.17,3,2.41,4.32,3.78,2.51,2.87,3.73,4.37,2.5,2.89,3.6,4.49,2.3,3.07,3.28,4.75,1.92,3.31,2.79,5.06,1.38,3.56,2.15,5.36,1.47,3.51,2.16,5.34,1.23,3.52,1.84,5.38c-1.33.45-3.09.88-5.05,1.5-1.68.52-3.36,1.45-5.07,1.86a27.83,27.83,0,0,1-5.57.91c-.89-1.7-1.41-3.74-2.24-5.43s-1.84-3.34-2.66-5-1.62-3.45-2.49-5.11-1.5-3.54-2.46-5.15-2.28-3.08-3.39-4.59a43.18,43.18,0,0,0-3.95-4.07,34.65,34.65,0,0,0-4.07-3.9,33.31,33.31,0,0,0-4.93-2.72c-1.62-.83-3.2-2.12-5.08-2.74-.5,1.88-.43,4-.8,5.81s-1.41,3.67-1.66,5.54-.47,3.85-.6,5.73.05,3.88.06,5.76.17,3.86.31,5.74-.07,3.91.22,5.77.83,3.8,1.27,5.63.77,3.82,1.37,5.62,1.8,3.46,2.56,5.19,1.87,3.35,2.79,5,1.65,3.48,2.72,5a55.87,55.87,0,0,0,3.76,4.33c1.24,1.48,2.14,3.24,3.51,4.56a52.36,52.36,0,0,0,4.44,3.65,50.86,50.86,0,0,0,4.67,3.36,49.43,49.43,0,0,0,5.17,2.53c-.26,2-.56,3.87-.78,5.79s0,3.91-.29,5.85-.69,4.16-1.12,6.11a55.09,55.09,0,0,1-6-1.52,34.56,34.56,0,0,1-10.11-5.55,48.69,48.69,0,0,1-4.7-3.29,52.11,52.11,0,0,1-4.31-3.79,57,57,0,0,1-4.13-4c-1.19-1.49-2.32-3.08-3.39-4.69s-1.9-3.34-2.83-5-1.87-3.36-2.66-5.12-1.47-3.55-2.14-5.36-1.23-3.64-1.78-5.49-1.31-3.63-1.74-5.52-.3-3.86-.61-5.76-.52-3.79-.73-5.71-.2-3.82-.29-5.75-.86-3.83-.85-5.75.9-3.82,1-5.73.27-3.81.49-5.72.17-3.85.5-5.74,1.05-3.7,1.5-5.56.62-3.81,1.17-5.64.77-3.82,1.44-5.61,2.11-3.3,2.9-5S419,309.89,419.91,308.22ZM417,408.43c1,1.31,2.12,2.78,3.44,4.32a35.35,35.35,0,0,0,3.71,4.12,30.19,30.19,0,0,0,5,2.83c-.31,1.55-1.4,3.58-1.78,5.8-.3,1.74.23,3.79,0,5.86-.24,1.82-1.23,3.66-1.41,5.67s-.09,3.83-.17,5.81-.22,3.85-.19,5.81.31,3.85.47,5.79.61,3.81.93,5.72.76,3.78,1.25,5.64a50.34,50.34,0,0,0,1.57,5.64,44.08,44.08,0,0,0,5.12-3.3,48.84,48.84,0,0,0,4.63-3.87,56.65,56.65,0,0,0,4.19-4.36c1.27-1.52,2.15-3.38,3.31-5.06s2-3.41,3.07-5.17,2.38-3.26,3.28-5.07,1.56-3.69,2.35-5.56,1.6-3.68,2.29-5.58,1.68-3.68,2.28-5.6.88-3.94,1.41-5.88.6-4,1.06-5.95,1.07-3.89,1.45-5.85.41-4,.73-6,1.22-3.91,1.46-5.88,0-4.37.2-6.33c1.93,0,4.15.6,6.08.6l5.77,0c1.92,0,3.81-.26,5.73-.26-.05,2-.07,3.94-.18,5.88s-.71,3.92-.89,5.86-.25,4-.5,5.88-.77,3.88-1.1,5.8-.18,4-.58,5.9-.58,4-1.08,5.83-1.35,3.75-1.93,5.61-.88,3.9-1.55,5.73-1.94,3.51-2.7,5.3-1.49,3.67-2.36,5.42-1.93,3.45-2.89,5.15-1.85,3.5-2.91,5.14-2.24,3.25-3.39,4.84-2,3.45-3.24,5-2.44,3.14-3.77,4.59-2.78,2.83-4.18,4.21-3,2.59-4.47,3.9-3.27,2.22-4.81,3.46-3,2.49-4.63,3.66-3.14,2.37-4.78,3.47-3.23,2.54-4.92,3.57a23.71,23.71,0,0,1-5-3.59,31.55,31.55,0,0,1-3.81-4.65,42.47,42.47,0,0,1-3.22-5.06,56.52,56.52,0,0,1-2.44-5.48c-.71-1.81-1.34-3.72-1.92-5.67s-1.35-3.76-1.78-5.74-.29-4-.59-6-.49-3.94-.66-5.94-.14-4-.2-6-.77-4-.71-6,1-4,1.21-5.92.44-4,.76-5.91.42-4,.9-5.91a59.63,59.63,0,0,1,2.06-5.6,49.94,49.94,0,0,1,2-5.61A37.13,37.13,0,0,1,417,408.43Zm20.24,102.65c.88-1.84,1.74-3.65,2.67-5.42s2.14-3.45,3.14-5.18,1.57-3.79,2.64-5.48,2.84-3,4-4.61,1.71-3.78,2.95-5.35,3.15-2.64,4.49-4.13,2.58-3.1,4-4.51,3-2.68,4.54-4,3-2.69,4.63-3.88,3.18-2.49,4.9-3.56,3.45-2.09,5.26-3,3.73-1.5,5.61-2.29,3.71-1.51,5.64-2.17,3.72-1.18,5.7-1.71A49.68,49.68,0,0,0,497,462c0,2,.45,4.15.45,6.38s.08,4.51,0,6.6c-2,.68-4.2,1.08-6,1.88s-3.64,1.89-5.39,2.83-3.59,2-5.25,3.07-3.57,2.07-5.13,3.33-2.91,2.88-4.36,4.28-2.53,3.18-3.85,4.72-2.72,3-3.92,4.63-2,3.09-3.05,4.83c1.77.78,3,1.72,4.81,2.32s3.81.58,5.64,1,3.6,1.5,5.47,1.77,3.82.47,5.71.57,3.84-.14,5.73-.21,3.81-.32,5.68-.56,3.87-.13,5.72-.53,3.71-1,5.52-1.59,3.74-1,5.49-1.69,3.32-2,5-2.82,3.23-2,4.85-3,3.4-1.78,4.92-2.89,2.79-2.61,4.2-3.85,3.2-2.2,4.47-3.57a51.32,51.32,0,0,0,3.57-4.47,45.37,45.37,0,0,0,3.24-4.71,37.76,37.76,0,0,0,2.28-5.24c1.88,0,3.83.15,5.78.32s4,0,5.82.24c2,.31,4.36.74,6.08,1.09a51.63,51.63,0,0,1-1,6,32.77,32.77,0,0,1-4.66,10.51,45.21,45.21,0,0,1-2.93,4.91,48.66,48.66,0,0,1-3.49,4.54,53.73,53.73,0,0,1-3.79,4.35c-1.41,1.27-2.94,2.47-4.5,3.62s-3.23,2.06-4.88,3.07-3.25,2-5,2.89-3.47,1.63-5.25,2.37-3.57,1.39-5.39,2-3.56,1.47-5.42,2-3.83.47-5.71.87-3.76.7-5.65,1-3.8.38-5.71.57-3.77,1-5.69,1.12-3.85-.72-5.76-.74-3.82-.08-5.72-.21-3.85,0-5.74-.22-3.74-.87-5.61-1.22-3.83-.44-5.67-.91-3.85-.6-5.65-1.19-3.38-2-5.13-2.7-3.74-1.08-5.42-2-3.28-2-4.87-3.06A55.16,55.16,0,0,1,437.25,511.08Zm102.4,7.61c2.1-1.51,3.85-2.85,5.38-4,2.22-1.68,4.08-2.83,5.42-4a25.38,25.38,0,0,0,4.28-5.33,15.11,15.11,0,0,0,5.46,2.7c1.61.44,3.7.06,5.82.48,1.77.35,3.55,1.43,5.56,1.72,1.84.26,3.8.27,5.78.43s3.83.38,5.77.42,3.86-.18,5.78-.28,3.84-.52,5.72-.81a43.38,43.38,0,0,0,5.6-1.26,31.43,31.43,0,0,0,5.47-1.81,22.28,22.28,0,0,0,4.8-3.29c-.9-1.73-1.82-3.47-2.86-5a54.86,54.86,0,0,0-3.32-4.72,88.28,88.28,0,0,0-8.59-7.63,57.18,57.18,0,0,0-4.38-3.73c-1.59-1-3.35-1.83-5.07-2.72s-3.38-1.76-5.17-2.51-3.42-1.74-5.27-2.37-3.72-.87-5.6-1.38-3.77-.52-5.68-.93-3.68-.94-5.61-1.25-3.79-.25-5.73-.48-3.71-1-5.65-1.2-3.83.29-5.77.19-3.78-.89-5.72-.94-3.61,0-5.56,0a34,34,0,0,1-.73-5.62,32.67,32.67,0,0,1,.44-5.84c.31-1.85,1-3.38,1.32-5.49,1.93-.19,3.54-.37,5.42-.48s3.83,0,5.71,0,3.83-.56,5.71-.51,3.86-.14,5.73,0,3.8.65,5.66.89,3.87.16,5.72.49,3.66,1.27,5.49,1.71,3.75.81,5.55,1.35,3.61,1.28,5.38,1.92,3.64,1.2,5.37,1.94,3.47,1.63,5.15,2.47,3.62,1.38,5.25,2.32,3.38,1.87,4.95,2.92,3.11,2.28,4.62,3.42,2.89,2.54,4.32,3.77,2.54,2.89,3.89,4.21,2.74,2.65,4,4.05,2.59,2.81,3.77,4.28,2.67,2.8,3.75,4.34,2.13,3.21,3.12,4.81,1.8,3.4,2.68,5.06,1.85,3.48,2.61,5.19a25.84,25.84,0,0,1-3.3,4.92,32.31,32.31,0,0,1-4.19,4,41.73,41.73,0,0,1-4.6,3.61,57.25,57.25,0,0,1-5.37,2.31c-1.71.81-3.51,1.51-5.37,2.19s-3.66,1.1-5.55,1.65-3.55,1.69-5.46,2.11-3.93-.06-5.86.24-3.8.55-5.74.74-3.82.66-5.76.74-3.87-.22-5.8-.24-3.88.24-5.8.12-3.93.12-5.83-.12-3.74-1.29-5.61-1.65-3.93-.31-5.76-.82-3.69-1.32-5.46-2a52.46,52.46,0,0,1-5.37-2.21A40.19,40.19,0,0,1,539.65,518.69ZM649.94,487a58.32,58.32,0,0,1-5.67-2.09c-1.79-.78-3.49-1.89-5.32-2.87s-3.77-1.46-5.52-2.56-2.92-2.81-4.58-4-3.72-1.74-5.3-3-2.55-3.18-4-4.57-3-2.63-4.44-4.1-2.63-3-3.93-4.59-2.67-3-3.86-4.65-2.5-3.19-3.56-4.9-2.11-3.46-3-5.26-1.5-3.76-2.27-5.62S597,435,596.36,433a59.34,59.34,0,0,1-1.46-5.77,37.53,37.53,0,0,0,5.12-.19c1.8-.23,3.51-1,5.08-1.26,2.31-.45,4.46-1,5.36-1.16,1,1.7,1.7,3.81,2.76,5.63s2.2,3.39,3.27,5.17,2,3.51,3.15,5.24,1.93,3.61,3.11,5.29,2.64,3.14,3.9,4.74,2.91,2.88,4.29,4.37,2.68,3.07,4.2,4.42a50.25,50.25,0,0,0,5,3.51c1.67,1.16,3.19,2.75,5,3.66.81-1.79,1.07-3.88,1.7-5.69s1.88-3.52,2.33-5.39.85-3.84,1.13-5.75.22-3.92.32-5.84,0-3.9-.07-5.83.17-4-.1-5.86-.79-3.85-1.24-5.73-.79-3.87-1.42-5.7-1.86-3.48-2.66-5.24a57,57,0,0,0-2.94-5,55.29,55.29,0,0,0-2.93-5,51.36,51.36,0,0,0-4-4.23c-1.33-1.44-2.34-3.17-3.81-4.42a45.53,45.53,0,0,0-4.76-3.39,42.85,42.85,0,0,0-5-3,40.77,40.77,0,0,0-5.51-1.94,38.94,38.94,0,0,0-5.63-1.32c0-1.86-.44-3.43-.44-5,0-1.7-.15-3.3-.15-5,0-1.53.24-3.46.24-5.32a58.12,58.12,0,0,1,6.17.77,267.38,267.38,0,0,1,11.21,3.66,52.27,52.27,0,0,1,5.33,2.49,55.31,55.31,0,0,1,5.21,2.82,58.34,58.34,0,0,1,4.63,3.7c1.48,1.29,2.79,2.8,4.14,4.24s2.72,2.87,3.93,4.42,2.33,3.18,3.41,4.84,2.06,3.36,3,5.1,2.09,3.38,2.9,5.18,1.08,3.82,1.75,5.68,1.22,3.73,1.75,5.63.84,3.83,1.23,5.77,1.42,3.76,1.66,5.72-.4,4-.3,6,.14,3.91.09,5.88.16,3.94,0,5.9-.82,3.85-1.18,5.78-.47,3.92-1,5.81-.72,3.92-1.41,5.77-2.15,3.36-3,5.13-1.34,3.74-2.38,5.42-2.3,3.19-3.5,4.77A58.57,58.57,0,0,1,649.94,487Z"/></g></svg>