<?xml version="1.0" encoding="utf-8"?>
<!-- Generator: Adobe Illustrator 21.1.0, SVG Export Plug-In . SVG Version: 6.00 Build 0)  -->
<svg version="1.1" id="Layer_1" xmlns="http://www.w3.org/2000/svg" xmlns:xlink="http://www.w3.org/1999/xlink" x="0px" y="0px"
	 viewBox="0 0 1080 1080" enable-background="new 0 0 1080 1080" xml:space="preserve">
<title>WGBH_impact-report_digital_logo-farm_v1</title>
<g opacity="0.75">
	<path fill="#FFFFFF" d="M870.5,560.6c0-26.5-17.8-39.3-42-39.3c-7.4,0-12.9,0.8-17,1.7l0.9-16.3H868l-4.7-30.1h-78.9l-4.3,71.1
		l22.5,4.9c4.5-1.9,9.8-3.4,16.8-3.4c10.2,0,16.3,4.5,16.3,13.1c0,8.9-8.1,14.2-19.5,14.2c-12.7,0-25.2-3.8-35.9-8.3l-4.9,30.5
		c12.1,5.1,25.7,8.3,41.4,8.3C848.6,607,870.5,590.9,870.5,560.6 M970,505.8v-29.1h-92.1l4.5,31h49.4L888.7,600l35.8,5.9L970,505.8z
		"/>
	<path fill="#FFFFFF" d="M630.1,542.4v59.3h50.7l-0.2-57.8l41.1-67.9h-52.5l-1.5,3.7l-12.6,31.2L642.2,479L641,476h-54l6.5,10.2
		c-6.4-6.9-16.7-10.6-33.9-10.6h-88.3v18.7c-7.5-8.8-26.1-22.7-66.1-22.7c-40,0-54.2,9.8-68.9,30.4l4.8-26.4h-42.8l-11.5,46.3
		L276,475.7h-46.5l-11.9,47l-10.6-47.2h-47.2l25.3,127.2h52.4l14.1-48.7l14.6,48.7H318l10.4-51c9,53.9,63.5,56,79.2,56
		c15.7,0,41.3-3.9,63.5-17v12.1h90.6c15.8,0,27.8-4.2,32-8.6c0,0,6.3-6.9,7.8-14.1c1.6-6.5,1.8-12.9-0.6-22.1
		c-3.1-12.2-14.2-16-20.9-18.3c6.5-1,16.2-6,20.9-15.7c4.7-9.7,0-24.5,0-24.5c-0.5-1.4-1-2.7-1.6-4L630.1,542.4z M741.4,542.6
		C741.4,542.9,741.4,542.9,741.4,542.6C741.7,542.4,741.6,542.4,741.4,542.6 M680.9,601.8l-60.4,60.1c0,0-50.6-0.1-50.3,0
		c-0.2-2.5,0-44.1,0-44.1l-31.7,31.7c-5.9,5.1-12.4,12.4-29,13l-97.7,0v-11.9c-3.1,1.7-7.2,3.6-11.9,5.5c-5,2.2-10.1,4-15.1,5.5
		c-9.4,2.8-18.4,4.3-26.2,5c-3.7,0.3-7.2,0.5-10.2,0.5c-1.5,0-3.4,0-5.6-0.1c-7.7-0.3-19.1-1.4-30.6-5.4c-3.6-1.2-7.3-2.8-10.8-4.6
		c-7.3-3.6-13-8.2-17.2-13.3c-1.2-1.4-2.3-2.9-3.3-4.4l-24.5,22.9c0,0,0,0-44.1,0l-6-22.9l-23.7,23.2h-45.4L110,524.9l107.5-107.1
		h47.3l4,24l22.6-23.7l42.2,0l2.9,24l24-24h51.9l-4.9,20.1c14.1-11.8,26.1-19.9,44.4-23.3c1-0.2,2.1-0.4,3.1-0.5c1-0.1,2-0.3,3-0.4
		c4.5-0.5,9.4-0.8,14.8-0.8c21.5,0,35.1,4.5,45.4,11.4c0.8,0.5,1.6,1.1,2.4,1.7c3.2,2.4,6.2,5,9,7.9c0.5,0.5,1,1,1.5,1.5l17.8-17.3
		h70.4c10.4,0,17.1,3.8,21.2,8.9l9.4-8.6h54l4.8,18.8l20.9-19l55.6,0c0,0-36.4,59-43.8,71.2c0.2,15.6,0,49.6,0,52.9
		c0.2-0.2,0.2-0.2,0,0c0,0.3,0,0.3,0,0C738,545.8,680.9,601.8,680.9,601.8"/>
	<path fill="#FFFFFF" d="M408.1,500.8c-12.1,0-16,8.3-16,13.4l-0.2,52.6c0,4.1,4.1,12.9,15.7,12.9c11.6,0,15.7-4.9,15.7-12.1v-13.9
		h-16.3v-25h64.3v-13.9h-47.2C424.1,507.2,420.2,500.8,408.1,500.8"/>
	<path fill="#FFFFFF" d="M550,514.2c0-6.7-4.4-10.8-11.6-10.8h-17v21.2c0,0,10.6,0.3,17,0.3C544.9,524.8,550,520.9,550,514.2"/>
	<path fill="#FFFFFF" d="M539.2,554.2h-17.8v21.4c0,0,11.4,0.3,17.8,0.3c6.5,0,11.6-3.9,11.6-10.6
		C550.8,558.6,546.4,554.2,539.2,554.2"/>
</g>
</svg>
