<?xml version="1.0" encoding="utf-8"?>
<!-- Generator: Adobe Illustrator 21.1.0, SVG Export Plug-In . SVG Version: 6.00 Build 0)  -->
<svg version="1.1" id="Layer_1" xmlns="http://www.w3.org/2000/svg" xmlns:xlink="http://www.w3.org/1999/xlink" x="0px" y="0px"
	 viewBox="0 0 1080 1080" enable-background="new 0 0 1080 1080" xml:space="preserve">
<title>WGBH_impact-report_digital_logo-farm_v1</title>
<g>
	<path fill="#231F20" d="M878,662.5H159.7V417.9H878V662.5z M641.9,653.5H869V426.9H641.9V653.5z M405.3,653.5h227.2V426.9H405.3
		V653.5z M168.7,653.5h227.7V426.9H168.7V653.5z"/>
	<path fill="#231F20" d="M902.4,434.3c2.3,0,4.5-0.1,4.5-2.6c0-2.1-1.8-2.6-3.6-2.6h-3.4v5.2H902.4z M899.9,442.6h-1.8v-15h5.8
		c3.4,0,4.9,1.5,4.9,4.2s-1.8,3.8-3.8,4.2l4.5,6.7h-2.2l-4.2-6.7H900v6.6H899.9z M891.8,435c0,6.2,4.7,11.1,11,11.1s11-4.9,11-11.1
		s-4.7-11.1-11-11.1S891.8,428.8,891.8,435 M915.8,435c0,7.3-5.6,13-13,13s-13-5.7-13-13s5.7-13,13-13S915.8,427.7,915.8,435"/>
	<path fill="#231F20" d="M305.1,600.6v-69.9c0-10.3-2-17.9-6-22.6c-4-4.7-10.5-7.1-19.5-7.1c-4.2,0-8.6,1.2-13.3,3.5
		c-4.7,2.3-8.4,5.2-11.1,8.7v87.5h-28.3V479.1h20.4l5.2,11.3c7.7-8.9,19.1-13.4,34.1-13.4c14.4,0,25.8,4.3,34.2,13
		c8.4,8.6,12.5,20.7,12.5,36.2v74.4L305.1,600.6L305.1,600.6z"/>
	<path fill="#231F20" d="M516.9,603c18.5,0,33.1-5.4,43.9-16.1c10.7-10.7,16-26,16-45.9c0-42.6-19.3-64-58.1-64
		c-10.4,0-19.1,3.4-26.2,10.2V479h-28.4v169h28.4v-50.4C499.8,601.2,507.9,603,516.9,603 M510.6,501.3c13,0,22.4,2.9,28,8.8
		c5.6,5.8,8.5,15.9,8.5,30.3c0,13.4-2.8,23.2-8.5,29.5c-5.7,6.2-15.1,9.3-28.1,9.3c-6.9,0-12.9-2.1-18-6.2v-63.7
		C497.7,503.9,503.8,501.3,510.6,501.3"/>
	<path fill="#231F20" d="M787.6,505.7c-5-3.2-10.6-4.8-16.6-4.8c-6.5,0-12.3,3-17.4,8.9c-5.1,5.9-7.6,13.2-7.6,21.8v68.9h-28.4
		V479.1H746v11.6c7.9-9.1,18.4-13.7,31.5-13.7c9.6,0,17,1.5,22.1,4.4L787.6,505.7z"/>
</g>
</svg>
