<?xml version="1.0" encoding="utf-8"?>
<!-- Generator: Adobe Illustrator 21.1.0, SVG Export Plug-In . SVG Version: 6.00 Build 0)  -->
<svg version="1.1" id="Layer_1" xmlns="http://www.w3.org/2000/svg" xmlns:xlink="http://www.w3.org/1999/xlink" x="0px" y="0px"
	 viewBox="0 0 769.8 367.8" style="enable-background:new 0 0 769.8 367.8;" xml:space="preserve">
<style type="text/css">
	.st0{fill:#FFFFFF;}
</style>
<title>WGBH_impact-report_digital_logo-farm_v1</title>
<path class="st0" d="M325.4,192.5c0,73.4-59.5,133-133,133c-73.4,0-133-59.6-133-133s59.6-133,133-133
	C265.8,59.5,325.4,119.1,325.4,192.5"/>
<path d="M6.9,183.9C6.9,88,84.7,10.2,180.6,10.2S354.2,88,354.2,183.9s-77.8,173.6-173.7,173.6S6.9,279.8,6.9,183.9 M284.5,188h19.3
	l-43.3-98.8H232l43.5,98.8h-19.8v26.2c0.1,15.9-6.6,22.7-28.2,22.4v50.6h28.2v-50.6h9.3c8.2,0.2,19.4-6.5,19.5-19.5V188z
	 M148.3,89.2c-43.4,0-79.2,30.3-79.2,75.3c0,37.9,22.8,64.9,56.8,70v52.6h70.7v-50.6h9.8c11.5-1.1,19.2-8.7,19.4-19.4v-29.2h19.3
	l-43.8-98.8h-53V89.2z M186.5,175.7c10.6,0,19.2-8.6,19.2-19.2c0-10.6-8.6-19.2-19.2-19.2s-19.2,8.6-19.2,19.2
	C167.3,167.2,175.9,175.7,186.5,175.7"/>
<path d="M413.9,146.1h-15.3v-18.9h50.5c27.4,0,43.1,14.1,43.1,36.3c0,22.6-16.4,36.4-42.4,36.4c-2.2,0.1-13.8,0-13.8,0v28.7h17.9v19
	h-55.4v-19h15.4V146.1z M436,181h14.7c12.5,0,19.4-7.8,19.4-17.4c0-10-7.2-17.5-19.4-17.5H436V181z"/>
<path d="M513.8,146.1h-13.9v-18.9h48.4c30,0,39.5,17.9,39.5,31c0,11.1-5.9,20-14.5,24.2c12.1,5.1,18.9,17.5,18.9,28.4
	c0,26.2-20.6,36.8-40.3,36.8h-53.6v-19h15.5L513.8,146.1L513.8,146.1z M535.9,228.7h14c11.6,0,19.5-6.4,19.5-17.2
	c0-9.1-6.1-17.1-19.5-17.1h-14V228.7z M535.9,175.4h13.2c9.9,0,16.6-5.9,16.6-14.7c0-8.7-6.6-14.7-16.6-14.7h-13.2V175.4z"/>
<path d="M664.3,146.1c-3.9-1.6-9.1-2.9-14.3-2.9c-14.8,0-19.5,8.5-19.5,15.2c0,8.7,5.6,11.3,12.6,13.2l12.8,3.6
	c15.7,4.5,33,10.2,33,35.1c0,22.7-13.7,39.3-44,39.3c-11.7,0-23.9-1.4-38.2-6.7v-31.7h22.2v15.7c5.6,2.6,11.7,3.1,18,3.1
	c13.1,0,18.9-7,18.9-16.1c0-6.2-3.1-10.6-17.4-14.7l-11.7-3.4c-21.9-6.3-29.4-15.9-29.4-34.4c0-19,11.9-35.8,42-35.8
	c13,0,25.9,2.4,35,6.3v28.6h-20.1v-14.4H664.3z"/>
<path d="M738,198.5c13.4,0,24.8,10.4,24.8,24.5c0,14.3-11.5,24.7-24.8,24.7c-13.5,0-25-10.4-25-24.7
	C713,208.9,724.5,198.5,738,198.5 M738,202.5c-11.4,0-20.2,8.8-20.2,20.6c0,12,8.8,20.7,20.2,20.7c11.3,0,20.1-8.7,20.1-20.7
	C758.1,211.3,749.3,202.5,738,202.5 M732.8,237.3h-4.4v-28.4h10.9c6.8,0,10.1,2.5,10.1,8.1c0,5.1-3.2,7.3-7.4,7.8l8.1,12.5h-4.8
	l-7.6-12.3h-4.9L732.8,237.3L732.8,237.3z M732.8,221.4h5.2c5.3,0,7-1.5,7-4.6c0-2.7-1.4-4.2-6.3-4.2h-5.9V221.4z"/>
</svg>
