<?xml version="1.0" encoding="utf-8"?>
<!-- Generator: Adobe Illustrator 21.1.0, SVG Export Plug-In . SVG Version: 6.00 Build 0)  -->
<svg version="1.1" id="Layer_1" xmlns="http://www.w3.org/2000/svg" xmlns:xlink="http://www.w3.org/1999/xlink" x="0px" y="0px"
	 viewBox="0 0 564 207.6" style="enable-background:new 0 0 564 207.6;" xml:space="preserve">
<title>WGBH_KO</title>
<path d="M403.9,90.7v27.5c-3.5-11-11.5-12.9-16.9-14.8C392.2,102.5,400.8,98,403.9,90.7z M339.8,115.2v17.3c0,0,9.2,0.2,14.4,0.2
	s9.4-3.1,9.4-8.5s-3.5-9-9.4-9L339.8,115.2z M339.8,74.2v17.1c0,0,8.5,0.2,13.7,0.2s9.4-3.1,9.4-8.5s-3.5-8.7-9.4-8.7L339.8,74.2z
	 M261.3,83.4h38.1v11.2h-51.8v20.2h13.1V126c0,5.8-3.3,9.8-12.7,9.8s-12.7-7.1-12.7-10.4l0.2-42.5c0-4.2,3.1-10.8,12.9-10.8
	S261.3,77.4,261.3,83.4L261.3,83.4z M93.5,5.5h38.2l4,18.8l19.6-19.1h35l4.6,19.4l19.4-19.4h36.2l-4,16.2
	c15.2-12.7,27.3-20.2,52.7-20.2s37,7.7,47,18.1l14.4-13.9h56.8c16.4,0,21.4,11.7,21.4,20.4l21-20.4H499V25l19.6-19.4h38.3v105.2
	l-92.7,91.1H421v-19.7l-20.4,19.7h-42.9v-18c-12.1,16.4-22.9,18.1-37,18.1H255v-12.4c-5.6,4.4-27.5,15.4-57,15.4
	s-45.8-9.2-53.7-21.4l-19.7,18.5H89l-4.9-18.5L64.9,202H28.3L6.5,91.3L93.5,5.5L93.5,5.5z M48.1,51.8l20.4,102.6h42.3l11.4-39.3
	l11.8,39.3h41.6l8.4-41.2c7.3,43.5,51.2,45.2,63.9,45.2s33.3-3.1,51.2-13.7v9.8h73.1c20.8,0,27.1-6.6,31.6-16.2v16.2h43.9v-36.1
	h20.8v36.2h42.9V51.9h-42.9v36.7H448V51.9h-44.1v19c-4.2-12.3-12.3-19-33.3-19h-71.2V67c-6-7.1-21-18.3-53.3-18.3
	s-43.7,7.9-55.6,24.6l3.9-21.3h-34.6l-9.3,37.3l-8.7-37.2h-37.5L94.7,90l-8.5-38.1L48.1,51.8z"/>
</svg>
