<?xml version="1.0" encoding="utf-8"?>
<!-- Generator: Adobe Illustrator 21.1.0, SVG Export Plug-In . SVG Version: 6.00 Build 0)  -->
<svg version="1.1" id="Layer_1" xmlns="http://www.w3.org/2000/svg" xmlns:xlink="http://www.w3.org/1999/xlink" x="0px" y="0px"
	 viewBox="0 0 850.8 163.8" style="enable-background:new 0 0 850.8 163.8;" xml:space="preserve">
<title>WGBH_impact-report_digital_logo-farm_v1</title>
<g>
	<g>
		<g>
			<path d="M75.5,6.8h29.4l3.1,14.5l15.1-14.8H150l3.5,14.9l14.9-14.9h27.9l-3,12.5c11.7-9.8,21-15.5,40.5-15.5
				c19.6,0,28.5,5.9,36.2,14l11-10.8h43.9c12.7,0,16.5,9,16.5,15.7l16.2-15.7h30.2v15.1l15.1-15h29.5v81L360.9,158h-33.3l-0.1-15.2
				L311.9,158h-33v-13.9c-9.3,12.7-17.7,13.9-28.5,13.9h-50.5v-9.6c-4.3,3.4-21.1,11.9-43.9,11.9s-35.3-7.1-41.4-16.5L99.4,158H71.9
				l-3.8-14.2l-14.8,14.4H25.1L8.4,72.9L75.5,6.8z M40.5,42.5l15.8,79h32.6l8.7-30.3l9.1,30.3h32.1l6.4-31.7
				c5.6,33.5,39.4,34.8,49.2,34.8c9.8,0,25.6-2.4,39.4-10.6v7.5h56.3c16,0,20.9-5.1,24.4-12.5v12.5h33.8V93.6h16v27.9h33V42.6h-33
				v28.3h-15.9V42.6h-34v14.6c-3.2-9.5-9.5-14.6-25.7-14.6h-54.9v11.6c-4.7-5.4-16.2-14.1-41.1-14.1c-24.8,0-33.7,6.1-42.8,18.9
				l3-16.4h-26.6l-7.1,28.8l-6.7-28.7H83.6l-7.4,29.2l-6.6-29.3L40.5,42.5L40.5,42.5L40.5,42.5z"/>
			<path d="M204.8,66.8h29.3v8.6h-39.9V91h10.1v8.6c0,4.5-2.6,7.5-9.8,7.5c-7.2,0-9.8-5.4-9.8-8s0.2-29.5,0.2-32.7
				c0-3.2,2.4-8.4,9.9-8.4C202.3,58.2,204.8,62.2,204.8,66.8"/>
			<path d="M265.2,59.7v13.2c0,0,6.6,0.2,10.6,0.2s7.2-2.4,7.2-6.6s-2.7-6.7-7.2-6.7h-10.6V59.7z"/>
			<path d="M265.2,91.4v13.3c0,0,7.1,0.2,11,0.2c4,0,7.2-2.4,7.2-6.6s-2.7-6.9-7.2-6.9H265.2z"/>
			<path d="M314.6,72.4v21.1c-2.7-8.5-8.8-9.9-13-11.4C305.6,81.6,312.2,78,314.6,72.4"/>
		</g>
	</g>
	<g>
		<path d="M534.8,120.8H525l-8.3-29.2l-8.2,29.2h-9.8l-13.1-43.2l10.9-1.5l7.9,29.3l8-28.7h9.6l7.9,28.7l7.6-28.7h10.3L534.8,120.8z
			"/>
		<path d="M593.7,76.2l1.5,8.7l-8,0.6c0.8,1.7,1.2,3.8,1.2,5.7c0,9.5-8.1,15.1-17.6,15.1c-1.3,0-2.5-0.1-3.5-0.3
			c-1.1,0.8-1.8,1.6-1.8,2.4c0,1.5,1.3,1.8,8.2,2.8l5.7,0.6c9,1.3,14.6,4.1,14.6,10.8c0,9.5-10.4,14.8-23.1,14.8
			c-11.9,0-20.9-3.6-20.9-10.9c0-4.1,2.8-7.3,8.3-10.4c-1.7-1.3-2.5-3-2.5-4.7c0-2.5,1.9-4.8,5.6-7c-5.2-2.5-8.3-7-8.3-12.8
			c0-9.5,7.9-15.6,17.7-15.6c5,0,9.3,1.5,12.5,4.1L593.7,76.2z M559.3,125.3c0,3.3,3.9,5.7,12.2,5.7c7.9,0,12.3-2.6,12.3-5.9
			c0-2.4-1.9-3.8-7.3-4.5l-5.9-0.7c-3-0.4-4.4-0.6-6.6-1.1C560.8,120.9,559.3,123,559.3,125.3z M570.6,82.9c-4.8,0-7.6,3.8-7.6,8.6
			c0,4.5,2.9,8,7.6,8c4.8,0,7.7-3.5,7.7-8.3C578.4,86.5,575.2,82.9,570.6,82.9z"/>
		<path d="M619.8,121.3c-6.8,0-12.6-1.1-18.1-2.9V56.8l10.9-1.7v26.7c2.8-2.9,6.9-5.8,12.5-5.8c9.3,0,16.6,6.9,16.6,21.6
			C641.7,113.8,632.9,121.3,619.8,121.3z M622.3,85.5c-3.6,0-6.9,2.5-9.6,5.7v20c2.3,0.8,3.8,1.2,6.9,1.2c6.9,0,11.1-4.2,11.1-14.2
			C630.7,89.7,627.3,85.5,622.3,85.5z"/>
		<path d="M677.3,120.8V92c0-3.8-1.6-6.4-5.7-6.4c-3.5,0-6.8,2.2-10,5.6v29.7h-10.9v-64l10.9-1.7v27.3c3.6-3.4,8.2-6.4,14-6.4
			c8.2,0,12.6,5,12.6,13.2V121L677.3,120.8L677.3,120.8z"/>
		<path d="M698.7,120.8v-13.3h11.9v13.3H698.7z"/>
		<path d="M738.8,121.7c-11.9,0-20.6-8.6-20.6-22.9s8.7-22.9,20.7-22.9s20.8,8.6,20.8,22.9C759.6,113.1,750.8,121.7,738.8,121.7z
			 M738.8,84.9c-6.4,0-9.9,5.7-9.9,13.9c0,8,3.5,13.9,9.9,13.9c6.7,0,10.2-5.7,10.2-13.9C749,90.8,745.3,84.9,738.8,84.9z"/>
		<path d="M779.4,95.6v25.2h-10.9v-44h9.3l1.3,8.8c2.9-5.1,7.3-9.4,14.1-9.8l1.7,10.8C788.2,87.2,782.5,90.8,779.4,95.6z"/>
		<path d="M841.2,76.2l1.5,8.7l-8,0.6c0.8,1.7,1.2,3.8,1.2,5.7c0,9.5-8.1,15.1-17.6,15.1c-1.3,0-2.5-0.1-3.5-0.3
			c-1.1,0.8-1.8,1.6-1.8,2.4c0,1.5,1.3,1.8,8.2,2.8l5.7,0.6c9,1.3,14.6,4.1,14.6,10.8c0,9.5-10.4,14.8-23.1,14.8
			c-11.9,0-20.9-3.6-20.9-10.9c0-4.1,2.8-7.3,8.3-10.4c-1.7-1.3-2.5-3-2.5-4.7c0-2.5,1.9-4.8,5.6-7c-5.2-2.5-8.3-7-8.3-12.8
			c0-9.5,7.9-15.6,17.7-15.6c5,0,9.3,1.5,12.5,4.1L841.2,76.2z M806.8,125.3c0,3.3,3.9,5.7,12.2,5.7c7.9,0,12.3-2.6,12.3-5.9
			c0-2.4-1.9-3.8-7.3-4.5l-5.9-0.7c-3-0.4-4.4-0.6-6.6-1.1C808.3,120.9,806.8,123,806.8,125.3z M818.1,82.9c-4.8,0-7.6,3.8-7.6,8.6
			c0,4.5,2.9,8,7.6,8c4.8,0,7.7-3.5,7.7-8.3C825.8,86.5,822.7,82.9,818.1,82.9z"/>
	</g>
</g>
</svg>
