<?xml version="1.0" encoding="utf-8"?>
<!-- Generator: Adobe Illustrator 21.1.0, SVG Export Plug-In . SVG Version: 6.00 Build 0)  -->
<svg version="1.1" id="jonsig_x5F_AR_xA0_Image_1_" xmlns="http://www.w3.org/2000/svg" xmlns:xlink="http://www.w3.org/1999/xlink"
	 x="0px" y="0px" viewBox="0 0 129.3 75.8" style="enable-background:new 0 0 129.3 75.8;" xml:space="preserve">
<g>
	<path d="M52.8,43.8c-0.3,0.1-0.3,0.4-0.5,0.5c-0.1,0-0.1,0.2-0.1,0.2c-0.4,0.2-0.5,0.6-0.7,0.9c-0.2,0.3-0.5,0.6-0.6,0.9
		c-0.3,0.7-0.7,1.2-1,1.9c-0.2,0.4-0.2,0.8-0.5,1.2c0,0,0,0,0,0c-0.3,0.6-0.5,0.7-1.1,0.3c-0.1-0.1-0.2-0.1-0.3-0.2
		c-0.3-0.1-0.4-0.3-0.3-0.6c0.1-0.5,0.3-0.9,0.6-1.3c0.5-0.6,0.7-1.3,1-2.1c0.3-0.7,0.3-1.4,0.4-2.2c0.1-0.4,0-0.8-0.1-1.2
		c0-0.2-0.3-0.4-0.4-0.5c-0.3-0.2-0.6-0.4-0.9-0.4c-0.5-0.1-1.1-0.1-1.6,0.1c-0.5,0.2-1.1,0.3-1.5,0.9c-0.1,0.3-0.3,0.5-0.6,0.6
		c-0.2,0.2-0.3,0.4-0.2,0.7c0.3,0.6,0.2,1.2,0.2,1.8c0,0.1,0,0.2-0.1,0.3c-0.2,0.2-0.2,0.5-0.2,0.8c0,0.3,0,0.5-0.2,0.7
		c-0.2,0.2-0.2,0.4-0.3,0.6c-0.2,0.7-0.6,1.2-1.2,1.5c-0.1,0.1-0.2,0.2-0.3,0.3c-0.1,0.1-0.2,0.3-0.4,0.1c-0.1-0.1-0.2,0.1-0.3,0.2
		c-0.3,0.3-0.9,0.3-1.2,0c-0.1-0.1-0.1-0.1-0.2-0.2c-0.4-0.1-0.4-0.4-0.4-0.6c0.1-0.4,0.1-0.8,0.1-1.2c0-0.3,0.1-0.5,0.3-0.7
		c0.2-0.2,0.3-0.4,0.3-0.7c0-0.4,0.3-0.7,0.5-1c0.4-0.4,0.6-0.8,0.8-1.3c0.2-0.3,0.4-0.6,0.6-0.9c0.3-0.4,0.5-0.7,0.6-1.2
		c0-0.1,0.1-0.3,0.2-0.3c0.3-0.2,0.4-0.4,0.6-0.7c0.2-0.3,0.5-0.6,0.9-0.7c0.7-0.2,1.3-0.4,2-0.4c0,0,0,0,0,0c0.3-0.3,0.7-0.1,1-0.1
		c0.5,0,1,0.1,1.4,0.3c0.6,0.4,1.2,0.9,1.4,1.6c0.1,0.5,0.2,0.9,0.3,1.4c0.3-0.1,0.5-0.3,0.6-0.6c0.1-0.1,0.1-0.2,0.2-0.2
		c0.4-0.3,0.8-0.5,1.1-0.8c0.1-0.1,0.3-0.2,0.5-0.3c0.1-0.1,0.5,0.1,0.6,0.3c0.2,0.4,0.5,0.7,0.5,1.1c0,0,0,0.1,0,0.1
		c-0.2,0.3-0.1,0.7,0,1c0,0.3-0.1,0.7-0.1,1C54,45.5,54,46,53.9,46.5c-0.1,0.5-0.2,1-0.4,1.4c-0.1,0.2,0.1,0.4,0.3,0.3
		c0.1,0,0.1-0.1,0.2-0.1c0.4-0.2,0.8-0.4,1.3-0.2c0.1,0,0.2,0,0.2,0c0.2,0,0.2-0.1,0.2-0.2c-0.2-0.4,0-0.8,0-1.2c0-0.1,0-0.2,0-0.3
		c-0.2-0.4,0-0.6,0.2-0.9c0.2-0.3,0.7-0.3,0.9-0.1c0.3,0.4,0.6,0.8,0.3,1.3c0,0.1,0,0.2-0.1,0.3c0.1,0.1,0.2,0,0.2-0.1
		c0-0.1,0.1-0.2,0.2-0.2c0.4-0.2,0.4-0.2,0.2-0.5c-0.3-0.4-0.1-0.8-0.1-1.3c0-0.2,0.3-0.3,0.6-0.3c0.3,0.1,0.4,0.2,0.6,0.5
		c0.3,0.4,0.7,0.5,1.1,0.7c0.2,0.1,0.4,0.1,0.7-0.1c0.4-0.2,0.8-0.2,1.3-0.1c0.1,0,0.2,0.3,0.3-0.1c0-0.1,0.2-0.1,0.2-0.1
		c0.3,0,0.6-0.1,1-0.1c0.4-0.1,0.8,0.1,1.1,0.3c0.5,0.3,0.9,0.7,1.3,1.1c0.1,0.1,0.2,0.3,0.4,0.4c0.2,0.2,0.4,0.3,0.4,0.7
		c0,0.1,0,0.2,0.1,0.2c0.5,0.1,0.6,0.6,0.9,0.8c0.1,0.1,0.2,0.2,0.4,0.2c0.1-0.1,0.2-0.2,0.2-0.3c0-0.2,0.1-0.4,0.2-0.7
		c0.1-0.2,0.1-0.6,0.1-0.8c0-0.5,0-1,0-1.5c-0.2-0.1-0.3,0-0.4,0c-0.2,0.2-0.5,0.1-0.8,0.2c-0.2,0-0.5,0.1-0.6-0.3
		c0,0,0-0.1-0.1-0.1c-0.2,0-0.3-0.1-0.2-0.3c0.1-0.2,0.2-0.4,0.5-0.4c0.1,0,0.1,0.1,0.2,0c0.2-0.4,0.7-0.6,1.1-0.6
		c0.2,0,0.3-0.1,0.2-0.3c-0.1-0.2,0-0.4,0-0.7c0.1-0.8,0-1.7-0.1-2.5c0-0.2,0-0.5,0-0.7c0-0.6,0.1-1.2-0.1-1.9
		c-0.1-0.2,0.1-0.4,0.1-0.7c0-0.3,0-0.7,0-1c0-0.5,0-1.1,0.2-1.6c0-0.1,0-0.1,0-0.2c-0.2-0.8-0.1-1.7,0-2.5c0-0.2,0-0.3,0-0.5
		c0-0.6,0.1-1.2,0.2-1.7c0.1-0.7,0.1-1.4,0.2-2.1c0.2-0.8,0.1-1.6,0.5-2.3c-0.1-0.3,0.1-0.5,0.1-0.8c0.1-0.5,0.3-1,0.5-1.5
		c0.1-0.2,0.1-0.4,0.2-0.6c0.3-0.6,0.5-1.3,1-1.8c0.2-0.2,0.3-0.5,0.4-0.7c0.3-0.5,0.6-1,1-1.5c0.3-0.4,0.7-0.7,1.1-1.1
		c0.4-0.3,1.1-0.4,1.4-0.1c0.3,0.3,0.5,0.6,0.5,1c0,0.3,0,0.6,0,0.9c0,0.2,0,0.4-0.3,0.4c-0.1,0-0.2,0.1-0.1,0.2
		c0.1,0.2,0,0.5-0.1,0.7c-0.3,0.3-0.2,0.8-0.5,1.1c0,0.1-0.1,0.1-0.1,0.2c0,0.3-0.2,0.5-0.5,0.5c-0.1,0-0.2,0.1-0.3,0.2
		c-0.1-0.2,0-0.4,0.2-0.5c0.2-0.1,0.3-0.2,0.3-0.5c0-0.2,0-0.4,0.2-0.5c0.2-0.3,0.3-0.7,0.5-1.1c0.1-0.3,0.1-0.4-0.2-0.5
		c-0.1-0.1-0.1-0.2,0-0.2c0-0.1,0.2-0.2,0-0.3c-0.2-0.1-0.3,0-0.4,0.1c-0.5,0.5-1,1.1-1.4,1.7c-0.3,0.5-0.4,1-0.9,1.3
		c0,0,0,0.1,0,0.1c0,0.6-0.4,1.1-0.7,1.7c-0.3,0.8-0.5,1.6-0.6,2.4c-0.1,0.3-0.1,0.6-0.2,0.8c-0.2,0.5-0.2,1.1-0.3,1.6
		c-0.1,0.7-0.2,1.3-0.3,2c0,0.3,0,0.5,0,0.8c0,0.4,0,0.7-0.1,1.1c-0.1,0.5-0.1,1,0,1.5c0.1,0.8-0.1,1.6-0.1,2.4c0,0.9,0,1.7,0,2.6
		c0,0.7,0,1.5,0.2,2.3c-0.2,0.6,0.2,1.1,0,1.7c-0.1,0.2,0.1,0.5,0,0.8c0,0.1,0.1,0.1,0.3,0.1c0.7-0.2,1.5-0.3,2.3-0.4
		c0.3,0,0.6-0.1,0.9-0.1c0.2,0,0.8-0.5,0.8-0.8c0-0.1,0-0.1,0.1-0.2c0.2-0.5,0.5-1.1,0.7-1.6c0.2-0.4,0.4-0.9,0.5-1.4
		c0.1-0.4,0.3-0.8,0.5-1.3c0.1-0.1,0.1-0.2,0.2-0.3c0.1-0.5,0.4-0.9,0.5-1.3c0.1-0.5,0.4-0.9,0.5-1.3c0.2-0.6,0.5-1.2,0.7-1.8
		c0.2-0.5,0.5-0.9,0.6-1.4c0.1-0.2,0.2-0.5,0.2-0.7c0-0.1,0-0.1,0-0.1c0.5-0.4,0.5-1.1,0.6-1.6c0.1-0.4,0.3-0.8,0.4-1.2
		c0-0.2,0.3-0.4,0.1-0.7c0.3-0.6,0.2-1.2,0.5-1.8c0.2-0.4,0.3-0.7,0.4-1.1c0.1-0.5,0.4-1,0.6-1.4c0-0.1,0.1-0.1,0.1-0.2
		c0-0.6,0.3-1,0.4-1.6c0.1-0.2,0.3-0.4,0.3-0.6c0-0.3,0.2-0.6,0.2-1c0-0.1,0-0.2,0-0.2c0.6-0.5,0.4-1.3,0.7-2
		c0.1-0.2,0.1-0.3,0.3-0.4c0.1,0,0.1-0.1,0.2-0.2c0-0.3,0.2-0.3,0.4-0.2c0.3,0.1,0.5,0.3,0.6,0.6c0.2,0.4,0.2,0.8,0.1,1.2
		c0,0.2-0.1,0.4-0.2,0.5c-0.2,0.2-0.2,0.4-0.2,0.6c0,0.5-0.2,0.9-0.4,1.2c-0.3,0.5-0.4,0.9-0.6,1.4c-0.1,0.3-0.2,0.6-0.4,0.9
		c-0.2,0.2-0.2,0.5-0.2,0.8c-0.1,0.5-0.2,0.9-0.4,1.3c-0.1,0.2-0.1,0.4-0.1,0.6c-0.1,0.4-0.1,0.8-0.4,1.2c-0.1,0.1,0,0.2,0,0.3
		c-0.1,0.8-0.3,1.6-0.5,2.4c-0.1,0.4-0.1,0.9-0.4,1.3c0,0,0,0.1,0,0.2c0,0.5-0.1,0.9-0.3,1.4c-0.1,0.3-0.2,0.6-0.1,0.9
		c0,0,0,0.1,0,0.1c-0.2,0.8-0.2,1.7-0.6,2.5c-0.1,0.1-0.1,0.3-0.1,0.5c0,0.7-0.2,1.4-0.4,2c-0.2,0.8-0.2,1.5-0.5,2.3
		c-0.1,0.1,0,0.2,0.1,0.2c0.3,0.1,0.6,0.1,0.8,0.4c0.2,0.2,0.1,0.4-0.1,0.5c-0.6,0.1-0.8,0.5-1.1,0.8c-0.1,0.1-0.1,0.3-0.1,0.5
		c0,0.6-0.2,1.1-0.2,1.6c0,0.4,0.1,0.8-0.1,1.2c-0.2,0.4,0,0.7-0.1,1.1c0,0.4,0,0.8,0.1,1.1c0.1,0.2,0,0.4,0,0.7
		c0,0.5,0.1,1,0.1,1.5c0.2,0.2,0.2,0.5,0.4,0.8c0.2,0.4,0.1,0.7-0.3,0.9c-0.1,0.1-0.2,0.1-0.3,0c-0.1,0-0.1-0.1-0.2-0.1
		c-0.7-0.3-0.8-0.3-0.9-0.9c-0.1-0.4-0.2-0.8-0.3-1.2c-0.1-0.6,0-1.2,0-1.8c0-0.6,0.1-1.2,0-1.9c0-0.2,0.1-0.4,0.1-0.6
		c0.1-0.4,0.1-0.9,0.2-1.4c0.1-0.2,0.1-0.5,0.1-0.7c0-0.2-0.1-0.3-0.3-0.2c-0.2,0.1-0.4,0.2-0.7,0.3c-0.4,0.1-0.7,0.2-1.1,0.3
		c-0.2,0-0.4,0.1-0.4,0.3c-0.3,0.8-0.8,1.6-1.1,2.4c-0.1,0.3-0.3,0.6-0.4,0.9c-0.2,0.5-0.5,1-0.7,1.5c-0.1,0.3-0.3,0.6-0.5,0.8
		c-0.2,0.4-0.4,0.8-0.5,1.1c0,0.1,0,0.2-0.1,0.2c-0.5,0.8-0.9,1.7-1.4,2.6c-0.1,0.2-0.3,0.4-0.4,0.7c-0.4,0.6-0.8,1.3-1.3,1.9
		c-0.3,0.4-1.1,0.4-1.4,0c0,0,0-0.1,0-0.1c0.1-0.5,0.2-1.1,0.6-1.5c0.1-0.1,0.3-0.1,0.4-0.2c0.1,0,0.2-0.1,0.1-0.3c0,0,0-0.1,0-0.1
		c0.3-0.2,0.3-0.5,0.4-0.8c0.3-0.4,0.5-0.9,0.7-1.3c0.1-0.4,0.4-0.7,0.6-1.1c0.3-0.6,0.7-1.2,1-1.8c0.1-0.2,0.3-0.2,0.4-0.4
		c0,0,0.1-0.1,0.1-0.1c-0.2-0.6,0.3-0.9,0.4-1.5c0-0.1,0.3-0.1,0.3-0.4c0.2-0.7,0.4-1.3,0.8-1.9c0.1-0.1,0.1-0.2,0.1-0.3
		c0.1-0.4,0.1-0.6-0.4-0.5c-0.7,0.1-1.3,0.2-2,0.3c-0.2,0-0.3,0.1-0.5,0.2c-0.1,0-0.1,0.1-0.1,0.2c0.1,0.2-0.1,0.4-0.1,0.6
		c0,0.8-0.1,1.7-0.2,2.5c0,0.1-0.1,0.3-0.2,0.4c0,0.1-0.1,0.1-0.1,0.2c0,0.4-0.4,0.7-0.5,1.1c0,0.1-0.2,0.2-0.3,0.3
		c-0.5,0.3-1,0.3-1.3-0.1c-0.3-0.3-0.7-0.7-1-1.1c-0.3-0.4-0.7-0.8-1-1.1c-0.2-0.2-0.2-0.6-0.5-0.8c-0.2-0.2-0.5-0.3-0.7-0.6
		c0-0.1-0.1-0.1-0.1-0.2c-0.2-0.3-0.4-0.4-0.8-0.3c-0.5,0.1-1,0.2-1.5,0.2c-0.4,0-0.7,0.1-1.1,0.2c-0.4,0.1-0.8,0.1-1.2,0
		c-0.2,0-0.4,0.1-0.6,0c-0.1,0-0.1,0.1-0.2,0.2c-0.2,0.4-0.4,0.6-0.7,0.9c-0.3,0.2-0.4,0.5-0.6,0.7c-0.3,0.3-0.6,0.4-1,0.2
		c-0.4-0.2-0.6-0.2-0.9,0.1C55.3,48.9,55.2,49,55,49c-0.2,0-0.4,0.2-0.6,0.3c-0.2,0.1-0.3,0.3-0.6,0.1c-0.2-0.1-0.2,0.3-0.5,0.3
		c-0.2,0-0.4,0.1-0.6,0c-0.2-0.1-0.4-0.2-0.6-0.2c-0.2-0.1-0.3-0.2-0.3-0.4c0.1-0.4-0.1-0.8,0.2-1.2c0.1-0.1,0-0.2,0-0.3
		c0.1-0.8,0.3-1.6,0.5-2.5C52.7,44.7,52.7,44.3,52.8,43.8z M78.6,35.4c0,0-0.1,0-0.1,0c0,0.4-0.2,0.6-0.4,0.9
		c-0.2,0.4-0.2,0.7-0.4,1.1c-0.3,0.6-0.5,1.2-0.7,1.7c-0.2,0.5-0.5,1.1-0.7,1.6c-0.1,0.4-0.2,0.8-0.5,1.1c-0.2,0.2-0.3,0.5-0.3,0.8
		c0.2,0,0.3,0,0.4,0c0.3-0.2,0.7-0.3,1-0.4c0.3-0.1,0.5-0.3,0.6-0.7c0.1-0.4,0.1-0.8,0.2-1.2c0.2-0.6,0.2-1.2,0.4-1.8
		c0.1-0.3,0-0.6,0.1-0.9c0-0.4,0.3-0.8,0.3-1.3C78.6,36.1,78.8,35.7,78.6,35.4c0.3,0,0.2-0.3,0.2-0.4C78.6,35,78.6,35.2,78.6,35.4z
		 M43.6,44.3c-0.5,0.7-1,1.3-1.3,2.1c-0.3,0.8-0.9,1.4-0.9,2.3c0.3,0.1,0.6,0,0.7-0.3c0.1-0.2,0.3-0.3,0.5-0.4
		c0.4-0.1,0.6-0.3,0.7-0.6c0.1-0.2,0.2-0.4,0.3-0.5c0.1-0.2,0.2-0.4,0.2-0.6c0-0.5-0.1-1,0-1.5C43.9,44.6,43.8,44.4,43.6,44.3z"/>
	<path d="M8.6,38.7c0.3,0.1,0.3,0.5,0.5,0.7c0.2,0.3,0.1,0.6,0,0.7c-0.2,0.2-0.2,0.5-0.4,0.8c-0.2,0.2-0.5,0.4-0.7,0.6
		c-0.2,0.2-0.5,0.4-0.8,0.6c-0.4,0.2-0.8,0.3-1.2,0.2c-0.4-0.1-0.8-0.1-1.1-0.4c-0.6-0.5-0.9-1.2-1.1-1.8c-0.1-0.3-0.2-0.6-0.1-1
		c0-0.2-0.1-0.5-0.1-0.7c0.1-0.9,0.3-1.8,0.7-2.7c0.1-0.2,0.2-0.4,0.2-0.7c0,0,0-0.1,0-0.1c0.1-0.3,0.4-0.3,0.4-0.6
		c0-0.3,0.1-0.5,0.2-0.7c0.2-0.6,0.5-1.1,0.7-1.7c0.2-0.6,0.5-1.2,0.8-1.8c0.1-0.2,0.3-0.3,0.4-0.6c0.1-0.2,0.2-0.3,0.2-0.5
		c0-0.1,0-0.2,0.1-0.2c0.3-0.3,0.4-0.8,0.6-1.2C8,27,8.3,26.5,8.6,26.2c0.4-0.4,0.5-1,1-1.4c0.1-0.4,0.5-0.7,0.6-1.1
		c0-0.2,0.2-0.4,0.3-0.5c0.5-0.5,0.8-1.2,1.3-1.8c0.4-0.5,0.7-1.1,1.1-1.6c0.3-0.4,0.7-0.7,0.8-1.2c0,0,0.1-0.1,0.1-0.1
		c0.4-0.1,0.4-0.5,0.7-0.8c0.2-0.2,0.3-0.6,0.5-0.7c0.4-0.2,0.5-0.5,0.8-0.8c0.3-0.4,0.7-0.8,1.2-1.2c0.2-0.2,0.4-0.4,0.5-0.6
		c0.4-0.6,1-1,1.5-1.5c0.6-0.5,1.1-1.1,1.6-1.7c0.1-0.1,0.2-0.2,0.3-0.2c0.3-0.1,0.6-0.4,0.8-0.7c0.3-0.3,0.7-0.6,1-0.9
		c0.3-0.3,0.6-0.5,1-0.6c0,0,0.1,0,0.1-0.1c0.3-0.6,0.8-1,1.4-1.4c0.2-0.1,0.2-0.2,0.3-0.3C26,6.9,26.4,6.5,27,6.3
		c0,0,0.1,0,0.1-0.1c0.8-0.7,1.7-1.2,2.6-1.7c0.3-0.2,0.6-0.3,1-0.5c0.6-0.3,1.2-0.6,1.8-0.9c0.3-0.2,0.7-0.2,1-0.4
		c0.3-0.1,0.5-0.1,0.8-0.2c0.6-0.2,1.2-0.1,1.8,0c0.1,0,0.3,0.1,0.4,0.1c0.3,0,0.6-0.1,0.8,0.2c0.1,0.1,0.2,0.1,0.3,0.1
		c0.6,0,1.2,0.3,1.7,0.7c0.7,0.6,1.4,1.4,2,2.1c0.6,0.7,0.9,1.5,1.1,2.3c0,0.1,0,0.2,0.1,0.3c0.4,0.6,0.2,1.2,0.3,1.9
		c0,0.2,0,0.4,0.1,0.7c0.1,0.3,0.1,0.6,0.1,0.9c0,0.2,0,0.4,0,0.6c0,0.2,0.1,0.4,0,0.6c-0.1,0.8,0,1.6,0,2.4c0,0.5,0,1-0.1,1.5
		c-0.1,0.3,0.1,0.6,0,0.9c0,0.7-0.1,1.3-0.1,2c0,0.2-0.1,0.5-0.1,0.7c-0.1,0.8-0.2,1.6-0.4,2.4c0,0.1,0,0.2,0,0.3
		c0.1,0.1,0.1,0.2,0,0.3c-0.1,0.1-0.1,0.2-0.1,0.2c0.3,0.4-0.1,0.8-0.1,1.2c0,0.2,0,0.3-0.1,0.5c-0.1,0.8-0.2,1.5-0.2,2.3
		c-0.3,0.5-0.2,1.1-0.3,1.6c-0.2,0.6-0.1,1.2-0.3,1.8C41,31.3,41,31.8,41,32.2c-0.1,0.5-0.3,1-0.4,1.5c-0.1,0.6-0.3,1.1-0.4,1.7
		c-0.2,0.8-0.3,1.6-0.6,2.4c-0.1,0.3-0.2,0.7-0.3,1c-0.2,0.6-0.4,1.2-0.6,1.8c-0.2,0.7-0.4,1.3-0.6,2c-0.2,0.7-0.4,1.5-0.7,2.3
		c-0.2,0.5-0.2,1-0.4,1.5c-0.3,0.7-0.5,1.4-0.7,2.1c-0.2,0.4-0.4,0.8-0.5,1.2c-0.2,0.5-0.4,1.1-0.6,1.7c-0.2,0.5-0.3,1.1-0.6,1.5
		c-0.2,0.2-0.2,0.5-0.3,0.8c-0.2,0.9-0.5,1.8-0.8,2.7c-0.2,0.5-0.3,1-0.7,1.4c-0.1,0.2-0.2,0.4-0.2,0.6c-0.1,0.5-0.3,0.9-0.5,1.3
		c-0.2,0.5-0.5,1.1-0.7,1.6c-0.2,0.5-0.4,1-0.6,1.5c-0.3,0.7-0.6,1.4-0.9,2.1c-0.3,0.8-0.6,1.6-1.1,2.4c-0.1,0.1-0.1,0.3-0.1,0.4
		c-0.1,0.3-0.2,0.7-0.4,1c-0.2,0.3-0.3,0.7-0.4,1.1c-0.2,0.4-0.3,0.7-0.4,1.1c-0.1,0.4-0.6,0.6-1,0.5c-0.1,0-0.2-0.1-0.3-0.2
		c-0.5-0.1-0.3-0.1-0.4-0.6c-0.1-0.8,0.5-1.4,0.7-2c0.3-0.7,0.8-1.3,1.1-2.1c0.1-0.2,0.3-0.1,0.4-0.4c0-0.2,0-0.4,0.1-0.6
		c0.2-0.6,0.6-1.1,0.8-1.7c0.3-0.2,0.3-0.7,0.6-1c0.2-0.1,0-0.4,0.2-0.6c0.2-0.3,0.4-0.7,0.5-1.1c0.2-0.6,0.5-1.1,0.7-1.6
		c0.1-0.2,0.2-0.4,0.3-0.6c0.2-0.6,0.3-1.3,0.7-1.9c0-0.1,0-0.2,0.1-0.2c0.4-0.1,0.3-0.5,0.4-0.8c0.1-0.3,0.2-0.6,0.4-0.9
		c0.2-0.4,0.2-0.9,0.4-1.4c0.1-0.2,0.1-0.4,0.2-0.5c0.2-0.3,0.4-0.6,0.4-1c0.3-0.3,0-0.9,0.4-1.2c0,0,0,0,0,0
		c-0.2-0.3,0.1-0.6,0.2-0.8c0.1-0.3,0.2-0.6,0.3-0.9c0.1-0.2,0.2-0.4,0.2-0.7c0.1-0.3,0.2-0.6,0.4-0.9c0-0.1,0.1-0.1,0.1-0.2
		c0-0.6,0.4-1.1,0.6-1.7c0.2-0.6,0.4-1.2,0.5-1.9c0.1-0.3,0.1-0.7,0.3-1c0.3-0.4,0.3-0.9,0.4-1.4c0.1-0.5,0.3-1.1,0.4-1.6
		c0.1-0.4,0.2-0.9,0.4-1.2c0.3-0.7,0.3-1.5,0.8-2.2c0,0,0-0.1,0-0.1c-0.1-0.3,0-0.6,0.2-0.9c0.2-0.3,0.2-0.7,0.4-1.1
		c0.2-0.4,0.2-0.9,0.2-1.3c0-0.1,0-0.2,0-0.3c0-0.8,0.4-1.6,0.5-2.4c0.1-0.5,0.3-0.9,0.3-1.4c0-0.1,0.1-0.2,0.2-0.2
		c0.1,0,0.1-0.1,0.1-0.1c-0.2-0.5,0-1,0.1-1.5c0.1-0.6,0.1-1.2,0.2-1.8c0.1-0.5,0.1-1,0.2-1.5c0-0.4,0-0.7,0.1-1.1
		c0-0.2,0-0.4,0.2-0.5c0,0,0.1-0.1,0.1-0.2c-0.1-0.4,0.1-0.8,0.1-1.2c0-0.4,0.2-0.8,0.1-1.2c-0.1-0.3,0-0.7,0.2-1
		c0-0.1,0.1-0.2,0.1-0.2c-0.2-0.4-0.1-0.8,0-1.2c0-0.8-0.1-1.5,0-2.3c0.1-0.3,0-0.6-0.1-0.9c-0.1-0.4-0.1-0.8-0.1-1.2
		c0-0.4,0.1-0.9,0-1.3c-0.1-0.2,0-0.4,0-0.6c0-0.1,0-0.2,0-0.3c-0.2-0.6-0.1-1.3-0.3-1.9c-0.2-0.6-0.3-1.2-0.6-1.7
		c-0.3-0.5-0.6-1-1-1.4c-0.5-0.5-1-1.2-1.8-1.4c-0.5-0.2-1-0.3-1.5-0.3c-0.2,0-0.5,0-0.7,0c-0.9-0.1-1.7,0.1-2.5,0.5
		c-0.4,0.2-0.8,0.4-1.3,0.5c-0.5,0.2-1,0.5-1.4,0.8C30,6,29.6,6.2,29.1,6.3c-0.1,0-0.2,0.1-0.3,0.2c-0.2,0.3-0.5,0.6-0.9,0.7
		c-0.2,0.1-0.5,0.3-0.6,0.5c-0.4,0.4-0.9,0.6-1.3,1c-0.5,0.4-1,0.8-1.5,1.2c-0.6,0.5-1.1,1.1-1.8,1.5c-0.1,0-0.1,0.1-0.2,0.2
		c-0.3,0.4-0.8,0.7-1.2,1.1c-0.5,0.4-1,0.8-1.3,1.3c-0.3,0.5-0.8,0.8-1.1,1.3c-0.4,0.5-0.9,0.9-1.4,1.3c-0.1,0.1-0.3,0.2-0.3,0.4
		c0,0.1-0.1,0.1-0.1,0.2c-0.7,0.4-1.1,1.2-1.6,1.8c-0.2,0.3-0.5,0.5-0.7,0.8c-0.6,0.9-1.3,1.8-1.9,2.7c-0.4,0.2-0.5,0.7-0.8,0.9
		c-0.2,0.2-0.2,0.4-0.4,0.6c-0.4,0.5-0.6,1.1-1,1.6c-0.3,0.4-0.5,0.8-0.8,1.2c-0.2,0.3-0.4,0.7-0.6,1.1c-0.3,0.7-0.7,1.4-1.1,2.2
		c-0.2,0.5-0.5,0.9-0.8,1.4c-0.1,0.2-0.1,0.5-0.2,0.7c-0.4,0.9-0.8,1.8-1.1,2.7c-0.2,0.6-0.5,1.3-0.7,1.9c-0.1,0.4-0.3,0.7-0.2,1.1
		c0,0.3,0,0.6,0,0.9c0,0.5,0.2,0.9,0.3,1.4c0.2,0.7,0.7,0.9,1.5,0.6c0.4-0.2,0.7-0.5,1-0.7c0.1-0.1,0.1-0.1,0.2-0.2
		c0.3-0.1,0.4-0.3,0.3-0.6C8.4,38.8,8.5,38.8,8.6,38.7z"/>
	<path d="M90.1,48.4c-0.1-0.5,0.1-0.9,0-1.3c0-0.3,0-0.6,0.1-0.8c0.1-0.1,0.1-0.3,0.1-0.4c0-0.4,0.1-0.8,0.2-1.1
		c0.1-0.2,0.2-0.5,0.2-0.8c0.1-0.4,0.3-0.6,0.4-0.9c0.1-0.1,0.2-0.3,0.2-0.4c0-0.5,0.3-0.9,0.5-1.4c0.6-0.5,0.6-1.3,1-1.8
		c0.3-0.4,0.4-0.8,0.8-1.1c0.2-0.2,0.2-0.5,0.4-0.7c0.3-0.4,0.5-0.8,0.8-1.1c0.3-0.3,0.5-0.7,0.8-1c0.3-0.3,0.4-0.7,0.8-0.8
		c0.1,0,0.2-0.2,0.3-0.4c0.3-0.4,0.7-0.7,1-1c0.3-0.3,0.6-0.6,1-0.9c0.7-0.6,1.3-1.2,2.1-1.6c0.1,0,0.1-0.1,0.1-0.1
		c0.2-0.3,0.6-0.5,0.9-0.7c0.3-0.2,0.6-0.5,0.9-0.7c0.4-0.2,0.8-0.6,1.2-0.8c0.4-0.3,0.9-0.6,1.3-0.8c0.4-0.3,0.8-0.6,1.2-0.9
		c0.4-0.2,0.8-0.5,1.2-0.7c0.1,0,0.2,0,0.2-0.1c0.5-0.5,1.1-0.6,1.6-1c0.3-0.2,0.6-0.4,0.9-0.6c0.5-0.2,1-0.6,1.5-0.8
		c0.3-0.2,0.7-0.4,1-0.6c0.2-0.1,0.3-0.2,0.4-0.3c0.3-0.3,0.8-0.5,1.2-0.7c0.3-0.1,0.5-0.4,0.8-0.6c0.5-0.3,1-0.6,1.5-1
		c0.7-0.5,1.4-0.9,2.1-1.3c0.8-0.5,1.5-1.1,2.4-1.4c0.2-0.1,0.3-0.2,0.4-0.4c0.3-0.2,0.6-0.4,1-0.6c-0.7-0.3-1.1-0.8-1.6-1.2
		c0.3-0.1,0.5-0.3,0.7-0.3c0.2,0,0.3,0,0.5,0.1c0.3,0.2,0.7,0.2,1,0.2c0.1,0,0.2-0.1,0.3,0c0.6,0.2,1.1,0,1.6-0.2
		c0.3-0.1,0.7,0,1,0.1c0.4,0.1,0.6,0.8,0.4,1.1c-0.2,0.3-0.4,0.4-0.7,0.4c-0.2,0-0.4,0.1-0.5,0c-0.3,0-0.4,0.1-0.6,0.2
		c-0.2,0.2-0.6,0.3-0.9,0.5c-0.2,0.1-0.5,0.3-0.7,0.4c-0.8,0.6-1.7,1.1-2.6,1.6c-0.4,0.2-0.7,0.5-1.1,0.7c-0.2,0.1-0.3,0.1-0.5,0.2
		c-0.2,0.2-0.5,0.3-0.7,0.5c-0.2,0.2-0.4,0.4-0.8,0.5c-0.3,0.1-0.6,0.3-0.8,0.5c-0.5,0.3-1,0.5-1.5,0.9c-0.3,0.3-0.8,0.4-1.1,0.7
		c-0.3,0.2-0.7,0.3-1,0.6c-0.1,0.1-0.2,0.1-0.3,0.1c-0.3,0-0.5,0.2-0.7,0.4c-0.1,0.1-0.2,0.2-0.4,0.3c-1.1,0.6-2.1,1.2-3.1,1.9
		c-0.2,0.1-0.4,0.2-0.6,0.3c-0.4,0.1-0.6,0.4-0.9,0.6c-0.6,0.4-1.1,0.8-1.8,1.1c-0.1,0.1-0.2,0.1-0.4,0.2c-0.2,0.2-0.3,0.3-0.6,0.4
		c-0.1,0-0.1,0.1-0.2,0.1c-0.2,0.3-0.5,0.5-0.8,0.6c-0.2,0-0.3,0.2-0.4,0.3c-0.1,0.1-0.1,0.1-0.2,0.2c-0.5,0.1-0.8,0.6-1.2,0.9
		c-0.6,0.4-1.2,0.8-1.6,1.4c-0.1,0.1-0.2,0.2-0.2,0.2c-0.5,0-0.6,0.4-0.8,0.7c-0.2,0.3-0.5,0.5-0.8,0.7c-0.2,0.1-0.4,0.4-0.6,0.6
		c-0.6,0.6-1.2,1.3-1.7,2c-0.5,0.7-1.1,1.3-1.5,2.1c-0.5,0.3-0.4,1-0.9,1.4c-0.1,0.5-0.6,0.9-0.7,1.3c-0.1,0.4-0.3,0.7-0.4,1
		c-0.2,0.5-0.3,1.1-0.6,1.6c-0.2,0.3-0.3,0.7-0.4,1.1c-0.1,0.3-0.2,0.7-0.2,1.1c0,0.3-0.1,0.7-0.1,1c0,0.1,0,0.3,0,0.4
		c0,0.3,0.1,0.6,0.2,0.9c0,0.1,0.1,0.1,0.2,0.1c0.3,0.1,0.5,0.4,0.3,0.7c-0.2,0.4-0.3,0.5-0.7,0.4c-0.3-0.1-0.6-0.1-0.9-0.3
		c-0.4-0.3-0.9-0.4-1.4-0.6c-0.5,0.1-0.8-0.4-1.2-0.5c-0.4-0.1-0.6-0.4-1-0.5c-0.4-0.1-0.7-0.3-1-0.6c-0.3-0.2-0.6-0.3-0.8-0.5
		c-0.1-0.1-0.2,0-0.3,0c-0.5,0.4-0.9,0.4-1.4,0c-0.5,0-0.9-0.4-1.3-0.6c-0.1,0-0.1-0.1-0.2,0c-0.2,0.1-0.3,0-0.3-0.1
		c-0.3-0.4-0.6-0.7-0.9-1.2c-0.1-0.2-0.2-0.4-0.2-0.6c0-0.3,0-0.6-0.2-0.9c-0.1-0.2-0.1-0.4-0.1-0.5c0.1-0.7-0.2-1.4,0.1-2.1
		c0,0,0,0,0,0c0.3-0.6,0.2-1.4,0.6-2c0.1-0.1,0-0.3,0.1-0.4c0.1-0.4,0.2-0.8,0.4-1.1c0.2-0.4,0.3-0.9,0.5-1.3
		c0.2-0.4,0.2-0.8,0.5-1.1c0.1-0.1,0.2-0.2,0.3,0c0.2,0.2,0.4,0.3,0.5,0.6c0.3,0.5,0.2,0.9-0.1,1.4c-0.2,0.2-0.3,0.4-0.3,0.7
		c-0.1,0.4-0.3,0.7-0.4,1.1C82.3,39.4,82,40,82,40.6c0,0.4-0.2,0.7-0.3,1.1c-0.1,0.4-0.2,0.9-0.2,1.3c0,0.5,0.1,1,0.3,1.5
		c0.1,0.4,0.3,0.8,0.7,1.1c0.2,0.1,0.3,0.3,0.6,0.3c0.2,0,0.4,0.2,0.6,0.3c0.1,0.2,0.2,0.1,0.4,0c0.1-0.1,0.2-0.1,0.2-0.2
		c0.1-0.1,0.2-0.2,0.1-0.3c-0.1-0.3,0-0.4,0.3-0.4c0.1,0,0.1-0.1,0.2-0.2c0.2-0.1,0.4-0.1,0.5,0.1c0.1,0.1,0.2,0.2,0.3,0.3
		c0.4,0.2,0.6,0.6,1,0.8c0.1,0.4,0.5,0.5,0.9,0.6c0.3,0.1,0.6,0.2,0.6,0.5c0,0.1,0.1,0.1,0.2,0.1c0.5-0.1,0.9,0.2,1.3,0.4
		C89.6,48.2,89.8,48.2,90.1,48.4z"/>
</g>
</svg>
