<?xml version="1.0" encoding="utf-8"?>
<!-- Generator: Adobe Illustrator 21.1.0, SVG Export Plug-In . SVG Version: 6.00 Build 0)  -->
<svg version="1.1" id="Layer_1" xmlns="http://www.w3.org/2000/svg" xmlns:xlink="http://www.w3.org/1999/xlink" x="0px" y="0px"
	 viewBox="0 0 432 103.3" style="enable-background:new 0 0 432 103.3;" xml:space="preserve">
<style type="text/css">
	.st0{fill:none;stroke:#000000;stroke-width:3.2549;stroke-linecap:round;stroke-linejoin:round;stroke-miterlimit:10;}
</style>
<path class="st0" d="M398.6,44.6c0,0,3.4-1.7,0-26.3c0,0-7.9,48.2-5.9,52.9c0,0,2.5,10.5,6.5,12.4c4,1.9-12.1,3.1-25.6-8.3
	c0,0-6.4-5.5-3.9-13.7c0,0,28.5-1.3,39.9-4.3 M281.9,74.5c0,0,13.5-5.7,12.2-19.2c0,0-14.8,22.8,5.6,11.9c0,0,5.9-4,3.7-8
	c0-0.1-0.1-0.1-0.1-0.2c0,0-7,15.6,4.8,11.9c11.8-3.7,8.4-10.2,6.5-12.4c0,0,4.7,0.9,4.9,7.3c0.1,6.3,10,2.7,13.4,0
	c3.3-2.7,3.7-3.4,3.7-3.4s-2.5,5.4,3.4,2.1c5.9-3.3,4.5,0.6,4.7,3.1c0.2,2.5,8.2,1.4,12.4-4.1c4.3-5.5-2.1-5.6-3.9-0.6
	c-1.8,5,2.5,9.1,11.5,2.2c0,0,2-1.8,2.9-5.2c0,0,5.8,11.7-5.3,6.8 M252.7,47.8l6,30.7c0,0-4.5-16.1-6.6-19.3
	c-2-3.2-4.2-16.1-3.4-17.5c0.8-1.4,11.1-3.1,19.4-1.7c8.3,1.4,5,6.6,4.2,8.3c-0.8,1.6-5.8,7.2-6.1,7.9c0,0,3.6-4.8,10.6,3.6
	c7,8.4-0.5,18.6-15.7,10.3 M223.7,65.5c0,0-3.9,2.5-1.3,4c2.6,1.6,0.4-2.2,0.6-2.4 M190.4,47.4c0,0,1.8,8.6-3,20.8l-0.9,3.1
	c0,0,5.4-5.7,10.2-16.3c4.8-10.6,5.3-9.1,5.3-9.1s1.1,0-3.4,13.2s-2.6,10.8-2.3,10.9s11.2-14.4,11.2-14.4s2.5,2.2,0.8,10.9
	c-1.7,8.7-2.4,13.4,4.8,5.9 M98.4,61.8c0.8,5.7,6.3,15.4,11.6,5.9c0,0,3.5-0.5,3.5,3.6c0,4.1,6.2,3.9,8.4,2.6
	c2.2-1.2,2.9-2.9,6.3-3.4c0,0-11.9,6.5-3,7c0,0,2.1,0.8,4.3-4.7c0,0-2.9,5.6,4.1,1.8l3.7-2c0,0-2,3.6,3,3.3c0,0,7.3-0.8,8.3-3.8
	c0,0-11.1,12.4,0,6.8c11.1-5.6,16.3-12.4,17.7-15.7c1.5-3.7,7-16.8,0-16.4c-7,0.4-23.7,14-16.2,27.6c0,0,1.7,7.2,14.5,4.9
	 M36.9,56.8c0,0,11.6,13.8,11.3,26.7c0,0,0.5,3.3-3.5,1.6c-4-1.7-18.9-6.5-21.6-27.7c-2.8-21.2,31-22.6,37.2-10.8
	c5.7,10.8,1.6,29.6-18.9,22.7c0,0,12.9,2.4,14.5,5.5c0,0,6.5,8,12.5,2.3c6.1-5.7,6.8-12.6,6.8-12.6s-9.3,23.3,5.7,11
	c0,0,6-8.1,8.7-1.7c0,0-2.2-4.7-3.3-3.9c-1.1,0.8-7.1,16.6,6.3,10.1c13.4-6.5,17-8.7,19.7-13.9c2.7-5.2,14.7-24.6,2.3-28.1
	c-12.4-3.6-17.1,18.2-16.3,23.8c0.8,5.7,5.9,15.2,11.6,5.9"/>
</svg>
