<svg version="1" xmlns="http://www.w3.org/2000/svg" viewBox="0 0 432 103"><path d="M399 45s3-2 0-27c0 0-8 49-6 53 0 0 2 11 6 13s-12 3-25-9c0 0-7-5-4-13 0 0 28-2 40-5M282 75s13-6 12-20c0 0-15 23 6 12 0 0 6-4 3-8 0 0-7 16 5 12s8-10 7-12c0 0 4 0 4 7 1 6 10 3 14 0l4-4s-3 6 3 3c6-4 4 0 5 3 0 2 8 1 12-4 4-6-2-6-4-1s3 9 12 2l3-5s5 12-6 7M253 48l6 30-7-19c-2-3-4-16-3-17 0-2 11-3 19-2s5 7 4 8l-6 8s4-5 11 4c7 8-1 18-16 10m-37-4s-4 2-2 4c3 1 1-3 1-3m-33-20s2 9-3 21v3s5-5 10-16c4-11 5-9 5-9s1 0-3 13-3 11-3 11l11-14s3 2 1 11c-1 8-2 13 5 5M98 62c1 5 7 15 12 6 0 0 4-1 4 3s6 4 8 3l6-4s-12 7-3 7c0 0 2 1 5-4 0 0-3 5 4 2l3-2s-2 3 3 3c0 0 8-1 9-4 0 0-11 12 0 7 11-6 16-13 17-16 2-4 7-17 0-16-7 0-23 14-16 27 0 0 2 8 15 5M37 57s12 14 11 26c0 1 1 4-3 2s-19-6-22-28c-3-21 31-22 37-10 6 10 2 29-19 22 0 0 13 3 15 6 0 0 6 8 12 2 7-6 7-13 7-13s-9 24 6 12c0 0 6-9 9-2 0 0-3-5-4-4s-7 16 7 10c13-7 17-9 19-14 3-5 15-25 3-28-13-4-17 18-17 24 1 5 6 15 12 6" fill="none" stroke="#000" stroke-width="3" stroke-linecap="round" stroke-linejoin="round" stroke-miterlimit="10"/></svg>