<?xml version="1.0" encoding="utf-8"?>
<!-- Generator: Adobe Illustrator 21.1.0, SVG Export Plug-In . SVG Version: 6.00 Build 0)  -->
<svg version="1.1" id="Layer_1" xmlns="http://www.w3.org/2000/svg" xmlns:xlink="http://www.w3.org/1999/xlink" x="0px" y="0px"
	 viewBox="0 0 1080 1080" style="enable-background:new 0 0 1080 1080;" xml:space="preserve">
<title>WGBH_impact-report_digital_logo-farm_v1</title>
<g>
	<g>
		<g>
			<path d="M197.6,464.9H227l3.1,14.5l15.1-14.8h26.9l3.5,14.9l14.9-14.9h27.9l-3,12.5c11.7-9.8,21-15.5,40.5-15.5
				c19.6,0,28.5,5.9,36.2,14l11-10.8H447c12.7,0,16.5,9,16.5,15.7l16.2-15.7h30.2v15.1l15.1-15h29.5v81L483,616.1h-33.3l-0.1-15.2
				L434,616.1h-33v-13.9c-9.3,12.7-17.7,13.9-28.5,13.9h-50.5v-9.6c-4.3,3.4-21.1,11.9-43.9,11.9c-22.8,0-35.3-7.1-41.4-16.5
				l-15.2,14.2H194l-3.8-14.2l-14.8,14.4h-28.2L130.5,531L197.6,464.9z M162.6,500.6l15.8,79H211l8.7-30.3l9.1,30.3h32.1l6.4-31.7
				c5.6,33.5,39.4,34.8,49.2,34.8c9.8,0,25.6-2.4,39.4-10.6v7.5h56.3c16,0,20.9-5.1,24.4-12.5v12.5h33.8v-27.9h16v27.9h33v-78.9h-33
				V529h-15.9v-28.3h-34v14.6c-3.2-9.5-9.5-14.6-25.7-14.6h-54.9v11.6c-4.7-5.4-16.2-14.1-41.1-14.1c-24.8,0-33.7,6.1-42.8,18.9
				l3-16.4h-26.6l-7.1,28.8l-6.7-28.7h-28.9l-7.4,29.2l-6.6-29.3L162.6,500.6L162.6,500.6L162.6,500.6z"/>
			<path d="M326.9,524.9h29.3v8.6h-39.9v15.6h10.1v8.6c0,4.5-2.6,7.5-9.8,7.5c-7.2,0-9.8-5.4-9.8-8s0.2-29.5,0.2-32.7
				c0-3.2,2.4-8.4,9.9-8.4C324.4,516.3,326.9,520.3,326.9,524.9"/>
			<path d="M387.3,517.8V531c0,0,6.6,0.2,10.6,0.2c4,0,7.2-2.4,7.2-6.6s-2.7-6.7-7.2-6.7H387.3L387.3,517.8z"/>
			<path d="M387.3,549.5v13.3c0,0,7.1,0.2,11,0.2c4,0,7.2-2.4,7.2-6.6s-2.7-6.9-7.2-6.9H387.3z"/>
			<path d="M436.7,530.5v21.1c-2.7-8.5-8.8-9.9-13-11.4C427.7,539.7,434.3,536.1,436.7,530.5"/>
		</g>
	</g>
	<g>
		<path d="M656.9,578.9h-9.8l-8.3-29.2l-8.2,29.2h-9.8l-13.1-43.2l10.9-1.5l7.9,29.3l8-28.7h9.6l7.9,28.7l7.6-28.7h10.3L656.9,578.9
			z"/>
		<path d="M715.8,534.3l1.5,8.7l-8,0.6c0.8,1.7,1.2,3.8,1.2,5.7c0,9.5-8.1,15.1-17.6,15.1c-1.3,0-2.5-0.1-3.5-0.3
			c-1.1,0.8-1.8,1.6-1.8,2.4c0,1.5,1.3,1.8,8.2,2.8l5.7,0.6c9,1.3,14.6,4.1,14.6,10.8c0,9.5-10.4,14.8-23.1,14.8
			c-11.9,0-20.9-3.6-20.9-10.9c0-4.1,2.8-7.3,8.3-10.4c-1.7-1.3-2.5-3-2.5-4.7c0-2.5,1.9-4.8,5.6-7c-5.2-2.5-8.3-7-8.3-12.8
			c0-9.5,7.9-15.6,17.7-15.6c5,0,9.3,1.5,12.5,4.1L715.8,534.3z M681.4,583.4c0,3.3,3.9,5.7,12.2,5.7c7.9,0,12.3-2.6,12.3-5.9
			c0-2.4-1.9-3.8-7.3-4.5l-5.9-0.7c-3-0.4-4.4-0.6-6.6-1.1C682.9,579,681.4,581.1,681.4,583.4z M692.7,541c-4.8,0-7.6,3.8-7.6,8.6
			c0,4.5,2.9,8,7.6,8c4.8,0,7.7-3.5,7.7-8.3C700.5,544.6,697.3,541,692.7,541z"/>
		<path d="M741.9,579.4c-6.8,0-12.6-1.1-18.1-2.9v-61.6l10.9-1.7v26.7c2.8-2.9,6.9-5.8,12.5-5.8c9.3,0,16.6,6.9,16.6,21.6
			C763.8,571.9,755,579.4,741.9,579.4z M744.4,543.6c-3.6,0-6.9,2.5-9.6,5.7v20c2.3,0.8,3.8,1.2,6.9,1.2c6.9,0,11.1-4.2,11.1-14.2
			C752.8,547.8,749.4,543.6,744.4,543.6z"/>
		<path d="M799.4,578.9v-28.8c0-3.8-1.6-6.4-5.7-6.4c-3.5,0-6.8,2.2-10,5.6v29.7h-10.9v-64l10.9-1.7v27.3c3.6-3.4,8.2-6.4,14-6.4
			c8.2,0,12.6,5,12.6,13.2v31.7L799.4,578.9L799.4,578.9z"/>
		<path d="M820.8,578.9v-13.3h11.9v13.3H820.8z"/>
		<path d="M860.9,579.8c-11.9,0-20.6-8.6-20.6-22.9s8.7-22.9,20.7-22.9c12,0,20.8,8.6,20.8,22.9
			C881.7,571.2,872.9,579.8,860.9,579.8z M860.9,543c-6.4,0-9.9,5.7-9.9,13.9c0,8,3.5,13.9,9.9,13.9c6.7,0,10.2-5.7,10.2-13.9
			C871.1,548.9,867.4,543,860.9,543z"/>
		<path d="M901.5,553.7v25.2h-10.9v-44h9.3l1.3,8.8c2.9-5.1,7.3-9.4,14.1-9.8l1.7,10.8C910.3,545.3,904.6,548.9,901.5,553.7z"/>
		<path d="M963.3,534.3l1.5,8.7l-8,0.6c0.8,1.7,1.2,3.8,1.2,5.7c0,9.5-8.1,15.1-17.6,15.1c-1.3,0-2.5-0.1-3.5-0.3
			c-1.1,0.8-1.8,1.6-1.8,2.4c0,1.5,1.3,1.8,8.2,2.8l5.7,0.6c9,1.3,14.6,4.1,14.6,10.8c0,9.5-10.4,14.8-23.1,14.8
			c-11.9,0-20.9-3.6-20.9-10.9c0-4.1,2.8-7.3,8.3-10.4c-1.7-1.3-2.5-3-2.5-4.7c0-2.5,1.9-4.8,5.6-7c-5.2-2.5-8.3-7-8.3-12.8
			c0-9.5,7.9-15.6,17.7-15.6c5,0,9.3,1.5,12.5,4.1L963.3,534.3z M928.9,583.4c0,3.3,3.9,5.7,12.2,5.7c7.9,0,12.3-2.6,12.3-5.9
			c0-2.4-1.9-3.8-7.3-4.5l-5.9-0.7c-3-0.4-4.4-0.6-6.6-1.1C930.4,579,928.9,581.1,928.9,583.4z M940.2,541c-4.8,0-7.6,3.8-7.6,8.6
			c0,4.5,2.9,8,7.6,8c4.8,0,7.7-3.5,7.7-8.3C947.9,544.6,944.8,541,940.2,541z"/>
	</g>
</g>
</svg>
