<?xml version="1.0" encoding="utf-8"?>
<!-- Generator: Adobe Illustrator 21.0.2, SVG Export Plug-In . SVG Version: 6.00 Build 0)  -->
<svg version="1.1" id="Layer_1" xmlns="http://www.w3.org/2000/svg" xmlns:xlink="http://www.w3.org/1999/xlink" x="0px" y="0px"
	 viewBox="0 0 792 475.6" style="enable-background:new 0 0 792 475.6;" xml:space="preserve">
<style type="text/css">
	.st0{opacity:0.75;fill:#FFFFFF;}
</style>
<title>WGBH_KO</title>
<path class="st0" d="M517.9,224.7v27.5c-3.5-11-11.5-12.9-16.9-14.8C506.2,236.5,514.8,232,517.9,224.7z M453.8,249.2v17.3
	c0,0,9.2,0.2,14.4,0.2s9.4-3.1,9.4-8.5s-3.5-9-9.4-9L453.8,249.2z M453.8,208.2v17.1c0,0,8.5,0.2,13.7,0.2s9.4-3.1,9.4-8.5
	s-3.5-8.7-9.4-8.7L453.8,208.2z M375.3,217.4h38.1v11.2h-51.8v20.2h13.1v11.2c0,5.8-3.3,9.8-12.7,9.8s-12.7-7.1-12.7-10.4l0.2-42.5
	c0-4.2,3.1-10.8,12.9-10.8S375.3,211.4,375.3,217.4L375.3,217.4z M207.5,139.5h38.2l4,18.8l19.6-19.1h35l4.6,19.4l19.4-19.4h36.2
	l-4,16.2c15.2-12.7,27.3-20.2,52.7-20.2s37,7.7,47,18.1l14.4-13.9h56.8c16.4,0,21.4,11.7,21.4,20.4l21-20.4H613v19.6l19.6-19.4h38.3
	v105.2l-92.7,91.1h-43.2v-19.7l-20.4,19.7h-42.9v-18c-12.1,16.4-22.9,18.1-37,18.1H369v-12.4c-5.6,4.4-27.5,15.4-57,15.4
	s-45.8-9.2-53.7-21.4l-19.7,18.5H203l-4.9-18.5L178.9,336h-36.6l-21.8-110.7L207.5,139.5L207.5,139.5z M162.1,185.8l20.4,102.6h42.3
	l11.4-39.3l11.8,39.3h41.6l8.4-41.2c7.3,43.5,51.2,45.2,63.9,45.2s33.3-3.1,51.2-13.7v9.8h73.1c20.8,0,27.1-6.6,31.6-16.2v16.2h43.9
	v-36.1h20.8v36.2h42.9V185.9h-42.9v36.7H562v-36.7h-44.1v19c-4.2-12.3-12.3-19-33.3-19h-71.2V201c-6-7.1-21-18.3-53.3-18.3
	s-43.7,7.9-55.6,24.6l3.9-21.3h-34.6l-9.3,37.3l-8.7-37.2h-37.5l-9.6,37.9l-8.5-38.1L162.1,185.8z"/>
</svg>
